<svg width="56" height="64" viewBox="0 0 56 64" fill="none" xmlns="http://www.w3.org/2000/svg">
<path d="M30.9919 4.16536C30.9919 4.16536 21.9727 4.20961 17.0893 4.29323L18.4319 0L0 12.9289L12.383 26.0594L13.5239 22.4399C13.7305 21.5989 14.4042 21.0235 15.2452 21.0235L27.8151 21.058C28.6609 21.058 29.3936 20.4728 29.5756 19.6466L30.4609 15.6484L42.8487 28.7592L24.407 41.629L24.4168 41.5946L26.4725 35.2752H26.4675H14.2862C11.3748 35.2752 8.79794 37.149 7.89798 39.9177L0.0737668 64H17.1336L20.2072 54.5384C20.4629 53.7565 21.1907 53.2252 22.012 53.2252H30.9919C44.5404 53.2252 55.5218 42.2439 55.5218 28.6954C55.5218 15.1468 44.5404 4.16536 30.9919 4.16536Z" fill="url(#paint0_linear_4495_24510)"/>
<defs>
<linearGradient id="paint0_linear_4495_24510" x1="27.7614" y1="0" x2="27.7614" y2="64" gradientUnits="userSpaceOnUse">
<stop stop-color="#826DF9"/>
<stop offset="0.2826" stop-color="#7F6DF9"/>
<stop offset="0.5233" stop-color="#746FFA"/>
<stop offset="0.7488" stop-color="#6371FC"/>
<stop offset="0.9637" stop-color="#4A74FF"/>
<stop offset="1" stop-color="#4575FF"/>
</linearGradient>
</defs>
</svg>
