<svg xmlns="http://www.w3.org/2000/svg" width="450" height="450" viewBox="0 0 450 450">
  <g id="Layer_2" data-name="Layer 2">
    <g id="Vector_layer" data-name="Vector layer">
      <g>
        <circle cx="225" cy="225" r="225" fill="#98d7c3"/>
        <g>
          <path d="M158.5,164.17c-18.67-15.33-17.35-45,5.22-55.83,20-9.62,42.55-14.08,63.72-20.16,27.87-7.22,54.6-8.79,56.88,27.47a127.68,127.68,0,0,1-.09,13.27,30.08,30.08,0,0,0-9.15-.7,85.85,85.85,0,0,0-.85-20.09C269,86.34,245.9,93.56,230,96.94c-12,2.9-23.92,6.48-35.78,10-11.33,3.45-23.8,6.12-32.81,14.21-11.74,10.27-6.91,30.35,5.54,37.6,2,1,4.95.64,6.83.52a172.52,172.52,0,0,0,32-8.79c1.69-.67,3.31-1.44,5-2,4.41-1.66,7.84,4.44,4.21,7.4a105.9,105.9,0,0,1-21.71,7.93c-6.86,1.73-14.69,4.66-22.05,4.66A19.1,19.1,0,0,1,158.5,164.17Z" fill="#110802"/>
          <path d="M214.94,366c-36.39-3.78-28.8-50.8-26.39-76.81,2.31-25.72,5.35-51.32,11-76.56,3.56-19.64,8.44-38.37,9.38-58-.62-5.44,7.5-6.83,8.49-1.6-.12,22.36-6.48,44.29-10.27,66.23-5.27,23.39-7.56,47-9.84,70.79-3.35,24.43-8.52,83,32.73,62.85,12.63-6.26,14.65-21.94,16.56-34,2.5-16.12,4.39-32.31,6.24-48.53,3.74-36.81,7.77-73.67,15.79-109.72,2.66-11.73,4.18-24,6.6-35.66a4.45,4.45,0,0,1,4.71-3.38c8.07,1.22,1.59,18,1.36,23.46C270,194.87,264.78,245.11,259.12,295.66,255.05,325.7,254.55,365,214.94,366Z" fill="#110802"/>
          <path d="M274.23,108.12a81.31,81.31,0,0,1,1,16.81s0,0,0,0c-2.42,11.69-3.93,23.94-6.6,35.66-8,36-12.05,72.92-15.79,109.72-1.85,16.24-3.73,32.42-6.24,48.54-1.9,12.07-3.93,27.76-16.56,34C188.77,373,194,314.46,197.31,290c2.27-23.8,4.55-47.4,9.83-70.79,3.79-21.93,10.16-43.85,10.26-66.23a3.81,3.81,0,0,0-1.51-2.51,4.11,4.11,0,0,0-5.16-2c-1.7.6-3.32,1.37-5,2a172.52,172.52,0,0,1-32,8.79c-1.89.12-4.82.44-6.83-.52-12.45-7.25-17.29-27.33-5.55-37.59,9-8.1,21.48-10.76,32.81-14.21,11.87-3.56,23.75-7.14,35.79-10C245.9,93.56,269,86.34,274.23,108.12Z" fill="#ffc116"/>
          <path d="M251.62,250.75c-6.06-4,2.51-12,3.81-17,1.45-3.65,4.69-8.85,9.16-5.9a4.36,4.36,0,0,1,.05,7C261.1,239.16,258.93,253.78,251.62,250.75Z" fill="#110802"/>
          <path d="M242.36,283.34c-4.68-3.67,1-8.28,2.83-11.85,3.49-4.26,5.53-17.49,13.12-12.71,3.46,3.2-.63,6.75-1.76,10C253.6,273.24,249.3,287.18,242.36,283.34Z" fill="#110802"/>
          <path d="M239.07,312c-5.48-3.2.6-9.25,2.33-12.57,1.87-3.13,3.75-6.26,5.5-9.46a4.39,4.39,0,0,1,4.49-2.83c7.38,1.63,2,9-.17,12.89C248,303.8,245.48,314.7,239.07,312Z" fill="#110802"/>
          <path d="M211.2,361.28c-10.14-2.25-2.79-12.32,2.25-16C226.24,332.76,228,314.13,233,297.88c8.8-33.1,12.91-67.27,19.09-100.78,3.33-18.17,6.75-36.23,10.26-54.36,3-14.91,7.19-30.31,4.07-45.49a4.36,4.36,0,0,1,3.52-5c4.53-.7,5.34,4.26,5.82,7.65,1.88,17.11-2.8,33.9-5.93,50.56-3.06,15.71-5.85,31.82-8.9,47.46,8.3-.37,4.73,11,4.58,16.07-2,17.21-6.47,34-7.54,51.24-2,18.51-3.43,37.13-7.36,55.36-1.75,9.26-4.14,18.83-10.23,26.29C233.11,354.83,222.6,363.21,211.2,361.28Z" fill="#110802" fill-opacity="0.25"/>
        </g>
      </g>
    </g>
  </g>
</svg>
