<svg xmlns="http://www.w3.org/2000/svg" width="450" height="450" viewBox="0 0 450 450">
  <g id="Layer_2" data-name="Layer 2">
    <g id="Vector_layer" data-name="Vector layer">
      <g>
        <circle cx="225" cy="225" r="225" fill="#98d7c3"/>
        <g>
          <path d="M115.77,355.65c-5.62-7.22-5.39-16.95-2.69-25.29,9.07-28.84,40.88-40.2,64-55.84,20.83-14.68,40.54-31.7,56.85-51.08,14.94-20.39,33-55.15,13.19-77.23-5.57-6.49-14.58-8.39-22.48-5.79l.35-.07c-39.49,6.4-25.76,38.66-48.3,59.79-9.59,8.91-25,9.12-36.53,4.3-5.54-2.85-8.05-8.35-10.14-13.83a64.36,64.36,0,0,1-3.22-12.28,4.38,4.38,0,0,1,1.92-4.34c3-2,6.77.68,6.85,4.08,1.58,6.46,2.91,15,9,18.73,45.7,13.58,29.64-47.37,61.47-59.87,23.09-11,45.3-9.88,56.38,16,7.27,22.32-2.29,46.28-13.78,65.42-16.1,24.86-39.88,43.85-63.14,61.73-23.22,17.19-64.69,29.48-65,63.41a18.36,18.36,0,0,0,2.58,7.12C125.66,355.06,119,359.79,115.77,355.65Z" fill="#110802"/>
          <path d="M125.53,363.72c-5.69-1.51-17.64-14.63-6.82-16.41,3.59.05,4.35,3.95,6.52,6,6.24,5.38,15.51,4.3,22.48,1.1,22.68-10.35,48.35-7.35,72.51-6.47,17.9.15,36.11.84,54.07,1.74,21.43-.83,53.25,8.18,55.4-22.41,1.44-15.18-12.72-18.74-24.94-18.9-29.16-1-58.29,1-87.39,2.15-5.42.32-6.28-8.12-.91-8.91,10.55-1,21.16-.84,31.73-1.65,15.84-.64,31.7-1.07,47.55-.8,13.65.06,30.18.07,39.17,12.09,7.86,13.3,3.14,32.58-8.9,41.87-15.67,9.65-35.68,4.73-53.09,5.4-33.19-1.11-66.8-3.52-100-2.08C156.78,357.46,141.84,371.17,125.53,363.72Z" fill="#110802"/>
          <path d="M131.48,190.81C114.64,152,143.81,104.94,182,92.08c13.91-5.19,28.74-7.17,43.52-7.8,4-.07,10.83-1.39,11.31,4.23A4.4,4.4,0,0,1,233.17,93c-12.39.73-24.65,1.39-36.6,4.2h.06l.21-.06c-38.74,7.39-70.61,48.62-58.62,87.82C140.3,189.4,135.68,194.22,131.48,190.81Z" fill="#110802"/>
          <path d="M212.57,310c-5,.27-6.15-7.34-1.16-8.54,10.3-4.85,19.39-11.37,28.72-17.8,28.33-22.11,55.26-48.63,73.09-79.85,10.89-25.16,15.51-57.1-2.28-80.1-18.35-21.57-48.35-30.6-75.85-30-3.74-.26-9.83.48-10.17-4.7.57-7.77,12.5-3.74,17.71-4.64,15.86.94,32.1,3.78,46.28,11.26,49.51,21.3,52.22,76.15,28.92,118.72-26.9,38.78-62,75.76-105.27,95.68Z" fill="#110802"/>
          <path d="M304.74,308.42c12.22.16,26.39,3.7,24.95,18.89-2.15,30.59-34,21.57-55.4,22.41-18-.91-36.17-1.59-54.06-1.75-24.17-.87-49.84-3.87-72.53,6.48-6.95,3.2-16.24,4.28-22.46-1.11-1.21-1.15-2-2.86-3-4.18,0,0,0,0,0-.05a15.55,15.55,0,0,1-1.76-5.58c.36-33.94,41.83-46.23,65.06-63.41,23.24-17.89,47-36.87,63.13-61.73,11.49-19.14,21-43.09,13.79-65.41-11.1-25.93-33.3-27.07-56.38-16-31.84,12.5-15.78,73.45-61.48,59.86-2.94-1.8-4.77-4.71-6.05-8a5.26,5.26,0,0,0-.25-3.89c-12-39.13,19.76-80.26,58.41-87.77C207.21,94.68,218,93.88,229,93.22a42.75,42.75,0,0,0,6.14.44c27.49-.6,57.49,8.43,75.85,30,17.78,23,13.16,55,2.28,80.1-17.84,31.23-44.77,57.75-73.1,79.86-9.34,6.44-18.41,12.95-28.72,17.8-5,1.21-3.88,8.81,1.17,8.54l0,0c.5-.23,1-.46,1.5-.71a4,4,0,0,0,3.3,1.28C246.46,309.38,275.59,307.42,304.74,308.42Z" fill="#eb8302"/>
          <path d="M254.54,354c-2.14-5,4.3-6.59,7.28-9,3.28-1.94,8.12-6.53,11.27-2,3,5.34-4.38,7.37-7.61,9.93C262.46,355.21,257.09,358.92,254.54,354Z" fill="#110802"/>
          <path d="M277.52,353.86l.05.58c0,.11.06.21.08.31-.89-3.38,2.3-5.21,4.79-6.64,4.22-2,9.7-9.74,14-4.21,2.89,5.11-4.21,7.64-7.33,10.26-2.34,1.33-4.4,3.46-7.15,3.86a4.33,4.33,0,0,1-4.44-4.15Z" fill="#110802"/>
          <path d="M312.59,173.65c-4.51-4.66,3.6-9.44,5.6-12.91,2.59-3.5,7.51-10.74,11.81-5.28,1.93,2.89-.54,5.43-2.46,7.35C323.48,166.35,319,178.13,312.59,173.65Z" fill="#110802"/>
          <path d="M312.21,193.45c-4.58-5.11,3.82-9.58,6.44-13.46a4.33,4.33,0,0,1,6.06-.25c4.52,5.08-3.82,9.57-6.38,13.46A4.36,4.36,0,0,1,312.21,193.45Z" fill="#110802"/>
          <path d="M220.86,300.76c-10.2-5.85,8.69-14.36,12.11-19,15.88-16.39,30.54-34.3,41.69-54.27,20.65-29.85,33-65.18,31.76-101.44,0-3.24-.57-7.13,2.56-9.18,4.43-2.6,8,1.83,7.34,6.22a4.36,4.36,0,0,1,4.78,3.07,185.35,185.35,0,0,1,2.26,23.08,4.44,4.44,0,0,1,2.75,3.38c.36,4.64.31,9.28.39,13.94.33,11.34-3.91,22.2-10.69,31.15-3.61,6.78-6.29,14.06-10.45,20.54-20.18,27.89-43,55.56-71.36,75.37C229.48,295.37,226.31,302.26,220.86,300.76Z" fill="#110802" fill-opacity="0.25"/>
          <path d="M263.59,357.89c-7.12-.22-14.07-2.09-20.95-2.58-2.4-.28-5-.06-7.13-1.44-4.14-3-.9-9,3.86-8.55,8-.31,15.28-4,22.7-6.74a138.28,138.28,0,0,0,42.37-18.84c3.81-3.59,2.36-9.75,1.89-14.37-.12-4.94,6.95-6,8.55-1.44,6.4,3,13.48,7,17.35,13,4.77,8.44,2.18,20-4.22,26.91C311.87,361.05,285.11,357.32,263.59,357.89Zm1.5-9.1a5.45,5.45,0,0,1-.86-1.45l-3,1.19C262.54,348.64,263.81,348.73,265.09,348.79Z" fill="#110802" fill-opacity="0.25"/>
        </g>
      </g>
    </g>
  </g>
</svg>
