<svg xmlns="http://www.w3.org/2000/svg" width="87.92" height="86.55" viewBox="0 0 87.92 86.55">
  <g id="Layer_2" data-name="Layer 2">
    <g id="Vector_layer" data-name="Vector layer">
      <g>
        <path d="M62.69,47.48c-19.89.08-40.29.12-59.88-.74C.28,46-.79,42.12.63,40.42,2,38,4.81,37.4,7.4,37.51c7.18.57,14.39.75,21.6.63,17.89.26,36-.32,53.77-.43,4.62.91,4.47,8.19-.27,8.8C75.44,46.89,69.56,47.67,62.69,47.48Z" fill="#FFFFFF"/>
        <path d="M82,44.27c-6.07-2.9-10-9.2-15.16-13.46C62.19,26.14,39.36,7.59,45.31,1.35c6.19-5.9,12.49,9.22,17.17,12.5,7,6.7,14.5,12.94,21.32,19.9,1.76,1.65,4.16,3.22,4.12,6A4.67,4.67,0,0,1,82,44.27Z" fill="#FFFFFF"/>
        <path d="M50.1,86.3c-6-2.66-1.21-8.74,1.53-12C59.91,61.2,72.91,51.34,80.22,37.87A3.18,3.18,0,0,0,79.5,39c1.9-4.76,9.52-2.29,8.21,2.72a39.32,39.32,0,0,1-3.82,7.65C79,56.82,72.06,62.74,66.63,69.8c-3.59,4.54-6.72,9.37-10.22,14C54.83,85.87,52.59,87.12,50.1,86.3Z" fill="#FFFFFF"/>
      </g>
    </g>
  </g>
</svg>
