<svg xmlns="http://www.w3.org/2000/svg" width="69.94" height="42" viewBox="0 0 69.94 42">
  <g id="Layer_2" data-name="Layer 2">
    <g id="Vector_layer" data-name="Vector layer">
      <g>
        <path d="M35.34,42C21.55,37.4,48.08,21.66,51.27,15.79,55.88,12.47,62.76-1,68.92,4.76a4.44,4.44,0,0,1-.52,6.18C59,20.69,49.09,30.06,39.64,39.68,38.48,41.25,37.14,42.17,35.34,42Z" fill="#110802"/>
        <path d="M29.38,38C20.93,27.3,10.75,18.16,1.49,8.35-3.08,3.91,4-2.24,7.93,2.45,15.58,10.55,23.59,17.68,30.78,26c2.51,3.55,9.49,8.08,4.86,12.57A4.49,4.49,0,0,1,29.38,38Z" fill="#110802"/>
        <path d="M59.61,10.05c-16.06-1.67-32.08-.82-48.18-1C7.56,8.72,1.19,10.66.05,5.46-.93-3.15,14,1.27,19.22.24,32.49.36,46-.29,59.13,1.25c1.61.07,3.23,0,4.83.09a4.42,4.42,0,0,1,4,4.23C68,10.16,63.08,10.5,59.61,10.05Z" fill="#110802"/>
        <path d="M56.85,9.79c-2.05,2.41-4,4.84-5.58,6-1.78,3.26-10.74,9.56-16,15.3-1.45-1.83-3.4-3.58-4.5-5.13C25.61,20,20,14.63,14.41,9.07,28.6,9.15,42.71,8.57,56.85,9.79Z" fill="#308d8a"/>
        <path d="M28.36,28.66a4.48,4.48,0,0,1,3.46-4.43A41.65,41.65,0,0,0,49,8.87a4.46,4.46,0,0,1,5.92-1.82c7.25,5-5.34,14.62-9,18.52C41.65,28.9,30.59,38.07,28.36,28.66Z" fill="#110802" fill-opacity="0.25"/>
      </g>
    </g>
  </g>
</svg>
