<svg xmlns="http://www.w3.org/2000/svg" xmlns:xlink="http://www.w3.org/1999/xlink" width="450" height="477.97" viewBox="0 0 450 477.97">
  <defs>
    <clipPath id="clip-path">
      <circle cx="225" cy="225" r="225" fill="none"/>
    </clipPath>
  </defs>
  <g id="Layer_2" data-name="Layer 2">
    <g id="Vector_layer" data-name="Vector layer">
      <g>
        <circle cx="225" cy="225" r="225" fill="#98d7c3"/>
        <g clip-path="url(#clip-path)">
          <g>
            <path d="M131.52,171.58a5.65,5.65,0,0,1-4.76-3.87c-2.71-10.33,19.83-10.88,26.61-13.49,21.45-5.16,43.57-8.2,65.61-6.23-1.84-6-8.19-19.35,2.51-19.65,7.4,1.17,5.85,10.35,8.54,15.57,2,4.3,6.81,9.88,1.95,14.05-12.2,4.26-26.12-1-38.91,1.18A343.08,343.08,0,0,0,131.52,171.58Z" fill="#110802"/>
            <path d="M128.55,170.19c-5.9-1-6.56-8.63-8.43-13.26-1.28-4.4-4.63-11.26,1-13.94a5.68,5.68,0,0,1,8,4.64l0-.31c0-.16-.08-.31-.11-.46C129.61,153.78,141.32,169.16,128.55,170.19Z" fill="#110802"/>
            <path d="M106.75,148.81c-32.25-.54-52.14-17.62-32.38-48.66,26.16-26.11,70.84-25.8,99.47-4l.37.12-.37-.11c5.83,1.55,4.67,10.77-1.36,10.75a7.82,7.82,0,0,1-4.64-1.16c-20.77-15.88-51.71-19.51-74.49-5.64-9.26,4-14.12,11.91-15.18,21.71-.53,20.75,45.51,16,58.19,10.72a5.77,5.77,0,0,1,7.14,3.71C146.74,147.65,114.19,148.65,106.75,148.81Z" fill="#110802"/>
            <path d="M200.33,129.52a5.83,5.83,0,0,1,5.56-5.93c7.62-.62,15.55.13,22.86-2.45,6.05-2.94,12.67-5.23,15.28-11.75,3.41-9.14-1.24-20.22-8.28-26.48-13-7-29-5.81-42.82-2.19-7.5,2.89-14.58,6.76-20.19,12.55-1.5,1.37-2.79,3-4.22,4.42-3.65,3.54-10.74.54-10.14-4.72a5.51,5.51,0,0,1,3.42-4.54,80.15,80.15,0,0,1,10.36-9.56C188.37,67,210.38,64.13,229.64,68.33c16.74,2.86,26.63,19,27.23,35.13.65,15-13,24.66-25.74,29.06-8,2.63-16.56,2.12-24.85,2.56A5.83,5.83,0,0,1,200.33,129.52Z" fill="#110802"/>
            <path d="M123.85,434.15c-3.64-7.95-3.26-18.88-4.49-27.06-1.3-11.87-4-23.52-6-35.27-8.58-48.95-12.05-98.44-8.32-148,1.6-17.59,3.58-36.42,13.61-51.45,3.68-5,9.06-14.81,15-6.25a6,6,0,0,1,.27,4.35c-16.84,20.4-17,48.74-17.72,73.92-2.78,51.44,5,102.49,14.31,152.85,1.59,10.68,2.29,21.54,4,32.18C136.33,435.67,127.23,439.86,123.85,434.15Z" fill="#110802"/>
            <path d="M324.41,450.47c-3.87-4.46-2.23-11.24-3.43-16.71,0,.06,0,.12,0,.18l0,.15c-2.83-52.07-5.93-102.15-17.08-153.35-9-49.59-25.81-95.58-74-118.72-10-1.83-4.76-15.72,4.61-10.46,31.62,14.53,56.39,42.77,68,75.41,13.47,40,19.66,82.48,25.25,124,3.06,25.75,2.86,51.68,5,77.47-.18,7.47,3.93,15.35-.11,21.64C330.59,452.35,326.68,452.78,324.41,450.47Z" fill="#110802"/>
            <path d="M212.08,334.8c-19.94-1.82-62.38,5.41-70.35-18.38-.86-8.77-.61-19.38,5.65-26.22,13.36-12.4,33.76-6.95,50.11-5.64,24.64.32,49.32-1.2,73.33-6.48,24.24-12.73,40.38,25.6,20.1,39.8C268.63,334.69,238.84,335.4,212.08,334.8ZM231,323.42c15.43-1.73,31-1.92,44.78-9.62,9.94-4.82,17.27-13.05,9.18-23.51l.09.16,0,0c-1.5-2.67-4.93-3.1-7.59-3.05-27,8.08-56.54,9.53-84.74,8.3-11.92-.54-27.09-5.3-37.14,2.91-2.9,4.16-2.19,9.93-2.42,14.72.12,2.24,2.21,3.29,4,4.08,10.37,5,21.76,5.5,32.91,5.2,13.87-.19,27.6,1.56,41.4.71Z" fill="#110802"/>
            <path d="M221.57,327.93c-1.45-8.55-1-17.62-2.29-25.91-.37-4.8-1.67-12.95,5.11-13.41,5.2-.16,6.24,5.17,5.77,9.32.2,5,1.13,9.85,1.35,14.79.28,4.06.35,8.16.74,12.22a5.58,5.58,0,0,1-3.69,6.61A5.65,5.65,0,0,1,221.57,327.93Z" fill="#110802"/>
            <path d="M258.39,322.15c-2.17-11-2.92-21.11-3.65-31.74-.25-5.08,6.54-7.67,9.77-3.71,3.52,10.4,2.08,22.87,4.83,33.55C270.45,327.4,259.84,329.32,258.39,322.15Z" fill="#110802"/>
            <path d="M180.72,327.53a5.67,5.67,0,0,1-5-6.14c1.45-9.5,1.34-18.51,1.65-27.91.52-6.68,11-6.38,11,.34C187.28,301.26,191.46,328.22,180.72,327.53Z" fill="#110802"/>
            <path d="M199.65,317.65c-15.91.19-31.51-4.39-47.22-5.73a5.59,5.59,0,0,1-5.7-5.31c.59-8.89,11.81-5.16,17.45-4.33,17.65,3.11,35.33,5.78,53.19,3.12,15.6-.55,31.71-1.22,46.88-3.67a103,103,0,0,0,18.18-6.66c3.73-2.45,9.13-6.45,12.53-1.31,4.24,8.73-10.5,12.17-16.22,15C253.52,317.8,225.86,315.31,199.65,317.65Z" fill="#110802"/>
            <path d="M246.73,267.19c-42.5.65-40.22-58.16-4.58-68a14.62,14.62,0,0,1,9.57,1.56c9.48,0,20.6,1.91,26.08,10.51C293.39,232.58,272,267.36,246.73,267.19ZM249.41,255c15.06-3,29-25.1,17.36-38-5.94-4.57-14.37-3.93-21.42-3.76-2.46.61-5,2.29-7.5.94C220.12,227.23,223.78,257.86,249.41,255Z" fill="#110802"/>
            <path d="M245.59,242.43c-5.36-1.74-6.11-7.91-4.22-12.53a5.76,5.76,0,0,1,6.16-6.73c4.79-.22,8.85,4.19,10.47,8.41C260.62,238.89,252.28,244.89,245.59,242.43Z" fill="#110802"/>
            <path d="M149.4,264c-26.62-7.55-21-41.87-2.61-55.48,7.23-5.13,16.56-4.52,25-5C223.64,213.76,191.39,276.52,149.4,264Zm10.37-10.62c18.36,1.28,40-25.81,17-36.09-3.26,2.75-7.39.21-10.56-1.38-1.54.44-3.06.93-4.58,1.47a5.67,5.67,0,0,1-5.32-1c-16.54,8.88-20.8,38,4.26,37.06Z" fill="#110802"/>
            <path d="M160.68,245.6c-14.16-1.67-11.08-22.32,2.77-19.42C178.19,225.5,174,247.62,160.68,245.6Z" fill="#110802"/>
            <path d="M197.12,167.19c-.81-5.49-7.35-14.4,1.26-16.72,7.3-.76,8,9.68,9.62,14.84C209.14,172.4,198.48,174.31,197.12,167.19Z" fill="#110802"/>
            <path d="M134.79,198.43c-3.72-.27-7.56-2-11.24-.69-6.87,2.12-10.15-8.18-3.32-10.51,4.32-1.67,9.24-.92,13.6-.09,6.46,1,13.76.45,19.89,0,7.41-1,14.88-1.22,21.63-1.77,6.27.1,18.45-4.8,19.9,4.28a5.61,5.61,0,0,1-5.34,5.7c-6,.08-11.86.92-17.79,1.37C159.21,197.15,147.49,199.71,134.79,198.43Z" fill="#110802"/>
            <path d="M213.76,195.48c-6.8-.43-6.76-10.77.14-11a94.36,94.36,0,0,0,11.24-.35c9.19-1.2,17.57-1.55,26.32-3.5,5-1,13-5.79,15.64,1.17a5.55,5.55,0,0,1-3.62,6.94c-16.15,4.84-33.13,6.67-49.85,6.73Z" fill="#110802"/>
            <path d="M216.58,174.37c.44-10.31,14.38-10.66,15.23-.21C231.66,182.64,216.71,183.4,216.58,174.37Z" fill="#110802"/>
            <path d="M321,342.27c-5.63-1.41-5.37-8.56-1-11.39,15.92-28.63,20.16-67,4.24-96.22-2-4.45-2.91-11.74,3.35-12.91,4.81-.86,7,3.73,7.76,7.69,4.59,9.23,8.55,19,9.9,29.31,2.33,26.61-1.49,55.1-15.6,78.2C327.46,339.65,324.82,343.15,321,342.27Z" fill="#110802"/>
            <path d="M322.8,229.66c-17.48-1-29.66-20.11-28.67-36.62.52-14,.95-30.51,12.14-40.57,3.3-3.12,9.07-6.65,12.36-1.67,3.64,6-4.11,8.39-7,12.28-5.95,8.91-5.64,19.84-6.13,30-.68,10,5.57,21,15,24.3,3.81.64,8.37,2.31,7.83,7A5.83,5.83,0,0,1,322.8,229.66Z" fill="#110802"/>
            <path d="M327,223.61c-.88-9.21-.14-18.88-2.77-27.69-3.32-12.9-3.74-26.65-10.38-38.51-1.13-2.63-2.45-5.74-1.42-8.52,1.65-5.26,10-4.62,10.74.92-.07-.23-.13-.48-.18-.73l-.13-.33a149.59,149.59,0,0,1,10.53,35.36c2,11.44,5.27,22.62,4.71,34.4,0,2,.16,4.14-.78,6C335.24,228.85,328.3,228.29,327,223.61Z" fill="#110802"/>
            <path d="M334,227.77c-8.25-2.48-1.83-11.47-1-16.7,3.75-20.38,9.81-40.91,9.57-61.71a5.56,5.56,0,0,1,5.31-5.68c10.17-.39,4.43,22.81,3.94,29.29-2.24,11.61-4.14,23.69-7,35.07A46.17,46.17,0,0,1,341,222.11C340.64,225.64,337.6,228.69,334,227.77Z" fill="#110802"/>
            <path d="M340.87,233.38c-3.55-1.75-8.61,0-10.56-4.28a5.62,5.62,0,0,1,2.68-7.42c3.35-1.51,7-.65,10.29.57,3.27-1,6.54-2.05,9.8-3.12,26.47-10.18,15.79-52-2.74-65.27a5.59,5.59,0,0,1-6-5.3c-.14-5.86,7.55-7.45,11.64-4.46a57.61,57.61,0,0,1,5.4,4.69c16.5,14.77,22,40.47,16,61.35C371.72,224.53,355.53,233,340.87,233.38Z" fill="#110802"/>
            <path d="M323.21,376.61c-4.23-5.89,3.87-11.75,7.3-16,17.82-16.41,24.31-40.65,29.75-63.39,1.33-21.08-3.15-42.82-8.17-63-7.41-4.61,1.44-15.79,7.78-9.57,3.52,4,3.64,9.91,5.18,14.74,4.09,19,7.94,38.66,6.61,58.17-5.55,26.1-13.48,53.37-33.79,71.93C334.05,373.47,329.33,382.77,323.21,376.61Z" fill="#110802"/>
            <path d="M338,264.24c-3.19-5.29,2.7-10.28,7.56-9.07,5.09-.93,13.78-5,15.5,2.54a5.61,5.61,0,0,1-4.51,6.39C350.6,264.53,342.56,270,338,264.24Z" fill="#110802"/>
            <path d="M348.63,297.4a21.43,21.43,0,0,1-4.37-.49,6.71,6.71,0,0,0,1.26.11c-7.12.21-7.55-10.64-.73-11q8.26.5,16.55.37a5.59,5.59,0,0,1,5.7,5.31C366.44,300.52,354.59,296.82,348.63,297.4Z" fill="#110802"/>
            <path d="M351.89,331.1c-4.94-1.73-8.8-5.71-13.59-7.47-6.88-.41-6.81-10.82.11-11.06,7.31-.16,12.29,6.13,18.73,8.66C363.54,324.74,358.38,334.41,351.89,331.1Z" fill="#110802"/>
            <path d="M153.14,362.51c-12.24-4.53-27.93.62-38-9.14a5.55,5.55,0,0,1-.35-7.79c2.84-3.11,7-1.64,9.48,1.11,5.33,2.45,11.59,1.85,17.32,2.56,6.11,1,19.16.12,18.23,9.11A5.61,5.61,0,0,1,153.14,362.51Z" fill="#110802"/>
            <path d="M164.59,476.77a157.18,157.18,0,0,1-18.92-4.33c-8.13-2.51-20.47-4.13-20.79-14.84-1-9.32-2.28-17.8-2.29-26.93a5.53,5.53,0,0,1,11,1.1c.55,8.82,1.41,17.13,2.67,25.49,25.14,11,51.83,9.18,78.4,8.7,28.3.14,57.7.63,84.93-7.14,7.49-2.77,18.39-3.68,20.73-12.17-.68-9.12,11.83-10.83,11.93-1.39l-.05,0c.49,33.35-84.59,32.49-108.45,32.36-19.78-.54-39.76,1.58-59.42-.9Z" fill="#110802"/>
            <path d="M160.67,245.61c13.31,2,17.52-20.11,2.77-19.44C149.61,223.28,146.52,243.94,160.67,245.61Zm16.12-28.33c23,10.26,1.33,37.35-17,36.07l.82,0c-25.07,1-20.81-28.18-4.28-37a5.69,5.69,0,0,0,5.34,1c1.51-.53,3-1,4.58-1.46C169.4,217.49,173.54,220,176.79,217.28Z" fill="#fff"/>
            <path d="M245.58,242.43c6.69,2.47,15-3.55,12.42-10.86-1.61-4.21-5.68-8.63-10.47-8.4a5.75,5.75,0,0,0-6.16,6.73C239.47,234.53,240.23,240.69,245.58,242.43ZM266.77,217c11.58,12.87-2.29,35-17.36,38-25.63,2.89-29.29-27.73-11.57-40.78,2.52,1.33,5-.34,7.51-1C252.41,213.07,260.83,212.43,266.77,217Z" fill="#fff"/>
            <path d="M129.12,147.62c0-.09,0-.2,0-.3l-.06-.27C129.07,147.23,129.09,147.44,129.12,147.62ZM235.74,82.91c7,6.25,11.7,17.33,8.29,26.47-2.61,6.53-9.23,8.82-15.28,11.75-7.3,2.59-15.25,1.83-22.85,2.45a5.75,5.75,0,1,0,.39,11.49c3-.16,6.07-.18,9.14-.29.13,4.37,2.54,9.91,3.54,13.21-22-2-44.15,1.08-65.6,6.23-4,1.55-13.54,2.38-20.08,4.92-1.54-4.42-4-9.18-4.31-12.25v0s0-.07,0-.09c8.72-1.7,16.16-4.79,14.54-10.54a5.79,5.79,0,0,0-7.15-3.71c-12.66,5.31-58.71,10-58.18-10.72,1-9.8,5.93-17.77,15.18-21.7,22.78-13.88,53.72-10.24,74.49,5.63a7.87,7.87,0,0,0,4.63,1.17c6,0,7.21-9.21,1.37-10.77-.76-.57-1.53-1.14-2.31-1.67.39-.41.78-.82,1.21-1.21,5.61-5.77,12.69-9.64,20.2-12.55C206.75,77.09,222.73,75.9,235.74,82.91Z" fill="#fff"/>
            <path d="M324.24,195.92c2.29,7.65,2,15.91,2.5,24a12.4,12.4,0,0,0-6.21-2.49c-9.45-3.28-15.71-14.32-15-24.3.5-10.19.18-21.11,6.14-30a20,20,0,0,1,3.48-3.28C320.58,171.09,321.15,183.9,324.24,195.92Z" fill="#e95e44"/>
            <path d="M353.74,156.71c16.32,15.53,24.13,52.88-.67,62.43-3.25,1.07-6.52,2.06-9.77,3.11-.67-.25-1.36-.48-2-.66a45.18,45.18,0,0,0,3.43-13.54c2.91-11.4,4.81-23.47,7.06-35.08C352,169.88,353.39,163,353.74,156.71Z" fill="#e95e44"/>
            <path d="M149.41,264c42,12.55,74.24-50.21,22.35-60.47-8.41.48-17.73-.14-25,5C128.43,222.11,122.77,256.44,149.41,264Zm82.41-89.81c-.87-10.46-14.79-10.1-15.23.21C216.71,183.39,231.66,182.64,231.82,174.16Zm14.91,93c25.28.18,46.67-34.6,31.07-55.9-5.49-8.58-16.6-10.53-26.08-10.51a14.75,14.75,0,0,0-9.57-1.56C206.52,209,204.23,267.84,246.73,267.18Zm44.19,50.7c20.27-14.2,4.13-52.53-20.1-39.8-24,5.29-48.69,6.8-73.32,6.48-16.36-1.3-36.76-6.75-50.11,5.63-6.27,6.85-6.53,17.45-5.65,26.22,8,23.8,50.4,16.56,70.34,18.39C238.83,335.4,268.62,334.69,290.92,317.88ZM321,434a49.86,49.86,0,0,1,.62,7.64,7.31,7.31,0,0,0-1.3,5c-2.34,8.5-13.24,9.41-20.73,12.19-27.22,7.76-56.63,7.28-84.93,7.14-26.56.48-53.26,2.29-78.39-8.7-1.16-7.6-2-15.18-2.51-23.15a5.29,5.29,0,0,0,.75-4.67c-1.69-10.65-2.38-21.51-4-32.18-2.38-12.94-4.67-25.9-6.69-38.93,9.18,2.77,20.2.8,29.29,4.17a5.6,5.6,0,0,0,6.66-4.14c.94-9-12.11-8.13-18.23-9.12-5.72-.71-12-.11-17.31-2.56a9.41,9.41,0,0,0-2.45-1.95c-4.69-33.23-7.39-66.68-5.58-100.32.43-15.16.66-31.47,4.46-46.51a5.68,5.68,0,0,0,2.86-.16c3.69-1.28,7.51.41,11.25.69,12.68,1.26,24.41-1.29,37.32-1.72,5.93-.46,11.82-1.31,17.8-1.38a5.58,5.58,0,0,0,5.33-5.7c-1.44-9.09-13.62-4.19-19.9-4.28-6.75.55-14.22.8-21.64,1.76-6.11.48-13.42,1-19.88,0a34.9,34.9,0,0,0-9.32-.85,62.16,62.16,0,0,1,9-15.32,344.49,344.49,0,0,1,59.54-11.84c.48-.09,1-.16,1.46-.21.8,2.87,2.22,5.89,2.59,8.25,1.35,7.12,12,5.22,10.88-1.88-.55-1.76-1-4.14-1.65-6.48,6.41.46,12.87,1.28,19,.57A6.52,6.52,0,0,0,229.9,162a114.34,114.34,0,0,1,26.24,17.24,45.42,45.42,0,0,1-4.67,1.37c-8.77,2-17.13,2.29-26.34,3.51a98.8,98.8,0,0,1-11.24.34c-6.89.23-6.94,10.56-.14,11,16.7-.07,33.62-1.92,49.72-6.73A4.38,4.38,0,0,0,265,188c22.32,24.61,32.54,57.77,38.9,92.72C315.08,331.89,318.2,381.93,321,434l0,0,0,.16Z" fill="#d1c9b6"/>
            <path d="M338.3,323.63c4.29,1.58,7.81,4.92,12.05,6.84-4.56,11.27-10.7,21.74-19.83,30.14-.46.57-1,1.14-1.58,1.76-.32-3.8-.69-7.58-1.15-11.36-.46-3.48-.94-7-1.42-10.44A25.6,25.6,0,0,0,329.6,337a98.27,98.27,0,0,0,6.94-13.69A5.91,5.91,0,0,0,338.3,323.63Z" fill="#d1c9b6"/>
            <path d="M348.63,297.41c3.07-.3,7.7.52,11.54.2-1.76,7.35-3.64,14.84-6,22.17-4.58-2.59-8.66-6.41-13.88-7.1A119.73,119.73,0,0,0,344,296.86c.23.07.46.09.71.14h.07s0,0,0,0A21.93,21.93,0,0,0,348.63,297.41Z" fill="#d1c9b6"/>
            <path d="M360.45,286.37c-5,.07-10.1-.05-15.14-.34a160.46,160.46,0,0,0,.39-19.35c3.64-.58,7.56-2.34,10.81-2.57a5.1,5.1,0,0,0,1.74-.66A173.43,173.43,0,0,1,360.45,286.37Z" fill="#d1c9b6"/>
            <path d="M356.44,253.33c-3.37-.46-7.81,1.28-10.92,1.85a7.31,7.31,0,0,0-.92-.14,96.23,96.23,0,0,0-7.83-22.62,12.18,12.18,0,0,1,4.1,1,41.32,41.32,0,0,0,9.09-1.24,5.93,5.93,0,0,0,2.13,2.13C353.65,240.5,355.13,246.87,356.44,253.33Z" fill="#d1c9b6"/>
            <path d="M177.32,294.16c-.11,3.45-.16,6.87-.27,10.25-4.29-.64-8.59-1.37-12.87-2.13-2.59-.38-6.32-1.37-9.69-1.46a9.27,9.27,0,0,1,1.14-2.18C161.63,293.74,169.44,293.47,177.32,294.16Z" fill="#a89982"/>
            <path d="M176.4,315.43c-.16,2-.41,4-.71,6a6.26,6.26,0,0,0,0,.87,54.12,54.12,0,0,1-18.39-4.84c-1.83-.77-3.94-1.83-4-4.07,0-.46,0-.92,0-1.38C161,312.7,168.66,314.17,176.4,315.43Z" fill="#a89982"/>
            <path d="M219.27,302c.16,1.08.3,2.18.44,3.3q-1.17.06-2.34.09a119,119,0,0,1-29.08.39c0-4.08-.21-7.86,0-10.42,1.56.16,3.07.3,4.54.37,8.63.39,17.4.5,26.17.25A52.89,52.89,0,0,0,219.27,302Z" fill="#a89982"/>
            <path d="M220.46,316.53c.12,2.36.28,4.69.55,7-10.26-.12-20.52-1.05-30.84-.92-1.17,0-2.34.05-3.51.05A26.61,26.61,0,0,0,187.9,317a100,100,0,0,0,11.75.62C206.52,317,213.48,316.76,220.46,316.53Z" fill="#a89982"/>
            <path d="M254.9,292.64c.23,3.46.51,6.85.83,10.26-8.2,1-16.58,1.56-24.94,2-.27-2.29-.53-4.6-.62-6.92a14.16,14.16,0,0,0,.07-2.45A243.85,243.85,0,0,0,254.9,292.64Z" fill="#a89982"/>
            <path d="M257,314c.3,2,.62,4,1,6.07-8.41,1.74-17.13,2.27-25.86,3.21-.2-2.38-.3-4.79-.41-7.19A243.6,243.6,0,0,0,257,314Z" fill="#a89982"/>
            <path d="M285,290.29a17.74,17.74,0,0,1,1.52,2.24c-1.45.78-2.87,1.74-4.08,2.54A97.16,97.16,0,0,1,267,300.93a76.15,76.15,0,0,0-1.45-10.37c4-.92,8-1.95,11.94-3.11C280.09,287.4,283.41,287.79,285,290.29Z" fill="#a89982"/>
            <path d="M278.74,308.77c1.86-.94,4.7-1.93,7.51-3.14-2.26,3.3-6.11,6.07-10.46,8.17a50.36,50.36,0,0,1-7.15,3.28c-.32-1.7-.55-3.41-.73-5.13A97.05,97.05,0,0,0,278.74,308.77Z" fill="#a89982"/>
            <path d="M172.51,226.64c-3.84-2.65-9.19-1.31-13.46-.81-2.86,3.12-8.73,1.22-9.29-3-.93-8.12,9.22-8.48,14.87-8.63,5.39-.5,11.37.45,15.35,4.31C185.22,223.48,178,231.39,172.51,226.64Z" fill="#fff"/>
            <path d="M139.42,224.52c-11.23-10.8,22.48-22.9,30.46-20.48,5.81.52,11.93,1.74,16.62,5.34,5.85,4.06-.52,13.12-6.34,9-7.79-4.89-18.29-4.09-26.34,0C148.76,220.26,145.24,228.24,139.42,224.52Z" fill="#110802"/>
            <path d="M158.27,240.13c-8.71-2.74-2.2-14.51,4.83-14.38,8.41-.53,10.32,11.13,1.4,11.46A5.65,5.65,0,0,1,158.27,240.13Z" fill="#110802"/>
            <path d="M152,237.46c.35-2.59.14-5.42,1.4-7.76,3.07-5.35,11.17-5.51,16-2.8a4.48,4.48,0,0,1-.47-.28l-.65-.29c7.92,3.69,1.66,13.78-5.6,12.62C161.17,244.68,152,243.46,152,237.46Z" fill="#110802"/>
            <path d="M242.58,242.61c-8.19-6-.86-20,8.47-18.92C266.4,226.92,255.42,250.77,242.58,242.61Z" fill="#110802"/>
            <path d="M112.05,298.53c-4.52-4.29.47-8.87,3.52-12.16,3.51-4,5.12-11.64,11.64-8.64,7.94,5.95-3.21,15.41-7.33,20.45A5.62,5.62,0,0,1,112.05,298.53Z" fill="#110802"/>
            <path d="M110.54,323.56c-5.6-5.58,3.79-11.65,6.36-15.73,3-3.69,6.47-10.84,12.12-7.08,5.72,4.09-.69,10.48-3.32,13.88C121.74,318.6,117.16,328.78,110.54,323.56Z" fill="#110802"/>
            <path d="M128.53,156.06c-5.43-4.12,0-9.81,3-13.49,1.68-1.86,3.19-4.14,5.61-5v0c5.15-1.8,9.53,5.07,5.72,9C138.39,150.4,135.57,160.2,128.53,156.06Z" fill="#110802"/>
            <path d="M144.61,158c-4.69-4.21,1.08-9.8,4-12.55,2.26-3,6.78-3.84,9.35-.78,2.51,2.84.91,6.89-1.72,8.82C153.29,156.78,149.25,162.06,144.61,158Z" fill="#110802"/>
            <path d="M147.32,165.22a14.93,14.93,0,0,1-4.13-4.14c-2.61,1.2-5.5,2.39-8.39,2.34-13.34,5.9-15.61-15.55-2.8-16.86-2.44-4.79,1.2-11.6,7-9.46,4.36,2.19,6.49,8,9.41,11.45,2,2.79,4.06,5.12,6.14,7.79C158.6,161,152.72,168.31,147.32,165.22Z" fill="#110802" fill-opacity="0.25"/>
            <path d="M140,471.93c-10.38-3.6-7.41-16.75-8.49-25.36-3.16-21.52-6-43.29-9.09-64.59-6.38-22.12-6.75-45.46-8-68.17-3.91-28.29-5-56.64-2.22-85,1.07-11.21,11-74.7,28.07-62.9,2.23-5.53,9.77-8.2,13-2a5.6,5.6,0,0,1-2.93,7.49c-12.35,35.68-12.88,73.88-9.48,111,2.5,39.78,8.26,78.85,13.28,118.26.25,10.39,20.14,78.07-.1,71.5C149.45,473.44,144.49,474,140,471.93Z" fill="#110802" fill-opacity="0.25"/>
            <path d="M328.13,224.3c-10.68-.24-20.2-6.7-25.49-15.84-3.09-4.32-7.79-12.62-.52-15.37a5.63,5.63,0,0,1,7.14,4.38c3,5.55,6.69,11.09,12.42,14.05a33.62,33.62,0,0,0,7.57,1.56C336.59,214,335.47,225,328.13,224.3Z" fill="#110802" fill-opacity="0.25"/>
            <path d="M336.39,243.4c-4.6-3.61-8-10.52-.62-13.11-.25-5.36,6.66-7.35,10.69-5,2.56,1.21,3.55,4.22,6.16,5.39,5.25-2,10.71,3.77,7.29,8.62-1.12,1.95-3.53,2.38-5.72,2.85C348.62,244.61,341.62,248.85,336.39,243.4Z" fill="#110802" fill-opacity="0.25"/>
            <path d="M224.1,336.08c-11.18.32-21.26-3.71-32.19-4.65-9.76.05-20.19,1.6-29.11-4-5.67-3.24-9.26-9.3-12.46-14.79-3.27-3.3-6.74-7.87-5.74-12.83,1.14-5.23,7.69-6.86,11.81-4.07,1.44-6.92,10.47-8,12.07-.65.26,4.57-4.28,8.16-3.67,12.74a150.73,150.73,0,0,1,18.84,9.46c7.5,1.72,15.06,2.85,22.6,4.37a39.05,39.05,0,0,1,9.52,2c3.39.71,6.89-.07,10.14,1.28C231.64,327,230.21,336,224.1,336.08Z" fill="#110802" fill-opacity="0.25"/>
            <path d="M139,130.65a5.77,5.77,0,0,1,.16,6.58l-.21-.12a5.38,5.38,0,0,0-7.05,3,3.85,3.85,0,0,1-1.07-.5v.3c-.3,3.93-4.13,5.51-7.58,5.45-2.8,1-6.28,1.85-8.71-.35-19.16,1.9-42-11.68-36.38-33.32.18-4.71,2.84-7.14,5.56-7.53,1.88-7.1,6-13.74,12.62-11.61,5.75,3.37,1.51,8.63-.67,12.46-5.58,13.07,6.55,22.8,18.71,22.85,4.49.28,9.39-.62,13.77-1C132.21,125.78,137.27,126.1,139,130.65Z" fill="#110802" fill-opacity="0.25"/>
          </g>
        </g>
      </g>
    </g>
  </g>
</svg>
