<?xml version="1.0" encoding="utf-8"?>
<!-- Generator: Adobe Illustrator 25.4.1, SVG Export Plug-In . SVG Version: 6.00 Build 0)  -->
<svg version="1.1" id="Layer_1" xmlns="http://www.w3.org/2000/svg" xmlns:xlink="http://www.w3.org/1999/xlink" x="0px" y="0px"
	 viewBox="0 0 450 450" style="enable-background:new 0 0 450 450;" xml:space="preserve">
<style type="text/css">
	.st0{fill:#98D7C3;}
	.st1{clip-path:url(#SVGID_00000026864808807785504000000009380000449287070892_);}
	.st2{fill:#110802;}
	.st3{fill:#FFFFFF;}
	.st4{fill:#E95E44;}
	.st5{fill:#D1C9B6;}
	.st6{fill:#A89982;}
	.st7{fill:#110802;fill-opacity:0.25;}
</style>
<g id="Layer_2_00000132770080348603939050000014532947196721711534_">
	<g id="Vector_layer">
		<g>
			<circle class="st0" cx="225" cy="225" r="225"/>
			<g>
				<defs>
					<circle id="SVGID_1_" cx="225" cy="225" r="225"/>
				</defs>
				<clipPath id="SVGID_00000158740124677256927450000015080329394383290766_">
					<use xlink:href="#SVGID_1_"  style="overflow:visible;"/>
				</clipPath>
				<g style="clip-path:url(#SVGID_00000158740124677256927450000015080329394383290766_);">
					<g>
						<path class="st2" d="M131.5,171.6c-2.2-0.2-4.1-1.8-4.8-3.9c-2.7-10.3,19.8-10.9,26.6-13.5c21.4-5.2,43.6-8.2,65.6-6.2
							c-1.8-6-8.2-19.4,2.5-19.6c7.4,1.2,5.9,10.4,8.5,15.6c2,4.3,6.8,9.9,1.9,14.1c-12.2,4.3-26.1-1-38.9,1.2
							C172.2,161.4,151.6,165.6,131.5,171.6z"/>
						<path class="st2" d="M128.6,170.2c-5.9-1-6.6-8.6-8.4-13.3c-1.3-4.4-4.6-11.3,1-13.9c2.9-1.3,6.2,0,7.5,2.8
							c0.3,0.6,0.4,1.2,0.5,1.8v-0.3c0-0.2-0.1-0.3-0.1-0.5C129.6,153.8,141.3,169.2,128.6,170.2z"/>
						<path class="st2" d="M106.8,148.8c-32.2-0.5-52.1-17.6-32.4-48.7c26.2-26.1,70.8-25.8,99.5-4l0.4,0.1l-0.4-0.1
							c5.8,1.6,4.7,10.8-1.4,10.8c-1.6,0.1-3.3-0.3-4.6-1.2c-20.8-15.9-51.7-19.5-74.5-5.6c-9.3,4-14.1,11.9-15.2,21.7
							c-0.5,20.8,45.5,16,58.2,10.7c3-0.9,6.2,0.7,7.1,3.7C146.7,147.6,114.2,148.6,106.8,148.8z"/>
						<path class="st2" d="M200.3,129.5c-0.1-3.2,2.4-5.8,5.6-5.9c7.6-0.6,15.6,0.1,22.9-2.4c6.1-2.9,12.7-5.2,15.3-11.8
							c3.4-9.1-1.2-20.2-8.3-26.5c-13-7-29-5.8-42.8-2.2c-7.5,2.9-14.6,6.8-20.2,12.6c-1.5,1.4-2.8,3-4.2,4.4
							c-3.6,3.5-10.7,0.5-10.1-4.7c0.2-2,1.5-3.8,3.4-4.5c3.2-3.5,6.6-6.7,10.4-9.6c16.2-11.9,38.2-14.7,57.5-10.5
							c16.7,2.9,26.6,19,27.2,35.1c0.6,15-13,24.7-25.7,29.1c-8,2.6-16.6,2.1-24.9,2.6C203.1,135.1,200.5,132.7,200.3,129.5z"/>
						<path class="st2" d="M123.8,434.1c-3.6-8-3.3-18.9-4.5-27.1c-1.3-11.9-4-23.5-6-35.3c-8.6-49-12.1-98.4-8.3-148
							c1.6-17.6,3.6-36.4,13.6-51.4c3.7-5,9.1-14.8,15-6.2c0.6,1.4,0.7,2.9,0.3,4.4c-16.8,20.4-17,48.7-17.7,73.9
							c-2.8,51.4,5,102.5,14.3,152.9c1.6,10.7,2.3,21.5,4,32.2C136.3,435.7,127.2,439.9,123.8,434.1z"/>
						<path class="st2" d="M324.4,450.5c-3.9-4.5-2.2-11.2-3.4-16.7c0,0.1,0,0.1,0,0.2v0.1c-2.8-52.1-5.9-102.1-17.1-153.4
							c-9-49.6-25.8-95.6-74-118.7c-10-1.8-4.8-15.7,4.6-10.5c31.6,14.5,56.4,42.8,68,75.4c13.5,40,19.7,82.5,25.2,124
							c3.1,25.8,2.9,51.7,5,77.5c-0.2,7.5,3.9,15.4-0.1,21.6C330.6,452.4,326.7,452.8,324.4,450.5z"/>
						<path class="st2" d="M212.1,334.8c-19.9-1.8-62.4,5.4-70.3-18.4c-0.9-8.8-0.6-19.4,5.6-26.2c13.4-12.4,33.8-7,50.1-5.6
							c24.6,0.3,49.3-1.2,73.3-6.5c24.2-12.7,40.4,25.6,20.1,39.8C268.6,334.7,238.8,335.4,212.1,334.8z M231,323.4
							c15.4-1.7,31-1.9,44.8-9.6c9.9-4.8,17.3-13,9.2-23.5l0.1,0.2l0,0c-1.5-2.7-4.9-3.1-7.6-3c-27,8.1-56.5,9.5-84.7,8.3
							c-11.9-0.5-27.1-5.3-37.1,2.9c-2.9,4.2-2.2,9.9-2.4,14.7c0.1,2.2,2.2,3.3,4,4.1c10.4,5,21.8,5.5,32.9,5.2
							c13.9-0.2,27.6,1.6,41.4,0.7L231,323.4z"/>
						<path class="st2" d="M221.6,327.9c-1.4-8.5-1-17.6-2.3-25.9c-0.4-4.8-1.7-13,5.1-13.4c5.2-0.2,6.2,5.2,5.8,9.3
							c0.2,5,1.1,9.9,1.4,14.8c0.3,4.1,0.4,8.2,0.7,12.2c0.7,2.8-0.9,5.7-3.7,6.6C225.6,332.4,222.5,330.8,221.6,327.9z"/>
						<path class="st2" d="M258.4,322.1c-2.2-11-2.9-21.1-3.6-31.7c-0.2-5.1,6.5-7.7,9.8-3.7c3.5,10.4,2.1,22.9,4.8,33.5
							C270.5,327.4,259.8,329.3,258.4,322.1z"/>
						<path class="st2" d="M180.7,327.5c-3.1-0.4-5.3-3.1-5-6.1c1.4-9.5,1.3-18.5,1.6-27.9c0.5-6.7,11-6.4,11,0.3
							C187.3,301.3,191.5,328.2,180.7,327.5z"/>
						<path class="st2" d="M199.6,317.6c-15.9,0.2-31.5-4.4-47.2-5.7c-3,0.1-5.5-2.3-5.7-5.3c0.6-8.9,11.8-5.2,17.4-4.3
							c17.6,3.1,35.3,5.8,53.2,3.1c15.6-0.5,31.7-1.2,46.9-3.7c6.3-1.6,12.3-3.9,18.2-6.7c3.7-2.5,9.1-6.5,12.5-1.3
							c4.2,8.7-10.5,12.2-16.2,15C253.5,317.8,225.9,315.3,199.6,317.6z"/>
						<path class="st2" d="M246.7,267.2c-42.5,0.6-40.2-58.2-4.6-68c3.3-0.6,6.7,0,9.6,1.6c9.5,0,20.6,1.9,26.1,10.5
							C293.4,232.6,272,267.4,246.7,267.2z M249.4,255c15.1-3,29-25.1,17.4-38c-5.9-4.6-14.4-3.9-21.4-3.8c-2.5,0.6-5,2.3-7.5,0.9
							C220.1,227.2,223.8,257.9,249.4,255z"/>
						<path class="st2" d="M245.6,242.4c-5.4-1.7-6.1-7.9-4.2-12.5c-0.5-3.1,1.5-6.1,4.7-6.7c0.5-0.1,1-0.1,1.5-0.1
							c4.8-0.2,8.9,4.2,10.5,8.4C260.6,238.9,252.3,244.9,245.6,242.4z"/>
						<path class="st2" d="M149.4,264c-26.6-7.5-21-41.9-2.6-55.5c7.2-5.1,16.6-4.5,25-5C223.6,213.8,191.4,276.5,149.4,264z
							 M159.8,253.4c18.4,1.3,40-25.8,17-36.1c-3.3,2.8-7.4,0.2-10.6-1.4c-1.5,0.4-3.1,0.9-4.6,1.5c-1.8,0.6-3.8,0.2-5.3-1
							c-16.5,8.9-20.8,38,4.3,37.1L159.8,253.4z"/>
						<path class="st2" d="M160.7,245.6c-14.2-1.7-11.1-22.3,2.8-19.4C178.2,225.5,174,247.6,160.7,245.6z"/>
						<path class="st2" d="M197.1,167.2c-0.8-5.5-7.4-14.4,1.3-16.7c7.3-0.8,8,9.7,9.6,14.8C209.1,172.4,198.5,174.3,197.1,167.2z"
							/>
						<path class="st2" d="M134.8,198.4c-3.7-0.3-7.6-2-11.2-0.7c-6.9,2.1-10.2-8.2-3.3-10.5c4.3-1.7,9.2-0.9,13.6-0.1
							c6.5,1,13.8,0.4,19.9,0c7.4-1,14.9-1.2,21.6-1.8c6.3,0.1,18.4-4.8,19.9,4.3c0.1,3-2.3,5.6-5.3,5.7c-6,0.1-11.9,0.9-17.8,1.4
							C159.2,197.1,147.5,199.7,134.8,198.4z"/>
						<path class="st2" d="M213.8,195.5c-6.8-0.4-6.8-10.8,0.1-11c3.8,0.1,7.5,0,11.2-0.4c9.2-1.2,17.6-1.6,26.3-3.5
							c5-1,13-5.8,15.6,1.2c0.9,2.9-0.7,6-3.6,6.9c-16.1,4.8-33.1,6.7-49.9,6.7L213.8,195.5z"/>
						<path class="st2" d="M216.6,174.4c0.4-10.3,14.4-10.7,15.2-0.2C231.7,182.6,216.7,183.4,216.6,174.4z"/>
						<path class="st2" d="M321,342.3c-5.6-1.4-5.4-8.6-1-11.4c15.9-28.6,20.2-67,4.2-96.2c-2-4.4-2.9-11.7,3.4-12.9
							c4.8-0.9,7,3.7,7.8,7.7c4.6,9.2,8.5,19,9.9,29.3c2.3,26.6-1.5,55.1-15.6,78.2C327.5,339.6,324.8,343.1,321,342.3z"/>
						<path class="st2" d="M322.8,229.7c-17.5-1-29.7-20.1-28.7-36.6c0.5-14,1-30.5,12.1-40.6c3.3-3.1,9.1-6.6,12.4-1.7
							c3.6,6-4.1,8.4-7,12.3c-6,8.9-5.6,19.8-6.1,30c-0.7,10,5.6,21,15,24.3c3.8,0.6,8.4,2.3,7.8,7
							C328.1,227.3,325.7,229.5,322.8,229.7z"/>
						<path class="st2" d="M327,223.6c-0.9-9.2-0.1-18.9-2.8-27.7c-3.3-12.9-3.7-26.6-10.4-38.5c-1.1-2.6-2.5-5.7-1.4-8.5
							c1.6-5.3,10-4.6,10.7,0.9c-0.1-0.2-0.1-0.5-0.2-0.7l-0.1-0.3c5,11.3,8.5,23.2,10.5,35.4c2,11.4,5.3,22.6,4.7,34.4
							c0,2,0.2,4.1-0.8,6C335.2,228.9,328.3,228.3,327,223.6z"/>
						<path class="st2" d="M334,227.8c-8.2-2.5-1.8-11.5-1-16.7c3.8-20.4,9.8-40.9,9.6-61.7c-0.1-3,2.3-5.5,5.3-5.7
							c10.2-0.4,4.4,22.8,3.9,29.3c-2.2,11.6-4.1,23.7-7,35.1c-0.5,4.9-1.8,9.6-3.8,14.1C340.6,225.6,337.6,228.7,334,227.8z"/>
						<path class="st2" d="M340.9,233.4c-3.5-1.8-8.6,0-10.6-4.3c-1.3-2.8-0.1-6.1,2.7-7.4c3.4-1.5,7-0.6,10.3,0.6
							c3.3-1,6.5-2.1,9.8-3.1c26.5-10.2,15.8-52-2.7-65.3c-3.1,0.2-5.8-2.1-6-5.2c0,0,0-0.1,0-0.1c-0.1-5.9,7.5-7.4,11.6-4.5
							c1.9,1.4,3.7,3,5.4,4.7c16.5,14.8,22,40.5,16,61.4C371.7,224.5,355.5,233,340.9,233.4z"/>
						<path class="st2" d="M323.2,376.6c-4.2-5.9,3.9-11.8,7.3-16c17.8-16.4,24.3-40.6,29.8-63.4c1.3-21.1-3.1-42.8-8.2-63
							c-7.4-4.6,1.4-15.8,7.8-9.6c3.5,4,3.6,9.9,5.2,14.7c4.1,19,7.9,38.7,6.6,58.2c-5.5,26.1-13.5,53.4-33.8,71.9
							C334,373.5,329.3,382.8,323.2,376.6z"/>
						<path class="st2" d="M338,264.2c-3.2-5.3,2.7-10.3,7.6-9.1c5.1-0.9,13.8-5,15.5,2.5c0.5,3-1.5,5.8-4.5,6.4
							C350.6,264.5,342.6,270,338,264.2z"/>
						<path class="st2" d="M348.6,297.4c-1.5,0-2.9-0.2-4.4-0.5c0.4,0.1,0.8,0.1,1.3,0.1c-7.1,0.2-7.5-10.6-0.7-11
							c5.5,0.3,11,0.5,16.5,0.4c3-0.1,5.5,2.3,5.7,5.3C366.4,300.5,354.6,296.8,348.6,297.4z"/>
						<path class="st2" d="M351.9,331.1c-4.9-1.7-8.8-5.7-13.6-7.5c-6.9-0.4-6.8-10.8,0.1-11.1c7.3-0.2,12.3,6.1,18.7,8.7
							C363.5,324.7,358.4,334.4,351.9,331.1z"/>
						<path class="st2" d="M153.1,362.5c-12.2-4.5-27.9,0.6-38-9.1c-2.2-2.1-2.4-5.5-0.3-7.8c2.8-3.1,7-1.6,9.5,1.1
							c5.3,2.5,11.6,1.9,17.3,2.6c6.1,1,19.2,0.1,18.2,9.1C159.1,361.3,156.1,363.2,153.1,362.5z"/>
						<path class="st2" d="M164.6,476.8c-6.4-1.1-12.7-2.5-18.9-4.3c-8.1-2.5-20.5-4.1-20.8-14.8c-1-9.3-2.3-17.8-2.3-26.9
							c0.4-3,3.2-5.2,6.2-4.8c2.9,0.4,5,2.9,4.8,5.9c0.6,8.8,1.4,17.1,2.7,25.5c25.1,11,51.8,9.2,78.4,8.7
							c28.3,0.1,57.7,0.6,84.9-7.1c7.5-2.8,18.4-3.7,20.7-12.2c-0.7-9.1,11.8-10.8,11.9-1.4h0c0.5,33.4-84.6,32.5-108.4,32.4
							c-19.8-0.5-39.8,1.6-59.4-0.9L164.6,476.8z"/>
						<path class="st3" d="M160.7,245.6c13.3,2,17.5-20.1,2.8-19.4C149.6,223.3,146.5,243.9,160.7,245.6z M176.8,217.3
							c23,10.3,1.3,37.4-17,36.1h0.8c-25.1,1-20.8-28.2-4.3-37c1.5,1.2,3.5,1.6,5.3,1c1.5-0.5,3-1,4.6-1.5
							C169.4,217.5,173.5,220,176.8,217.3z"/>
						<path class="st3" d="M245.6,242.4c6.7,2.5,15-3.6,12.4-10.9c-1.6-4.2-5.7-8.6-10.5-8.4c-3.2-0.3-6,2.1-6.2,5.2
							c0,0.5,0,1,0.1,1.5C239.5,234.5,240.2,240.7,245.6,242.4z M266.8,217c11.6,12.9-2.3,35-17.4,38c-25.6,2.9-29.3-27.7-11.6-40.8
							c2.5,1.3,5-0.3,7.5-1C252.4,213.1,260.8,212.4,266.8,217z"/>
						<path class="st3" d="M129.1,147.6c0-0.1,0-0.2,0-0.3l-0.1-0.3C129.1,147.2,129.1,147.4,129.1,147.6z M235.7,82.9
							c7,6.2,11.7,17.3,8.3,26.5c-2.6,6.5-9.2,8.8-15.3,11.8c-7.3,2.6-15.2,1.8-22.9,2.4c-3.2,0-5.7,2.6-5.7,5.8
							c0,3.2,2.6,5.7,5.8,5.7c0.1,0,0.2,0,0.3,0c3-0.2,6.1-0.2,9.1-0.3c0.1,4.4,2.5,9.9,3.5,13.2c-22-2-44.2,1.1-65.6,6.2
							c-4,1.6-13.5,2.4-20.1,4.9c-1.5-4.4-4-9.2-4.3-12.2l0,0c0,0,0-0.1,0-0.1c8.7-1.7,16.2-4.8,14.5-10.5c-1-3-4.2-4.6-7.1-3.7
							c-12.7,5.3-58.7,10-58.2-10.7c1-9.8,5.9-17.8,15.2-21.7c22.8-13.9,53.7-10.2,74.5,5.6c1.4,0.9,3,1.3,4.6,1.2
							c6,0,7.2-9.2,1.4-10.8c-0.8-0.6-1.5-1.1-2.3-1.7c0.4-0.4,0.8-0.8,1.2-1.2c5.6-5.8,12.7-9.6,20.2-12.6
							C206.8,77.1,222.7,75.9,235.7,82.9z"/>
						<path class="st4" d="M324.2,195.9c2.3,7.6,2,15.9,2.5,24c-1.8-1.4-4-2.2-6.2-2.5c-9.5-3.3-15.7-14.3-15-24.3
							c0.5-10.2,0.2-21.1,6.1-30c1-1.2,2.2-2.3,3.5-3.3C320.6,171.1,321.1,183.9,324.2,195.9z"/>
						<path class="st4" d="M353.7,156.7c16.3,15.5,24.1,52.9-0.7,62.4c-3.2,1.1-6.5,2.1-9.8,3.1c-0.7-0.2-1.4-0.5-2-0.7
							c1.8-4.3,3-8.9,3.4-13.5c2.9-11.4,4.8-23.5,7.1-35.1C352,169.9,353.4,163,353.7,156.7z"/>
						<path class="st5" d="M149.4,264c42,12.5,74.2-50.2,22.4-60.5c-8.4,0.5-17.7-0.1-25,5C128.4,222.1,122.8,256.4,149.4,264z
							 M231.8,174.2c-0.9-10.5-14.8-10.1-15.2,0.2C216.7,183.4,231.7,182.6,231.8,174.2L231.8,174.2z M246.7,267.2
							c25.3,0.2,46.7-34.6,31.1-55.9c-5.5-8.6-16.6-10.5-26.1-10.5c-2.9-1.6-6.3-2.1-9.6-1.6C206.5,209,204.2,267.8,246.7,267.2
							L246.7,267.2z M290.9,317.9c20.3-14.2,4.1-52.5-20.1-39.8c-24,5.3-48.7,6.8-73.3,6.5c-16.4-1.3-36.8-6.8-50.1,5.6
							c-6.3,6.9-6.5,17.5-5.6,26.2c8,23.8,50.4,16.6,70.3,18.4C238.8,335.4,268.6,334.7,290.9,317.9L290.9,317.9z M321,434
							c0.4,2.5,0.6,5.1,0.6,7.6c-1,1.5-1.5,3.2-1.3,5c-2.3,8.5-13.2,9.4-20.7,12.2c-27.2,7.8-56.6,7.3-84.9,7.1
							c-26.6,0.5-53.3,2.3-78.4-8.7c-1.2-7.6-2-15.2-2.5-23.1c1-1.4,1.2-3.1,0.8-4.7c-1.7-10.6-2.4-21.5-4-32.2
							c-2.4-12.9-4.7-25.9-6.7-38.9c9.2,2.8,20.2,0.8,29.3,4.2c3,0.7,5.9-1.2,6.7-4.1c0.9-9-12.1-8.1-18.2-9.1
							c-5.7-0.7-12-0.1-17.3-2.6c-0.7-0.8-1.5-1.4-2.4-2c-4.7-33.2-7.4-66.7-5.6-100.3c0.4-15.2,0.7-31.5,4.5-46.5
							c1,0.2,1.9,0.1,2.9-0.2c3.7-1.3,7.5,0.4,11.2,0.7c12.7,1.3,24.4-1.3,37.3-1.7c5.9-0.5,11.8-1.3,17.8-1.4
							c3-0.1,5.4-2.7,5.3-5.7c-1.4-9.1-13.6-4.2-19.9-4.3c-6.8,0.6-14.2,0.8-21.6,1.8c-6.1,0.5-13.4,1-19.9,0
							c-3.1-0.7-6.2-1-9.3-0.9c2.3-5.5,5.3-10.7,9-15.3c19.5-5.7,39.4-9.7,59.5-11.8c0.5-0.1,1-0.2,1.5-0.2c0.8,2.9,2.2,5.9,2.6,8.2
							c1.4,7.1,12,5.2,10.9-1.9c-0.6-1.8-1-4.1-1.6-6.5c6.4,0.5,12.9,1.3,19,0.6c1.1,1.5,2.8,2.5,4.6,2.6
							c9.5,4.5,18.3,10.3,26.2,17.2c-1.5,0.5-3.1,1-4.7,1.4c-8.8,2-17.1,2.3-26.3,3.5c-3.7,0.3-7.5,0.4-11.2,0.3
							c-6.9,0.2-6.9,10.6-0.1,11c16.7-0.1,33.6-1.9,49.7-6.7c0.6-0.1,1.1-0.4,1.5-0.7c22.3,24.6,32.5,57.8,38.9,92.7
							C315.1,331.9,318.2,381.9,321,434L321,434v0.2V434z"/>
						<path class="st5" d="M338.3,323.6c4.3,1.6,7.8,4.9,12,6.8c-4.6,11.3-10.7,21.7-19.8,30.1c-0.5,0.6-1,1.1-1.6,1.8
							c-0.3-3.8-0.7-7.6-1.1-11.4c-0.5-3.5-0.9-7-1.4-10.4c1.2-1.1,2.3-2.3,3.2-3.6c2.7-4.4,5-9,6.9-13.7
							C337.1,323.5,337.7,323.6,338.3,323.6z"/>
						<path class="st5" d="M348.6,297.4c3.1-0.3,7.7,0.5,11.5,0.2c-1.8,7.4-3.6,14.8-6,22.2c-4.6-2.6-8.7-6.4-13.9-7.1
							c1.6-5.2,2.8-10.5,3.7-15.8c0.2,0.1,0.5,0.1,0.7,0.1h0.1l0,0C346,297.2,347.3,297.4,348.6,297.4z"/>
						<path class="st5" d="M360.5,286.4c-5,0.1-10.1,0-15.1-0.3c0.5-6.4,0.6-12.9,0.4-19.4c3.6-0.6,7.6-2.3,10.8-2.6
							c0.6-0.1,1.2-0.3,1.7-0.7C359.5,271,360.2,278.7,360.5,286.4z"/>
						<path class="st5" d="M356.4,253.3c-3.4-0.5-7.8,1.3-10.9,1.9c-0.3-0.1-0.6-0.1-0.9-0.1c-1.7-7.8-4.3-15.4-7.8-22.6
							c1.4,0.1,2.8,0.4,4.1,1c3.1-0.1,6.1-0.5,9.1-1.2c0.5,0.9,1.2,1.6,2.1,2.1C353.6,240.5,355.1,246.9,356.4,253.3z"/>
						<path class="st6" d="M177.3,294.2c-0.1,3.5-0.2,6.9-0.3,10.2c-4.3-0.6-8.6-1.4-12.9-2.1c-2.6-0.4-6.3-1.4-9.7-1.5
							c0.3-0.8,0.7-1.5,1.1-2.2C161.6,293.7,169.4,293.5,177.3,294.2z"/>
						<path class="st6" d="M176.4,315.4c-0.2,2-0.4,4-0.7,6c0,0.3,0,0.6,0,0.9c-6.4-0.5-12.6-2.2-18.4-4.8c-1.8-0.8-3.9-1.8-4-4.1
							c0-0.5,0-0.9,0-1.4C161,312.7,168.7,314.2,176.4,315.4z"/>
						<path class="st6" d="M219.3,302c0.2,1.1,0.3,2.2,0.4,3.3c-0.8,0-1.6,0.1-2.3,0.1c-9.6,1.3-19.4,1.4-29.1,0.4
							c0-4.1-0.2-7.9,0-10.4c1.6,0.2,3.1,0.3,4.5,0.4c8.6,0.4,17.4,0.5,26.2,0.2C219,298,219.1,300,219.3,302z"/>
						<path class="st6" d="M220.5,316.5c0.1,2.4,0.3,4.7,0.6,7c-10.3-0.1-20.5-1-30.8-0.9c-1.2,0-2.3,0-3.5,0c0.6-1.8,1-3.7,1.2-5.7
							c3.9,0.4,7.8,0.6,11.8,0.6C206.5,317,213.5,316.8,220.5,316.5z"/>
						<path class="st6" d="M254.9,292.6c0.2,3.5,0.5,6.9,0.8,10.3c-8.2,1-16.6,1.6-24.9,2c-0.3-2.3-0.5-4.6-0.6-6.9
							c0.1-0.8,0.1-1.6,0.1-2.5C238.5,295,246.7,294,254.9,292.6z"/>
						<path class="st6" d="M257,314c0.3,2,0.6,4,1,6.1c-8.4,1.7-17.1,2.3-25.9,3.2c-0.2-2.4-0.3-4.8-0.4-7.2
							C240.2,315.8,248.6,315.1,257,314z"/>
						<path class="st6" d="M285,290.3c0.6,0.7,1.1,1.5,1.5,2.2c-1.5,0.8-2.9,1.7-4.1,2.5c-5,2.4-10.1,4.3-15.4,5.9
							c-0.2-3.5-0.7-7-1.5-10.4c4-0.9,8-2,11.9-3.1C280.1,287.4,283.4,287.8,285,290.3z"/>
						<path class="st6" d="M278.7,308.8c1.9-0.9,4.7-1.9,7.5-3.1c-2.3,3.3-6.1,6.1-10.5,8.2c-2.3,1.3-4.7,2.4-7.1,3.3
							c-0.3-1.7-0.5-3.4-0.7-5.1C271.6,311.1,275.2,310,278.7,308.8z"/>
						<path class="st3" d="M172.5,226.6c-3.8-2.6-9.2-1.3-13.5-0.8c-2.9,3.1-8.7,1.2-9.3-3c-0.9-8.1,9.2-8.5,14.9-8.6
							c5.4-0.5,11.4,0.4,15.4,4.3C185.2,223.5,178,231.4,172.5,226.6z"/>
						<path class="st2" d="M139.4,224.5c-11.2-10.8,22.5-22.9,30.5-20.5c5.8,0.5,11.9,1.7,16.6,5.3c5.9,4.1-0.5,13.1-6.3,9
							c-7.8-4.9-18.3-4.1-26.3,0C148.8,220.3,145.2,228.2,139.4,224.5z"/>
						<path class="st2" d="M158.3,240.1c-8.7-2.7-2.2-14.5,4.8-14.4c8.4-0.5,10.3,11.1,1.4,11.5
							C163.3,239.5,160.8,240.7,158.3,240.1z"/>
						<path class="st2" d="M152,237.5c0.4-2.6,0.1-5.4,1.4-7.8c3.1-5.4,11.2-5.5,16-2.8c-0.2-0.1-0.3-0.2-0.5-0.3l-0.6-0.3
							c7.9,3.7,1.7,13.8-5.6,12.6C161.2,244.7,152,243.5,152,237.5z"/>
						<path class="st2" d="M242.6,242.6c-8.2-6-0.9-20,8.5-18.9C266.4,226.9,255.4,250.8,242.6,242.6z"/>
						<path class="st2" d="M112.1,298.5c-4.5-4.3,0.5-8.9,3.5-12.2c3.5-4,5.1-11.6,11.6-8.6c7.9,6-3.2,15.4-7.3,20.5
							C117.8,300.4,114.3,300.6,112.1,298.5z"/>
						<path class="st2" d="M110.5,323.6c-5.6-5.6,3.8-11.6,6.4-15.7c3-3.7,6.5-10.8,12.1-7.1c5.7,4.1-0.7,10.5-3.3,13.9
							C121.7,318.6,117.2,328.8,110.5,323.6z"/>
						<path class="st2" d="M128.5,156.1c-5.4-4.1,0-9.8,3-13.5c1.7-1.9,3.2-4.1,5.6-5l0,0c5.1-1.8,9.5,5.1,5.7,9
							C138.4,150.4,135.6,160.2,128.5,156.1z"/>
						<path class="st2" d="M144.6,158c-4.7-4.2,1.1-9.8,4-12.6c2.3-3,6.8-3.8,9.4-0.8c2.5,2.8,0.9,6.9-1.7,8.8
							C153.3,156.8,149.2,162.1,144.6,158z"/>
						<path class="st7" d="M147.3,165.2c-1.6-1.1-3-2.5-4.1-4.1c-2.6,1.2-5.5,2.4-8.4,2.3c-13.3,5.9-15.6-15.6-2.8-16.9
							c-2.4-4.8,1.2-11.6,7-9.5c4.4,2.2,6.5,8,9.4,11.4c2,2.8,4.1,5.1,6.1,7.8C158.6,161,152.7,168.3,147.3,165.2z"/>
						<path class="st7" d="M140,471.9c-10.4-3.6-7.4-16.8-8.5-25.4c-3.2-21.5-6-43.3-9.1-64.6c-6.4-22.1-6.8-45.5-8-68.2
							c-3.9-28.3-5-56.6-2.2-85c1.1-11.2,11-74.7,28.1-62.9c2.2-5.5,9.8-8.2,13-2c1.3,2.8,0,6.1-2.8,7.4c-0.1,0-0.1,0-0.2,0.1
							c-12.4,35.7-12.9,73.9-9.5,111c2.5,39.8,8.3,78.9,13.3,118.3c0.2,10.4,20.1,78.1-0.1,71.5C149.4,473.4,144.5,474,140,471.9z"
							/>
						<path class="st7" d="M328.1,224.3c-10.7-0.2-20.2-6.7-25.5-15.8c-3.1-4.3-7.8-12.6-0.5-15.4c3-0.9,6.1,0.8,7,3.8
							c0.1,0.2,0.1,0.4,0.1,0.6c3,5.6,6.7,11.1,12.4,14.1c2.5,0.8,5,1.3,7.6,1.6C336.6,214,335.5,225,328.1,224.3z"/>
						<path class="st7" d="M336.4,243.4c-4.6-3.6-8-10.5-0.6-13.1c-0.2-5.4,6.7-7.4,10.7-5c2.6,1.2,3.5,4.2,6.2,5.4
							c5.2-2,10.7,3.8,7.3,8.6c-1.1,1.9-3.5,2.4-5.7,2.9C348.6,244.6,341.6,248.9,336.4,243.4z"/>
						<path class="st7" d="M224.1,336.1c-11.2,0.3-21.3-3.7-32.2-4.6c-9.8,0-20.2,1.6-29.1-4c-5.7-3.2-9.3-9.3-12.5-14.8
							c-3.3-3.3-6.7-7.9-5.7-12.8c1.1-5.2,7.7-6.9,11.8-4.1c1.4-6.9,10.5-8,12.1-0.6c0.3,4.6-4.3,8.2-3.7,12.7
							c6.5,2.7,12.8,5.9,18.8,9.5c7.5,1.7,15.1,2.9,22.6,4.4c3.2,0.3,6.4,0.9,9.5,2c3.4,0.7,6.9-0.1,10.1,1.3
							C231.6,327,230.2,336,224.1,336.1z"/>
						<path class="st7" d="M139,130.6c1.4,1.9,1.5,4.6,0.2,6.6l-0.2-0.1c-2.7-1.1-5.9,0.2-7,2.9c0,0,0,0,0,0.1
							c-0.4-0.1-0.7-0.3-1.1-0.5v0.3c-0.3,3.9-4.1,5.5-7.6,5.4c-2.8,1-6.3,1.9-8.7-0.4c-19.2,1.9-42-11.7-36.4-33.3
							c0.2-4.7,2.8-7.1,5.6-7.5c1.9-7.1,6-13.7,12.6-11.6c5.8,3.4,1.5,8.6-0.7,12.5c-5.6,13.1,6.6,22.8,18.7,22.8
							c4.5,0.3,9.4-0.6,13.8-1C132.2,125.8,137.3,126.1,139,130.6z"/>
					</g>
				</g>
			</g>
		</g>
	</g>
</g>
</svg>
