<svg xmlns="http://www.w3.org/2000/svg" xmlns:xlink="http://www.w3.org/1999/xlink" width="450" height="531.96" viewBox="0 0 450 531.96">
  <defs>
    <clipPath id="clip-path">
      <circle cx="225" cy="225" r="225" fill="none"/>
    </clipPath>
  </defs>
  <g id="Layer_2" data-name="Layer 2">
    <g id="Vector_layer" data-name="Vector layer">
      <g>
        <circle cx="225" cy="225" r="225" fill="#98d7c3"/>
        <g clip-path="url(#clip-path)">
          <g>
            <path d="M128.39,393.27c-21.68-3.56-25.84-19.71-21.1-39,11-31.91,45.5-47.49,70.6-67,27.87-18.75,56.34-37.59,88.39-48.44,7.91-3.1,17.36-3.22,23.85,2.92,3.53,3.19,8,6.81,7.89,12,4.12,21.15-17.65,37-30.5,50.75a372.67,372.67,0,0,1-51.76,45.31c-16.95,12.7-34.15,25.26-52.16,35.94C152.7,390.89,140.32,392.78,128.39,393.27Zm2.44-11.57c9.23-1.27,19.12-2,27.53-6.27,15.39-9.12,30.37-20.17,44.75-30.58,19.33-14.6,38-29.3,54.22-46.75,11.45-11.85,27.26-23.28,30.36-40.27a5.25,5.25,0,0,1-.73-3.94c-6.92-9.79-15.29-5.61-24.39-2-31.8,12.36-59.95,31.45-87.64,50.92-21.12,15.88-58,34.72-58.08,64.31-.7,6,2,11.64,8.05,13.09C127.21,381.22,128.54,382,130.83,381.7Z" fill="#110802"/>
            <path d="M268.54,275.05c-6.85-.25-12.53-8.33-8.18-14.43,3-4.21,9.2-8.18,14.39-6.07,7.59-.55,9,11.08,5,15.79A12,12,0,0,1,268.54,275.05Z" fill="#110802"/>
            <path d="M143.42,376.66c-11.61-.37-18-11.23-18.45-21.82-.49-11,12.15-18.86,22.14-15.4C176.39,335.88,168,378.74,143.42,376.66Zm1.43-11c6.59-.18,13-9,8.46-14.77l-.37-.09c-4.68,2.75-9.42-3.31-14.17-.48-5,2.52-1.92,8.58-.3,12.41C139.75,364.85,142.64,365.33,144.85,365.66Z" fill="#110802"/>
            <path d="M331.49,274.74c-9.58-2-16.5-9.88-25.74-12.58-4.6-2.6-10-1.29-14.54-3.4a5.75,5.75,0,0,1,.2-9.49c2.47-1.43,5.81-1.16,8.58-.94,10.64,1.47,20.21,7.7,29,13.22,18.47,9.6,5.61-15.87-.31-21.17-9.55-8.13-24.5-7.59-36.16-5.51-5.58,1.36-9.79,4.7-14,7.9a4.83,4.83,0,0,1-3.5,1.88c-6.37.66-8.16-8.09-2.69-10.81,15.43-13.86,38.73-13.93,57.19-6.49C347.17,235.29,363.67,278.46,331.49,274.74Z" fill="#110802"/>
            <path d="M355.78,275.21c-4.55-1-8.25-3.61-12.72-4.52-6.16-2.23-3.93-11.77,2.58-11.09,7.38.77,15.52,8.66,22.41,2.16,2.37-9.93-6.32-20.72-14.22-25.84-9.95-7.74-23-4.89-34.17-4.66-6.46-1.1-5.33-10.93.84-10.64C373.45,207.14,404.57,279.86,355.78,275.21Z" fill="#110802"/>
            <path d="M319.39,297.24c-10.26-1.06-40.06,3-42.92-9.38-.24-5.45,7.61-9,10.61-3.78,14.39,3,29.18,1.68,43.74,1.4,16.74-2,35,.44,50.48-6.52,6.89-3.69,8.41-12.36,7.65-19.49-2.8-5-8.6-6.77-13.93-7.53a5.7,5.7,0,0,1-4.33-6.05c2.35-9.95,17.17-3.59,22.34.8,9.58,6.41,9,19.1,5.47,28.81-5,13.13-19.5,18.17-32.41,18.8C350.6,296.07,335,296.83,319.39,297.24Z" fill="#110802"/>
            <path d="M228.26,334.74c-1.69-11.2,15.06-7,21.5-10.66a87.2,87.2,0,0,0,39.84-27,5.34,5.34,0,0,1,5.16-5.25c7.53.3,6.6,9.85,2.25,13.71-14.48,16.28-34.35,29.38-56.21,31.89C236.46,338.14,230.15,340.53,228.26,334.74Z" fill="#110802"/>
            <path d="M299.54,315.22a5.55,5.55,0,0,1,2.64-7.32c5.33-2.69,9.83-6.85,15-9.88,2.09-1.33,3.4-3.61,5.59-4.76a5.5,5.5,0,0,1,7.51,3.29c1.23,7.88-10.21,11.91-15.26,16.15C311,316.1,303.19,322,299.54,315.22Z" fill="#110802"/>
            <path d="M319.79,455.77c-1-18.07-5.36-35.83-7.51-53.83C310,382.48,309,363,304.92,343.88c-1.53-8.2-3.05-16.41-4.22-24.65a5.44,5.44,0,0,1,.62-6.6,5.62,5.62,0,0,1,9.44,1C318.17,348.05,321.21,383.3,326,418c0,8.61,11.74,41.37-.52,42.34A5.6,5.6,0,0,1,319.79,455.77Z" fill="#110802"/>
            <path d="M190.23,460.47c-3.09-2.92-2-7.63-2.27-11.45,0-27.31-.83-54.63-.71-81.93-.51-4.68,5.59-7.74,9.07-4.4,2.08,1.71,2.06,4.78,2.11,7.23.33,15.13,0,30.22.31,45.36.79,12.83.82,25.65.8,38.5C200.82,459.41,195.2,464.55,190.23,460.47Z" fill="#110802"/>
            <path d="M119.16,253.1c-11.8-8.85,43.86-91.33,53.08-103.44,4.84-5,18.09-23.61,24.6-17.5a5.4,5.4,0,0,1,.42,7.42c-16.5,13.78-28.11,32.62-38.89,50.77-11.87,18.22-22.3,36.26-29.53,56.68C128.07,251.49,123.82,256.31,119.16,253.1Z" fill="#110802"/>
            <path d="M113.18,275.45c-8.32-1.84-13-11.88-10.71-19.74,3.69-10.77,21.46-15.09,24.1-1.31,4.45,4.19,4.76,12.09-1,15.25A11,11,0,0,1,113.18,275.45Z" fill="#110802"/>
            <path d="M119.52,271.22c-9.37-14,18.34-9.26,25.34-10.26,18.61-2.58,36.62-6.52,55.23-7.1,7.06-.18,7.49,10.47.38,10.89-24.48,1.09-48.09,8.32-72.59,7.45C125.12,272.6,121.77,273.5,119.52,271.22Z" fill="#110802"/>
            <path d="M183.31,285.6c-1.22-6.48-11.17-22.32-1.31-25a5.42,5.42,0,0,1,6.2,4.4c1.46,5.61,3.59,11.06,5.25,16.6C195.66,287.88,185.91,291.68,183.31,285.6Z" fill="#110802"/>
            <path d="M221.79,205.8c-11.07-1.66-12-14.19-11.51-23.22.54-9.75.66-21.74,8.11-29,3.92-12.52,17.09,2.14,19.63,8.61C246.49,175.86,241.9,207.22,221.79,205.8Zm2.34-10.8c10.07-7.41,8.25-23.95.89-32.76-3.15,6-3.45,13.36-3.79,19.9C221.81,186.09,219.78,193.89,224.13,195Z" fill="#110802"/>
            <path d="M169.49,201.55c-12.08-7.85-3.2-61.93,13.25-58.68,3.38,1.31,4.62,5.39,6.4,8.24,3.77,7.75,7.9,15.58,7.35,24.45C198.38,190.27,186.19,217.36,169.49,201.55Zm9.62-6.33a3.16,3.16,0,0,0,1.2-.53l0,.08c8.48-10.29,6.08-26.11-.2-37C176.34,165.17,170.41,190.54,179.11,195.22Z" fill="#110802"/>
            <path d="M176.89,198.12a9.67,9.67,0,0,1-5.53-9.49,6.85,6.85,0,0,1,5.35-6.22C191.73,172.3,192.45,203.68,176.89,198.12Z" fill="#110802"/>
            <path d="M221.87,198.86c-9.28-2.89-6.07-20.61,4.2-19C237,182.08,232.7,201.31,221.87,198.86Z" fill="#110802"/>
            <path d="M287.27,220.86c-2.93-9.6-4.12-19.67-9.47-28.42-1.56-2.58-3.49-5.88-1.32-8.7-2.26-5.77-8.38-11.76-6.19-18.28-2.56-3.82-6.76-8.16-5.36-13.11a6,6,0,0,0-.12,1,5.46,5.46,0,0,1,5.19-5.23c5.7-.2,5.08,6.39,8.18,9.53,3.45,6.39,25.23,22,10.78,26.48,1.67,4.81,6.47,10,4,15.21,1.84,6.08,4.88,12.34,4.8,18.73C299.2,224.58,289.32,227.31,287.27,220.86Z" fill="#110802"/>
            <path d="M269.36,160.22c-19.11-7-38.83-15.21-59.41-16.77-6,0-12,0-17.91.15-3.09.16-6.51.35-8.31-2.82-2.75-4.65,3.24-11,8-8.24,15.6-1.39,31.59.56,46.49,4.54,8.65,3.09,17.44,5.86,26.07,9.07,4.74,1.61,13.07,3.88,10.89,10.47A5.71,5.71,0,0,1,269.36,160.22Z" fill="#110802"/>
            <path d="M180.83,132.58c.66-5.35-1.65-12.44,2.27-16.72a5.44,5.44,0,0,1,8.8,3.21c.2,4.34-.35,8.73-.24,13.13C191.73,139.28,181.19,139.63,180.83,132.58Z" fill="#110802"/>
            <path d="M270.91,156.79c-7.17-.83-4.33-9.66-3.49-14,.3-4,.38-8.58,5.49-8.89,8.56.37,5,11.65,4.16,16.64C277.05,154,274.51,157.18,270.91,156.79Z" fill="#110802"/>
            <path d="M195.89,119.92c-14.64-.78-30.08-1.33-42.16-10.52.18.09.31.14.46.2-15.43-3.94-21.67-22.62-13.4-35.8,6.24-10.32,17.07-17,28-21.54,29.46-8.91,63.09,3.37,83.09,26.08,2.59,3,7.1,5.36,6.88,9.86a5.4,5.4,0,0,1-5.86,4.8c-10.65-5.58-17.51-18.82-30.1-23.29-22.65-13-58.35-13.63-72.74,11.34-3.43,8.19.36,15.53,8.87,17.74,14.87,10.62,34.31,9.3,51.8,8.64a5.78,5.78,0,0,1,5.92,5.51C216.21,122,202.15,118.75,195.89,119.92Z" fill="#110802"/>
            <path d="M284.72,141.06c-7.27-1.13-13.89-3.75-21-5.42A5.64,5.64,0,0,1,267,124.86c9.34,1.79,18.25,6.12,27.9,4.33C313,127.7,329.51,114.05,324,94.58c-5.59-26.46-39-27.5-60.46-23.44-7.27,1.35-24.53,16.6-27.38,3.57a5.23,5.23,0,0,1,2.92-5c8.94-2.49,16.44-9,25.82-10.11,23.57-3.7,53.44-1.25,66.48,21.69C348.76,116.48,319.73,143.44,284.72,141.06Z" fill="#110802"/>
            <path d="M282.29,531.74C267.24,529,252,529.53,236.79,529c-10.7-.51-20.94-3.94-31.63-4.67-7.9-1.09-20,1-24-7.73.57-18.8,4-37.68,4.14-56.58a5.39,5.39,0,0,1,3.55-6.46c6.51-1.74,8,5.94,7.11,10.83-.7,15.86-2,31.62-3.69,47.4,23,1.68,45.52,7.22,68.71,6.1,8.91-.08,17.05,2,25.85,2.46,11-.89,22.07,0,32.75-.49,2-11.6.6-23.21.1-34.87-.75-9,1.08-17.87-.53-26.77-2.05-7.08,8-10.9,10.62-3.75,2.16,7.17,1.71,14.79,1.19,22.17.4,16.08,3.27,33-.59,48.74-4.79,9.44-18,5.87-26.67,6.08C296.57,531.36,289.43,532.4,282.29,531.74Z" fill="#110802"/>
            <path d="M324.05,94.58c5.47,19.47-11.07,33.11-29.18,34.6-9.65,1.8-18.56-2.53-27.9-4.33a5.64,5.64,0,0,0-3.24,10.78c1.57.38,3.13.8,4.66,1.24a19.25,19.25,0,0,0-1,5.94c-.23,1.13-.58,2.58-.87,4.11-.8-.29-1.58-.53-2.27-.78-8.65-3.2-17.42-6-26.07-9.07a138.82,138.82,0,0,0-41.32-4.86l0-.05a4.86,4.86,0,0,0-5.21-.82c0-3.91.4-7.8.29-11.65,1.31.09,2.65.16,4,.23,6.27-1.18,20.31,2.06,20.74-7a5.78,5.78,0,0,0-5.92-5.52c-17.49.67-36.94,2-51.81-8.64-8.51-2.2-12.29-9.54-8.86-17.74,14.38-25,50.09-24.34,72.74-11.33,12.58,4.46,19.45,17.71,30.1,23.29a5.42,5.42,0,0,0,5.87-4.8c.2-4.49-4.29-6.89-6.89-9.87l-1.07-1.2c4.82-2.36,9.71-5.42,12.78-6C285.06,67.08,318.45,68.13,324.05,94.58Z" fill="#fff"/>
            <path d="M225,162.24A27.83,27.83,0,0,1,230.9,183a7.41,7.41,0,0,0-9.58-2.36C221.63,174.53,222.09,167.81,225,162.24Z" fill="#fff"/>
            <path d="M180.06,157.83c4,6.83,6.38,15.65,5.52,23.83-1.92-1.69-4.89-1.91-8.87.76a5.58,5.58,0,0,0-2.09.8C174.57,174,177.75,162.41,180.06,157.83Z" fill="#fff"/>
            <path d="M221.78,205.8c20.12,1.42,24.7-29.94,16.23-43.59-2.53-6.47-15.69-21.11-19.63-8.6-7.44,7.22-7.55,19.23-8.11,29C209.78,191.62,210.71,204.13,221.78,205.8Zm65.48,15.07a4.9,4.9,0,0,0,3.16,3.33,44,44,0,0,0-18.09,9.65,5.68,5.68,0,0,0-3.09,3.93c-1,.29-2,.63-3,1-26.58,9-50.72,23.52-74.08,38.9-1.31-4-2.71-7.93-3.8-12,4-.44,8-.8,12.07-1,7.11-.43,6.69-11.07-.38-10.9-18.6.58-36.63,4.54-55.23,7.12-2.87.4-9.18-.14-15,0a10.74,10.74,0,0,0-3.27-6.6,12.72,12.72,0,0,0-.53-2,10,10,0,0,0,2.8-5.4c7.25-20.43,17.67-38.45,29.54-56.68,1.82-3,3.65-6.13,5.56-9.2-.29,9.47,1.38,17.69,5.55,20.4,16.72,15.81,28.9-11.26,27-26,.56-8.89-3.58-16.71-7.36-24.45-.49-.78-.93-1.67-1.38-2.53q2.4-2.57,5-5c5.71-.2,11.46-.16,17.18-.14,19.36,1.47,37.94,8.83,56,15.5a75.3,75.3,0,0,0,4.38,6.51c-2.18,6.51,3.94,12.51,6.2,18.29-2.17,2.8-.24,6.11,1.32,8.69C283.15,201.2,284.33,211.27,287.26,220.87Z" fill="#a87045"/>
            <path d="M319.69,485c.51,11.65,1.94,23.25-.09,34.85-10.69.47-21.78-.4-32.76.49-8.8-.42-16.94-2.53-25.85-2.44-23.18,1.11-45.72-4.43-68.7-6.11,1.73-15.79,3-31.54,3.69-47.41a18.67,18.67,0,0,0,.24-3,6.82,6.82,0,0,0,3.31-7.65c0-12.84,0-25.67-.8-38.49-.28-15.14,0-30.25-.31-45.37,0-2.09,0-4.64-1.33-6.4q9.41-6.76,18.67-13.76C221,346,226.1,342.07,231.07,338c2.78,1.17,6.72-.11,9.72-.6,21.87-2.51,41.74-15.61,56.23-31.9a10.64,10.64,0,0,0,3.29-8.49c6.91.18,13.71-.18,18,.13-.35.29-.73.58-1.13.85-5.16,3-9.67,7.2-15,9.89a5.54,5.54,0,0,0-2.65,7.31,5.65,5.65,0,0,0,.36.58,5.54,5.54,0,0,0,.8,3.45c1.18,8.22,2.71,16.44,4.22,24.62C309,363,310,382.48,312.27,401.93c2.07,17.29,6.18,34.34,7.38,51.68a5.67,5.67,0,0,0-.49,4.62C320.78,467.12,318.94,476,319.69,485Z" fill="#a87045"/>
            <path d="M289.66,296.17a6.77,6.77,0,0,0-.06.92,87.11,87.11,0,0,1-39.83,27,12.26,12.26,0,0,1-3.71,1.22q11.1-9.87,21.47-20.83c3.55-3.82,7.8-7.8,12-12C281.93,294.37,285.55,295.51,289.66,296.17Z" fill="#a87045"/>
            <path d="M328.67,240.38c5.91,5.29,18.78,30.77.31,21.16-8.78-5.51-18.36-11.73-29-13.2-1.18-.09-2.45-.2-3.71-.18-1.6-2.46-4.05-4.53-6.16-6.46a18.15,18.15,0,0,0-5.31-3.47,25.89,25.89,0,0,1,7.69-3.36C304.16,232.78,319.11,232.25,328.67,240.38Z" fill="#a87045"/>
            <path d="M353.83,235.92c7.89,5.11,16.58,15.91,14.21,25.85-5.61,5.29-12.05,1-18.23-1.14-.2-10.22-7.07-23.33-15.27-30.07C341.36,230.52,348.12,231.47,353.83,235.92Z" fill="#a87045"/>
            <path d="M143.41,376.66c24.56,2.09,33-40.79,3.71-37.23-10-3.45-22.65,4.4-22.16,15.4C125.43,365.43,131.81,376.28,143.41,376.66ZM279.77,270.35c3.94-4.72,2.56-16.34-5-15.81-5.2-2.11-11.42,1.87-14.4,6.07-4.34,6.11,1.35,14.18,8.2,14.45A12,12,0,0,0,279.77,270.35ZM287,253.9a5.19,5.19,0,0,0,.74,3.93c-3.09,17-18.92,28.41-30.37,40.26-16.18,17.47-34.87,32.16-54.21,46.76-14.38,10.4-29.36,21.47-44.76,30.58-8.4,4.32-18.29,5-27.52,6.27-2.29.29-3.62-.49-5.93-1.53-6.05-1.45-8.74-7.05-8.05-13.09.11-29.59,37-48.41,58.08-64.3,27.69-19.48,55.83-38.55,87.64-50.93C271.68,248.28,280,244.1,287,253.9Z" fill="#e95e44"/>
            <path d="M389,259.48c.76,7.11-.75,15.8-7.64,19.49-15.45,7-33.75,4.51-50.5,6.51-14.47.27-29.21,1.56-43.52-1.35,6-7.18,10.78-15,11.2-23.85a18.16,18.16,0,0,1,7.27,1.89c9.24,2.69,16.16,10.53,25.73,12.58,6.85.78,11.5-.54,14.39-3.23,3.29,1.14,6.33,2.92,9.91,3.69,20.18,1.92,26.69-9.38,23.63-22.36C383.28,253.9,386.91,255.83,389,259.48Z" fill="#ffc116"/>
            <path d="M153.3,350.9c4.54,5.73-1.86,14.58-8.44,14.75-2.23-.33-5.12-.8-6.38-2.91-1.62-3.84-4.76-9.91.29-12.42,4.75-2.82,9.49,3.22,14.16.49A1.43,1.43,0,0,1,153.3,350.9Z" fill="#ffc116"/>
            <path d="M297.55,340c-3.44-1.77-3.3-6-1.53-8.81,2.35-4.55,2.84-14.08,10.14-11.81,7.48,3.71.35,12.92-1.34,18.38A5.4,5.4,0,0,1,297.55,340Z" fill="#110802"/>
            <path d="M288.76,378.16c-6.47-5.78,3.59-12.93,5.85-18.6,2.22-3.88,4.74-7.68,6.24-11.92a5.42,5.42,0,0,1,6.42-4c9.24,3.51.24,14.41-2.51,19.88C300.52,368.33,297.07,382.65,288.76,378.16Z" fill="#110802"/>
            <path d="M294.68,395.6c-5.28-4,.21-9.46,2.51-13.48,3.54-4.69,6.29-16.82,14.14-12.48,2.85,2,2.8,5.9.66,8.41C307.58,383.18,303.43,400.51,294.68,395.6Z" fill="#110802"/>
            <path d="M296.71,422a5.43,5.43,0,0,1-1.31-7.51c4.87-6.35,10.09-12.51,14.33-19.32,1.36-3,4.73-4.82,7.81-3.15,9.54,5.66-9.91,22.37-13.34,28.69A5.44,5.44,0,0,1,296.71,422Z" fill="#110802"/>
            <path d="M182.83,367.2a5.4,5.4,0,0,1-4-6.46c3.06-8.61,4.58-18.89,9.89-26.27,4.7-4.63,12.14,2.4,7.78,7.33-3,7.37-5,14.33-7.18,21.38A5.45,5.45,0,0,1,182.83,367.2Z" fill="#110802"/>
            <path d="M205.58,347.36c-7.31-4.85,2.48-14.19,3.71-19.68,3.26-4.35,1-13.11,7.87-13.67,9.85,1,4.21,13.62,1.51,19.08C215.43,338.12,213.85,350.66,205.58,347.36Z" fill="#110802"/>
            <path d="M231,328.87c-7.05-3.21-.91-11.25-.68-16.69.37-3.94.24-9.53,5.57-9.74,10.6,1.28,3.59,16.84,2.07,23.25A5.45,5.45,0,0,1,231,328.87Z" fill="#110802"/>
            <path d="M293.58,270.38c-4-5,2-8.84,5.67-11.51,2-1.57,4.51-3.26,7.14-3,6.89,0,7.36,10.19.48,10.75C303,269.22,298.09,275.36,293.58,270.38Z" fill="#110802"/>
            <path d="M308.06,278.18c-3.77-4.68,1.55-8.89,5.3-11.27a5.63,5.63,0,0,1,4.53-1.75c4.28.34,6.21,5.68,3.64,8.91C318.1,277.2,312.45,283.06,308.06,278.18Z" fill="#110802"/>
            <path d="M293,274.1c-2-8,4-9.89,10.69-10.41,6.56.12,14.31-2.32,19.71,2.47,2.29.3,4.62-.79,6.87-.2a5.79,5.79,0,0,1,3.32,9c-3.29,4.54-9.54,2.48-14.32,3.65C312.19,278.34,295.18,283.34,293,274.1Z" fill="#110802" fill-opacity="0.25"/>
            <path d="M124.16,382.18c-4.49,0-10.28-2.61-10-7.6-8.5,2-10-9.66-2-11.78,5.2-.93,10.74-.59,16.07-.8,2.82-.06,5.69,1.1,8.42.53,7.12-3.46,15.32-5,22.29-8.29,12.46-7.89,26.27-13.28,38-21.87,28.83-19.53,59-38.24,81.36-65.5,3-5.62,11.47-8,12.75.15.05,3.74-3.11,6.44-5,9.37-3.65,7.82-10.17,12.76-15.72,18.86-20.5,21-43.5,39.65-68.59,54.34C178.5,365,153.36,383.22,124.16,382.18Z" fill="#110802" fill-opacity="0.25"/>
            <path d="M306.41,523.45c-5.67.47-9.09-5.16-9-10.27-1.48-16.89-1.5-33.86-2.1-50.77-3.94-26.76-2.51-53.92-5.88-80.68.3-11.55-3.85-22.1-6.52-33.19-3.61-4.86-8.84-8.1-13.15-12.29-1.61-1.14-2.84-1.66-4.35-2.71-4.88-3.25-1.89-11.32,3.95-10.65,5.11-3.71,11.89-4.67,16.36-9.33,0-.24.07-.48.11-.71a21.43,21.43,0,0,1,1.83-5.68c-2.47-6.43,5-9,10.14-9.66,4.85-2,10.87-6.64,16.09-3.75,3.26-1.11,6.81-2.77,9.93-.56,5,3.31,1.46,11.84-4.41,10.48-4.93,2.29-10.66,1.73-15.45,4.3,8.23,36.89,16.07,74,19.08,111.8,1.06,29-1.77,58.14,0,87.11.46,5.83.76,17.19-8.21,14.7A5.88,5.88,0,0,1,306.41,523.45Z" fill="#110802" fill-opacity="0.25"/>
            <path d="M266.84,242.25c-4.67-1-5.64-6.24-4.8-10.27.68-4.42.56-9.23,2.53-13.29-.59-6.62-.84-12.48-2.51-18.77-2-3.42-.82-8.29,3.37-9.18-.41-8.29-5.72-16.69-5.27-24.29-4.67-2.62-3.47-11.68,1.55-13.38,6.29-2,8.82,5.81,10.34,10.34,2.57,7.93,4.59,15.72,7.78,23.15a5.9,5.9,0,0,1,3.48,3.61c2.1,6.81,3.44,13.88,5.65,20.67,1.58,4.54,4,11.77-2,14,.29,4-3.49,7.72-7.44,6.78a6,6,0,0,1-.86.39C275.48,236.13,273.26,243.49,266.84,242.25Z" fill="#110802" fill-opacity="0.25"/>
            <path d="M256.2,151.74c-4.95-2.27-6.39-7.69-3.87-12.43,1.34-2.27,1.12-5,2.42-7.22A6.08,6.08,0,0,1,263,129.5c5.86.21,7.75,6.8,7.12,11.7.31,4.84-2,11.72-8.09,9.38A5.64,5.64,0,0,1,256.2,151.74Z" fill="#110802" fill-opacity="0.25"/>
            <path d="M289.28,136.14c-2.16-.23-4.55-.61-6.09-2.26-1.16.16-2.33.29-2.94.35-1.66.18-3.31.13-5,.21-2.94,3.12-8.93,1-9.13-3.36-5.11-5.82,2.1-11.54,8.18-9.13,5.63-1.26,10.57-4.09,15.46-7,12.3-4.72,21.07-16.3,18.91-29.8,0-2.69-.42-6.14,1.65-8.25,3.17-3.58,9.26-1.44,9.85,3.2,3.38.32,4.81,3.93,5.84,6.71,5.75,13.71,1,29.93-7.78,41.28C310.8,135.26,298.87,134.21,289.28,136.14Z" fill="#110802" fill-opacity="0.25"/>
          </g>
        </g>
      </g>
    </g>
  </g>
</svg>
