<?xml version="1.0" encoding="utf-8"?>
<!-- Generator: Adobe Illustrator 25.4.1, SVG Export Plug-In . SVG Version: 6.00 Build 0)  -->
<svg version="1.1" id="Layer_1" xmlns="http://www.w3.org/2000/svg" xmlns:xlink="http://www.w3.org/1999/xlink" x="0px" y="0px"
	 viewBox="0 0 450 450" style="enable-background:new 0 0 450 450;" xml:space="preserve">
<style type="text/css">
	.st0{fill:#98D7C3;}
	.st1{clip-path:url(#SVGID_00000130616942287215096860000008873732549917189028_);}
	.st2{fill:#110802;}
	.st3{fill:#FFFFFF;}
	.st4{fill:#A87045;}
	.st5{fill:#E95E44;}
	.st6{fill:#FFC116;}
	.st7{fill:#110802;fill-opacity:0.25;}
</style>
<g id="Layer_2_00000008113855437497416440000001737920589739227049_">
	<g id="Vector_layer">
		<g>
			<circle class="st0" cx="225" cy="225" r="225"/>
			<g>
				<defs>
					<circle id="SVGID_1_" cx="225" cy="225" r="225"/>
				</defs>
				<clipPath id="SVGID_00000167356159290653442170000015203318022643252158_">
					<use xlink:href="#SVGID_1_"  style="overflow:visible;"/>
				</clipPath>
				<g style="clip-path:url(#SVGID_00000167356159290653442170000015203318022643252158_);">
					<g>
						<path class="st2" d="M128.4,393.3c-21.7-3.6-25.8-19.7-21.1-39c11-31.9,45.5-47.5,70.6-67c27.9-18.8,56.3-37.6,88.4-48.4
							c7.9-3.1,17.4-3.2,23.9,2.9c3.5,3.2,8,6.8,7.9,12c4.1,21.2-17.6,37-30.5,50.8c-15.8,16.7-33.1,31.8-51.8,45.3
							c-16.9,12.7-34.2,25.3-52.2,35.9C152.7,390.9,140.3,392.8,128.4,393.3z M130.8,381.7c9.2-1.3,19.1-2,27.5-6.3
							c15.4-9.1,30.4-20.2,44.8-30.6c19.3-14.6,38-29.3,54.2-46.8c11.5-11.9,27.3-23.3,30.4-40.3c-0.8-1.2-1-2.6-0.7-3.9
							c-6.9-9.8-15.3-5.6-24.4-2c-31.8,12.4-59.9,31.5-87.6,50.9c-21.1,15.9-58,34.7-58.1,64.3c-0.7,6,2,11.6,8.1,13.1
							C127.2,381.2,128.5,382,130.8,381.7L130.8,381.7z"/>
						<path class="st2" d="M268.5,275c-6.9-0.2-12.5-8.3-8.2-14.4c3-4.2,9.2-8.2,14.4-6.1c7.6-0.6,9,11.1,5,15.8
							C277.1,273.8,272.9,275.6,268.5,275z"/>
						<path class="st2" d="M143.4,376.7c-11.6-0.4-18-11.2-18.4-21.8c-0.5-11,12.1-18.9,22.1-15.4
							C176.4,335.9,168,378.7,143.4,376.7z M144.8,365.7c6.6-0.2,13-9,8.5-14.8l-0.4-0.1c-4.7,2.8-9.4-3.3-14.2-0.5
							c-5,2.5-1.9,8.6-0.3,12.4C139.8,364.9,142.6,365.3,144.8,365.7L144.8,365.7z"/>
						<path class="st2" d="M331.5,274.7c-9.6-2-16.5-9.9-25.7-12.6c-4.6-2.6-10-1.3-14.5-3.4c-2.6-1.8-3.2-5.4-1.3-8
							c0.4-0.6,0.9-1.1,1.5-1.5c2.5-1.4,5.8-1.2,8.6-0.9c10.6,1.5,20.2,7.7,29,13.2c18.5,9.6,5.6-15.9-0.3-21.2
							c-9.5-8.1-24.5-7.6-36.2-5.5c-5.6,1.4-9.8,4.7-14,7.9c-0.8,1.1-2.1,1.8-3.5,1.9c-6.4,0.7-8.2-8.1-2.7-10.8
							c15.4-13.9,38.7-13.9,57.2-6.5C347.2,235.3,363.7,278.5,331.5,274.7z"/>
						<path class="st2" d="M355.8,275.2c-4.5-1-8.2-3.6-12.7-4.5c-6.2-2.2-3.9-11.8,2.6-11.1c7.4,0.8,15.5,8.7,22.4,2.2
							c2.4-9.9-6.3-20.7-14.2-25.8c-10-7.7-23-4.9-34.2-4.7c-6.5-1.1-5.3-10.9,0.8-10.6C373.5,207.1,404.6,279.9,355.8,275.2z"/>
						<path class="st2" d="M319.4,297.2c-10.3-1.1-40.1,3-42.9-9.4c-0.2-5.5,7.6-9,10.6-3.8c14.4,3,29.2,1.7,43.7,1.4
							c16.7-2,35,0.4,50.5-6.5c6.9-3.7,8.4-12.4,7.6-19.5c-2.8-5-8.6-6.8-13.9-7.5c-2.7-0.7-4.6-3.2-4.3-6.1
							c2.4-9.9,17.2-3.6,22.3,0.8c9.6,6.4,9,19.1,5.5,28.8c-5,13.1-19.5,18.2-32.4,18.8C350.6,296.1,335,296.8,319.4,297.2z"/>
						<path class="st2" d="M228.3,334.7c-1.7-11.2,15.1-7,21.5-10.7c15.5-5.1,29.4-14.4,39.8-27c0-2.8,2.3-5.2,5.2-5.2
							c7.5,0.3,6.6,9.9,2.2,13.7c-14.5,16.3-34.4,29.4-56.2,31.9C236.5,338.1,230.1,340.5,228.3,334.7z"/>
						<path class="st2" d="M299.5,315.2c-1.3-2.8-0.1-6,2.6-7.3c5.3-2.7,9.8-6.9,15-9.9c2.1-1.3,3.4-3.6,5.6-4.8
							c2.8-1.3,6,0,7.3,2.7c0.1,0.2,0.2,0.4,0.2,0.6c1.2,7.9-10.2,11.9-15.3,16.1C311,316.1,303.2,322,299.5,315.2z"/>
						<path class="st2" d="M319.8,455.8c-1-18.1-5.4-35.8-7.5-53.8c-2.3-19.5-3.3-38.9-7.4-58.1c-1.5-8.2-3-16.4-4.2-24.6
							c-1.3-2.1-1.1-4.8,0.6-6.6c1.9-2.4,5.5-2.8,7.9-0.9c0.6,0.5,1.2,1.2,1.5,1.9c7.4,34.4,10.4,69.7,15.2,104.4
							c0,8.6,11.7,41.4-0.5,42.3C322.7,460.4,320.3,458.5,319.8,455.8z"/>
						<path class="st2" d="M190.2,460.5c-3.1-2.9-2-7.6-2.3-11.5c0-27.3-0.8-54.6-0.7-81.9c-0.5-4.7,5.6-7.7,9.1-4.4
							c2.1,1.7,2.1,4.8,2.1,7.2c0.3,15.1,0,30.2,0.3,45.4c0.8,12.8,0.8,25.6,0.8,38.5C200.8,459.4,195.2,464.5,190.2,460.5z"/>
						<path class="st2" d="M119.2,253.1c-11.8-8.9,43.9-91.3,53.1-103.4c4.8-5,18.1-23.6,24.6-17.5c2.1,2,2.3,5.2,0.4,7.4
							c-16.5,13.8-28.1,32.6-38.9,50.8c-11.9,18.2-22.3,36.3-29.5,56.7C128.1,251.5,123.8,256.3,119.2,253.1z"/>
						<path class="st2" d="M113.2,275.5c-8.3-1.8-13-11.9-10.7-19.7c3.7-10.8,21.5-15.1,24.1-1.3c4.5,4.2,4.8,12.1-1,15.3
							C123.3,274.2,118.2,276.6,113.2,275.5z"/>
						<path class="st2" d="M119.5,271.2c-9.4-14,18.3-9.3,25.3-10.3c18.6-2.6,36.6-6.5,55.2-7.1c7.1-0.2,7.5,10.5,0.4,10.9
							c-24.5,1.1-48.1,8.3-72.6,7.5C125.1,272.6,121.8,273.5,119.5,271.2z"/>
						<path class="st2" d="M183.3,285.6c-1.2-6.5-11.2-22.3-1.3-25c2.9-0.5,5.7,1.5,6.2,4.4c1.5,5.6,3.6,11.1,5.2,16.6
							C195.7,287.9,185.9,291.7,183.3,285.6z"/>
						<path class="st2" d="M221.8,205.8c-11.1-1.7-12-14.2-11.5-23.2c0.5-9.8,0.7-21.7,8.1-29c3.9-12.5,17.1,2.1,19.6,8.6
							C246.5,175.9,241.9,207.2,221.8,205.8z M224.1,195c10.1-7.4,8.2-23.9,0.9-32.8c-3.1,6-3.4,13.4-3.8,19.9
							C221.8,186.1,219.8,193.9,224.1,195L224.1,195z"/>
						<path class="st2" d="M169.5,201.6c-12.1-7.9-3.2-61.9,13.2-58.7c3.4,1.3,4.6,5.4,6.4,8.2c3.8,7.8,7.9,15.6,7.4,24.4
							C198.4,190.3,186.2,217.4,169.5,201.6z M179.1,195.2c0.4-0.1,0.8-0.3,1.2-0.5v0.1c8.5-10.3,6.1-26.1-0.2-37
							C176.3,165.2,170.4,190.5,179.1,195.2z"/>
						<path class="st2" d="M176.9,198.1c-3.6-1.7-5.8-5.5-5.5-9.5c0.2-3,2.4-5.6,5.4-6.2C191.7,172.3,192.4,203.7,176.9,198.1z"/>
						<path class="st2" d="M221.9,198.9c-9.3-2.9-6.1-20.6,4.2-19C237,182.1,232.7,201.3,221.9,198.9z"/>
						<path class="st2" d="M287.3,220.9c-2.9-9.6-4.1-19.7-9.5-28.4c-1.6-2.6-3.5-5.9-1.3-8.7c-2.3-5.8-8.4-11.8-6.2-18.3
							c-2.6-3.8-6.8-8.2-5.4-13.1c-0.1,0.3-0.1,0.7-0.1,1c0.1-2.8,2.4-5.1,5.2-5.2c5.7-0.2,5.1,6.4,8.2,9.5
							c3.5,6.4,25.2,22,10.8,26.5c1.7,4.8,6.5,10,4,15.2c1.8,6.1,4.9,12.3,4.8,18.7C299.2,224.6,289.3,227.3,287.3,220.9z"/>
						<path class="st2" d="M269.4,160.2c-19.1-7-38.8-15.2-59.4-16.8c-6,0-12,0-17.9,0.1c-3.1,0.2-6.5,0.4-8.3-2.8
							c-2.8-4.6,3.2-11,8-8.2c15.6-1.4,31.6,0.6,46.5,4.5c8.6,3.1,17.4,5.9,26.1,9.1c4.7,1.6,13.1,3.9,10.9,10.5
							C274.3,159,271.9,160.4,269.4,160.2z"/>
						<path class="st2" d="M180.8,132.6c0.7-5.3-1.6-12.4,2.3-16.7c2.3-1.9,5.8-1.6,7.7,0.8c0.6,0.7,1,1.6,1.1,2.5
							c0.2,4.3-0.4,8.7-0.2,13.1C191.7,139.3,181.2,139.6,180.8,132.6z"/>
						<path class="st2" d="M270.9,156.8c-7.2-0.8-4.3-9.7-3.5-14c0.3-4,0.4-8.6,5.5-8.9c8.6,0.4,5,11.6,4.2,16.6
							C277,154,274.5,157.2,270.9,156.8z"/>
						<path class="st2" d="M195.9,119.9c-14.6-0.8-30.1-1.3-42.2-10.5c0.2,0.1,0.3,0.1,0.5,0.2c-15.4-3.9-21.7-22.6-13.4-35.8
							c6.2-10.3,17.1-17,28-21.5c29.5-8.9,63.1,3.4,83.1,26.1c2.6,3,7.1,5.4,6.9,9.9c-0.3,2.9-2.9,5.1-5.9,4.8
							c-10.6-5.6-17.5-18.8-30.1-23.3c-22.6-13-58.3-13.6-72.7,11.3c-3.4,8.2,0.4,15.5,8.9,17.7c14.9,10.6,34.3,9.3,51.8,8.6
							c3.1-0.1,5.8,2.4,5.9,5.5C216.2,122,202.1,118.8,195.9,119.9z"/>
						<path class="st2" d="M284.7,141.1c-7.3-1.1-13.9-3.8-21-5.4c-2.9-1-4.5-4.3-3.4-7.2c1-2.7,3.9-4.3,6.7-3.6
							c9.3,1.8,18.2,6.1,27.9,4.3c18.1-1.5,34.6-15.1,29.1-34.6c-5.6-26.5-39-27.5-60.5-23.4c-7.3,1.3-24.5,16.6-27.4,3.6
							c-0.1-2.1,1-4.1,2.9-5c8.9-2.5,16.4-9,25.8-10.1c23.6-3.7,53.4-1.2,66.5,21.7C348.8,116.5,319.7,143.4,284.7,141.1z"/>
						<path class="st2" d="M282.3,531.7c-15.1-2.7-30.3-2.2-45.5-2.7c-10.7-0.5-20.9-3.9-31.6-4.7c-7.9-1.1-20,1-24-7.7
							c0.6-18.8,4-37.7,4.1-56.6c-0.7-2.8,0.8-5.6,3.6-6.5c6.5-1.7,8,5.9,7.1,10.8c-0.7,15.9-2,31.6-3.7,47.4
							c23,1.7,45.5,7.2,68.7,6.1c8.9-0.1,17,2,25.9,2.5c11-0.9,22.1,0,32.8-0.5c2-11.6,0.6-23.2,0.1-34.9c-0.8-9,1.1-17.9-0.5-26.8
							c-2-7.1,8-10.9,10.6-3.8c2.2,7.2,1.7,14.8,1.2,22.2c0.4,16.1,3.3,33-0.6,48.7c-4.8,9.4-18,5.9-26.7,6.1
							C296.6,531.4,289.4,532.4,282.3,531.7z"/>
						<path class="st3" d="M324,94.6c5.5,19.5-11.1,33.1-29.2,34.6c-9.6,1.8-18.6-2.5-27.9-4.3c-3-0.7-6.1,1.2-6.8,4.2
							c-0.6,2.8,0.9,5.6,3.5,6.6c1.6,0.4,3.1,0.8,4.7,1.2c-0.6,1.9-1,3.9-1,5.9c-0.2,1.1-0.6,2.6-0.9,4.1c-0.8-0.3-1.6-0.5-2.3-0.8
							c-8.6-3.2-17.4-6-26.1-9.1c-13.5-3.7-27.4-5.3-41.3-4.9v-0.1c-1.4-1.3-3.5-1.6-5.2-0.8c0-3.9,0.4-7.8,0.3-11.7
							c1.3,0.1,2.6,0.2,4,0.2c6.3-1.2,20.3,2.1,20.7-7c-0.1-3.1-2.8-5.6-5.9-5.5c-17.5,0.7-36.9,2-51.8-8.6
							c-8.5-2.2-12.3-9.5-8.9-17.7c14.4-25,50.1-24.3,72.7-11.3c12.6,4.5,19.4,17.7,30.1,23.3c2.9,0.3,5.5-1.9,5.9-4.8
							c0.2-4.5-4.3-6.9-6.9-9.9l-1.1-1.2c4.8-2.4,9.7-5.4,12.8-6C285.1,67.1,318.5,68.1,324,94.6z"/>
						<path class="st3" d="M225,162.2c4.7,5.8,6.8,13.3,5.9,20.8c-2.1-3.1-6.3-4.1-9.6-2.4C221.6,174.5,222.1,167.8,225,162.2z"/>
						<path class="st3" d="M180.1,157.8c4,6.8,6.4,15.6,5.5,23.8c-1.9-1.7-4.9-1.9-8.9,0.8c-0.7,0.1-1.5,0.4-2.1,0.8
							C174.6,174,177.8,162.4,180.1,157.8z"/>
						<path class="st4" d="M221.8,205.8c20.1,1.4,24.7-29.9,16.2-43.6c-2.5-6.5-15.7-21.1-19.6-8.6c-7.4,7.2-7.6,19.2-8.1,29
							C209.8,191.6,210.7,204.1,221.8,205.8z M287.3,220.9c0.4,1.6,1.6,2.8,3.2,3.3c-6.7,1.7-12.9,5.1-18.1,9.6
							c-1.6,0.8-2.7,2.2-3.1,3.9c-1,0.3-2,0.6-3,1c-26.6,9-50.7,23.5-74.1,38.9c-1.3-4-2.7-7.9-3.8-12c4-0.4,8-0.8,12.1-1
							c7.1-0.4,6.7-11.1-0.4-10.9c-18.6,0.6-36.6,4.5-55.2,7.1c-2.9,0.4-9.2-0.1-15,0c-0.3-2.5-1.4-4.9-3.3-6.6
							c-0.1-0.7-0.3-1.3-0.5-2c1.5-1.5,2.5-3.4,2.8-5.4c7.2-20.4,17.7-38.4,29.5-56.7c1.8-3,3.6-6.1,5.6-9.2
							c-0.3,9.5,1.4,17.7,5.6,20.4c16.7,15.8,28.9-11.3,27-26c0.6-8.9-3.6-16.7-7.4-24.4c-0.5-0.8-0.9-1.7-1.4-2.5
							c1.6-1.7,3.3-3.4,5-5c5.7-0.2,11.5-0.2,17.2-0.1c19.4,1.5,37.9,8.8,56,15.5c1.3,2.2,2.8,4.4,4.4,6.5
							c-2.2,6.5,3.9,12.5,6.2,18.3c-2.2,2.8-0.2,6.1,1.3,8.7C283.1,201.2,284.3,211.3,287.3,220.9z"/>
						<path class="st4" d="M319.7,485c0.5,11.6,1.9,23.2-0.1,34.8c-10.7,0.5-21.8-0.4-32.8,0.5c-8.8-0.4-16.9-2.5-25.9-2.4
							c-23.2,1.1-45.7-4.4-68.7-6.1c1.7-15.8,3-31.5,3.7-47.4c0.2-1,0.2-2,0.2-3c2.7-1.5,4.1-4.6,3.3-7.6c0-12.8,0-25.7-0.8-38.5
							c-0.3-15.1,0-30.2-0.3-45.4c0-2.1,0-4.6-1.3-6.4c6.3-4.5,12.5-9.1,18.7-13.8c5.2-3.7,10.3-7.6,15.3-11.7
							c2.8,1.2,6.7-0.1,9.7-0.6c21.9-2.5,41.7-15.6,56.2-31.9c2.3-2.2,3.5-5.3,3.3-8.5c6.9,0.2,13.7-0.2,18,0.1
							c-0.4,0.3-0.7,0.6-1.1,0.9c-5.2,3-9.7,7.2-15,9.9c-2.7,1.3-3.9,4.6-2.6,7.3c0.1,0.2,0.2,0.4,0.4,0.6c-0.1,1.2,0.2,2.4,0.8,3.5
							c1.2,8.2,2.7,16.4,4.2,24.6c4.1,19.2,5.1,38.6,7.4,58.1c2.1,17.3,6.2,34.3,7.4,51.7c-0.8,1.4-1,3.1-0.5,4.6
							C320.8,467.1,318.9,476,319.7,485z"/>
						<path class="st4" d="M289.7,296.2c0,0.3-0.1,0.6-0.1,0.9c-10.5,12.6-24.3,21.9-39.8,27c-1.2,0.6-2.4,1-3.7,1.2
							c7.4-6.6,14.6-13.5,21.5-20.8c3.5-3.8,7.8-7.8,12-12C281.9,294.4,285.5,295.5,289.7,296.2z"/>
						<path class="st4" d="M328.7,240.4c5.9,5.3,18.8,30.8,0.3,21.2c-8.8-5.5-18.4-11.7-29-13.2c-1.2-0.1-2.5-0.2-3.7-0.2
							c-1.6-2.5-4-4.5-6.2-6.5c-1.6-1.5-3.4-2.6-5.3-3.5c2.4-1.5,5-2.7,7.7-3.4C304.2,232.8,319.1,232.2,328.7,240.4z"/>
						<path class="st4" d="M353.8,235.9c7.9,5.1,16.6,15.9,14.2,25.8c-5.6,5.3-12,1-18.2-1.1c-0.2-10.2-7.1-23.3-15.3-30.1
							C341.4,230.5,348.1,231.5,353.8,235.9z"/>
						<path class="st5" d="M143.4,376.7c24.6,2.1,33-40.8,3.7-37.2c-10-3.5-22.7,4.4-22.2,15.4C125.4,365.4,131.8,376.3,143.4,376.7
							z M279.8,270.4c3.9-4.7,2.6-16.3-5-15.8c-5.2-2.1-11.4,1.9-14.4,6.1c-4.3,6.1,1.4,14.2,8.2,14.5
							C272.9,275.6,277.2,273.8,279.8,270.4z M287,253.9c-0.3,1.4,0,2.8,0.7,3.9c-3.1,17-18.9,28.4-30.4,40.3
							c-16.2,17.5-34.9,32.2-54.2,46.8c-14.4,10.4-29.4,21.5-44.8,30.6c-8.4,4.3-18.3,5-27.5,6.3c-2.3,0.3-3.6-0.5-5.9-1.5
							c-6.1-1.5-8.7-7-8.1-13.1c0.1-29.6,37-48.4,58.1-64.3c27.7-19.5,55.8-38.5,87.6-50.9C271.7,248.3,280,244.1,287,253.9z"/>
						<path class="st6" d="M389,259.5c0.8,7.1-0.8,15.8-7.6,19.5c-15.5,7-33.8,4.5-50.5,6.5c-14.5,0.3-29.2,1.6-43.5-1.4
							c6-7.2,10.8-15,11.2-23.9c2.5,0.1,5,0.8,7.3,1.9c9.2,2.7,16.2,10.5,25.7,12.6c6.9,0.8,11.5-0.5,14.4-3.2
							c3.3,1.1,6.3,2.9,9.9,3.7c20.2,1.9,26.7-9.4,23.6-22.4C383.3,253.9,386.9,255.8,389,259.5z"/>
						<path class="st6" d="M153.3,350.9c4.5,5.7-1.9,14.6-8.4,14.8c-2.2-0.3-5.1-0.8-6.4-2.9c-1.6-3.8-4.8-9.9,0.3-12.4
							c4.8-2.8,9.5,3.2,14.2,0.5C153.1,350.8,153.2,350.9,153.3,350.9z"/>
						<path class="st2" d="M297.5,340c-3.4-1.8-3.3-6-1.5-8.8c2.4-4.5,2.8-14.1,10.1-11.8c7.5,3.7,0.4,12.9-1.3,18.4
							C303.4,340.4,300.2,341.4,297.5,340z"/>
						<path class="st2" d="M288.8,378.2c-6.5-5.8,3.6-12.9,5.9-18.6c2.2-3.9,4.7-7.7,6.2-11.9c0.7-2.9,3.5-4.6,6.4-4
							c9.2,3.5,0.2,14.4-2.5,19.9C300.5,368.3,297.1,382.6,288.8,378.2z"/>
						<path class="st2" d="M294.7,395.6c-5.3-4,0.2-9.5,2.5-13.5c3.5-4.7,6.3-16.8,14.1-12.5c2.9,2,2.8,5.9,0.7,8.4
							C307.6,383.2,303.4,400.5,294.7,395.6z"/>
						<path class="st2" d="M296.7,422c-2.4-1.7-3-5.1-1.3-7.5c4.9-6.4,10.1-12.5,14.3-19.3c1.4-3,4.7-4.8,7.8-3.1
							c9.5,5.7-9.9,22.4-13.3,28.7C302.5,423.1,299.1,423.7,296.7,422z"/>
						<path class="st2" d="M182.8,367.2c-2.9-0.7-4.7-3.6-4-6.5c3.1-8.6,4.6-18.9,9.9-26.3c4.7-4.6,12.1,2.4,7.8,7.3
							c-3,7.4-5,14.3-7.2,21.4C188.6,366.1,185.7,367.9,182.8,367.2z"/>
						<path class="st2" d="M205.6,347.4c-7.3-4.9,2.5-14.2,3.7-19.7c3.3-4.4,1-13.1,7.9-13.7c9.9,1,4.2,13.6,1.5,19.1
							C215.4,338.1,213.9,350.7,205.6,347.4z"/>
						<path class="st2" d="M231,328.9c-7.1-3.2-0.9-11.2-0.7-16.7c0.4-3.9,0.2-9.5,5.6-9.7c10.6,1.3,3.6,16.8,2.1,23.2
							C236.9,328.5,233.8,329.9,231,328.9z"/>
						<path class="st2" d="M293.6,270.4c-4-5,2-8.8,5.7-11.5c2-1.6,4.5-3.3,7.1-3c6.9,0,7.4,10.2,0.5,10.8
							C303,269.2,298.1,275.4,293.6,270.4z"/>
						<path class="st2" d="M308.1,278.2c-3.8-4.7,1.5-8.9,5.3-11.3c1.2-1.2,2.8-1.9,4.5-1.8c4.3,0.3,6.2,5.7,3.6,8.9
							C318.1,277.2,312.5,283.1,308.1,278.2z"/>
						<path class="st7" d="M293,274.1c-2-8,4-9.9,10.7-10.4c6.6,0.1,14.3-2.3,19.7,2.5c2.3,0.3,4.6-0.8,6.9-0.2c3.1,0.8,5,3.9,4.2,7
							c-0.2,0.7-0.5,1.4-0.9,2c-3.3,4.5-9.5,2.5-14.3,3.6C312.2,278.3,295.2,283.3,293,274.1z"/>
						<path class="st7" d="M124.2,382.2c-4.5,0-10.3-2.6-10-7.6c-8.5,2-10-9.7-2-11.8c5.2-0.9,10.7-0.6,16.1-0.8
							c2.8-0.1,5.7,1.1,8.4,0.5c7.1-3.5,15.3-5,22.3-8.3c12.5-7.9,26.3-13.3,38-21.9c28.8-19.5,59-38.2,81.4-65.5
							c3-5.6,11.5-8,12.8,0.1c0,3.7-3.1,6.4-5,9.4c-3.6,7.8-10.2,12.8-15.7,18.9c-20.5,21-43.5,39.6-68.6,54.3
							C178.5,365,153.4,383.2,124.2,382.2z"/>
						<path class="st7" d="M306.4,523.5c-5.7,0.5-9.1-5.2-9-10.3c-1.5-16.9-1.5-33.9-2.1-50.8c-3.9-26.8-2.5-53.9-5.9-80.7
							c0.3-11.5-3.9-22.1-6.5-33.2c-3.6-4.9-8.8-8.1-13.1-12.3c-1.6-1.1-2.8-1.7-4.4-2.7c-4.9-3.2-1.9-11.3,4-10.6
							c5.1-3.7,11.9-4.7,16.4-9.3c0-0.2,0.1-0.5,0.1-0.7c0.3-2,1-3.9,1.8-5.7c-2.5-6.4,5-9,10.1-9.7c4.9-2,10.9-6.6,16.1-3.8
							c3.3-1.1,6.8-2.8,9.9-0.6c5,3.3,1.5,11.8-4.4,10.5c-4.9,2.3-10.7,1.7-15.5,4.3c8.2,36.9,16.1,74,19.1,111.8
							c1.1,29-1.8,58.1,0,87.1c0.5,5.8,0.8,17.2-8.2,14.7c-1.6,2.8-5.2,3.7-8,2.1C306.7,523.6,306.5,523.5,306.4,523.5z"/>
						<path class="st7" d="M266.8,242.2c-4.7-1-5.6-6.2-4.8-10.3c0.7-4.4,0.6-9.2,2.5-13.3c-0.6-6.6-0.8-12.5-2.5-18.8
							c-2-3.4-0.8-8.3,3.4-9.2c-0.4-8.3-5.7-16.7-5.3-24.3c-4.7-2.6-3.5-11.7,1.5-13.4c6.3-2,8.8,5.8,10.3,10.3
							c2.6,7.9,4.6,15.7,7.8,23.1c1.6,0.6,2.9,1.9,3.5,3.6c2.1,6.8,3.4,13.9,5.6,20.7c1.6,4.5,4,11.8-2,14c0.3,4-3.5,7.7-7.4,6.8
							c-0.3,0.2-0.6,0.3-0.9,0.4C275.5,236.1,273.3,243.5,266.8,242.2z"/>
						<path class="st7" d="M256.2,151.7c-4.9-2.3-6.4-7.7-3.9-12.4c1.3-2.3,1.1-5,2.4-7.2c1.5-3,5.2-4.2,8.2-2.6c0,0,0,0,0.1,0
							c5.9,0.2,7.8,6.8,7.1,11.7c0.3,4.8-2,11.7-8.1,9.4C260.5,152,258.2,152.5,256.2,151.7z"/>
						<path class="st7" d="M289.3,136.1c-2.2-0.2-4.5-0.6-6.1-2.3c-1.2,0.2-2.3,0.3-2.9,0.4c-1.7,0.2-3.3,0.1-5,0.2
							c-2.9,3.1-8.9,1-9.1-3.4c-5.1-5.8,2.1-11.5,8.2-9.1c5.6-1.3,10.6-4.1,15.5-7c12.3-4.7,21.1-16.3,18.9-29.8
							c0-2.7-0.4-6.1,1.6-8.2c3.2-3.6,9.3-1.4,9.9,3.2c3.4,0.3,4.8,3.9,5.8,6.7c5.8,13.7,1,29.9-7.8,41.3
							C310.8,135.3,298.9,134.2,289.3,136.1z"/>
					</g>
				</g>
			</g>
		</g>
	</g>
</g>
</svg>
