<svg xmlns="http://www.w3.org/2000/svg" width="252.58" height="252.58" viewBox="0 0 252.58 252.58">
  <g id="Layer_2" data-name="Layer 2">
    <g id="Vector_layer" data-name="Vector layer">
      <g>
        <circle cx="126.29" cy="126.29" r="126.29" fill="#98d7c3"/>
        <g>
          <path d="M94.69,151.31a23.14,23.14,0,0,1-4.64-1,14.1,14.1,0,0,1-7.44-5.42A19.33,19.33,0,0,1,80.67,141a16.48,16.48,0,0,1-1-4.21,25.65,25.65,0,0,1,.51-8.33,22.05,22.05,0,0,1,3.62-7.87,20.68,20.68,0,0,1,5.64-5.7,19.21,19.21,0,0,1,5.8-2.52,6.38,6.38,0,0,1,4.29.13,2.9,2.9,0,0,1,.58.41,2.19,2.19,0,0,1,.33.12,13.82,13.82,0,0,1,2.26,1.17,14.67,14.67,0,0,1,2.85,2.42,19.69,19.69,0,0,1,4.58,7.36,29.45,29.45,0,0,1,1.32,8.49,25,25,0,0,1-1.1,7.83,15.57,15.57,0,0,1-4.49,7,15.83,15.83,0,0,1-6.74,3.6,14.26,14.26,0,0,1-3.38.46A8.94,8.94,0,0,1,94.69,151.31Zm.9-5.75.67,0c.44-.06.88-.13,1.31-.23s1-.27,1.42-.44c.26-.11.52-.24.78-.37.51-.3,1-.63,1.48-1s.74-.59,1.09-.9.53-.56.78-.85.41-.57.61-.87.32-.58.47-.87a18,18,0,0,0,.7-1.9c.18-.63.33-1.26.46-1.9a28,28,0,0,0,.26-2.88c0-.91,0-1.81-.11-2.71a31.91,31.91,0,0,0-.59-3.63c-.15-.55-.31-1.09-.5-1.63s-.44-1-.69-1.44a19,19,0,0,0-1.1-1.7c-.4-.52-.82-1-1.26-1.51s-.83-.81-1.27-1.19c-.28-.21-.57-.41-.86-.6s-.55-.3-.83-.44l-.7-.26-.66-.15a4,4,0,0,1-.58-.2c-.43.12-.86.26-1.29.41-.63.27-1.25.56-1.86.89-.39.22-.78.46-1.15.72s-.91.74-1.35,1.14-.9.94-1.32,1.44a31.73,31.73,0,0,0-1.85,2.62,18.43,18.43,0,0,0-.87,1.64,19.93,19.93,0,0,0-.73,1.86c-.2.72-.37,1.45-.5,2.19-.14,1-.24,1.92-.29,2.89s0,1.65.08,2.47c.07.49.15,1,.25,1.46s.3,1,.48,1.46c.28.68.58,1.34.92,2,.18.3.37.59.56.88l.44.52c.29.28.59.56.9.82s.54.4.82.59.58.31.88.45c.53.23,1.07.43,1.62.61s1.36.34,2.05.47C94.7,145.48,95.14,145.53,95.59,145.56Z"/>
          <path d="M149,150.44a15,15,0,0,1-7-4.94,18.62,18.62,0,0,1-3.68-8.3,20.79,20.79,0,0,1-.34-4.86,24.13,24.13,0,0,1,.63-4.23,19.66,19.66,0,0,1,1.56-4.68,21.59,21.59,0,0,1,2.68-4,28.24,28.24,0,0,1,6.47-5.62,11.9,11.9,0,0,1,5.28-2.17,3.87,3.87,0,0,1,3.65,1.71,13.64,13.64,0,0,1,3.25,1.55,21.39,21.39,0,0,1,6,6.38,23.5,23.5,0,0,1,3.19,8.69,19.07,19.07,0,0,1-.56,8.75,21.61,21.61,0,0,1-1.68,4.15,16.52,16.52,0,0,1-2.78,3.92,15.27,15.27,0,0,1-8,4.43,14.44,14.44,0,0,1-2.54.22A20.33,20.33,0,0,1,149,150.44Zm7-4.9.86-.13.85-.24q.69-.28,1.35-.63c.44-.27.87-.54,1.28-.84l.76-.64c.25-.26.5-.51.74-.78.33-.43.65-.87.95-1.33s.62-1.11.9-1.69.52-1.29.74-1.95.34-1.36.47-2.05.15-1.27.19-1.91q0-.69-.06-1.38c-.1-.76-.24-1.51-.41-2.25-.26-1-.54-1.92-.88-2.86a15.2,15.2,0,0,0-.67-1.48,1.62,1.62,0,0,0,.1.18l-.12-.21-.06-.11h0l0,.06,0-.09c-.35-.57-.71-1.12-1.11-1.67a27,27,0,0,0-1.81-2.19,13.05,13.05,0,0,0-1-.94c-.35-.27-.71-.53-1.08-.77s-.61-.34-.92-.49l-.6-.23a6.42,6.42,0,0,0-.63-.15l-.67-.07-1,0c-.82.09-1.64.22-2.45.36l-.82.57c-.75.59-1.47,1.2-2.17,1.85s-1.25,1.32-1.84,2c-.37.49-.73,1-1.07,1.5-.19.34-.38.69-.56,1-.23.53-.44,1.08-.63,1.63-.28,1-.5,2-.69,3a23.76,23.76,0,0,0-.27,2.54c0,.55,0,1.09.07,1.64s.2,1.25.33,1.87.37,1.31.6,1.95.46,1,.73,1.54.55.9.86,1.34.56.69.86,1a9.87,9.87,0,0,0,.75.7l.84.61c.34.2.69.38,1,.55.52.22,1.05.42,1.59.59s1,.26,1.57.36,1.09.13,1.64.17S155.52,145.57,156,145.54Z"/>
          <path d="M105.65,70.32a2.7,2.7,0,0,1-1.49-.51,2.83,2.83,0,0,1,1.15-5.1,2.43,2.43,0,0,1,.6,0c.3,0,.6-.07.89-.1l-.39,0c1.65-.17,3.28-.45,4.94-.6s3.15-.24,4.72-.34,3-.15,4.56-.2c1.67,0,3.32,0,5,.07s3.23.07,4.84.12c1.84.05,3.67.16,5.51.23,1.41,0,2.82,0,4.24,0h.68c1,0,2,0,3,.09a2.85,2.85,0,0,1-.19,5.69c-1.37,0-2.75,0-4.12,0-1,0-1.93,0-2.9,0-1.5,0-3-.12-4.51-.19l-2.42-.07h-.37l-6.19-.19c-2,0-4.06,0-6.08.14s-4,.23-6,.42c-1.25.14-2.49.34-3.73.48a14.36,14.36,0,0,1-1.46.12Z"/>
          <path d="M144.22,68.86a2.85,2.85,0,0,1-1.59-1.46,3,3,0,0,1-.09-2.22,9,9,0,0,1,1-2c.59-.94,1.21-1.89,1.86-2.81.53-.76,1.12-1.49,1.7-2.22a4.27,4.27,0,0,1,.9-.9,2.89,2.89,0,0,1,3.45.3A2.86,2.86,0,0,1,152,61a9.93,9.93,0,0,1-1,1.39,46,46,0,0,0-2.64,3.85,9.51,9.51,0,0,0-.46.9l0,0a3,3,0,0,1-2.69,1.86A2.68,2.68,0,0,1,144.22,68.86Z"/>
          <path d="M102.64,68.48a5.1,5.1,0,0,1-1.11-1.56l-.77-1.48c-.74-1.28-1.62-2.45-2.38-3.72a3.39,3.39,0,0,1-.61-2.23,2.82,2.82,0,0,1,5-1.5l-.07-.1a2.7,2.7,0,0,1,.33.5l.06.11,0,0,0,.06c.67,1.13,1.46,2.19,2.15,3.31.54.87,1,1.8,1.46,2.7.12.22.26.42.37.65a2.84,2.84,0,0,1-.74,3.38,2.71,2.71,0,0,1-1.78.66A3.07,3.07,0,0,1,102.64,68.48Z"/>
          <path d="M62.43,70.87a2.87,2.87,0,0,1,.74-3.36,2.9,2.9,0,0,1,.34-.25l0,0A27.08,27.08,0,0,1,66,66c1.22-.56,2.43-1.15,3.65-1.7a69.88,69.88,0,0,1,7.61-3c2.65-.87,5.36-1.58,8-2.3s5.2-1.25,7.79-1.86c1.25-.3,2.5-.58,3.76-.76A2.83,2.83,0,1,1,97.82,62c-1.06.18-2.11.39-3.17.62l-5.36,1.23q-3.6.9-7.17,1.92c-2.23.63-4.44,1.35-6.6,2.18-1.66.67-3.29,1.42-4.91,2.18-1.39.65-2.81,1.23-4.15,2a2.77,2.77,0,0,1-1,.37,3,3,0,0,1-.42,0A2.85,2.85,0,0,1,62.43,70.87Z"/>
          <path d="M186.17,73.4c-.71-.31-1.43-.57-2.13-.91L180,70.62l.33.16c-3.29-1.48-6.68-2.69-10-4-1.62-.65-3.29-1.2-4.94-1.77s-3.21-1.08-4.83-1.58l.24.07c-1.77-.52-3.55-.93-5.35-1.31-1.32-.28-2.65-.57-4-.81l-.48-.05a2.82,2.82,0,0,1-.11-5.64,14.42,14.42,0,0,1,2.53.29c1,.19,2,.41,3.06.63,1.21.25,2.43.48,3.63.79,1.41.37,2.81.81,4.2,1.26,2.52.81,5.05,1.63,7.51,2.59,2.78,1.08,5.56,2.13,8.31,3.26q1.36.55,2.7,1.17l-.33-.15,1.6.73-.33-.15,1.08.48-.07,0,2.11,1-.33-.15a19.29,19.29,0,0,1,2,.9,2.87,2.87,0,0,1,1.32,3.5,3,3,0,0,1-2.68,1.87A2.35,2.35,0,0,1,186.17,73.4Z"/>
          <path d="M93.81,58.88a2.88,2.88,0,0,1,2.7-2.54h.09c.35-.09.71-.19,1.07-.25s1-.15,1.49-.21a3,3,0,0,1,2.11.48,2.87,2.87,0,0,1,1.16,1.83,2.83,2.83,0,0,1-2.31,3.26,19.51,19.51,0,0,0-2,.31,7.19,7.19,0,0,1-1.3.29h-.2A2.92,2.92,0,0,1,93.81,58.88Z"/>
          <path d="M36.73,171.21c-1.09-3.57-1.12-7.34-1.11-11,0-5.56.11-11.12.49-16.67.19-2.77.27-5.56.63-8.32s.87-5.73,1.41-8.57c.51-2.65,1.13-5.28,1.74-7.91s1.21-5.27,1.9-7.87c.77-2.88,1.55-5.75,2.55-8.56.94-2.66,1.95-5.31,2.95-8,.53-1.38,1.05-2.75,1.65-4.09s1.23-2.57,1.86-3.84c1.24-2.5,2.42-5,3.82-7.44,1.21-2.09,2.45-4.18,3.72-6.24.63-1,1.27-2,1.93-2.95a6.78,6.78,0,0,1,1.62-1.91,2.82,2.82,0,0,1,3.43.3,2.86,2.86,0,0,1,.4,3.7l-.15.19c-.38.5-.72,1-1.06,1.57q-.83,1.24-1.62,2.52h0l-.19.3.08-.12c-1.55,2.55-3.13,5.11-4.5,7.76-.73,1.41-1.42,2.84-2.1,4.27S54.87,91,54.26,92.27c-1,2.4-1.95,4.87-2.86,7.32s-1.78,4.78-2.55,7.21c-1.58,5.23-2.81,10.57-4,15.9-.62,2.69-1.19,5.39-1.65,8.11a.68.68,0,0,1,0,.14c-.26,1.59-.52,3.19-.73,4.8s-.32,3.23-.41,4.86c-.18,3.08-.42,6.17-.54,9.25v-.07c-.09,3-.13,6-.14,9a71.29,71.29,0,0,0,.18,7.31,37,37,0,0,0,.7,3.78,2.83,2.83,0,0,1-1.94,3.18,2.62,2.62,0,0,1-.83.13A2.87,2.87,0,0,1,36.73,171.21Z"/>
          <path d="M210.28,170.69a11.34,11.34,0,0,1,0-2.1c.07-.81.13-1.63.2-2.45.19-2.2.46-4.38.54-6.58,0,.09,0,.19,0,.28.07-2.89,0-5.79,0-8.68s-.07-5.69-.34-8.52a112.92,112.92,0,0,0-2-11.24c-.82-3.83-1.55-7.68-2.45-11.49-.61-2.41-1.34-4.78-2.09-7.14s-1.51-4.93-2.43-7.34l0,.06,0-.1c0-.08-.07-.17-.1-.26a.61.61,0,0,0,.05.12q-1.17-3-2.21-6c-.62-1.8-1.22-3.6-1.91-5.37s-1.46-3.53-2.31-5.24c-1-2-2.09-4-3.17-6l.18.33c-.75-1.35-1.56-2.66-2.37-4-.7-1.11-1.4-2.22-2.16-3.29-.59-.78-1.25-1.5-1.91-2.22a11.86,11.86,0,0,1-1.09-1.26,2.83,2.83,0,0,1,4.3-3.61,14.81,14.81,0,0,1,1.26,1.36,30.78,30.78,0,0,1,2.52,3.08c.73,1,1.4,2.11,2.07,3.18.78,1.24,1.55,2.48,2.26,3.76,1.39,2.49,2.8,5,4,7.59,1.13,2.43,2.12,4.92,3,7.45s1.69,5,2.65,7.42c1,2.67,1.91,5.39,2.78,8.12s1.67,5.32,2.34,8,1.19,5.32,1.72,8c1,5.15,2.33,10.22,2.86,15.45.28,2.73.36,5.47.4,8.21s0,5.4,0,8.09c0,2.52-.25,5-.49,7.53-.1,1-.16,2-.24,3a10.62,10.62,0,0,1-.25,1.94,2.94,2.94,0,0,1-2.72,2.23h-.09A2.92,2.92,0,0,1,210.28,170.69Z"/>
          <path d="M169.2,196.91a2.81,2.81,0,0,1,0-5.62c.36-.06.72-.15,1.08-.23l2.61-.58a17.71,17.71,0,0,0,2.1-.68l2.79-1.08c2.58-1,5.15-2,7.63-3.24,2.29-1.13,4.54-2.33,6.79-3.55s4.61-2.72,6.85-4.17,4.37-2.95,6.49-4.51c1.76-1.31,3.32-2.83,5-4.26a2.84,2.84,0,0,1,3.92,4.09l-.14.14,0,0c-1.3,1.23-2.63,2.47-4,3.59-2,1.61-4.16,3-6.27,4.5s-4.1,2.65-6.17,3.93-4.36,2.49-6.57,3.68c-1.8,1-3.66,1.9-5.53,2.74-2.14,1-4.34,1.78-6.53,2.61l-2.87,1.1a23.47,23.47,0,0,1-3.38.92,17.66,17.66,0,0,1-3.67.65Z"/>
          <path d="M164.89,195.61c-1-1.5-1.82-3.09-2.69-4.67l0,.06c-1.26-2.29-2.52-4.57-3.73-6.89-.11-.23-.23-.46-.35-.69a1.25,1.25,0,0,0,.3-1.18,1.86,1.86,0,0,0-.19-.46l-.46-.65a1,1,0,0,0-.06-.22c-.05-.12-.1-.24-.16-.36l-.06-.27a19.48,19.48,0,0,1-.29-2.15l.09-.29c.1-.32.19-.64.31-1h0l.11-.1.07-.06.32-.17c.27-.15.54-.29.79-.45a3,3,0,0,1,1.06.16,3.39,3.39,0,0,1,1.84,2l1.12,2.12c.9,1.74,1.81,3.48,2.76,5.2s1.8,3.24,2.69,4.87c.41.72.87,1.41,1.3,2.11a2.89,2.89,0,0,1-.87,3.94,2.77,2.77,0,0,1-1.51.45A2.93,2.93,0,0,1,164.89,195.61Z"/>
          <path d="M158.05,181.75l0,.06Z"/>
          <path d="M157.85,176.69h0l0,0Z"/>
          <path d="M157.81,181.13a1.72,1.72,0,0,0-.07-.21c-.05-.13-.1-.25-.16-.37l-.06-.27a19.48,19.48,0,0,1-.29-2.15l.09-.29c.1-.32.19-.64.31-1v0l.11-.1.07-.06.32-.17a13.08,13.08,0,0,0,1.24-.74,2.75,2.75,0,0,0,.87-.79,1.07,1.07,0,0,0,.15-.41l.82-.3-.1,0,.1,0,.07,0-.06,0a58.27,58.27,0,0,0,6.47-3l1.11-.59c-.13-.21-.26-.42-.38-.64A2.83,2.83,0,0,1,173.2,167c.64,1,1.29,1.91,1.85,2.93a3.25,3.25,0,0,1-.05,3.53,4.46,4.46,0,0,1-1.71,1.29c-2.61,1.32-5.12,2.82-7.84,3.92-1.58.65-3.16,1.28-4.79,1.8-.78.25-1.58.46-2.38.65l-.42.07A.41.41,0,0,1,157.81,181.13Z"/>
          <path d="M157.84,176.69h0Z"/>
          <path d="M119.58,178c-2.76-.09-5.54-.26-8.29-.52a116.41,116.41,0,0,1-11.77-1.62c-1.81-.35-3.61-.75-5.4-1.15-1-.22-2.06-.45-3.05-.77a23.46,23.46,0,0,1-2.31-1l.2.09c-1-.46-2-.94-3-1.41-.72-.32-1.46-.57-2.19-.87-.46-.2-.91-.42-1.38-.58a2.83,2.83,0,0,1-1.65-3.63,2.87,2.87,0,0,1,3.63-1.65c.92.31,1.81.74,2.71,1.09s2,.92,3,1.38l1.78.81c.36.15.72.29,1.09.41,1.64.47,3.32.78,5,1.13s3.42.73,5.15,1a144.45,144.45,0,0,0,17.13,1.59,84.44,84.44,0,0,0,8.85-.43c2.9-.22,5.81-.31,8.7-.58,1.95-.21,3.89-.53,5.81-.91,1.19-.24,2.36-.55,3.55-.78,1-.21,2.07-.42,3.09-.67,2.07-.53,4.09-1.22,6.14-1.85s3.86-1.35,5.81-2c1.27-.41,2.57-.71,3.83-1.12a12.93,12.93,0,0,1,2.25-.68,2.88,2.88,0,0,1,1.35,5.58l-.39.09c-.88.23-1.73.58-2.61.84-1,.31-2.08.56-3.11.9-1.21.41-2.42.82-3.63,1.25s-2.54.82-3.81,1.23-2.66.84-4,1.19-2.77.62-4.17.9-2.66.59-4,.85a73.52,73.52,0,0,1-7.83,1c-2.59.2-5.19.28-7.77.5-2.33.2-4.65.34-7,.34C120.73,178,120.15,178,119.58,178Z"/>
          <path d="M89.77,181.27c-.94-.39-1.84-.85-2.73-1.32-1.57-.81-3.16-1.57-4.75-2.33-.9-.43-1.75-1-2.61-1.45A15.57,15.57,0,0,1,77,174.26a6.25,6.25,0,0,1-1.82-2.41,3.15,3.15,0,0,1,.92-3.23,39.89,39.89,0,0,1,3.05-2.77,12,12,0,0,1,1.87-1.3,3.17,3.17,0,0,1,1.36-.33,2.83,2.83,0,0,1,1.16.18,2.83,2.83,0,0,1-.14,5.34h0l-.17.12c-.43.33-.85.67-1.25,1a57.85,57.85,0,0,0,5.79,3l-.34-.15c1.06.47,2.08,1,3.11,1.55a12.66,12.66,0,0,1,1.89,1,2.87,2.87,0,0,1,.86,3.63,2.91,2.91,0,0,1-2.53,1.52A2.49,2.49,0,0,1,89.77,181.27Z"/>
          <path d="M80.75,194.2a2.84,2.84,0,0,1-.17-4l.34-.39c.59-.74,1.12-1.52,1.66-2.28,1-1.43,2.06-2.84,3.13-4.22.91-1.2,1.79-2.39,2.59-3.66a8,8,0,0,1,1.52-2.07l-.08.08a2.82,2.82,0,0,1,4.13,3.8c-.42.6-.79,1.23-1.18,1.85-.92,1.45-2,2.79-3,4.14s-2.1,2.88-3.13,4.33a14.57,14.57,0,0,1-2.06,2.51,2.74,2.74,0,0,1-1.8.66A2.88,2.88,0,0,1,80.75,194.2Z"/>
          <path d="M80.43,195.22a40,40,0,0,1-5.26-1.74c-2-.78-4-1.74-5.94-2.64l.33.16c-1.1-.48-2.22-.92-3.32-1.4s-2.4-1.08-3.59-1.64c-2.52-1.19-5-2.47-7.49-3.73-1.25-.62-2.54-1.17-3.79-1.81s-2.55-1.36-3.81-2.07q-3.35-1.86-6.49-4c-.81-.56-1.62-1.1-2.44-1.64a2.82,2.82,0,0,1,2.95-4.79c.73.41,1.43.89,2.12,1.36,1.18.79,2.35,1.59,3.56,2.34l-.15-.09.17.11.14.09-.13-.09c1.47.89,3,1.74,4.5,2.56,1.79,1,3.63,1.84,5.46,2.72s3.51,1.82,5.29,2.68c1.56.76,3.12,1.49,4.7,2.21,1.07.48,2.14.93,3.22,1.38,1.3.54,2.55,1.16,3.83,1.74l-.15-.06a71.14,71.14,0,0,0,7.5,2.81l0,0,.09,0,.18.06a2.84,2.84,0,0,1-.79,5.58A2.74,2.74,0,0,1,80.43,195.22Z"/>
          <path d="M158.64,185.15c-.58-1.28-1.26-2.52-1.83-3.81-.35-.79-.53-1.61-.84-2.42,0,.09.07.19.11.28a3.68,3.68,0,0,1-.15-.47l0,.13a2.67,2.67,0,0,1-.13-.73h0v0h0A2.33,2.33,0,0,1,156,177v0a2.79,2.79,0,0,1,4-1.52l0,0a2.49,2.49,0,0,1,1.21,1.25l.08.18c.24.57.38,1.2.59,1.78.58,1.37,1.34,2.65,1.95,4a2.88,2.88,0,0,1-1.37,3.77,2.75,2.75,0,0,1-1.18.27A2.85,2.85,0,0,1,158.64,185.15Z"/>
          <path d="M158.85,180.74h.07l-.26-.05h0l-.17,0a2.75,2.75,0,0,1-1.47-1.06,2.68,2.68,0,0,1-.51-1.51,2.56,2.56,0,0,1,.19-1.1h0a2.46,2.46,0,0,1,.85-1.18,2.57,2.57,0,0,1,1.53-.64l1-.33c.74-.25,1.47-.5,2.2-.78l.89-.37a2.86,2.86,0,0,1,3.75,1.35,2.83,2.83,0,0,1-1.35,3.75c-1.25.53-2.51,1-3.79,1.42a11.57,11.57,0,0,1-2.13.57h-.34l.13,0A2.78,2.78,0,0,1,158.85,180.74Z"/>
          <path d="M156.34,178.22a2.87,2.87,0,0,1,1.92-3.17l.22-.06c.44-.12.87-.27,1.3-.4.63-.19,1.25-.36,1.86-.59l1.38-.58a2.82,2.82,0,0,1,2.4,5.11,35.4,35.4,0,0,1-3.6,1.35l-1.15.34a6.87,6.87,0,0,1-1.46.34h-.13A2.83,2.83,0,0,1,156.34,178.22Z"/>
          <path d="M168.84,171.37c-.16-.25-.3-.5-.44-.75s-.39-.7-.59-1.05c.06.11.13.22.18.33a10.8,10.8,0,0,0-.72-1.17c-.15-.2-.31-.39-.45-.6a2.86,2.86,0,0,1-.19-2.79,2.5,2.5,0,0,1,.74-1l0,0a2.71,2.71,0,0,1,1.74-.69,2.87,2.87,0,0,1,2,.76v0a2.33,2.33,0,0,1,.56.69c.29.39.57.79.84,1.19.39.59.72,1.22,1.05,1.84l0,0c.09.16.18.33.26.5a2.8,2.8,0,0,1-2.55,4A2.8,2.8,0,0,1,168.84,171.37Z"/>
          <path d="M110.33,140.27a24.72,24.72,0,0,0,1.1-7.83,28.78,28.78,0,0,0-1.32-8.49,19.67,19.67,0,0,0-4.57-7.36,15.35,15.35,0,0,0-2.85-2.42,13.82,13.82,0,0,0-2.26-1.17l-.33-.12a2.9,2.9,0,0,0-.58-.41,6.38,6.38,0,0,0-4.29-.13,19.47,19.47,0,0,0-5.8,2.52,20.68,20.68,0,0,0-5.64,5.7,22.05,22.05,0,0,0-3.62,7.87,25.65,25.65,0,0,0-.51,8.33,16.48,16.48,0,0,0,1,4.21,19.07,19.07,0,0,0,1.94,3.92,14.1,14.1,0,0,0,7.44,5.42,23,23,0,0,0,4.63,1,9.37,9.37,0,0,0,1,.06,14.26,14.26,0,0,0,3.38-.46,15.88,15.88,0,0,0,6.74-3.6A15.47,15.47,0,0,0,110.33,140.27Zm59.77-1.54a19.21,19.21,0,0,0,.55-8.75,23.5,23.5,0,0,0-3.19-8.69,21.39,21.39,0,0,0-6-6.38,13.64,13.64,0,0,0-3.25-1.55,3.87,3.87,0,0,0-3.65-1.71,11.9,11.9,0,0,0-5.28,2.17,28,28,0,0,0-6.46,5.62,21.15,21.15,0,0,0-2.69,4,19.66,19.66,0,0,0-1.56,4.68,24.13,24.13,0,0,0-.63,4.23,20.79,20.79,0,0,0,.34,4.86,18.62,18.62,0,0,0,3.68,8.3,14.88,14.88,0,0,0,7,4.94,20.34,20.34,0,0,0,6,1,14.41,14.41,0,0,0,2.53-.22,15.27,15.27,0,0,0,8-4.43,16.52,16.52,0,0,0,2.78-3.92A22.31,22.31,0,0,0,170.1,138.73Zm41,12.43c0,2.87.06,5.75,0,8.62v.06c-.09,2.11-.35,4.2-.53,6.3-.07.82-.14,1.64-.2,2.45,0,.2,0,.38,0,.57-1.58,1.38-3.09,2.83-4.77,4.09-2.12,1.56-4.28,3.09-6.49,4.51s-4.52,2.87-6.85,4.17-4.51,2.42-6.8,3.55c-2.47,1.23-5,2.23-7.62,3.24L175,189.8a17.71,17.71,0,0,1-2.1.68l-2.61.58-1.08.23a.9.9,0,0,0-.23,0c-.18-.29-.36-.59-.53-.89q-1.34-2.44-2.7-4.87c-.94-1.72-1.85-3.46-2.75-5.2l-.24-.45q1.44-.51,2.85-1.11a2.11,2.11,0,0,0,.67-.42c2.42-1.06,4.7-2.4,7.06-3.59a4.57,4.57,0,0,0,1.72-1.29,3.27,3.27,0,0,0,0-3.53c-.56-1-1.21-2-1.85-2.92a2.72,2.72,0,0,0-.74-.77c-.26-.38-.53-.76-.8-1.13a2.46,2.46,0,0,0-.56-.69v0l-.11-.09a3,3,0,0,0-2.74-1A12.93,12.93,0,0,0,166,164c-1.26.41-2.56.71-3.83,1.12-2,.63-3.85,1.39-5.81,2s-4.07,1.32-6.14,1.85c-1,.25-2.06.46-3.09.67-1.19.23-2.37.54-3.55.78-1.92.38-3.86.7-5.81.91-2.89.27-5.8.36-8.7.58a87.25,87.25,0,0,1-8.85.43,144.45,144.45,0,0,1-17.13-1.59c-1.73-.29-3.44-.65-5.15-1s-3.35-.66-5-1.13c-.37-.12-.73-.26-1.09-.41l-1.78-.8c-1-.47-2-1-3-1.39-.89-.35-1.77-.77-2.69-1.08a2.77,2.77,0,0,0-2-.69,3.1,3.1,0,0,0-1.36.33,12,12,0,0,0-1.87,1.29c-1.06.87-2.08,1.81-3.05,2.77a3.16,3.16,0,0,0-.92,3.24A6.25,6.25,0,0,0,77,174.26a16.13,16.13,0,0,0,2.71,1.91c.86.49,1.71,1,2.61,1.44,1.59.77,3.18,1.53,4.75,2.34l.79.41c-.67,1-1.38,2-2.13,2.95q-1.61,2.07-3.12,4.21c-.47.66-.93,1.34-1.42,2a68,68,0,0,1-7-2.66h0c-1.22-.57-2.44-1.16-3.68-1.68-1.08-.45-2.15-.9-3.22-1.38-1.57-.72-3.14-1.45-4.7-2.21-1.78-.86-3.51-1.82-5.29-2.68s-3.67-1.74-5.46-2.72c-1.52-.83-3-1.66-4.5-2.56l.13.09a.75.75,0,0,0-.15-.09v0h0c-1.21-.75-2.37-1.55-3.55-2.34q-.69-.48-1.41-.93a2.12,2.12,0,0,0,0-.44,32.66,32.66,0,0,1-.71-3.78,71.29,71.29,0,0,1-.18-7.31c0-3,0-6,.14-9s.35-6.12.53-9.18c.09-1.63.2-3.25.41-4.86s.47-3.21.73-4.8a.68.68,0,0,0,0-.14c.47-2.72,1-5.42,1.65-8.11,1.21-5.34,2.44-10.66,4-15.9.77-2.43,1.66-4.83,2.55-7.22s1.8-4.91,2.86-7.31c.61-1.32,1.28-2.61,1.92-3.93s1.37-2.86,2.1-4.27c1.37-2.65,2.95-5.21,4.5-7.76a1.74,1.74,0,0,1,.11-.18h0q.8-1.27,1.62-2.52c.25-.38.49-.77.75-1.15l.21,0a2.59,2.59,0,0,0,1-.37c1.35-.73,2.77-1.31,4.16-2,1.62-.76,3.25-1.51,4.91-2.18,2.16-.83,4.37-1.55,6.6-2.18s4.77-1.32,7.17-1.92l5.36-1.23c1.06-.23,2.11-.44,3.18-.62a2.08,2.08,0,0,0,.6-.18c.74,1.24,1.61,2.39,2.33,3.64l.77,1.48a5.1,5.1,0,0,0,1.11,1.56,2.83,2.83,0,0,0,.71.45,2.78,2.78,0,0,0,2.3,1.39h.27a12,12,0,0,0,1.46-.13c1.24-.13,2.48-.33,3.73-.47,2-.19,4-.31,6-.42s4.05-.18,6.08-.14l6.18.19h.38l2.42.07c1.5.07,3,.18,4.51.19,1,0,1.93,0,2.9,0,1.37,0,2.75.06,4.12,0a2.67,2.67,0,0,0,1.73-.66,3,3,0,0,0,2.48-1.85s0,0,0,0a8.28,8.28,0,0,1,.46-.89A44.55,44.55,0,0,1,151,62.4c.24-.32.52-.64.76-1,1.2.22,2.4.48,3.59.73,1.8.38,3.58.79,5.35,1.31q2.31.72,4.59,1.51c1.65.57,3.32,1.12,4.94,1.77,3.35,1.34,6.74,2.55,10,4L184,72.49c.45.22.91.4,1.36.59.16.16.31.32.46.49.66.72,1.32,1.44,1.91,2.22.77,1.07,1.46,2.18,2.16,3.29.81,1.3,1.61,2.61,2.37,4,1,1.86,2,3.73,3,5.63.85,1.7,1.6,3.46,2.31,5.23s1.29,3.57,1.91,5.37c.69,2,1.43,4,2.21,6a.53.53,0,0,1,.05.15l0,.09c.9,2.39,1.63,4.84,2.4,7.28s1.48,4.73,2.09,7.13c.9,3.82,1.63,7.67,2.45,11.5a112.92,112.92,0,0,1,2,11.24C211,145.47,211.05,148.31,211.06,151.16Z" fill="#fff"/>
        </g>
      </g>
    </g>
  </g>
</svg>
