<svg xmlns="http://www.w3.org/2000/svg" width="159.12" height="175.56" viewBox="0 0 159.12 175.56">
  <g id="Layer_2" data-name="Layer 2">
    <g id="Vector_layer" data-name="Vector layer">
      <g>
        <path d="M109.18,57.67a52.46,52.46,0,0,0-32.52-6.48c-8,.41-15.55.59-22.64,4.41-6.28,4.42-12.09-4.83-4.6-7.44,7.85-4.65,17.17-5.3,26.07-5.82,8-.09,16.3-1.15,23.94,1.49a88.88,88.88,0,0,1,13.85,6.09C117.5,52.67,113.83,59.59,109.18,57.67Z" fill="#110802"/>
        <path d="M56.18,117.85c-24.81-1.48-35-15.58-28.94-39.57,1.87-8.35,2.67-17.07,5.56-25,6.54-10.59,20.11-16.16,32.12-16.22,4.49-.1,10.56,2.41,11.52,7.21.48,3.17-3,5.46-5.87,4.44-2.14-1.08-2.85-3-5.29-2.83a32.68,32.68,0,0,0-20,6.63,12.65,12.65,0,0,0-5.9,9.73C38.07,69.6,36.31,76.67,35.18,84c-3.83,17.43,5.82,24.07,22,25h-.27c0-.28.1-.56.16-.84-3.76-3.12-13.93-5.88-9.29-12.23,2.27-2.49,5.47-1.28,7.59.66,3.72,2.4,8.27,4.27,10.88,7.92,1,1.86.44,3.87-.49,5.57C65.4,115.22,61.41,119,56.18,117.85Z" fill="#110802"/>
        <path d="M103.37,116.1c-3.52.29-7.54-1-8.46-4.84-.4-2.8-2.45-5.86-.42-8.49,3.09-3,7.62-4.16,11.09-6.85a4.45,4.45,0,0,1,6-.89c5.92,5.45-3.54,9.82-7.66,12.26,6.51.24,12.55-3.36,17.54-7.22,3.32-1.72,4-5.06,3.4-8.5-1.5-11.63-2.5-23.91-7.49-34.62-4.28-6.41-11.82-12.46-20-11.21-3.68.37-7,4.27-10.75,2.36C82.09,45,84.59,40,89.49,39.31c12.81-6.82,27.33,1.25,34.86,12.11,6.75,12.39,8,27.15,9.52,41C136.12,106.33,115,116.67,103.37,116.1Z" fill="#110802"/>
        <path d="M73.8,112.52a74.76,74.76,0,0,1-11.52-1.71,5,5,0,0,1-4.82-4.7,4.37,4.37,0,0,1,4.18-4.46c2.48.32,4.76,1.58,7.36,1.55,7.73,1.49,15.61.27,23.19-1a4.33,4.33,0,0,1,1.46,8.53C86.64,111.89,80.69,112.85,73.8,112.52Z" fill="#110802"/>
        <path d="M61.57,91.55c-9.07-2.83-5.18-18.79,3.8-18.21C75.77,75.54,72.25,94.2,61.57,91.55Z" fill="#110802"/>
        <path d="M89.85,90.43c-5.26-5.19-1-18.65,7.32-17l-.55-.09-.54,0c3.39.06,5,3.62,6.55,6.07C106.53,87.08,96.9,96.29,89.85,90.43Z" fill="#110802"/>
        <path d="M149.47,174.58c-12.74-9.51-24.59-20.46-36.25-31a4.2,4.2,0,0,0,.51.35c-4.7-2.74-.53-10.19,4.27-7.53,6.13,4.27,10.5,10.16,16.45,14.61,6.2,5.79,13.24,10.71,19.63,16.11C158.49,170.09,154.13,177.22,149.47,174.58Z" fill="#110802"/>
        <path d="M112.07,151.81c-.94-4.19-1.67-8.65-2.21-12.83.41-5.16,8.23-5,8.68-.21.63,4,1.9,8.08,2,12.16C120.33,155.52,113.3,156.28,112.07,151.81Z" fill="#110802"/>
        <path d="M153.18,175.44c-4.82-1.22-3.06-7-3.26-10.64.13-15-.83-30-1.18-45-.15-18.17,1.86-36.31,1.69-54.47.09-15.6-.71-31.44-1.48-47,0-3.77-2.67-6.51-5.09-9.06-5.45-.15-5.49-8.49,0-8.65,3-.31,5.49,1.5,7.27,3.71,5.95,5.21,7.09,13,7.13,20.46,2.78,40.5-2.15,80.82.14,121.29.18,6.78.49,13.66.25,20.39C158.82,170.41,158.8,176.45,153.18,175.44Z" fill="#110802"/>
        <path d="M4.62,23.36a4.41,4.41,0,0,1-2.55-5.62C3.88,8.07,13.8,3,22.85,2.79l-.24,0h-.08c21.24-2.91,42.79-1,64.17-1.56,18.41.18,36.82-2.15,55.2-.88,3.68,0,8.13,1.54,7.9,6a4.34,4.34,0,0,1-7.31,2.92c-17-1.56-34,.79-51,.74-20.43.53-41.23-.89-61.58.7-5.23,1-11.11.31-15.6,3.56C9.9,16.39,11.18,25.42,4.62,23.36Z" fill="#110802"/>
        <path d="M5.86,139.49c-2.16-20-2.21-40.26-3-60.38C2.48,68.84-5.32,14.5,6.58,13.28a4.45,4.45,0,0,1,4.5,4.81c-4.55,18.7-1,39,.33,57.82,1.15,16.85.87,33.76,2.3,50.61-.62,5,3.75,14.94-2.79,16.55A4.48,4.48,0,0,1,5.86,139.49Z" fill="#110802"/>
        <path d="M99.83,156.36c-19.54-1.05-39.1.17-58.62-.56-9.83-1.29-22.34,1.31-29.74-6.64-4-4-7.9-10.27-6.1-16a4.1,4.1,0,0,0-.25,1.57c0-6.6,10.18-5.27,8.44,1.1,1,4.85,5,9.8,10.17,10,6.75.85,13.69,1,20.46,1.36h-.34c23.43,0,46.92.54,70.38.17a4.47,4.47,0,0,1,4.55,4.25c-.08,7.51-13.87,4-19,4.79Z" fill="#110802"/>
        <path d="M103.37,116.1c11.61.58,32.75-9.77,30.5-23.72-1.56-13.82-2.77-28.58-9.52-41-7.54-10.87-22-18.93-34.86-12.11a6.44,6.44,0,0,0-4.59,2.75c-3.07.06-6.17.24-9.19.27-2-3.52-6.95-5.36-10.78-5.27-12,0-25.59,5.63-32.13,16.21-2.89,7.94-3.7,16.67-5.56,25-6.08,24,4.12,38.1,28.94,39.58,4.73,1,8.46-2,9.34-6.36,2.74.49,5.6.79,8.28,1,6.89.32,12.83-.63,19.85-1.78a3.76,3.76,0,0,0,1.08-.38c.07.31.14.59.18.9C95.83,115.09,99.86,116.39,103.37,116.1Zm47.06-50.77c.16,18.16-1.84,36.3-1.69,54.48.36,14.63,1.26,29.24,1.18,43.89-5.2-4.14-10.6-8.15-15.47-12.72-5.94-4.45-10.31-10.33-16.45-14.62a4.56,4.56,0,0,0-1.1-.45c-2.45-1.67-6.75-.72-7,3.06.36,2.72.78,5.58,1.32,8.39-22.44.27-44.94-.22-67.33-.22-6.66-.3-13.48-.52-20.12-1.35-4.14-.14-7.52-3.38-9.23-7.18.43-3.78-1.19-8.94-.79-12.09-1.42-16.84-1.15-33.76-2.3-50.61C10.07,57.34,6.64,37.4,10.88,19c.81-1.89,1.64-3.86,3.39-4.7C18.75,11,24.63,11.7,29.87,10.7,50.21,9.09,71,10.52,91.45,10c17,.06,34-2.3,51-.73A4,4,0,0,0,145,10.44c2.07,2.24,4,4.7,4,7.9C149.73,33.89,150.52,49.73,150.43,65.33Z" fill="#308d8a"/>
        <path d="M61.58,91.55c10.67,2.65,14.2-16,3.8-18.21C56.4,72.76,52.51,88.71,61.58,91.55Zm28.27-1.11c7,5.85,16.68-3.35,12.78-11.09-1.49-2.3-3-5.56-5.94-6a2.81,2.81,0,0,1,.49,0l-.56-.09h-.13a.16.16,0,0,1,.09,0,4,4,0,0,0-.5,0C88.5,73,84.83,85.47,89.85,90.44Zm35,1.13c.65,3.44-.09,6.79-3.4,8.5-5,3.86-11,7.46-17.53,7.21,4.1-2.43,13.57-6.8,7.65-12.25a4.43,4.43,0,0,0-6,.9c-3.38,2.61-7.79,3.78-10.85,6.64a4,4,0,0,0-2.54-.36c-7.57,1.26-15.46,2.48-23.2,1a17.35,17.35,0,0,1-4.91-1c-2.57-2.25-5.9-3.76-8.74-5.6-2.13-1.94-5.33-3.15-7.58-.67-4.64,6.36,5.52,9.11,9.28,12.24,0,.29-.1.56-.16.83-16-1-25.52-7.67-21.7-25,1.13-7.32,2.9-14.39,4.25-21.75a12.59,12.59,0,0,1,5.9-9.72,4.67,4.67,0,0,1,.58-.41c-.17,3.22,3.86,6.47,8.11,3.49,7.09-3.82,14.58-4,22.64-4.41a52.54,52.54,0,0,1,32.52,6.48c3,1.22,5.54-1.16,5.9-3.77A27.93,27.93,0,0,1,117.4,57C122.39,67.67,123.4,80,124.89,91.57Z" fill="#fff"/>
        <path d="M154.5,15.88c1.51,11.48.27,23.18-2.22,34.59,1.24,1.6,1.06,3.92,1,5.86-.22,7.13.48,14.31,0,21.47-1.24,12.37,1,24.77-.65,37.11,0,13.73.18,27.48.61,41.21,1,5.87-1.74,13-8.63,8.79-4.41-3.21-7.44-7.89-13.12-9.06-6.45-2.53-10-9-15.59-12.79,1.28,5.88-5.09,6.44-9.37,6.21a152.92,152.92,0,0,0-18.58.95c-3.38.38-6.78,1-10.2,1.26a5.1,5.1,0,0,1-3.22-.81c-8.93,3.28-19.55,5.81-20.9-.38A4.64,4.64,0,0,1,57.41,145a18.67,18.67,0,0,0,3.72-.88c28.56-12.72,51.34-35.74,68.48-61.38A150,150,0,0,0,144.29,21c.18-3.43-.68-8,3-9.8C150.63,9.65,154,12.66,154.5,15.88Z" fill="#110802" fill-opacity="0.25"/>
      </g>
    </g>
  </g>
</svg>
