<svg width="22" height="23" viewBox="0 0 22 23" fill="none" xmlns="http://www.w3.org/2000/svg">
<path d="M10.8147 16.1382C10.8367 16.1681 10.8648 16.1922 10.8969 16.2088C10.929 16.2255 10.9643 16.2341 11 16.2341C11.0357 16.2341 11.071 16.2255 11.1031 16.2088C11.1352 16.1922 11.1633 16.1681 11.1853 16.1382L14.4794 11.7101C14.6 11.5476 14.4912 11.3069 14.2941 11.3069H12.1147V0.731934C12.1147 0.594434 12.0088 0.481934 11.8794 0.481934H10.1147C9.98529 0.481934 9.87941 0.594434 9.87941 0.731934V11.3038H7.70588C7.50882 11.3038 7.4 11.5444 7.52059 11.7069L10.8147 16.1382ZM21.7647 15.0444H20C19.8706 15.0444 19.7647 15.1569 19.7647 15.2944V20.1069H2.23529V15.2944C2.23529 15.1569 2.12941 15.0444 2 15.0444H0.235294C0.105882 15.0444 0 15.1569 0 15.2944V21.4819C0 22.0351 0.420588 22.4819 0.941176 22.4819H21.0588C21.5794 22.4819 22 22.0351 22 21.4819V15.2944C22 15.1569 21.8941 15.0444 21.7647 15.0444Z" fill="#308D8A"/>
</svg>
