<svg xmlns="http://www.w3.org/2000/svg" width="105.07" height="102.19" viewBox="0 0 105.07 102.19">
  <g id="Layer_2" data-name="Layer 2">
    <g id="Vector_layer" data-name="Vector layer">
      <g>
        <path d="M39.27,65c-2.22-1.93-1.74-6.26.58-7.61,3.6-3.32,6.84-7.21,10.4-10.53C63.5,34.49,77,23.17,89.44,10.22c-5.39-.08-10.8.39-16.14.21-4.83.42-10.76-.59-8.49-6.92,1.5-3.33,5.91-2.75,9-2.66,4.28.27,8.54-.31,12.87-.2,4.84.52,9.76-1.53,14.49-.18,4.56,1.75,3.63,7.33.29,9.88-13.22,16.94-31,29.94-46.33,44.9C50.81,58.26,45,69.46,39.27,65Z" fill="#171923"/>
        <path d="M96.88,37.64c-1.26-1.44-1.21-3.24-1.24-5-.35-9.14-.27-18.35-.25-27.48,0,.15,0,.31,0,.48s0,.35.06.52c-.8-6.6,9.34-6.65,8.65-.08.52,9.6.62,19.28,1,28.87C104.77,38.92,99.48,40.85,96.88,37.64Z" fill="#171923"/>
        <path d="M12.27,101C1,99.13-.42,86,.09,76.68c0-9.94.3-19.82.34-29.8v0a1.21,1.21,0,0,0,0,.19c.76-14.37-.3-32.2,19.14-31,9.55-1.62,19-.39,28.43-.24a4.43,4.43,0,0,1,4.48,1.94c3.58,7.92-7.47,7.3-12,6.84-8.42-.65-16.83.26-25.12,1a3.85,3.85,0,0,0-3.75,3c-3.45,18-1.94,36.8-2,55,.08,3.74,1.62,7.39,5.26,8.86C19.15,94.6,17,101.64,12.27,101Z" fill="#171923"/>
        <path d="M78.15,98.89c-2.63-1.84-2-5.14-.43-7.45a26.15,26.15,0,0,0,1.45-9v.3c.11-2.71.15-5.28.25-7.94.15-4.82.16-9.67,0-14.48-.38-3.5,0-8.74,4.57-8.92a4.4,4.4,0,0,1,4.25,5.83c0,5.2.3,11.09.11,16.12C87.89,80.09,89.87,103.26,78.15,98.89Z" fill="#171923"/>
        <path d="M40.25,102.13q-1.92,0-3.81-.09h.23c-1.94,0-3.93-.15-5.86-.21h.25c-6.94-.19-14-.19-20.79-1.83a4.45,4.45,0,1,1,3.39-8.19c20.57,2.48,41.37.81,62,.86,2.62-.54,5.6-2.13,7.67.54,4.4,6.72-5.75,9.32-10.76,8.53C61.76,101.36,51,102.45,40.25,102.13Z" fill="#171923"/>
      </g>
    </g>
  </g>
</svg>
