<svg xmlns="http://www.w3.org/2000/svg" xmlns:xlink="http://www.w3.org/1999/xlink" width="252.58" height="258.37" viewBox="0 0 252.58 258.37">
  <defs>
    <clipPath id="clip-path">
      <circle cx="126.29" cy="126.29" r="126.29" fill="none"/>
    </clipPath>
  </defs>
  <g id="Layer_2" data-name="Layer 2">
    <g id="Vector_layer" data-name="Vector layer">
      <g>
        <circle cx="126.29" cy="126.29" r="126.29" fill="#98d7c3"/>
        <g clip-path="url(#clip-path)">
          <g>
            <path d="M210.76,123.6a23.56,23.56,0,0,1,.19,4.82,35.31,35.31,0,0,1-.47,4.92c-.25,1.35-.54,2.69-.91,4a35.59,35.59,0,0,1-1.47,4.52c-.61,1.48-1.32,2.9-2,4.33a69.39,69.39,0,0,1-4.31,7.9,55.7,55.7,0,0,1-4.15,5.28c-1.44,1.63-2.92,3.25-4.48,4.78l-.91.85c0,.1-.08.2-.13.3-.56,1.19-2,1.89-3.07,2.51s-2,1-3,1.52l-1.69.79-1,.5a30.52,30.52,0,0,1-7.54,2.67l-.06,0h0c-1.62.41-3.22.89-4.85,1.26-1.79.42-3.59.81-5.4,1.13a38.18,38.18,0,0,1-5.64.54c-1.09,0-2.19,0-3.28.08,0,.29-.06.58-.08.88a8,8,0,0,1,0,2.54.19.19,0,0,1,.07.06,14,14,0,0,1,1.59,1.68,21.81,21.81,0,0,1,2.18,3.29,22.69,22.69,0,0,1,1.78,4.11,45.39,45.39,0,0,1,1.11,4.46c.29,1.45.6,2.9.78,4.36s.33,3.17.42,4.76c.15,2.79.18,5.59.09,8.38-.1,3.53-.51,7-.86,10.55A3.1,3.1,0,0,1,161.7,224c0,.36,0,.73,0,1.1a2.63,2.63,0,0,1,.39.29,3.13,3.13,0,0,1,1,2.4c0,1.6.11,3.21.19,4.81.1,2.19.16,4.39.37,6.59a28.18,28.18,0,0,0,.53,3.27,30.81,30.81,0,0,0,1.25,3.73l-.16-.39c.06.14.11.28.16.43a6.51,6.51,0,0,1,2.23-.28,3.05,3.05,0,0,1,2.61,2.09,3.31,3.31,0,0,1-1.15,3.47,13.43,13.43,0,0,1-4.17,2.23,32.79,32.79,0,0,1-4.46,1.25l-1.66.37a53.7,53.7,0,0,1-7.58,1.85,85.46,85.46,0,0,1-9.59.76c-2.75.13-5.5.45-8.25.45h-.15c-2.05,0-4.11-.05-6.15-.16-1.1,0-2.19,0-3.28,0a47.45,47.45,0,0,1-5.06-.38c-1.62-.19-3.24-.43-4.85-.73a23.84,23.84,0,0,1-4-1.2c-.47-.17-.93-.34-1.4-.49-.91-.15-1.83-.31-2.73-.51a23.75,23.75,0,0,1-3.41-1,10.42,10.42,0,0,1-2-.89l-.15-.05c-1-.29-2-.53-2.92-.86a2.84,2.84,0,0,1,1.25-5.5,3,3,0,0,1,.38-.42,1.64,1.64,0,0,1,.26-.2l.2-.28c.12-.22.23-.44.34-.67.23-.54.43-1.09.62-1.65l0-.09a1,1,0,0,1,0-.14,395794257878.92,395794257878.92,0,0,1,0-.14l0-.07a49.45,49.45,0,0,0,1.16-4.92,30.23,30.23,0,0,0,.34-3.42,69.64,69.64,0,0,0-1.37-14.07,20.72,20.72,0,0,0-.64-2.17c-.13-.32-.28-.63-.44-.94l-.33-.55-.83-.16a22.66,22.66,0,0,1-2.69-.84c-.89-.33-1.8-.64-2.69-1a2.56,2.56,0,0,1-.87.14h-.28c-2.33-.24-4.67-.3-7-.52a33.77,33.77,0,0,1-5-.9c-.25,0-.49,0-.73-.06a18.69,18.69,0,0,1-4-.89c-1.16-.4-2.29-.95-3.41-1.46s-2.18-1-3.25-1.55a15.64,15.64,0,0,1-4.4-2.9,3,3,0,0,1,1.09-4.68c-.68-.66-1.33-1.34-2-2l-1-1c-.95-1-1.87-2-2.75-3-1-1.21-1.94-2.51-2.88-3.79l-1.89-2.55c-1.23-1.68-2.35-3.44-3.56-5.13-.78-1-1.59-2-2.47-3a18.09,18.09,0,0,0-1.36-1.27c-.39-.3-.79-.58-1.2-.85s-.65-.37-1-.54l-.16-.07a2.3,2.3,0,0,1-.45.05,2.85,2.85,0,0,1-2.92-2.73v.08a3.55,3.55,0,0,1,.21-1.49.57.57,0,0,1,0-.13,4.53,4.53,0,0,1,.05-.53c0,.05,0,.1,0,.15a2.37,2.37,0,0,1,.3-1,2.75,2.75,0,0,1,.71-.93,3.36,3.36,0,0,1,2.2-.73,26.29,26.29,0,0,1,3.19.21,25.62,25.62,0,0,1,7.07,2.37,40.67,40.67,0,0,1,6.47,3.64,18.38,18.38,0,0,1,3,2.62,28.57,28.57,0,0,1,1.94,2.45c1,1.28,1.91,2.53,2.91,3.77.47.58.93,1.16,1.39,1.75.29.38.58.76.86,1.16a3.23,3.23,0,0,1,.49.91l.78.69c.94.74,1.93,1.42,2.94,2.07.72.42,1.47.8,2.23,1.16,1.32.59,2.65,1.17,4,1.63.75.21,1.51.37,2.28.51a56.32,56.32,0,0,0,6.22.68c2.63,0,5.3,0,7.93-.28.57-.07,1.12-.16,1.67-.27s.94-.27,1.4-.43a13.06,13.06,0,0,1,.29-1.77,35,35,0,0,1,1.21-3.89c.43-1.21.89-2.42,1.36-3.62a27.29,27.29,0,0,1,1.58-3.54,60.91,60.91,0,0,1,3.23-5.3c-.94-.13-1.87-.28-2.8-.43-2.84-.46-5.68-.91-8.51-1.5s-5.51-1.06-8.27-1.59c-1.31-.25-2.61-.54-3.92-.8-1.46-.29-2.94-.51-4.4-.79a24.44,24.44,0,0,1-8.22-3.38,31.42,31.42,0,0,1-3.73-2.88c-1.17-1-2.35-2-3.46-3.12a58.1,58.1,0,0,1-5.47-6.35,34.12,34.12,0,0,1-2.41-4,26.42,26.42,0,0,1-1.57-3.37,51.62,51.62,0,0,1-2.25-7.56,44.93,44.93,0,0,1-1.06-9c0-1.46,0-2.92.1-4.38s.3-3,.47-4.53c.33-2.93.4-5.9.92-8.81a56.6,56.6,0,0,1,4.39-13.72,29.43,29.43,0,0,1,3.78-6.12,10.9,10.9,0,0,1,2.36-2.24l.09-.06a.3.3,0,0,1,0-.08,23.28,23.28,0,0,1-1.38-3.71,35.57,35.57,0,0,1-.75-8.43,27.33,27.33,0,0,1,.49-7.87,49.5,49.5,0,0,1,2.82-7.66,11,11,0,0,1,1.14-2.18,3.07,3.07,0,0,1,1.3-2.06,4.42,4.42,0,0,1,3.44-.31c.64.12,1.27.28,1.89.46,1.41.4,2.82.85,4.2,1.34,2.86,1,5.69,2.12,8.5,3.26,1.36.56,2.71,1.15,4,1.83S93.74,69.6,95,70.38s2.47,1.53,3.63,2.4a16.1,16.1,0,0,1,1.87,1.62c1.29-.52,2.53-1.15,3.81-1.72a53,53,0,0,1,5.54-2c4.08-1.3,8.39-1.48,12.62-1.89,3-.33,5.89-.75,8.86-.91,2.79-.14,5.55-.17,8.34-.09s5.78.34,8.66.71,5.5.71,8.22,1.23c1.23.23,2.45.53,3.65.85A37,37,0,0,1,164.81,72l.56.24h0c.32-.28.66-.55,1-.81,1.22-.94,2.43-1.89,3.66-2.79a32.12,32.12,0,0,1,7.78-4.34c1.19-.44,2.39-.79,3.6-1.16s2.54-.8,3.82-1.14a33.82,33.82,0,0,1,4.58-.83,11.58,11.58,0,0,1,4.69.16,5.7,5.7,0,0,1,2.27,1.16,4.7,4.7,0,0,1,1.17,2,11.15,11.15,0,0,1,.48,2.31c.35,3,.39,6,.69,8.94.13,1.23.26,2.45.29,3.68a32.4,32.4,0,0,1-.17,4.29c-.27,2.67-.62,5.34-.75,8v.14c.38.36.73.75,1.08,1.15.87,1,1.67,2.07,2.43,3.15a54.68,54.68,0,0,1,4.39,7.37,45.88,45.88,0,0,1,2.94,7.89,18.69,18.69,0,0,1,.71,4.65c0,1.23,0,2.47.13,3.71v.05C210.31,121.13,210.55,122.36,210.76,123.6Z" fill="#fff"/>
            <path d="M99.19,194.94a10.91,10.91,0,0,1,.47-2.88,38.71,38.71,0,0,1,2.18-6.35,36.48,36.48,0,0,1,3.14-5.8c.37-.55.76-1.09,1.15-1.64a7.39,7.39,0,0,1,1.89-2.09,2.86,2.86,0,0,1,4.06,3.75c-.42.68-.94,1.3-1.4,1.94s-1,1.37-1.43,2.08a44.88,44.88,0,0,0-2.15,4.13,36.25,36.25,0,0,0-1.34,3.6,31,31,0,0,0-.83,3.29,1.5,1.5,0,0,0,0,.2v-.09a3.55,3.55,0,0,1-.32,1.28,2.8,2.8,0,0,1-2.41,1.5h-.05A3,3,0,0,1,99.19,194.94Z"/>
            <path d="M96.2,250.24a2.91,2.91,0,0,1-.21-5.36l.14-.08c.23-.13.45-.27.68-.42s.36-.3.54-.45.23-.24.34-.37a9.94,9.94,0,0,0,.35-1.05,8.26,8.26,0,0,0,.2-.86,33,33,0,0,0,.33-3.59c.08-3.3-.08-6.61-.24-9.91-.11-2.28,0-4.56-.15-6.83-.05-.46-.12-.93-.21-1.38,0-.09,0-.18-.08-.26h0l0-.07c0-.06-.09-.11-.13-.16l-.13-.12-.06,0-.25-.14-.35-.13c-.41-.11-.83-.2-1.25-.27-1.16-.19-2.33-.35-3.49-.58-.85-.17-1.71-.35-2.57-.5h0c-2.46-.4-4.92-.71-7.37-1.1A50.53,50.53,0,0,1,74.15,215a30.91,30.91,0,0,1-4.74-2.1A29.54,29.54,0,0,1,65,210.07a17.29,17.29,0,0,1-1.83-1.58,22.49,22.49,0,0,1-1.93-2.31,39.58,39.58,0,0,1-3.4-5.67c-1-2-1.87-4.12-2.94-6.11a51.27,51.27,0,0,0-3-4.91c-.61-.8-1.29-1.55-2-2.29-.56-.57-1.16-1.12-1.78-1.64a12.44,12.44,0,0,0-1.12-.78,44.33,44.33,0,0,1-4.88-3,11.48,11.48,0,0,1-4-5.42,8,8,0,0,1-.43-2.74,6.66,6.66,0,0,1,.67-2.74c.9-1.86,3-2.71,4.86-3.11a14.69,14.69,0,0,1,7.15.39,39.11,39.11,0,0,1,3.94,1.38,29.93,29.93,0,0,1,3.6,1.87,46.49,46.49,0,0,1,4.1,2.82,53.87,53.87,0,0,1,4.74,3.92,85.41,85.41,0,0,1,7.73,8c.61.76,1.18,1.54,1.85,2.25A33.6,33.6,0,0,0,79,190.84a19.06,19.06,0,0,0,1.81,1.28c.5.3,1,.57,1.55.82l1.55.64c.61.25,1.22.54,1.85.76l.36.08a24.23,24.23,0,0,0,3,.2,33.72,33.72,0,0,0,4.14-.17,46.14,46.14,0,0,0,4.65-.81c.82-.22,1.62-.51,2.42-.79a2.42,2.42,0,0,1,.48-.13,2.84,2.84,0,0,1,2.65,1,2.89,2.89,0,0,1,.48,2.81c-.41,1.26-1.68,1.74-2.79,2.17a17.57,17.57,0,0,1-2.45.71c-1.14.26-2.29.5-3.45.67a38.53,38.53,0,0,1-6.17.4,30.53,30.53,0,0,1-3.45-.16,14.17,14.17,0,0,1-3.42-1c-.74-.3-1.47-.6-2.19-.92a23.87,23.87,0,0,1-3.35-1.87,33,33,0,0,1-3-2.41,24.72,24.72,0,0,1-3.25-3.46,42.57,42.57,0,0,0-2.93-3.35C66.36,186.1,65.2,185,64,183.85s-2.4-2.3-3.69-3.36a57.12,57.12,0,0,0-5.23-3.8,30.13,30.13,0,0,0-2.86-1.53A31,31,0,0,0,49.11,174l.12,0L49,174l-.17-.05.1,0a15.77,15.77,0,0,0-1.64-.42q-.57-.08-1.14-.12l-1,0c-.44.06-.88.14-1.31.24l-.32.1v.1c0,.13,0,.26.07.4l.15.49.09.18c.19.3.38.6.58.89l.38.45c.26.25.52.48.79.71s.6.44.92.65a46.43,46.43,0,0,1,4.88,2.94,27.06,27.06,0,0,1,4.9,4.9,46,46,0,0,1,3.44,5.32c.52.92,1,1.85,1.47,2.81.36.79.71,1.6,1.09,2.39.6,1.25,1.24,2.5,1.92,3.73,0-.09-.1-.17-.14-.26a28.17,28.17,0,0,0,1.82,2.9,21.16,21.16,0,0,0,1.41,1.75c.39.38.8.74,1.22,1.09a24.31,24.31,0,0,0,2.17,1.47,35.65,35.65,0,0,0,3.41,1.79,23,23,0,0,0,2.27.86,39.19,39.19,0,0,0,4.58,1l-.39-.06c2.77.44,5.55.85,8.33,1.25,1.92.27,3.8.68,5.7,1a28.37,28.37,0,0,1,3.89.73,8,8,0,0,1,3.82,2.36c1.84,2.09,1.85,5.18,1.86,7.81,0,1.13,0,2.27,0,3.4s.11,2.25.17,3.37c.12,2.53.18,5.08.13,7.61a35.59,35.59,0,0,1-.32,4.25,18.62,18.62,0,0,1-.86,3.44,8.36,8.36,0,0,1-4.87,4.65,3.43,3.43,0,0,1-1.29.27A2.8,2.8,0,0,1,96.2,250.24Z"/>
            <path d="M168.9,251a6,6,0,0,1-2-.41,8.38,8.38,0,0,1-3.11-2.14,14.1,14.1,0,0,1-2.76-4.62,19.58,19.58,0,0,1-1-6.53c-.13-4.21.31-8.42.47-12.62,0,.12,0,.25,0,.38,0-.24,0-.47,0-.7v.39c0-1.25,0-2.5.1-3.75s.11-2.26.16-3.39a1.69,1.69,0,0,0,0,.23c.1-3.37.07-6.74.18-10.11a79.82,79.82,0,0,0-.3-10.6c0,.13,0,.26,0,.39a59.12,59.12,0,0,0-1-7.15c-.21-.8-.45-1.59-.74-2.37a20.38,20.38,0,0,0-1-2.24l-.35-.63-.12-.23c0,.06.07.12.1.19h0l0,0-.09-.16-.06-.11,0-.06,0,.05a14.68,14.68,0,0,0-.89-1.38c-.13-.18-.27-.35-.42-.52-.62-.62-1.25-1.21-1.82-1.87a2.86,2.86,0,0,1,3.84-4.17c.19.14.38.28.56.43a12.92,12.92,0,0,1,3.67,4.28,28.61,28.61,0,0,1,2.9,7.17,59.71,59.71,0,0,1,1.13,7.76,72.28,72.28,0,0,1,.43,7.35c0,2.3-.11,4.6-.14,6.91s-.07,4.61-.16,6.92c0,1.46-.15,2.91-.2,4.36,0,1,0,2-.08,3.06,0-.13,0-.26,0-.39-.09,3.14-.33,6.27-.46,9.41a44.94,44.94,0,0,0,.12,5.06c.07.57.16,1.14.28,1.7.11.4.24.8.38,1.19s.35.78.55,1.16c.13.23.28.46.43.68s.28.35.43.51.3.3.46.44l.21.15.25.13.2.07.08,0a7.54,7.54,0,0,1,.82.06,2.85,2.85,0,0,1,2.45,2.71,2.8,2.8,0,0,1-.34,1.43h0a2.9,2.9,0,0,1-.41.58,3,3,0,0,1-.84.63h0l0,0a2.5,2.5,0,0,1-1.09.26h0a.81.81,0,0,1-.22,0,3.07,3.07,0,0,1-.53.05Z"/>
            <path d="M159.64,179.6c-.8,0-1.58-.15-2.37-.2l-.14,0a3.09,3.09,0,0,1-1.25,0,2.82,2.82,0,0,1-2.11-1.6A2.91,2.91,0,0,1,154,175c1.31-2.06,4.11-1.3,6.12-1.19a32.4,32.4,0,0,0,3.27-.17c1.86-.22,3.71-.56,5.55-.9,1.19-.22,2.36-.48,3.53-.76s2.41-.5,3.61-.77a46.08,46.08,0,0,0,5.12-1.62c1-.39,1.95-.81,2.93-1.22s2.19-.93,3.25-1.49a26.18,26.18,0,0,0,2.29-1.47,86.83,86.83,0,0,0,7-6l.11-.11,0,0,0,0a35.18,35.18,0,0,0,2.58-2.87,50.46,50.46,0,0,0,3.23-4.68A42.25,42.25,0,0,0,205,147.3a56,56,0,0,0,2.06-5.51,59,59,0,0,0,1.55-6.69,52.16,52.16,0,0,0,.52-6.24,56.31,56.31,0,0,0-.2-6.62c-.17-1.44-.4-2.87-.61-4.3s-.43-2.77-.76-4.14a42.67,42.67,0,0,0-1.37-4.38,2.44,2.44,0,0,0,.1.24,2.44,2.44,0,0,1-.1-.24l0-.11a.49.49,0,0,0,0,.11c-.39-1-.79-2-1.18-3l.05.12c-.35-.89-.73-1.77-1.17-2.63-.73-1.26-1.55-2.46-2.4-3.64-.65-.86-1.34-1.67-2.07-2.46-.29-.29-.58-.58-.9-.85a5.66,5.66,0,0,1-1-.87l.25.26h0A2.81,2.81,0,0,1,201,91.8h0l-.33-.15a6.62,6.62,0,0,1,1.75,1.17,20.42,20.42,0,0,1,2.42,2.5,37,37,0,0,1,2.44,3.27,28.86,28.86,0,0,1,2.11,3.55c.53,1,.93,2.17,1.36,3.27s.94,2.29,1.34,3.46a43.51,43.51,0,0,1,1.74,7.12c.4,2.53.79,5.07,1,7.63a65,65,0,0,1-.06,8.49,49.94,49.94,0,0,1-1.53,9.08,53.81,53.81,0,0,1-2.87,8.29,50.76,50.76,0,0,1-3.88,7,41.35,41.35,0,0,1-4.82,6.12c-.94,1-2,1.91-3,2.83s-1.8,1.61-2.73,2.39c-1.19,1-2.39,2-3.67,2.89a26.48,26.48,0,0,1-4.06,2.27c-2.28,1-4.6,2-7,2.82-1.13.38-2.3.73-3.46,1s-2.56.54-3.84.84c-2.21.52-4.42,1-6.67,1.34-1.52.26-3.05.48-4.6.59-.74.05-1.47.08-2.21.09Z"/>
            <path d="M196.24,95.34a2.77,2.77,0,0,1-.39-1v0h0a.36.36,0,0,1,0-.11v.06a2.93,2.93,0,0,1,0-.84,8.15,8.15,0,0,1,.24-1.09c.23-1,.47-2,.65-3a65.3,65.3,0,0,0,.79-7.78,64,64,0,0,0-.28-8.42,45.87,45.87,0,0,0-.8-5.08A37.5,37.5,0,0,0,195,63.62a4.16,4.16,0,0,0-.22-.48.16.16,0,0,0,0-.07,2.87,2.87,0,0,1,4.61-3.4A13.63,13.63,0,0,1,201.25,64a37.44,37.44,0,0,1,1.47,6.7,65.86,65.86,0,0,1,.08,16.42,43.13,43.13,0,0,1-1.51,7.73c0-.12.07-.23.1-.35h0c0-.12,0-.24.06-.36v-.15a2.9,2.9,0,0,1-2.73,2.71h-.1A2.87,2.87,0,0,1,196.24,95.34Z"/>
            <path d="M162.49,75.46A2.86,2.86,0,0,1,161.17,72a4.93,4.93,0,0,1,1.75-2.09c1-.8,2.09-1.52,3.17-2.21,2.27-1.45,4.58-2.8,7-4.05a71.39,71.39,0,0,1,6.55-3,54.65,54.65,0,0,1,7.29-2.21,45.39,45.39,0,0,1,9-1.61,2.86,2.86,0,0,1,.2,5.71l-1,.07a50,50,0,0,0-6.05,1.16l.15,0a59.51,59.51,0,0,0-7.15,2.06A78.71,78.71,0,0,0,173.25,70a65.7,65.7,0,0,0-6.28,4c-.3.22-.58.44-.85.68l0,0a2.83,2.83,0,0,1-2.29,1.14A2.76,2.76,0,0,1,162.49,75.46Z"/>
            <path d="M64.35,93a17.45,17.45,0,0,1-.89-3.1l0,.07,0-.17v0l0,.08,0-.08a1.62,1.62,0,0,0,0-.19l0,.09,0-.14c-.39-1.58-.73-3.17-1.07-4.77A31.46,31.46,0,0,1,61.69,78a53.66,53.66,0,0,1,.62-7.49A55.11,55.11,0,0,1,64.2,63c.26-.88.49-1.79.83-2.65a3.75,3.75,0,0,1,2.3-2.27A5.05,5.05,0,0,1,69,57.88c.72,0,1.45,0,2.17,0,1,0,1.9.09,2.85.17a38.67,38.67,0,0,1,4.41.75c2.11.46,4.26.93,6.33,1.59A49.61,49.61,0,0,1,91,63a38.43,38.43,0,0,1,6.74,4.18c.85.64,1.73,1.24,2.53,1.94a20.39,20.39,0,0,1,1.48,1.46l.07.06a2.84,2.84,0,0,1,.89,3.64,2.91,2.91,0,0,1-1.27,1.21l0,0,0,0a2.78,2.78,0,0,1-2.26.11,3.94,3.94,0,0,1-1.24-.82c-.53-.51-1-1-1.59-1.52-1.76-1.36-3.56-2.68-5.45-3.86-1-.59-2.08-1.1-3.15-1.59a50.06,50.06,0,0,0-5-2C81.17,65.36,79.6,65,78,64.64q-1.73-.39-3.48-.69c-1.39-.19-2.82-.23-4.23-.28h.39l-.68,0a65.22,65.22,0,0,0-2,7.51,60.09,60.09,0,0,0-.59,6.56,34.8,34.8,0,0,0,.23,4.09c0-.13,0-.26,0-.39A47.14,47.14,0,0,0,68.74,87l-.09-.39.75,3.12c.1.4.22.8.34,1.2a2.91,2.91,0,0,1-1.53,3.5,2.81,2.81,0,0,1-1.21.27A2.88,2.88,0,0,1,64.35,93Z"/>
            <path d="M98.48,73.7a2.91,2.91,0,0,1,2-2.81,36.78,36.78,0,0,1,5.74-1.71c2.41-.57,4.88-.9,7.32-1.33,1.49-.26,3-.49,4.5-.63,1.32-.13,2.66-.18,4-.24s2.56-.1,3.84-.2,2.68-.25,4-.34c1.66-.1,3.33-.07,5-.06,1.94,0,3.87,0,5.81.05,2.3.07,4.61.16,6.9.43s4.56.72,6.83,1.2c1,.22,2,.39,3,.64l2,.51a26,26,0,0,1,3,.84,2.86,2.86,0,0,1-1.66,5.46c-1.16-.22-2.31-.58-3.47-.87s-2.18-.54-3.28-.76c-1.44-.29-2.86-.66-4.31-.89h.08l-.16,0c-1.48-.23-3-.43-4.47-.56s-3.23-.19-4.84-.25c-2,0-4,0-6,0-1.77,0-3.54,0-5.3.13s-3.73.3-5.6.38-3.66.15-5.48.32c-2,.23-4,.62-6,1-1.75.3-3.51.57-5.24,1A40.24,40.24,0,0,0,102.83,76c-.17.07-.33.15-.51.21a2.61,2.61,0,0,1-.92.19A2.86,2.86,0,0,1,98.48,73.7Z"/>
            <path d="M107.32,178.82l-3.17-.09h.39c-1.74-.05-3.47-.14-5.21-.2-1.21,0-2.42-.07-3.63-.15-1.37-.1-2.72-.3-4.07-.52-1.59-.26-3.2-.52-4.77-.92-1.34-.34-2.67-.74-4-1.17s-2.73-1-4.08-1.51-2.93-1.17-4.34-1.87c-.57-.28-1.11-.6-1.65-.92s-.85-.53-1.26-.78c-.72-.46-1.43-.92-2.16-1.37a36,36,0,0,1-4.31-3,30.94,30.94,0,0,1-4.24-4.47,42.07,42.07,0,0,1-3.55-5.67l.18.33a63.82,63.82,0,0,1-3.84-7.5,45.69,45.69,0,0,1-2-7.25,38.42,38.42,0,0,1-.58-4.27c-.11-1.22-.23-2.44-.29-3.66-.14-2.54-.14-5.09,0-7.64a60.17,60.17,0,0,1,.88-7.32v0l0-.2c.4-2.48.86-4.94,1.38-7.4.25-1.2.57-2.39.92-3.57a35.87,35.87,0,0,1,1.39-4c.54-1.25,1.2-2.45,1.85-3.64a40.14,40.14,0,0,1,2.4-3.86,15.54,15.54,0,0,1,3-3.28,11.83,11.83,0,0,1,3.09-1.94,3.32,3.32,0,0,1,1.47-.15h0l.16,0,.2,0h0a2.83,2.83,0,0,1,.13,5.5c-.3.18-.59.39-.87.59s-.68.53-1,.81-.61.66-.9,1c-.55.7-1.05,1.43-1.53,2.18a49.84,49.84,0,0,0-2.53,4.65,34.81,34.81,0,0,0-1.18,3.29l0-.07,0,.09-.09.27.06-.18a72.56,72.56,0,0,0-1.89,8.48v-.09l0,.1v0c-.17,1-.33,2.06-.5,3.09v-.06c0,.17-.05.35-.08.53l.06-.37a53.79,53.79,0,0,0-.71,6.7,79.64,79.64,0,0,0,.38,9.77V137a46.12,46.12,0,0,0,1,5.85A38.09,38.09,0,0,0,59,146.78a36.8,36.8,0,0,0,1.76,3.7c.63,1.15,1.28,2.3,1.92,3.45-.06-.11-.13-.22-.18-.33a40.92,40.92,0,0,0,2.5,4.11c.71.92,1.44,1.81,2.23,2.66a32.35,32.35,0,0,0,2.47,2.22l-.29-.23c1.86,1.43,3.91,2.61,5.9,3.86a28.6,28.6,0,0,0,2.61,1.42,83,83,0,0,0,8.23,3.07A47.78,47.78,0,0,0,91.54,172a52.39,52.39,0,0,0,6.84.74H98c1.84.06,3.68.15,5.52.21l3,.09c.62,0,1.24,0,1.87,0l.66-.08a2.88,2.88,0,0,1,2.94,2.4,2.93,2.93,0,0,1-2,3.24,6.53,6.53,0,0,1-2.21.3Z"/>
            <path d="M94.51,202.18a3.38,3.38,0,0,1,1.12-4,4.21,4.21,0,0,1,2.13-1,3.12,3.12,0,0,1,1.26.1,2.76,2.76,0,0,1,2.1.21,2.87,2.87,0,0,1,1.19,3.84A5.64,5.64,0,0,1,99.2,204a4,4,0,0,1-1.34.23A3.53,3.53,0,0,1,94.51,202.18Z"/>
            <path d="M85.52,203.8a3.56,3.56,0,0,1,.51-4.53,3.88,3.88,0,0,1,3.91-1.08,2.88,2.88,0,0,1,1.9,2.25,3,3,0,0,1-.3,1.82,2.9,2.9,0,0,1-1.63,2.67,3.33,3.33,0,0,1-1.52.36A3.56,3.56,0,0,1,85.52,203.8Z"/>
            <path d="M75.11,201.43a3.21,3.21,0,0,1,.68-4.19,4.07,4.07,0,0,1,3.14-.68,2.86,2.86,0,0,1,2.55,2.71,2.83,2.83,0,0,1-.32,1.38,3,3,0,0,1-2.3,2.18,3.53,3.53,0,0,1-.85.1A3.38,3.38,0,0,1,75.11,201.43Z"/>
            <path d="M68.25,197.37a4,4,0,0,1-1.86-2.67,3.27,3.27,0,0,1,1-3.07,3.93,3.93,0,0,1,2.18-.78,2.83,2.83,0,0,1,2.87,2.34,2.63,2.63,0,0,1,0,.74,2.83,2.83,0,0,1-2.13,3.92,2.28,2.28,0,0,1-.45,0A3.16,3.16,0,0,1,68.25,197.37Z"/>
            <path d="M61.28,190a4,4,0,0,1-1-1.25,2.55,2.55,0,0,1-.29-1.16,3.52,3.52,0,0,1,0-.79,2.86,2.86,0,0,1,3.77-2,2.76,2.76,0,0,1,1.31,1h0l-.05-.07.06.08a2.88,2.88,0,0,1,.12,4,2.83,2.83,0,0,1-2.09.91A2.91,2.91,0,0,1,61.28,190Z"/>
            <path d="M56.47,183.14a4.4,4.4,0,0,1-.56-.58,2.94,2.94,0,0,1-.43-3,2.62,2.62,0,0,1,.92-1.15,2.94,2.94,0,0,1,1.71-.56h.27a3.34,3.34,0,0,1,2.2,1.31,2.85,2.85,0,0,1-2.19,4.69A2.8,2.8,0,0,1,56.47,183.14Z"/>
            <path d="M49.65,177.54a3,3,0,0,1-.85-2,2.89,2.89,0,0,1,1.63-2.68,2.84,2.84,0,0,1,3.38.75l.06.07c0,.06.1.12.15.18a2.87,2.87,0,0,1-.35,4,2.74,2.74,0,0,1-1.79.66A3,3,0,0,1,49.65,177.54Z"/>
          </g>
        </g>
      </g>
    </g>
  </g>
</svg>
