<svg xmlns="http://www.w3.org/2000/svg" width="252.58" height="252.58" viewBox="0 0 252.58 252.58">
  <g id="Layer_2" data-name="Layer 2">
    <g id="Vector_layer" data-name="Vector layer">
      <g>
        <circle cx="126.29" cy="126.29" r="126.29" fill="#98d7c3"/>
        <g>
          <path d="M63.46,87.66c-1.29-1.51-2.58-3-3.85-4.56-1.42-1.73-2.78-3.52-4.19-5.27s-2.88-3.48-4.22-5.3c-.64-.85-1.27-1.7-1.93-2.53a13.39,13.39,0,0,1-.88-1.11,2.82,2.82,0,0,1,1.52-4.21h0a2.82,2.82,0,0,1,2.76.61c.3.31.56.65.84,1,.67.83,1.31,1.69,1.94,2.55,1.33,1.79,2.77,3.48,4.16,5.22s2.79,3.54,4.22,5.28c1.3,1.58,2.68,3.09,4,4.68a2.87,2.87,0,0,1-.35,4,2.78,2.78,0,0,1-1.8.66A2.93,2.93,0,0,1,63.46,87.66Z"/>
          <path d="M63.59,161.17c0-9.14.75-18.25,1.18-27.37l.06-1.61c.12-4.56.09-9.13.08-13.7s0-9.26-.45-13.85c0,.13,0,.25,0,.38-.19-1.81-.38-3.61-.45-5.44-.07-2-.16-4-.21-6-.05-1.81,0-3.62,0-5.42a10.79,10.79,0,0,1,.08-2.41,2.86,2.86,0,0,1,2.31-2.22,2.9,2.9,0,0,1,2.86,1.26,2.82,2.82,0,0,1,.42,1.79v.1a.09.09,0,0,1,0,0c0,1.07,0,2.15,0,3.22,0,1.44,0,2.88.06,4.33.08,2.79.15,5.59.41,8.38,0,0,0-.09,0-.13l0,.24v0c.29,2.84.49,5.67.55,8.53,0,2.48.07,5,.08,7.45,0,2.7,0,5.4,0,8.1s0,5.22-.16,7.82c-.28,5.86-.73,11.71-.92,17.57V152l-.09,2.67c-.06,2.25-.05,4.49-.16,6.73a2.87,2.87,0,0,1-2.74,2.56h-.09A2.88,2.88,0,0,1,63.59,161.17Z"/>
          <path d="M74.78,161.11c0-4.48.27-9,.43-13.43.07-2.64,0-5.29,0-7.93,0-2.84,0-5.68.08-8.51.09-5.26-.06-10.51,0-15.77q0-3.68.06-7.34c0-2,.08-3.95-.09-5.92a1.1,1.1,0,0,1,0,.18,2.82,2.82,0,0,1,5.59-.77,51.39,51.39,0,0,1,.14,7c0,2.77-.08,5.53-.06,8.29,0,5.39.11,10.78,0,16.17,0,3.5,0,7,0,10.49s-.2,6.95-.31,10.43v-.38c0,.79,0,1.59-.08,2.38,0,1.63-.07,3.27-.08,4.9a2.87,2.87,0,0,1-2.74,2.93h-.09A2.84,2.84,0,0,1,74.78,161.11Z"/>
          <path d="M48,187.48a2.87,2.87,0,0,1-1.18-3.84c1.29-2.36,2.79-4.57,4.25-6.84,1.06-1.64,2.15-3.24,3.35-4.79s2.65-3.2,4-4.8c.65-.84,1.25-1.71,1.87-2.57a39.84,39.84,0,0,1,2.57-3.22,8.11,8.11,0,0,1,1.66-1.6,3.19,3.19,0,0,1,1.54-.45h.3a2.68,2.68,0,0,1,1.93,1h0a2.73,2.73,0,0,1,.68,1.73,2.85,2.85,0,0,1-.34,1.43h0a4.21,4.21,0,0,1-.28.41,3.38,3.38,0,0,1-.5.5c-.66.67-1.27,1.39-1.87,2.11-1,1.29-1.9,2.67-2.91,4s-2.3,2.74-3.43,4.13a63,63,0,0,0-3.7,5.17c-1,1.54-2,3.06-3,4.61-.44.74-.82,1.51-1.28,2.22a2.76,2.76,0,0,1-2.32,1.19A2.81,2.81,0,0,1,48,187.48Z"/>
          <path d="M94.73,186.55c-1.6-2-3-4.09-4.62-6.09q-1.59-2-3.27-3.92c-1.14-1.3-2.26-2.62-3.45-3.87-1-1.07-2.1-2.12-3.12-3.21s-2-2.2-3-3.28c-.48-.49-.94-1-1.41-1.48a2.83,2.83,0,0,1,2.45-4.63,3,3,0,0,1,1.88,1l.24.25-.06-.05.12.12.13.14-.1-.11c1.51,1.57,3,3.18,4.48,4.77,1.39,1.43,2.81,2.82,4.14,4.31s2.86,3.21,4.23,4.87,2.47,3.13,3.66,4.73c.77,1,1.62,2,2.32,3.08a2.83,2.83,0,0,1-2.41,4.38A2.79,2.79,0,0,1,94.73,186.55Z"/>
          <path d="M46.58,186.22a2.88,2.88,0,0,1,2.26-2.87,21.38,21.38,0,0,1,5.11-.6c2.53-.14,5.06-.16,7.59-.25,5-.19,10-.28,15.06-.41,1.22,0,2.44-.05,3.66,0s2.59.12,3.89.18c2.49.14,5,.32,7.48.4,1,0,1.93,0,2.9.05.66,0,1.33,0,2,0a2.87,2.87,0,0,1-.18,5.72c-2.19,0-4.39,0-6.58-.14-3.09-.15-6.18-.42-9.27-.55-2.39-.06-4.77.08-7.16.14s-4.59.13-6.88.17c-2.8.06-5.6.15-8.4.23-2.23.06-4.48.11-6.7.31-.29,0-.56.08-.84.14a5.33,5.33,0,0,1-1.25.19A2.85,2.85,0,0,1,46.58,186.22Z"/>
          <path d="M115.79,187a19.53,19.53,0,0,1-1.39-2.28l0,0c-1.16-2.11-2.25-4.26-3.37-6.4-1.23-2.36-2.5-4.69-3.65-7.1-1.23-2.58-2.53-5.11-3.76-7.69s-2.52-5.24-3.75-7.88c-2.22-4.77-4.26-9.62-6.5-14.37-1.14-2.43-2.27-4.87-3.54-7.23s-2.45-4.54-3.62-6.84c-1-1.9-1.77-3.85-2.64-5.78-1-2.23-2.06-4.42-3-6.69-.7-1.81-1.29-3.65-2-5.45-.47-1.16-1-2.3-1.51-3.43a24.3,24.3,0,0,1-1.06-2.46l.09.24A3,3,0,0,1,76,102a2.82,2.82,0,0,1,5.12-.88c.33.56.57,1.17.84,1.75.44,1,.89,1.92,1.31,2.88,1,2.3,1.75,4.68,2.63,7a2.6,2.6,0,0,0-.1-.25,2.77,2.77,0,0,1,.1.26l0,.09,0-.08c1,2.51,2.21,4.92,3.29,7.4s2.16,4.71,3.37,7,2.51,4.61,3.68,7,2.34,4.86,3.45,7.3c2.19,4.84,4.31,9.72,6.6,14.51,1.25,2.62,2.49,5.24,3.8,7.83s2.43,5.08,3.7,7.59c1,2,2.07,3.89,3.08,5.84.85,1.64,1.69,3.29,2.57,4.92l0-.07c.19.36.39.71.61,1.06h.12a2.87,2.87,0,0,1,2.95,2.75,2.9,2.9,0,0,1-2.76,3l-.53,0A4.9,4.9,0,0,1,115.79,187Z"/>
          <path d="M120.88,185.9a2.86,2.86,0,0,1-1.18-3.81l.24-.47c.43-1,.8-2.06,1.19-3.09.49-1.27,1-2.52,1.54-3.77,1-2.51,2.15-5,3.24-7.46s2.25-5,3.31-7.54,2.13-5.35,3.13-8.06c1.94-5.27,4-10.48,6.07-15.72.93-2.42,1.89-4.83,2.91-7.23s2-4.91,3.16-7.32c.79-1.69,1.73-3.32,2.54-5s1.5-3.08,2.22-4.64,1.49-3.36,2.32-5,1.8-3.43,2.68-5.16a2.83,2.83,0,0,1,5,2.65c-1.29,2.6-2.71,5.14-3.92,7.79l.15-.33c-1,2.23-2,4.44-3.09,6.65s-2.26,4.32-3.27,6.54Q146,132,143.25,139.2c-2,5.25-4.12,10.45-6.06,15.72s-4.2,10.37-6.49,15.47c-1.14,2.55-2.22,5.11-3.3,7.68-.49,1.17-1,2.36-1.39,3.54a32.75,32.75,0,0,1-1.32,3.12,2.84,2.84,0,0,1-3.81,1.17Z"/>
          <path d="M153.5,169.37c-.11-1.6-.1-3.2-.13-4.8-.05-2.76-.07-5.53,0-8.3,0-.15,0-.31,0-.47,0-1.19.1-2.38.15-3.57.06-2.5,0-5,.07-7.5,0-2.81.13-5.61.1-8.41,0-2.64,0-5.29,0-7.93s.1-5.38.13-8.06c.06-5.35.06-10.7.22-16a2.93,2.93,0,0,1,.74-2,2.79,2.79,0,0,1,2-.91,2.82,2.82,0,0,1,2.91,2.72c-.07,2.36-.07,4.73-.12,7.1-.05,2.54-.05,5.08-.06,7.62,0,5.31-.19,10.61-.12,15.92.05,3.59-.06,7.19-.1,10.78,0,1.74,0,3.48-.05,5.22s-.11,3.44-.17,5.16c-.08,2.78,0,5.57,0,8.35,0,1,0,2.08,0,3.11,0,.61.07,1.22.06,1.82a2.86,2.86,0,0,1-2.73,2.93h-.1A2.88,2.88,0,0,1,153.5,169.37Z"/>
          <path d="M118.51,188a2.81,2.81,0,0,1-.51-2.68,5.59,5.59,0,0,1,.52-1l-.19.31c.28-.46.52-.94.77-1.42a2.82,2.82,0,0,1,5,2.64c-.5,1-1.06,2.43-2.21,2.89l-.35.13a2.68,2.68,0,0,1-.84.13A2.86,2.86,0,0,1,118.51,188Z"/>
          <path d="M141.61,185.66a3.72,3.72,0,0,1,.2-2.76,4.74,4.74,0,0,1,.63-.86c.21-.23.43-.46.63-.7,1.73-2.14,3.47-4.26,5.32-6.31,1.39-1.53,2.68-3.16,4.11-4.66.6-.63,1.19-1.27,1.8-1.89a3.34,3.34,0,0,1,2-1.18,2.87,2.87,0,0,1,3.27,2.31,2.77,2.77,0,0,1-1,2.63l0,0h0c-.83.84-1.63,1.71-2.43,2.58-1,1.09-2,2.26-2.93,3.38-1.62,1.84-3.24,3.67-4.78,5.56l.1-.13-.15.19-.08.09.05-.05-.14.16a1.46,1.46,0,0,0,.16-.19l.05-.06,0,0c-.41.52-.81,1.07-1.24,1.57a3,3,0,0,1-2,2.16,2.92,2.92,0,0,1-.83.12A2.83,2.83,0,0,1,141.61,185.66Zm15.64-12.79h0l.37-.09h0a3.24,3.24,0,0,1,.33-.13l.31-.18.23-.16,0,0A3.1,3.1,0,0,1,157.25,172.87Z"/>
          <path d="M168.35,190.11c-1.63,0-3.26-.06-4.89-.14s-3.08-.18-4.62-.25c-2.43-.06-4.86-.05-7.29-.08-1.15,0-2.3,0-3.45,0-.89,0-1.78.1-2.67.09a2.82,2.82,0,1,1-.19-5.64c1.29,0,2.59-.13,3.89-.14,1.63,0,3.26,0,4.88,0,2,0,4,0,5.91.08,1.69.06,3.37.19,5.05.25h-.38c2.82.09,5.65.17,8.47.15,1.41,0,2.83-.07,4.24-.08s2.77,0,4.14,0c2.6-.07,5.19-.18,7.79-.18s5-.26,7.55-.28h4a2.74,2.74,0,0,1,2.41-.22,2.86,2.86,0,0,1,1.67,3.68,3.67,3.67,0,0,1-1.32,1.65,3.78,3.78,0,0,1-1.8.54c-.54,0-1.08.06-1.62.08-1,0-2,0-3,0-1.25,0-2.49.08-3.73.14-2.59.15-5.18.11-7.77.17-1.25,0-2.51.1-3.77.14s-2.75,0-4.13,0c-1.53,0-3.06.06-4.58.07h-.49C171.22,190.18,169.78,190.14,168.35,190.11Z"/>
          <path d="M200.7,186.88l0,0c-.74-1-1.63-1.87-2.45-2.78s-1.44-1.69-2.17-2.52-1.6-1.77-2.42-2.64c-1-1.05-2-2.08-3-3.14a22.51,22.51,0,0,1-2.65-3.28,3.08,3.08,0,0,1,.56-4,2.87,2.87,0,0,1,3.21-.37l-.27-.09a2.8,2.8,0,0,1,1.67,1.86c.89,1.12,1.85,2.19,2.84,3.22l0,0c1.08,1.12,2.16,2.24,3.22,3.38s2,2.35,3.07,3.53c.71.81,1.45,1.6,2.16,2.42a4.84,4.84,0,0,1,1.23,1.89,2.93,2.93,0,0,1-.05,1.85,2.83,2.83,0,0,1-1.45,1.57A2.72,2.72,0,0,1,203,188,3,3,0,0,1,200.7,186.88Z"/>
          <path d="M186.13,168.78a41.49,41.49,0,0,1-.21-4.73c0-2.36-.06-4.71-.1-7.07-.09-5.16.16-10.32.06-15.47-.06-2.74-.12-5.48-.1-8.23,0-3,.12-5.94.22-8.92.05-1.9.06-3.8.13-5.7s.14-3.84.2-5.75l.18-5.91c.09-3,.07-5.9,0-8.86-.09-3.33,0-6.66.11-10v.37c.06-1.89.16-3.79.22-5.68v.37c0-.38,0-.77,0-1.15,0,0,0-.06,0-.09l0,.06c0-.07,0-.15,0-.22l0,.26.06.28A2.88,2.88,0,0,1,188.37,79a2.85,2.85,0,0,1,3.75,1.36,7.93,7.93,0,0,1,.34,3.46c-.06,1.81-.16,3.61-.22,5.42-.05,1.57-.08,3.15-.11,4.72,0,1.9.05,3.79.09,5.69.07,3.33,0,6.65-.12,10s-.21,6.37-.31,9.55c-.08,2.84-.14,5.67-.23,8.51-.08,2.61-.09,5.21-.1,7.81s.1,5,.13,7.52-.07,5.23-.1,7.84,0,5,.07,7.5c.05,2.07.06,4.15.09,6.22,0,1.23.14,2.46.14,3.68a2.91,2.91,0,0,1-2.37,2.91,3.42,3.42,0,0,1-.45,0A2.85,2.85,0,0,1,186.13,168.78Z"/>
          <path d="M187,81.7c-.48-1.39.3-2.54,1.18-3.49q2.06-2.19,4.28-4.2c2.1-1.9,4.23-3.77,6.28-5.73a18.71,18.71,0,0,0,1.62-1.71q.31-.42.6-.87a2.84,2.84,0,0,1,4.83,3,18,18,0,0,1-3.65,4.23c-2.37,2.23-4.87,4.34-7.24,6.58a42.2,42.2,0,0,0-2.93,3l.23-.29a4.1,4.1,0,0,1-1,1,2.78,2.78,0,0,1-1.5.44A2.9,2.9,0,0,1,187,81.7Z"/>
          <path d="M158.8,67.84a2.87,2.87,0,0,1,.34-4,4.86,4.86,0,0,1,3-1c1.38-.11,2.76-.11,4.14-.15,2.79-.06,5.58-.19,8.38-.3s5.45,0,8.19,0,5.68-.06,8.51,0c3.31.13,6.61.25,9.92.45a2.86,2.86,0,0,1,2.55,2.73,2.81,2.81,0,0,1-.75,2,3,3,0,0,1-2,.92,10.18,10.18,0,0,1-1.46,0c-.79,0-1.59-.1-2.38-.13-2.12-.1-4.25-.17-6.37-.25-2.41-.06-4.81,0-7.22,0l-2.88,0c-1.45,0-2.89,0-4.33,0-2.42,0-4.83.21-7.25.27l-3.69.08c-1.09,0-2.18,0-3.26.13h0a2.47,2.47,0,0,1-1.13.26A3,3,0,0,1,158.8,67.84Z"/>
          <path d="M50.59,69l-.32,0-.4,0H50a2.66,2.66,0,0,1-.38-.1l.22.08a2,2,0,0,1-.67-.25l.25.1a2.79,2.79,0,0,1-1.75-2.5,2.89,2.89,0,0,1,1-2.25h0a2.64,2.64,0,0,1,1.6-.66h.07l.15,0c2.59-.25,5.23-.21,7.82-.25,3,0,5.93,0,8.89,0,5.68,0,11.37,0,17-.28,1.76-.07,3.51-.15,5.28-.11,1.21,0,2.43.09,3.65.13.93,0,1.86,0,2.79,0a2.84,2.84,0,1,1,.19,5.67c-2,.07-4.08-.06-6.11-.14-2.63-.06-5.25.1-7.88.2-2.84.1-5.68.12-8.53.17s-5.84,0-8.77,0-5.89,0-8.84.09c-1.72,0-3.47,0-5.19.18l.21,0c-.2,0-.39,0-.58,0h.1Z"/>
          <path d="M129.33,138a3,3,0,0,1-1.58-1.47c-1-1.83-1.82-3.78-2.69-5.68-1.09-2.39-2.19-4.77-3.34-7.14s-2.26-5-3.44-7.48-2.45-4.93-3.61-7.42-2.55-5.17-3.8-7.77-2.48-5.22-3.71-7.83c-1.15-2.43-2.31-4.86-3.44-7.3s-2.32-4.91-3.4-7.39c-.84-1.92-1.68-3.82-2.65-5.67-.44-.83-.88-1.66-1.3-2.51s-.73-1.6-1.14-2.38c0-.05,0-.1-.08-.14a2.9,2.9,0,0,1-.53-.75,2.85,2.85,0,0,1,2.07-4c2.85-.44,3.86,2.86,4.83,4.84,1.09,2.23,2.29,4.38,3.29,6.65,2.19,5,4.56,9.84,6.85,14.75,1.19,2.57,2.43,5.12,3.63,7.68s2.59,5.2,3.84,7.82,2.4,5,3.63,7.44,2.29,5.06,3.47,7.56c1.27,2.67,2.54,5.33,3.79,8,1,2.08,1.84,4.22,2.91,6.26a2.87,2.87,0,0,1-3.6,3.9Z"/>
          <path d="M128.28,135.46a7.34,7.34,0,0,1,.75-2.83c.48-1.15.95-2.31,1.42-3.47,1-2.43,1.81-4.93,2.73-7.4,1-2.65,2-5.28,3.19-7.86s2.36-5.06,3.51-7.61l-.15.34c1.13-2.51,2.15-5.07,3.23-7.6s2.15-5.14,3.24-7.7c.53-1.23,1.07-2.45,1.59-3.68s1-2.48,1.47-3.71c1-2.45,2.1-4.83,3.19-7.23,0,.11-.1.22-.14.33.48-1.07.95-2.16,1.45-3.23s1-2,1.5-2.93c.85-1.62,1.58-3.3,2.45-4.9a2.85,2.85,0,1,1,5,2.66c-.67,1.33-1.29,2.68-2,4-.78,1.55-1.62,3.06-2.35,4.64s-1.46,3.19-2.19,4.8c-1.1,2.43-2,4.92-3,7.39-1.09,2.64-2.25,5.26-3.35,7.89s-2.19,5.19-3.27,7.78-2.25,5.11-3.44,7.63c-.5,1.07-1,2.13-1.48,3.2-1.48,3.31-2.79,6.7-4,10.11-.62,1.73-1.23,3.46-1.92,5.17l-1,2.45c-.29.7-.61,1.4-.87,2.11v.06h0a2.82,2.82,0,0,1-2.66,2.31h-.09A2.84,2.84,0,0,1,128.28,135.46Z"/>
          <path d="M186.81,82a1.62,1.62,0,0,0,0,.2.19.19,0,0,1,0-.07A.62.62,0,0,1,186.81,82Z" fill="#fff"/>
          <path d="M198.07,183.89h-1.29c-2.52,0-5,.28-7.56.28s-5.18.11-7.78.18c-1.38,0-2.76,0-4.14,0s-2.83.08-4.24.08c-2.7,0-5.39-.05-8.09-.14h0c-1.69-.06-3.36-.19-5.05-.25C158,184,156,184,154,184c-1.63,0-3.25,0-4.88,0l-.89,0,.13-.16h0c1.54-1.89,3.15-3.71,4.76-5.54,1-1.12,1.91-2.29,2.93-3.38.8-.87,1.6-1.74,2.43-2.58h0s0,0,0,0a2.78,2.78,0,0,0,1-2.64,2.85,2.85,0,0,0-.41-1c0-.39,0-.8-.05-1.2,0-1,0-2.07,0-3.11-.05-2.78-.08-5.57,0-8.35.06-1.72.15-3.44.17-5.16s0-3.48.05-5.22c0-3.59.15-7.19.1-10.78-.07-5.31.09-10.61.12-15.92,0-2.54,0-5.08.06-7.62.05-2.37.05-4.74.12-7.1a2.36,2.36,0,0,0-.15-.88,2.8,2.8,0,0,0-1.47-2.75,2.84,2.84,0,0,0-3.81,1.17c-.88,1.73-1.81,3.43-2.68,5.16s-1.56,3.32-2.32,5-1.48,3.09-2.22,4.63-1.75,3.32-2.54,5c-1.14,2.4-2.13,4.88-3.16,7.32s-2,4.81-2.91,7.23c-2,5.24-4.13,10.45-6.07,15.72-1,2.71-2,5.4-3.13,8.06s-2.2,5-3.31,7.54-2.19,4.95-3.24,7.46c-.52,1.25-1,2.5-1.54,3.77-.39,1-.76,2.08-1.19,3.09l-.23.46a2.56,2.56,0,0,0-.11.24c-.06-.09-.1-.18-.15-.27-.88-1.6-1.71-3.23-2.54-4.85-1-1.95-2.08-3.88-3.08-5.84-1.27-2.51-2.43-5.08-3.7-7.59s-2.55-5.21-3.8-7.83c-2.29-4.79-4.41-9.67-6.6-14.5-1.11-2.45-2.26-4.89-3.45-7.3s-2.46-4.65-3.68-7-2.32-4.63-3.37-7S87,115.32,86,112.83l0-.08h0c-.88-2.33-1.64-4.71-2.63-7-.42-1-.87-1.93-1.31-2.89-.27-.58-.51-1.19-.84-1.75a2.5,2.5,0,0,0-1.14-1,2.88,2.88,0,0,0-2.44-.75,2.84,2.84,0,0,0-2.33,3.07,1.1,1.1,0,0,0,0-.18c.17,2,.11,4,.09,5.92,0,2.44-.06,4.89-.06,7.34,0,5.26.14,10.51,0,15.77,0,2.83-.08,5.67-.08,8.51,0,2.64.06,5.29,0,7.93-.15,4.48-.43,8.95-.43,13.43a2.55,2.55,0,0,0,.43,1.41,2.61,2.61,0,0,0,.62,2.18c.46.5.93,1,1.41,1.48,1,1.08,2,2.19,3,3.28s2.08,2.14,3.12,3.21c1.19,1.25,2.31,2.57,3.44,3.86s2.22,2.59,3.28,3.93c.57.71,1.11,1.44,1.66,2.18h-.14c-2.5-.08-5-.26-7.48-.4-1.3-.06-2.59-.16-3.89-.18s-2.44,0-3.66,0c-5,.13-10,.23-15.06.42-2.51.09-5,.11-7.54.25l1.93-3a63,63,0,0,1,3.7-5.17c1.13-1.39,2.32-2.73,3.43-4.13s1.91-2.67,2.91-4c.6-.72,1.21-1.44,1.87-2.11a3,3,0,0,0,.5-.5,4.21,4.21,0,0,0,.28-.41h0a2.8,2.8,0,0,0,.33-1,2.48,2.48,0,0,0,.33-1.11c.12-2.24.11-4.48.18-6.73,0-.76,0-1.52.07-2.29.19-5.86.64-11.71.92-17.57.12-2.6.14-5.21.15-7.82s0-5.4,0-8.1q0-3.74-.08-7.45c-.06-2.86-.26-5.69-.56-8.53v0s0-.08,0-.12c-.26-2.78-.33-5.58-.42-8.37,0-1.45,0-2.89-.05-4.33,0-1.07,0-2.15,0-3.22h0a.66.66,0,0,0,0-.14,2.76,2.76,0,0,0-1.91-2.93c-1.22-1.47-2.51-2.89-3.72-4.37C62.41,77.58,61,75.79,59.62,74s-2.83-3.43-4.16-5.22l0-.06h.63c3,0,5.89-.1,8.84-.09s5.85.07,8.77,0,5.69-.07,8.53-.17c2.62-.1,5.25-.26,7.88-.2,1.8.07,3.62.18,5.42.16.3.61.59,1.23.88,1.85.42.85.86,1.68,1.3,2.51,1,1.85,1.81,3.75,2.65,5.67,1.08,2.48,2.26,4.92,3.4,7.38s2.29,4.88,3.44,7.31c1.23,2.61,2.46,5.23,3.71,7.83s2.58,5.15,3.8,7.77,2.44,4.93,3.61,7.41,2.23,5,3.44,7.49,2.25,4.75,3.34,7.14c.87,1.9,1.67,3.85,2.68,5.68a3,3,0,0,0,1.59,1.47,2.91,2.91,0,0,0,1,.18h.27a2.73,2.73,0,0,0,.5.05h.09a2.81,2.81,0,0,0,2.66-2.31v-.06c.26-.71.58-1.41.87-2.11l1-2.45c.69-1.71,1.3-3.44,1.92-5.17,1.22-3.41,2.53-6.8,4-10.11.49-1.07,1-2.14,1.48-3.2,1.19-2.52,2.36-5,3.44-7.63s2.18-5.18,3.27-7.78,2.27-5.25,3.35-7.89c1-2.47,1.94-5,3-7.39.73-1.6,1.47-3.2,2.19-4.8s1.57-3.09,2.35-4.64c.67-1.32,1.29-2.68,2-4a.25.25,0,0,1,0-.09c.89-.06,1.78-.07,2.68-.09l3.69-.08c2.42-.06,4.83-.22,7.25-.27,1.44,0,2.88,0,4.32,0h2.89c2.41,0,4.81,0,7.22,0,2.13.07,4.25.14,6.37.24l1.3.06c-2,1.89-4.05,3.71-6.09,5.55q-2.22,2-4.28,4.2a3.86,3.86,0,0,0-1.32,2.87,3.17,3.17,0,0,0,0,.87.59.59,0,0,1,0-.13c0,.07,0,.14,0,.22v0c0,.26,0,.53,0,.79-.06,1.89-.16,3.76-.22,5.65v0c-.1,3.21-.19,6.41-.1,9.61.09,3,.11,5.91,0,8.86l-.18,5.91c-.06,1.91-.14,3.83-.2,5.75s-.08,3.8-.13,5.7c-.1,3-.2,6-.22,8.92,0,2.75,0,5.48.1,8.23.1,5.15-.15,10.31-.06,15.47.05,2.36.07,4.71.1,7.07a41.49,41.49,0,0,0,.21,4.73,2.7,2.7,0,0,0,1.4,2,3.11,3.11,0,0,0,.5,1.78,22.44,22.44,0,0,0,2.64,3.28c1,1.06,2,2.09,3,3.14.82.86,1.63,1.74,2.42,2.64C196.77,182.36,197.4,183.14,198.07,183.89Z" fill="#fff"/>
        </g>
      </g>
    </g>
  </g>
</svg>
