<?xml version="1.0" encoding="utf-8"?>
<!-- Generator: Adobe Illustrator 26.0.1, SVG Export Plug-In . SVG Version: 6.00 Build 0)  -->
<svg version="1.1" id="Layer_1" xmlns="http://www.w3.org/2000/svg" xmlns:xlink="http://www.w3.org/1999/xlink" x="0px" y="0px"
	 viewBox="0 0 28.3 32.7" style="enable-background:new 0 0 28.3 32.7;" xml:space="preserve">
<style type="text/css">
	.st0{fill:url(#SVGID_1_);}
	.st1{fill:url(#SVGID_00000175311973745408391890000014234883167015642519_);}
	.st2{fill:url(#SVGID_00000161609848392909660810000015098847615278029976_);}
	.st3{fill:url(#SVGID_00000075161275177162331990000013484765339140567446_);}
</style>
<g>
	
		<linearGradient id="SVGID_1_" gradientUnits="userSpaceOnUse" x1="29.1833" y1="23.6417" x2="-0.8669" y2="11.6247" gradientTransform="matrix(1 0 0 -1 1.907349e-06 34)">
		<stop  offset="0" style="stop-color:#C200FB"/>
		<stop  offset="0.4897" style="stop-color:#3772FF"/>
		<stop  offset="0.4898" style="stop-color:#3773FE"/>
		<stop  offset="1" style="stop-color:#5AC4BE"/>
	</linearGradient>
	<path class="st0" d="M26.9,12.3v11.4L14.2,31L1.5,23.7V9l12.7-7.3l9.8,5.6l1.5-0.8L14.2,0L0,8.2v16.4l14.2,8.2l14.2-8.2V11.4
		L26.9,12.3z"/>
	
		<linearGradient id="SVGID_00000008135683775863645680000008612748907587170460_" gradientUnits="userSpaceOnUse" x1="28.6031" y1="25.0924" x2="-1.4471" y2="13.0754" gradientTransform="matrix(1 0 0 -1 1.907349e-06 34)">
		<stop  offset="0" style="stop-color:#C200FB"/>
		<stop  offset="0.4897" style="stop-color:#3772FF"/>
		<stop  offset="0.4898" style="stop-color:#3773FE"/>
		<stop  offset="1" style="stop-color:#5AC4BE"/>
	</linearGradient>
	<path style="fill:url(#SVGID_00000008135683775863645680000008612748907587170460_);" d="M10.6,23.7H8.5v-7.1h7.1
		c0.7,0,1.3-0.3,1.8-0.8c0.5-0.5,0.7-1.1,0.7-1.8c0-0.3-0.1-0.7-0.2-1c-0.1-0.3-0.3-0.6-0.6-0.8c-0.2-0.2-0.5-0.4-0.8-0.6
		c-0.3-0.1-0.6-0.2-1-0.2H8.5V9.4h7.1c1.2,0,2.4,0.5,3.3,1.4c0.9,0.9,1.4,2.1,1.4,3.3c0,0.9-0.3,1.9-0.8,2.7c-0.5,0.7-1.2,1.3-2,1.7
		c-0.8,0.3-1.7,0.4-2.5,0.4h-4.2L10.6,23.7z"/>
	
		<linearGradient id="SVGID_00000118358384175991840720000007044771199188083339_" gradientUnits="userSpaceOnUse" x1="31.6079" y1="17.5786" x2="1.5577" y2="5.5616" gradientTransform="matrix(1 0 0 -1 1.907349e-06 34)">
		<stop  offset="0" style="stop-color:#C200FB"/>
		<stop  offset="0.4897" style="stop-color:#3772FF"/>
		<stop  offset="0.4898" style="stop-color:#3773FE"/>
		<stop  offset="1" style="stop-color:#5AC4BE"/>
	</linearGradient>
	<path style="fill:url(#SVGID_00000118358384175991840720000007044771199188083339_);" d="M20.2,23.5h-2.5l-1.9-3.3
		c0.8,0,1.5-0.2,2.2-0.5L20.2,23.5z"/>
	
		<linearGradient id="SVGID_00000016069270176801875950000009668515758499210903_" gradientUnits="userSpaceOnUse" x1="28.402" y1="25.5893" x2="-1.6482" y2="13.5723" gradientTransform="matrix(1 0 0 -1 1.907349e-06 34)">
		<stop  offset="0" style="stop-color:#C200FB"/>
		<stop  offset="0.4897" style="stop-color:#3772FF"/>
		<stop  offset="0.4898" style="stop-color:#3773FE"/>
		<stop  offset="1" style="stop-color:#5AC4BE"/>
	</linearGradient>
	<path style="fill:url(#SVGID_00000016069270176801875950000009668515758499210903_);" d="M25.4,9.9l1.5,0.8l1.5-0.8V8.2l-1.5-0.8
		l-1.5,0.8V9.9z"/>
</g>
</svg>
