<svg width="32" height="33" viewBox="0 0 32 33" fill="none" xmlns="http://www.w3.org/2000/svg">
<path fill-rule="evenodd" clip-rule="evenodd" d="M32 1.6237C32.0015 1.41284 31.9613 1.20376 31.8817 1.00851C31.802 0.813266 31.6846 0.635705 31.536 0.486064C31.3874 0.336422 31.2107 0.217658 31.0161 0.136615C30.8214 0.0555714 30.6126 0.0138504 30.4017 0.0138559H6.33514C5.39581 -0.000614342 4.46171 0.156376 3.57872 0.477121C2.84042 0.769905 2.17024 1.21144 1.60984 1.77426C1.09847 2.32191 0.704358 2.96825 0.451683 3.67365C0.169486 4.39403 0.0165824 5.15855 0 5.93206L0 9.47604C0 10.3637 0.352638 11.2151 0.980339 11.8428C1.60804 12.4705 2.45938 12.8231 3.34709 12.8231H22.3988L12.7977 6.41849H30.4017C30.8256 6.41849 31.2321 6.2501 31.5319 5.95037C31.8316 5.65064 32 5.24411 32 4.82023V1.6237ZM0 30.4156C0 30.8395 0.168388 31.246 0.46812 31.5457C0.767853 31.8455 1.17438 32.0139 1.59826 32.0139H25.6533C26.592 32.0331 27.5262 31.88 28.4097 31.5622C29.1516 31.2645 29.8254 30.8192 30.3902 30.2535C30.925 29.7132 31.3395 29.0659 31.6062 28.3541C31.8642 27.6329 31.9973 26.8731 32 26.1072V22.5633C32 21.6756 31.6474 20.8242 31.0197 20.1965C30.392 19.5688 29.5406 19.2162 28.6529 19.2162H9.60116L19.2023 25.6208H1.59826C1.17836 25.6208 0.775307 25.786 0.476232 26.0807C0.177156 26.3754 0.00608554 26.776 0 27.1959L0 30.3924V30.4156Z" fill="#6966FB"/>
</svg>
