<svg width="101" height="101" viewBox="0 0 101 101" fill="none" xmlns="http://www.w3.org/2000/svg">
<path d="M50.4733 100.153C78.0876 100.153 100.473 77.7671 100.473 50.1528C100.473 22.5386 78.0876 0.152832 50.4733 0.152832C22.8591 0.152832 0.473328 22.5386 0.473328 50.1528C0.473328 77.7671 22.8591 100.153 50.4733 100.153Z" fill="#98D7C3"/>
<path d="M34.7563 58.7241C30.9331 58.6688 26.7991 58.2238 23.6394 55.883C20.6008 53.4473 20.0083 48.5656 23.1733 45.972C28.2736 41.5852 35.9965 42.2435 41.605 38.7546C42.9822 34.5864 43.6589 28.9885 47.598 26.3791C52.0532 23.6301 59.1231 25.8129 60.1421 31.2397C60.8583 35.9425 58.4122 40.4345 56.8191 44.7265C52.9458 53.1866 44.2566 59.4061 34.7563 58.7241ZM36.2572 56.9941C46.0339 57.0731 53.9859 49.2686 56.669 40.3108C57.767 37.2617 59.3021 33.8597 58.1594 30.6157C56.619 27.0558 51.7557 25.9604 48.5433 27.8404C44.8833 30.2313 44.8701 35.6502 43.0664 39.2312C42.6293 42.1698 29.0241 43.9471 26.0329 45.9694C22.0542 47.9942 21.5829 52.51 25.3904 54.9904C28.6976 56.8546 32.6156 56.9994 36.2572 56.9941Z" fill="#161922"/>
<path d="M55.3156 26.9683C55.0523 26.2995 54.552 25.6149 53.7963 25.4964C53.6515 26.5181 52.414 26.3126 51.8873 25.7097C50.6893 23.4215 55.0023 23.3056 56.0239 24.9197C57.9066 26.805 56.2688 28.2769 55.3156 26.9683Z" fill="#161922"/>
<path d="M55.9159 25.431C55.5104 24.4936 56.6058 24.1565 57.2957 23.9432C57.875 23.6088 60.6924 23.0717 60.1236 22.1922C59.0704 20.6308 56.8322 21.318 55.3024 20.6334C54.236 20.4069 52.4613 18.182 51.803 19.962C51.7556 21.2022 52.2901 22.4213 52.7931 23.5351C52.9042 23.6078 52.996 23.7065 53.0607 23.8225C53.1253 23.9385 53.1609 24.0685 53.1643 24.2013C53.1668 24.3444 53.1337 24.486 53.0679 24.6132C53.0022 24.7404 52.9058 24.8492 52.7875 24.9299C52.6692 25.0106 52.5327 25.0606 52.3902 25.0755C52.2478 25.0903 52.1039 25.0695 51.9715 25.0149C51.3554 24.7516 51.1474 24.0327 50.8972 23.4666C49.9019 21.3601 49.3569 17.7344 52.6114 17.5738C54.1017 17.5422 55.0549 18.9587 56.4689 19.1931C57.688 19.3853 58.9651 19.4117 60.1052 19.9277C63.0622 21.6551 62.2617 24.2355 59.1652 25.0807C58.2594 25.2756 56.5215 26.5632 55.9159 25.431Z" fill="#161922"/>
<path d="M20.4532 53.2838C19.6001 52.9599 19.4263 51.8778 19.637 51.1405C19.7607 50.3848 19.974 49.4395 20.6902 49.034C21.625 48.4521 22.5335 49.8898 21.5697 50.4638C21.3822 50.879 21.2733 51.3254 21.2485 51.7803C22.2096 52.328 21.4249 53.7762 20.4532 53.2838Z" fill="#161922"/>
<path d="M15.9375 54.8693C15.3977 54.3612 15.1265 53.6739 14.7762 53.0262C14.1891 51.9729 13.4597 50.9987 12.991 49.8928C12.3696 48.5131 12.9462 46.483 14.5551 46.1433C16.3087 45.9247 17.8386 47.236 19.1604 48.2155C19.8951 48.8659 22.2386 50.3773 20.3848 51.1119C19.9793 51.1962 19.6423 50.9303 19.379 50.6485C18.5309 49.8486 17.6117 49.1276 16.6326 48.4946C14.8553 47.2228 13.7651 47.9312 14.9027 49.9244C15.3371 50.6933 15.8321 51.4226 16.2561 52.1783C16.5852 52.7049 16.7432 53.3922 17.283 53.7372C18.1019 53.2816 18.6996 52.5233 19.4395 51.9598C19.6125 51.8307 19.8283 51.7727 20.0427 51.7976C20.2571 51.8226 20.4538 51.9285 20.5926 52.0939C20.7313 52.2592 20.8015 52.4714 20.7888 52.6868C20.7762 52.9023 20.6816 53.1047 20.5244 53.2527C19.3211 54.3401 17.5569 56.4966 15.9375 54.8693Z" fill="#161922"/>
<path d="M58.1568 30.6161C59.2996 33.8601 57.7671 37.2621 56.6691 40.3112C53.986 49.2638 46.034 57.0735 36.2572 56.9945C32.6156 56.9945 28.6975 56.855 25.3904 54.9907C21.5855 52.5104 22.0542 47.9946 26.0328 45.9697C29.0241 43.9475 42.6215 42.1701 43.0665 39.2316C44.8701 35.6506 44.8833 30.2317 48.5433 27.8408C51.7584 25.9634 56.6322 27.0509 58.1568 30.6161Z" fill="#E2543D"/>
<path d="M60.1236 22.1928C60.6924 23.0723 57.875 23.6094 57.2957 23.9438C56.8086 24.0939 56.124 24.3046 55.9002 24.7337C55.3104 24.036 54.057 23.7253 53.0775 23.8491C53.017 23.7145 52.9168 23.6015 52.7905 23.5252C52.2902 22.4114 51.7557 21.1922 51.8031 19.9521C52.4614 18.1721 54.2361 20.3971 55.3025 20.6261C56.8323 21.3187 59.0678 20.6314 60.1236 22.1928Z" fill="#E2543D"/>
<path d="M19.6738 50.9247C19.6738 50.9984 19.6475 51.0695 19.637 51.1406C19.5695 51.3829 19.5437 51.6349 19.5606 51.8858C19.5179 51.9093 19.4773 51.9366 19.4395 51.9674C18.6996 52.5308 18.0992 53.2839 17.283 53.7447C16.7564 53.3998 16.5852 52.6915 16.2561 52.1859C15.8348 51.4302 15.3371 50.7008 14.9027 49.9293C13.7652 47.9387 14.8553 47.2304 16.6326 48.5022C17.6116 49.1352 18.5309 49.8561 19.3789 50.6561C19.4695 50.7537 19.5681 50.8436 19.6738 50.9247Z" fill="#E2543D"/>
<path d="M25.5167 50.9322C23.3101 49.4603 27.6233 45.5765 29.0426 47.525C32.1971 48.3149 27.8655 52.3277 25.5167 50.9322Z" fill="white"/>
<path d="M53.4856 78.878C47.6085 78.2092 44.0802 71.737 49.0093 67.4187C51.6082 65.3122 55.3288 65.3596 58.1093 63.5823C60.8978 62.0498 62.6857 59.3271 64.0022 56.5097C65.1368 54.222 66.1261 51.8651 66.9645 49.453C68.4074 44.9478 71.3196 38.4546 77.0967 39.7105C78.9135 39.7105 80.338 41.4273 81.1253 42.9256C83.1871 46.9305 82.2707 51.9229 81.465 56.1543C79.2743 64.2511 73.9106 72.182 66.5248 76.3002C62.6526 78.7572 58.0014 79.6768 53.4856 78.878ZM58.7966 77.3297C63.4177 76.6898 67.5201 73.9831 70.9089 70.9234C75.3667 66.3128 78.9162 60.5594 80.1063 54.2084C80.6329 49.9954 81.7757 43.7734 77.2415 41.401C71.9121 40.1687 69.824 46.4987 68.4443 50.4694C67.3655 53.538 66.0384 56.5136 64.4762 59.3667C62.8357 62.4446 60.1461 64.8325 56.8955 66.0969C54.8496 67.0422 52.4666 67.2318 50.5365 68.4061C47.6033 70.5363 47.7902 74.2121 50.7998 76.1606C53.2302 77.4719 56.1056 77.4745 58.7966 77.3429V77.3297Z" fill="#161922"/>
<path d="M78.6897 41.1214C77.7523 39.9207 80.4802 38.9939 80.9568 37.9301C79.8694 36.8347 78.2 36.4345 76.7913 35.871C74.8849 35.1232 75.8249 37.7142 76.1593 38.6384C76.2567 39.0702 76.6543 39.2967 76.7886 39.6916C76.8144 39.806 76.8169 39.9244 76.7962 40.0398C76.7754 40.1552 76.7316 40.2653 76.6676 40.3635C76.6035 40.4617 76.5204 40.546 76.4231 40.6116C76.3259 40.6771 76.2165 40.7224 76.1014 40.7449C74.7269 40.7659 74.4557 38.7437 74.1213 37.7747C73.7369 36.4582 73.858 34.6151 75.3799 34.1227C77.2231 33.7172 79.0136 34.9284 80.6461 35.6077C81.9627 36.1343 83.4188 37.6536 82.2786 39.0307C81.6467 39.7364 79.5902 42.2273 78.6897 41.1214Z" fill="#161922"/>
<path d="M43.1769 77.2291C41.7814 76.0311 41.7156 73.8903 41.3495 72.1972C40.5254 67.9237 43.4561 67.5077 46.4183 69.6537C49.1937 71.2336 46.5974 73.4638 45.997 71.4679C45.1944 70.7405 44.2068 70.2485 43.1427 70.046C42.7267 70.3515 43.0032 71.0993 42.9795 71.5495C43.2112 72.9767 43.3692 74.5223 44.1064 75.7836C44.6621 75.5777 45.1733 75.2676 45.6126 74.8699C46.0076 74.3933 46.5316 73.7008 47.2083 74.1773C48.7671 75.4597 44.3118 78.3956 43.1769 77.2291Z" fill="#161922"/>
<path d="M77.2335 41.4001C81.7677 43.7699 80.6276 49.9893 80.0984 54.2075C78.9082 60.5585 75.3588 66.3198 70.9009 70.9225C67.52 73.9822 63.4176 76.6863 58.7886 77.3288C56.1029 77.4736 53.2196 77.471 50.7945 76.1597C47.7796 74.2139 47.5927 70.5354 50.5312 68.4052C52.4613 67.2309 54.8442 67.0413 56.8928 66.096C60.1395 64.8295 62.825 62.4418 64.463 59.3658C66.0264 56.5126 67.3553 53.5371 68.4363 50.4685C69.8161 46.4978 71.9041 40.1678 77.2335 41.4001Z" fill="#E2543D"/>
<path d="M47.0186 74.0751C46.4341 73.8303 45.9654 74.4385 45.6126 74.8651C45.1732 75.262 44.662 75.5712 44.1065 75.7761C43.3692 74.5148 43.2138 72.9692 42.9795 71.5421C43.0032 71.0839 42.7162 70.344 43.1428 70.0386C44.2062 70.2428 45.1934 70.7345 45.997 71.4604C46.1418 71.9423 46.4025 72.1793 46.6763 72.2372C46.6901 72.8644 46.8057 73.4851 47.0186 74.0751Z" fill="#E2543D"/>
<path d="M80.9568 37.9298C80.6198 38.6829 79.1531 39.3674 78.6581 40.1284C78.1857 39.8541 77.6508 39.7054 77.1046 39.6966C76.9913 39.6703 76.8755 39.6492 76.7649 39.6308C76.6122 39.27 76.2514 39.0489 76.1593 38.6381C75.8249 37.7112 74.8848 35.1255 76.7912 35.8681C78.1999 36.4342 79.8693 36.8344 80.9568 37.9298Z" fill="#E2543D"/>
<path d="M51.1948 72.1577C49.794 70.8412 53.2381 67.8236 54.2782 69.4325C55.6737 70.799 52.4534 73.261 51.1948 72.1577Z" fill="white"/>
<path d="M51.8925 72.7289C50.2969 72.4367 51.0842 70.6067 51.961 69.9221C52.8063 69.0689 55.7527 67.6891 56.0924 69.5639C56.0292 71.3676 53.5409 72.7553 51.8925 72.7289Z" fill="white"/>
</svg>
