<svg width="101" height="101" viewBox="0 0 101 101" fill="none" xmlns="http://www.w3.org/2000/svg">
<path d="M50.9579 100.153C78.5722 100.153 100.958 77.7671 100.958 50.1528C100.958 22.5386 78.5722 0.152832 50.9579 0.152832C23.3437 0.152832 0.957947 22.5386 0.957947 50.1528C0.957947 77.7671 23.3437 100.153 50.9579 100.153Z" fill="#98D7C3"/>
<path d="M25.773 64.7773C23.1399 64.2796 20.3409 63.5661 18.4003 61.6465C15.0641 58.6264 13.0445 54.0737 14.3031 49.5975C15.4959 44.2707 19.6062 39.9498 24.2826 37.364C30.5257 33.9937 38.4198 34.8284 44.7234 37.6274C50.7111 39.8945 55.9194 43.9257 62.0071 45.919C62.8418 46.1823 63.6844 46.4035 64.5244 46.6299C65.2906 46.4377 65.8936 47.4831 65.2985 48.0308L65.317 48.0176L65.3854 47.9359C65.2773 48.0849 65.132 48.2029 64.9641 48.2783C64.9352 49.055 63.9741 49.2841 63.5475 49.8291C66.1016 50.7744 66.3412 51.9146 64.1426 53.5813C69.7827 56.0696 63.7924 56.9859 61.1619 57.8733C58.047 58.8344 54.9478 59.8323 51.8354 60.7987C47.6225 62.0494 43.5017 63.5924 39.1965 64.4481C34.7638 65.2302 30.2387 65.3412 25.773 64.7773ZM32.7586 63.3581C37.1006 63.2922 41.3451 62.3496 45.4475 60.9698C51.5037 59.0898 57.5282 57.1624 63.5896 55.3271C61.7122 54.3318 61.9676 52.8967 63.5475 51.7566C61.0487 50.9245 60.9144 49.5211 62.9946 47.9939C54.1605 45.6241 47.0142 38.9465 37.9168 37.2982C33.6775 36.7058 29.0643 36.661 25.2305 38.8096C20.4567 41.4006 16.278 45.9927 15.7276 51.5749C15.18 55.2613 17.534 58.6527 20.2039 60.9435C23.8692 63.3607 28.5193 63.4371 32.7586 63.3581Z" fill="#161922"/>
<path d="M80.893 62.4156C77.6727 61.6257 74.7737 59.3902 74.3103 55.9409C72.8673 55.7645 65.5447 57.4049 65.4499 55.7434C65.3341 54.4268 67.0087 54.7217 67.8645 54.6901C70.2027 54.7533 72.5145 54.0871 74.8448 54.2398C76.5695 54.4689 75.8269 57.705 77.8176 59.04C82.6229 62.8448 88.7212 60.3829 85.2455 54.0002C84.5003 52.7153 83.347 51.3671 81.783 51.2434C81.3854 51.2434 80.9931 51.4092 80.6086 51.2065C79.7792 50.7589 80.1715 49.6056 81.0273 49.4898C81.9592 49.0893 82.8138 48.5287 83.5524 47.8335C87.4125 44.8002 83.3681 37.9567 78.9024 39.7262C75.9428 41.0427 75.3425 44.4657 76.0692 47.3253C75.9849 48.26 74.9106 48.3391 74.1733 48.3575C72.6672 48.4655 71.1611 48.5892 69.7735 48.7314C67.9303 48.8973 66.0872 49.1158 64.2256 49.258C63.2066 49.1895 63.2724 47.5517 64.3124 47.5886C67.6117 47.2331 70.9136 46.9145 74.2208 46.6617C72.9042 41.9221 77.5042 35.9582 82.536 38.141C87.5389 40.4187 88.5131 46.9146 83.6893 49.99C86.6594 51.7094 88.5922 55.5827 87.8207 58.9715C87.0729 61.8337 83.613 63.2372 80.893 62.4156Z" fill="#161922"/>
<path d="M20.1294 51.5821C20.123 51.3576 20.2054 51.1395 20.3588 50.9754C20.5121 50.8112 20.724 50.7142 20.9484 50.7052C21.1721 50.7009 21.3887 50.784 21.552 50.937C21.7153 51.09 21.8124 51.3007 21.8226 51.5242C21.8283 51.7483 21.7456 51.9656 21.5924 52.1292C21.4391 52.2928 21.2277 52.3894 21.0037 52.3983C20.7804 52.4027 20.5642 52.3199 20.401 52.1675C20.2378 52.0151 20.1404 51.8051 20.1294 51.5821Z" fill="#161922"/>
<path d="M18.2226 56.3612C18.2169 56.1376 18.2993 55.9206 18.4519 55.7571C18.6046 55.5936 18.8154 55.4966 19.0389 55.487C19.2626 55.4826 19.4792 55.5658 19.6424 55.7188C19.8057 55.8717 19.9028 56.0824 19.9131 56.3059C19.9188 56.5295 19.8365 56.7465 19.6838 56.91C19.5311 57.0735 19.3203 57.1705 19.0968 57.1801C18.8731 57.1845 18.6566 57.1013 18.4933 56.9483C18.33 56.7953 18.2329 56.5847 18.2226 56.3612Z" fill="#161922"/>
<path d="M17.2994 53.1076C17.2937 52.8846 17.3758 52.6683 17.528 52.5053C17.6801 52.3423 17.8903 52.2456 18.1131 52.236C18.3357 52.2316 18.5512 52.3141 18.7139 52.466C18.8766 52.6179 18.9737 52.8272 18.9847 53.0496C18.9897 53.2721 18.9073 53.4877 18.7552 53.6501C18.6031 53.8126 18.3934 53.9089 18.171 53.9185C17.9489 53.9229 17.7337 53.8407 17.5711 53.6894C17.4084 53.538 17.311 53.3294 17.2994 53.1076Z" fill="#161922"/>
<path d="M22.2942 60.5456C22.2878 60.3224 22.3696 60.1057 22.522 59.9426C22.6743 59.7794 22.8849 59.6829 23.1079 59.674C23.3305 59.6696 23.546 59.7521 23.7088 59.904C23.8715 60.0559 23.9686 60.2652 23.9795 60.4876C23.9853 60.7105 23.9032 60.9268 23.751 61.0899C23.5988 61.2529 23.3887 61.3495 23.1658 61.3591C22.9431 61.3642 22.7272 61.2819 22.5643 61.1298C22.4014 60.9778 22.3045 60.7681 22.2942 60.5456Z" fill="#161922"/>
<path d="M32.0412 60.293C32.0355 60.0686 32.1181 59.851 32.2713 59.687C32.4245 59.523 32.6359 59.4258 32.8601 59.4162C33.0841 59.4118 33.3009 59.4948 33.4646 59.6477C33.6284 59.8006 33.726 60.0113 33.737 60.235C33.7427 60.4594 33.66 60.677 33.5069 60.841C33.3537 61.005 33.1423 61.1023 32.9181 61.1119C32.6941 61.1163 32.4772 61.0332 32.3135 60.8803C32.1498 60.7274 32.0522 60.5167 32.0412 60.293Z" fill="#161922"/>
<path d="M23.603 57.0407C23.5965 56.8176 23.6784 56.6009 23.8307 56.4377C23.983 56.2746 24.1935 56.1781 24.4166 56.1692C24.6393 56.1641 24.8552 56.2464 25.0181 56.3985C25.181 56.5505 25.2779 56.7603 25.2882 56.9828C25.2946 57.206 25.2127 57.4226 25.0604 57.5858C24.9081 57.7489 24.6976 57.8454 24.4745 57.8543C24.2518 57.8594 24.0359 57.7771 23.873 57.6251C23.7101 57.4731 23.6132 57.2633 23.603 57.0407Z" fill="#161922"/>
<path d="M26.9233 52.3255C26.9176 52.1015 27.0003 51.8842 27.1535 51.7206C27.3068 51.557 27.5182 51.4603 27.7422 51.4514C27.9656 51.4463 28.1822 51.5289 28.3456 51.6814C28.5089 51.8339 28.6061 52.0443 28.6164 52.2676C28.6221 52.4912 28.5398 52.7082 28.3871 52.8717C28.2344 53.0352 28.0236 53.1322 27.8001 53.1418C27.5766 53.1462 27.3601 53.0635 27.1965 52.9112C27.0329 52.7588 26.9349 52.5488 26.9233 52.3255Z" fill="#161922"/>
<path d="M27.9444 60.0111C27.938 59.7873 28.0201 59.5699 28.1729 59.4062C28.3257 59.2426 28.5369 59.1458 28.7607 59.1369C28.9837 59.1325 29.1996 59.2154 29.3624 59.3679C29.5252 59.5203 29.6221 59.7304 29.6323 59.9532C29.638 60.1768 29.5557 60.3937 29.403 60.5573C29.2503 60.7208 29.0395 60.8177 28.816 60.8273C28.593 60.8317 28.3771 60.7488 28.2143 60.5963C28.0515 60.4439 27.9546 60.2339 27.9444 60.0111Z" fill="#161922"/>
<path d="M39.3536 58.6107C39.3479 58.3871 39.4302 58.1701 39.5829 58.0066C39.7356 57.8431 39.9463 57.7461 40.1698 57.7365C40.393 57.7321 40.6092 57.8149 40.7724 57.9673C40.9356 58.1197 41.033 58.3298 41.0439 58.5528C41.0496 58.7764 40.9673 58.9934 40.8146 59.1569C40.662 59.3204 40.4512 59.4174 40.2277 59.427C40.0045 59.4314 39.7883 59.3486 39.6251 59.1962C39.4619 59.0438 39.3645 58.8338 39.3536 58.6107Z" fill="#161922"/>
<path d="M32.2339 55.2796C32.2275 55.0558 32.3096 54.8385 32.4624 54.6748C32.6153 54.5111 32.8265 54.4144 33.0502 54.4054C33.2735 54.4011 33.4897 54.4838 33.6529 54.6362C33.8162 54.7886 33.9136 54.9986 33.9245 55.2217C33.9302 55.4453 33.8479 55.6622 33.6952 55.8257C33.5425 55.9893 33.3317 56.0863 33.1082 56.0959C32.8849 56.1002 32.6687 56.0175 32.5055 55.8651C32.3423 55.7127 32.2448 55.5027 32.2339 55.2796Z" fill="#161922"/>
<path d="M32.0291 49.6032C32.0227 49.3801 32.1045 49.1634 32.2568 49.0002C32.4091 48.8371 32.6196 48.7406 32.8426 48.7317C33.0654 48.7266 33.2813 48.8089 33.4441 48.961C33.607 49.113 33.7039 49.3227 33.7141 49.5453C33.7206 49.7684 33.6387 49.9851 33.4864 50.1482C33.3341 50.3114 33.1236 50.4079 32.9006 50.4168C32.6778 50.4218 32.462 50.3396 32.2991 50.1876C32.1363 50.0355 32.0394 49.8258 32.0291 49.6032Z" fill="#161922"/>
<path d="M25.0827 45.9533C25.077 45.7303 25.1591 45.5141 25.3112 45.3511C25.4634 45.188 25.6736 45.0913 25.8964 45.0817C26.1196 45.0773 26.3358 45.1602 26.499 45.3126C26.6622 45.465 26.7596 45.675 26.7706 45.898C26.7763 46.1214 26.6938 46.338 26.5411 46.5011C26.3884 46.6642 26.1775 46.7606 25.9543 46.7696C25.7313 46.7739 25.5154 46.6911 25.3526 46.5386C25.1898 46.3861 25.093 46.1761 25.0827 45.9533Z" fill="#161922"/>
<path d="M19.2554 46.3457C19.249 46.1233 19.3306 45.9073 19.4824 45.7447C19.6343 45.582 19.8441 45.4857 20.0665 45.4768C20.2886 45.4717 20.5038 45.5538 20.6662 45.7053C20.8286 45.8569 20.9253 46.0659 20.9356 46.2878C20.942 46.5102 20.8604 46.7262 20.7086 46.8889C20.5567 47.0516 20.3468 47.1478 20.1245 47.1567C19.9024 47.1618 19.6871 47.0797 19.5247 46.9282C19.3623 46.7766 19.2657 46.5676 19.2554 46.3457Z" fill="#161922"/>
<path d="M43.9883 59.084C43.9833 58.8615 44.0656 58.6459 44.2178 58.4834C44.3699 58.321 44.5796 58.2246 44.8019 58.215C45.0238 58.2106 45.2387 58.2929 45.4009 58.4443C45.5631 58.5957 45.6599 58.8044 45.6709 59.026C45.6773 59.2485 45.5957 59.4644 45.4439 59.6271C45.2921 59.7898 45.0822 59.886 44.8599 59.8949C44.6375 59.9 44.422 59.8181 44.2592 59.6666C44.0964 59.5151 43.9992 59.3061 43.9883 59.084Z" fill="#161922"/>
<path d="M36.0815 61.52C36.0758 61.2974 36.158 61.0814 36.3102 60.9188C36.4624 60.7562 36.6725 60.66 36.8951 60.6511C37.1171 60.646 37.3324 60.7281 37.4947 60.8796C37.6571 61.0312 37.7537 61.2402 37.764 61.4621C37.7704 61.6848 37.689 61.901 37.5372 62.0641C37.3855 62.2272 37.1756 62.324 36.953 62.3336C36.7305 62.338 36.515 62.2555 36.3523 62.1036C36.1896 61.9517 36.0924 61.7424 36.0815 61.52Z" fill="#161922"/>
<path d="M85.2568 53.9921C88.7325 60.3773 82.6236 62.8367 77.8288 59.0319C75.8381 57.6969 76.5807 54.4607 74.856 54.2317C72.5257 54.0763 70.2138 54.7452 67.8756 54.682C67.3938 54.7057 66.6486 54.6214 66.1141 54.7767C65.7612 54.4265 65.1293 54.0342 64.1287 53.5945C66.3274 51.9277 66.0877 50.7876 63.5336 49.8449C63.7486 49.61 63.9959 49.4069 64.2682 49.242C66.1114 49.105 67.9546 48.8865 69.7978 48.7153C71.1854 48.5731 72.6942 48.452 74.1977 48.3415C74.935 48.323 76.0093 48.2441 76.0935 47.3093C75.3668 44.4603 75.9672 41.032 78.9294 39.7101C83.4057 37.9407 87.437 44.7868 83.5768 47.8175C82.8383 48.5127 81.9836 49.0732 81.0517 49.4737C80.1985 49.5896 79.8036 50.7429 80.633 51.1905C81.0122 51.3932 81.423 51.2168 81.8074 51.2273C83.3583 51.359 84.5116 52.7071 85.2568 53.9921Z" fill="white"/>
<path d="M18.1707 53.918C18.3931 53.9084 18.6028 53.812 18.7549 53.6496C18.907 53.4871 18.9894 53.2715 18.9843 53.049C18.9734 52.8267 18.8763 52.6174 18.7136 52.4655C18.5509 52.3135 18.3354 52.2311 18.1128 52.2354C17.8902 52.245 17.6804 52.3418 17.5286 52.5049C17.3769 52.668 17.2954 52.8843 17.3018 53.107C17.3121 53.3289 17.4087 53.538 17.5711 53.6895C17.7335 53.8411 17.9487 53.923 18.1707 53.918ZM19.0976 57.1778C19.3215 57.1689 19.533 57.0721 19.6862 56.9086C19.8395 56.745 19.9222 56.5277 19.9165 56.3036C19.9049 56.0803 19.8069 55.8703 19.6433 55.7179C19.4797 55.5656 19.2632 55.4829 19.0397 55.4873C18.8162 55.4969 18.6054 55.5939 18.4527 55.7574C18.3 55.9209 18.2176 56.1379 18.2234 56.3615C18.2336 56.5848 18.3308 56.7952 18.4942 56.9477C18.6576 57.1003 18.8741 57.1828 19.0976 57.1778ZM20.1219 47.1562C20.3442 47.1473 20.5541 47.051 20.7059 46.8884C20.8577 46.7257 20.9393 46.5097 20.9328 46.2872C20.9226 46.0654 20.8259 45.8563 20.6636 45.7048C20.5012 45.5532 20.286 45.4712 20.0639 45.4762C19.8416 45.4851 19.6317 45.5814 19.4799 45.7441C19.3281 45.9068 19.2465 46.1227 19.2529 46.3452C19.2632 46.567 19.3598 46.7761 19.5222 46.9276C19.6846 47.0792 19.8998 47.1612 20.1219 47.1562ZM21.0066 52.3987C21.2301 52.3891 21.4408 52.2921 21.5935 52.1286C21.7462 51.9651 21.8286 51.7482 21.8228 51.5245C21.8126 51.301 21.7155 51.0903 21.5522 50.9373C21.3889 50.7844 21.1723 50.7012 20.9487 50.7056C20.7242 50.7145 20.5123 50.8116 20.359 50.9757C20.2057 51.1399 20.1233 51.3579 20.1297 51.5824C20.1407 51.8059 20.2385 52.0163 20.4022 52.1688C20.566 52.3213 20.7829 52.4037 21.0066 52.3987ZM23.1631 61.3512C23.3861 61.3423 23.5966 61.2458 23.749 61.0826C23.9013 60.9195 23.9831 60.7028 23.9767 60.4797C23.9665 60.2576 23.8699 60.0482 23.7076 59.8963C23.5453 59.7443 23.3301 59.6617 23.1078 59.6661C22.8847 59.675 22.6742 59.7715 22.5219 59.9346C22.3696 60.0978 22.2877 60.3145 22.2942 60.5376C22.3024 60.7611 22.3981 60.9724 22.5606 61.1261C22.7231 61.2797 22.9394 61.3634 23.1631 61.3591V61.3512ZM24.4796 57.8466C24.7026 57.8377 24.9132 57.7411 25.0655 57.578C25.2178 57.4148 25.2997 57.1982 25.2933 56.975C25.283 56.7525 25.1861 56.5427 25.0232 56.3907C24.8603 56.2386 24.6444 56.1563 24.4217 56.1614C24.1986 56.1703 23.9881 56.2669 23.8358 56.43C23.6835 56.5932 23.6017 56.8098 23.6081 57.033C23.617 57.2558 23.7125 57.4663 23.8743 57.6197C24.0361 57.7732 24.2514 57.8574 24.4743 57.8545L24.4796 57.8466ZM25.9594 46.7612C26.1827 46.7523 26.3935 46.6558 26.5462 46.4928C26.699 46.3297 26.7814 46.113 26.7757 45.8896C26.7648 45.6666 26.6674 45.4566 26.5042 45.3042C26.3409 45.1518 26.1247 45.069 25.9015 45.0734C25.6782 45.083 25.4677 45.1801 25.3154 45.3437C25.1632 45.5073 25.0814 45.7242 25.0879 45.9476C25.0968 46.1704 25.1923 46.3809 25.3541 46.5343C25.5159 46.6878 25.7312 46.772 25.9541 46.7691L25.9594 46.7612ZM27.8026 53.1333C28.0261 53.1237 28.2369 53.0267 28.3896 52.8632C28.5422 52.6997 28.6246 52.4827 28.6189 52.2591C28.6079 52.0361 28.5105 51.8261 28.3473 51.6737C28.1841 51.5213 27.9679 51.4385 27.7446 51.4429C27.5209 51.4518 27.3097 51.5486 27.1569 51.7122C27.0041 51.8759 26.922 52.0933 26.9284 52.3171C26.9366 52.5415 27.0325 52.7537 27.1954 52.9083C27.3584 53.0629 27.5754 53.1474 27.7999 53.1439L27.8026 53.1333ZM28.8058 60.8193C29.0293 60.8097 29.2401 60.7128 29.3928 60.5493C29.5455 60.3858 29.6278 60.1688 29.622 59.9452C29.6111 59.7221 29.5137 59.5121 29.3505 59.3597C29.1873 59.2073 28.9711 59.1245 28.7479 59.1289C28.5246 59.1385 28.314 59.2356 28.1618 59.3992C28.0095 59.5627 27.9278 59.7797 27.9342 60.0031C27.9425 60.2268 28.0381 60.4384 28.2005 60.5925C28.3629 60.7465 28.5793 60.8308 28.8032 60.8272L28.8058 60.8193ZM32.9029 50.4081C33.1261 50.3992 33.3369 50.3027 33.4897 50.1396C33.6424 49.9765 33.7249 49.7599 33.7192 49.5365C33.7082 49.3135 33.6108 49.1035 33.4476 48.9511C33.2844 48.7987 33.0682 48.7158 32.8449 48.7202C32.6217 48.7298 32.4112 48.8269 32.2589 48.9905C32.1066 49.1541 32.0249 49.371 32.0313 49.5944C32.0396 49.8179 32.1352 50.0292 32.2978 50.1829C32.4603 50.3365 32.6766 50.4202 32.9002 50.4159L32.9029 50.4081ZM32.9213 61.1037C33.1458 61.0948 33.3576 60.9978 33.5109 60.8336C33.6642 60.6694 33.7466 60.4514 33.7402 60.2269C33.7293 60.0031 33.6316 59.7925 33.4679 59.6396C33.3042 59.4867 33.0874 59.4036 32.8634 59.408C32.6392 59.4176 32.4277 59.5149 32.2746 59.6789C32.1214 59.8429 32.0387 60.0605 32.0445 60.2849C32.0534 60.5095 32.1498 60.7218 32.3132 60.8763C32.4765 61.0308 32.6939 61.1152 32.9187 61.1116L32.9213 61.1037ZM33.1109 56.0876C33.3344 56.0781 33.5452 55.9811 33.6979 55.8176C33.8506 55.6541 33.9329 55.4371 33.9271 55.2135C33.9162 54.9905 33.8188 54.7805 33.6556 54.6281C33.4924 54.4757 33.2762 54.3928 33.053 54.3972C32.8295 54.4068 32.6187 54.5038 32.466 54.6673C32.3133 54.8309 32.231 55.0478 32.2367 55.2714C32.2456 55.4954 32.3418 55.707 32.5046 55.861C32.6675 56.015 32.8841 56.0992 33.1083 56.0956L33.1109 56.0876ZM36.9552 62.3255C37.1778 62.3159 37.3876 62.2191 37.5394 62.056C37.6912 61.8929 37.7726 61.6766 37.7662 61.4539C37.756 61.2321 37.6593 61.023 37.4969 60.8715C37.3346 60.7199 37.1193 60.6379 36.8973 60.6429C36.6747 60.6519 36.4646 60.748 36.3123 60.9106C36.1601 61.0732 36.078 61.2892 36.0837 61.5119C36.0926 61.7351 36.1885 61.946 36.3508 62.0996C36.5132 62.2531 36.7291 62.337 36.9526 62.3334L36.9552 62.3255ZM40.2308 59.4291C40.4543 59.4195 40.6651 59.3225 40.8177 59.159C40.9704 58.9955 41.0528 58.7785 41.047 58.5549C41.0361 58.3319 40.9387 58.1219 40.7755 57.9695C40.6123 57.8171 40.3961 57.7342 40.1728 57.7386C39.9491 57.7475 39.7379 57.8444 39.5851 58.008C39.4323 58.1717 39.3502 58.389 39.3566 58.6128C39.3681 58.8349 39.4655 59.0439 39.6281 59.1956C39.7906 59.3474 40.0058 59.4302 40.2282 59.4265L40.2308 59.4291ZM44.8624 59.8977C45.0847 59.8888 45.2946 59.7926 45.4464 59.6299C45.5982 59.4673 45.6798 59.2513 45.6734 59.0289C45.6631 58.807 45.5665 58.5979 45.4041 58.4464C45.2417 58.2948 45.0265 58.2128 44.8045 58.2179C44.5821 58.2274 44.3724 58.3238 44.2203 58.4862C44.0682 58.6487 43.9858 58.8643 43.9908 59.0868C44.0024 59.308 44.0996 59.516 44.2617 59.6668C44.4239 59.8177 44.6383 59.8995 44.8598 59.8951L44.8624 59.8977ZM63.5574 51.7588C61.9775 52.899 61.7142 54.334 63.5995 55.3293C57.5434 57.1725 51.5057 59.092 45.4601 60.9721C41.3577 62.3518 37.1132 63.2945 32.7738 63.3603C28.5319 63.4393 23.8819 63.3603 20.2246 60.9457C17.5467 58.6549 15.1927 55.2583 15.7483 51.5772C16.2881 45.995 20.4879 41.4029 25.2485 38.8092C29.0849 36.6633 33.6981 36.7028 37.9373 37.3005C47.0347 38.9488 54.1809 45.6237 63.0149 47.9961C60.9058 49.5207 61.048 50.9241 63.5442 51.7562L63.5574 51.7588Z" fill="#E2543D"/>
<path d="M27.0153 41.2952C25.4564 39.2782 34.4276 35.8736 33.6667 38.8148C36.1603 40.8239 31.7629 41.4479 30.3673 41.6664C29.2903 41.7849 27.7921 42.3195 27.0153 41.2952Z" fill="white"/>
</svg>
