<svg width="101" height="101" viewBox="0 0 101 101" fill="none" xmlns="http://www.w3.org/2000/svg">
<path d="M50.4036 100.153C78.0178 100.153 100.404 77.7671 100.404 50.1528C100.404 22.5386 78.0178 0.152832 50.4036 0.152832C22.7893 0.152832 0.403564 22.5386 0.403564 50.1528C0.403564 77.7671 22.7893 100.153 50.4036 100.153Z" fill="#98D7C3"/>
<path d="M43.3104 29.4617C41.6331 29.4933 39.7399 29.1984 39.0975 27.3947C38.089 24.6405 38.2733 21.5651 38.1838 18.666C38.1924 18.5053 38.2461 18.3502 38.3388 18.2186C38.4315 18.0871 38.5594 17.9843 38.7079 17.9222C38.8564 17.86 39.0194 17.841 39.1782 17.8673C39.337 17.8936 39.4852 17.9642 39.6057 18.0709C40.1718 18.8029 39.8005 19.8878 39.9374 20.7567C40.2007 22.513 39.6741 27.0762 41.7464 27.6186C44.6428 27.9266 47.5392 27.7581 50.4356 27.5369C52.3262 27.4421 54.2273 27.3711 56.0784 26.9629C57.1316 26.9129 57.3686 25.9781 57.3317 25.0776C57.3687 22.616 57.2632 20.1543 57.0158 17.7049C57.0136 17.5506 57.0536 17.3987 57.1316 17.2656C57.2096 17.1325 57.3225 17.0233 57.4581 16.9498C57.5938 16.8763 57.7469 16.8413 57.901 16.8486C58.0551 16.8559 58.2043 16.9053 58.3323 16.9913C58.8589 17.4258 58.7194 18.2289 58.7984 18.8345C58.9327 20.941 59.1012 23.0291 59.0169 25.1329C59.1249 28.2716 56.9526 28.7008 54.3537 28.9799C50.6805 29.2879 46.9889 29.6434 43.3104 29.4617Z" fill="#161922"/>
<path d="M38.8162 18.8878C37.1784 17.8583 39.6061 16.0283 40.7331 15.7439C44.7064 14.5564 54.4911 13.3741 57.8773 15.8993C60.3524 18.9958 56.537 19.9306 56.9899 17.7425C56.1999 15.0224 44.9197 16.4864 42.5736 16.9946C39.327 17.545 40.2249 19.2222 38.8162 18.8878ZM58.5092 17.724C58.445 17.5981 58.3553 17.4869 58.2459 17.3975L58.5092 17.724ZM58.2169 17.387C58.1366 17.3332 58.0475 17.294 57.9536 17.2711C58.0453 17.3 58.1336 17.3388 58.2169 17.387Z" fill="#161922"/>
<path d="M42.5077 26.2476C42.2659 24.735 42.1016 23.2111 42.0154 21.6818C41.9777 21.2598 41.9689 20.8358 41.989 20.4126C42.1233 19.462 43.6374 19.5569 43.6453 20.5101C43.7085 22.3369 43.8844 24.158 44.1719 25.9632C44.3536 27.0296 42.6842 27.3245 42.5077 26.2476Z" fill="#161922"/>
<path d="M46.4015 19.9747C45.3483 19.7772 42.1201 20.4644 42.7152 18.5633C43.0917 17.8524 43.8869 18.2631 44.5031 18.2289C46.3884 18.3523 48.2799 18.3453 50.1643 18.2079C51.4936 18.0547 52.8125 17.8217 54.1139 17.5101C54.3328 17.4734 54.5572 17.5248 54.7383 17.6531C54.9193 17.7814 55.0423 17.9761 55.0802 18.1947C55.6964 19.9273 47.5364 20.0563 46.4015 19.9747Z" fill="#161922"/>
<path d="M47.2736 26.4846C47.0603 25.2207 46.9787 23.9384 46.8102 22.6692C46.4126 21.4685 48.2557 20.984 48.4374 22.2479C48.6533 23.5645 48.7007 24.8942 48.9272 26.1976C49.1194 27.2745 47.4553 27.5642 47.2736 26.4846Z" fill="#161922"/>
<path d="M50.9094 24.8547C50.8357 23.8014 50.2932 22.2216 50.8067 21.3737C50.92 21.2555 51.0652 21.1727 51.2247 21.1354C51.3841 21.0982 51.551 21.1081 51.7049 21.1639C51.8589 21.2196 51.9933 21.3189 52.0919 21.4497C52.1905 21.5804 52.2489 21.737 52.2602 21.9004C52.312 22.7916 52.4122 23.6794 52.5604 24.5598C52.7553 25.6341 51.0806 25.9316 50.9094 24.8547Z" fill="#161922"/>
<path d="M53.8774 25.552C53.3324 24.8121 53.6141 23.7219 53.5009 22.8451C53.5009 22.1526 53.4377 21.4022 53.5009 20.7202C53.6431 19.7697 55.1361 19.8513 55.165 20.8203C55.1887 22.1842 55.1835 23.5482 55.2941 24.9069C55.3467 25.6257 54.383 26.0549 53.8774 25.552Z" fill="#161922"/>
<path d="M47.4996 85.8818C44.1239 85.7317 40.6535 86.0581 37.3463 85.3182C33.4651 84.0017 29.9341 80.5128 29.3496 76.3499C28.5175 71.0837 32.8937 66.3441 31.3665 61.0779C29.8999 55.2429 24.9681 47.8939 30.6767 42.8674C31.8799 41.66 33.252 40.6338 34.7501 39.8208C36.5933 38.8229 38.6655 38.0356 39.9821 36.332C41.5409 34.5283 41.0116 32.0058 41.0906 29.8203C41.1114 29.6163 41.2052 29.4267 41.3547 29.2864C41.5042 29.1461 41.6993 29.0646 41.9042 29.0567C42.8416 29.0567 42.81 30.0494 42.8311 30.7393C43.9054 41.0084 34.7949 39.21 30.4871 45.8533C27.854 50.7878 32.8384 56.9281 33.3045 62.0179C34.1181 66.3889 31.3191 70.2753 30.9953 74.5199C30.732 78.4063 33.6547 81.7109 36.9724 83.3355C38.318 83.9517 39.9136 83.9728 41.3355 84.028C44.7822 84.107 48.2289 84.1913 51.6757 84.136C55.8333 83.9095 60.0516 84.0096 64.154 83.2249C68.4959 81.8952 71.5424 79.141 71 74.2961C70.6709 71.4418 69.3306 68.8508 68.4723 66.1335C67.0109 62.1838 67.5691 57.8366 68.6302 53.8658C69.5676 50.5903 69.8336 45.9217 67.0899 43.4519C63.7511 40.8425 57.8398 41.2111 56.4864 36.4242C56.2231 35.0418 54.5747 28.3774 55.6596 27.8481C57.0788 27.2162 56.9761 28.9541 57.063 29.8625C57.4948 32.2533 57.5291 34.8838 58.6613 37.064C61.5419 40.5081 67.4006 39.6155 69.7651 43.939C72.7853 50.1163 69.4386 54.5873 69.3438 60.7093C69.1358 65.0065 71.7136 68.7403 72.5457 72.8453C73.6779 78.5038 71.0896 82.3587 65.8971 84.502C62.5188 85.6764 58.8535 85.4999 55.3278 85.7343C52.7316 85.8738 50.1143 85.9423 47.4996 85.8818Z" fill="#161922"/>
<path d="M41.3746 76.318C35.092 75.9809 34.7629 76.5813 35.5554 70.038C36.2453 63.8212 36.5165 57.5097 35.6002 51.364C31.8138 47.2801 56.8546 47.891 58.8216 48.1385C60.1723 48.2333 61.5205 48.336 62.8739 48.3044C63.6481 48.3281 64.5828 48.1464 65.2068 48.7151C66.4286 50.4451 65.7703 52.8228 66.0126 54.8213C66.0547 59.7479 65.8625 64.677 66.06 69.6062C66.0968 74.9251 66.605 74.9646 61.0755 75.3385C54.5138 75.9019 47.931 76.3443 41.343 76.3153L41.3746 76.318ZM43.7444 74.5906C50.5905 74.3905 57.4945 74.064 64.2563 73.2741C64.4933 69.6773 64.1483 66.0778 64.2168 62.4783C64.1799 58.3549 64.5512 54.1604 64.0061 50.0765C60.4672 50.1318 56.9441 49.692 53.4026 49.7025C47.981 49.7525 42.4436 49.7552 37.13 50.9453C38.7731 58.5524 37.4697 66.5017 36.9483 74.1983C39.1496 74.6986 41.4957 74.5696 43.7365 74.5906H43.7444Z" fill="#161922"/>
<path d="M57.0576 69.1403C55.6805 67.0522 56.6179 63.7871 56.531 61.42C56.6626 59.2029 55.849 55.3139 53.5951 58.8291C52.5181 60.9197 52.0889 63.2658 51.6887 65.5618C51.3385 66.5124 51.8941 68.7216 50.4564 68.7216C50.23 68.6963 50.0223 68.5837 49.8777 68.4076C49.7332 68.2315 49.663 68.006 49.6823 67.779C49.7481 66.7415 49.8613 65.496 49.8771 64.5139C49.9324 62.4232 50.0088 60.301 49.5743 58.2445C49.3347 57.3387 48.5922 55.2664 47.7312 56.9701C46.5473 59.1041 45.768 61.4384 45.4325 63.8556C45.0612 64.9431 45.1507 69.5326 43.4365 68.8901C42.3464 68.3451 43.1732 66.8679 43.11 65.9279C43.2575 62.9156 43.6683 59.8954 42.7914 57.0043C41.8488 58.2445 40.5507 56.6199 41.6513 55.6482C43.7578 53.8051 44.969 57.2676 44.9137 58.9712C46.7727 53.052 50.6433 52.9704 51.4965 59.3056C52.4023 56.4223 55.8622 53.7393 57.6843 57.5125C58.9192 60.5906 57.8291 63.9768 58.1398 67.1812C58.1635 68.6084 59.1588 67.7236 59.4195 68.8085C59.5275 70.1724 57.6632 69.9723 57.0576 69.1403Z" fill="#161922"/>
<path d="M61.0868 75.3389C66.6163 74.965 66.1081 74.9255 66.0713 69.6067C65.8738 64.6775 66.0712 59.7483 66.0238 54.8218C65.7816 52.8233 66.4399 50.4455 65.2181 48.7156C64.5941 48.1468 63.6593 48.3286 62.8852 48.3049C61.5318 48.3391 60.1836 48.2337 58.8328 48.139C56.8659 47.8914 31.8251 47.2806 35.6115 51.3645C36.5278 57.5102 36.2566 63.8217 35.5641 70.0385C34.7741 76.5633 35.1033 75.984 41.3569 76.3158C47.9397 76.3421 54.5172 75.8998 61.0868 75.3389ZM71.0241 74.2857C71.5507 79.1306 68.5069 81.8848 64.178 83.2145C60.0757 84.0045 55.8574 83.8991 51.6997 84.1256C48.253 84.1809 44.8063 84.0993 41.3569 84.0176C39.9377 83.9623 38.342 83.9413 36.9965 83.3252C33.6788 81.7005 30.7587 78.3959 31.0194 74.5095C31.3432 70.2649 34.1422 66.3784 33.3286 62.0075C32.8625 56.9177 27.8649 50.7773 30.5112 45.8429C34.8216 39.1996 43.94 40.9954 42.8578 30.7289C42.8578 30.3208 42.8578 29.8047 42.6603 29.4518C42.8868 29.4518 43.1132 29.4518 43.3344 29.4518C47.0207 29.623 50.7071 29.278 54.3644 28.9779C54.6962 28.941 55.0227 28.9041 55.3387 28.8594C55.2387 30.9079 56.3182 35.3184 56.5262 36.4111C57.877 41.1981 63.7883 40.8321 67.1271 43.4388C69.8708 45.9113 69.6049 50.5772 68.6675 53.8528C67.6142 57.8235 67.0481 62.1787 68.5121 66.1204C69.3442 68.8431 70.6844 71.434 71.0136 74.2883L71.0241 74.2857Z" fill="#E2543D"/>
<path d="M57.0577 69.1408C57.6501 69.9702 59.5275 70.1703 59.4275 68.7984C59.1642 67.7136 58.1715 68.5983 58.1452 67.1712C57.8371 63.9667 58.9351 60.5884 57.6923 57.5051C55.8702 53.7292 52.4103 56.4123 51.5045 59.2956C50.6566 52.9603 46.786 53.042 44.9217 58.9612C44.977 57.2576 43.7763 53.7871 41.6593 55.6382C40.5587 56.6098 41.8568 58.2345 42.8021 56.9943C43.6763 59.8907 43.2655 62.9082 43.1181 65.9178C43.1839 66.8579 42.3571 68.335 43.4446 68.8801C45.1587 69.5226 45.0692 64.9304 45.4404 63.8455C45.776 61.4284 46.5553 59.094 47.7392 56.96C48.5923 55.2564 49.3348 57.3287 49.5823 58.2344C50.0168 60.2935 49.9404 62.4131 49.8851 64.5038C49.8693 65.486 49.7561 66.7315 49.6903 67.7689C49.671 67.9959 49.7412 68.2215 49.8858 68.3976C50.0304 68.5736 50.238 68.6863 50.4644 68.7116C51.9021 68.7327 51.3465 66.5129 51.6967 65.5519C52.0969 63.2532 52.5261 60.907 53.6031 58.819C55.857 55.3038 56.6706 59.1928 56.539 61.4099C56.6101 63.7876 55.6806 67.0553 57.0577 69.1408ZM64.2092 62.4605C64.1408 66.0626 64.4857 69.6621 64.2487 73.2563C57.4843 74.0462 50.5566 74.3859 43.7368 74.5728C41.4961 74.5518 39.15 74.6835 36.9408 74.1674C37.4674 66.4682 38.7655 58.5188 37.1251 50.9118C42.4334 49.7216 47.9709 49.719 53.3951 49.6689C56.9366 49.6689 60.4597 50.0981 63.9986 50.0428C64.541 54.1452 64.1724 58.345 64.2092 62.4632V62.4605Z" fill="white"/>
<path d="M42.507 26.2472C42.6834 27.3241 44.3502 27.0371 44.1632 25.9628C43.8743 24.1569 43.6984 22.3348 43.6366 20.507C43.6366 19.5565 42.112 19.4537 41.9777 20.4122C41.9576 20.8353 41.9664 21.2594 42.0041 21.6814C42.0938 23.2109 42.2616 24.7348 42.507 26.2472ZM47.2729 26.4894C47.4546 27.5637 49.1161 27.2793 48.9265 26.205C48.6869 24.8885 48.6632 23.5719 48.4367 22.2554C48.255 20.9941 46.4119 21.4655 46.8095 22.6793C46.978 23.9432 47.0596 25.2255 47.2729 26.4841V26.4894ZM50.9092 24.8543C51.0909 25.9312 52.7524 25.6442 52.5602 24.5699C52.412 23.6895 52.3118 22.8017 52.26 21.9104C52.2499 21.7465 52.192 21.5891 52.0936 21.4576C51.9952 21.3261 51.8605 21.2262 51.7061 21.1702C51.5516 21.1143 51.3842 21.1047 51.2244 21.1427C51.0646 21.1806 50.9193 21.2644 50.8065 21.3838C50.2904 22.2316 50.8355 23.8036 50.9092 24.8543ZM46.4013 19.9751C47.5362 20.0567 55.6962 19.9277 55.0906 18.1951C55.0526 17.9765 54.9297 17.7818 54.7486 17.6535C54.5675 17.5253 54.3431 17.4738 54.1243 17.5105C52.8229 17.8218 51.5039 18.0549 50.1746 18.2083C48.2903 18.3457 46.3987 18.3527 44.5134 18.2293C43.8973 18.2636 43.0994 17.8528 42.7255 18.5637C42.1278 20.4648 45.3402 19.7776 46.4013 19.9751ZM53.8767 25.552C53.9992 25.6645 54.1521 25.7383 54.3163 25.7643C54.4805 25.7903 54.6488 25.7673 54.8 25.6982C54.9512 25.629 55.0786 25.5169 55.1664 25.3757C55.2542 25.2345 55.2983 25.0705 55.2934 24.9043C55.1854 23.5456 55.188 22.1816 55.1643 20.8177C55.1354 19.8487 53.6424 19.7645 53.5002 20.7177C53.4475 21.4023 53.5002 22.15 53.5002 22.8425C53.6187 23.722 53.3317 24.8121 53.8767 25.552ZM57.076 18.5848C57.2694 20.7435 57.3486 22.911 57.313 25.078C57.3498 25.9786 57.1102 26.9212 56.0596 26.9634C54.2164 27.3715 52.3074 27.4426 50.4168 27.5374C47.5204 27.7586 44.624 27.9271 41.7276 27.619C39.6474 27.0766 40.1872 22.5134 39.9186 20.7571C39.808 20.0462 40.0345 19.1931 39.8107 18.5032C40.1688 18.0398 40.6375 17.3157 42.5597 16.9865C44.9057 16.4783 56.1781 15.0143 56.9759 17.7343C56.9008 18.0203 56.9365 18.3241 57.076 18.5848Z" fill="#08B898"/>
<path d="M33.1254 48.1366C30.8293 47.5547 32.9489 45.1955 34.0154 44.4082C34.8369 43.8499 35.719 42.6045 36.8196 42.9731C37.9387 42.2806 39.5423 43.1601 38.6944 44.4766C37.4384 45.7853 34.9765 48.1182 33.1254 48.1366Z" fill="white"/>
</svg>
