<svg width="101" height="101" viewBox="0 0 101 101" fill="none" xmlns="http://www.w3.org/2000/svg">
<path d="M50.9886 100.153C78.6029 100.153 100.989 77.7671 100.989 50.1528C100.989 22.5386 78.6029 0.152832 50.9886 0.152832C23.3744 0.152832 0.988647 22.5386 0.988647 50.1528C0.988647 77.7671 23.3744 100.153 50.9886 100.153Z" fill="#98D7C3"/>
<path d="M72.9068 64.3142C72.8589 64.2075 72.8326 64.0923 72.8296 63.9753C72.8266 63.8583 72.8469 63.742 72.8892 63.6329C72.9316 63.5239 72.9953 63.4244 73.0765 63.3402C73.1578 63.256 73.2549 63.1887 73.3624 63.1424C74.6421 62.421 75.9217 61.7127 77.2357 61.0623C81.6382 58.9348 86.4963 56.5623 88.9451 52.1097C89.5375 46.4143 81.08 36.3111 75.0212 37.5039C71.2427 37.1721 65.7896 48.6762 64.1965 51.9044C63.5488 53.1788 62.959 54.5243 62.3244 55.7882C61.7293 56.4754 60.5497 55.7197 60.9368 54.8903C63.1828 49.7926 65.729 44.7924 68.9151 40.2108C71.348 36.3427 74.4156 34.8234 78.9208 36.14C83.8711 38.2307 87.8418 42.6464 89.8746 47.5808C90.7988 49.8585 91.357 52.5837 89.4849 54.5427C86.5279 58.3634 82.2412 60.6278 77.9808 62.6422C77.0513 63.103 76.1377 63.5927 75.2319 64.0904C74.5341 64.4722 73.4572 65.3438 72.9068 64.3142Z" fill="#161922"/>
<path d="M71.7854 66.9001C70.561 66.4182 71.185 65.0569 72.3673 65.1807C71.7774 63.9405 70.5689 63.0479 69.513 62.1974C68.228 61.0889 66.9273 59.7249 65.6555 58.6585C64.2784 57.471 62.5511 56.6416 60.8896 56.0017C59.76 55.8727 59.9706 54.1848 61.0976 54.3191C64.1915 55.1828 66.8035 57.1734 69.039 59.4247C70.661 61.1257 72.9386 62.3212 73.9735 64.504C74.608 65.9101 73.1941 67.2608 71.7854 66.9001Z" fill="#161922"/>
<path d="M59.873 56.9199C58.2061 56.5592 59.5754 53.8576 60.9263 54.2868C61.7162 54.5685 61.5793 55.7008 60.842 55.9588C60.8051 56.496 60.4417 56.9831 59.873 56.9199Z" fill="#161922"/>
<path d="M65.6497 72.469C59.9148 71.4157 53.1135 65.7677 53.9377 59.4246C54.4143 57.3181 56.3733 55.4512 58.5877 55.4406C59.4409 55.3695 60.8864 55.5513 60.6758 56.7256C60.6871 56.6693 60.6933 56.6119 60.6942 56.5544C60.6878 56.7673 60.6013 56.97 60.4519 57.1218C60.3025 57.2736 60.1013 57.3635 59.8885 57.3734C59.6739 57.3776 59.4654 57.3015 59.3039 57.1601C55.4965 56.8204 54.7566 61.1098 56.4075 63.7824C58.2718 67.2265 61.8212 69.8385 65.6076 70.7258C67.4823 71.1497 69.8995 70.4915 70.4367 68.435C70.8079 67.6451 70.2919 66.1653 71.4899 66.0652C72.6537 66.0863 72.3957 67.5213 72.2535 68.3007C71.8112 71.3683 68.5303 73.0456 65.6497 72.469Z" fill="#161922"/>
<path d="M57.2817 63.8929C56.6261 63.1477 56.6603 61.4756 57.9927 61.7732C59.2092 61.4256 59.4856 63.3162 59.0064 64.0772C58.5667 64.7038 57.6451 64.4827 57.2817 63.8929Z" fill="#161922"/>
<path d="M62.2451 66.5255C61.3551 66.4044 60.7864 65.1536 61.1208 64.3637C61.1953 64.2288 61.3051 64.1168 61.4385 64.0397C61.5719 63.9626 61.7238 63.9232 61.8778 63.9259C62.0319 63.9286 62.1823 63.9733 62.3129 64.0551C62.4435 64.1368 62.5493 64.2526 62.619 64.39C63.6486 64.7323 63.4353 66.665 62.2451 66.5255Z" fill="#161922"/>
<path d="M65.228 68.9192C65.1041 68.7206 65.022 68.4989 64.9867 68.2675C64.9514 68.0362 64.9636 67.8001 65.0226 67.5736C65.0793 67.4264 65.1756 67.2977 65.3009 67.2018C65.4262 67.1058 65.5756 67.0463 65.7325 67.03C65.8895 67.0136 66.0479 67.0411 66.1903 67.1091C66.3326 67.1772 66.4534 67.2832 66.5393 67.4156C67.7242 68.4294 66.2812 70.3358 65.228 68.9192Z" fill="#161922"/>
<path d="M59.5493 68.332C58.6514 67.3393 59.7968 65.8726 60.7737 66.9627C62.5958 67.8 60.8501 70.1831 59.5493 68.332Z" fill="#161922"/>
<path d="M67.6774 55.3581C63.6672 54.2732 72.4829 42.3268 74.0864 40.6469C74.8158 39.8569 76.0612 40.9813 75.3213 41.7791C73.9161 43.3922 72.6536 45.1242 71.5481 46.9558C70.279 49.0912 68.8334 51.2346 68.2857 53.686C69.2494 53.5017 70.0104 52.8302 70.795 52.2825C73.178 50.4657 75.4214 48.4724 77.7227 46.5529C78.5469 45.8525 79.6449 47.1428 78.8023 47.8379C78.1546 48.3803 77.52 48.9385 76.8749 49.4889C74.5235 51.1872 70.5844 55.6688 67.6774 55.3581Z" fill="#161922"/>
<path d="M73.5252 59.5273C70.6841 58.1844 76.3479 52.863 77.6434 51.7307C79.0125 50.5578 80.4892 49.5166 82.0538 48.621C82.9939 48.0365 83.8786 49.4531 82.9465 50.0455C79.6129 52.0019 76.4664 54.5824 74.5363 57.9791C78.3148 57.326 81.3403 54.5823 84.5737 52.697C84.7632 52.5802 84.991 52.5424 85.2081 52.5916C85.4252 52.6409 85.6144 52.7732 85.7349 52.9604C85.8518 53.1499 85.8896 53.3776 85.8404 53.5947C85.7911 53.8118 85.6588 54.0009 85.4716 54.1215C84.4473 54.7956 83.4152 55.4381 82.3909 56.1201C79.6946 57.642 76.756 60.096 73.5252 59.5273Z" fill="#161922"/>
<path d="M67.5826 63.9183C67.3388 63.8846 67.1178 63.757 66.9665 63.5629C65.5061 61.9323 63.8058 60.5339 61.9241 59.4157C60.9499 58.6468 62.1874 57.3092 63.0722 58.1729C65.1049 59.3025 66.7585 60.8639 68.3067 62.5386C68.8044 63.0758 68.2962 64.021 67.5826 63.9183Z" fill="#161922"/>
<path d="M25.2453 52.6128C23.1099 50.8091 21.1851 48.779 19.1523 46.8648C16.0295 44.021 12.6407 40.6111 12.3063 36.1691C12.0166 29.2467 23.5233 24.4702 29.353 24.7045C35.2116 25.1232 35.7804 31.9667 37.2523 36.3929C37.979 38.7785 38.5688 41.1983 39.2639 43.597C39.3877 44.0684 39.5957 44.6792 39.3008 45.1084C38.9453 45.7693 37.7631 45.4745 37.7789 44.7662C37.7006 44.2592 37.5764 43.7603 37.4076 43.2758C36.4413 39.5895 35.3512 35.919 34.2847 32.2484C32.9682 27.106 30.6432 25.4287 25.3954 26.8927C21.6854 27.8827 17.9253 29.5916 15.3554 32.488C12.3668 35.8584 15.1684 40.4426 17.7515 43.0994C20.3609 45.5982 22.9256 48.147 25.5903 50.5827C26.1485 51.0408 27.0437 51.7439 26.3802 52.4917C26.2378 52.6459 26.0443 52.7432 25.8355 52.7655C25.6268 52.7878 25.4171 52.7335 25.2453 52.6128Z" fill="#161922"/>
<path d="M26.8827 47.6458C23.3254 46.1291 20.8265 42.8877 18.333 40.0492C17.7037 39.1698 16.7531 38.4457 16.3397 37.4372C16.1448 36.4814 17.5904 36.0496 17.9433 36.9501C20.7238 40.1862 23.3464 43.8805 27.1592 45.9501C26.0586 42.448 23.3543 39.4936 21.7165 36.2813L21.3321 35.5835C20.9213 34.267 22.6487 33.9194 23.0542 35.2412C24.7025 38.2666 26.8617 40.9945 28.3204 44.1174C29.1973 45.4892 29.1367 48.2567 26.8827 47.6458Z" fill="#161922"/>
<path d="M33.449 44.671C30.6106 42.9015 28.4251 37.688 26.9559 34.6652C26.6048 33.9156 26.2423 33.1722 25.8684 32.435C25.5472 31.9821 25.4208 31.3159 25.9658 30.9762C26.1543 30.859 26.3815 30.8209 26.5979 30.8702C26.8144 30.9195 27.0026 31.0522 27.1218 31.2395C29.1808 35.1444 30.6553 39.4022 33.6228 42.7225C33.6965 38.5254 31.153 33.5488 29.3362 29.794C28.878 28.8013 30.3762 28.0851 30.8634 29.0778C32.064 31.3264 38.5651 44.7632 33.449 44.671Z" fill="#161922"/>
<path d="M26.5849 55.6195C24.7733 55.3561 24.3415 53.1996 25.795 52.1463C29.788 48.8952 34.2327 46.2423 38.9894 44.2708C40.4113 43.5519 42.6231 44.2445 42.1018 46.1429C41.8016 47.2488 40.1717 46.7959 40.4745 45.6952C37.4043 46.2719 34.737 48.3284 32.0302 49.8135C30.1343 51.0036 28.1016 52.1437 26.5796 53.7999C26.5898 53.818 26.6032 53.8341 26.6191 53.8474C28.1885 53.5024 28.0489 55.73 26.5849 55.6195ZM26.0872 54.611C26.0953 54.4782 26.1321 54.3489 26.1952 54.2318C26.1368 54.3298 26.1008 54.4395 26.0899 54.553L26.0872 54.611Z" fill="#161922"/>
<path d="M32.7539 62.3499C29.0676 62.1735 26.1396 58.5688 26.782 54.9431C26.8426 53.8898 28.4172 53.9109 28.4514 54.9641V54.9404C28.4514 54.9273 28.4514 54.9141 28.4514 54.8983C27.9985 57.5025 29.7127 60.1829 32.4011 60.5805C34.0152 60.7885 35.6346 60.2119 37.1407 59.7116C41.954 57.8816 47.2334 52.5627 41.7671 48.1681C40.9113 47.5994 41.7671 46.2144 42.6518 46.7278C43.8466 47.4879 44.7688 48.6083 45.2849 49.927C47.9917 56.9495 38.7126 62.2446 32.7539 62.3499Z" fill="#161922"/>
<path d="M29.3161 53.6524C28.4866 52.407 31.8465 51.301 32.6548 50.7112C33.7555 50.1003 34.8745 49.5211 36.0278 49.0129C36.2296 48.9206 36.4596 48.9111 36.6683 48.9864C36.877 49.0617 37.0479 49.2158 37.1443 49.4157C37.6235 50.7692 35.3617 50.9429 34.5823 51.5696C33.4922 52.1673 32.3757 52.715 31.3198 53.3759C30.7353 53.742 29.8769 54.4819 29.3161 53.6524Z" fill="#161922"/>
<path d="M38.0868 59.5641C36.923 58.5425 38.7161 56.2516 40.0327 56.8941C41.0859 56.3675 42.3656 57.2601 41.4177 58.3081C41.1096 58.5714 40.7068 58.6715 40.3645 58.8689C39.6878 59.2481 38.8978 60.0828 38.0868 59.5641Z" fill="#161922"/>
<path d="M40.4452 47.2015C40.3557 46.6591 40.2003 46.0508 40.3215 45.5084C40.378 45.3631 40.4739 45.2365 40.5984 45.1426C40.7228 45.0487 40.871 44.9913 41.0262 44.9768C41.1815 44.9623 41.3377 44.9913 41.4774 45.0605C41.6171 45.1298 41.7347 45.2365 41.8172 45.3688C42.012 45.7006 41.9567 46.1246 42.0199 46.4932C42.1411 46.9987 42.0621 47.5728 41.4933 47.7492C41.2817 47.8123 41.0538 47.7905 40.858 47.6882C40.6623 47.5859 40.5142 47.4113 40.4452 47.2015Z" fill="#161922"/>
<path d="M38.6348 60.2354C36.9601 59.5166 38.8322 56.9124 40.0461 56.6386C41.9445 56.0646 42.4158 58.3474 40.7149 58.2764C40.2357 58.2026 39.8433 58.803 39.6959 59.2137C39.7327 59.8036 39.272 60.396 38.6348 60.2354Z" fill="#161922"/>
<path d="M41.9356 67.2923C41.3115 66.3707 42.2543 64.8935 43.1996 64.5907C43.3402 64.5647 43.4851 64.5749 43.6207 64.6202C43.7564 64.6655 43.8783 64.7444 43.9751 64.8496C44.0719 64.9549 44.1405 65.0829 44.1743 65.2218C44.2081 65.3608 44.2062 65.506 44.1686 65.6439C44.8217 66.1706 44.3556 67.3186 43.6025 67.5214C43.06 67.6609 42.3438 67.7741 41.9356 67.2923Z" fill="#161922"/>
<path d="M46.1837 74.562C44.4774 74.5304 44.9119 72.2686 46.2206 72.0316C46.4423 72.0252 46.6576 72.1065 46.8198 72.2578C46.982 72.4092 47.078 72.6183 47.0869 72.84C47.0852 72.7928 47.0782 72.746 47.0658 72.7004C47.0885 72.8186 47.0871 72.9401 47.0618 73.0578C47.0365 73.1754 46.9877 73.2867 46.9184 73.385C46.9733 73.5102 46.9969 73.6469 46.9871 73.7833C46.9772 73.9197 46.9342 74.0515 46.8618 74.1675C46.7894 74.2835 46.6898 74.3801 46.5717 74.4488C46.4535 74.5176 46.3203 74.5564 46.1837 74.562Z" fill="#161922"/>
<path d="M45.4016 82.3244C45.2907 82.1877 45.2242 82.0203 45.211 81.8448C45.1979 81.6693 45.2386 81.4939 45.3279 81.3422C44.7697 80.2442 46.4206 79.5307 46.9262 80.626C47.7056 81.5555 46.3812 83.3197 45.4016 82.3244Z" fill="#161922"/>
<path d="M48.9979 81.7977C48.6214 81.3474 48.8479 80.6892 48.9505 80.181C48.9505 80.2152 48.9505 80.2521 48.9321 80.2889V80.331C48.9456 80.1228 49.0356 79.9269 49.1849 79.7811C49.3341 79.6352 49.532 79.5498 49.7405 79.5411C49.9126 79.5387 50.0816 79.5874 50.226 79.6812C50.3704 79.7749 50.4837 79.9095 50.5515 80.0677C51.6363 80.8524 49.9116 82.8641 48.9979 81.7977Z" fill="#161922"/>
<path d="M44.0245 90.7055C42.779 89.4626 44.9909 88.1065 46.1574 88.4857C46.0727 88.4557 45.9838 88.4397 45.894 88.4383C46.1018 88.4517 46.2974 88.5414 46.4432 88.69C46.5889 88.8387 46.6747 89.036 46.684 89.2441C46.6879 89.429 46.6322 89.6104 46.525 89.7612C46.4178 89.912 46.2649 90.0243 46.0889 90.0814C45.8466 90.8897 44.6696 91.34 44.0245 90.7055Z" fill="#161922"/>
<path d="M57.616 71.55C56.776 70.4546 58.7324 69.404 59.0985 70.7601C59.3223 71.6106 58.1795 72.2452 57.616 71.55Z" fill="#161922"/>
<path d="M53.819 75.1882C53.0028 74.6063 53.7742 73.3609 54.6458 73.4504C56.2256 73.7506 54.9802 75.915 53.819 75.1882Z" fill="#161922"/>
<path d="M55.4069 81.2716C54.2325 80.7923 55.1278 79.0045 56.1968 79.7102C57.2158 80.2499 56.4232 81.6428 55.4069 81.2716Z" fill="#161922"/>
<path d="M59.5458 81.2211C59.5643 81.2527 59.5801 81.2843 59.6196 81.3475C58.9929 80.5207 60.1726 79.4385 60.9362 80.16C61.8736 81.0736 60.1752 82.4349 59.5458 81.2211Z" fill="#161922"/>
<path d="M53.5344 86.1646C52.2178 86.2831 52.3047 84.1213 53.6187 84.3846C54.7378 84.5926 54.751 86.2094 53.5344 86.1646Z" fill="#161922"/>
<path d="M50.6963 91.2486C49.4824 90.2507 51.4862 88.5787 52.1445 90.069C52.371 90.8747 51.4678 91.7832 50.6963 91.2486Z" fill="#161922"/>
<path d="M59.4066 90.7292C58.1085 90.4158 58.7878 88.6437 59.9859 89.0861C61.0155 89.5206 60.4336 90.9477 59.4066 90.7292Z" fill="#161922"/>
<path d="M59.802 77.0267C59.6799 76.9932 59.5663 76.934 59.469 76.8531C59.3717 76.7721 59.2928 76.6712 59.2377 76.5572C59.1826 76.4432 59.1525 76.3188 59.1494 76.1922C59.1464 76.0656 59.1705 75.9399 59.2201 75.8234C59.5413 74.9045 60.9895 75.2705 60.842 76.2263V76.2052C60.8363 76.3308 60.8037 76.4537 60.7463 76.5655C60.689 76.6774 60.6083 76.7755 60.5096 76.8534C60.411 76.9314 60.2967 76.9872 60.1746 77.017C60.0525 77.0469 59.9255 77.0502 59.802 77.0267Z" fill="#161922"/>
<path d="M47.4449 69.986C46.4759 69.2645 47.3475 67.295 48.4981 68.1086C50.6362 68.106 49.1169 71.4132 47.4449 69.986Z" fill="#161922"/>
<path d="M78.7966 47.831C79.6392 47.1358 78.5333 45.843 77.7171 46.546C75.4158 48.4656 73.1724 50.4588 70.7894 52.2756C69.9995 52.8233 69.2438 53.4974 68.2801 53.6791C68.8278 51.225 70.2733 49.0843 71.5425 46.9462C72.6505 45.1166 73.9147 43.3864 75.321 41.7748C76.0609 40.9849 74.8128 39.8421 74.0861 40.6399C72.4825 42.3225 63.6669 54.2689 67.6745 55.3511C70.5709 55.6644 74.5205 51.1829 76.8719 49.4846C77.5117 48.9395 78.1489 48.3813 78.7966 47.831ZM85.4821 54.0898C85.6692 53.9693 85.8016 53.7801 85.8508 53.563C85.9 53.3459 85.8622 53.1182 85.7454 52.9287C85.6248 52.7415 85.4356 52.6091 85.2185 52.5599C85.0014 52.5106 84.7737 52.5485 84.5842 52.6654C81.3481 54.5507 78.3253 57.2943 74.5468 57.9473C76.4769 54.548 79.6234 51.9702 82.9569 50.0138C83.889 49.4214 83.0043 48.0047 82.0643 48.5893C80.4991 49.489 79.0224 50.5346 77.6539 51.7121C76.3558 52.8444 70.6946 58.1659 73.5357 59.5088C76.7665 60.0775 79.7051 57.6235 82.4119 56.0858C83.4256 55.4275 84.4499 54.7718 85.4821 54.0977V54.0898ZM75.0208 37.5013C81.0769 36.298 89.537 46.4117 88.9446 52.1097C86.4958 56.5623 81.6377 58.9347 77.2379 61.0623C75.9213 61.7153 74.6416 62.4209 73.3593 63.1424C73.294 63.1709 73.2329 63.2082 73.1776 63.2531C72.0164 61.7969 70.3207 60.77 69.0384 59.4245C67.2137 57.5813 65.1388 55.9225 62.7559 54.9035C63.2324 53.9055 63.6959 52.8839 64.1962 51.9017C65.7892 48.6735 71.2423 37.1695 75.0208 37.5013Z" fill="white"/>
<path d="M26.8831 47.6466C29.137 48.2575 29.1976 45.4901 28.3418 44.1182C26.8725 40.9953 24.7134 38.2675 23.0756 35.242C22.6727 33.9255 20.9428 34.2546 21.3536 35.5843L21.738 36.2821C23.3758 39.4945 26.08 42.4489 27.1806 45.9509C23.3573 43.8813 20.7348 40.187 17.9648 36.9509C17.6119 36.0504 16.1663 36.4822 16.3612 37.4381C16.7667 38.4465 17.7251 39.1706 18.3544 40.0501C20.8269 42.8886 23.3257 46.1299 26.8831 47.6466ZM29.3371 29.8047C31.154 33.5595 33.6975 38.536 33.6238 42.7332C30.6563 39.4155 29.1818 35.1525 27.1227 31.2503C27.0036 31.063 26.8153 30.9303 26.5989 30.8809C26.3824 30.8316 26.1553 30.8697 25.9668 30.987C25.4217 31.324 25.5481 31.9928 25.8693 32.4457C26.2467 33.183 26.6092 33.9264 26.9568 34.6759C28.4287 37.6856 30.6115 42.9017 33.45 44.6817C38.5661 44.766 32.0676 31.3293 30.8643 29.0911C30.3772 28.0958 28.8921 28.812 29.3371 29.8047ZM37.763 44.766V44.8002C33.7497 46.5826 29.9738 48.8575 26.5223 51.5725C26.2794 51.183 25.9606 50.8463 25.585 50.5825C22.9203 48.1469 20.3556 45.598 17.7462 43.0992C15.1631 40.4424 12.3615 35.8582 15.3501 32.4878C17.92 29.5914 21.6695 27.8825 25.3901 26.8925C30.6379 25.4285 32.9524 27.1058 34.2795 32.2482C35.3327 35.9188 36.436 39.5787 37.4023 43.2756C37.5719 43.76 37.6971 44.2589 37.7762 44.766H37.763Z" fill="#308D8A"/>
<path d="M59.0042 64.077C59.486 63.316 59.2096 61.4254 57.9931 61.773C56.6607 61.4755 56.6265 63.1475 57.2848 63.8927C57.6455 64.4825 58.5671 64.7037 59.0042 64.077ZM60.6946 56.5621C60.6946 56.5884 60.6946 56.6148 60.6946 56.6437C60.692 56.6174 60.6946 56.5884 60.6946 56.5621ZM62.2455 66.531C63.4357 66.6653 63.6542 64.7326 62.6194 64.3956C62.5497 64.2582 62.4439 64.1424 62.3133 64.0606C62.1827 63.9789 62.0323 63.9342 61.8782 63.9315C61.7242 63.9288 61.5723 63.9682 61.4389 64.0453C61.3056 64.1224 61.1957 64.2344 61.1212 64.3693C60.7868 65.1618 61.3555 66.4099 62.2455 66.5258V66.531ZM65.2262 68.9193C66.2794 70.3385 67.725 68.4295 66.5427 67.4132C66.4571 67.2807 66.3364 67.1745 66.194 67.1065C66.0517 67.0385 65.8932 67.0114 65.7364 67.028C65.5795 67.0447 65.4303 67.1045 65.3054 67.2008C65.1804 67.2972 65.0847 67.4262 65.0287 67.5737C64.9677 67.7997 64.954 68.0359 64.9884 68.2674C65.0229 68.4989 65.1047 68.7209 65.2288 68.9193H65.2262ZM67.5828 63.9164C67.7481 63.93 67.9138 63.8947 68.0592 63.8149C68.2046 63.735 68.3233 63.6142 68.4005 63.4674C68.4777 63.3205 68.51 63.1542 68.4933 62.9892C68.4767 62.8242 68.4119 62.6677 68.3069 62.5393C66.7481 60.8673 65.1051 59.3058 63.0723 58.1762C62.1876 57.3231 60.9527 58.6502 61.9243 59.4217C63.8067 60.5357 65.5073 61.9316 66.9667 63.5609C67.1167 63.7569 67.3382 63.8857 67.5828 63.919V63.9164ZM72.3672 65.1776C71.6062 65.0933 71.0769 65.6305 71.1217 66.1519C70.3976 66.5126 70.761 67.7317 70.4318 68.4321C69.9052 70.4886 67.4775 71.1469 65.6027 70.7229C64.0235 70.3476 62.5202 69.7046 61.1581 68.8218C61.6847 68.4084 61.8005 67.4342 60.7736 66.9602C60.1022 66.2124 59.3518 66.6679 59.2385 67.3499C58.0978 66.329 57.1389 65.1217 56.4027 63.7795C54.757 61.0963 55.4969 56.8175 59.2991 57.1572C59.4593 57.2989 59.6671 57.3751 59.881 57.3705C60.0933 57.3607 60.2942 57.2712 60.4435 57.1199C60.5928 56.9687 60.6797 56.7666 60.6867 56.5542C60.6894 56.5262 60.6894 56.498 60.6867 56.47C60.7675 56.3219 60.8168 56.1587 60.8316 55.9907H60.8816C62.5431 56.6306 64.2704 57.46 65.6475 58.6475C66.9193 59.714 68.22 61.0779 69.505 62.1864C70.5688 63.0474 71.7773 63.94 72.3672 65.1802V65.1776Z" fill="#D4D4D4"/>
<path d="M34.5822 51.5694C35.3589 50.9427 37.6234 50.7795 37.1442 49.4155C37.0478 49.2157 36.8769 49.0615 36.6682 48.9862C36.4595 48.9109 36.2295 48.9204 36.0277 49.0127C34.8745 49.5209 33.7554 50.1001 32.6548 50.711C31.8464 51.3008 28.4866 52.4068 29.316 53.6522C29.8769 54.4817 30.7221 53.7417 31.3198 53.3731C32.3757 52.7148 33.4921 52.1671 34.5822 51.5694ZM41.7573 48.178C45.4437 51.1429 44.2456 54.529 41.5915 56.9805C41.3282 56.6329 40.8015 56.4091 40.0537 56.6381C39.9193 56.6703 39.7899 56.7208 39.6693 56.7882C38.4923 56.6592 37.1863 58.4102 37.9262 59.3897C37.6629 59.5082 37.3996 59.6214 37.1363 59.7215C35.6196 60.2218 34.0003 60.7984 32.3967 60.5904C29.7189 60.1928 28.0047 57.5123 28.4471 54.9108C28.4458 54.9239 28.4458 54.9372 28.4471 54.9503C28.4472 54.8439 28.4258 54.7385 28.3841 54.6406C28.3424 54.5426 28.2814 54.454 28.2047 54.3803C28.1279 54.3065 28.0371 54.249 27.9376 54.2112C27.8381 54.1734 27.7319 54.1561 27.6256 54.1604C27.4676 53.8971 27.1385 53.726 26.6276 53.8392C26.6117 53.8259 26.5983 53.8098 26.5881 53.7917C28.1101 52.1355 30.1428 50.9954 32.0386 49.8052C34.6717 48.3491 37.3048 46.3532 40.2802 45.7266C40.273 46.2202 40.3269 46.7128 40.4408 47.1932C40.5064 47.3939 40.6445 47.5628 40.8281 47.667C41.0117 47.7712 41.2276 47.8032 41.4335 47.7567C41.4877 47.9312 41.6026 48.0807 41.7573 48.178Z" fill="#D4D4D4"/>
<path d="M32.5438 59.153C31.8224 58.7685 30.4163 58.3156 30.2899 57.4256C30.284 57.2935 30.309 57.1619 30.3629 57.0412C30.4167 56.9204 30.498 56.8139 30.6003 56.73C30.7025 56.6462 30.8229 56.5874 30.9518 56.5582C31.0808 56.529 31.2148 56.5303 31.3431 56.5619C33.0309 55.1822 35.2506 59.7586 32.5438 59.153Z" fill="white"/>
<path d="M57.016 60.8193C56.4604 60.4349 56.621 59.666 57.1161 59.3C57.569 58.7287 58.2852 58.0019 59.0488 58.5101C59.8071 59.0604 59.2199 60.0373 58.5222 60.3296C58.1193 60.7324 57.5927 61.2591 57.016 60.8193Z" fill="white"/>
</svg>
