<svg xmlns="http://www.w3.org/2000/svg" width="252.58" height="252.58" viewBox="0 0 252.58 252.58">
  <g id="Layer_2" data-name="Layer 2">
    <g id="Vector_layer" data-name="Vector layer">
      <g>
        <circle cx="126.29" cy="126.29" r="126.29" fill="#98d7c3"/>
        <g>
          <path d="M188.64,99.8a2.88,2.88,0,0,1,.86-3.92l1.13-.81h0l-.11.09-.18.13.17-.13-.06,0,.21-.16.09-.06-.05,0c.85-.63,1.69-1.27,2.49-2,1.62-1.37,3.27-2.71,4.82-4.16.35-.35.69-.71,1-1.09h0c-1.25.31-2.52.54-3.8.78a25.6,25.6,0,0,1-3.38.43c-1.54.08-3.32.15-4.43-1.13a3,3,0,0,1-.52-3,3.65,3.65,0,0,1,1.22-1.53c.35-.29.7-.58,1-.89a69.15,69.15,0,0,0,5-5.65l.86-1.14c-1.32.58-2.66,1.11-4,1.62a46.38,46.38,0,0,1-6.78,1.91c-1,.21-2,.37-3,.53-.3,0-.59.12-.89.14a2.82,2.82,0,0,1-2.41-4.45c.65-1.09,2-1.21,3.07-1.4s2.27-.4,3.4-.66a51.83,51.83,0,0,0,5.28-1.62A55.86,55.86,0,0,0,195.79,69l-.06,0,.25-.14c.93-.52,1.84-1.09,2.74-1.66l.78-.52a3.41,3.41,0,0,1,2.25-.65,2.77,2.77,0,0,1,1.67.76,3.07,3.07,0,0,1,.89,1.67,4.67,4.67,0,0,1-.43,2.54,33.29,33.29,0,0,1-1.52,3.59,35.26,35.26,0,0,1-4.85,7.08l-.65.76.13,0c1.22-.31,2.42-.69,3.62-1.08.88-.28,1.77-.55,2.64-.87l.43-.19a3.29,3.29,0,0,1,2.62-.25,2.94,2.94,0,0,1,1.87,3,4.87,4.87,0,0,1-.66,1.82A38.08,38.08,0,0,1,203.83,91a37.67,37.67,0,0,1-5.47,5.24c-1,.87-2,1.78-3.12,2.58l-.32.24.15-.11-.29.21h0c-.72.54-1.46,1.06-2.22,1.55a2.89,2.89,0,0,1-3.92-.86Z"/>
          <path d="M124.54,104.76A18.89,18.89,0,0,1,124,100a31,31,0,0,1,1.08-8,34,34,0,0,1,3.33-8,48.41,48.41,0,0,1,5.06-7.32,36.07,36.07,0,0,1,5.68-5.64A31.94,31.94,0,0,1,147,66.69a29.19,29.19,0,0,1,8-1.77,35.3,35.3,0,0,1,8.15.32A37,37,0,0,1,169,66.55a29.39,29.39,0,0,1,6.14,2.81,37.83,37.83,0,0,1,4.93,3.49,7.54,7.54,0,0,1,2,2.29,2.81,2.81,0,0,1-4.26,3.43l.08.07-.1-.08-.17-.14h0l.12.1a7.11,7.11,0,0,1-.71-.74c-.28-.27-.58-.52-.87-.77a37,37,0,0,0-3.37-2.35A32,32,0,0,0,169.63,73c-.9-.39-1.82-.73-2.74-1a35.3,35.3,0,0,0-3.53-.79l.18,0-.18,0-.19,0,.19,0a40.3,40.3,0,0,0-4.78-.48,36.4,36.4,0,0,0-3.91.11c-.93.12-1.84.28-2.76.49a34.44,34.44,0,0,0-3.41,1.06c-.88.36-1.73.77-2.57,1.21a32.72,32.72,0,0,0-2.85,1.82,30.67,30.67,0,0,0-2.4,2l.07-.06a49.38,49.38,0,0,0-3.56,4,47.75,47.75,0,0,0-2.9,4.17,40.67,40.67,0,0,0-2.08,3.84c-.48,1.1-.91,2.22-1.28,3.36a30.39,30.39,0,0,0-.75,3.24,31.43,31.43,0,0,0-.37,3.63,28,28,0,0,0,.14,3.17v0l0,.31c0-.08,0-.15,0-.23,0,.2,0,.41.08.61a2.89,2.89,0,0,1-1.95,3.19,2.79,2.79,0,0,1-.81.12A2.82,2.82,0,0,1,124.54,104.76Z"/>
          <path d="M86.43,196.41c-1.39-.24-2.79-.48-4.16-.83s-2.66-.75-4-1.12c-2.6-.72-5.18-1.44-7.73-2.31a64.74,64.74,0,0,1-7.91-3.25,80.85,80.85,0,0,1-7.3-4.41l-3.16-2c-.64-.41-1.28-.78-1.88-1.24a2.88,2.88,0,0,1,2.67-5,12,12,0,0,1,2,1.09l2.13,1.34c1.89,1.19,3.76,2.42,5.65,3.61a49.16,49.16,0,0,0,4.39,2.26h0a77.2,77.2,0,0,0,8,3c2.11.64,4.24,1.19,6.35,1.8a60.71,60.71,0,0,0,6.52,1.45l-.17,0,.26,0,.12,0h-.06c1.78.29,3.56.54,5.36.71,2.22.22,4.46.32,6.69.4a62.48,62.48,0,0,0,7.24-.23c3.25-.35,6.49-.91,9.71-1.49s6.13-1.12,9.16-1.83a46.42,46.42,0,0,0,5.15-1.59c1.56-.61,3.12-1.25,4.61-2s3-1.55,4.41-2.36a72,72,0,0,0,7.3-4.64c2.14-1.61,4.2-3.32,6.22-5.06s3.84-3.35,5.69-5.1a83.47,83.47,0,0,0,6.52-7,77,77,0,0,0,5.3-7.64c1.26-2.1,2.47-4.24,3.62-6.4s2.16-4.13,3.13-6.25c.68-1.53,1.35-3.06,2-4.61s1.1-3,1.57-4.6l0,.07a101.15,101.15,0,0,0,2.55-10.75c.39-2.1.75-4.2,1.16-6.29.37-1.82.78-3.64,1.1-5.46a56.08,56.08,0,0,0,.63-7.08,16.34,16.34,0,0,1,.19-2.88A2.82,2.82,0,0,1,193,99.92s0,0,0,0l.06-.36a6.34,6.34,0,0,0,0,.76V100a78,78,0,0,1-.52,8.36c-.36,2.52-.94,5-1.42,7.5-.94,4.92-1.72,9.86-3.06,14.7a74.37,74.37,0,0,1-2.48,7.57c-1,2.59-2.18,5.15-3.43,7.65a122.32,122.32,0,0,1-8.46,14.58,74,74,0,0,1-10.94,12.45A133.12,133.12,0,0,1,150.41,183a64.32,64.32,0,0,1-6.72,4.24c-2.22,1.23-4.44,2.48-6.76,3.53a51.81,51.81,0,0,1-8.29,3c-2.64.68-5.31,1.23-8,1.72q-4.48.81-9,1.51a58.38,58.38,0,0,1-8.13.76h-1.21A96.09,96.09,0,0,1,86.43,196.41Z"/>
          <path d="M53.8,181.06c-.79-.07-1.58-.21-2.37-.27h-.2a2.61,2.61,0,0,1-1-.18,2.87,2.87,0,0,1-1.83-2.55A2.83,2.83,0,0,1,50,175.42a3,3,0,0,1,.68-.21l-.12,0,.39-.07a3.28,3.28,0,0,1,.7,0l-.17,0h-.35a5.38,5.38,0,0,1,1.13,0c1.39.15,2.77.27,4.16.32a41.91,41.91,0,0,0,4.89-.17,69.57,69.57,0,0,0,8.46-1.57c1.32-.34,2.61-.74,3.91-1.14s2.58-.8,3.85-1.28a82,82,0,0,0,8.21-3.89,46.44,46.44,0,0,0,4.51-3l-.12.09.18-.13.12-.09-.09.07.65-.5a2.88,2.88,0,1,1,3.71,4.41,42.64,42.64,0,0,1-4.24,3.06,51.57,51.57,0,0,1-7.14,3.74c-1.28.57-2.56,1.15-3.87,1.65s-2.59.91-3.91,1.31c-2.57.79-5.16,1.48-7.8,2a51.92,51.92,0,0,1-9.38,1.13H57.5C56.26,181.23,55,181.17,53.8,181.06Z"/>
          <path d="M91.87,169.07a5.65,5.65,0,0,1-1.66-.48c-.65-.23-1.29-.48-1.93-.74A35.4,35.4,0,0,1,80.89,164a30.61,30.61,0,0,1-3.31-2.8c-1-1-2.09-2-3.07-3.07s-1.82-2-2.69-3.09-1.65-2.15-2.44-3.25l-.94-1.31c.07.11.15.2.22.3a43,43,0,0,1-2.6-3.69,3.94,3.94,0,0,1-.69-2,3.16,3.16,0,0,1,1.41-2.71,4,4,0,0,1,2.45-.52l1.62.06c-.53-.39-1-.8-1.54-1.24-.94-.86-1.87-1.75-2.77-2.65a47,47,0,0,1-5.32-6.53,50.56,50.56,0,0,1-3.71-7.3c-.39-.82-.76-1.64-1.09-2.49a29.71,29.71,0,0,1-.88-2.92c-.39-1.43-.76-2.87-1.1-4.31a3.22,3.22,0,0,1,1.72-3.65c1.43-.68,3-.1,4.44.38l.1,0a38.24,38.24,0,0,1-2-3.29c-.71-1.23-1.39-2.48-2-3.78a24.28,24.28,0,0,1-1.88-8.32,72.34,72.34,0,0,1,0-8.33,32.11,32.11,0,0,1,.56-4.25,33.73,33.73,0,0,1,1-4.32c.36-1.15.8-2.27,1.27-3.4a18.59,18.59,0,0,1,1-2.23,2.86,2.86,0,0,1,5.2,2.34c-.74,1.7-1.46,3.41-2,5.18a43.34,43.34,0,0,0-1,4.82v0a48.08,48.08,0,0,0-.39,5.49,49.64,49.64,0,0,0,.22,5.72,24,24,0,0,0,.42,2.54c.16.59.35,1.16.56,1.72a32.31,32.31,0,0,0,1.58,3.24,48.41,48.41,0,0,0,2.61,4.22c.87,1.13,1.81,2.21,2.78,3.25.67.68,1.38,1.33,2,2a3.07,3.07,0,0,1-2.8,5.29c-.49-.06-1-.15-1.45-.24a21.56,21.56,0,0,1-3.82-.86l-1.48-.56c.24.85.51,1.69.82,2.51.44,1.06,1,2.08,1.43,3.11.59,1.27,1.15,2.55,1.78,3.79a32.45,32.45,0,0,0,1.84,2.82,41.81,41.81,0,0,0,2.88,3.5l-.18-.19.2.21,0,.05,0-.05a48.79,48.79,0,0,0,3.84,3.64,30.53,30.53,0,0,0,2.75,1.9c.8.47,1.62.91,2.45,1.32s1.46.59,2.21.84a3.1,3.1,0,0,1,2.33,2.8,3.16,3.16,0,0,1-1.85,2.88,5.87,5.87,0,0,1-1.68.53,31.35,31.35,0,0,1-6.48.55L75.12,150a58.59,58.59,0,0,0,4.24,4.95c1.25,1.26,2.53,2.51,3.9,3.66.62.49,1.27,1,1.94,1.38l-.31-.2.36.23.06,0c.4.24.82.48,1.24.7.9.47,1.83.91,2.76,1.34s2.08.9,3.15,1.27A2.87,2.87,0,0,1,95,165.53a2.85,2.85,0,0,1-3,3.54Z"/>
          <path d="M116.05,107.85c-2.69-.27-5.35-.68-8-1.19-1.17-.23-2.34-.44-3.49-.73s-2.44-.72-3.63-1.14a71.37,71.37,0,0,1-7.06-2.93A68.78,68.78,0,0,1,87,98c-2.13-1.34-4.2-2.78-6.3-4.15S76.58,91,74.61,89.47c-1.39-1.09-2.77-2.22-4-3.44s-2.63-2.66-3.93-4c-2-2.1-3.89-4.38-5.88-6.52a2.82,2.82,0,0,1,3.55-4.37,17.46,17.46,0,0,1,2.26,2.37c1.27,1.42,2.53,2.84,3.83,4.22,1,1.06,2.08,2.1,3.12,3.15a47.82,47.82,0,0,0,3.82,3.44c2.14,1.72,4.36,3.34,6.66,4.84s4.73,3.17,7.15,4.67a68.16,68.16,0,0,0,6.54,3.47,70.31,70.31,0,0,0,7,2.68c1.18.35,2.39.61,3.6.85s2.31.47,3.47.67a75.62,75.62,0,0,0,9.13.88,29.48,29.48,0,0,0,3.64,0c.48-.06,1-.15,1.45-.19a2.87,2.87,0,0,1,1,5.61,10.2,10.2,0,0,1-2.19.35c-.54,0-1.09.07-1.63.07h-.78C120.27,108.19,118.15,108.06,116.05,107.85Z"/>
          <path d="M177.57,78.42l.09.07-.09-.08Zm21.4,9.4h0c-.32.37-.66.73-1,1.09-1.55,1.44-3.21,2.78-4.81,4.15-.81.69-1.65,1.33-2.5,2l0,0,0,0,0,0-.11.08-.14.1-.82.59a3.08,3.08,0,0,0-1,1.16,2.58,2.58,0,0,0-1,1.6,16.34,16.34,0,0,0-.19,2.88,56.08,56.08,0,0,1-.63,7.08c-.32,1.82-.73,3.63-1.1,5.45-.41,2.1-.77,4.2-1.16,6.3a101.15,101.15,0,0,1-2.55,10.75c-.47,1.53-1,3-1.55,4.53s-1.28,3.08-1.95,4.61c-1,2.12-2.05,4.19-3.14,6.24s-2.36,4.31-3.62,6.41a78.77,78.77,0,0,1-5.3,7.64,82,82,0,0,1-6.53,7c-1.84,1.75-3.75,3.45-5.68,5.1s-4.08,3.46-6.21,5.06a72.15,72.15,0,0,1-7.31,4.64c-1.46.81-2.92,1.62-4.41,2.36s-3,1.39-4.61,2a46.42,46.42,0,0,1-5.15,1.59c-3,.71-6.1,1.27-9.16,1.83-3.22.58-6.45,1.14-9.71,1.49a60.32,60.32,0,0,1-7.24.22c-2.24-.07-4.47-.16-6.69-.39-1.8-.17-3.58-.42-5.37-.71h0l-.09,0-.17,0a62.64,62.64,0,0,1-6.35-1.43c-2.11-.61-4.24-1.16-6.35-1.8a74.19,74.19,0,0,1-8-3,43.23,43.23,0,0,1-4.39-2.25l-1.85-1.17a56.5,56.5,0,0,0,6.83-1c2.64-.55,5.23-1.24,7.8-2,1.32-.4,2.63-.81,3.91-1.31s2.59-1.08,3.87-1.65a51.57,51.57,0,0,0,7.14-3.74,42.64,42.64,0,0,0,4.24-3.06,2.91,2.91,0,0,0,.35-4.06,2.82,2.82,0,0,0-2.76-.94c-1-.35-2-.78-3-1.21s-1.86-.87-2.77-1.34c-.41-.22-.83-.46-1.23-.7l-.06,0-.09-.06a23.27,23.27,0,0,1-1.9-1.35c-1.37-1.15-2.65-2.4-3.9-3.66A58.59,58.59,0,0,1,75.12,150l-1.7-2.33a31.16,31.16,0,0,0,6.46-.55,5.84,5.84,0,0,0,1.69-.53,3.16,3.16,0,0,0,1.85-2.88,3.11,3.11,0,0,0-2.33-2.8c-.75-.25-1.48-.53-2.21-.84s-1.65-.85-2.45-1.32a30.53,30.53,0,0,1-2.75-1.9,46.34,46.34,0,0,1-3.81-3.61l0,0h0l0,0a41.55,41.55,0,0,1-2.87-3.49,32.45,32.45,0,0,1-1.84-2.82c-.63-1.24-1.2-2.52-1.78-3.79-.47-1-1-2-1.43-3.11-.31-.82-.58-1.66-.83-2.51l1.48.56a21.67,21.67,0,0,0,3.83.86c.48.09,1,.18,1.45.24a3.07,3.07,0,0,0,2.8-5.29c-.63-.71-1.34-1.36-2-2q-1.47-1.56-2.78-3.25a48.41,48.41,0,0,1-2.61-4.22,34.63,34.63,0,0,1-1.58-3.24c-.21-.56-.4-1.13-.56-1.71-.18-.85-.32-1.7-.42-2.56a49.46,49.46,0,0,1-.22-5.71,47.23,47.23,0,0,1,.39-5.45,43.34,43.34,0,0,1,1-4.82c.32-1,.69-2,1.08-2.92,1.22,1.4,2.44,2.81,3.74,4.14s2.59,2.7,3.93,4a50.81,50.81,0,0,0,4,3.43c2,1.54,4,3,6.09,4.4S84.87,96.67,87,98a70.84,70.84,0,0,0,6.86,3.85,71.37,71.37,0,0,0,7.06,2.93c1.19.42,2.4.82,3.63,1.14s2.33.5,3.49.73c2.66.51,5.32.92,8,1.19,2.09.21,4.21.34,6.32.34h.78c.54,0,1.09,0,1.63-.07a10.11,10.11,0,0,0,2.19-.35,3,3,0,0,0,1.65-1.38,2.94,2.94,0,0,0,1.41-2.95c0-.21-.06-.41-.08-.62a.19.19,0,0,1,0-.08v0a28,28,0,0,1-.14-3.17,31.43,31.43,0,0,1,.37-3.63,29.83,29.83,0,0,1,.75-3.24,35.76,35.76,0,0,1,1.28-3.36,43.09,43.09,0,0,1,2.08-3.84,49.3,49.3,0,0,1,2.9-4.17,51.63,51.63,0,0,1,3.5-3.89,27,27,0,0,1,2.39-2,32.72,32.72,0,0,1,2.85-1.82c.84-.44,1.69-.85,2.57-1.22,1.12-.41,2.26-.75,3.42-1,.91-.21,1.82-.37,2.75-.49a36.4,36.4,0,0,1,3.91-.11,40.3,40.3,0,0,1,4.78.48h0a34.12,34.12,0,0,1,3.47.78c.93.3,1.85.64,2.75,1a34.28,34.28,0,0,1,3.11,1.65A39.16,39.16,0,0,1,176.11,77c.29.25.59.5.87.77a8.39,8.39,0,0,0,.71.75l.05,0h0l0,0v0a2.89,2.89,0,0,0,2.49,1.3c.3,0,.59-.09.89-.14,1-.16,2-.32,3-.54a45.59,45.59,0,0,0,6.79-1.9c1.34-.51,2.68-1,4-1.62l-.86,1.14a69.15,69.15,0,0,1-5,5.65c-.33.3-.68.61-1,.89a3.65,3.65,0,0,0-1.22,1.53,3,3,0,0,0,.52,3c1.11,1.28,2.89,1.21,4.43,1.13a25.6,25.6,0,0,0,3.38-.43C196.45,88.36,197.72,88.13,199,87.82Z" fill="#fff"/>
        </g>
      </g>
    </g>
  </g>
</svg>
