<svg width="22" height="19" viewBox="0 0 22 19" fill="none" xmlns="http://www.w3.org/2000/svg">
<path d="M19.7386 5.00283C19.7525 5.19825 19.7525 5.39371 19.7525 5.58914C19.7525 11.5498 15.2157 18.4178 6.92386 18.4178C4.36928 18.4178 1.9962 17.6779 0 16.3937C0.362957 16.4356 0.711906 16.4495 1.08883 16.4495C3.19666 16.4495 5.13704 15.7376 6.68654 14.5232C4.7043 14.4813 3.04313 13.183 2.47079 11.3962C2.75 11.4381 3.02917 11.466 3.32234 11.466C3.72715 11.466 4.132 11.4102 4.50888 11.3125C2.4429 10.8937 0.893363 9.07897 0.893363 6.88735V6.83153C1.49359 7.16656 2.19162 7.37595 2.93141 7.40384C1.71695 6.59417 0.921293 5.21221 0.921293 3.64875C0.921293 2.81121 1.1446 2.04344 1.53549 1.37339C3.75504 4.10942 7.09135 5.89619 10.8324 6.09166C10.7626 5.75663 10.7207 5.40768 10.7207 5.05869C10.7207 2.57389 12.7309 0.549805 15.2296 0.549805C16.5278 0.549805 17.7004 1.09422 18.524 1.97366C19.543 1.77824 20.5202 1.40132 21.3857 0.884832C21.0506 1.93181 20.3387 2.81125 19.4035 3.36959C20.3109 3.27192 21.1903 3.02059 21.9999 2.67164C21.3858 3.56501 20.618 4.36066 19.7386 5.00283Z" fill="#308D8A"/>
</svg>
