<svg xmlns="http://www.w3.org/2000/svg" width="170.29" height="145.06" viewBox="0 0 170.29 145.06">
  <g id="Layer_2" data-name="Layer 2">
    <g id="Vector_layer" data-name="Vector layer">
      <g>
        <path d="M77.41,45.93c.09-1.59-1-2.74-1.45-4.21-2-5.9-.64-12.17,1.18-18,4.7-19.67,28.28-25.36,46-23.39,23.74,3.81,8.26,15.53,35.92,2.05,4.61-1,6.86,4.16,6,8-.78,5.9-5.24,10.31-9.09,14.5-1.57,1.71-3.22,3.76-5.53,4.5A4.55,4.55,0,0,1,145,27.07c-2.08-5,5.52-8.25,7.86-12.15-7,4.12-15.68,4.38-21.36-2.06a11.46,11.46,0,0,0-2.88-2C116.5,7,102.17,8.8,91.77,16.11A26.48,26.48,0,0,0,84.4,39c1.18,2.06,2.1,4.52,1.56,6.81C85.36,50.56,78.1,50.7,77.41,45.93Z" fill="#110802"/>
        <path d="M145.63,41.23c-1.66-6.66,7.55-5.55,10.75-9-4.47.49-12.54-1.61-10.87-7.49,1.19-3.21,5.11-3.44,7.54-1.48,3.41.64,6.86-.52,10.2-1.13,3.13-1,6.93.74,7,4.32-.41,4.14-3.46,7.65-6.07,10.74C160.42,40.86,149,48.52,145.63,41.23Z" fill="#110802"/>
        <path d="M46.64,112.93c-10.62-3-22.42-5.77-29-15.42-4.33-5.79-7.26-16.69,4-14.09.48,0,1,0,1.43,0C10.9,77.44,5.07,64.72,2.6,52c-1.73-3.8,1.79-8.5,5.94-6.87a14.54,14.54,0,0,0,5.19,2.07C8.46,39.91,4,31.68,5.07,22.32,4.94,14.77,9.13,0,18.87,7.83c2.45,2.23,3.74,5.28,5.61,7.94C29.19,22.33,36,26.85,42.75,31.08c10.7,7.66,22.6,12.34,35.71,11.24,5.45-4.25,10.17,4.93,4.87,8.18-15.64,3.27-32.19-2.11-45-11.33-9.14-5.52-18.2-11.89-23.57-21.37C13.15,25.38,14.58,33,19.52,39c2.28,4.47,6.27,7.82,7.93,12.53.79,7.43-9.11,6.34-13.92,5.3,2.28,12.73,14.38,19.25,25,24,6.44,7.74-6.8,12.07-12.83,11.88C33,100.83,45,103.42,55.46,104.38c5.12.4,5.44,8.3.32,9A30.45,30.45,0,0,1,46.64,112.93Z" fill="#110802"/>
        <path d="M54.56,145.06c-6.37-.09-12.62,0-18.84-1l.09,0c-8.91-1.24-17.46-3.7-25.11-8.55C6.62,133-2.26,130.72.53,124.33c2.54-4.36,9.54-2,13.34-3,12.69-1.47,25.26-4.88,36.24-11.57.53-4.48,7.31-4.92,8.45-.53,3.61,11.32-31.57,19.36-39.84,20.38,40.44,18.3,97.9-3.92,117.86-43.16a.25.25,0,0,1,0,.07l0,0c3.24-9.84,8.66-19.91,9.29-30.27,0-3.59.12-7.2.06-10.8a4.72,4.72,0,0,1,2-6.59c10.87-3.3,6.82,17.91,6.37,23.81C144.57,111.07,102.92,142.6,54.56,145.06Z" fill="#110802"/>
        <path d="M145.74,28.13c1.57,3.28,7.18,4.45,10.64,4.07-3.2,3.47-12.38,2.36-10.74,9a4.85,4.85,0,0,0,.25,4.26c.05,3.6,0,7.2-.07,10.8-.63,10.31-6,20.34-9.24,30.15a.43.43,0,0,0,0,0h0v0s0,0,0,0c-20,39.18-77.4,61.32-117.82,43,7.7-.93,38.65-8,40-18,1.64-2.55.45-6.84-3.29-7.13C45,103.43,33,100.84,25.67,92.7c6,.2,19.26-4.13,12.83-11.87-10.6-4.75-22.69-11.27-25-24,4.8,1,14.7,2.14,13.92-5.29C25.8,46.81,21.8,43.47,19.52,39c-4.93-6-6.37-13.62-4.77-21.2,5.38,9.49,14.45,15.84,23.57,21.37,12.82,9.23,29.37,14.59,45,11.33a4.59,4.59,0,0,0,2.23-3.34,3.64,3.64,0,0,0,.4-1.32c.54-2.3-.38-4.77-1.57-6.82a26.51,26.51,0,0,1,7.38-22.91c10.41-7.3,24.73-9.1,36.88-5.25a12,12,0,0,1,2.88,2c5.68,6.45,14.39,6.2,21.36,2.07C150.55,18.81,143,22,145,27.07A4.49,4.49,0,0,0,145.74,28.13Z" fill="#308d8a"/>
        <path d="M43.52,142.26c-7.81-1.06-17,2-23.1-4.24-4.4.37-6.36-5.86-2.6-8.16,2.16-1.67,4.77-1.9,7.33-2.44,3.16-3.56,8.63-5.21,13.35-4.67,5.67.94,11.17.11,16.74-1,15-1.24,27.46-9.23,40.82-15.07,5.71-3.81,12-6.52,17.87-10,5.45-5.07,9.41-11.56,13.5-17.73,4.39-10.06,12.79-19.17,13.22-30.5.18-3.72-1.05-9.76,4.24-10.12,9.41.19,2.89,23.76-.7,28.37,6.17,4.42-3.77,15.17-5.92,20.08-14.27,25.59-41.06,44.56-70,49.11-8.13,3.14-15.87,7-24.74,6.44Z" fill="#110802" fill-opacity="0.25"/>
      </g>
    </g>
  </g>
</svg>
