<svg width="21" height="18" viewBox="0 0 21 18" fill="none" xmlns="http://www.w3.org/2000/svg">
<path d="M18.4441 4.92809C18.4568 5.10574 18.4568 5.28344 18.4568 5.46109C18.4568 10.8798 14.3325 17.1235 6.79441 17.1235C4.47207 17.1235 2.31473 16.4509 0.5 15.2834C0.829961 15.3215 1.14719 15.3342 1.48984 15.3342C3.40605 15.3342 5.17004 14.687 6.57867 13.5829C4.77664 13.5448 3.26648 12.3646 2.74617 10.7403C3 10.7783 3.25379 10.8037 3.52031 10.8037C3.88832 10.8037 4.25637 10.7529 4.59898 10.6641C2.72082 10.2834 1.31215 8.63367 1.31215 6.64129V6.59055C1.85781 6.89512 2.49238 7.08547 3.16492 7.11082C2.06086 6.37476 1.33754 5.11844 1.33754 3.69711C1.33754 2.9357 1.54055 2.23773 1.8959 1.62859C3.91367 4.1159 6.94668 5.74023 10.3477 5.91793C10.2842 5.61336 10.2461 5.29613 10.2461 4.97887C10.2461 2.71996 12.0736 0.879883 14.3451 0.879883C15.5253 0.879883 16.5913 1.3748 17.34 2.1743C18.2664 1.99664 19.1547 1.65398 19.9416 1.18445C19.637 2.13625 18.9898 2.93574 18.1395 3.44332C18.9644 3.35453 19.7639 3.12605 20.4999 2.80883C19.9416 3.62098 19.2436 4.3443 18.4441 4.92809V4.92809Z" fill="black"/>
</svg>
