<svg xmlns="http://www.w3.org/2000/svg" width="450" height="450" viewBox="0 0 450 450">
  <g id="Layer_2" data-name="Layer 2">
    <g id="Vector_layer" data-name="Vector layer">
      <g>
        <circle cx="225" cy="225" r="225" fill="#98d7c3"/>
        <g>
          <path d="M218.6,295.53c-23.75.19-47.27-14.42-35.85-40.65,4-7.7,12.41-11.7,18.88-16.76l-.18.13-.22.16c11.77-7.52,10.47-22.77,14-34.64,4.1-13.37,10.13-31.07,25.56-34.2C251.34,167,262,170.69,272,174c8.15,3.37,12.7,11.79,16.15,19.46C307.85,236.81,268,300.73,218.6,295.53ZM230,286.37c22-2.22,39.65-20.9,47.86-40.25,9.15-20.38,10-47.23-7.64-63.08-3.2-2.18-7.2-1.16-9.9-3.94-8.08-2.31-17.72-3.32-24.41,2.42-9.82,11.3-13,26.56-15.26,41a37.36,37.36,0,0,1-8.19,18c-6,6.55-14.57,10.06-20.59,16.61-13.51,25.71,19.86,31.55,38.4,29.24Z" fill="#110802"/>
          <path d="M251.38,219c-7.59-.92-13.31-7.8-11.4-15.46.69-6.39,6.35-14.41,13.5-12.91,8-.76,16.06,7.67,16,15.61C269,214.53,259,219.79,251.38,219Zm1.76-8.23c6.44-.72,11.48-5.59,4.35-10.23a4.17,4.17,0,0,1-4.34-.16,7.12,7.12,0,0,1-1.61-1.67c-3,2-4.48,6.53-3.11,9.85A7.44,7.44,0,0,0,253.14,210.75Z" fill="#110802"/>
          <path d="M225.1,281.64a4.09,4.09,0,0,1-3.92-4.81c.95-4.31,6.07-2.93,9.31-3.51,5.81-.43,10.57-2.38,15.49-5.13a4,4,0,0,1,5.38,1.74C254.75,278.42,230.74,282,225.1,281.64Z" fill="#110802"/>
          <path d="M199.51,153.14c-13.86-.06-20.72-12.68-12.73-24.17,1.8-3,5.36-5.32,5.61-9.1.81-8.55-.61-17.83,3.87-25.65,5.2-10.9,18.55-14.66,29.57-12.49,3.9.67,8.73,1.71,10.64,5.53,11.86,20,9.39,49.46-13.48,60.13C215.89,151.45,207.67,153.89,199.51,153.14Zm-.38-8.6c6.91,1.05,13.77-1.26,19.73-4.53,10.59-4.67,16.44-16.09,16.49-27.25-.34-7.7-3.16-15-6.43-21.91l0,0c-9.89-3.63-23.39-1.25-26.73,10-2.24,6.95-.53,14.11-1.87,21.13-.47,5.54-5.4,8.79-7.71,13.4C189.77,141.06,193.4,144.49,199.13,144.54Z" fill="#110802"/>
          <path d="M209,113.56c-9.36-6.08-2.65-22,8.11-19.2,4.17-1.41,8.86,3.39,9.58,7.31C229,111.48,217.28,119.43,209,113.56Zm6.23-6a3.57,3.57,0,0,0,3.45-4.46,11,11,0,0,0-1.54-1.17,9.41,9.41,0,0,1-2.84.22c-2.13,1.13-2.45,4.08-.13,5.19-.16-.1-.3-.18-.43-.28A4,4,0,0,0,215.27,107.51Z" fill="#110802"/>
          <path d="M97,238.24c-16.63.47-33.23-10-25.55-28.38,3.69-8.61,12.42-13.18,19-19.27,11.33-10.22,12-26.37,20.83-38.29,6.57-9.19,19.27-12,29.7-8.6,4.14,2,8.16,4.13,12.33,6.07,7.8,6.17,10.51,16.95,11.73,26.42.86,20.66-12.06,39.21-29.81,48.78C123.53,231.68,110.84,238.46,97,238.24Zm4-8.59c10.68-1.62,20.46-6.73,29.6-12.12,13.13-7.18,22.88-18.76,25.22-33.76a35,35,0,0,0-6.21-25.49c-1.72-2.43-4.95-2.11-6.79-4.32-7-5.63-18.49-4.35-24.31,2.31-9.05,12.42-9.85,29.28-21.81,39.81-5.23,5.43-12.59,9-16.8,15.31C71.68,226.74,89.34,230.59,101,229.65Z" fill="#110802"/>
          <path d="M129.47,180.4c-4.89-1-9.34-5.23-9-10.46.46-6.74,7.46-14.29,14.37-10.33,2.79-1.09,5.59,1.07,7.67,2.75C153,170.75,140.27,184.44,129.47,180.4Zm4.22-7.6a4.88,4.88,0,0,0,2.62-.54,5.38,5.38,0,0,0,1.86-2.67,11.05,11.05,0,0,0-2.76-2.29c-1.53.8-3.23.18-4.62-.67C126.7,170,129.22,172.72,133.69,172.8Z" fill="#110802"/>
          <path d="M99.35,222.69c-.14-2.92,2.59-4.26,5.13-4.3,3.78-.46,8.27-4.08,10.67.38,2.08,4.95-4.32,6.43-7.86,7.12C104.31,227,99.52,226.89,99.35,222.69Z" fill="#110802"/>
          <path d="M108,334.19c-11.31-1.34-19.41-8.67-15.19-20.55,1.87-5.05,8-6.61,10.31-11.22,3.3-16.6,2.56-35.92,25.63-32.43,4.93.5,8.84,3.62,12.31,6.9,6.26,5,11.16,12,9.73,20.4C149,318.48,128,333.15,108,334.19Zm1.14-8.66c16.85-2.32,35-15,33-33.7-1.94-5.82-8.17-8.69-12-13.18-20.68-5.89-14.61,16.14-19.79,28.26-2,4.41-6.93,6.22-9.76,9.89C98.26,323,104.21,324.85,109.09,325.53Z" fill="#110802"/>
          <path d="M126.73,303.11c-12.8.73-13.1-17.29-1.8-19.65,6.19-4.92,11.2,5,12.14,10.15C137.65,299.21,131.87,303.26,126.73,303.11Zm-.17-8.16a3.33,3.33,0,0,0,2.31-.72c-.31-.73-.67-1.45-1-2.19-.19-.44-.36-.88-.55-1.32h0c-1.49.77-3,2.08-2.41,3.94h0A5.17,5.17,0,0,0,126.56,295Z" fill="#110802"/>
          <path d="M62.33,305.09C47.51,304.83,46,291.45,57.39,284c2.31-3.62-.81-9,3.11-12.39,3.32-6.76,15.17-4.94,20.06-.67C95.93,284.48,80.3,306.75,62.33,305.09Zm2-8.06c5.5-.62,11.94-3.65,13.65-9.3,1.83-5.1-1-11.5-6.66-12.22-1.24,1.43-3.31,1.09-4.94,1.65-.24,3.15.54,6.38-1,9.33C63.1,292,50.56,296.58,64.32,297Z" fill="#110802"/>
          <path d="M104.26,307.26c-5.28-1.91-15.55-8.09-21.76-10-4.55-1.56-2.35-8.86,2.3-7.61,7.35,2.5,14.43,6.21,21.22,9.9C110.35,301,108.82,307.78,104.26,307.26Z" fill="#110802"/>
          <path d="M121.15,274.37c-3.31-10.53-4.54-21.76-6.53-32.66-.36-3.62-2.46-7.72-.5-11.15,2.42-3.61,8.28-.9,7.28,3.23,1,5.75,2,11.47,3,17.23,1.51,6.77,2.24,13.81,4.41,20.39C130.26,276.11,123.33,278.89,121.15,274.37Z" fill="#110802"/>
          <path d="M210.59,227.24c-18.34-8.48-38.11-12.67-56.67-20.34-4.44-1.24-3.06-8.35,1.59-7.75,10.67,4.07,21.55,7.37,32.57,10.4,9.12,2.79,17.79,7.24,26.77,10.34a3.35,3.35,0,0,0-1.11-.21C221.12,220.85,217.06,231,210.59,227.24Z" fill="#110802"/>
          <path d="M234.86,173.34c-5.19-8.74-8.49-19.16-12.35-28.36-1.74-3.57,2.82-7.38,6-5,2.46,2.12,3.22,6.67,4.45,9.26,2.7,6.52,5.35,13.56,8.8,19.63C243.88,173.11,237.78,177,234.86,173.34Z" fill="#110802"/>
          <path d="M147.72,294.53a4,4,0,0,1,2.49-5,5,5,0,0,0-.81.39c10.21-3.62,21.29-4.46,31.57-8,4.07-.81,9.45-4.1,13-.68,2.19,2.21.25,6.65-2.66,6.58a48.63,48.63,0,0,0-9.5,2.4c-7.79,2.47-16.13,3.52-23.92,5.68C154.53,296.5,149.38,299.13,147.72,294.53Z" fill="#110802"/>
          <path d="M211.35,327.74a4.15,4.15,0,0,1-2.43-5.31c1.92-4.65,2.72-9.81,4.54-14.47,2.64-5-.35-17.25,7.8-16.57a4,4,0,0,1,2.4,6.11,69.84,69.84,0,0,1-2.68,14C218.27,316.24,219.24,329.45,211.35,327.74Z" fill="#110802"/>
          <path d="M189.85,356.94c-6.63-1.59-10.12-9.79-7.2-15.8,1.58-3.32,5.2-3.74,8.17-5.08.42-6.2,3.21-13.4,10.08-14.45,4.4-.48,9.54-1.58,13.44,1.11,6,4.64,7,13.75,4.36,20.48C214.52,354,200.68,359.17,189.85,356.94Zm3.85-7.76c9.6.5,21.07-6.5,17.59-17.33a3.88,3.88,0,0,1-2.12-1.32c-.29-.34-.56-.71-.85-1.06-2.09-.48-4.24.47-6.35.31a5.29,5.29,0,0,0-2.45,3.69c-.26,6.64-3,10.36-9.56,11.66-.43,2.47,1.53,4.14,3.88,4.06Z" fill="#110802"/>
          <path d="M278.64,184.86c.31-4,6-6.33,8.43-9.32,3-2.39,7.14-8.19,11-4.1,3.43,4.71-3.6,7.71-6.21,10.72-3,2.13-5.23,6.08-9,6.6A4.11,4.11,0,0,1,278.64,184.86Z" fill="#110802"/>
          <path d="M311.83,187.63c-13.39-.72-22.47-15.89-17.94-28.23,2.86-7.72,12.58-10.46,13.8-19.24,2.63-7,.71-15.3,5.22-21.54,7.62-9,22.36-9.31,31.57-2.66,13.34,5.07,20.55,21.8,17.67,35.22C358.57,173.58,333.57,189.19,311.83,187.63Zm6.53-8.47c15.85-2.55,32.5-12.61,35.3-29.28,0,.07,0,.09,0,.16a24.36,24.36,0,0,0-9.79-24.93c-2.2-.2-3.55-2.16-5.14-3.43-5.93-2.7-13-3.31-18.2,1a6.17,6.17,0,0,0-2.28,4.3c-.65,6.29-1.23,12.7-3.59,18.65-1.87,7.09-8.4,10.68-12.65,15.94C298.22,172.15,307.93,181,318.36,179.16Z" fill="#110802"/>
          <path d="M328.3,151.19c-5.7-.79-10.65-6.75-9.12-12.57,2.25-6,8.07-12.17,14.88-12.07,5-3.72,10.05,3.42,11.91,7.5C350.17,144.41,337.75,153.15,328.3,151.19Zm2.64-7.84c3.59-.2,10-3.13,6.75-7.41a3.88,3.88,0,0,1-2.18.74,4,4,0,0,1-3.28-1.58C328.65,137,324,142.82,330.94,143.35Z" fill="#110802"/>
          <path d="M277.9,113.88c7.64-.75,15.39-4.61,19.29-11.42,1.57-2.43,3.21-5.92,1.18-8.55a4.09,4.09,0,0,1-5.1-3c-10.3-4.19-9.2,6-11.13,12.62-1.11,4.06-6.26,5.65-6.42,10A8.82,8.82,0,0,0,277.9,113.88Zm-.63,8.24c-12.92-.18-11.58-14.52-3.3-20.56,1.79-3.81,1.09-9.38,3.77-12.7,3.46-7.65,12.73-8.53,19.51-4.91C308.11,86.1,310.31,99.1,304,107,298.5,116.22,287.78,121.72,277.27,122.12Z" fill="#110802"/>
          <path d="M313.47,131.84c-6.8-3.23-10.85-11.15-14.5-17.41-1.52-1.85-1.93-4.55.09-6.22a4,4,0,0,1,5.62.48c3.17,5,6.21,10.63,10.28,14.61a4,4,0,0,0,1.32,1C320.43,126.36,317.91,133,313.47,131.84Z" fill="#110802"/>
          <path d="M160,164.72c-2.9-1.35-2.72-5.79,0-7.23,5.57-2.6,11.13-5.31,16.55-8.26,4.72-1.9,16-10.28,18.6-2.4a4.06,4.06,0,0,1-3.28,4.65c-9.87,2.86-18.41,9.15-27.86,13.07A4.14,4.14,0,0,1,160,164.72Z" fill="#110802"/>
          <path d="M313,269.74c-11.16-1.78-21.76-6.62-31.95-11.2a4,4,0,0,1,4-6.89,133,133,0,0,0,12.56,4.78c5.59,3.42,12.29,3.59,18.12,5.94C319.14,264.59,317,270.33,313,269.74Z" fill="#110802"/>
          <path d="M309.87,309.64c-8.8-2.22-17.4-6.65-23.45-13.37-4.15-8.12,4.15-17.59,11.65-20.18,5.48-1.56,11.82-2.67,14.89-8.06,3.05-5,3.06-11,5.53-16.25a48.59,48.59,0,0,1,11.81-14.35c8.59-4.91,20.79-3.52,29.39.8,6.31,4.61,12.08,10.6,15,18C381.73,289.39,339.62,316.48,309.87,309.64Zm14.91-7.71c22.72-.82,60.82-35.51,32.3-53.6-2.5-.53-5.5-1.83-5.43-4.79-5-.75-10.12-1.51-15-.29-3.51,1.41-5.26,4.82-7.67,7.4-4,4.11-4.25,9.78-6,14.88-2.06,6.62-6.24,12.86-12.92,15.44-6.12,2.55-15,3-16.47,11a39.78,39.78,0,0,0,31.37,10Z" fill="#110802"/>
          <path d="M339.34,277.57c-19.13-1.71-15.24-27.4,2.73-25.57,7.21-3.95,13.92,4.2,13.53,11.22C356.63,272.16,347.87,279.2,339.34,277.57Zm2.52-8c5,.11,6.8-5.16,5-9.22-2.43,1.63-5-1.11-7.56-.37-3.12.46-4.78,3.37-4.41,6.36C335.86,268.82,339.46,269.34,341.86,269.61Z" fill="#110802"/>
          <path d="M305.61,333.54a4.26,4.26,0,0,1-.87-5.94c2.29-7,5.24-13.79,7.92-20.61a3.54,3.54,0,0,0-.15,1.11c-.08-5.18,7.75-5.44,7.94-.25-1,6.45-5,12.12-6.62,18.46C312.92,330.05,310.52,336.59,305.61,333.54Z" fill="#110802"/>
          <path d="M293.1,368.59c-9.21-1-20.66-1.79-27.14-9.23-4.88-6.1-2.47-16.41,5.28-18.71,4.71-2.09,11.05.44,14.9-3.54,2.79-2.86,3.87-6.21,6.89-8.72,5.61-5.42,18.71-4.93,21.35,3.23C328.61,347.49,313.89,371.66,293.1,368.59Zm5.55-8.31c6.55-.52,13-6.43,12.72-13.21.27-4.53-1-9.64-5.88-11l.37.11.31.15c-1.93-.66-4.48-1-5.14-3.31-2.27.49-4.23,3.15-5.25,4.84-4,7.66-11.3,10.36-19.37,10.09-2.85-.06-5.45,1.73-4.63,4.84s5.39,4.34,7.92,5.06A53.31,53.31,0,0,0,298.65,360.28Z" fill="#110802"/>
          <path d="M301.75,350.81c-5.1-1-3.74-9,0-10.73,4.54-3,8.77,3.78,6.1,7.63C306.62,349.79,304.21,351.41,301.75,350.81Z" fill="#110802"/>
          <path d="M373.84,192.68c-11.06-1.08-13.56-16.93-1.77-19.57-4-12.07,7.7-23.41,19.37-17.47,8,4.72,10.91,16.18,6.9,24.43C393.68,188.65,383.19,192.59,373.84,192.68Zm.34-8.24c12.1.4,24.74-10.89,13.49-21.46-5.73-2.77-9.52,3.19-7.62,8.38a4.13,4.13,0,0,1-.36,7.56c-2.35,1.08-4.86,1.79-7.13,3.07h0A2.72,2.72,0,0,0,374.18,184.44Z" fill="#110802"/>
          <path d="M377.62,178.84a45.6,45.6,0,0,1-22.75-11.35c-3-2-1.37-7.24,2.27-7.18,2.09-.07,3.52,1.58,5,2.84a38.53,38.53,0,0,0,17.37,7.78C384.63,172.17,382.79,180,377.62,178.84Z" fill="#110802"/>
          <path d="M340.59,238.67c-3.78-16.21-6.41-32.91-9.2-49.42-.74-4-3.24-11.53,2.77-12.25,4.9-.05,3.85,5.49,4.79,8.77,2.37,11.55,3.45,23.6,6.11,35a65,65,0,0,1,2.35,11.93c.53,2.61,1.4,6.08-1.69,7.44A4.1,4.1,0,0,1,340.59,238.67Z" fill="#110802"/>
          <path d="M225.11,281.65c5.63.36,29.63-3.23,26.26-11.71A4,4,0,0,0,246,268.2c-4.93,2.75-9.7,4.68-15.5,5.13-3.25.56-8.36-.81-9.3,3.51A4.09,4.09,0,0,0,225.11,281.65Zm44.39-75.43c0-7.93-8-16.37-16-15.62-7.17-1.49-12.81,6.53-13.52,12.92-1.9,7.66,3.82,14.54,11.41,15.45S269,214.52,269.5,206.22Zm.7-23.18c17.67,15.85,16.77,42.7,7.62,63.09-8.2,19.34-25.87,38-47.85,40.24-18.58,2.21-51.57-3.69-38.13-29.27,6-6.56,14.61-10.06,20.6-16.62a37.28,37.28,0,0,0,8.17-18c2.3-14.39,5.46-29.66,15.27-41,6.69-5.72,16.33-4.73,24.42-2.41C263,181.88,267,180.87,270.2,183Z" fill="#e95e44"/>
          <path d="M339.34,277.56c8.52,1.64,17.29-5.41,16.27-14.34.38-7-6.32-15.16-13.54-11.22C324.1,250.18,320.2,275.86,339.34,277.56Zm17.74-29.23c28.51,18.08-9.55,52.75-32.26,53.61a39.92,39.92,0,0,1-31.26-10c1.44-8,10.36-8.41,16.48-11,6.68-2.58,10.85-8.82,12.92-15.44,1.77-5.11,2-10.77,6-14.89,2.42-2.56,4.16-6,7.68-7.39,4.87-1.21,10-.47,15,.3C351.59,246.51,354.58,247.8,357.08,248.33Z" fill="#e95e44"/>
          <path d="M328.29,151.2c9.46,2,21.87-6.78,17.67-17.14-1.85-4.1-6.93-11.23-11.9-7.51-6.81-.1-12.64,6.06-14.89,12.06C317.65,144.44,322.6,150.41,328.29,151.2Zm15.55-26.09a24.34,24.34,0,0,1,9.8,24.93.92.92,0,0,0,0-.16c-2.79,16.68-19.44,26.72-35.29,29.29-10.44,1.83-20.13-7-16.36-17.61,4.23-5.26,10.77-8.85,12.64-15.93,2-5.12,2.75-10.58,3.31-16v0a4.42,4.42,0,0,0,.33-2.9h0a6.07,6.07,0,0,1,2.23-4c5.22-4.28,12.28-3.69,18.2-1C340.3,122.94,341.66,124.91,343.84,125.11Z" fill="#e95e44"/>
          <path d="M209,113.56c8.24,5.87,19.91-2.08,17.69-11.9-.73-3.9-5.41-8.72-9.58-7.29C206.38,91.52,199.68,107.49,209,113.56Zm19.88-22.72c3.27,6.89,6.08,14.22,6.43,21.93,0,11.15-5.91,22.57-16.49,27.23-6,3.28-12.81,5.59-19.73,4.53-5.74,0-9.36-3.47-6.53-9.13,2.3-4.61,7.23-7.86,7.71-13.4,1.34-7-.38-14.18,1.85-21.13,3.34-11.28,16.84-13.67,26.74-10Z" fill="#e95e44"/>
          <path d="M107.29,225.89c3.54-.68,9.94-2.17,7.86-7.11-2.4-4.47-6.89-.85-10.68-.4-2.53.05-5.26,1.39-5.13,4.32C99.51,226.88,104.31,227,107.29,225.89Zm22.18-45.5c10.79,4.05,23.53-9.65,13-18-2.08-1.67-4.88-3.83-7.67-2.74-6.9-4-13.92,3.59-14.37,10.32C120.13,175.16,124.58,179.4,129.47,180.39Zm20.17-22.11a35,35,0,0,1,6.21,25.48c-2.33,15-12.1,26.59-25.22,33.76-9.15,5.39-18.93,10.52-29.6,12.13-11.7.94-29.35-2.92-21.09-18.25,4.2-6.36,11.56-9.9,16.79-15.32,12-10.53,12.76-27.39,21.81-39.81,5.82-6.66,17.31-8,24.3-2.3C144.7,156.17,147.92,155.85,149.64,158.28Z" fill="#e95e44"/>
          <path d="M387.67,163c11.25,10.58-1.39,21.86-13.48,21.46a2.71,2.71,0,0,1-1.64-2.45h0c2.26-1.28,4.76-2,7.11-3.06a3.74,3.74,0,0,0,1.52-1l.12-.12c1.85-1.9,1.75-5.65-1.36-6.73C378.27,166,382.05,160.25,387.67,163Z" fill="#e95e44"/>
          <path d="M307.87,347.72c2.68-3.86-1.55-10.67-6.09-7.63-3.77,1.7-5.13,9.7,0,10.72C304.22,351.41,306.63,349.79,307.87,347.72Zm-1.7-11.35c4.35,1.55,5.46,6.4,5.19,10.7.28,6.79-6.17,12.69-12.7,13.21a53.62,53.62,0,0,1-19-2.39c-2.53-.72-7-1.85-7.9-5.06s1.77-4.9,4.61-4.85c8.08.28,15.41-2.41,19.38-10.07,1-1.71,3-4.36,5.24-4.85C301.68,335.34,304.23,335.71,306.17,336.37Z" fill="#e95e44"/>
          <path d="M211.29,331.85c3.48,10.84-8,17.82-17.6,17.34-2.28,0-4.15-1.64-3.72-4.05,6.55-1.31,9.3-5,9.56-11.67a5.21,5.21,0,0,1,2.45-3.69c2.1.17,4.25-.79,6.34-.31.29.35.56.73.86,1.06A3.82,3.82,0,0,0,211.29,331.85Z" fill="#e95e44"/>
          <path d="M126.73,303.11c5.14.15,10.92-3.9,10.34-9.5-.94-5.14-6-15.07-12.15-10.16C113.62,285.82,113.92,303.84,126.73,303.11Zm15.32-11.28c2,18.73-16.12,31.38-33,33.7-4.88-.68-10.84-2.56-8.55-8.74,2.83-3.65,7.81-5.47,9.76-9.89,5.18-12.11-.9-34.13,19.79-28.26C133.89,283.14,140.11,286,142.05,291.83Z" fill="#e95e44"/>
          <path d="M71.32,275.51c5.67.71,8.48,7.12,6.65,12.23-1.71,5.64-8.14,8.67-13.65,9.3-13.75-.47-1.23-5,1-10.54,1.56-3,.76-6.19,1-9.35C68,276.6,70.08,276.93,71.32,275.51Z" fill="#e95e44"/>
          <path d="M298.37,93.9c2,2.64.4,6.13-1.19,8.56-3.9,6.82-11.64,10.67-19.29,11.42a8.8,8.8,0,0,1-2.17-.3c.15-4.35,5.31-5.94,6.42-10C284.06,97,283,86.77,293.28,91A4.06,4.06,0,0,0,298.37,93.9Z" fill="#e95e44"/>
          <path d="M127.87,292c.33.73.68,1.46,1,2.19a3.24,3.24,0,0,1-2.3.72,5.07,5.07,0,0,1-1.65-.29h0c-.54-1.87.93-3.18,2.42-4v0C127.51,291.16,127.67,291.61,127.87,292Z" fill="#fefefe"/>
          <path d="M221.76,287.63c-12.43-.38-27.18-1.09-36.1-10.77-4.34-.92-3.71-7.8.82-7.81,2.59-.43,4.71,1.5,5.85,3.26a22.31,22.31,0,0,0,8.06,4.31c14.73,4.24,31.11,4.2,44.29-4.31,18.57-10.05,31.82-28.38,37.31-48.52.64-3.22.05-8.43,4.55-8.65a4,4,0,0,1,4.15,3.87c.1,7-2.41,13.4-5.35,19.52a110.05,110.05,0,0,1-12.09,20.92C260.35,273.88,241.79,287.66,221.76,287.63Z" fill="#fefefe"/>
          <path d="M304,181.84a4.25,4.25,0,0,1-2.44-2.63c-5.69-4.36,1-11.8,5.23-6.17,20.49,6,39.41-11.1,45.31-29.54,1.3-4.45,7.87-4.25,8.21.63-1,19.75-15.64,37.74-36.27,38.15C317.41,182.29,310.41,184.28,304,181.84Z" fill="#fefefe"/>
          <path d="M319.05,304.65c-8.85.11-18-.49-25.52-5.41-5.89,1.05-7.67-7.28-1.55-8,3.67-.54,6.64,1.4,9.63,3.16,21.45,6.3,45.83-.58,59.79-18,2.12-2.81,3.89-8.63,8.33-7.12,6.46,3.12-1.23,10.83-3.7,14.41C354.08,296.62,336.94,305.32,319.05,304.65Z" fill="#fefefe"/>
          <path d="M90.65,232.16c-5.75-1.29-11.91-3.78-16.32-7.64-1.57-1.15-3.45-2.41-3.45-4.57A4,4,0,0,1,77.69,217c20.33,17.18,49,2.11,63.8-15.27a54.81,54.81,0,0,0,15.16-27.67A4.06,4.06,0,0,1,161,171c12,2.47-9.72,34.82-15.48,38.5C131.86,224.44,111.31,235.4,90.65,232.16Z" fill="#fefefe"/>
          <path d="M197.21,147.91c-2.88.2-6.57-.39-6.7-3.95a4,4,0,0,1,3.9-4.12c11.62.59,23.31-3.48,30.93-12.25a38.55,38.55,0,0,0,8.42-10.7c1.07-3.16,1.9-8.44,6.4-7.51,3.44.94,3.6,4.4,2.25,7a21,21,0,0,1-3.14,7.18C230.2,137.82,214.47,148.41,197.21,147.91Z" fill="#fefefe"/>
          <path d="M214.37,111.59a6.31,6.31,0,0,1-3.43-4.37,7.64,7.64,0,0,1-.06-3,4,4,0,0,1,3-5.54,4.09,4.09,0,0,1,6,.14C228.72,101.51,222.37,115.81,214.37,111.59Z" fill="#fefefe"/>
          <path d="M131.65,177c-7.28-2.47-7.66-12.07.26-13.81,2.61-.62,5.22.89,7.7,1.42C151.3,170.13,141.93,181.93,131.65,177Z" fill="#fefefe"/>
          <path d="M248.11,212.11c-10.22-6.8,5.61-24.77,11.69-12.34,5,.88,6.82,7,2.35,9.85C258.05,211.68,252.51,215,248.11,212.11Z" fill="#fefefe"/>
          <path d="M329.2,148c-9.56-1.87-4-17.61,4-15.54C345.37,134.14,340,150.49,329.2,148Z" fill="#fefefe"/>
          <path d="M337.84,272.64c-11.3-4.19-3.83-20.07,6.8-15.57C354.42,262.53,348.24,275.54,337.84,272.64Z" fill="#fefefe"/>
          <path d="M218.6,295.53c-23.75.19-47.27-14.42-35.85-40.65,4-7.7,12.41-11.7,18.88-16.76l-.18.13-.22.16c11.77-7.52,10.47-22.77,14-34.64,4.1-13.37,10.13-31.07,25.56-34.2C251.34,167,262,170.69,272,174c8.15,3.38,12.7,11.79,16.15,19.46C307.85,236.81,268,300.73,218.6,295.53ZM230,286.37c22-2.22,39.65-20.9,47.86-40.25,9.15-20.38,10-47.23-7.64-63.08-3.2-2.18-7.2-1.16-9.9-3.94-8.08-2.31-17.72-3.32-24.41,2.42-9.82,11.3-13,26.56-15.26,41a37.36,37.36,0,0,1-8.19,18c-6,6.55-14.57,10.06-20.59,16.61-13.51,25.71,19.86,31.55,38.4,29.24Z" fill="#110802"/>
          <path d="M251.38,219c-7.59-.92-13.32-7.8-11.4-15.46.69-6.39,6.35-14.41,13.5-12.91,8-.76,16.06,7.67,16,15.61C269,214.53,259,219.79,251.38,219Zm1.76-8.23c6.44-.72,11.48-5.58,4.35-10.23a4.17,4.17,0,0,1-4.34-.16,7.12,7.12,0,0,1-1.61-1.67c-3,2-4.48,6.53-3.11,9.85A7.44,7.44,0,0,0,253.14,210.75Z" fill="#110802"/>
          <path d="M225.1,281.64a4.09,4.09,0,0,1-3.92-4.81c.95-4.31,6.07-2.93,9.31-3.51,5.81-.43,10.57-2.38,15.49-5.13a4,4,0,0,1,5.38,1.74C254.75,278.42,230.74,282,225.1,281.64Z" fill="#110802"/>
          <path d="M199.51,153.14c-13.86-.06-20.72-12.68-12.73-24.17,1.8-3,5.36-5.32,5.61-9.1.81-8.55-.61-17.83,3.87-25.65,5.2-10.9,18.55-14.66,29.57-12.49,3.9.67,8.73,1.71,10.64,5.53,11.86,20,9.39,49.46-13.48,60.13C215.89,151.45,207.67,153.89,199.51,153.14Zm-.38-8.6c6.91,1.05,13.77-1.26,19.73-4.53,10.59-4.67,16.44-16.09,16.49-27.25-.34-7.7-3.16-15-6.43-21.91l0,0c-9.89-3.63-23.39-1.25-26.73,10-2.24,6.95-.53,14.11-1.87,21.13-.47,5.54-5.4,8.79-7.71,13.4C189.77,141.06,193.4,144.49,199.13,144.54Z" fill="#110802"/>
          <path d="M209,113.56c-9.36-6.08-2.65-22,8.11-19.2,4.17-1.41,8.86,3.39,9.58,7.31C229,111.48,217.28,119.43,209,113.56Zm6.23-6a3.57,3.57,0,0,0,3.45-4.46,11,11,0,0,0-1.54-1.17,9.41,9.41,0,0,1-2.84.22c-2.13,1.13-2.45,4.08-.13,5.19-.16-.1-.3-.18-.43-.28A4,4,0,0,0,215.27,107.51Z" fill="#110802"/>
          <path d="M97,238.24c-16.63.47-33.23-10-25.55-28.37,3.69-8.62,12.42-13.19,19-19.28,11.33-10.22,12-26.37,20.83-38.29,6.57-9.18,19.26-12,29.7-8.6,4.14,2,8.16,4.13,12.33,6.07,7.8,6.17,10.51,16.95,11.73,26.42.86,20.66-12.07,39.21-29.81,48.78C123.53,231.68,110.84,238.46,97,238.24Zm4-8.59c10.68-1.62,20.45-6.73,29.6-12.12,13.13-7.18,22.88-18.76,25.22-33.76a35,35,0,0,0-6.21-25.49c-1.72-2.43-4.95-2.11-6.79-4.32-7-5.63-18.49-4.35-24.31,2.31-9.05,12.42-9.85,29.28-21.81,39.81-5.23,5.43-12.59,9-16.8,15.31C71.68,226.74,89.34,230.59,101,229.65Z" fill="#110802"/>
          <path d="M129.47,180.4c-4.89-1-9.34-5.23-9-10.46.46-6.74,7.46-14.29,14.36-10.33,2.8-1.09,5.6,1.07,7.68,2.75C153,170.75,140.27,184.44,129.47,180.4Zm4.22-7.6a4.88,4.88,0,0,0,2.62-.54,5.38,5.38,0,0,0,1.86-2.67,11.05,11.05,0,0,0-2.76-2.29c-1.53.8-3.23.18-4.62-.67C126.7,170,129.22,172.72,133.69,172.8Z" fill="#110802"/>
          <path d="M99.35,222.69c-.14-2.92,2.59-4.26,5.13-4.3,3.78-.46,8.27-4.08,10.67.38,2.08,4.95-4.32,6.43-7.86,7.12C104.31,227,99.52,226.89,99.35,222.69Z" fill="#110802"/>
          <path d="M108,334.19c-11.31-1.34-19.41-8.67-15.19-20.55,1.87-5.05,8-6.61,10.31-11.22,3.3-16.6,2.56-35.92,25.63-32.43,4.92.5,8.84,3.62,12.31,6.9,6.26,5,11.16,12,9.73,20.4C149,318.48,128,333.15,108,334.19Zm1.14-8.66c16.85-2.32,35-15,33-33.7-1.94-5.82-8.17-8.69-12-13.18-20.68-5.89-14.61,16.14-19.79,28.26-2,4.41-6.93,6.22-9.76,9.89C98.26,323,104.21,324.85,109.09,325.53Z" fill="#110802"/>
          <path d="M126.73,303.11c-12.8.73-13.1-17.29-1.8-19.65,6.19-4.92,11.2,5,12.14,10.15C137.65,299.21,131.87,303.26,126.73,303.11Zm-.17-8.16a3.34,3.34,0,0,0,2.31-.72c-.31-.73-.67-1.45-1-2.19-.19-.44-.36-.88-.55-1.32h0c-1.49.77-3,2.08-2.41,3.94h0A5.17,5.17,0,0,0,126.56,295Z" fill="#110802"/>
          <path d="M62.33,305.09C47.51,304.83,46,291.45,57.39,284c2.31-3.62-.81-9,3.11-12.39,3.32-6.76,15.17-4.94,20.06-.67C95.93,284.48,80.3,306.75,62.33,305.09Zm2-8.06c5.5-.62,11.94-3.65,13.65-9.3,1.83-5.1-1-11.5-6.66-12.22-1.24,1.43-3.31,1.09-4.94,1.65-.24,3.15.54,6.38-1,9.33C63.1,292,50.56,296.58,64.32,297Z" fill="#110802"/>
          <path d="M104.26,307.26c-5.28-1.91-15.55-8.09-21.76-10-4.55-1.56-2.35-8.86,2.3-7.61,7.35,2.5,14.43,6.21,21.22,9.91C110.35,301,108.82,307.78,104.26,307.26Z" fill="#110802"/>
          <path d="M121.15,274.37c-3.31-10.53-4.54-21.76-6.53-32.66-.36-3.62-2.46-7.72-.5-11.15,2.42-3.61,8.28-.9,7.28,3.23,1,5.75,2,11.47,3,17.23,1.51,6.77,2.24,13.81,4.41,20.39C130.26,276.11,123.33,278.89,121.15,274.37Z" fill="#110802"/>
          <path d="M210.59,227.24c-18.34-8.48-38.11-12.67-56.67-20.34-4.44-1.24-3.06-8.35,1.59-7.75,10.67,4.07,21.55,7.37,32.57,10.4,9.12,2.79,17.79,7.24,26.77,10.34a3.35,3.35,0,0,0-1.11-.21C221.12,220.85,217.06,231,210.59,227.24Z" fill="#110802"/>
          <path d="M234.86,173.34c-5.19-8.74-8.49-19.16-12.35-28.36-1.74-3.57,2.82-7.38,6-5,2.46,2.12,3.22,6.67,4.45,9.26,2.7,6.52,5.35,13.56,8.8,19.63C243.88,173.11,237.78,177,234.86,173.34Z" fill="#110802"/>
          <path d="M147.72,294.53a4,4,0,0,1,2.49-5,5,5,0,0,0-.81.39c10.21-3.62,21.29-4.46,31.57-8,4.07-.81,9.45-4.1,13-.68,2.19,2.21.25,6.65-2.66,6.58a48.63,48.63,0,0,0-9.5,2.4c-7.79,2.47-16.13,3.52-23.92,5.68C154.53,296.5,149.38,299.13,147.72,294.53Z" fill="#110802"/>
          <path d="M211.35,327.74a4.15,4.15,0,0,1-2.43-5.31c1.92-4.65,2.72-9.81,4.54-14.47,2.64-5-.35-17.25,7.8-16.57a4,4,0,0,1,2.4,6.11,69.84,69.84,0,0,1-2.68,14C218.27,316.24,219.24,329.45,211.35,327.74Z" fill="#110802"/>
          <path d="M189.85,356.94c-6.63-1.59-10.12-9.79-7.2-15.8,1.58-3.32,5.2-3.74,8.17-5.08.42-6.2,3.21-13.4,10.08-14.45,4.4-.48,9.54-1.58,13.44,1.11,6,4.64,7,13.75,4.36,20.48C214.52,354,200.68,359.17,189.85,356.94Zm3.85-7.76c9.6.5,21.07-6.5,17.59-17.33a3.88,3.88,0,0,1-2.12-1.32c-.29-.34-.56-.71-.85-1.06-2.09-.48-4.24.47-6.35.31a5.29,5.29,0,0,0-2.45,3.69c-.26,6.64-3,10.36-9.56,11.66-.43,2.47,1.53,4.14,3.88,4.06Z" fill="#110802"/>
          <path d="M278.64,184.86c.31-4,6-6.33,8.43-9.32,3-2.39,7.14-8.19,11-4.1,3.43,4.71-3.6,7.71-6.21,10.72-3,2.13-5.23,6.08-9,6.6A4.11,4.11,0,0,1,278.64,184.86Z" fill="#110802"/>
          <path d="M311.83,187.63c-13.39-.72-22.47-15.89-17.94-28.23,2.86-7.72,12.58-10.46,13.8-19.24,2.63-7,.71-15.3,5.22-21.54,7.62-9,22.36-9.31,31.57-2.66,13.34,5.07,20.55,21.8,17.67,35.22C358.57,173.58,333.57,189.19,311.83,187.63Zm6.53-8.47c15.85-2.55,32.5-12.61,35.3-29.28,0,.07,0,.09,0,.16a24.36,24.36,0,0,0-9.79-24.93c-2.2-.2-3.55-2.16-5.14-3.43-5.93-2.7-13-3.31-18.2,1a6.17,6.17,0,0,0-2.28,4.3c-.65,6.29-1.23,12.7-3.59,18.65-1.87,7.09-8.4,10.68-12.65,15.94C298.22,172.15,307.93,181,318.36,179.16Z" fill="#110802"/>
          <path d="M328.3,151.19c-5.7-.79-10.65-6.75-9.12-12.57,2.25-6,8.07-12.17,14.88-12.07,5-3.72,10.05,3.42,11.91,7.5C350.17,144.41,337.75,153.15,328.3,151.19Zm2.64-7.84c3.59-.2,10-3.13,6.75-7.41a3.88,3.88,0,0,1-2.18.74,4,4,0,0,1-3.28-1.58C328.65,137,324,142.82,330.94,143.35Z" fill="#110802"/>
          <path d="M277.9,113.88c7.64-.75,15.39-4.61,19.29-11.42,1.57-2.43,3.21-5.92,1.18-8.55a4.09,4.09,0,0,1-5.1-3c-10.3-4.19-9.2,6-11.13,12.62-1.11,4.06-6.26,5.65-6.42,10A8.82,8.82,0,0,0,277.9,113.88Zm-.63,8.24c-12.92-.18-11.58-14.52-3.3-20.56,1.79-3.81,1.09-9.38,3.77-12.7,3.46-7.65,12.73-8.53,19.51-4.91C308.11,86.1,310.31,99.1,304,107,298.5,116.22,287.78,121.72,277.27,122.12Z" fill="#110802"/>
          <path d="M313.47,131.84c-6.8-3.23-10.85-11.15-14.5-17.41-1.52-1.85-1.93-4.55.09-6.22a4,4,0,0,1,5.62.48c3.17,5,6.21,10.63,10.28,14.61a4,4,0,0,0,1.32,1C320.43,126.36,317.91,133,313.47,131.84Z" fill="#110802"/>
          <path d="M160,164.72c-2.9-1.35-2.72-5.79,0-7.23,5.57-2.6,11.13-5.31,16.55-8.26,4.72-1.9,16-10.28,18.6-2.4a4.06,4.06,0,0,1-3.28,4.65c-9.87,2.86-18.41,9.15-27.86,13.07A4.14,4.14,0,0,1,160,164.72Z" fill="#110802"/>
          <path d="M313,269.74c-11.16-1.78-21.76-6.62-31.95-11.2a4,4,0,0,1,4-6.89,133,133,0,0,0,12.56,4.78c5.59,3.42,12.29,3.59,18.12,5.94C319.14,264.59,317,270.33,313,269.74Z" fill="#110802"/>
          <path d="M309.87,309.64c-8.8-2.22-17.4-6.65-23.45-13.37-4.15-8.12,4.15-17.59,11.65-20.18,5.47-1.56,11.82-2.67,14.89-8.06,3.05-5,3.06-11,5.53-16.25a48.59,48.59,0,0,1,11.81-14.35c8.59-4.91,20.79-3.52,29.39.8,6.31,4.61,12.08,10.6,15,18C381.73,289.39,339.62,316.48,309.87,309.64Zm14.91-7.71c22.72-.82,60.82-35.51,32.3-53.6-2.5-.53-5.5-1.83-5.43-4.79-5-.75-10.12-1.51-15-.29-3.51,1.41-5.26,4.82-7.67,7.4-4,4.11-4.25,9.78-6,14.88-2.06,6.62-6.24,12.86-12.92,15.44-6.12,2.55-15,3-16.47,11a39.78,39.78,0,0,0,31.37,10Z" fill="#110802"/>
          <path d="M339.34,277.57c-19.13-1.71-15.24-27.4,2.73-25.57,7.21-3.94,13.92,4.2,13.53,11.22C356.63,272.16,347.87,279.2,339.34,277.57Zm2.52-8c5,.11,6.8-5.16,5-9.22-2.44,1.63-5-1.11-7.56-.37-3.12.46-4.78,3.37-4.41,6.36C335.86,268.82,339.46,269.34,341.86,269.61Z" fill="#110802"/>
          <path d="M305.61,333.54a4.25,4.25,0,0,1-.87-5.94c2.29-7,5.24-13.79,7.92-20.61a3.56,3.56,0,0,0-.15,1.12c-.08-5.19,7.75-5.45,7.94-.26-1,6.45-5,12.12-6.62,18.46C312.92,330.05,310.52,336.59,305.61,333.54Z" fill="#110802"/>
          <path d="M293.1,368.59c-9.21-1-20.66-1.78-27.14-9.23-4.88-6.1-2.47-16.41,5.28-18.71,4.71-2.09,11.05.44,14.9-3.54,2.79-2.86,3.87-6.21,6.89-8.72,5.61-5.42,18.71-4.93,21.35,3.23C328.61,347.49,313.89,371.66,293.1,368.59Zm5.55-8.31c6.55-.52,13-6.43,12.72-13.21.27-4.53-1-9.64-5.88-11l.37.11.31.15c-1.93-.66-4.48-1-5.14-3.31-2.27.49-4.23,3.15-5.25,4.84-4,7.66-11.3,10.36-19.37,10.09-2.86-.06-5.45,1.73-4.63,4.84s5.39,4.34,7.92,5.06A53.28,53.28,0,0,0,298.65,360.28Z" fill="#110802"/>
          <path d="M301.75,350.81c-5.1-1-3.74-9,0-10.73,4.54-3,8.77,3.78,6.1,7.63C306.62,349.79,304.21,351.41,301.75,350.81Z" fill="#110802"/>
          <path d="M373.84,192.68c-11.06-1.08-13.56-16.93-1.77-19.57-4-12.06,7.7-23.41,19.37-17.47,8,4.72,10.91,16.18,6.9,24.43C393.68,188.65,383.19,192.59,373.84,192.68Zm.34-8.24c12.1.4,24.74-10.89,13.49-21.46-5.73-2.77-9.52,3.19-7.62,8.38a4.13,4.13,0,0,1-.36,7.56c-2.35,1.08-4.86,1.79-7.13,3.07h0A2.72,2.72,0,0,0,374.18,184.44Z" fill="#110802"/>
          <path d="M377.62,178.84a45.67,45.67,0,0,1-22.76-11.35c-3-2-1.36-7.24,2.28-7.18,2.09-.07,3.52,1.58,5,2.84a38.53,38.53,0,0,0,17.37,7.78C384.63,172.17,382.79,180,377.62,178.84Z" fill="#110802"/>
          <path d="M340.59,238.67c-3.78-16.21-6.41-32.91-9.2-49.42-.74-4-3.24-11.53,2.77-12.24,4.9-.06,3.85,5.48,4.79,8.76,2.37,11.55,3.45,23.6,6.11,35a65,65,0,0,1,2.35,11.93c.53,2.61,1.4,6.08-1.69,7.44A4.1,4.1,0,0,1,340.59,238.67Z" fill="#110802"/>
          <path d="M275.4,219.25c-3.65-2.69-.44-6.35,1.46-9,1.73-2.83,5-6.58,8.31-3.62,2.05,1.86,1.34,4.72-.46,6.47C282.34,215.92,280,222.2,275.4,219.25Z" fill="#110802"/>
          <path d="M275.38,230a4.06,4.06,0,0,1,.48-5.63c3-2.46,7.86-8.29,11.42-3.54,1.45,2.27.17,5-2.09,6.11C282.39,229,278.83,233.81,275.38,230Z" fill="#110802"/>
          <path d="M140.47,205.1c-5.17.11-5.54-7.78-.27-8s14.18-8.29,17-.59c.48,2.66-1.76,4.63-4.26,4.82C148.8,202.47,144.79,205.12,140.47,205.1Z" fill="#110802"/>
          <path d="M137.16,214.75c-7.13,1-6.94-9.6.05-7.82a6.64,6.64,0,0,0-1-.23c3.89.49,10.91-1.92,11.45,3.82C147.59,216,140.89,214.55,137.16,214.75Z" fill="#110802"/>
          <path d="M248.87,284.12a4.11,4.11,0,0,1,1.49-5.18c8.46-3.61,12.45-12.64,17-20.06,12.59-20.73,9.78-45.94,5.87-68.76-2.51-4.82,4.82-8.55,7.12-3.71a147.18,147.18,0,0,1,3.21,52.9c-2,11.45-7.7,21.76-13.4,31.7-3.59,4.8-6.61,10.36-12,13.4a12.08,12.08,0,0,1-5.65,2A3.76,3.76,0,0,1,248.87,284.12Z" fill="#110802" fill-opacity="0.25"/>
          <path d="M326.66,184.73c-2.83-3.49,1.14-6.48,3.64-8.6,3.59-2.63,6.32-6.09,9.24-9.42,6.93-10.4,12.77-22.86,9.81-35.4-.12-5.08,7.49-5.56,8-.5a31.41,31.41,0,0,1,1,10.08c-2,15.22-9.3,30.08-21,40.17-2.25,1.65-5,5.11-7.78,5.11A3.92,3.92,0,0,1,326.66,184.73Z" fill="#110802" fill-opacity="0.25"/>
          <path d="M373.68,190.26c-2.69-3.35.72-6.37,3.63-7.86,4.5-4.09,8.83-9.5,10.47-15.44-2-5.58,6.5-7.66,7.89-2.1,2.28,6-10.82,26.63-19,26.63A4.19,4.19,0,0,1,373.68,190.26Z" fill="#110802" fill-opacity="0.25"/>
          <path d="M270.26,117.25c-.69-4.32,4.55-4.93,7.18-7,7.71-3.57,14.13-9.36,17.19-17.42.37-4.73,7.66-4.62,7.93.1.2,1.87-.71,3.64-1.51,5.28a37.4,37.4,0,0,1-16,17.29c-2.9,1.26-7.49,5.08-10.93,5.08C272.46,120.58,271.08,119.71,270.26,117.25Z" fill="#110802" fill-opacity="0.25"/>
          <path d="M318.56,309c-3.51-1.14-3.68-6.42-.3-7.81,4.5-.91,8.95-1.89,12.79-4.44C341.69,291,349.56,281,355.87,271a68.24,68.24,0,0,0,6.76-15.26,4,4,0,0,1,3.86-3.62c5.86.2,4.09,6.91,2.4,10.44,5.08.23,4.85,6.42,1.92,9.11-6.21,10.61-15.56,19.66-25.86,26.43-7.45,4.13-15.25,11.13-24.09,11.13A16.27,16.27,0,0,1,318.56,309Z" fill="#110802" fill-opacity="0.25"/>
          <path d="M286.7,358.26c6.53-1.67,13.55-4,17.65-9.86a25.26,25.26,0,0,0,3.74-7,4,4,0,0,1,7.41.68c-.23,11.86-15.19,23.18-26.42,23.67l-.3,0C285,365.77,283.31,360.27,286.7,358.26Z" fill="#110802" fill-opacity="0.25"/>
          <path d="M193.75,357a4,4,0,0,1-3-4.8c1.47-4.27,6.78-5,10.24-7.11a36.69,36.69,0,0,0,6.07-4.32,44,44,0,0,0,4.49-5.72,4.16,4.16,0,0,1,4.33-3.1c9,2.62-1.21,12.94-5,16.17-3.93,3.36-8.75,5.29-13.32,7.61a4,4,0,0,1-3,1.38A3.64,3.64,0,0,1,193.75,357Z" fill="#110802" fill-opacity="0.25"/>
          <path d="M106.39,327.49c-3-.23-7.62.43-8.24-3.54-.52-5,4-4.86,8.86-4.73,2.6.08,5.28.16,7.28-.56,12.93-2.75,22.28-12.08,30.23-21.71,3.74-3.28,9.09,2.31,5.65,5.9-10,13.25-24.9,24.68-42.13,24.68C107.49,327.53,106.94,327.51,106.39,327.49Z" fill="#110802" fill-opacity="0.25"/>
          <path d="M59.32,300.12h.1c-5.12,0-5.35-7.78-.18-8A17,17,0,0,0,72,288.34c3.44-2.34,5.31-10.59,10.66-6.47a4.2,4.2,0,0,1-.05,6.05,23.58,23.58,0,0,1-20.63,12.36A23,23,0,0,1,59.32,300.12Z" fill="#110802" fill-opacity="0.25"/>
          <path d="M97.21,234c-5-2.17-2.15-9.8,3.05-7.6,13.56-5.26,25.89-14,34.61-25.58,6.1-7.9,13.14-16,15.5-25.87.35-2.62,0-5.43,1.81-7.61,2.4-2.87,7-1,7.46,2.51,3.27,16-6.67,30.81-15.9,42.9-3.06,3.94-16.38,19.16-20.14,10.43-5.72,4.68-13.3,7.34-19.77,10.49a11.54,11.54,0,0,1-4,.9A5.79,5.79,0,0,1,97.21,234Z" fill="#110802" fill-opacity="0.25"/>
          <path d="M215,145c-1.59-2.43,0-4.79,1.92-6.38,6-5.1,9.12-11.9,11.35-19.21,1.71-5.71,3.36-11.72,2.73-17.69-.79-5.1,7-6.49,7.86-1.36.94,15.28-4.22,32.68-15.45,43.37a6.61,6.61,0,0,1-5.17,3.08A3.75,3.75,0,0,1,215,145Z" fill="#110802" fill-opacity="0.25"/>
        </g>
      </g>
    </g>
  </g>
</svg>
