<svg width="100" height="101" viewBox="0 0 100 101" fill="none" xmlns="http://www.w3.org/2000/svg">
  <path
    d="M50 100.521C77.6142 100.521 100 78.1357 100 50.5215C100 22.9072 77.6142 0.521484 50 0.521484C22.3858 0.521484 0 22.9072 0 50.5215C0 78.1357 22.3858 100.521 50 100.521Z"
    fill="#98D7C3" />
  <path
    d="M45.2497 55.756C42.1348 55.756 15.3403 54.9661 17.3388 50.5583C16.8122 48.2332 25.9754 45.7977 27.8713 45.0762C36.7448 42.6195 45.9686 42.1561 55.0817 42.9697C60.261 43.4542 65.4325 44.5206 70.2879 46.4138C78.3057 49.1285 72.6867 52.0854 67.8154 53.5073C60.4664 55.3136 52.7909 55.469 45.2497 55.756ZM46.9692 54.0471C53.9864 53.4836 67.244 53.8207 72.5919 49.3892C62.9073 44.3047 50.3448 43.8597 39.6254 44.5943C34.2592 45.3026 28.8666 46.211 23.8268 48.2622C22.0969 48.9126 20.2721 49.4972 18.8661 50.7242C22.3075 52.4357 26.1018 52.7253 29.8224 53.144C35.5415 53.689 41.2711 54.1682 46.9692 54.0471Z"
    fill="#161922" />
  <path
    d="M39.6914 68.2475C30.7757 67.6182 19.6245 64.2978 17.4417 54.429C17.177 53.1392 16.9854 51.8355 16.8677 50.5241C17.1152 49.1628 18.7109 49.6368 18.6003 50.9217C18.9373 59.5925 25.8597 64.1583 33.7169 65.6355C39.2648 67.031 45.005 66.6229 50.6557 66.249C58.5181 65.9857 66.7966 62.6285 71.0754 55.7719C71.9952 54.1024 72.6617 52.3054 73.0528 50.4399C73.2345 49.4419 74.8697 49.6973 74.717 50.7163C74.6232 51.3424 74.4752 51.9591 74.2746 52.5595C72.2497 59.8111 65.5353 64.5374 58.655 66.7413C55.3689 67.684 51.9327 67.8736 48.5386 68.0816C45.5948 68.2659 42.6405 68.4239 39.6914 68.2475Z"
    fill="#161922" />
  <path
    d="M21.8969 53.2836C21.4467 51.9433 23.4294 51.8143 24.2667 51.3983C26.152 50.7532 28.0689 50.1976 30.0042 49.7289C36.8187 48.0779 43.9255 47.6224 50.8953 48.0121C57.3938 48.2754 63.9713 49.0179 70.1959 50.9585C70.9858 51.048 71.1754 52.2356 70.4276 52.5384C69.8589 52.7648 69.3112 52.3831 68.7662 52.2514C62.9733 50.6716 56.9172 49.9132 50.9295 49.6999C45.6186 49.4919 40.2628 49.4366 35.0308 50.4898C32.0459 50.9456 29.1017 51.6368 26.2257 52.5568C25.3884 52.8201 24.5511 53.0835 23.7322 53.4073C23.1397 53.6812 22.2787 54.0814 21.8969 53.2836Z"
    fill="#161922" />
  <path
    d="M72.8343 51.3799C72.4286 52.9099 71.8379 54.3848 71.0754 55.7719C66.7966 62.618 58.5208 65.991 50.6557 66.249C45.005 66.6229 39.2675 67.0389 33.7169 65.6381C26.3837 64.2557 19.8642 60.1876 18.7556 52.6016C24.2062 55.2347 42.6958 55.7613 45.2499 55.7613C52.7911 55.4743 60.4666 55.319 67.8288 53.5153C69.6403 52.9808 71.5546 52.2409 72.8343 51.3799Z"
    fill="#308D8A" />
  <path
    d="M72.592 49.3919C71.822 50.0104 70.9739 50.5248 70.0695 50.9217C63.887 49.0074 57.3516 48.2728 50.8979 48.0253C43.9254 47.6251 36.8213 48.0911 30.0095 49.7421C28.0786 50.2108 26.1652 50.7672 24.2693 51.4114C23.8244 51.6326 23.0581 51.7722 22.5051 52.0566C21.2497 51.7482 20.0307 51.3068 18.8689 50.74C20.2749 49.5104 22.0997 48.9284 23.8296 48.2781C28.8667 46.2295 34.2593 45.3185 39.6282 44.6101C50.345 43.8623 62.9075 44.3047 72.592 49.3919Z"
    fill="#308D8A" />
  <path
    d="M50.9321 49.7025C56.4723 49.8662 61.9809 50.6004 67.3706 51.8933C61.0512 53.7102 52.2461 53.6233 46.9693 54.0472C41.2713 54.1683 35.5417 53.6891 29.8252 53.144C28.4955 52.994 27.1552 52.8623 25.8255 52.6727L26.2284 52.5463C29.1046 51.6266 32.0487 50.9347 35.0334 50.4767C40.2654 49.4445 45.6212 49.4945 50.9321 49.7025Z"
    fill="#FFD751" />
  <path
    d="M44.6443 55.0768C43.8754 54.4264 44.0729 53.1651 44.1335 52.2883C44.8418 49.0759 48.3254 46.901 51.5272 47.1458C54.134 47.0826 56.2668 48.6731 57.9389 50.5162C58.5603 51.2535 60.78 53.5232 59.7636 54.3816C58.555 55.1926 58.0916 53.2994 57.4886 52.6069C56.1299 51.0613 54.6159 49.2655 52.4857 48.9443C49.8526 48.3913 46.9562 49.6762 45.9029 52.204C45.7609 52.7719 45.7421 53.3635 45.8476 53.9393C45.9173 54.0495 45.9606 54.1743 45.9743 54.304C45.988 54.4336 45.9717 54.5647 45.9267 54.6871C45.8819 54.809 45.8094 54.9188 45.715 55.008C45.6205 55.0972 45.5067 55.1633 45.3824 55.201C45.2582 55.2388 45.1268 55.2472 44.9988 55.2257C44.8707 55.2041 44.7494 55.1532 44.6443 55.0768Z"
    fill="#161922" />
  <path
    d="M58.6498 52.0592C58.6145 51.8375 58.6676 51.6108 58.7975 51.4277C58.9275 51.2446 59.124 51.1196 59.3449 51.0797C60.8695 51.0797 61.77 48.4282 59.7241 48.7099C58.5953 48.7866 57.516 49.2023 56.6275 49.9027C56.3991 50.1326 56.1193 50.305 55.8113 50.4057C55.6848 50.4275 55.5551 50.4206 55.4316 50.3856C55.3082 50.3507 55.1941 50.2884 55.0978 50.2035C55.0016 50.1186 54.9256 50.0133 54.8755 49.8952C54.8253 49.777 54.8023 49.6492 54.8081 49.521C54.9503 48.7179 55.9192 48.4282 56.5012 47.9675C57.9678 47.1775 60.0664 46.4955 61.5857 47.4539C63.2893 48.6968 62.7179 51.4379 60.9301 52.3068C60.2349 52.6754 58.9052 53.1836 58.6498 52.0592Z"
    fill="#161922" />
  <path
    d="M66.7045 53.0781C65.6828 51.9116 67.9894 51.9379 67.0283 48.0067C66.5017 45.6659 64.4979 43.8886 62.215 43.2909C60.2428 42.601 56.9041 42.6378 56.1879 45.0339C56.1702 45.8686 56.3727 46.6933 56.775 47.4248C56.8893 47.4968 56.9844 47.5955 57.0518 47.7126C57.1193 47.8296 57.1571 47.9613 57.1621 48.0963C56.9383 49.6419 55.3189 48.873 55.0556 47.7434C53.1492 43.749 56.33 41.0869 60.2165 41.1896C63.9028 41.3977 67.7208 43.6489 68.6424 47.4116C69.0348 48.9678 69.1532 50.7162 68.5108 52.2223C68.2264 52.8885 67.4049 53.7153 66.7045 53.0781Z"
    fill="#161922" />
  <path
    d="M62.9443 54.3235C61.5804 54.3815 60.3534 53.7127 59.3317 52.8701C59.3317 52.8701 59.3581 52.8833 59.3581 52.8701C59.3954 52.8923 59.4364 52.9074 59.4792 52.9148C58.1627 52.3751 59.2975 50.6188 60.4008 51.543C62.1413 53.1913 65.0561 52.7832 66.9835 51.6931C67.9341 48.8231 71.8547 54.1735 62.9443 54.3235Z"
    fill="#161922" />
  <path
    d="M68.4449 47.0458C67.6049 45.9557 69.951 45.2869 69.2006 43.3463C68.2 43.4042 67.3574 43.9756 66.4358 44.3311C65.6459 44.6365 64.8876 43.6044 65.4958 42.9671C66.1594 42.5169 66.9704 42.2825 67.705 41.956C69.9142 41.0318 71.3019 42.3089 70.9727 44.5891C70.8595 45.6476 69.7299 48.1806 68.4449 47.0458Z"
    fill="#161922" />
  <path
    d="M69.4033 49.9817C68.7556 49.6025 67.5602 49.0417 67.9946 48.1201C68.1013 47.9237 68.2806 47.7768 68.4941 47.7109C68.7077 47.645 68.9385 47.6652 69.1374 47.7673C70.0247 48.4993 71.1543 48.9284 72.2813 48.4439C76.8629 46.2163 74.4431 40.176 70.2907 39.0464C68.5318 38.5593 63.9186 37.7562 63.9712 40.5236C63.9553 40.9334 64.0394 41.341 64.2161 41.7111C64.344 41.797 64.4466 41.9155 64.5133 42.0544C64.58 42.1933 64.6083 42.3475 64.5953 42.5011C64.2503 43.9019 62.7811 43.1198 62.5362 42.0929C60.6772 36.2395 68.1263 36.1315 71.7758 37.7983C75.1593 39.2807 77.7134 43.6254 75.865 47.1511C74.8223 49.5578 71.9127 51.1508 69.4033 49.9817Z"
    fill="#161922" />
  <path
    d="M73.6532 40.3945C73.6541 40.3203 73.6612 40.2463 73.6742 40.1733C73.7155 40.0026 73.809 39.849 73.9416 39.7339C74.0742 39.6187 74.2393 39.5478 74.4141 39.5308C75.4015 38.9858 76.4679 38.4196 77.4448 37.9088C77.6447 37.8246 77.8694 37.8211 78.0718 37.8989C78.2742 37.9766 78.4388 38.1296 78.5309 38.3259C78.6231 38.5222 78.6358 38.7465 78.5664 38.9519C78.497 39.1574 78.3508 39.328 78.1584 39.4281C77.3316 39.8625 76.5443 40.3076 75.7175 40.7236C74.9829 41.266 73.8217 41.6136 73.6532 40.3813V40.3945Z"
    fill="#161922" />
  <path
    d="M80.0306 41.1793C79.3888 40.9482 78.8417 40.5112 78.4744 39.9364C78.251 39.6291 78.0529 39.3041 77.882 38.9648C77.0051 38.1749 76.9288 36.7899 76.7365 35.6866C76.4127 32.8586 79.2301 31.7159 81.1259 33.7591C82.4425 35.0467 83.372 36.8899 83.0745 38.762C82.8901 40.176 81.5472 41.6295 80.0306 41.1793ZM80.6151 39.5336C82.5926 38.4329 80.6151 34.794 78.8852 34.3911C77.8767 34.8545 78.6771 37.1638 79.1116 37.8853C79.6804 38.3329 79.841 39.3572 80.6151 39.5336Z"
    fill="#161922" />
  <path
    d="M45.3658 55.4481C44.1651 55.3585 43.5806 53.8919 44.2072 52.936C44.797 52.1119 46.0662 52.8755 45.6502 53.7865C46.9667 53.9287 48.3149 53.7865 49.6341 53.7181H49.555H49.5208C52.3382 53.3257 55.1925 53.7365 58.0126 53.4548C58.8025 52.0513 60.5983 54.0288 59.3686 54.853C56.962 55.5902 54.3289 55.0636 51.8406 55.2085C49.6104 55.3138 47.5644 55.6824 45.3658 55.4481Z"
    fill="#181823" />
  <path
    d="M58.0205 53.4547V53.4705C55.2294 53.7338 52.4014 53.3362 49.6103 53.7101C48.3544 53.7733 47.072 53.9049 45.8187 53.7917C45.7383 53.2653 45.7642 52.7281 45.895 52.2118C46.9483 49.684 49.8447 48.3991 52.4778 48.9521C53.408 49.1114 54.2809 49.5097 55.0108 50.108C55.0843 50.1973 55.1735 50.2723 55.2741 50.3292C56.0685 51.0328 56.8071 51.7969 57.4833 52.6147C57.6867 52.8784 57.8664 53.1594 58.0205 53.4547Z"
    fill="#FFF1DD" />
  <path
    d="M59.7241 48.702C61.77 48.4387 60.8695 51.0717 59.3449 51.0717C59.2266 51.0949 59.1143 51.1419 59.0148 51.2098C58.9152 51.2777 58.8304 51.3651 58.7656 51.4667C58.4338 51.0665 58.1179 50.7242 57.9389 50.5083C57.6518 50.195 57.3517 49.8869 57.041 49.5946C57.8428 49.0696 58.7674 48.7619 59.7241 48.702Z"
    fill="#FFF1DD" />
  <path
    d="M67.0283 48.0147C67.5839 50.2923 67.0467 51.2402 66.6913 51.8616C65.0561 52.6831 62.8522 53.0149 61.2144 52.1249C62.7732 51.1191 63.1945 48.6072 61.5857 47.4328C60.2428 46.5849 58.447 47.0273 57.0357 47.6803C56.9685 47.5741 56.8786 47.4841 56.7724 47.417C56.3695 46.6857 56.1669 45.8609 56.1852 45.0261C56.9014 42.63 60.2402 42.5931 62.215 43.283C64.4979 43.8965 66.4964 45.6712 67.0283 48.0147Z"
    fill="#FFF1DD" />
  <path
    d="M69.2006 43.3357C69.7851 44.8471 68.4896 45.587 68.2869 46.3585C67.9402 45.5414 67.4497 44.7932 66.8387 44.1493C67.6023 43.8176 68.3501 43.3963 69.2006 43.3357Z"
    fill="#FFF1DD" />
  <path
    d="M70.2907 39.0463C74.4431 40.1759 76.8735 46.2162 72.2813 48.4438C71.1544 48.931 70.0248 48.4992 69.1374 47.7672C68.9999 47.7004 68.8477 47.6696 68.6951 47.6776C68.6766 47.5907 68.6556 47.5038 68.6345 47.4143C68.6134 47.3248 68.5845 47.2247 68.5581 47.1326C69.7957 48.0278 70.8726 45.6106 70.9727 44.5943C71.3018 42.3035 69.9194 41.0264 67.705 41.9612C66.9704 42.2877 66.1594 42.522 65.4958 42.9723L65.4774 42.9933C65.1968 42.8019 64.9058 42.626 64.6058 42.4667C64.609 42.3213 64.5757 42.1774 64.509 42.0482C64.4423 41.919 64.3444 41.8085 64.2241 41.7268C64.0458 41.3572 63.9616 40.9492 63.9792 40.5392C63.9186 37.7561 68.5318 38.5592 70.2907 39.0463Z"
    fill="#FFF1DD" />
</svg>