<svg xmlns="http://www.w3.org/2000/svg" width="450" height="450" viewBox="0 0 450 450">
  <g id="Layer_2" data-name="Layer 2">
    <g id="Vector_layer" data-name="Vector layer">
      <g>
        <circle cx="225" cy="225" r="225" fill="#98d7c3"/>
        <g>
          <path d="M208.46,254.45c-4.37-6.37,5.59-9.72,9.39-12.94,8.49-6.67,17.48-12.92,24.77-20.9,13.44-14.76,26.57-30.2,32.2-49.64,3.45-12.26,12.15-24.69,5.86-37.37-6.72-3.82.7-12.49,6.17-7.56,5.19,6.37,5.83,15.68,5.23,23.63-1,7.39-5.21,14-7.16,21.11-5.68,22.29-20.22,40.24-35.48,56.82-8.67,9.15-18.36,16.23-28.4,23.61C217.36,253.41,212.47,258.82,208.46,254.45Z" fill="#110802"/>
          <path d="M214.18,271.44c-.87-5.87,7-6.31,10.66-7.36,19-4.88,33-18.43,45-33.19,12.23-13.85,14.89-32.95,27-46.65,11.39-10.6,25.58-20,33.62-33.51,4.22-7.44,7.42-17.84,1.73-25.32-9.24-11.86-24-21.59-39.48-20.41-12,1.32-22.56,6.55-33.15,11.76-13.69,7.95-24.69,19.57-39,26.33l.09,0,.06,0c-22.91,14.49-48,26.12-68.28,44.34-3.26,3.92-8.72,6.37-10.46,11.29-.61,2.58-1.86,5.49-5,5.53-7.22-.34-5.12-9.79-2.1-13.76,23.65-25.94,56.64-41.31,86.16-59.16,8-4.29,15.09-10.83,22.29-15.93A125.57,125.57,0,0,1,278.1,97.65c23.79-8.82,50.06,3.29,63.69,23.66,9.95,17-2,36.27-13.88,48.84-7.14,8.43-17.34,14.09-24.6,22.22a70,70,0,0,0-7.83,12.33,117.82,117.82,0,0,1-22.25,37c-10.24,12.06-22.76,23.26-37.75,28.69-5,2.15-9.06,3-14,4.16A4.66,4.66,0,0,1,214.18,271.44Z" fill="#110802"/>
          <path d="M187,285.71c-15.08.48-42.09-8.08-36.67-27.48,4.78-9.21,15.42-13.92,25.18-15.82,10.88-1.57,21.32,2,31.39,5.74,7.76,2.26,10.07,10.91,10.14,18,1.58,8.11-2.14,13.27-9.72,16C201.15,285.63,194,286,187,285.71Zm8.08-10.07c4.45-.44,8.36-2.35,12.13-4.59-.34-4.94,0-10.06-3.34-13.9-14.49-5.85-33.26-9.4-44.29,4.57-1.26,3.33,2.54,6.22,4.94,7.93C173.68,275.6,184.6,276.28,195.09,275.64Z" fill="#110802"/>
          <path d="M183,293.66c-12.08-1.31-26.27-4.44-33.35-15.13-1.9-5.47-1-12.24.65-17.51,1.54-4.29,8.13-3.67,8.82.84.06,4.89-3.9,12,1.69,15.14a45.65,45.65,0,0,0,32.45,6.53c6.16.16,12.32-1.66,15.79-7,.66-3.85.31-10.17,5.88-9.75a4.73,4.73,0,0,1,4.2,5.13C219.76,291.1,197.87,294.17,183,293.66Z" fill="#110802"/>
          <path d="M144.11,262.66c-10.28-.42-23.09-1.91-28.56-11.81-4.42-9.65,1.07-20.9,10.14-25.41,6.33-3.22,12.51-6.09,19.53-5.59,7.62.62,5.28,10.87-1.94,9.15h.27c-9.34.4-27.91,10.52-16.75,20.54a48.37,48.37,0,0,0,24.67,3.34c5.3-.24,6.74,7.74,1.59,9.24C150.16,262.91,147.07,262.7,144.11,262.66Z" fill="#110802"/>
          <path d="M175.22,246.15a4.77,4.77,0,0,1,.58-6.66c7.57-12.77-23.72-11.57-30.66-10.78-5,.38-9.55,2.32-14.39,3.22-5.7.12-6.44-8.39-.73-9.16,15.49-4.46,34.67-6.79,49.25,1.26a14.44,14.44,0,0,1,6.95,16.19C185.5,244.88,179.43,250.72,175.22,246.15Z" fill="#110802"/>
          <path d="M136.94,272.5c-7.4-1.19-15.6-2.47-20.16-9-2.77-4.42-4-20.15,3.31-20.69a4.75,4.75,0,0,1,4.14,7.08c.13,2.94-1,6.82,1,9.21,6.8,4.67,15.64,4.35,23.32,3.28a4.65,4.65,0,0,1,4.72,3.83C153.81,273.92,142,272.13,136.94,272.5Z" fill="#110802"/>
          <path d="M183.68,244.14c-4.28-1-5.26-5.87-4.24-9.6a14.3,14.3,0,0,1,13-13.74c10.53-2.22,21.57-3.58,32.22-1.53,5.12,2.07,11.85,3.36,14.79,8.38,2.53,5.22-5.28,9.47-8.3,4.56-4.71-2.39-9.88-4.82-15.18-4.51a82.24,82.24,0,0,0-22.14,2.37c-4,.3-5,3.37-5.38,6.91C191,240.17,187.63,245.26,183.68,244.14Z" fill="#110802"/>
          <path d="M142.66,219.4c-5.44-13,12.11-19.26,21.71-22.24,9.27-2.46,19.9-3.72,28.59,1.18,9.08,3.22,18.61,8.62,21.91,18.25,1.54,4.15-3.78,8-7.29,5.35-2.11-1.64-2.35-4.32-4.07-6.3-5.24-5.83-13.36-8.52-20.43-11-10.51-.77-22.23,1.84-30.63,8.34-2.48,1.79-1,2.77-.72,5.13C152,223.47,143.92,224.58,142.66,219.4Z" fill="#110802"/>
          <path d="M254,210.84c-4.4-2.42-7.61-7.37-13-7.8-11.26-1.93-23.24-2.29-33.55,2.73a4.59,4.59,0,0,1-8.3.88,4.93,4.93,0,0,0,.8,1c-6.94-7.17,5.27-11.7,10.92-13.21,11.21-3.25,23.29-2.51,34.62-.21,4.94,1.8,18.1,8.47,14,14.91A4.69,4.69,0,0,1,254,210.84Z" fill="#110802"/>
          <path d="M230.18,194.25c-2.12-4.22,1-8,4.45-10.29,10.52-8.81,26.32-10.74,39.26-7.59,5,2.56,1.43,10.5-3.78,8.42-10.85-.68-22.69-.38-31,7.63C240.36,198.28,231.45,200.09,230.18,194.25Z" fill="#110802"/>
          <path d="M167.65,201.63c-6.06-1.88-3.89-9.66-1-13.44,13.64-18.05,56.32-21.09,72.24-4.63,4.08,3.48-.75,10.31-5.4,7.63a25,25,0,0,1-3.2-2.4c-12.12-10.8-48.84-8-57.06,6.69a1.86,1.86,0,0,1,.12.86A4.76,4.76,0,0,1,167.65,201.63Z" fill="#110802"/>
          <path d="M112,238.47c-13.64,0-31.51-9.57-21.67-25,12-13.65,34.89-17.74,51.5-10.9,2.88,1.45,6.79,4.31,6.79,7.94.21,5-6.91,6.54-8.82,2-10.7-7.6-35.62-3.16-42.5,8.08-1.17,6.4,7.46,7,11.92,8a69.78,69.78,0,0,0,9.53.45,4.83,4.83,0,0,1,5,4.6C123.62,239.86,116.24,238.58,112,238.47Z" fill="#110802"/>
          <path d="M106.34,249.39c-8.46-1.9-19.7-3.86-23.13-12.93-1.07-4.69-.06-8.56.55-13.07.51-3,1.75-6.47,4.93-7.44,5.46-1.86,9.49,5.31,4.32,8.42-.34,3.24-1.94,7.31-.19,10.24,3.88,3.09,9,4,13.65,5.27,4.19,1,11.07-1.91,12.3,4C119.48,250.67,110.85,249.66,106.34,249.39Z" fill="#110802"/>
          <path d="M86.16,294.27c-17.47-2.07-21.73-21.34-9.86-33.07,7.53-6.21,16.83-15.67,26.51-17.49,5.47.22,5.74,8.67.25,9.17-8.94,6.49-23.6,12.6-24,25.16,6.1,16,34.25.51,42.1-7.49,3-2.29,6.27-7.15,10.52-5,7.56,5.63-3.94,11.43-7.64,15.4C113.26,289.13,100,295.37,86.16,294.27Z" fill="#110802"/>
          <path d="M87.19,303c-6-1.19-20.37-18.53-8.89-20.42,3.17-.12,4.77,2.73,5.9,5.27,2.58,6.39,10.08,8.4,16.25,7.56,14.36-2.05,28.82-9.81,34.71-23.33,2.93-4.39,10.17-.57,8.15,4.32-.42.95-.69,2-1.11,2.92C131.94,297.11,107.32,309.7,87.19,303Z" fill="#110802"/>
          <path d="M128.76,315.68c-6.73-.31-14.84-2.95-17.08-10-.82-3-.82-7.48,2.52-9,4.24-1.81,7.42,2.18,6.42,6.17,4.5,5.28,14,3.19,19.95,3,9.51-1.06,23-2.16,26.7-12.6a9.72,9.72,0,0,0,.32-1.47c-.85-4.49,5.3-7.33,8.18-3.74,1.35,1.54,1.43,3.64,1.14,5.57C172.81,314.59,146,315.75,128.76,315.68Z" fill="#110802"/>
          <path d="M129.1,324A22.36,22.36,0,0,1,113,311.57c-2.38-3.78-5.27-11.16,1.05-12.59a4.73,4.73,0,0,1,5.3,3.24c3.2,8.21,8.8,14,17.91,12.31,12.15-1.4,36-2.1,34.22-19.14-1.05-2.28-.14-5.48,2.33-6.45,8.25-2.63,7.41,8.54,6.43,13.64C176.87,322.08,145,324.64,129.1,324Z" fill="#110802"/>
          <path d="M188.82,316.26c-5-.39-10.06-1.26-15.09-1.72a4.65,4.65,0,0,1-4.91-2.58c-1.67-3.31,1.41-7,4.91-6.72,13,.92,26.45,4.28,39.1.12a13.58,13.58,0,0,0,9.79-12.81c-1.65-3.74-5.57-6.77-9.33-8.3-5.7-1.22-4.2-10.15,1.57-9.45,6.92,1.35,12.77,6.82,16.24,12.79,2.94,6.32-.38,13.4-3.65,18.93C218.09,317.51,202.06,317.18,188.82,316.26Z" fill="#110802"/>
          <path d="M182.16,327.52c-5.26-2.36-12.33-1.17-16.22-5.9-2.31-3.62-2.48-10.95,3.11-11.24a4.92,4.92,0,0,1,4.93,5.34c4.77.41,9.45,3.33,14.2,2.75,10.58-1.5,22.65,2.7,31.54-5,7.07-4.79,5.61-13.27,5.54-20.57.92-4.79,8.38-4.58,9.06.26,3.46,16.47-5.88,31.14-22.61,34-7.09,1.2-15-.32-21.93.57A16,16,0,0,1,182.16,327.52Z" fill="#110802"/>
          <path d="M97.05,321.48c-7.67-1.76-16.8-1-23.56-5.13-11.11-9.75.46-20.52,11.24-22.79C93,291.42,95,304.2,86,302.86c-2.72,1.08-5.58,2.17-7.6,4.37a1.88,1.88,0,0,0,.84,1.62C86.28,311,93,311,100,312.34c4.93-.22,9.1-1.79,13.92-2.38,2.67-1,6-.94,7.37,2,2.69,7.3-7.53,7.44-12,8.37C105.36,321.4,101.18,322.21,97.05,321.48Z" fill="#110802"/>
          <path d="M98,333.49c-10.21-1.77-26.93.15-29.93-12.66-.76-3.19,0-6.54-.47-9.73a4.4,4.4,0,0,1,.63-4.05c2.5-2.86,6.12-2.31,7.84.41,2,3.82,0,8.5,1.37,12.52,6.94,4,15.67,3.27,23.4,4.33h-.3c6.15.65,12.14-1,17.74-3.48,2.07-4.5,9.34-2.37,8.73,2.58a7.15,7.15,0,0,1-5.35,6A44.05,44.05,0,0,1,98,333.49Z" fill="#110802"/>
          <path d="M303.31,319.17c-11.34-1-26.73.84-33.06-10.86-6.8-23.83,51.41-28.43,62.49-15.62C346,312,318.63,320.91,303.31,319.17Zm8.15-9.74c5.35-.69,17.43-2.16,14.49-10a6,6,0,0,1-2.86-2.06c-11-2.91-23.91-3.47-34.61.77-3.38,1.49-8,2.64-9.47,6.41,3.76,4.51,10.18,3.89,15.48,4.36a92,92,0,0,0,17.39.44Z" fill="#110802"/>
          <path d="M310.7,332.24c-13.28-.37-46.79-1-42.5-21,.44-4.12.06-10.78,5.68-11.07a4.67,4.67,0,0,1,4.76,4.43,60.11,60.11,0,0,0-1.47,10.67c6.18,6.23,15.76,6.4,23.89,7.22,9.13.31,18.89,1.08,27-3.37a23.82,23.82,0,0,0,1.5-9.1c-.42-4.45-4-12,2.46-13.47a4.74,4.74,0,0,1,5.44,3.83c1.1,5.69,2.39,11.41.84,17.2C337.1,330.63,321.07,331.77,310.7,332.24Z" fill="#110802"/>
          <path d="M335.59,300.4c-7,0-7.38-10.24-.13-10,19.6-.51,35.85-19.24,37.26-38-2.67-28.46-9.53-58-28.12-80.28-4.37-6.27-13.28-14.52-7.88-22.2a4.68,4.68,0,0,1,7.61,4c.56,3.9,3.55,6.78,5.68,9.83,21.59,24.59,30.46,58.28,32.57,90.34C380.6,277.6,359.79,300.22,335.59,300.4Z" fill="#110802"/>
          <path d="M241.91,308.1A74,74,0,0,1,233,307c-6.57-2.05-2.83-9.33.17-9.08,5.25.36,10.55,1.29,15.92,1.27,7.5.16,14.13-1.49,21.41-1.32,4.58,1,4.86,7.83.36,9.1C261.17,308.13,251.61,309,241.91,308.1Z" fill="#110802"/>
          <path d="M239.14,192.41c8.1-7.81,19.59-8.29,30.22-7.66a115.68,115.68,0,0,1-11.13,17.49c-3.26-3.76-9.68-6.84-12.79-8-2-.42-4.12-.78-6.2-1.09A3.38,3.38,0,0,0,239.14,192.41Z" fill="#ffc116"/>
          <path d="M252.22,209.72c-3.11,3.7-6.36,7.33-9.6,10.9q-2.35,2.56-4.91,4.88c-3.38-3.3-8.8-4.5-13.07-6.22a54.19,54.19,0,0,0-9.51-1,4.2,4.2,0,0,0-.26-1.72A23.64,23.64,0,0,0,207.29,206a1.84,1.84,0,0,0,.09-.25c10.33-5,22.3-4.66,33.56-2.73C245.61,203.42,248.65,207.14,252.22,209.72Z" fill="#ffc116"/>
          <path d="M230.19,188.67a6,6,0,0,0-.65,3.64,59.43,59.43,0,0,0-18.72,2.16c-3.55.93-9.66,3.07-12,6.28a60.61,60.61,0,0,0-5.85-2.41c-6-3.38-12.86-3.83-19.6-3C181.69,180.88,218,178,230.19,188.67Z" fill="#ffc116"/>
          <path d="M230.36,231.82c-4.12,3.28-8.37,6.43-12.52,9.7-2.44,2.06-7.44,4.2-9.52,7.13h0a10.89,10.89,0,0,0-1.39-.49c-6.13-2.25-12.37-4.47-18.77-5.5a4.41,4.41,0,0,0,.29-5.69c.42-3.53,1.36-6.6,5.38-6.91A83.46,83.46,0,0,1,216,227.7C221,227.41,225.86,229.57,230.36,231.82Z" fill="#ffc116"/>
          <path d="M203.51,215.63a13.88,13.88,0,0,1,1.79,3.08,126.59,126.59,0,0,0-12.88,2.1,14.33,14.33,0,0,0-10,5.53,13.5,13.5,0,0,0-3.13-2.31c-8.23-4.54-17.9-5.78-27.56-5.19a4.58,4.58,0,0,0,0-.74c-.23-2.37-1.76-3.34.72-5.14,8.4-6.49,20.12-9.1,30.64-8.34C190.15,207.12,198.28,209.81,203.51,215.63Z" fill="#ffc116"/>
          <path d="M142.66,219.4a2.47,2.47,0,0,0,.14.41,28.68,28.68,0,0,0-9.09,2c-1.24.31-2.48.65-3.68,1a4.34,4.34,0,0,0-3.36,2.18c-.33.17-.65.32-1,.5a21.22,21.22,0,0,0-5.36,3.83,5.1,5.1,0,0,0-1.62-.27,66.59,66.59,0,0,1-9.53-.45c-4.46-1-13.09-1.59-11.92-8,6.89-11.24,31.79-15.69,42.5-8.09a4.34,4.34,0,0,0,1.87,2.13A12.61,12.61,0,0,0,142.66,219.4Z" fill="#ffc116"/>
          <path d="M114.72,238.62a9.87,9.87,0,0,0-.34,1.48c-2.54-.28-5.62.35-7.91-.23-4.63-1.27-9.77-2.17-13.66-5.26a6.21,6.21,0,0,1-.8-3.11c4.92,4.48,13,7,19.94,7C112.79,238.48,113.73,238.56,114.72,238.62Z" fill="#ffc116"/>
          <path d="M147.49,228.5c9.77-.67,35.22-.65,28.31,11a5.24,5.24,0,0,0-1.66,3.21c-7.47,1.64-15.25,5-20.39,10.67a4.49,4.49,0,0,0-2.27-.48,48.39,48.39,0,0,1-24.68-3.34,12.63,12.63,0,0,1-2-2.21,4.92,4.92,0,0,0-1.4-3.21c-1-6,6.74-11.45,13.88-13.86.19,0,.38-.11.57-.15,1.18-.32,2.37-.63,3.57-.88l.19,0c.63-.1,1.22-.16,1.8-.2A5.4,5.4,0,0,0,147.49,228.5Z" fill="#ffc116"/>
          <path d="M123.12,268.85c-.67.61-1.32,1.22-2,1.7-7.86,8-36,23.45-42.1,7.48.4-12.56,15.08-18.65,24-25.16a4.2,4.2,0,0,0,3.87-3.45c2.33.15,5.5.4,8-.23a.07.07,0,0,0,0,.06c-.9,5.05.21,11.62,1.85,14.23A16.56,16.56,0,0,0,123.12,268.85Z" fill="#ffc116"/>
          <path d="M133.48,271.92l1.64.27c-5.89,13.47-20.32,21.2-34.68,23.26a18.71,18.71,0,0,1-9.52-1.1c12.08-.42,23.57-6.15,33.11-13.44C126.3,278.47,131.57,275.3,133.48,271.92Z" fill="#ffc116"/>
          <path d="M167.53,290.68a3.38,3.38,0,0,0,.06,1.09,9.66,9.66,0,0,1-.33,1.47c-3.68,10.44-17.19,11.55-26.68,12.6-5.92.23-15.46,2.33-20-3a6,6,0,0,0-.17-3.51c9.08-4.6,17-11.74,21.75-20,.42-.95.69-2,1.11-2.92a4.12,4.12,0,0,0-.38-4,24.93,24.93,0,0,0,5.63-.59,20.84,20.84,0,0,0,1.07,6.69C153.77,284.79,160.36,288.45,167.53,290.68Z" fill="#ffc116"/>
          <path d="M144.11,262.66c.54,0,1.09,0,1.62,0-6.68.73-13.91.52-19.77-3.13C131.61,261.84,138.27,262.43,144.11,262.66Z" fill="#ffc116"/>
          <path d="M110.23,303.28a14.38,14.38,0,0,0,2,7c-4.12.68-7.84,1.91-12.18,2.12-7-1.32-13.74-1.32-20.74-3.5a1.87,1.87,0,0,1-.86-1.62c2-2.19,4.88-3.28,7.61-4.37.27,0,.52.06.75.08h0a1.82,1.82,0,0,0,.4.11A40.11,40.11,0,0,0,110.23,303.28Z" fill="#ffc116"/>
          <path d="M118.14,318.51a10.64,10.64,0,0,0,1.14,1,4.16,4.16,0,0,0-1,1.34c-5.61,2.5-11.59,4.12-17.75,3.47h.3c-7.73-1.07-16.47-.3-23.4-4.33a8.55,8.55,0,0,1-.4-2c6.19,2.28,13.57,2,20,3.44,4.14.74,8.3-.08,12.29-1.11C111.61,319.89,115.35,319.62,118.14,318.51Z" fill="#ffc116"/>
          <path d="M214.66,284.86c3.3,1.66,6.5,4.41,8,7.69a13.59,13.59,0,0,1-9.8,12.81c-10.82,3.57-22.23,1.62-33.44.4a18,18,0,0,0,.84-3.17,28.14,28.14,0,0,0,.37-9.22c.8.12,1.6.21,2.38.29C193.53,294,207.59,292.59,214.66,284.86Z" fill="#ffc116"/>
          <path d="M222.42,311a11.31,11.31,0,0,1-2.69,2.48c-8.91,7.71-21,3.49-31.55,5-4.75.58-9.43-2.34-14.2-2.75a5,5,0,0,0-.07-1.16c5,.46,9.92,1.3,14.92,1.7C199.92,317,213,317.38,222.42,311Z" fill="#ffc116"/>
          <path d="M203.87,257.15c3.38,3.83,3,9,3.34,13.89-3.76,2.26-7.67,4.16-12.12,4.6-10.5.65-21.41,0-30.55-6-2.41-1.72-6.21-4.6-4.95-7.94C170.62,247.74,189.39,251.31,203.87,257.15Z" fill="#ffc116"/>
          <path d="M326,299.46c2.86,7.62-8.53,9.2-14.07,9.91a90.32,90.32,0,0,1-17.39-.44c-5.3-.46-11.71.15-15.47-4.35,1.45-3.78,6.08-4.91,9.46-6.42,10.69-4.23,23.59-3.68,34.61-.76A5.92,5.92,0,0,0,326,299.46Z" fill="#ffc116"/>
          <path d="M329.44,313.36a20.21,20.21,0,0,1-1.33,5.74c-8.15,4.45-17.93,3.69-27.05,3.38-8.13-.82-17.71-1-23.9-7.23v-.08c7.49,4.05,17.89,3.25,26.15,4C311.23,320.06,322.38,318.13,329.44,313.36Z" fill="#ffc116"/>
          <path d="M344.6,172.12c18.59,22.31,25.46,51.82,28.13,80.29-1.41,18.79-17.67,37.53-37.28,38a5.2,5.2,0,0,0-3.77,1.21c-11.09-9.57-50.91-7.69-60.09,6.58a5.18,5.18,0,0,0-1.13-.4c-7.29-.17-13.91,1.49-21.41,1.32-4.73,0-9.43-.71-14.07-1.11a33.44,33.44,0,0,0-.66-4.87,4.15,4.15,0,0,0-2.41-3.26,12,12,0,0,0-.8-2.31c-2.79-4.79-7.1-9.26-12.25-11.51,0-.23.07-.46.09-.69a4,4,0,0,0,2.54-.89c4.92-1.2,9-2,14-4.16,15-5.42,27.5-16.63,37.75-28.69a118.23,118.23,0,0,0,22.26-37,69.18,69.18,0,0,1,7.82-12.33c7.26-8.13,17.45-13.8,24.6-22.22A88.24,88.24,0,0,0,336.24,160C338.18,164.37,342.12,168.57,344.6,172.12Z" fill="#e95e44"/>
          <path d="M332.25,125.41c5.69,7.49,2.48,17.87-1.74,25.31-8,13.5-22.23,22.91-33.61,33.52-12.14,13.7-14.81,32.81-27,46.65-12,14.77-26.07,28.3-45,33.19-2,.59-5.38,1-7.79,2.23,0,0,0-.08,0-.12a26.94,26.94,0,0,0-2.19-10.87c2.19-1.09,4.33-3,6.18-4.11,10.06-7.38,19.74-14.47,28.4-23.61,15.27-16.58,29.81-34.53,35.48-56.82,2-7.08,6.15-13.72,7.16-21.11.61-8,0-17.27-5.23-23.63-5.46-4.92-12.88,3.74-6.16,7.56,6.29,12.67-2.41,25.1-5.86,37.37-.52,1.78-1.09,3.51-1.72,5.23-11.74-2.65-25.67-1.16-35.85,5.79-17-14.68-57.37-11.25-70.56,6.2-1.79,2.31-3.28,6.09-2.8,9.12-5.29,1.66-12.77,4.3-17.56,8.46a18,18,0,0,0-4.55-3.21c-.4-.17-.8-.32-1.2-.46a10.47,10.47,0,0,0,1.39-3.45c1.74-4.93,7.22-7.37,10.46-11.3,20.29-18.21,45.32-29.83,68.22-44.3h0l.06,0C235,136.25,246,124.69,259.6,116.75c10.6-5.19,21.15-10.42,33.16-11.74C308.24,103.81,323,113.56,332.25,125.41Z" fill="#e95e44"/>
          <path d="M170.81,248c-21.25-1-21.29-23.57-8.58-35.91,6.71-7.45,14.82-12.18,24.45-13.54,8.37-4.3,18.87-2.71,27.08,1.19,19.91,11.74,4.91,31.17-10.1,38.85C193.67,244.87,182.73,249.65,170.81,248Zm4.93-9.45c14.12.9,59.1-26.47,25.45-32.28-2.69,2.55-7,1.37-10.34,1.35a4.72,4.72,0,0,1-4.8.6C171.5,209.82,148.12,239.2,175.74,238.55Z" fill="#110802"/>
          <path d="M169.58,260.3a12.11,12.11,0,0,1-6.65-2.11c-2.34-.72-4.49-1.89-5.49-4.33a109.67,109.67,0,0,1-3.05-15c-.3-5.72,8.47-6.62,9.37-1,.81,3.8,1.88,7.42,2.37,11.27,3.18,2,6.72,1.57,10.36,1.51,7.95,1.14,15.46-3.63,21.7-7.4,7.34-4.41,16.27-9.23,18.5-18.12-.77-4.53-2.81-9.28-1.46-13.91,2.2-6.24,12-2.86,8.89,3.36.19,3.15,1.2,5.93,1.84,8.91.35,10.43-8.35,18.8-16.64,23.86C197,256,185,262.07,169.58,260.3Z" fill="#110802"/>
          <path d="M201.18,206.26c33.65,5.82-11.32,33.18-25.44,32.3-27.62.65-4.24-28.75,10.31-30.35a4.7,4.7,0,0,0,4.81-.59C194.18,207.64,198.51,208.82,201.18,206.26Z" fill="#ffc116"/>
          <path d="M203.66,238.58a46,46,0,0,0,9.68-6.7c-3.84,4.9-9.91,8.28-15.16,11.43-6.24,3.78-13.74,8.53-21.7,7.41-3.62.05-7.17.49-10.34-1.51-.08-.65-.19-1.3-.29-1.93a24.68,24.68,0,0,0,5,.71C182.72,249.65,193.66,244.88,203.66,238.58Z" fill="#ffc116"/>
          <path d="M327.14,181.65a4.65,4.65,0,0,1-1.9-6.24c2.95-5,5.71-10.23,8.18-15.37.9-2.85,3.38-5.57,6.65-4.31a4.61,4.61,0,0,1,2.69,5.91C339.63,166.49,334.4,185.42,327.14,181.65Z" fill="#110802"/>
          <path d="M332.46,200.77c-6.29-5.25,5.9-14.06,8.06-19.52,2.53-3.34,2.75-10.41,8.41-9.28,7.68,2.88.6,11.9-1.93,16.34C343.18,192.25,339.26,204.6,332.46,200.77Z" fill="#110802"/>
          <path d="M347.31,215.07c-5.49-4.64,2.43-10.13,4.58-14.49,2.29-3.57,5.75-10.21,10.65-6.18,4.21,4.26-1.86,8.8-3.84,12.65C355.86,210.48,352.88,218.51,347.31,215.07Z" fill="#110802"/>
          <path d="M346.86,239.93c-5.2-5.49,5.69-11.57,7.79-16.47,4-3.85,5.8-15.43,12.94-12.65,5.56,3.1-.12,9.44-1.91,12.79C361.75,228.39,353.61,245.46,346.86,239.93Z" fill="#110802"/>
          <path d="M350.28,261.05c-5-5.94,5-11,7.69-15.81,4-3.52,8.08-14.31,14.54-9.73,4.94,5.82-4.83,11-7.4,15.73C361,254.83,356.76,265.63,350.28,261.05Z" fill="#110802"/>
          <path d="M356.78,275.79c-5.69-5.9,8.11-13.57,11.17-18.48a4.67,4.67,0,0,1,6.53-.28c5.68,5.89-8.06,13.68-11.19,18.49A4.67,4.67,0,0,1,356.78,275.79Z" fill="#110802"/>
          <path d="M295.86,277.82a4.67,4.67,0,0,1-2.16-5.71c2.15-4.62,8.53-2.61,12.45-4.8a24.68,24.68,0,0,0,8.39-6c1.66-3.32,6-6,9-2.54C329.39,268.19,303.41,281.2,295.86,277.82Z" fill="#110802"/>
          <path d="M183.8,226.36a4.61,4.61,0,0,1,3.29-4.53l0,0A33.74,33.74,0,0,0,192,219c5.09-3.17,10,4.43,5,7.75C193,229.55,185,234.13,183.8,226.36Z" fill="#110802"/>
          <path d="M265.14,154.92c-4.56-4.79,2.78-9.21,5.31-12.92,2.31-3,5.21-8.27,9.62-5.29,5,4-1.13,9.06-3.68,12.56C273.51,152.33,269.87,158.89,265.14,154.92Z" fill="#110802"/>
          <path d="M269,167.43a4.66,4.66,0,0,1-1.1-6.45c2.38-3.36,7.05-8.72,11.05-4.37a4.77,4.77,0,0,1-1.27,7.09C275.39,166.49,272.66,170,269,167.43Z" fill="#110802"/>
          <path d="M140,284.25a4.65,4.65,0,0,1-1.11-6.43c2.74-3.17,5.68-10.1,10.79-6.84a4.64,4.64,0,0,1,1.1,6.4C148,280.53,145.17,287.56,140,284.25Z" fill="#110802"/>
          <path d="M150.66,288c-3-1.57-3-5.28-1.08-7.72a4.62,4.62,0,0,1,4.38-3.87C162.69,276.4,157.71,291.49,150.66,288Z" fill="#110802"/>
          <path d="M235,187.81c-7.23-5.34,2.35-10.27,6.47-13.36a129,129,0,0,0,18.25-17.39c2.94-3.72,5.86-7.44,8.86-11.12a56.66,56.66,0,0,1,4.31-12.85c1.62-2.29,2.52-5.69,5.9-5.78a4.8,4.8,0,0,1,4.83,4.43c4.25,1.87,2.71,7.27,2.52,10.93-1.34,10.06-4.55,19.53-8.44,28.82-.82,2.81-1.43,6-3.76,7.94-6.24,3.63-14.85,3.27-21.53,1.09-4.53,2.66-8.93,7.88-14.32,7.88A8.57,8.57,0,0,1,235,187.81Z" fill="#110802" fill-opacity="0.25"/>
          <path d="M328,292.05a5.15,5.15,0,0,1,.35-3.78c3.7-8.28,7.21-16.81,9-25.72,5.21-31,.11-59.73-19.89-84.33a5.34,5.34,0,0,1,2.2-7.44c6-4.09,12.32-8.15,16.89-13.93,4.29-5.44,11.72,1.69,6.68,6.39a4.69,4.69,0,0,1,3.91,2.14c1.41,2.21.84,4.27-.44,6.09,9.45,18.95,29,33.43,30.08,55.9-.67,24.35-3.09,56-29.76,65.66a26.89,26.89,0,0,1-9.16,1.62,23.64,23.64,0,0,1-4.89.73C330.7,295.38,328.74,294.66,328,292.05Zm31.1-29c.87-1.6,2-3.3,1.79-5.19A39.26,39.26,0,0,1,359.05,263.08Z" fill="#110802" fill-opacity="0.25"/>
          <path d="M334.16,301.24c-.15-2.86,1.88-5.73,6-4.73,2.94-2.64,6.28-2.5,9.64-2.35,2.74.13,5.51.25,8.11-1.15-2.79-5.17,3.45-7.76,7.29-8.95,2.61-1.66,5.42-.09,7.8,1.2,5.58,2.3,8.46,11.34,2.41,14.76a114.75,114.75,0,0,1-35.27,6.13c-.27,0-.52,0-.77,0A5,5,0,0,1,334.16,301.24Z" fill="#110802" fill-opacity="0.25"/>
          <path d="M266.88,316c-10.48-.44-20.88-2.77-31.39-2.16a4.79,4.79,0,0,1-3.55-5.71,4.88,4.88,0,0,1,3.26-3.49,57.84,57.84,0,0,1,15.59-1.11c2.31.86,5.86.48,9.47.1,6.34-.69,12.86-1.36,13.17,4.83,2.85,3.74-.74,7.86-4.68,7.86A5.57,5.57,0,0,1,266.88,316Z" fill="#110802" fill-opacity="0.25"/>
          <path d="M295.78,334.75a49.72,49.72,0,0,1-9.13-.86c-5.26-1.14-4.52-9.39.94-9.41a210,210,0,0,0,23.93.23,4.67,4.67,0,0,1-.4-1.28,4.72,4.72,0,0,1,.65-3.3,9,9,0,0,0-.42-2.84c-4.14.24-7.19-4.85-4.18-8,0-3.76,3.68-5,6.8-4.9a8.92,8.92,0,0,0,5.47-6.46c-.13-3.93,3.59-7.17,7.37-5.26,3.11,1.54,4.16,5.84,3.21,9a8.73,8.73,0,0,1-1.51,7,10.72,10.72,0,0,1,4.22,5.71c8.32,1.14,18,13,6,17a174,174,0,0,1-37,3.51C299.74,334.81,297.76,334.79,295.78,334.75Z" fill="#110802" fill-opacity="0.25"/>
          <path d="M109,335a65.44,65.44,0,0,0-7.54,0c-5.46.21-11,.42-15.77-2-6.47-.63-5.3-9.49.92-9.51,2.14-.34,3.36,1.79,5.23,2,9.37.28,18.8.76,28.09,0,8.65-3.34,13.78-4.28,22.83-5.63,8.65-1.87,18.5-3.71,26.82.05,8.66,2.49,17.86.46,26.68,0a174.41,174.41,0,0,0,18.46-1.55h0a32.79,32.79,0,0,0,13-4.81c4.5-3,9.83,3.3,6.07,7.25-5.29,4.41-13.84,6.72-20.62,7.29-12.54,1.28-25.33,2.39-38,2.6-7.08-.11-13.17-4.62-20.33-3-7.8.29-15.23,3.09-23.05,3.42a37.92,37.92,0,0,1-17.94,4.18C112.16,335.27,110.55,335.19,109,335Z" fill="#110802" fill-opacity="0.25"/>
          <path d="M183.5,300.74l.13,0c-6.78,1.05-8.76-8.17-1.89-9.41,10.25,1.14,22.31,3.13,28-7.79a4.72,4.72,0,0,1,6.51-1.12c4.71,3.62-.34,9-3.21,12.06-5.13,5.4-12.29,7.39-19.51,7.39A45.52,45.52,0,0,1,183.5,300.74Z" fill="#110802" fill-opacity="0.25"/>
          <path d="M224,287.49a7,7,0,0,1-.68-4.78,5,5,0,0,1-1.63-2c-3.87.4-6.28-4.31-4-7.29,3.61-3.47,9.29-2.77,13.42-5.55,2.92-1.63,7-2.58,8.74,1.16,1.35,2.81-.52,5.67-3.15,6.79a20.87,20.87,0,0,0-3.3,8.14c-.32,3.26-2.81,5.74-5.45,5.74A4.89,4.89,0,0,1,224,287.49Z" fill="#110802" fill-opacity="0.25"/>
          <path d="M213.72,274a4.69,4.69,0,0,1-3-4.83,4.58,4.58,0,0,1,1.88-3.28c.73-3.67-.26-9.51.48-12.32a5.73,5.73,0,0,1,.63-1.14,4.77,4.77,0,0,1,1.91-1.37l-.25,0v0a8.12,8.12,0,0,0-1.43,1c2.39-3.26,7.9-1.54,8.25,2.47a81.29,81.29,0,0,1,0,8.55c.41,4.53-1.5,11.14-6.51,11.14A7.13,7.13,0,0,1,213.72,274Z" fill="#110802" fill-opacity="0.25"/>
          <path d="M205.11,252.46c-3-5.94,5.13-9.34,8.43-12.93a102.49,102.49,0,0,1,8.06-9.14c2.33-2.25,5.71-4.92,9.05-3.28l.24-.19c.18-2.83,3.1-4.28,4.85-6.15,3-3.26,5.35-7.75,9.24-9.77,2.52-3.57,4.05-7.48,7.61-10.21,0,0,0,0,0,.06a4.12,4.12,0,0,0-.33.4,98.38,98.38,0,0,0,13.69-19,5.36,5.36,0,0,1,3.26-3.35,4.73,4.73,0,0,1,6.05,5c-.86,3.65-3.36,6.76-5.29,9.95a80.4,80.4,0,0,1-13.47,16.26,39.18,39.18,0,0,1-7.39,10.57c-6.83,7.18-10.34,13.44-19,18.33a121.22,121.22,0,0,0-17.23,13.51,4.67,4.67,0,0,1-7.71-.09Z" fill="#110802" fill-opacity="0.25"/>
          <path d="M170.49,265.72a20.78,20.78,0,0,0-3.09-.15c-2.42,0-4.88,0-6.54-1.8-2.66-3,0-7.94,3.95-7.65,6.87.36,13.68.74,20.17-1.13,4.12-1.56,7.77-4.4,12-5.72a4.64,4.64,0,0,1,3,8.78c-8,4.63-16.6,7.83-25.88,7.83C172.9,265.88,171.7,265.83,170.49,265.72Z" fill="#110802" fill-opacity="0.25"/>
          <path d="M162,297.14a35.63,35.63,0,0,0-15.09-6.66c-3.29-.55-6.93-.38-9.89-2-4.08-3.4-1.37-7.64,2.6-9.32,2.67-.93,5.7-.49,8.41,0,7.33.08,15.88.57,20.79,6.74a4.93,4.93,0,0,1,1.16,7,4.85,4.85,0,0,1-5,5.3A4.62,4.62,0,0,1,162,297.14Z" fill="#110802" fill-opacity="0.25"/>
          <path d="M116.72,290.24a4.64,4.64,0,0,1,1.41-6.38c1.09-.66,2.19-1.29,3.26-2,1.47-3.88,5.61-6.15,7.73-9.72.35-6.47,10.18-5.67,9.24.84.7,5-11,19.22-18,19.22A4.07,4.07,0,0,1,116.72,290.24Z" fill="#110802" fill-opacity="0.25"/>
          <path d="M114.37,329.47a4.81,4.81,0,0,1-2-6.45,7.78,7.78,0,0,1,1.12-1.54c-2.4-3-5.4-5.94-6.1-9.81-6.42-1.84-14.51-.81-20-5.31-3.93-5,3.23-10.27,7.52-6.39,7.31,2.61,17.73-.21,21.38,8,.28,6.26,10.71,9.41,7.69,16.11-2,2.35-4.46,5.89-7.57,5.89A4.55,4.55,0,0,1,114.37,329.47Z" fill="#110802" fill-opacity="0.25"/>
          <path d="M126.23,274.07c-8-1-12.66-8.59-14.55-15.8-3.2-.63-5.44-1.76-8.32-2.18-4.71-1.16-4.1-8.63.78-9,3.46-.48,7.43,1.93,10.65,2.27a7.46,7.46,0,0,1,4.26,1.59c2.82,3.57,1.55,9.92,6.74,13.17,3.11.72,6.93,2.61,6,6.49a4.74,4.74,0,0,1-4.55,3.57A4.38,4.38,0,0,1,126.23,274.07Z" fill="#110802" fill-opacity="0.25"/>
        </g>
      </g>
    </g>
  </g>
</svg>
