<svg xmlns="http://www.w3.org/2000/svg" width="450" height="450" viewBox="0 0 450 450">
  <g id="Layer_2" data-name="Layer 2">
    <g id="Vector_layer" data-name="Vector layer">
      <circle cx="225" cy="225" r="225" fill="#98d7c3"/>
      <g>
        <path d="M180.39,167.81c-17.67-1.11-35.48-1.55-52.75-5.76-8.76-1.56-16.68-4.12-22.67-10.44-19-21.07,8.72-46.36,28.61-53.5,23.61-8.31,46.8-11.46,71.72-10.5,31.18-1.53,62.57,1.14,93.36,5.09a131.9,131.9,0,0,1,33.48,12.1c16.61,11.64,19.45,30,.66,41.21-20,15.73-47.06,15.78-71.18,18.07a727.86,727.86,0,0,1-81.26,3.73Zm13.66-9.74c24.16.07,48.7-1.94,72.65-4.16,20.92-1.9,43.55-2.61,60.66-15.82l-.21.17-.1.06c12.65-7.95,11.32-15.35.67-24.49-9-5.45-19.57-8.14-29.57-11-40.07-8.08-81.74-5.86-122.43-5-23.29,4.27-50.38,8.16-64.49,29.3.06-.09.1-.15.15-.24a19.87,19.87,0,0,0-3,7c0-.14,0-.29.06-.43-2.38,17.29,20.58,18.47,32.31,21.44C158.49,157,176.27,158.44,194.05,158.07Z" fill="#110802"/>
        <path d="M180.57,139.62c-12-2.24-60.36,7.37-48.41-16.48a18.61,18.61,0,0,1,10.23-6.87c5.86-1,7.35,7.86,1.55,9a0,0,0,0,0,0,0,5.4,5.4,0,0,0,1-.31c-1.92.87-4.38,1.8-5.25,3.86,13,3,26.65.52,39.86,1.57,19.53.44,39.08.27,58.6-.73,21.7-1.83,45.56,2.18,65.24-8.17,1.53-5.76,10.25-3.67,9,2.18-7.75,17.75-52.72,13.51-69.71,15C222,139.82,201.24,140.12,180.57,139.62Z" fill="#110802"/>
        <path d="M214.69,352.63c-32.67-3.7-66.59-8.51-94.47-27.08-19.08-13.13-31-34.15-39.67-55.18-8.55-21.39-6.38-45.61.8-67C87,184.78,94,165.57,109,152.45c2.78-6.34,11-3.35,9,3.35-2.91,4.57-7.07,7.17-10.2,11.51-6.11,7.34-9.39,16.43-12.92,25.18C76.44,238,83.08,273,115.75,309.53c18.44,17,44,25.24,68.36,28.65,23.1,5.48,46.4,5,69.73,2.27,33-4.78,72.16-9.29,91.33-40.28,19.28-35.73,28.78-83,8.08-119.89-6.77-13.14-19.9-19.59-30.69-28.7-3.46-3.73,1-10,5.69-8.05,8.26,6.15,17.4,11.46,24.52,19.07,11.86,12.79,18.49,29.85,21.16,46.91,3.95,31.07-3.3,63.43-17.36,91.13C330,349.83,263.76,349.91,214.69,352.63Z" fill="#110802"/>
        <path d="M255.17,323.69c-36,1.15-67.84-24.91-80.31-57.53-7.39-29,1.78-61.82,24.16-81.9,12.06-11.48,46.11-32,62.26-24.06,11.24-1.15,21.84,1.42,32.51,4.52,8.35,2.12,16.73,5.05,23,11.18,17.2,14.5,32.69,34.74,33.67,57.87,1.67,33-17.62,66.23-46.26,82.09C289.17,323,271.51,324.49,255.17,323.69ZM274,313.18c36.58-1.09,65.24-37.66,66.16-72.48,2.16-25.43-17.86-50.23-38.47-62.93-9.88-3.1-20.58-7.13-30.84-7.79-7.72.07-15.52-.4-23.19.55a5,5,0,0,1-4-1.25c-20.45,6.66-39.37,18.87-51,37-13.38,23.09-16.43,54.63,2,75.72C215,310,241,315.92,274,313.18Z" fill="#110802"/>
        <path d="M156.79,315.87c-1-8.15,17-6.45,22.48-7.2,6.54-.09,13.08-.05,19.62,0a4.55,4.55,0,0,1,.32,9.09c-8.94.15-18.91-.35-27.5.39C166.89,317.91,158.61,322.75,156.79,315.87Z" fill="#110802"/>
        <path d="M224.72,189.55c-3.21-7.9,16.39-11.94,21.9-12.77,5.83-.91,7.35,7.92,1.53,8.93-1.84.23-3.66.55-5.15.89a54.15,54.15,0,0,0-12.24,5.14A4.55,4.55,0,0,1,224.72,189.55Z" fill="#110802"/>
        <path d="M195.8,238.1c-6.78-2.35-1.52-10.8-.82-15.62,2.1-8.62,6.25-17.07,13.77-22.16,5-3.17,9.84,4.35,4.9,7.63a26,26,0,0,0-4.6,4.51c-4.59,6.48-5.94,14.68-7.8,22.25A4.55,4.55,0,0,1,195.8,238.1Z" fill="#110802"/>
        <path d="M253.48,308.74c-6.78.14-29.41-4.56-22.11-14.63a4.62,4.62,0,0,1,6.39.55c6.75,6.24,17.39,4.83,25.93,5a4.58,4.58,0,0,1,4.69,4.38C267.9,311.28,258.33,308.23,253.48,308.74Z" fill="#110802"/>
        <path d="M325,249.59a4.6,4.6,0,0,1-4.07-5c.08-7.17,2.3-14.91-1.28-21.57-2.48-5.37,5.61-9.18,8.2-3.87,4.46,8.14,2.49,17.53,2.11,26.33A4.57,4.57,0,0,1,325,249.59Z" fill="#110802"/>
        <path d="M294.42,294.11c-3-5.11,3.68-7.49,6.88-10,6.27-4.69,10.72-11.48,14.17-18.43,1.28-3.11,2.2-6.63,4.59-9.08,3.95-4.34,10.72,1.86,6.67,6.15-4.39,10.1-9.77,20.47-18.48,27.53C304.4,292.74,298.49,299.49,294.42,294.11Z" fill="#110802"/>
        <path d="M213.65,207.94c4.94-3.27.1-10.79-4.9-7.63-7.52,5.11-11.66,13.55-13.77,22.16-.7,4.83-6,13.29.83,15.63a4.55,4.55,0,0,0,5.44-3.4c1.85-7.55,3.21-15.77,7.8-22.25A26.31,26.31,0,0,1,213.65,207.94Zm34.51-22.23c5.82-1,4.29-9.84-1.53-8.93-5.52.83-25.12,4.88-21.9,12.77a4.54,4.54,0,0,0,6,2.19A54.52,54.52,0,0,1,243,186.59,49.82,49.82,0,0,1,248.16,185.71Zm20.22,118.34a4.59,4.59,0,0,0-4.69-4.37c-8.54-.19-19.19,1.23-25.93-5a4.61,4.61,0,0,0-6.39-.55c-7.3,10.06,15.34,14.76,22.1,14.62C258.33,308.24,267.91,311.27,268.38,304.05Zm58.36-41.29c4-4.27-2.73-10.47-6.67-6.14-2.4,2.45-3.32,6-4.6,9.08-3.45,7-7.9,13.74-14.17,18.43-3.2,2.49-9.88,4.87-6.88,10,4.07,5.39,10-1.35,13.83-3.8C317,283.25,322.33,272.86,326.74,262.76Zm3.2-17.24c.38-8.8,2.36-18.18-2.11-26.32-2.58-5.32-10.68-1.51-8.2,3.86,3.59,6.67,1.36,14.41,1.29,21.58a4.53,4.53,0,1,0,9,.88Zm-28.26-67.75c20.59,12.71,40.62,37.49,38.46,62.93-.93,34.82-29.57,71.38-66.17,72.47C241,315.92,215,310,194.6,282c-18.39-21.09-15.36-52.64-2-75.74,11.65-18.09,30.57-30.3,51-37a5,5,0,0,0,4,1.24c7.69-.94,15.47-.47,23.2-.55C281.08,170.63,291.8,174.67,301.68,177.77Z" fill="#ffc116"/>
        <path d="M199.2,317.71a4.54,4.54,0,0,0-.32-9.08c-6.54,0-13.08-.06-19.62,0-5.46.75-23.5-1-22.48,7.2,1.83,6.88,10.1,2,14.93,2.24C180.3,317.38,190.27,317.87,199.2,317.71ZM353.25,180.28c20.69,36.94,11.2,84.16-8.08,119.89-19.17,31-58.32,35.5-91.32,40.27-23.35,2.77-46.64,3.22-69.75-2.26-24.32-3.41-49.91-11.65-68.34-28.64C83.08,273,76.45,238,94.89,192.49c3.55-8.74,6.83-17.84,12.93-25.17,2.38-3.32,5.37-5.6,7.94-8.52A57.07,57.07,0,0,0,127.65,162c17.24,4.22,35,4.65,52.7,5.77,14.78.22,29.55-.14,44.31-.93-10.57,5.39-20.28,12.27-25.65,17.38-22.37,20.09-31.54,52.93-24.16,81.9,12.48,32.62,44.34,58.68,80.32,57.53,16.34.79,34-.68,49-7.84,28.64-15.85,47.94-49.11,46.26-82.09-1-23.12-16.45-43.36-33.65-57.85-6.28-6.14-14.66-9.07-23-11.19-3.24-.95-6.48-1.85-9.74-2.6,13.62-1.4,27.23-3.76,39.19-10C333.9,161,346.62,167.41,353.25,180.28Z" fill="#fefefe" fill-opacity="0.73"/>
        <path d="M312.3,123.63c1.29-5.84-7.44-7.93-9-2.16-19.69,10.34-43.55,6.33-65.24,8.16-19.52,1-39.06,1.17-58.6.73-13.21-1.05-26.89,1.47-39.86-1.58.85-2,3.24-2.94,5.15-3.79,0,0,.07,0,.11-.06,4.65-1.8,3-9.55-2.49-8.66a18.54,18.54,0,0,0-10.23,6.87c-11.95,23.84,36.41,14.23,48.39,16.47q31,.76,62-.94C259.58,137.15,304.56,141.39,312.3,123.63Zm15.42-9.79c10.61,9.12,12,16.48-.55,24.4l0,0-.09.05C310,151.3,287.5,152,266.7,153.9c-23.95,2.24-48.49,4.24-72.65,4.16-17.78.38-35.55-1.09-53.25-3.12-11.66-2.94-34.43-4.13-32.36-21.13a19.9,19.9,0,0,1,2.91-6.84c14.13-21,41.13-24.89,64.37-29.13,40.68-.89,82.35-3.09,122.43,5C308.16,105.68,318.75,108.39,327.72,113.84Z" fill="#fefefe" fill-opacity="0.73"/>
        <path d="M103.93,203.94c-6.5-3.17-.17-10.54,1.86-14.81,4.2-6.68,7.3-16.06,14.84-19.49a4.53,4.53,0,0,1,2.91,8.46,68.55,68.55,0,0,0-5.53,7.66c-2.81,5.14-5.9,10.15-8.24,15.52A4.58,4.58,0,0,1,103.93,203.94Z" fill="#110802"/>
        <path d="M202.43,183.14a15.07,15.07,0,0,1-7.23-1.67c-9.53,1.05-19.39-1.13-28.87.16-14.21,3.19-28-.39-41.27-5.24-5.46,2.57-9.16-5.4-4.07-8.45,7.38-3.07,16.6,4.47,24.23,5.06,9.36,1.59,18.51-.54,27.86-1.09,7.35.09,14.65,1.15,22,.36,2.79-.24,5,1.88,7.71,1.69,9.68-.23,18.7-2.34,28.24-3.19,29.13-1.51,59.27,2.87,87.23-7-1.73-1.53-3.77-2.69-5.15-4.51-1.3,0-2.34-.4-3.59-.55-5.15-.44-5.48-8.36-.32-9.08,4,0,8.83.06,11.19,3.76l-.11-.15,0-.05c3.47,4,12.58,7.4,8.84,13.87-6.94,7.08-17.19,8.81-26.59,10.06-12.86,1.85-25.69,3.63-38.72,2.51-20.74-1.33-41,1.88-61.5,3.49Z" fill="#110802"/>
        <path d="M117.41,173.47c-1.66-6.7,21-15.76,26.49-15.3,4.89,1,4.37,8.58-.58,9a54.41,54.41,0,0,0-17.71,8.21C123.42,178.66,118.1,177.42,117.41,173.47Z" fill="#110802"/>
        <path d="M343.38,244.06c-3.95-5.11,4.2-9,6.79-11.92,4.65-4.39,8.59-9.37,12.85-14.1a4.6,4.6,0,0,1,6.41-.28c5.09,5.38-5.6,11.89-8.37,16.32C356.58,237.36,349.21,249.73,343.38,244.06Z" fill="#110802"/>
        <path d="M336.79,266.88a4.59,4.59,0,0,1,.55-6.43c8.67-6.4,17.39-12.25,25.68-19,4.47-3.77,10.4,3.2,5.85,7-7.2,5.92-15.45,11.71-22.89,17C343.43,267.53,339.6,270.22,336.79,266.88Z" fill="#110802"/>
        <path d="M311.76,302.66c-4.4-6.26,8.16-12.16,11.81-16.19,11.92-8.13,22-17,33.57-25.19A4.55,4.55,0,1,1,362,269c-6.25,3.89-11.53,9.09-17.42,13.49-6.64,5.18-13.41,9.3-19.65,14.64C321.17,299.73,316.65,307.65,311.76,302.66Z" fill="#110802"/>
        <path d="M312.31,311.83c-4.56-7.76,14.94-11.85,19.45-15.73,6.55-3.67,12.53-8.17,18.75-12.37,1.81-1.11,4.05-1.82,6.05-.75,4,2,2.81,8.4-1.59,8.79-2.59,1.61-5,3.58-7.48,5.31-8.55,6.11-18.62,10.85-27.71,15.49C317.48,314.33,314,314.55,312.31,311.83Z" fill="#110802"/>
        <path d="M210.32,362.59c-13,.58-25.72-1.36-38.41-2.87-12-.77-26.12.87-35.6-8-6.18-5.89-6.21-14.08,3.64-15.1,4-.61,10.38-2.72,12.57,2,24.47,12.57,53.58,10.88,80.1,9.5,24-2.85,48.83-1.6,71.66-10.31-.13-3.18,2.77-5,5.61-5.28a62,62,0,0,1,34-2.68c13.77,2.41,11,14.92-.11,19.16-18.8,7.33-39.59,6.92-59.4,7.05C259.8,359.06,235.15,364,210.32,362.59Z" fill="#110802" fill-opacity="0.25"/>
        <path d="M269.15,318.68c-4.47,0-12.08.41-12.47-5.62.46-5.22,5.93-7.71,8.72-11.68a122.71,122.71,0,0,0,20.18-29.11c13.14-31.79,21.13-69.91,4.54-101.78-3.09-2.6-1-8.08,3.15-7.94,5.54.66,6.87,7.7,8.79,12,26.33,5.12,44.6,49.24,38.31,73.73-4.59,21.32-12.79,46.18-33.47,56.74-4.91,1.52-8.34,5.37-12.74,7.77C286.08,316,278.11,319.78,269.15,318.68ZM329.36,236c1.37-7.52.69-15-4.71-20.8a84.11,84.11,0,0,1,2.2,18.83A4.57,4.57,0,0,1,329.36,236Z" fill="#110802" fill-opacity="0.25"/>
        <path d="M122,220.79a4.31,4.31,0,0,1-.49-.22c-13.29,1.1,1.75-40,11.5-34.41,3.28-3.5,10-2.34,9.63,3.16-.53,3.42-4.13,5.13-6.32,7.48-1.83,5-3.84,9.93-4.92,15.19a4.6,4.6,0,0,1-2,2.79C128.64,218.29,126.1,222.38,122,220.79Z" fill="#fff"/>
        <g>
          <path d="M236.52,263.46c-2,.77-4.88,1.9-3.49,4.37,1.3,1.7,3.05.78,4.76-.12a8.78,8.78,0,0,1,2.32-1,60.49,60.49,0,0,1,6.13-2.07l4-1h0l1.52-.37a2.2,2.2,0,0,0-1.31-4.19,82.24,82.24,0,0,0-13.36,4.13Zm-11.29,1.6c2.54-.88,5.5-2.12,4.55-4.61a2.22,2.22,0,0,0-1.26-1.15,2.28,2.28,0,0,0-1.72.07c-7.08,3.78-17.07,5.22-23.56-.4-4.37-5.46-.53-13.74,3.85-18.06,5.88-5,14.11-6,21.57-4.64-1.19.9-2.41,1.76-3.64,2.58a2.23,2.23,0,0,0,2.4,3.76c6.87-4.32,12.7-9.93,18.53-15.55h0c3.67-3.54,7.35-7.08,11.28-10.29,8.91-7.54,20.47-14.54,32.58-12.75,6,1.24,12.52,4,15.38,9.8,4.8,8.81,2.76,20.55-3.3,28.27a23.74,23.74,0,0,1-4.21,4.23,10.09,10.09,0,0,0-1.93-.3h0L295,246a23.73,23.73,0,0,0,2.88-10.73,2.19,2.19,0,0,0-4.36-.43,26.31,26.31,0,0,1-.73,5.15,13.29,13.29,0,0,1-2.44,4.74,2.16,2.16,0,0,0-1,.7,1.65,1.65,0,0,0-.2.31c-1.69,0-3.37,0-5.05,0,1.28-2.91,2-6.35,1.68-7.8a26.7,26.7,0,0,0-1.1-5.3,2.2,2.2,0,0,0-4.2,1.33,12.45,12.45,0,0,1-1.71,12q-4.9.38-9.77,1.17a88.62,88.62,0,0,0-11.85,3.31,2.24,2.24,0,0,0-1.45,2.75,2.24,2.24,0,0,0,2.76,1.46l2.54-.79h0c2.1-.66,4.2-1.32,6.33-1.84a70.1,70.1,0,0,1,12-1.61,2.07,2.07,0,0,0,.82,0c1-.06,2-.1,3-.15a84,84,0,0,1,12.19.16,14.26,14.26,0,0,0,.75,3.3h0a16.92,16.92,0,0,1,.49,1.73c.34,1.15.66,2.32,1,3.48h0c.29,1.08.59,2.17.91,3.25-3.64.42-7.29.78-10.94,1.14h0c-9.27.91-18.55,1.82-27.66,3.82a162.68,162.68,0,0,0-19.76,5.31h0a58.08,58.08,0,0,0-10.79,4.26c-.52-1.42-1-2.86-1.45-4.3A58.54,58.54,0,0,0,225.23,265.06Zm74.65-14.85h0c1.85-1,3.77-3.34,5.07-4.94l.92-1.09A28.7,28.7,0,0,0,311,233.69c5.95-21.08-8.64-36.85-30-34.15-15.45,2.73-26.4,13.13-37.36,23.54-3.49,3.31-7,6.63-10.62,9.7a19.91,19.91,0,0,0-5.2-1.2c-.77-.11-1.47-.2-2-.32-8.08-.67-17.28,1.4-23,7.51-9,10.15-8.83,25.81,7,28a26.78,26.78,0,0,0,11.17-.38,8.31,8.31,0,0,0,.51,1.42c.12.29.25.58.35.88a47.09,47.09,0,0,1,1.57,4.7h0a32.33,32.33,0,0,0,2.56,6.73,1.92,1.92,0,0,0,1.44.78,1.88,1.88,0,0,0,1.38.64,158.25,158.25,0,0,1,37.44-11.09c7.22-1.37,14.45-2,21.73-2.72h0c4.14-.38,8.29-.77,12.47-1.29a2.34,2.34,0,0,0,2.4-3.18,2.14,2.14,0,0,0,.2-1.42c-.37-1.53-.82-3-1.27-4.54h0c-.07-.25-.15-.5-.22-.75s-.24-.8-.35-1.2C300.78,253.68,300.28,252,299.88,250.21Z" fill="#242731" fill-rule="evenodd"/>
          <path d="M229.22,283.41h-.41a3.82,3.82,0,0,1-2.13-.76,3.77,3.77,0,0,1-2.07-1.38l-.14-.22a33.77,33.77,0,0,1-2.71-7.1,46.94,46.94,0,0,0-1.51-4.52c-.13-.35-.23-.6-.34-.84v0a28.35,28.35,0,0,1-10.31,0c-6.77-.94-11.61-4.42-13.57-9.76-2.38-6.47-.21-14.82,5.53-21.26,5.49-5.91,14.62-8.93,24.46-8.12l.25,0c.45.1,1.12.2,1.83.29a27.43,27.43,0,0,1,4.59.92c3.32-2.86,6.57-5.95,9.73-8.94,11-10.42,22.31-21.18,38.3-24,11.12-1.4,21,1.9,27.18,9.08,6,7,7.78,17,4.85,27.35a30.46,30.46,0,0,1-5.43,11.11l-.09.1-.77.91-.1.12A28.21,28.21,0,0,1,302,251c.32,1.3.71,2.6,1.08,3.87l.57,1.94c.46,1.53.92,3.07,1.3,4.64a4.91,4.91,0,0,1-4.27,6.84c-4.19.52-8.37.9-12.41,1.28-7.09.66-14.42,1.34-21.57,2.69a157,157,0,0,0-37,11Zm-.77-4.12.32.36A159.85,159.85,0,0,1,266,268.7c7.27-1.38,14.69-2.07,21.87-2.74,4.05-.37,8.23-.76,12.42-1.28h.26a.64.64,0,0,0,.6-.2.61.61,0,0,0,.06-.53l-.29-.78.39-.73a.36.36,0,0,0,0-.23c-.33-1.36-.77-2.85-1.2-4.3l-.59-2c-.51-1.73-1-3.5-1.44-5.3l-.07-.31.16-1.25.81-.44c1.54-.85,3.35-3,4.54-4.5l.1-.12.82-1a26.64,26.64,0,0,0,4.76-9.77c2.65-9.38,1.19-17.9-4.1-24.05s-14.07-9.09-23.88-7.85c-14.82,2.62-25.27,12.55-36.34,23-3.45,3.28-7,6.66-10.7,9.77l-.88.74-1.05-.47a18.55,18.55,0,0,0-4.68-1.05c-.74-.1-1.44-.2-2-.32-8.67-.68-16.66,1.91-21.34,6.95-4.76,5.34-6.7,12.42-4.81,17.57,1.5,4.08,5.21,6.65,10.73,7.43a24.94,24.94,0,0,0,10.47-.34l1.83-.46.39,1.84a6.47,6.47,0,0,0,.39,1.07c.15.36.29.69.4,1a45.23,45.23,0,0,1,1.6,4.77,31.43,31.43,0,0,0,2.31,6.2.11.11,0,0,0,.07,0l.74.06-.69-1.87c-.52-1.41-1-2.86-1.43-4.27a61.41,61.41,0,0,0-2.65-7.22l-.86-1.83,1.91-.66c2.06-.71,3.24-1.34,3.48-1.87,0,0,0-.1,0-.29a.46.46,0,0,0-.22-.17.45.45,0,0,0-.34,0c-7,3.74-18,5.84-25.51-.68l-.23-.24c-4.8-6-1.53-15,4-20.48l.1-.09c5.73-4.89,14.15-6.73,23.09-5l4.05.76-3.3,2.47c-1.24.94-2.5,1.83-3.73,2.64-.14.1-.33.22-.12.55s.45.22.58.15c6.68-4.21,12.54-9.85,18.21-15.31,3.64-3.5,7.39-7.12,11.39-10.39,12.11-10.25,23.55-14.69,34-13.13,8.37,1.71,14.12,5.43,16.75,10.78,4.86,8.92,3.43,21.37-3.5,30.2a25.28,25.28,0,0,1-4.53,4.54l-.73.58-.9-.27a8.3,8.3,0,0,0-1.57-.23l-.77-.07-2.78-.33,1.43-2.41a22.17,22.17,0,0,0,2.63-9.71v-.23c0-.16,0-.37-.35-.41s-.37.15-.39.31a27.7,27.7,0,0,1-.78,5.4,15,15,0,0,1-2.79,5.44l-.3.38-.47.17a.45.45,0,0,0-.17.13l-.53,1-1.14,0c-1.65,0-3.32,0-5,0l-2.87.08,1.16-2.63c1.25-2.84,1.75-5.81,1.56-6.69l0-.2a24.4,24.4,0,0,0-1-4.93c0-.14-.11-.32-.46-.21s-.31.33-.26.48a14.27,14.27,0,0,1-2.06,13.71l-.49.6-.77,0c-3.21.25-6.45.63-9.62,1.15a88.35,88.35,0,0,0-11.53,3.23.46.46,0,0,0-.28.22.42.42,0,0,0,0,.31.4.4,0,0,0,.18.19.45.45,0,0,0,.32,0l2.51-.78c2.13-.67,4.27-1.34,6.44-1.87a72.5,72.5,0,0,1,12.35-1.66h.18l.18,0,.48-.07,3-.14a82.92,82.92,0,0,1,12.39.16l1.63.11.07,1.63a12.52,12.52,0,0,0,.66,2.82,18.63,18.63,0,0,1,.52,1.83c.34,1.15.66,2.3,1,3.46s.58,2.15.9,3.21l.61,2.07-2.14.25c-3.66.43-7.38.79-11,1.14-9.06.89-18.43,1.81-27.45,3.79a162.6,162.6,0,0,0-19.57,5.26,57.52,57.52,0,0,0-10.51,4.12Zm-.8-13.21c.77,1.9,1.4,3.85,2,5.75.25.79.49,1.55.74,2.3a72.31,72.31,0,0,1,9.22-3.42,166.49,166.49,0,0,1,20-5.36c9.2-2,18.68-3,27.85-3.85,2.88-.28,5.83-.57,8.78-.9-.12-.4-.23-.8-.34-1.21-.31-1.15-.62-2.3-1-3.44l-.05-.17c-.08-.41-.25-1-.43-1.54s-.44-1.38-.6-2.12a73.18,73.18,0,0,0-10.46-.07l-2.88.14a3.84,3.84,0,0,1-1.12.07,65.36,65.36,0,0,0-11.56,1.55c-2.05.5-4.14,1.15-6.15,1.79l-.14,0-2.48.77a4,4,0,0,1-3.05-.31,4,4,0,0,1-1.95-2.33,4.05,4.05,0,0,1,2.59-5,91.57,91.57,0,0,1,12.06-3.36c3.07-.5,6.14-.88,9.18-1.13a10.82,10.82,0,0,0,1-9.68,4,4,0,0,1,7.63-2.51,29,29,0,0,1,1.16,5.58,14.7,14.7,0,0,1-.84,6.22h1.55a4.47,4.47,0,0,1,.86-.64,11.5,11.5,0,0,0,1.86-3.76,24.72,24.72,0,0,0,.67-4.75,4,4,0,0,1,8,.54,25.7,25.7,0,0,1-1.59,8.29,21.54,21.54,0,0,0,2.31-2.56c6-7.61,7.3-18.67,3.14-26.3-2.7-5.5-9.18-7.86-14.15-8.88-9.26-1.37-19.74,2.78-31,12.35-3.91,3.2-7.62,6.77-11.2,10.21-5.8,5.59-11.8,11.37-18.82,15.78a4,4,0,0,1-5.55-1.28,3.91,3.91,0,0,1,.9-5.33c-6.05-.24-11.5,1.4-15.42,4.72-3.71,3.69-7.27,10.86-3.77,15.46,5.76,4.84,14.88,3.53,21.4.06a4.11,4.11,0,0,1,3.18-.18,4.06,4.06,0,0,1,2.29,2.07l.06.14a4,4,0,0,1-.07,3.21A6.84,6.84,0,0,1,227.65,266.08Zm7.09,4.51a3.83,3.83,0,0,1-3.16-1.65l-.14-.22a3.92,3.92,0,0,1-.38-3.32c.73-2,3.08-3,4.8-3.63l.53-.21A83.5,83.5,0,0,1,250,257.35a4,4,0,0,1,2.3,7.68l-1.63.41c-1.38.34-2.67.65-4,1a58.8,58.8,0,0,0-5.92,2l-.34.1a8.41,8.41,0,0,0-1.8.8A8.81,8.81,0,0,1,234.74,270.59Zm-.19-3.76c.22.24.54.25,2.39-.72a11,11,0,0,1,2.65-1.12,63.63,63.63,0,0,1,6.16-2.07l3.89-1,1.66-.4s.22-.08.11-.43-.3-.31-.45-.26l-.15,0a78.6,78.6,0,0,0-13.06,4l-.58.22h0c-.63.24-2.5,1-2.69,1.47h0A.82.82,0,0,0,234.55,266.83Z" fill="#231f20"/>
        </g>
        <g>
          <path d="M118,265c-3-1.75-3.14-5.65-3.48-8.76a85.56,85.56,0,0,1-.79-12.79c.11-5.58.73-11.06.86-16.46.12-3-.05-6.21,1.23-8.79,2.26-4.62,9.72-1.91,8.42,3.12-.77,10-1.77,20.84-.82,30.78,5.19-3.06,12.8-15.33,18.89-8.56a4.71,4.71,0,0,1-1.41,6.41c-5.64,4.32-10.89,9.11-16.3,13.7C122.91,265.28,120.25,266.27,118,265Z" fill="#110802"/>
          <path d="M189.62,262.78c-16.28-.67-32.13-5.24-47.43-10.58-5-.93-8.35-7.36-2.92-10.27,3.27-1.55,6.18,1.21,9.31,1.87,9.2,3.56,18.91,5.34,28.46,7.65,20.89,1.66,55.44,5.91,67.57-15.16-15.49-19.65-44.4-22.88-67.58-18.88-10.63,3.27-20.27,7.94-30.27,12.15-3.08,1.56-5.85,4.46-9.51,4.31-6.57-1.21-11.61-6.86-16.33-10.63-2.48-1.31-4.78-4.16-3.06-7,6.08-7.86,13.38,6.21,19.5,7.89,16.14-8.34,33.5-17.37,52-17.62,23.62-.79,52.11,5.3,65.18,26.86,1.45,4.3-1.8,8.28-3.94,11.74C236.64,263.4,210.57,263,189.62,262.78Z" fill="#110802"/>
          <path d="M211.5,237.36c-5-4.13-3.33-21.09,5.67-16.32,3.38,2.51,1.93,7.18,2,10.78C219.62,236.07,215.48,240.08,211.5,237.36Z" fill="#110802"/>
          <path d="M219.18,231.82c-.07-3.6,1.36-8.27-2-10.78-9-4.77-10.69,12.19-5.68,16.32C215.49,240.07,219.62,236.08,219.18,231.82Zm25.42,4.46c-12.11,21.09-46.67,16.83-67.55,15.17-9.56-2.31-19.26-4.08-28.48-7.65-2.94-.62-5.73-3.14-8.8-2.09-5.58-1.77-11.85,7.71-16.32,10.35-.81-8.46-.21-17.58.47-26.27,3.9,3.39,8.14,7.12,13.33,8.08,3.67.15,6.42-2.75,9.51-4.31,10-4.21,19.64-8.88,30.27-12.14C200.21,213.41,229.13,216.65,244.6,236.28Z" fill="#eb8302"/>
          <path d="M120,254.64c-1.81-1.66-1.75-4.32-1.88-6.58-.14-6.79-1-13.7-.62-20.46,0,.27-.11.52-.1.75a4.55,4.55,0,0,1,9.08-.1c3.69-.3,5.62,3.27,5.44,6.55,25.6,11.47,54.52,11.26,81.85,9.57,11.7-1.25,22.42-6.14,33.75-7.46,4.16.2,6,6,2.66,8.57-4.58,2.89-10.82,3.18-15.9,4.72-12.5,4.27-25.44,4.88-38.52,5-18.41.38-37.15-.7-54.69-6.53-2.34,4.7-8.8,3-13,2.4C128,255.09,123,257.5,120,254.64Z" fill="#110802" fill-opacity="0.25"/>
        </g>
      </g>
    </g>
  </g>
</svg>
