<svg xmlns="http://www.w3.org/2000/svg" width="450" height="450" viewBox="0 0 450 450">
  <g id="Layer_2" data-name="Layer 2">
    <g id="Vector_layer" data-name="Vector layer">
      <g>
        <circle cx="225" cy="225" r="225" fill="#98d7c3"/>
        <g>
          <path d="M169.76,87.13c7.21,6.61,9.12,16.23,6.45,25.45-1.12,7.35-3.06,14.57-8.7,19.82a68,68,0,0,1-20.14,12.74,23,23,0,0,1-16.11,4.07c-9,.3-19.32-6.57-19.14-16.29,1.53-8.46,9-15.29,16.42-18.32-2.07-15.51,4.83-32.74,21.46-36.17C157.21,77.15,168.72,78,169.76,87.13Z" fill="#e95e44"/>
          <path d="M114.75,182.92c5.31-1.79,8.66,6.49,3.49,8.9,5.33,16.27-17.82,50.12-36.3,43-12.66-8.37,4.41-20.2,4.25-30.44.14-4.31-1.42-7.47-2-11.56-.78-15.55,20.8-18.48,30.5-10C114.73,182.9,114.75,182.9,114.75,182.92Z" fill="#e95e44"/>
          <path d="M340.62,143.12c7.85,38.52-4.79,66-35.49,89.26-11.66,8.77-22.53,18.53-34.79,26.37-17.36,10.38-38.8,16.57-59,13.79-13.18-5.39-29.38-3.85-41.16-12.27a31.52,31.52,0,0,1-11.92-13.68c-3.21-4.39-6.72-9.06-7.12-14.65.22-13.11,7.64-26.38,18.52-33.67,6.53-4,11.14-9.16,17.83-12.15,6.22-6.25,12.33-11.08,17.24-18.09,7.69-14.17,12.14-29.72,19-44.29,8.93-15.65,25.51-29.74,44-30.72a125,125,0,0,1,18,3.53h0a.12.12,0,0,1,.08,0,2.66,2.66,0,0,1,.38.1,5.93,5.93,0,0,1,1,.4,4.55,4.55,0,0,1,3.31-.38c5.53,1.48,11.38,2.3,16,6.29,5.29,3.07,11.22,5.23,15.61,9.68,5.79,6.81,12.21,13.35,17.06,20.86C340.62,136.45,342.1,140.07,340.62,143.12Z" fill="#e95e44"/>
          <path d="M156.11,285.84c13.89,5,15.73,22.67,11.93,35.05-6.58,20.8-31.51,44.75-54.67,37.24-8.52-3.65-12.59-16.16-9-24.43,4-7.5,13.87-11.74,14.39-21-2.41-17-.06-30.58,19.84-32.05C143.73,281.17,155.87,278.59,156.11,285.84Z" fill="#e95e44"/>
          <path d="M249.82,297c14.25,5.27,18.54,20.88,16,34.68-2,16.58-35.95,49-52.72,36.72-11.61-10.52.44-20.22,3.4-31.22,1.2-6.62-.56-13.13-1.14-19.68-.58-11.49,9.6-22.71,21.46-20.69C239.94,292.4,245.83,295.66,249.82,297Z" fill="#e95e44"/>
          <path d="M369.68,262.56c25.77,28.73-11.21,68.23-42,70.4-11.34.7-23.5-9.74-17.47-21.41,6.13-12.54,19.38-21.8,18.36-37.25a5,5,0,0,1-.79-6.65c3.49-4.85,7.5-9.82,13.43-11.65C350.7,253.82,362.54,255.4,369.68,262.56Z" fill="#e95e44"/>
          <path d="M327.48,307.32C321.4,294,321,275.2,331.07,263.46c2.72-3.49,6.6-6.81,11.28-5.29l-.24,0h-.48c7.26.13,6.07,10.86-1,9.67-6.47,5.65-7.51,15-6.82,23,.43,4.29,1.95,8.41,2,12.71S330.64,310.31,327.48,307.32Z" fill="#e95e44"/>
          <path d="M267.41,156c-17-1.24-15.64-25.2-1.34-29.84,3.56-.48,6.64-2.87,10.34-2.28C303.05,132,288.8,155.19,267.41,156Z" fill="#fefefe"/>
          <path d="M148.52,106.67c-7.12-6,1.62-20.21,9.4-11.54C162.84,101,155.36,111.12,148.52,106.67Z" fill="#fefefe"/>
          <path d="M133.8,308.9a6.28,6.28,0,0,1,.56-4.6c-.1-10.7,17.5-7.57,16.33,2.05C149.8,314.34,136.33,317.36,133.8,308.9Z" fill="#fefefe"/>
          <path d="M238.06,324.25c-1.05-1.63-1-3.4-1.71-5.15-.44-2.43,1.05-4.37,3-5.57,2.19-3.45,7.87-2.71,9,1.24C256.89,320.83,243.76,332.47,238.06,324.25Z" fill="#fefefe"/>
          <path d="M339.72,286.59a9,9,0,0,1-.64-8.11,7.08,7.08,0,0,1,1.89-2.65,4.87,4.87,0,0,1,9.57-.66C363.29,281,347.22,297.8,339.72,286.59Z" fill="#fefefe"/>
          <path d="M320.56,332a9.67,9.67,0,0,1-1.88-.25l.5.08h.18c-6-.36-5.92-9.44.12-9.64,3,.33,5.41-1,8.2-1.6,7.83-1.85,14.3-7.32,20.18-12.36,6.7-5.61,14.25-11,16.17-20,.91-2.51,2.12-4.71,3-7.12a5.19,5.19,0,0,1,4.83-5.29c9.65,1.17,2.79,12.17.93,17.4-2.29,9.59-10.43,15.69-17.62,21.74C345.56,323.84,333.83,331,320.56,332Z" fill="#fefefe"/>
          <path d="M199.57,267.55a5.24,5.24,0,0,1-1.4-2.43c-4.39,0-8.75-1.09-13.09-.26-6.16.1-6.71-9.21-.46-9.63,7.78-1.09,15.71,1,23.56.05a122.3,122.3,0,0,0,40.44-12.8c36.81-16.6,67.68-44.77,84.35-81.65a77.44,77.44,0,0,1,6.14-12.25,5.46,5.46,0,0,1,3.52-4.32A5,5,0,0,1,349,149c-.17,22.75-5.84,45.69-23.45,61.33-16.6,25.57-44.32,44.16-73,53.9-3.86.94-9.24,3.43-12.23-.4-11,2.33-22.08,5.72-33.45,5.64C204.31,269.48,201.39,269.32,199.57,267.55Z" fill="#fefefe"/>
          <path d="M202.59,267.49c-15.17-.51-32.79-.66-43.39-13-3.17-3.18-7.29-5.51-9.82-9.25-2.55-5.28,5.26-9.57,8.44-4.64a5.76,5.76,0,0,0-.5-.59c.06.06.12.12.12.08,3.93,3.29,8.34,6.88,11.64,10.63,9.88,6.74,22.36,6.43,33.83,7.05C208.75,258.2,208.47,267.47,202.59,267.49Z" fill="#fefefe"/>
          <path d="M199.89,263.85c-17.32-.67-36.09-5.4-48-18.74-6.5.56-7.35-9.33-.76-9.66,3.72-.56,6.89,1.38,9,4.22,5.93,6.45,14.42,9.21,22.49,12,10.31,2.2,21.38,3.39,31.89,2.25a4.89,4.89,0,0,1,5.61,4C220.3,267.16,205.87,263.71,199.89,263.85Z" fill="#fefefe"/>
          <path d="M212.24,370.25a7.33,7.33,0,0,1-6.49-5.75c-1.08-4.7,5.75-7.71,8.46-3.81h0c10.14.4,19.28-3.36,27.11-9.55a80.38,80.38,0,0,0,24.83-24.22,4.88,4.88,0,0,1,6.41-.68c6.79,5.41-6.87,16.94-10.66,21.32C248.38,359.76,231.34,372.45,212.24,370.25Z" fill="#fefefe"/>
          <path d="M123.17,351.92c-6.54.3-25.06-4.08-19.3-13.43a4.84,4.84,0,0,1,6.81-.3c7.42,5.84,18.76,4.71,27.28,2.07,5.81-2.56,10.42-6.87,15.43-10.43a4.93,4.93,0,0,1,6.83.6c4,5.08-3,8.62-6.37,11.27A41.27,41.27,0,0,1,123,351.92Z" fill="#fefefe"/>
          <path d="M84.26,235.25c-4.23-1.23-11.07,1.67-11.6-4.93.28-7,9.49-5.24,14.19-4.53,4.83,0,9.41-2,13.44-4.09,2.71-1.9,6.71-3.13,8.84.26C114.2,230.8,90.09,236.63,84.26,235.25Z" fill="#fefefe"/>
          <path d="M127.42,146c-4.63-1.25-13.16,1-13.83-5.61a4.85,4.85,0,0,1,4.65-5c9,.49,18.33,2.93,26.76-1.58a58.93,58.93,0,0,0,19.41-13.06c4.43-3.29,9-13.94,15.39-8.81a5,5,0,0,1-.54,7.3C166.33,134,148.27,148.68,127.42,146Z" fill="#fefefe"/>
          <path d="M200.7,275.14c-17.06-4.15-35.89-7-48-21-10.68-12.87-8.88-33.79-.08-47.25C165,193,180.47,182,193.54,168.77c6.1-7.51,9.17-16.83,13.91-25.17,12.3-31.14,33.45-62.36,71.42-54.09,8.7.65,17.44,1.31,25.58,4.59,3.86,1.53,6.42,4.83,9.7,7.16,3.39,1.89,7.12,3.16,10.18,5.61,11.61,11.88,21.56,24.89,27.17,40.38,5.87,19.09.54,40.3-8.42,57.53C311.84,250,256.15,280.06,200.7,275.14Zm32-11.88c37.59-5.56,71.39-27.7,95.54-56.29,12.82-16.51,19.18-40.84,11.39-60.58-5-10.85-12.56-19.82-19.73-28.9-2.81-3.17-6.93-4.45-10.53-6.41-3.76-2-6.28-5.52-9.78-7.82-6.48-3.45-13.89-2.7-21-3.65-7.77-.6-15.58-2.39-23,.4C220.75,113,221,157,196.93,180.37c-12.19,10.77-24.64,21.29-36,32.85-5.89,9.18-6.48,21.34-2.41,31.32a39,39,0,0,0,20.35,13.94c9.07,2,18.26,5.69,27.55,6.26A209.74,209.74,0,0,0,232.71,263.26Z" fill="#110802"/>
          <path d="M259.45,162.19c-28.25-10.35-7.49-55.31,19.15-46,13,4.33,21.87,19,16.08,32.33C288,159.89,272,165.55,259.45,162.19Zm8.93-9.06c11.18-1.27,23.32-8.79,15.65-21.08a5.56,5.56,0,0,1-2.94-1.65c-4.62-9-17.17-5.48-21.93,1.71C253.34,140.66,255.41,155,268.38,153.13Z" fill="#110802"/>
          <path d="M212.27,257.79a5.35,5.35,0,0,1-1.85-.36c-6.28.1-6.59-9.39-.31-9.64,4.24.59,8.94.85,13.06-.32a232.72,232.72,0,0,0,36.19-14.33,4.91,4.91,0,0,1,6.68,1.47c3.7,8.08-9.26,9.57-14.17,12.6C239.11,251.91,226.26,259.18,212.27,257.79Z" fill="#110802"/>
          <path d="M288.59,219.92c-2.91-4.81,2.75-7.5,6.05-9.76,6.95-5.48,13.42-10.34,18-17.54,3.53-5.13,11.49.48,7.88,5.57C317.43,203.54,293.41,229,288.59,219.92Z" fill="#110802"/>
          <path d="M124.71,153.25c-12.45.39-21.3-13.34-18.25-24.82,2.46-7.17,7.81-13,13.57-17.74C116,72.4,161.89,56.28,180.81,90.49,197.72,124,156.2,156.25,124.71,153.25Zm11.39-10.59c16.28-2.45,31.94-15,38-30A27.36,27.36,0,0,0,165.54,87c-11.91-9.33-27.17-6.07-33.53,7.61-4.76,7.16,1.23,16.63-4.47,23.08-6.58,5.56-16,14.3-8.51,22.94C123.37,144.68,131.18,142.66,136.1,142.66Z" fill="#110802"/>
          <path d="M147.22,109.17c-16.39-3.83-3.6-28.3,9.88-22.2a4.71,4.71,0,0,0-1.34-.28,5.12,5.12,0,0,1,1.94.56,8.19,8.19,0,0,1,9.48,10.08C164.89,105.28,155.29,110.94,147.22,109.17Zm3-9.43a10.41,10.41,0,0,0,6.49-3.26,4,4,0,0,1-.47-.22c-2.75,0-5.05-1.15-6.5,2.09a2.22,2.22,0,0,1,.38-.71,5.34,5.34,0,0,0-.77,1.9A6.45,6.45,0,0,0,150.25,99.74Z" fill="#110802"/>
          <path d="M191,174.88c-8.2-10.4-18-19.67-26.45-30-1.8-2.21-3.95-4.67-3.25-7.74,1-5.58,9.27-5.56,9.84.11,8.26,9.8,16.88,19.36,25.75,28.59,1.31,1.6,2.81,3.41,3.17,5.51C201.08,176.53,193.82,179.37,191,174.88Z" fill="#110802"/>
          <path d="M81.8,239.9C70,237.83,64.59,225.69,71.66,215.84c1.56-2.94,5.2-4.88,5.5-8.37-2.47-18.83.86-38.95,24.78-35.68,8,1.66,17.26,3.83,21.66,11.5,8,18.1-3.32,38.4-18.28,49.06C98.65,237.25,90.38,242.29,81.8,239.9Zm5.08-9.51c14-3.65,28.41-18,29-32.79.49-8.3-1.08-11.65-9.13-14.34-6.06-2.58-15-3.7-18.73,2.86-3.28,7.23-.25,14.9-.88,22.44.18,7.39-8.53,10.74-8.61,17.88h0C80.18,229.41,83.73,230.24,86.88,230.39Z" fill="#110802"/>
          <path d="M150.69,226.09c-8.55-2-16.29-5.14-24.79-6.85-3.32-.8-7.71-2.06-8.36-6-1.18-5.15,5.72-8.63,8.81-4.12,7.81,2,16.19,4,23.48,6.65,3.18.39,6.7,2.13,6.27,5.87A5,5,0,0,1,150.69,226.09Z" fill="#110802"/>
          <path d="M100.06,350.82c-6.18-8.21-5.48-21,2.51-27.83,4.59-3.27,8.34-7.56,9.08-13.35.52-5.76.45-11.66,2.4-17.19,4-7.88,10.94-16.67,20.26-17.77,13.74-.46,28.66,4.54,37,15.89,10.69,19.52.43,46-17.1,57.88C139.36,360.18,114,367.33,100.06,350.82Zm26-1c17.68-2.52,35.26-16.34,38.35-34.28,1.8-9.34,1.07-20.49-8.54-25.13-3,.91-5.48-1.6-6.86-4-5-1.45-10.75-2.66-15.76-1.35a26.89,26.89,0,0,0-9.85,11.25c-1.94,7.68-.36,15.47-4,22.68-2.07,6.41-9,9.42-12.25,14.56C102.15,345.4,116.11,351.84,126,349.85Z" fill="#110802"/>
          <path d="M132.29,316.9c-14.11-7.31-1.61-33.18,12.5-25.65,4.43-.79,6.89,4.25,8.68,7.5C161.69,311.51,143.38,323.79,132.29,316.9Zm7-7.8a9.29,9.29,0,0,0,6.44-3c-.05-1.43-.95-2.69-1.52-4a4.74,4.74,0,0,1-.94.12,5,5,0,0,1-4.22-2.23h0C135.65,302.11,133.93,308.78,139.31,309.1Z" fill="#110802"/>
          <path d="M131.66,344.26c-7-1.2-4.78-11.1,2.11-9.53,4.33.06,8.16-5.84,11.94-.53C149.28,341.61,137.25,345.3,131.66,344.26Z" fill="#110802"/>
          <path d="M155,284.69a4.94,4.94,0,0,1-.65-3.75c2-4.77,6.67-8.24,9.81-12.38,3.67-3.75,9.85-13.21,15.11-6.68a4.94,4.94,0,0,1-1.49,6.74,85.84,85.84,0,0,0-8.53,9.05C165.6,281.34,160.63,291.41,155,284.69Z" fill="#110802"/>
          <path d="M223,378.22c-13.6.66-28.78-11-23.65-25.59,1.42-8.16,9.65-13.4,10.48-21.58-.79-8.15-4-16.5-1-24.61,3.16-8.87,13-14.59,22.09-15.69,9.69-1.3,20.33-.4,28.23,5.89,8.45,8.61,17.09,20.11,16.42,32.79C273.21,353,247.11,378.56,223,378.22Zm3.85-10.39c17.55-2.8,36.8-21.92,38.34-39.76-.07-8.55-6.45-15.6-11.42-22-2.35-2.76-6-3.24-8.89-4.93-8.81-2.61-19.6-.69-25.66,6.61-4.73,9,2.94,18.69.21,28-1.73,7.36-7.9,11.82-10,18.77C205.4,364.92,218.72,369.06,226.82,367.83Z" fill="#110802"/>
          <path d="M237.27,329.45c-18.41-2.34-11.82-23.1,2.82-24.71,5.52-2.47,11.7,4.21,13.51,9C256.21,322.85,245.67,330.94,237.27,329.45Zm2.58-9.6a6.51,6.51,0,0,0,4.43-3.05,6.46,6.46,0,0,0-2.55-2.73,8.16,8.16,0,0,0-5.92,4.68A7.46,7.46,0,0,0,239.85,319.85Z" fill="#110802"/>
          <path d="M245,300.5c-6.88-1.44-5.46-10.17-5.79-15.49.07-4.82-.48-9.76-.28-14.55.37-6,9.45-5.9,9.66.12.43,7.41.24,14.84.91,22.21C251.86,296,249,301.1,245,300.5Z" fill="#110802"/>
          <path d="M315.76,335.31c-13.16-3.17-21.55-20.11-12.86-31.49,4.38-7.79,12.21-13.4,15-22-4.06-35.81,39.23-36.5,56.69-13.88,9.13,14.61,10.25,34.76-2.8,47.46C358.26,329.76,335.68,341.51,315.76,335.31Zm17.64-9.19c16.08-5,35-14.69,38.06-32.66-.62-10.38-3.55-21.57-13.66-26.39-8.42-5.66-21.39-6.58-28.37,1.48-3.33,5.18.11,11.11-1.56,16.6a36.11,36.11,0,0,1-4.23,8.89c-4.89,6.49-10.71,11.8-13.71,19.29C309.35,325.6,324.11,327.32,333.4,326.12Z" fill="#110802"/>
          <path d="M340.61,295c-14.05-1.81-10.95-20.66-1.07-26.12,4.41-11.17,18.67,2.47,19.56,9.82C361,289.06,350.28,297.22,340.61,295Zm3.73-9.66c4.42-.29,6.59-4.39,3.27-7.71a2.86,2.86,0,0,1-.41.15,4.6,4.6,0,0,1-3.11-.1c-2.27,1.58-3,4.38-3.2,7v0A7.31,7.31,0,0,0,344.34,285.37Z" fill="#110802"/>
          <path d="M326.14,265.73c-2.51-.85-4.05-3.43-5.13-5.75-1.88-3.23-3.85-5.6-5.72-8.31-2.77-5.34-14.84-11.8-7.9-17.91a4.84,4.84,0,0,1,6.29,1c5.95,6.85,12.41,13.92,16.7,21.86C336,260.24,332.72,268.6,326.14,265.73Z" fill="#110802"/>
          <path d="M326.89,322.93a4.81,4.81,0,0,1,.64-9.55,5.94,5.94,0,0,0-1.26.22c2.73-.47,5.5-.71,8.24-1.19,2.59-1.33,6-.79,7.31,2.06,2.89,8.21-10,8.39-15.21,8.43Z" fill="#110802"/>
          <path d="M93.66,196.21c-5.54-5,1.42-14.08,7.8-10.43a5,5,0,0,1,6,2.51C110.76,195.77,98.71,200.89,93.66,196.21Z" fill="#110802"/>
          <path d="M228.89,194.51c-2.47-6,5.38-7.9,9.74-8.9,4.19-.57,11.31-1.9,11.7,4.13,0,6.17-7,4.68-11.1,5.62C235.82,196.64,231.06,199,228.89,194.51Z" fill="#110802"/>
          <path d="M216.79,212.69c.68-7.9,11.39-4.17,16.61-6.4,6-.41,15.81-9.76,19.89-2.76,3,8.07-12,9.56-17.16,12C230.8,216.15,217.66,220.82,216.79,212.69Z" fill="#110802"/>
          <path d="M286.14,240.85c-6-.23-6.11-9.34-.05-9.61,5.46.47,18.3-3.6,19.16,4.25C304.61,243.92,291.82,239.38,286.14,240.85Z" fill="#110802"/>
          <path d="M298.66,224.37a4.94,4.94,0,0,1,4.89-5.71c4.27-.44,11.4-.9,11,5.21-.5,5-5.89,4.27-9.56,4.35C302.22,228.82,299.16,227.4,298.66,224.37Z" fill="#110802"/>
          <path d="M313.32,209.78c0-5.28,6.5-6,10.54-6.41,2.64-.26,4.95,2.18,5.05,4.71.18,4.3-4.14,5.1-7.49,5.48C318.17,215.49,313.47,214,313.32,209.78Z" fill="#110802"/>
          <path d="M348.1,310.62c.18-6.36,8.11-5.63,12.59-5.11,3.39-.55,7.8-.66,8.55,3.63.64,7.29-8.81,6.1-13.61,5.71C352.33,316,348.23,314.61,348.1,310.62Z" fill="#110802"/>
          <path d="M361.81,302.38c-2-6.49,10.86-11.09,13-4.36,1,3.24-1.52,6.09-4.68,6.52C367.28,306.52,363,306.06,361.81,302.38Z" fill="#110802"/>
          <path d="M243.15,363.54c-3.23-.45-7.39-.8-7.49-5.05a4.88,4.88,0,0,1,4.67-5c3.95-.28,9.71,1.39,8.63,6.43A4.88,4.88,0,0,1,243.15,363.54Z" fill="#110802"/>
          <path d="M144.68,143.39c-4.52-1.39-12.1-2.31-12.19-8.33a4.85,4.85,0,0,1,4.65-4.61c3.41.46,6.16,3.12,9.74,3.51C153,135.5,150.85,144.77,144.68,143.39Z" fill="#110802"/>
          <path d="M150.52,136.67c-6.74-3.54-1.15-13.21,5-8.44C161.41,131.64,156.21,140.48,150.52,136.67Z" fill="#110802"/>
          <path d="M258.62,145.43a4.83,4.83,0,0,1,4.64-5,4.75,4.75,0,0,1,3.6,1.47c4.38.13,10.19-4.61,13,.84a4.84,4.84,0,0,1-2.33,6.41C271.62,151.66,260.08,154.29,258.62,145.43Z" fill="#110802"/>
          <path d="M268.12,257.75c-3.81-4.89,2.31-9.16,5.53-12.3,12.85-8.7,19-22.65,26.49-35.71a155.59,155.59,0,0,0,19.5-55c1.67-10.14.91-19.92,1.23-30.06,0-3,1.4-6.35,4.89-6.46,2.6-.32,5.29,3,4.93,4.43a5.06,5.06,0,0,1,0,.54c7.45,4.65,5.83,15.36,9,22.57,4.25,8.16,3,17.47,2.41,26.33-1.42,8-2.37,16.37-6.58,23.41-8.77,12.94-18.27,25.47-29.83,36.07-4.61,4.75-10.57,8.12-14.89,13.09-3.29,3.8-12.54,14.75-19,14.75A4.66,4.66,0,0,1,268.12,257.75Z" fill="#110802" fill-opacity="0.25"/>
          <path d="M342,317.68c1.72-2.18,4.22-3.66,6.23-5.61,4.87-5,7.63-12.46,10-18.82a56.86,56.86,0,0,0,1.48-20.46,4.87,4.87,0,0,1,3.95-5.57c5.67-.8,6.21,5.89,6.19,10,6.79,8.08,4.51,20.5-1.22,28.62-4.71,8.46-14,18.84-23.93,20C341.09,325.2,339.75,320.47,342,317.68Z" fill="#110802" fill-opacity="0.25"/>
          <path d="M243.64,363.35c-13.69-4,7.84-21.68,9.48-29.23,3.47-7.57,1.16-16.25,3-24.1,0,0,0,.06,0,.09l0,0a5.62,5.62,0,0,0,0,.6,6.19,6.19,0,0,1,0-.76c.08-.32.16-.63.25-.94l-.18.58c0,.1,0,.19-.06.29.7-5.48,9.35-5.5,9.6.49a48.5,48.5,0,0,0-.51,7.89c14.77,5.57-10.18,45.11-21.51,45.11Z" fill="#110802" fill-opacity="0.25"/>
          <path d="M137.92,350.47c-5.17-6,4.67-11.81,7.9-16.23,7.93-11.17,11.94-25,12.3-38.62a16.05,16.05,0,0,1,.36-5c1.45-4.23,7.94-4.05,9.16.24.72,4.71,0,9.62-.4,14.35-2,14-7.05,28.85-17.23,39.08-2.65,2.35-5.34,7.49-8.92,7.49A5,5,0,0,1,137.92,350.47Z" fill="#110802" fill-opacity="0.25"/>
          <path d="M91.35,233.64c-5.58-6.51,5.27-10.68,9.35-14a50.47,50.47,0,0,0,9.14-20.14c.76-4.27-.2-9.74,1.32-13.26.79-5.55,9.52-5,9.56.66-1.32,7.45-.18,15.41-3.44,22.52-3.67,9-8.14,18.36-17.32,22.59-1.58,1.48-3.6,2.95-5.63,2.95A4.21,4.21,0,0,1,91.35,233.64Z" fill="#110802" fill-opacity="0.25"/>
          <path d="M146.49,144.62c-6.59-6.11,4.61-11.67,7.91-16.21,4.65-7.68,9.9-15.44,12.29-24.15.62-4.53-.5-9.1,0-13.67v.2c.36-6,9.44-5.93,9.64.1-.12,3.87.36,7.56.36,11.4-.14,5.79-2.49,11.23-5.15,16.3-4.19,7.21-7.54,15.41-14.15,20.8-2.48,2.08-5,6.16-8.23,6.16A4.85,4.85,0,0,1,146.49,144.62Z" fill="#110802" fill-opacity="0.25"/>
          <path d="M206.7,226.39c-17.92-3.13-15.11-23.45.64-27.56,10.7-5.21,18.16-14.75,29.1-19.06,12-4.28,24.11,5.84,24.21,18.1.08,7.39-6.54,13-11.55,17.59C239.07,222,226.3,227,213.93,227A42.59,42.59,0,0,1,206.7,226.39Z" fill="#110802" fill-opacity="0.25"/>
        </g>
      </g>
    </g>
  </g>
</svg>
