<svg width="100" height="101" viewBox="0 0 100 101" fill="none" xmlns="http://www.w3.org/2000/svg">
  <path
    d="M50 100.521C77.6142 100.521 100 78.1357 100 50.5215C100 22.9072 77.6142 0.521484 50 0.521484C22.3858 0.521484 0 22.9072 0 50.5215C0 78.1357 22.3858 100.521 50 100.521Z"
    fill="#98D7C3" />
  <path
    d="M48.8601 82.8481C48.3151 82.3346 48.7179 81.6843 49.1445 81.2498C50.074 80.0913 50.964 78.8958 51.796 77.6661C53.6208 74.7697 55.6351 72.0313 57.7337 69.3403C59.6954 66.7072 61.4042 63.9003 63.3422 61.2514C65.2328 58.6814 66.8179 55.9114 68.4662 53.1862C70.9861 49.097 73.6403 45.0894 76.147 40.9923C77.2002 39.1965 78.3298 37.4376 79.2909 35.5891C79.3274 35.3953 79.4275 35.2191 79.5753 35.0884C79.7231 34.9578 79.9103 34.8801 80.1072 34.8677C81.6317 35.0309 80.7075 36.6372 80.2204 37.4087C79.3971 38.8218 78.5633 40.2313 77.719 41.6374C75.2833 45.587 72.7503 49.4867 70.2857 53.4231C65.9437 60.7748 61.033 67.7815 55.8747 74.5801C53.9631 77.3396 52.2331 80.2334 50.0503 82.798C49.8987 82.9618 49.6885 83.059 49.4655 83.0684C49.2426 83.0777 49.0249 82.9985 48.8601 82.8481Z"
    fill="#161922" />
  <path
    d="M46.2006 87.1796C40.729 84.1515 43.5043 78.4903 49.1733 81.7211C50.1002 81.7659 50.7163 83.2852 51.1008 84.0225C51.8854 86.6108 48.2517 88.5172 46.2006 87.1796ZM47.8647 85.3364C48.1728 85.3232 48.5467 85.1494 48.6204 84.8387C48.8047 83.3931 46.5139 82.0081 45.3238 82.6611C44.963 83.0903 45.3238 83.7144 45.537 84.141C45.9399 85.0942 46.872 85.4943 47.8647 85.3416V85.3364Z"
    fill="#161922" />
  <path
    d="M59.2055 81.463C56.2485 81.3261 53.3995 80.0596 51.0218 78.3481C47.9648 77.7583 46.8088 72.6237 47.1143 69.9432C47.554 65.8013 51.4694 63.5 54.9952 62.115C57.3255 61.1829 59.503 59.8953 61.2119 58.0706C61.2992 57.9835 61.4034 57.9152 61.5181 57.8698C61.6327 57.8244 61.7555 57.8029 61.8787 57.8066C62.002 57.8103 62.1232 57.839 62.2349 57.8912C62.3466 57.9434 62.4465 58.0179 62.5285 58.11C63.1736 58.9921 61.8281 60.5641 61.5753 61.512C62.6285 61.1776 65.1063 60.0296 64.8482 62.1124C66.1069 62.3388 65.6382 63.8186 65.4433 64.6823C65.3354 65.3379 65.5013 65.9989 65.6355 66.6334C66.4255 69.6483 67.9158 72.7264 67.1759 75.9099C66.3781 79.4672 62.7312 81.6684 59.2055 81.463ZM59.4003 79.7226C63.063 79.8911 66.2464 76.9183 65.5671 73.174C65.3564 70.1249 63.2894 67.3049 63.7845 64.2057C63.6187 64.2452 63.4455 64.2404 63.2822 64.192C63.1188 64.1436 62.971 64.0532 62.8535 63.9298C62.736 63.8064 62.6529 63.6545 62.6125 63.4889C62.5721 63.3234 62.5758 63.1502 62.6233 62.9866C61.7833 63.213 60.9407 63.6896 60.0507 63.5527C59.137 63.3446 59.2424 62.2993 59.6321 61.6647C56.4091 63.9108 51.8644 64.4216 49.5999 67.8999C48.0569 70.4251 48.76 75.2094 51.3562 76.8051C51.8828 76.6945 52.2778 77.179 52.7096 77.4028C54.7556 78.6667 57.0832 79.6884 59.5162 79.7279L59.4003 79.7226Z"
    fill="#161922" />
  <path
    d="M50.9323 77.5871C49.8448 77.4634 50.0028 75.8309 51.0956 75.9178C51.7118 75.8809 52.478 75.973 52.507 76.7366C52.5281 77.6029 51.588 77.6819 50.9323 77.5871Z"
    fill="#161922" />
  <path
    d="M52.4489 77.3317C51.1192 77.3975 51.0745 75.7519 50.9007 74.7987C50.6242 73.0451 50.3925 71.2308 51.164 69.5799C51.6854 68.3452 52.4709 67.2397 53.4653 66.3412C54.2948 65.6434 55.3875 66.9363 54.5475 67.6288C51.9934 69.9248 52.0461 72.6501 52.7807 75.7545C52.9153 75.8202 53.0293 75.9214 53.1105 76.0471C53.1917 76.1729 53.237 76.3184 53.2415 76.4681C53.2472 76.6893 53.1656 76.904 53.0144 77.0656C52.8631 77.2272 52.6543 77.3228 52.4332 77.3317H52.4489Z"
    fill="#161922" />
  <path
    d="M52.1382 76.7234C52.1382 76.023 52.8597 75.6965 53.2178 75.1804C54.9029 73.1131 56.4108 70.9076 57.7257 68.5872C58.2523 67.6313 59.7111 68.4002 59.2055 69.3771C57.7705 71.9327 56.1028 74.3504 54.2236 76.5997C53.8155 76.9235 53.5838 77.5107 53.0019 77.545C52.8912 77.5478 52.7811 77.5288 52.6778 77.489C52.5745 77.4492 52.48 77.3895 52.3998 77.3132C52.3196 77.2369 52.2552 77.1455 52.2103 77.0443C52.1655 76.9431 52.1409 76.8341 52.1382 76.7234ZM53.7181 77.0657C53.7514 77.0081 53.7762 76.9461 53.7918 76.8814L53.8076 76.7735V76.7129C53.8012 76.8353 53.7708 76.9551 53.7181 77.0657Z"
    fill="#161922" />
  <path
    d="M52.8176 77.5213C52.8176 75.5281 57.9469 77.9216 61.4594 72.2551C62.0598 71.5521 61.9992 69.7537 63.2815 70.1065C64.5744 70.7069 63.0946 72.6764 62.6522 73.4927C61.6385 74.9093 60.3878 76.2154 58.8369 77.0395C57.3439 77.7768 55.6956 78.0612 54.0604 78.285C53.5022 78.4667 52.8386 78.1585 52.8176 77.5213Z"
    fill="#161922" />
  <path
    d="M62.4601 67.0784C61.3463 66.9152 61.7702 65.6302 61.9703 64.8903C62.1704 64.1504 62.3784 63.1393 63.2342 62.8839C64.1663 62.5864 64.7561 63.9372 63.8977 64.4032C63.3738 65.2142 63.7397 67.1074 62.4601 67.0784Z"
    fill="#161922" />
  <path
    d="M56.841 79.2303C55.5955 79.1908 54.3764 78.8906 53.1546 78.7195C52.9948 78.6554 52.8585 78.544 52.764 78.4002C52.6694 78.2563 52.6212 78.087 52.6258 77.9149C52.6303 77.7428 52.6875 77.5762 52.7896 77.4376C52.8917 77.299 53.0338 77.195 53.1968 77.1396C53.8866 76.9974 54.5976 77.3002 55.2822 77.3792C57.4071 77.7347 59.6874 77.6294 61.6227 76.613C62.1151 76.268 62.8445 75.9626 63.25 76.613C63.3674 76.8019 63.4056 77.0294 63.3563 77.2463C63.307 77.4632 63.1742 77.6519 62.9867 77.7715C62.1332 78.2932 61.2067 78.6846 60.2377 78.9328C59.1248 79.189 57.9816 79.2891 56.841 79.2303Z"
    fill="#161922" />
  <path
    d="M69.7984 60.2665C68.4635 60.1138 66.615 59.9321 65.8725 58.6867C61.4884 56.7961 59.3345 50.819 61.541 46.5744C63.4922 42.5563 67.9079 40.9185 71.6205 38.9621C73.0837 38.1628 74.3906 37.1057 75.478 35.8419C75.7729 35.4838 76.081 35.0836 76.5971 35.1283C78.306 35.4759 76.5971 37.901 76.3864 38.9121C78.3691 38.1906 79.1854 39.0622 78.377 41.0001C79.6436 41.245 79.3355 43.8334 79.9385 44.9209C82.8665 52.3594 78.2138 60.6878 69.7984 60.2665ZM71.115 58.4918C75.7703 58.2443 78.8431 54.4211 79.1248 49.9395C79.246 47.4249 77.9505 45.1763 77.6503 42.7354C76.2916 42.8433 76.1889 41.5742 76.6919 40.6078C75.4043 41.1186 73.8534 40.8711 74.488 39.1385C71.2308 41.6479 66.8204 42.5195 64.1057 45.7608C60.9618 49.2023 62.4152 55.4322 66.7072 57.1779C66.8888 57.1979 67.059 57.2761 67.1924 57.401C67.3258 57.5258 67.4152 57.6906 67.4471 57.8705C68.5609 58.5024 69.8774 58.5972 71.1097 58.4918H71.115Z"
    fill="#161922" />
  <path
    d="M66.0358 56.6829C64.6192 54.6633 64.1373 51.996 64.9825 49.6473C65.2617 48.9311 65.446 47.5592 66.515 47.8989C67.7948 48.4755 66.2754 50.2687 66.3044 51.2956C66.0016 52.8386 66.6072 54.3895 67.3576 55.7087C67.771 56.5065 66.6809 57.3017 66.0358 56.6829Z"
    fill="#161922" />
  <path
    d="M67.4287 46.3848C66.3755 45.1104 70.5648 42.4352 71.4021 41.5373C72.2236 40.8316 73.3164 42.1271 72.4817 42.8196C71.5838 43.6095 70.6385 44.3442 69.7748 45.1604C69.0876 45.7002 68.432 47.3722 67.4287 46.3848Z"
    fill="#161922" />
  <path
    d="M66.6519 58.0889C66.4328 58.0905 66.2216 58.0073 66.0625 57.8566C65.9035 57.7059 65.809 57.4995 65.7988 57.2806C65.794 57.0688 65.8681 56.8628 66.0068 56.7027C66.1456 56.5426 66.3389 56.4398 66.5492 56.4143C66.8678 56.2366 67.1763 56.0415 67.4734 55.8298C68.7584 54.8661 69.9117 53.8339 70.7306 52.462C71.3731 51.7485 71.5863 49.742 72.8713 50.2739C74.0667 51.0375 72.3447 52.7728 71.9708 53.6548C70.9175 55.2084 68.4398 57.7994 66.5571 58.0837L66.6519 58.0889Z"
    fill="#161922" />
  <path
    d="M66.6176 57.8441C66.2121 55.7903 69.8327 57.6625 73.3321 54.7266C74.0151 54.2377 74.6343 53.6653 75.1753 53.0229C75.2371 52.923 75.3184 52.8367 75.4144 52.769C75.5105 52.7014 75.6192 52.6538 75.734 52.6292C75.8489 52.6046 75.9675 52.6034 76.0828 52.6259C76.1981 52.6483 76.3077 52.6937 76.405 52.7596C76.5863 52.8888 76.7093 53.0844 76.7472 53.3038C76.7852 53.5232 76.7351 53.7487 76.6077 53.9314C74.5618 56.4539 71.4968 58.2233 68.2212 58.3839C67.6419 58.3918 66.8467 58.5814 66.6176 57.8441Z"
    fill="#161922" />
  <path
    d="M75.8256 49.0733C74.4353 48.9259 75.3306 46.0664 75.3595 45.1079C75.557 44.5207 75.4017 43.7914 75.8572 43.3358C75.9543 43.2572 76.0676 43.2011 76.189 43.1716C76.3104 43.142 76.4368 43.1397 76.5592 43.1649C76.6816 43.1901 76.7969 43.2421 76.8967 43.3172C76.9966 43.3923 77.0786 43.4886 77.1368 43.5991C77.4317 44.6524 76.7892 45.7978 76.8182 46.8958C76.7024 47.6752 77.0341 49.1233 75.8256 49.0733ZM75.8071 44.5734C75.6936 44.4535 75.6145 44.3052 75.5781 44.1442C75.6107 44.3066 75.6904 44.4559 75.8071 44.5734Z"
    fill="#161922" />
  <path
    d="M65.5672 73.1741C66.2412 76.8789 63.1289 79.8306 59.511 79.7279C58.4933 79.7038 57.4847 79.5309 56.5172 79.2145C56.6225 79.2145 56.7304 79.2144 56.8358 79.2302C57.9788 79.2844 59.1238 79.179 60.2377 78.9169C61.2067 78.6687 62.1332 78.2774 62.9867 77.7558C63.1742 77.6361 63.307 77.4474 63.3563 77.2305C63.4056 77.0137 63.3674 76.7861 63.25 76.5971C62.8445 75.9599 62.1152 76.2654 61.6228 76.5971C60.3538 77.2349 58.951 77.5608 57.5309 77.5477C57.9812 77.4024 58.4211 77.2264 58.8475 77.0211C60.3984 76.1969 61.6491 74.8936 62.6628 73.4743C63.1052 72.6581 64.585 70.6885 63.2922 70.0881C62.0098 69.7353 62.0678 71.5364 61.47 72.2368C59.1239 76.0258 56.059 76.218 54.2816 76.5208C56.1357 74.2935 57.7838 71.9025 59.2056 69.3772C59.7111 68.4056 58.2497 67.6367 57.7258 68.5873C56.4094 70.9035 54.9016 73.1054 53.2179 75.17C53.0847 75.3465 52.9338 75.5089 52.7676 75.6545C52.0514 72.587 52.0251 69.8907 54.5528 67.6183C55.3928 66.9232 54.2895 65.6329 53.4706 66.3307C52.4762 67.2287 51.6914 68.3344 51.1719 69.5694C50.382 71.2204 50.6242 73.0346 50.9086 74.7882C50.9665 75.1147 51.0113 75.5176 51.0956 75.9073C50.8829 75.8846 50.6698 75.947 50.5031 76.0811C48.631 74.0694 48.2518 70.1066 49.6079 67.8895C51.8723 64.4112 56.4171 63.9003 59.64 61.6543C59.2503 62.2915 59.145 63.3343 60.0587 63.5423C60.9461 63.6792 61.7939 63.2026 62.6339 62.9735C62.5984 63.0884 62.5859 63.2092 62.597 63.329C62.2679 63.7582 62.1362 64.3822 61.9782 64.8825C61.7781 65.6198 61.3542 66.9047 62.468 67.068C63.566 67.0943 63.4528 65.7067 63.7266 64.8009C63.5581 67.6763 65.3697 70.3225 65.5672 73.1741Z"
    fill="#FFD751" />
  <path
    d="M72.4815 42.8197C73.3162 42.1245 72.2182 40.8317 71.4019 41.5374C70.5646 42.4353 66.399 45.1105 67.4286 46.3849C68.4318 47.3723 69.0901 45.7003 69.7747 45.1605C70.6436 44.3443 71.5836 43.607 72.4815 42.8197ZM76.8182 46.8826C76.7892 45.7846 77.4317 44.6445 77.1368 43.5886C77.0786 43.478 76.9966 43.3817 76.8967 43.3066C76.7969 43.2315 76.6816 43.1796 76.5592 43.1544C76.4368 43.1292 76.3104 43.1315 76.189 43.161C76.0676 43.1906 75.9542 43.2467 75.8571 43.3253C75.4016 43.7913 75.557 44.5102 75.3595 45.0973C75.3305 46.0558 74.4353 48.9154 75.8255 49.0654C77.0341 49.1234 76.7023 47.6752 76.8182 46.8826ZM77.645 42.7355C77.9452 45.1763 79.2433 47.425 79.1195 49.9396C78.8378 54.4159 75.7623 58.2444 71.1096 58.4945C70.2818 58.5794 69.4457 58.5279 68.6345 58.3418C71.7574 58.0654 74.6591 56.338 76.6181 53.9182C76.745 53.7357 76.7952 53.5106 76.7578 53.2914C76.7203 53.0722 76.5983 52.8766 76.418 52.7465C76.3195 52.6813 76.2089 52.6367 76.0927 52.6154C75.9766 52.5942 75.8574 52.5967 75.7422 52.6228C75.627 52.6488 75.5184 52.698 75.4227 52.7672C75.3271 52.8364 75.2464 52.9243 75.1857 53.0256C74.6446 53.6672 74.0254 54.2387 73.3425 54.7266C72.2224 55.663 70.8658 56.2725 69.4218 56.4881C70.3871 55.6515 71.2466 54.7 71.9812 53.6549C72.3656 52.7728 74.0877 51.0376 72.8817 50.274C71.5968 49.7474 71.3835 51.7485 70.741 52.4621C69.9221 53.834 68.7688 54.8661 67.4839 55.8299L67.4338 55.8641C67.4187 55.8104 67.3984 55.7585 67.3733 55.7087C66.6255 54.3922 66.0199 52.836 66.32 51.2957C66.2911 50.2635 67.8104 48.4756 66.5333 47.8989C65.4617 47.5593 65.2773 48.9311 64.9982 49.6473C64.1451 51.9934 64.6243 54.6502 66.0383 56.6777C66.0016 56.7154 65.9689 56.7569 65.9409 56.8015C62.2545 54.6686 61.1592 48.9891 64.0977 45.7609C66.8124 42.5195 71.2229 41.6479 74.4826 39.1412C73.8454 40.8633 75.3963 41.1187 76.6839 40.6079C76.1968 41.5742 76.2863 42.8434 77.645 42.7355Z"
    fill="#FFD751" />
  <path
    d="M26.9577 61.3673C24.6221 61.2304 21.8495 59.2002 22.1418 56.6566C22.492 55.4191 23.7874 54.7713 24.6248 53.8813C25.7043 52.9229 26.9946 51.9355 28.5112 51.967C31.2891 52.1435 34.2092 54.4185 33.7011 57.4307C33.1428 59.0922 31.2101 60.2034 29.6355 60.7379C28.8825 61.3172 27.8714 61.391 26.9577 61.3673ZM27.221 59.6794C27.6923 59.6505 28.2505 59.6794 28.635 59.3582C28.635 57.0174 25.5411 56.1484 23.8032 57.2517C24.2588 58.6525 25.7596 59.6347 27.221 59.6794ZM27.4185 55.3849C28.1284 55.6315 28.7627 56.0569 29.2604 56.62C29.758 57.1832 30.1021 57.865 30.2596 58.5999C30.9179 58.147 31.9079 57.7151 32.0659 56.862C32.0264 55.2295 30.6572 54.121 29.1511 53.805C27.8714 53.2784 26.6918 54.3316 25.7807 55.1216C26.3361 55.1338 26.8872 55.2224 27.4185 55.3849Z"
    fill="#161922" />
  <path
    d="M33.2771 61.1355C32.6136 60.9038 31.6973 60.7142 31.3787 60.0138C31.3318 59.8543 31.3326 59.6847 31.3808 59.5256C31.4291 59.3666 31.5227 59.2251 31.6502 59.1186C31.7777 59.012 31.9336 58.9451 32.0987 58.9259C32.2637 58.9067 32.4308 58.9361 32.5794 59.0105C33.343 59.4345 34.2224 59.7004 35.0887 59.4477C40.1759 58.2233 39.8467 51.759 36.4421 48.8336C32.0159 43.6332 23.0133 46.4401 25.0856 53.8207C25.5911 55.082 23.7111 55.5428 23.4372 54.2288C22.8659 52.2224 22.9817 49.9791 24.0086 48.1385C26.7339 43.3858 33.5378 43.4463 37.1557 47.1432C39.6334 49.2971 41.2212 52.6068 40.5629 55.9166C39.9494 59.1633 36.6185 61.8201 33.2771 61.1355Z"
    fill="#161922" />
  <path
    d="M39.6572 51.1218C39.2991 50.3319 40.1074 49.9448 40.7104 49.6868C41.8558 49.0232 43.3699 47.8726 42.6299 46.3901C42.2218 45.774 41.6241 45.1052 40.9237 44.8576C39.6597 45.1535 38.4645 45.6899 37.4032 46.4375C37.1083 46.6376 36.8924 46.9378 36.5843 47.1142C35.8418 47.4908 35.0308 46.5429 35.5311 45.874C35.5063 45.9101 35.486 45.949 35.4705 45.9899C35.5031 45.9142 35.5486 45.8447 35.6048 45.7845C36.7739 44.5891 40.1548 42.6485 41.8005 43.3621C45.0945 45.1842 45.5395 48.6678 42.206 50.7532C41.5003 51.1876 40.2496 52.1856 39.6572 51.1218Z"
    fill="#161922" />
  <path
    d="M44.9655 51.9433C44.2812 51.8005 43.62 51.563 43.0012 51.2376C42.0165 50.6978 42.8064 49.2154 43.807 49.7209C45.6896 50.7162 48.1647 50.3634 49.8631 49.1363C53.0228 46.9588 51.4825 42.5931 49.5998 40.0443C48.4702 38.5224 46.7034 37.6139 44.9497 37.0162C41.0949 35.8445 36.3895 37.6639 37.032 42.3166C37.0659 42.915 37.2556 43.4941 37.5823 43.9966C37.8298 44.2204 38.0879 44.6127 38.0247 44.926C38.0059 45.0972 37.935 45.2585 37.8215 45.3881C37.708 45.5176 37.5574 45.6091 37.3901 45.6502C37.2229 45.6913 37.047 45.68 36.8864 45.6178C36.7258 45.5556 36.5882 45.4456 36.4922 45.3026C34.9887 43.6332 35.0572 40.95 35.7787 38.9621C36.9398 35.8313 40.6157 34.7228 43.6779 35.0361C46.2473 35.3582 48.6312 36.5428 50.4397 38.396C52.2829 40.6394 53.7259 43.5805 53.3072 46.5586C52.907 50.4187 48.4992 52.4646 44.9655 51.9433Z"
    fill="#161922" />
  <path
    d="M50.5294 40.413C50.436 40.209 50.4261 39.9766 50.5019 39.7655C50.5777 39.5544 50.7331 39.3813 50.9349 39.2834C51.7248 38.92 52.4568 38.4934 53.2388 38.1222C52.7912 36.2658 50.848 34.8808 48.9627 35.5812C47.9515 35.8708 47.4144 37.951 46.2058 37.0637C45.5159 36.4001 46.3032 35.7103 46.7745 35.2205C47.6461 34.0172 49.2233 33.5327 50.6558 33.7828C51.3142 33.8462 51.9499 34.0571 52.5156 34.3999C53.0813 34.7427 53.5625 35.2086 53.9235 35.7629C54.7977 36.8846 55.7535 39.1412 53.8366 39.731C52.8597 39.9969 51.3272 41.669 50.5294 40.413Z"
    fill="#161922" />
  <path
    d="M54.4474 43.2936C53.4653 43.0303 51.1587 42.7933 51.6669 41.3267C52.4805 39.8943 54.242 42.8275 58.7762 41.1819C63.9977 39.1754 61.2514 32.2477 57.773 29.8595C55.0767 27.5582 51.214 26.6182 47.8278 27.7978C45.4106 28.909 44.8603 32.0845 46.161 34.2568C46.3932 34.6185 46.6682 34.9509 46.9799 35.2468C47.5065 35.8235 46.893 36.8057 46.1479 36.6003C43.6991 35.0678 43.1329 31.2551 44.4495 28.7905C46.6323 24.7276 52.4357 25.0489 56.0905 26.7499C59.0764 28.3455 61.9333 30.7864 62.8813 34.1515C65.022 40.1945 60.285 44.1678 54.4474 43.2936Z"
    fill="#161922" />
  <path
    d="M61.4962 31.1419C60.5193 30.8628 60.9485 29.9701 61.0354 29.2644C60.938 27.9242 59.1922 27.8611 58.1679 28.0691C57.8836 29.0407 56.3406 28.7457 56.3248 27.7662C56.5881 25.7229 60.6325 26.0468 61.7621 27.187C62.9128 27.811 63.2551 31.3157 61.4962 31.1419Z"
    fill="#161922" />
  <path
    d="M65.0167 35.0888C63.9165 34.9847 62.8843 34.5103 62.0887 33.7433C61.4725 33.085 60.2245 31.6368 61.383 30.947C62.065 30.6231 62.5284 31.255 62.7338 31.8264C63.8318 33.7512 66.5965 33.7907 68.287 32.669C70.7621 30.681 68.9137 25.5859 67.4049 23.411C66.012 21.4783 63.6369 20.433 61.3014 20.375C58.5946 20.3619 55.1241 21.9549 56.7172 25.1462C56.8327 25.4443 56.9727 25.7323 57.1358 26.0073C57.251 26.0792 57.3468 26.1782 57.4147 26.2957C57.4826 26.4132 57.5207 26.5457 57.5255 26.6814C57.5328 26.9 57.4542 27.1127 57.3065 27.2741C57.1589 27.4355 56.954 27.5327 56.7356 27.545C55.3796 27.487 54.8635 25.0277 54.6871 23.9324C54.2105 20.7884 57.6203 19.019 60.2824 18.7346C63.7054 18.387 67.347 19.9906 69.1506 22.9476C72.0971 27.7003 72.6079 35.597 65.0167 35.0888Z"
    fill="#161922" />
  <path
    d="M66.9599 22.3236C66.9647 22.1634 67.0044 22.0061 67.0762 21.8629C67.1481 21.7196 67.2504 21.5937 67.3759 21.4941C68.0778 20.9103 68.7263 20.2654 69.3139 19.5667C69.9406 18.8426 71.1571 19.6984 70.6805 20.5304C70.117 21.2229 69.6115 22.1946 68.7504 22.5211C68.4555 22.7581 68.2659 23.132 67.8262 23.132C67.6046 23.1377 67.3897 23.0562 67.2277 22.905C67.0657 22.7538 66.9695 22.545 66.9599 22.3236Z"
    fill="#161922" />
  <path
    d="M20.1775 62.5942C19.5377 61.8385 20.562 61.1196 21.0965 60.7931C22.5737 59.8057 23.9929 58.4786 25.6386 57.8335C25.7962 57.8321 25.951 57.8745 26.0861 57.9557C26.2211 58.037 26.3309 58.154 26.4035 58.2939C26.476 58.4338 26.5084 58.5911 26.497 58.7482C26.4856 58.9054 26.4309 59.0564 26.339 59.1843C25.7808 59.7399 24.9672 60.0401 24.3405 60.5456C23.4426 61.1381 22.5895 61.7938 21.7074 62.4178C21.3019 62.8312 20.6383 63.1366 20.1775 62.5942Z"
    fill="#161922" />
  <path
    d="M18.6819 68.5556C16.1015 68.266 13.5315 66.07 13.8054 63.3052C14.0371 61.5437 15.6486 60.1087 17.4444 60.2562C18.5664 60.351 19.6496 60.7121 20.6041 61.3094C21.0905 61.8557 21.5309 62.4414 21.9207 63.0604C22.3369 63.6045 22.5813 64.2604 22.6226 64.9442C22.6639 65.6281 22.5001 66.3087 22.1522 66.8989C21.8044 67.4891 21.2883 67.9621 20.6701 68.2572C20.0518 68.5524 19.3596 68.6562 18.6819 68.5556ZM18.7556 66.3623C20.0116 66.2886 21.0307 64.8562 20.2539 63.7292C19.1848 62.36 15.638 61.2804 15.5748 63.8793C15.7144 65.3644 17.3022 66.5361 18.7556 66.3623Z"
    fill="#161922" />
  <path
    d="M20.4436 62.2677C20.4128 62.0868 20.4429 61.9008 20.5291 61.7388C20.6153 61.5768 20.7529 61.448 20.9202 61.3725L20.8201 61.4172L20.7438 61.4752C21.8733 60.5194 23.1293 59.7162 24.2984 58.8263C25.2015 58.2233 26.1415 59.661 25.2042 60.2403C24.3721 60.8722 23.4374 61.5331 22.6185 62.1308C21.9181 62.6943 20.9175 63.608 20.4436 62.2677Z"
    fill="#161922" />
  <path
    d="M23.798 57.2438C25.5359 56.1484 28.643 57.0173 28.6298 59.3503C28.248 59.6689 27.6898 59.6425 27.2158 59.6715C26.8118 59.6562 26.4128 59.5771 26.0336 59.4372C26.1391 59.3558 26.2393 59.2679 26.3337 59.1739C26.4264 59.0459 26.4817 58.8947 26.4935 58.7371C26.5053 58.5795 26.473 58.4217 26.4004 58.2814C26.3278 58.141 26.2176 58.0237 26.0822 57.9423C25.9467 57.8609 25.7913 57.8187 25.6333 57.8205C25.2349 57.9795 24.8501 58.1705 24.4826 58.3918C24.1763 58.0615 23.9431 57.6703 23.798 57.2438Z"
    fill="#FFF1DE" />
  <path
    d="M32.066 56.862C31.908 57.7152 30.918 58.147 30.2623 58.5999C30.1042 57.8653 29.7595 57.1837 29.2614 56.621C28.7633 56.0584 28.1286 55.6336 27.4186 55.3875C26.8873 55.2251 26.3362 55.1365 25.7808 55.1242C26.6918 54.3343 27.8715 53.2968 29.1512 53.8077C30.6573 54.121 32.0239 55.2295 32.066 56.862Z"
    fill="#FFF1DE" />
  <path
    d="M36.4369 48.839C39.8415 51.7643 40.1707 58.2286 35.0835 59.453C34.2304 59.7005 33.3641 59.453 32.6084 59.0343C33.0938 58.5981 33.4645 58.0492 33.688 57.436C34.1962 54.4237 31.276 52.1487 28.4981 51.975C27.1657 51.9434 26.0019 52.707 25.0066 53.5548C23.2503 46.3691 32.0765 43.7018 36.4369 48.839Z"
    fill="#FFF1DE" />
  <path
    d="M42.622 46.3901C43.3619 47.8726 41.8479 49.0232 40.7025 49.6868C40.3154 49.8196 39.969 50.05 39.6967 50.3556C39.0629 49.1344 38.2024 48.0451 37.161 47.1459C37.0741 47.0537 36.982 46.9642 36.8977 46.8826C37.0555 46.7241 37.2245 46.5771 37.4033 46.4428C38.464 45.6942 39.6594 45.1578 40.9237 44.8629C41.6162 45.1052 42.2139 45.774 42.622 46.3901Z"
    fill="#FFF1DE" />
  <path
    d="M49.6025 40.0444C51.4773 42.5933 53.0255 46.9589 49.8658 49.1339C48.1701 50.3609 45.6924 50.7137 43.8097 49.7211C43.7269 49.6777 43.6382 49.6466 43.5464 49.6289C45.3211 47.5724 44.5575 44.8893 41.8033 43.3594C40.8106 42.9302 39.1886 43.4648 37.8009 44.2205C37.7401 44.1385 37.6713 44.0626 37.5956 43.9941C37.2686 43.4927 37.0789 42.9143 37.0452 42.3167C36.4001 37.6641 41.1081 35.8446 44.963 37.0163C46.7061 37.6141 48.4755 38.5225 49.6025 40.0444Z"
    fill="#FFF1DE" />
  <path
    d="M53.2387 38.1195C52.5041 38.4565 51.8063 38.8646 51.0796 39.2122C50.8768 38.9331 50.6662 38.6593 50.4503 38.396C49.7108 37.626 48.8617 36.9694 47.9304 36.4475C48.249 36.0736 48.5702 35.6917 48.9652 35.5785C50.8505 34.8834 52.7911 36.2632 53.2387 38.1195Z"
    fill="#FFF1DE" />
  <path
    d="M57.7651 29.8568C61.2434 32.245 63.9898 39.1753 58.7683 41.1791C54.9872 42.5536 53.1361 40.7342 52.1539 40.9316C52.1118 40.8474 52.0644 40.7658 52.0196 40.6815C52.6516 40.3945 53.3204 39.8626 53.8365 39.7204C55.7534 39.1306 54.7949 36.874 53.926 35.7523C53.5645 35.1984 53.0827 34.7332 52.5165 34.3912C51.9503 34.0493 51.3142 33.8395 50.6557 33.7775C49.2628 33.5326 47.7329 33.9855 46.8508 35.1151C46.5841 34.8566 46.3498 34.5666 46.1531 34.2515C44.8523 32.0792 45.4026 28.9036 47.8172 27.7925C51.206 26.6128 55.0688 27.5528 57.7651 29.8568Z"
    fill="#FFF1DE" />
  <path
    d="M61.0355 29.2643C60.9881 29.6567 60.8328 30.1043 60.8749 30.4756C60.09 29.5635 59.195 28.7525 58.2102 28.061C59.2345 27.8636 60.9381 27.9425 61.0355 29.2643Z"
    fill="#FFF1DE" />
  <path
    d="M67.4022 23.4111C68.9136 25.586 70.7594 30.6811 68.2869 32.6691C66.5964 33.7908 63.8317 33.7513 62.7337 31.8265C62.6295 31.4953 62.4276 31.2034 62.1544 30.9892C63.1313 30.3177 62.7389 27.7162 61.7673 27.1843C60.9932 26.3944 58.8551 26.0073 57.4964 26.4918C57.442 26.2911 57.3129 26.1188 57.1357 26.01C56.971 25.7324 56.8292 25.4417 56.7118 25.141C55.1319 21.9524 58.5892 20.3567 61.296 20.3698C63.6368 20.433 66.0119 21.4784 67.4022 23.4111Z"
    fill="#FFF1DE" />
</svg>