<svg width="100" height="101" viewBox="0 0 100 101" fill="none" xmlns="http://www.w3.org/2000/svg">
  <path
    d="M50 100.521C77.6142 100.521 100 78.1357 100 50.5215C100 22.9072 77.6142 0.521484 50 0.521484C22.3858 0.521484 0 22.9072 0 50.5215C0 78.1357 22.3858 100.521 50 100.521Z"
    fill="#98D7C3" />
  <path
    d="M58.0862 48.6018C55.6506 48.1331 53.0833 46.3584 52.8911 43.699C52.7805 41.7821 53.3861 39.6835 54.9318 38.4512C57.0751 36.9398 60.3112 36.3448 62.631 37.7614C63.5868 37.7324 64.095 38.8146 64.698 39.3939C68.3396 43.3962 62.6678 49.576 58.0862 48.6018ZM59.3554 46.9455C61.8805 46.7007 64.095 44.4784 64.1582 41.9085C63.9317 40.9026 63.0654 40.2023 62.4361 39.4334C61.9095 39.5045 61.5725 38.9857 61.0985 38.8541C59.3159 38.4407 57.2779 38.7646 55.8323 39.9258C54.7501 40.9948 54.3604 42.7669 54.7369 44.223C55.4505 45.9792 57.5201 46.9956 59.3554 46.9455Z"
    fill="#161922" />
  <path
    d="M34.8991 68.3528C31.2997 68.3739 27.5001 68.0052 24.4536 65.9145C21.9969 64.3557 21.3202 60.73 23.1792 58.455C24.7038 56.6118 27.1473 56.0193 29.1748 54.9161C30.5333 54.2597 31.835 53.4917 33.0665 52.62C36.5975 49.9869 39.4333 46.5639 41.9585 42.996C45.2472 38.0905 49.1179 33.272 54.6869 30.8837C58.7551 28.93 63.5421 28.6114 67.8761 29.8068C70.8542 30.8021 73.2266 33.351 74.4905 36.1763C75.1409 36.8135 75.1672 37.9089 75.5595 38.7198C76.6602 41.3529 76.7023 44.2283 76.3495 46.9957C76.1283 52.3831 73.1397 57.5097 68.2342 59.8979C62.4046 62.8523 56.122 64.5322 49.7683 65.883C44.8391 66.8283 39.9652 68.3791 34.8991 68.3528ZM37.706 66.4912C41.0474 66.1805 44.2888 65.2457 47.5591 64.6006C54.4684 63.184 61.5146 61.4698 67.7866 58.2022C72.0259 56.0088 74.4773 51.4641 74.659 46.7851C74.8986 44.6049 75.0277 42.3377 74.2772 40.2365C74.1333 40.1553 74.0148 40.0358 73.9349 39.8912C73.8549 39.7466 73.8166 39.5827 73.8243 39.4177C73.6965 38.8532 73.5203 38.3009 73.2977 37.7667C72.5717 35.7264 71.2782 33.9359 69.5692 32.6058C66.3226 30.1544 60.2217 30.4994 56.5933 31.9265C50.0869 34.2542 46.2004 39.7994 42.4351 45.2368C39.9837 48.5782 37.1978 51.6905 33.8512 54.1551C31.2181 56.1062 28.0583 57.1489 25.262 58.7999C22.3656 61.1828 24.1166 64.3795 27.2078 65.4722C30.544 66.8124 34.2198 66.7387 37.7034 66.4912H37.706Z"
    fill="#161922" />
  <path
    d="M30.3071 71.3519C26.4048 71.0622 22.1998 69.9826 19.6035 66.8545C16.744 63.4078 17.5681 58.5234 20.9806 55.7955C23.0081 54.1524 25.4569 52.936 27.6924 51.68C33.9381 48.1938 38.3196 42.4246 41.8058 36.3264C41.7268 35.7998 42.2719 35.568 42.5089 35.181C43.4384 34.2646 44.3705 33.3194 45.3579 32.4478C49.9948 28.4192 56.022 25.665 62.2282 25.6492C67.0902 25.5591 71.827 27.1934 75.5991 30.2624C77.4159 31.7711 78.5955 33.9013 79.6198 35.9946C80.9601 39.1543 80.5493 42.7432 80.3887 46.0951C78.9931 57.9572 69.3981 63.7053 58.871 66.8255C53.5337 68.4475 48.1042 69.7957 42.5457 70.3039C38.4934 70.87 34.4121 71.5019 30.3071 71.3519ZM33.5063 69.5955C37.8325 69.3744 42.1086 68.5713 46.4085 68.092C51.8247 67.1599 57.1459 65.7411 62.3072 63.8528C69.5719 61.1328 75.7202 56.8619 78.0742 49.1232C78.7298 46.9772 78.793 44.7101 78.8641 42.4878C78.9247 40.0048 78.7483 37.4297 77.3659 35.289C75.1093 30.6284 69.9616 28.2796 65.1378 27.466C60.0322 26.8051 55.0056 28.1427 50.632 30.7311C47.9989 32.1582 45.7739 34.2041 43.7412 36.3764C41.9585 39.5287 39.954 42.5504 37.743 45.4185C35.5123 48.0152 32.9442 50.3017 30.107 52.2171C27.1158 54.2103 23.44 55.4216 21.0649 58.1758C18.2843 61.1749 19.7273 65.7855 23.1345 67.605C26.2021 69.4587 29.9806 69.8167 33.5063 69.5955Z"
    fill="#161922" />
  <path
    d="M28.5561 75.2041C24.2694 74.4432 18.9294 72.6421 18.1079 67.7551C17.5813 65.2615 16.7756 62.4599 17.784 60.0006C18.0474 59.2607 18.8373 58.0521 19.701 58.7789C20.6304 59.7057 18.6477 60.5246 19.0874 63.005C19.3718 65.5327 19.5614 68.7504 21.5178 70.583C24.0956 72.5289 27.3685 73.4795 30.5678 73.6401C37.1536 73.7855 43.7383 73.3006 50.2318 72.1919C61.383 70.6726 72.9686 65.8935 79.2169 56.0905C81.197 53.0861 81.3234 49.3207 80.5862 45.8924C79.8647 43.4357 79.1696 40.8895 78.693 38.4039C78.7267 38.2161 78.8233 38.0453 78.9668 37.9195C79.1103 37.7937 79.2923 37.7203 79.4829 37.7114C80.7994 37.6588 80.8521 41.0686 81.2339 42.0481C84.7201 51.9117 81.7869 57.7467 74.1956 64.282C67.7735 69.5772 59.7004 72.4842 51.551 73.7296C43.9413 74.9777 36.2447 75.8071 28.5561 75.2041Z"
    fill="#161922" />
  <path
    d="M58.0863 48.6018C62.6679 49.576 68.3554 43.3961 64.698 39.3859C64.095 38.7987 63.5868 37.7271 62.631 37.756C60.3112 36.3342 57.0752 36.9345 54.9318 38.4459C53.3862 39.6782 52.7806 41.7768 52.8912 43.6937C53.0834 46.3584 55.6507 48.1331 58.0863 48.6018ZM74.2772 40.2364C75.0277 42.3429 74.8986 44.6048 74.659 46.785C74.4773 51.464 72.0259 56.0008 67.7866 58.2021C61.504 61.4671 54.4684 63.1839 47.5591 64.6005C44.2783 65.2457 41.0475 66.1805 37.7087 66.4912C34.2198 66.7387 30.544 66.815 27.2184 65.4721C24.1272 64.3794 22.3814 61.1828 25.2726 58.7998C28.0742 57.1488 31.2286 56.1062 33.8617 54.155C37.2084 51.6904 39.9969 48.5781 42.4456 45.2367C46.211 39.7993 50.0975 34.254 56.6038 31.9264C60.2323 30.4887 66.3463 30.1569 69.5824 32.6057C71.2899 33.9367 72.5823 35.727 73.3082 37.7666C73.5312 38.3006 73.7074 38.853 73.8349 39.4175C73.8258 39.5816 73.8624 39.7449 73.9405 39.8894C74.0185 40.0339 74.1351 40.154 74.2772 40.2364Z"
    fill="#E2543D" />
  <path
    d="M62.4361 39.4334C63.0654 40.2022 63.9317 40.9026 64.1582 41.9085C64.1081 44.4784 61.8805 46.7007 59.3554 46.9482C57.5122 46.9956 55.4505 45.9793 54.7343 44.223C54.3578 42.7669 54.7475 40.9948 55.8297 39.9257C57.2779 38.7645 59.3133 38.4407 61.0959 38.8567C61.5725 38.9857 61.9279 39.5045 62.4361 39.4334Z"
    fill="white" />
  <path
    d="M76.3522 47.001C76.7024 44.2336 76.6576 41.3713 75.5623 38.7251C75.1699 37.9167 75.1436 36.8187 74.4932 36.1815C73.2293 33.3562 70.8595 30.8073 67.8789 29.812C63.5448 28.6166 58.7578 28.9352 54.6897 30.8889C49.1206 33.2587 45.25 38.0905 41.9612 43.0012C39.4361 46.5717 36.6002 49.9842 33.0692 52.6252C31.839 53.4988 30.5371 54.2669 29.1775 54.9213C27.15 56.0272 24.7012 56.6276 23.1819 58.4628C21.3229 60.7378 22.0023 64.3636 24.4563 65.9225C27.5028 68.0131 31.3024 68.3818 34.9019 68.3607C39.968 68.387 44.8418 66.8362 49.7737 65.8988C56.1273 64.548 62.4125 62.868 68.2396 59.9137C73.1424 57.5123 76.131 52.3883 76.3522 47.001ZM77.3633 35.2889C78.7457 37.4296 78.9195 40.0048 78.8615 42.4878C78.7957 44.7101 78.7325 46.9772 78.0716 49.1232C75.7018 56.8619 69.5667 61.1329 62.302 63.8529C57.1405 65.7408 51.8194 67.1596 46.4033 68.0921C42.1008 68.5714 37.8273 69.3771 33.5011 69.5956C29.9753 69.8142 26.1968 69.4588 23.1161 67.605C19.7088 65.7856 18.2659 61.175 21.0465 58.1759C23.4163 55.4216 27.1026 54.2104 30.0912 52.2171C32.928 50.3011 35.496 48.0147 37.7272 45.4185C39.9423 42.5504 41.9511 39.5287 43.7386 36.3763C45.7713 34.2014 47.9989 32.1634 50.6294 30.7283C55.003 28.14 60.0296 26.8023 65.1352 27.4632C69.959 28.2795 75.1067 30.6283 77.3633 35.2889Z"
    fill="white" />
  <path
    d="M80.5862 45.8922C81.3182 49.3153 81.1971 53.0859 79.217 56.0903C72.9686 65.8933 61.383 70.6724 50.2318 72.1917C43.7383 73.3004 37.1536 73.7853 30.5678 73.6399C27.3686 73.4767 24.0956 72.5287 21.5178 70.5828C20.5014 69.6297 19.9616 68.3052 19.6378 66.8965C22.2366 69.9957 26.4206 71.0674 30.3071 71.3544C34.4121 71.5045 38.4855 70.8646 42.5379 70.3012C48.1042 69.793 53.5337 68.4579 58.8631 66.8254C69.3955 63.7025 78.9826 57.9545 80.3808 46.0923C80.3808 45.8448 80.4045 45.5974 80.4177 45.3499C80.4809 45.5289 80.5335 45.7105 80.5862 45.8922Z"
    fill="white" />
</svg>