<svg width="30" height="31" viewBox="0 0 30 31" fill="none" xmlns="http://www.w3.org/2000/svg">
<g clip-path="url(#clip0)">
<path d="M19.29 14.9028C19.29 15.8178 18.615 16.5678 17.76 16.5678C16.92 16.5678 16.23 15.8178 16.23 14.9028C16.23 13.9878 16.905 13.2378 17.76 13.2378C18.615 13.2378 19.29 13.9878 19.29 14.9028ZM12.285 13.2378C11.43 13.2378 10.755 13.9878 10.755 14.9028C10.755 15.8178 11.445 16.5678 12.285 16.5678C13.14 16.5678 13.815 15.8178 13.815 14.9028C13.83 13.9878 13.14 13.2378 12.285 13.2378ZM28.125 3.74283V30.6528C24.3461 27.3133 25.5546 28.4188 21.165 24.3378L21.96 27.1128H4.95C3.255 27.1128 1.875 25.7328 1.875 24.0228V3.74283C1.875 2.03283 3.255 0.652832 4.95 0.652832H25.05C26.745 0.652832 28.125 2.03283 28.125 3.74283ZM23.85 17.9628C23.85 13.1328 21.69 9.21783 21.69 9.21783C19.53 7.59783 17.475 7.64283 17.475 7.64283L17.265 7.88283C19.815 8.66283 21 9.78783 21 9.78783C17.4369 7.83496 13.2513 7.83461 9.795 9.35283C9.24 9.60783 8.91 9.78783 8.91 9.78783C8.91 9.78783 10.155 8.60283 12.855 7.82283L12.705 7.64283C12.705 7.64283 10.65 7.59783 8.49 9.21783C8.49 9.21783 6.33 13.1328 6.33 17.9628C6.33 17.9628 7.59 20.1378 10.905 20.2428C10.905 20.2428 11.46 19.5678 11.91 18.9978C10.005 18.4278 9.285 17.2278 9.285 17.2278C9.50566 17.3823 9.86953 17.5825 9.9 17.6028C12.4318 19.0207 16.0282 19.4852 19.26 18.1278C19.785 17.9328 20.37 17.6478 20.985 17.2428C20.985 17.2428 20.235 18.4728 18.27 19.0278C18.72 19.5978 19.26 20.2428 19.26 20.2428C22.575 20.1378 23.85 17.9628 23.85 17.9628Z" fill="#242731"/>
</g>
<defs>
<clipPath id="clip0">
<rect width="30" height="30" fill="#242731" transform="translate(0 0.652832)"/>
</clipPath>
</defs>
</svg>
