<svg width="513" height="513" viewBox="0 0 513 513" fill="none" xmlns="http://www.w3.org/2000/svg">
<rect x="0.102051" y="0.89801" width="512" height="512" fill="#21615E"/>
<mask id="path-2-outside-1_1684:9619" maskUnits="userSpaceOnUse" x="54.3745" y="115.864" width="393" height="282" fill="black">
<rect fill="white" x="54.3745" y="115.864" width="393" height="282"/>
<path fill-rule="evenodd" clip-rule="evenodd" d="M402.675 289.758L402.68 289.729C408.877 286.331 415.297 278.515 419.682 273.177L419.682 273.177C420.868 271.733 421.905 270.471 422.748 269.526C430.81 259.102 436.652 247.136 439.912 234.368C459.867 163.705 410.958 110.829 339.442 119.873C287.658 129.029 250.931 163.898 214.178 198.792L214.178 198.792L214.178 198.792L214.178 198.792L214.178 198.792C202.473 209.905 190.766 221.02 178.569 231.308C173.596 229.038 166.745 228.086 161.156 227.309C158.557 226.948 156.23 226.624 154.492 226.224C127.409 223.986 96.5872 230.93 77.5546 251.416C47.2872 285.421 47.9571 337.951 101.018 345.402C113.47 347.628 126.229 347.188 138.46 344.136C138.808 345.77 139.478 347.337 140.148 348.902L140.148 348.902C140.565 349.876 140.982 350.85 141.32 351.838C143.434 356.929 145.019 362.265 146.605 367.601C148.914 375.371 151.223 383.141 155.162 390.157C156.466 391.861 158.205 392.668 159.995 392.792C161.111 394.023 162.67 394.855 164.618 394.933C204.766 377.409 246.927 364.918 290.141 357.745C314.359 353.157 338.615 350.903 363.022 348.635C376.906 347.344 390.84 346.05 404.843 344.318C411.972 344.475 414.616 338.207 412.889 333.645C413.598 332.334 413.897 330.728 413.565 328.884C412.339 323.762 410.824 318.708 409.312 313.664C409.06 312.824 408.808 311.984 408.558 311.144C408.17 309.808 407.778 308.473 407.386 307.137C405.698 301.386 404.004 295.617 402.675 289.758ZM152.393 339.538C160.927 336.59 170.843 332.447 167.665 324.086C166.805 322.295 165.278 320.912 163.411 320.235C161.543 319.558 159.484 319.64 157.676 320.464C133.914 333.129 100.44 337.974 78.6619 319.126C64.0127 300.808 76.9089 273.079 91.5812 258.591C111.284 241.782 138.882 238.308 163.907 243.022C159.904 246.029 155.833 248.92 151.679 251.67C143.466 257.161 151.517 269.295 159.753 264.266C182.759 249.797 202.307 230.975 221.868 212.141L221.868 212.14C234.182 200.284 246.501 188.423 259.691 177.639C289.543 152.355 328.323 128.916 368.902 134.914C389.134 139.067 410.889 148.225 420.463 167.742C436.566 197.295 429.737 236.652 409.413 262.536C405.321 267.839 400.575 272.604 395.288 276.716C393.291 276.121 390.993 275.918 388.822 275.727L388.822 275.727L388.821 275.727L388.82 275.727C387.992 275.654 387.184 275.583 386.417 275.492C393.034 264.409 396.44 246.941 396.081 239.512C396.865 229.915 382.469 228.508 381.454 238.059C381.21 243.887 380.383 249.675 378.986 255.338C377.37 261.129 374.591 266.529 370.819 271.21C369.557 271.688 368.448 272.498 367.609 273.554C367.348 273.882 367.116 274.23 366.914 274.594C361.271 274.496 355.626 274.524 349.986 274.678C354.295 264.911 356.677 253.369 355.614 248.51C355.002 242.486 353.772 236.541 351.945 230.769C348.923 221.587 335.151 225.993 337.873 235.221C342.691 248.442 341.318 264.476 332.126 275.591C321.164 276.413 310.235 277.713 299.37 279.492C285.89 282.275 272.616 285.983 259.644 290.588C257.801 291.203 256.268 292.507 255.364 294.227C254.461 295.947 254.258 297.95 254.799 299.816C255.399 301.671 256.699 303.219 258.422 304.132C260.144 305.045 262.155 305.251 264.027 304.707C266.881 303.844 269.724 302.952 272.565 302.061L272.567 302.061L272.57 302.06C279.602 299.854 286.624 297.652 293.787 295.894C307.299 292.715 320.406 291.334 334.091 290.509C335.027 290.644 335.954 290.583 336.866 290.35C340.152 290.17 343.474 290.016 346.847 289.873C360.506 288.749 374.148 289.512 387.73 290.405C387.867 293.901 389.109 297.862 390.236 301.455C390.898 303.568 391.521 305.554 391.856 307.245C393.022 311.12 394.085 315.03 395.147 318.937L395.147 318.94C396.138 322.586 397.128 326.23 398.202 329.843C386.011 331.266 373.778 332.466 361.54 333.667C330.459 336.717 299.345 339.769 268.801 346.487C246.366 351.026 224.237 356.967 202.545 364.273L202.485 364.293C190.127 368.246 177.641 372.241 166.294 378.559C164.551 373.822 163.006 368.996 161.461 364.17L161.461 364.169C158.784 355.805 156.106 347.44 152.393 339.538ZM190.233 334.188C183.612 336.766 173.894 340.55 178.532 348.839C182.907 354.548 188.786 351.451 194.501 348.44C197.193 347.021 199.849 345.622 202.294 345.171C209.011 342.502 215.864 340.192 222.826 338.25C227.261 337.083 231.719 335.989 236.168 334.897L236.176 334.895L236.184 334.893C237.885 334.475 239.585 334.057 241.282 333.637C250.44 330.776 246.103 316.796 236.875 319.61C221.579 322.929 206.598 327.56 192.097 333.452C191.518 333.688 190.891 333.932 190.233 334.188Z"/>
</mask>
<path fill-rule="evenodd" clip-rule="evenodd" d="M402.675 289.758L402.68 289.729C408.877 286.331 415.297 278.515 419.682 273.177L419.682 273.177C420.868 271.733 421.905 270.471 422.748 269.526C430.81 259.102 436.652 247.136 439.912 234.368C459.867 163.705 410.958 110.829 339.442 119.873C287.658 129.029 250.931 163.898 214.178 198.792L214.178 198.792L214.178 198.792L214.178 198.792L214.178 198.792C202.473 209.905 190.766 221.02 178.569 231.308C173.596 229.038 166.745 228.086 161.156 227.309C158.557 226.948 156.23 226.624 154.492 226.224C127.409 223.986 96.5872 230.93 77.5546 251.416C47.2872 285.421 47.9571 337.951 101.018 345.402C113.47 347.628 126.229 347.188 138.46 344.136C138.808 345.77 139.478 347.337 140.148 348.902L140.148 348.902C140.565 349.876 140.982 350.85 141.32 351.838C143.434 356.929 145.019 362.265 146.605 367.601C148.914 375.371 151.223 383.141 155.162 390.157C156.466 391.861 158.205 392.668 159.995 392.792C161.111 394.023 162.67 394.855 164.618 394.933C204.766 377.409 246.927 364.918 290.141 357.745C314.359 353.157 338.615 350.903 363.022 348.635C376.906 347.344 390.84 346.05 404.843 344.318C411.972 344.475 414.616 338.207 412.889 333.645C413.598 332.334 413.897 330.728 413.565 328.884C412.339 323.762 410.824 318.708 409.312 313.664C409.06 312.824 408.808 311.984 408.558 311.144C408.17 309.808 407.778 308.473 407.386 307.137C405.698 301.386 404.004 295.617 402.675 289.758ZM152.393 339.538C160.927 336.59 170.843 332.447 167.665 324.086C166.805 322.295 165.278 320.912 163.411 320.235C161.543 319.558 159.484 319.64 157.676 320.464C133.914 333.129 100.44 337.974 78.6619 319.126C64.0127 300.808 76.9089 273.079 91.5812 258.591C111.284 241.782 138.882 238.308 163.907 243.022C159.904 246.029 155.833 248.92 151.679 251.67C143.466 257.161 151.517 269.295 159.753 264.266C182.759 249.797 202.307 230.975 221.868 212.141L221.868 212.14C234.182 200.284 246.501 188.423 259.691 177.639C289.543 152.355 328.323 128.916 368.902 134.914C389.134 139.067 410.889 148.225 420.463 167.742C436.566 197.295 429.737 236.652 409.413 262.536C405.321 267.839 400.575 272.604 395.288 276.716C393.291 276.121 390.993 275.918 388.822 275.727L388.822 275.727L388.821 275.727L388.82 275.727C387.992 275.654 387.184 275.583 386.417 275.492C393.034 264.409 396.44 246.941 396.081 239.512C396.865 229.915 382.469 228.508 381.454 238.059C381.21 243.887 380.383 249.675 378.986 255.338C377.37 261.129 374.591 266.529 370.819 271.21C369.557 271.688 368.448 272.498 367.609 273.554C367.348 273.882 367.116 274.23 366.914 274.594C361.271 274.496 355.626 274.524 349.986 274.678C354.295 264.911 356.677 253.369 355.614 248.51C355.002 242.486 353.772 236.541 351.945 230.769C348.923 221.587 335.151 225.993 337.873 235.221C342.691 248.442 341.318 264.476 332.126 275.591C321.164 276.413 310.235 277.713 299.37 279.492C285.89 282.275 272.616 285.983 259.644 290.588C257.801 291.203 256.268 292.507 255.364 294.227C254.461 295.947 254.258 297.95 254.799 299.816C255.399 301.671 256.699 303.219 258.422 304.132C260.144 305.045 262.155 305.251 264.027 304.707C266.881 303.844 269.724 302.952 272.565 302.061L272.567 302.061L272.57 302.06C279.602 299.854 286.624 297.652 293.787 295.894C307.299 292.715 320.406 291.334 334.091 290.509C335.027 290.644 335.954 290.583 336.866 290.35C340.152 290.17 343.474 290.016 346.847 289.873C360.506 288.749 374.148 289.512 387.73 290.405C387.867 293.901 389.109 297.862 390.236 301.455C390.898 303.568 391.521 305.554 391.856 307.245C393.022 311.12 394.085 315.03 395.147 318.937L395.147 318.94C396.138 322.586 397.128 326.23 398.202 329.843C386.011 331.266 373.778 332.466 361.54 333.667C330.459 336.717 299.345 339.769 268.801 346.487C246.366 351.026 224.237 356.967 202.545 364.273L202.485 364.293C190.127 368.246 177.641 372.241 166.294 378.559C164.551 373.822 163.006 368.996 161.461 364.17L161.461 364.169C158.784 355.805 156.106 347.44 152.393 339.538ZM190.233 334.188C183.612 336.766 173.894 340.55 178.532 348.839C182.907 354.548 188.786 351.451 194.501 348.44C197.193 347.021 199.849 345.622 202.294 345.171C209.011 342.502 215.864 340.192 222.826 338.25C227.261 337.083 231.719 335.989 236.168 334.897L236.176 334.895L236.184 334.893C237.885 334.475 239.585 334.057 241.282 333.637C250.44 330.776 246.103 316.796 236.875 319.61C221.579 322.929 206.598 327.56 192.097 333.452C191.518 333.688 190.891 333.932 190.233 334.188Z" fill="white"/>
<path d="M402.68 289.729L401.478 287.537L400.403 288.127L400.211 289.337L402.68 289.729ZM402.675 289.758L400.206 289.366L400.131 289.841L400.237 290.311L402.675 289.758ZM419.682 273.177L421.614 274.764L421.649 274.721L421.682 274.677L419.682 273.177ZM419.682 273.176L417.758 271.58L417.719 271.627L417.682 271.676L419.682 273.176ZM419.685 273.172L421.61 274.768L421.617 274.759L419.685 273.172ZM422.748 269.526L424.613 271.191L424.671 271.125L424.725 271.056L422.748 269.526ZM439.912 234.368L437.506 233.688L437.497 233.719L437.489 233.749L439.912 234.368ZM339.442 119.873L339.129 117.392L339.068 117.4L339.007 117.411L339.442 119.873ZM214.178 198.792L215.9 200.605L215.9 200.605L214.178 198.792ZM178.569 231.308L177.531 233.582L178.971 234.239L180.181 233.219L178.569 231.308ZM161.156 227.309L161.501 224.833L161.501 224.833L161.156 227.309ZM154.492 226.224L155.054 223.788L154.878 223.747L154.698 223.732L154.492 226.224ZM77.5546 251.416L75.7231 249.714L75.705 249.734L75.6872 249.754L77.5546 251.416ZM101.018 345.402L101.457 342.941L101.411 342.933L101.365 342.926L101.018 345.402ZM138.46 344.136L140.905 343.615L140.366 341.083L137.854 341.71L138.46 344.136ZM140.148 348.902L142.469 347.974L142.458 347.946L142.447 347.918L140.148 348.902ZM140.148 348.902L137.827 349.831L137.838 349.858L137.85 349.886L140.148 348.902ZM141.32 351.838L138.955 352.648L138.981 352.723L139.011 352.797L141.32 351.838ZM146.605 367.601L149.002 366.889L149.002 366.889L146.605 367.601ZM155.162 390.157L152.982 391.381L153.069 391.536L153.177 391.677L155.162 390.157ZM159.995 392.792L161.848 391.114L161.172 390.368L160.169 390.298L159.995 392.792ZM164.618 394.933L164.518 397.431L165.092 397.454L165.618 397.224L164.618 394.933ZM290.141 357.745L290.55 360.211L290.578 360.206L290.606 360.201L290.141 357.745ZM363.022 348.635L363.253 351.124L363.253 351.124L363.022 348.635ZM404.843 344.318L404.898 341.819L404.716 341.815L404.536 341.837L404.843 344.318ZM412.889 333.645L410.69 332.456L410.146 333.461L410.551 334.53L412.889 333.645ZM413.565 328.884L416.025 328.441L416.013 328.371L415.996 328.302L413.565 328.884ZM409.312 313.664L411.706 312.946L411.706 312.946L409.312 313.664ZM408.558 311.144L406.156 311.84L406.159 311.849L406.162 311.858L408.558 311.144ZM407.386 307.137L404.987 307.841L404.987 307.841L407.386 307.137ZM167.665 324.086L170.002 323.198L169.965 323.099L169.919 323.004L167.665 324.086ZM152.393 339.537L151.577 337.174L148.947 338.083L150.131 340.601L152.393 339.537ZM157.676 320.464L156.639 318.189L156.568 318.221L156.5 318.258L157.676 320.464ZM78.6619 319.126L76.7095 320.687L76.8526 320.866L77.0259 321.016L78.6619 319.126ZM91.5812 258.591L89.9587 256.689L89.8894 256.748L89.8247 256.812L91.5812 258.591ZM163.907 243.022L165.409 245.021L169.943 241.615L164.37 240.565L163.907 243.022ZM151.679 251.67L150.299 249.585L150.289 249.592L151.679 251.67ZM159.753 264.266L161.056 266.4L161.07 266.391L161.084 266.382L159.753 264.266ZM221.868 212.141L223.602 213.941L223.602 213.941L221.868 212.141ZM259.691 177.639L261.273 179.575L261.29 179.561L261.306 179.547L259.691 177.639ZM368.902 134.914L369.405 132.465L369.337 132.451L369.268 132.441L368.902 134.914ZM420.463 167.742L418.219 168.843L418.242 168.892L418.268 168.939L420.463 167.742ZM409.413 262.536L407.447 260.992L407.44 261L407.434 261.009L409.413 262.536ZM395.288 276.716L394.574 279.112L395.807 279.479L396.823 278.689L395.288 276.716ZM388.822 275.727L388.574 278.215L388.588 278.216L388.603 278.218L388.822 275.727ZM388.821 275.727L389.07 273.239L389.041 273.237L389.013 273.234L388.821 275.727ZM388.82 275.727L388.6 278.217L388.614 278.218L388.628 278.22L388.82 275.727ZM386.417 275.492L384.271 274.211L382.294 277.521L386.123 277.975L386.417 275.492ZM396.081 239.512L393.589 239.309L393.576 239.471L393.584 239.633L396.081 239.512ZM381.454 238.059L378.968 237.795L378.959 237.874L378.956 237.954L381.454 238.059ZM378.986 255.338L381.394 256.01L381.404 255.974L381.413 255.937L378.986 255.338ZM370.819 271.21L371.705 273.548L372.34 273.307L372.766 272.779L370.819 271.21ZM367.609 273.554L369.565 275.11L369.565 275.11L367.609 273.554ZM366.914 274.594L366.871 277.094L368.375 277.12L369.103 275.804L366.914 274.594ZM349.986 274.678L347.699 273.669L346.104 277.286L350.055 277.177L349.986 274.678ZM355.614 248.51L353.127 248.762L353.141 248.904L353.172 249.044L355.614 248.51ZM351.945 230.769L354.328 230.015L354.324 230.001L354.32 229.987L351.945 230.769ZM337.873 235.221L335.475 235.929L335.498 236.004L335.524 236.077L337.873 235.221ZM332.126 275.591L332.312 278.084L333.374 278.005L334.052 277.185L332.126 275.591ZM299.37 279.492L298.967 277.024L298.916 277.033L298.865 277.043L299.37 279.492ZM259.644 290.588L260.435 292.96L260.458 292.952L260.48 292.944L259.644 290.588ZM255.364 294.227L253.151 293.065L253.151 293.065L255.364 294.227ZM254.799 299.816L252.398 300.512L252.408 300.549L252.42 300.586L254.799 299.816ZM264.027 304.707L264.725 307.107L264.738 307.104L264.75 307.1L264.027 304.707ZM272.565 302.061L273.313 304.447L273.324 304.443L273.335 304.44L272.565 302.061ZM272.567 302.061L271.823 299.674L271.81 299.678L271.797 299.682L272.567 302.061ZM272.57 302.06L273.313 304.447L273.318 304.445L272.57 302.06ZM293.787 295.894L293.214 293.461L293.202 293.463L293.191 293.466L293.787 295.894ZM334.091 290.509L334.447 288.035L334.195 287.999L333.94 288.014L334.091 290.509ZM336.866 290.35L336.729 287.854L336.484 287.867L336.246 287.928L336.866 290.35ZM346.847 289.873L346.953 292.371L347.003 292.369L347.052 292.365L346.847 289.873ZM387.73 290.405L390.228 290.307L390.139 288.058L387.894 287.911L387.73 290.405ZM390.236 301.455L392.621 300.707L392.621 300.707L390.236 301.455ZM391.856 307.245L389.403 307.731L389.427 307.85L389.462 307.966L391.856 307.245ZM395.147 318.937L397.565 318.303L397.562 318.292L397.559 318.282L395.147 318.937ZM395.147 318.94L392.729 319.574L392.732 319.585L392.735 319.596L395.147 318.94ZM398.202 329.843L398.492 332.326L401.446 331.981L400.599 329.13L398.202 329.843ZM361.54 333.667L361.784 336.155L361.784 336.155L361.54 333.667ZM268.801 346.487L269.297 348.937L269.318 348.933L269.338 348.928L268.801 346.487ZM202.545 364.273L203.307 366.654L203.325 366.649L203.343 366.643L202.545 364.273ZM202.485 364.293L203.246 366.674L203.247 366.673L202.485 364.293ZM166.294 378.559L163.948 379.423L164.958 382.165L167.51 380.743L166.294 378.559ZM161.461 364.17L159.066 364.888L159.073 364.91L159.08 364.932L161.461 364.17ZM161.461 364.169L163.856 363.451L163.849 363.429L163.842 363.407L161.461 364.169ZM178.532 348.839L176.35 350.06L176.438 350.217L176.547 350.36L178.532 348.839ZM190.233 334.188L189.326 331.858L189.326 331.858L190.233 334.188ZM194.501 348.44L195.666 350.651L195.666 350.651L194.501 348.44ZM202.294 345.171L202.747 347.63L202.989 347.585L203.217 347.495L202.294 345.171ZM222.826 338.25L222.19 335.833L222.172 335.837L222.154 335.842L222.826 338.25ZM236.168 334.897L236.764 337.324L236.764 337.324L236.168 334.897ZM236.184 334.893L235.588 332.465L235.587 332.465L236.184 334.893ZM241.282 333.636L241.884 336.063L241.956 336.045L242.027 336.023L241.282 333.636ZM236.875 319.61L237.405 322.053L237.506 322.031L237.604 322.001L236.875 319.61ZM192.097 333.452L191.156 331.136L191.156 331.136L192.097 333.452ZM400.211 289.337L400.206 289.366L405.144 290.15L405.149 290.121L400.211 289.337ZM417.75 271.59C415.55 274.268 412.908 277.483 410.058 280.448C407.186 283.436 404.241 286.022 401.478 287.537L403.882 291.921C407.316 290.038 410.68 287.017 413.663 283.913C416.668 280.786 419.429 277.423 421.614 274.764L417.75 271.59ZM417.682 271.676L417.682 271.677L421.682 274.677L421.682 274.676L417.682 271.676ZM417.761 271.576L417.758 271.58L421.607 274.772L421.61 274.768L417.761 271.576ZM420.883 267.861C419.998 268.852 418.925 270.159 417.754 271.585L421.617 274.759C422.814 273.302 423.812 272.088 424.613 271.191L420.883 267.861ZM437.489 233.749C434.314 246.187 428.624 257.842 420.77 267.997L424.725 271.056C432.997 260.361 438.989 248.086 442.334 234.986L437.489 233.749ZM339.756 122.353C374.835 117.917 404.075 128.684 422.114 148.895C440.136 169.089 447.286 199.056 437.506 233.688L442.317 235.047C452.492 199.017 445.166 167.215 425.844 145.566C406.538 123.934 375.565 112.785 339.129 117.392L339.756 122.353ZM215.9 200.605C252.75 165.618 288.953 131.339 339.878 122.335L339.007 117.411C286.364 126.719 249.112 162.178 212.457 196.979L215.9 200.605ZM180.181 233.219C192.444 222.875 204.204 211.709 215.9 200.605L212.457 196.979C200.743 208.1 189.089 219.164 176.957 229.397L180.181 233.219ZM160.812 229.785C166.511 230.577 172.959 231.495 177.531 233.582L179.607 229.033C174.233 226.581 166.98 225.595 161.501 224.833L160.812 229.785ZM153.931 228.66C155.802 229.091 158.256 229.43 160.812 229.785L161.501 224.833C158.858 224.466 156.659 224.158 155.054 223.788L153.931 228.66ZM79.3862 253.118C97.7116 233.393 127.647 226.514 154.287 228.715L154.698 223.732C127.17 221.458 95.4627 228.467 75.7231 249.714L79.3862 253.118ZM101.365 342.926C88.503 341.12 79.0146 336.614 72.4052 330.517C65.8025 324.427 61.9317 316.623 60.5049 307.96C57.6383 290.556 64.6664 269.656 79.422 253.078L75.6872 249.754C60.1754 267.181 52.4048 289.548 55.5714 308.773C57.1612 318.425 61.515 327.275 69.0153 334.193C76.5088 341.104 87.0018 345.958 100.67 347.878L101.365 342.926ZM137.854 341.71C125.965 344.677 113.562 345.105 101.457 342.941L100.578 347.863C113.377 350.151 126.493 349.698 139.065 346.561L137.854 341.71ZM142.447 347.918C141.759 346.312 141.193 344.97 140.905 343.615L136.015 344.656C136.422 346.57 137.198 348.362 137.85 349.886L142.447 347.918ZM142.47 347.974L142.469 347.974L137.827 349.83L137.827 349.831L142.47 347.974ZM143.686 351.029C143.312 349.937 142.857 348.877 142.447 347.919L137.85 349.886C138.273 350.875 138.652 351.763 138.955 352.648L143.686 351.029ZM149.002 366.889C147.422 361.575 145.801 356.112 143.629 350.88L139.011 352.797C141.066 357.747 142.616 362.955 144.209 368.313L149.002 366.889ZM157.342 388.933C153.563 382.202 151.325 374.706 149.002 366.889L144.209 368.313C146.503 376.035 148.883 384.08 152.982 391.381L157.342 388.933ZM160.169 390.298C159.054 390.221 157.991 389.74 157.147 388.638L153.177 391.677C154.941 393.981 157.357 395.115 159.822 395.286L160.169 390.298ZM164.718 392.435C163.479 392.385 162.539 391.877 161.848 391.114L158.143 394.471C159.682 396.169 161.861 397.324 164.518 397.431L164.718 392.435ZM289.732 355.278C246.314 362.486 203.955 375.036 163.618 392.642L165.618 397.224C205.577 379.783 247.54 367.351 290.55 360.211L289.732 355.278ZM362.791 346.145C338.403 348.412 314.029 350.675 289.676 355.288L290.606 360.201C314.689 355.639 338.828 353.394 363.253 351.124L362.791 346.145ZM404.536 341.837C390.577 343.563 376.681 344.855 362.791 346.145L363.253 351.124C377.132 349.834 391.103 348.536 405.15 346.799L404.536 341.837ZM410.551 334.53C411.144 336.098 410.979 337.981 410.073 339.417C409.231 340.751 407.635 341.879 404.898 341.819L404.788 346.817C409.18 346.914 412.47 344.986 414.301 342.085C416.068 339.285 416.361 335.754 415.227 332.76L410.551 334.53ZM411.104 329.327C411.34 330.638 411.118 331.665 410.69 332.456L415.088 334.834C416.078 333.003 416.453 330.819 416.025 328.441L411.104 329.327ZM406.917 314.382C408.432 319.438 409.926 324.424 411.133 329.466L415.996 328.302C414.751 323.101 413.215 317.979 411.706 312.946L406.917 314.382ZM406.162 311.858C406.413 312.7 406.665 313.542 406.917 314.382L411.706 312.946C411.454 312.106 411.203 311.267 410.953 310.429L406.162 311.858ZM404.987 307.841C405.38 309.178 405.771 310.509 406.156 311.84L410.959 310.447C410.57 309.107 410.177 307.768 409.785 306.433L404.987 307.841ZM400.237 290.311C401.587 296.259 403.303 302.102 404.987 307.841L409.785 306.433C408.093 300.669 406.422 294.975 405.113 289.205L400.237 290.311ZM165.328 324.974C165.929 326.555 165.858 327.744 165.485 328.72C165.087 329.76 164.245 330.811 162.886 331.869C160.109 334.029 155.878 335.689 151.577 337.174L153.209 341.901C157.442 340.439 162.436 338.553 165.956 335.815C167.745 334.423 169.32 332.687 170.154 330.506C171.013 328.261 170.99 325.798 170.002 323.198L165.328 324.974ZM162.558 322.585C163.811 323.039 164.835 323.966 165.411 325.168L169.919 323.004C168.776 320.623 166.746 318.785 164.263 317.885L162.558 322.585ZM158.712 322.739C159.925 322.186 161.306 322.131 162.558 322.585L164.263 317.885C161.78 316.985 159.043 317.094 156.639 318.189L158.712 322.739ZM77.0259 321.016C99.9758 340.878 134.739 335.522 158.852 322.67L156.5 318.258C133.089 330.736 100.904 335.069 80.298 317.235L77.0259 321.016ZM89.8247 256.812C82.2254 264.316 75.0873 275.23 71.7265 286.72C68.3621 298.223 68.702 310.675 76.7095 320.687L80.6144 317.564C73.9727 309.26 73.436 298.687 76.5254 288.124C79.6185 277.549 86.2647 267.354 93.3378 260.37L89.8247 256.812ZM164.37 240.565C138.881 235.764 110.424 239.231 89.9587 256.689L93.2037 260.493C112.145 244.334 138.882 240.852 163.445 245.479L164.37 240.565ZM153.058 253.755C157.259 250.975 161.371 248.054 165.409 245.021L162.406 241.023C158.438 244.004 154.408 246.866 150.299 249.585L153.058 253.755ZM158.45 262.132C156.972 263.035 155.648 263.106 154.557 262.79C153.411 262.459 152.36 261.65 151.642 260.548C150.923 259.446 150.62 258.18 150.79 257.028C150.952 255.935 151.567 254.752 153.068 253.748L150.289 249.592C147.684 251.334 146.225 253.726 145.844 256.295C145.472 258.806 146.156 261.289 147.453 263.279C148.75 265.268 150.743 266.892 153.167 267.593C155.645 268.31 158.416 268.012 161.056 266.4L158.45 262.132ZM220.134 210.34C200.541 229.205 181.174 247.841 158.422 262.15L161.084 266.382C184.344 251.754 204.073 232.746 223.602 213.941L220.134 210.34ZM258.108 175.704C244.827 186.562 232.435 198.495 220.134 210.34L223.602 213.941C235.928 202.073 248.175 190.283 261.273 179.575L258.108 175.704ZM369.268 132.441C327.545 126.274 288.017 150.371 258.075 175.732L261.306 179.547C291.069 154.339 329.101 131.558 368.537 137.387L369.268 132.441ZM422.708 166.641C412.599 146.035 389.822 136.656 369.405 132.465L368.4 137.363C388.447 141.478 409.18 150.416 418.219 168.843L422.708 166.641ZM411.379 264.08C432.195 237.57 439.33 197.141 422.659 166.546L418.268 168.939C433.803 197.448 427.28 235.733 407.447 260.992L411.379 264.08ZM396.823 278.689C402.276 274.448 407.172 269.533 411.392 264.063L407.434 261.009C403.471 266.145 398.874 270.76 393.753 274.742L396.823 278.689ZM388.603 278.218C390.833 278.414 392.865 278.602 394.574 279.112L396.002 274.32C393.718 273.639 391.154 273.423 389.042 273.237L388.603 278.218ZM388.573 278.215L388.574 278.215L389.071 273.24L389.071 273.24L388.573 278.215ZM388.572 278.215L388.573 278.215L389.071 273.24L389.07 273.239L388.572 278.215ZM388.628 278.22L388.629 278.22L389.013 273.234L389.011 273.234L388.628 278.22ZM386.123 277.975C386.934 278.071 387.781 278.145 388.6 278.217L389.039 273.237C388.204 273.163 387.434 273.095 386.711 273.009L386.123 277.975ZM393.584 239.633C393.747 243.007 393.043 248.967 391.437 255.538C389.836 262.084 387.405 268.96 384.271 274.211L388.564 276.773C392.046 270.941 394.627 263.542 396.293 256.726C397.954 249.935 398.774 243.447 398.578 239.391L393.584 239.633ZM383.94 238.323C384.121 236.613 384.859 235.567 385.734 234.939C386.66 234.275 387.907 233.966 389.197 234.093C390.486 234.22 391.658 234.768 392.449 235.608C393.2 236.404 393.73 237.586 393.589 239.309L398.572 239.716C398.824 236.64 397.849 234.047 396.089 232.179C394.369 230.354 392.026 229.348 389.687 229.117C387.349 228.887 384.856 229.417 382.821 230.875C380.737 232.37 379.294 234.729 378.968 237.795L383.94 238.323ZM381.413 255.937C382.85 250.112 383.7 244.158 383.952 238.164L378.956 237.954C378.719 243.615 377.916 249.238 376.559 254.739L381.413 255.937ZM372.766 272.779C376.751 267.833 379.687 262.128 381.394 256.01L376.578 254.666C375.053 260.13 372.431 265.225 368.872 269.641L372.766 272.779ZM369.565 275.11C370.125 274.406 370.864 273.866 371.705 273.548L369.933 268.872C368.25 269.51 366.772 270.59 365.652 271.998L369.565 275.11ZM369.103 275.804C369.237 275.561 369.391 275.329 369.565 275.11L365.652 271.998C365.304 272.436 364.995 272.9 364.726 273.385L369.103 275.804ZM350.055 277.177C355.658 277.024 361.264 276.996 366.871 277.094L366.958 272.095C361.277 271.996 355.595 272.024 349.918 272.179L350.055 277.177ZM353.172 249.044C353.582 250.917 353.36 254.568 352.369 259.234C351.402 263.786 349.781 268.948 347.699 273.669L352.274 275.687C354.5 270.641 356.224 265.149 357.26 260.273C358.271 255.512 358.71 250.962 358.056 247.975L353.172 249.044ZM349.561 231.523C351.337 237.133 352.532 242.909 353.127 248.762L358.101 248.257C357.471 242.063 356.207 235.95 354.328 230.015L349.561 231.523ZM340.271 234.514C339.783 232.858 340.059 231.585 340.633 230.643C341.238 229.65 342.276 228.867 343.513 228.474C344.75 228.08 346.037 228.123 347.084 228.583C348.077 229.018 349.026 229.897 349.57 231.551L354.32 229.987C353.353 227.05 351.447 225.036 349.093 224.004C346.793 222.996 344.24 222.996 341.997 223.709C339.754 224.423 337.67 225.898 336.364 228.04C335.028 230.232 334.603 232.971 335.475 235.929L340.271 234.514ZM334.052 277.185C343.916 265.257 345.282 248.251 340.222 234.365L335.524 236.077C340.1 248.634 338.72 263.694 330.199 273.998L334.052 277.185ZM299.774 281.959C310.567 280.192 321.423 278.9 332.312 278.084L331.939 273.098C320.905 273.925 309.903 275.234 298.967 277.024L299.774 281.959ZM260.48 292.944C273.344 288.377 286.507 284.7 299.876 281.94L298.865 277.043C285.272 279.85 271.887 283.588 258.807 288.232L260.48 292.944ZM257.578 295.389C258.181 294.24 259.205 293.37 260.435 292.96L258.853 288.216C256.397 289.035 254.354 290.773 253.151 293.065L257.578 295.389ZM257.2 299.12C256.839 297.875 256.975 296.538 257.578 295.389L253.151 293.065C251.948 295.356 251.677 298.025 252.398 300.512L257.2 299.12ZM259.592 301.923C258.444 301.315 257.578 300.283 257.178 299.046L252.42 300.586C253.221 303.059 254.954 305.124 257.251 306.341L259.592 301.923ZM263.328 302.306C262.081 302.669 260.741 302.532 259.592 301.923L257.251 306.341C259.548 307.559 262.229 307.833 264.725 307.107L263.328 302.306ZM271.817 299.676C268.974 300.567 266.143 301.455 263.303 302.314L264.75 307.1C267.619 306.232 270.474 305.337 273.313 304.447L271.817 299.676ZM271.797 299.682L271.796 299.683L273.335 304.44L273.336 304.439L271.797 299.682ZM271.826 299.673L271.823 299.674L273.31 304.448L273.313 304.447L271.826 299.673ZM293.191 293.466C285.938 295.246 278.841 297.473 271.821 299.674L273.318 304.445C280.362 302.236 287.309 300.058 294.382 298.322L293.191 293.466ZM333.94 288.014C320.186 288.843 306.922 290.235 293.214 293.461L294.359 298.328C307.676 295.194 320.626 293.825 334.241 293.005L333.94 288.014ZM336.246 287.928C335.633 288.085 335.039 288.12 334.447 288.035L333.734 292.984C335.016 293.169 336.274 293.081 337.485 292.772L336.246 287.928ZM346.741 287.375C343.363 287.519 340.029 287.673 336.729 287.854L337.003 292.846C340.274 292.667 343.586 292.514 346.953 292.371L346.741 287.375ZM387.894 287.911C374.318 287.018 360.507 286.241 346.642 287.381L347.052 292.365C360.505 291.258 373.977 292.006 387.566 292.9L387.894 287.911ZM392.621 300.707C391.467 297.026 390.35 293.405 390.228 290.307L385.232 290.504C385.385 294.398 386.751 298.698 387.85 302.203L392.621 300.707ZM394.308 306.759C393.941 304.907 393.27 302.779 392.621 300.707L387.85 302.203C388.525 304.357 389.1 306.201 389.403 307.731L394.308 306.759ZM397.559 318.282C396.499 314.379 395.428 310.437 394.25 306.524L389.462 307.966C390.617 311.803 391.671 315.68 392.734 319.593L397.559 318.282ZM397.566 318.306L397.565 318.303L392.729 319.572L392.729 319.574L397.566 318.306ZM400.599 329.13C399.535 325.551 398.552 321.935 397.56 318.284L392.735 319.596C393.724 323.237 394.722 326.91 395.806 330.555L400.599 329.13ZM361.784 336.155C374.019 334.955 386.274 333.752 398.492 332.326L397.912 327.359C385.748 328.78 373.538 329.978 361.296 331.179L361.784 336.155ZM269.338 348.928C299.712 342.248 330.678 339.207 361.784 336.155L361.296 331.179C330.239 334.226 298.977 337.291 268.264 344.045L269.338 348.928ZM203.343 366.643C224.936 359.369 246.964 353.456 269.297 348.937L268.306 344.036C245.768 348.597 223.538 354.564 201.747 361.904L203.343 366.643ZM203.247 366.673L203.307 366.654L201.782 361.893L201.722 361.912L203.247 366.673ZM167.51 380.743C178.604 374.566 190.847 370.641 203.246 366.674L201.723 361.912C189.407 365.852 176.679 369.915 165.078 376.375L167.51 380.743ZM159.08 364.932C160.622 369.749 162.183 374.627 163.948 379.423L168.64 377.695C166.918 373.017 165.39 368.243 163.842 363.407L159.08 364.932ZM159.066 364.888L159.066 364.888L163.856 363.451L163.856 363.451L159.066 364.888ZM150.131 340.601C153.763 348.332 156.394 356.54 159.08 364.931L163.842 363.407C161.173 355.07 158.449 346.548 154.656 338.474L150.131 340.601ZM180.713 347.619C179.784 345.958 179.717 344.803 179.908 343.981C180.109 343.111 180.695 342.211 181.791 341.267C184.078 339.298 187.713 337.852 191.14 336.517L189.326 331.858C186.131 333.102 181.597 334.837 178.529 337.477C176.948 338.838 175.56 340.599 175.037 342.85C174.503 345.15 174.96 347.577 176.35 350.06L180.713 347.619ZM193.336 346.228C190.369 347.791 187.86 349.082 185.619 349.441C184.567 349.609 183.696 349.545 182.938 349.264C182.191 348.988 181.37 348.432 180.516 347.319L176.547 350.36C177.881 352.101 179.436 353.299 181.2 353.953C182.953 354.602 184.73 354.647 186.409 354.378C189.629 353.862 192.918 352.099 195.666 350.651L193.336 346.228ZM201.841 342.713C198.942 343.247 195.92 344.866 193.336 346.228L195.666 350.651C198.466 349.176 200.756 347.997 202.747 347.63L201.841 342.713ZM222.154 335.842C215.107 337.808 208.17 340.146 201.371 342.848L203.217 347.495C209.852 344.858 216.621 342.576 223.498 340.659L222.154 335.842ZM235.571 332.469C231.127 333.56 226.648 334.66 222.19 335.833L223.462 340.668C227.873 339.507 232.312 338.417 236.764 337.324L235.571 332.469ZM235.579 332.467L235.571 332.469L236.764 337.324L236.772 337.322L235.579 332.467ZM235.587 332.465L235.579 332.467L236.772 337.322L236.781 337.32L235.587 332.465ZM240.68 331.21C238.987 331.63 237.29 332.047 235.588 332.465L236.78 337.32C238.481 336.903 240.184 336.485 241.884 336.063L240.68 331.21ZM237.604 322.001C239.253 321.499 240.508 321.772 241.435 322.342C242.416 322.945 243.196 323.988 243.587 325.24C243.978 326.492 243.929 327.789 243.468 328.832C243.033 329.816 242.164 330.742 240.536 331.25L242.027 336.023C244.978 335.101 247.002 333.206 248.042 330.852C249.055 328.558 249.062 325.999 248.36 323.75C247.658 321.501 246.195 319.398 244.054 318.082C241.858 316.733 239.111 316.314 236.146 317.219L237.604 322.001ZM193.038 335.768C207.406 329.931 222.25 325.342 237.405 322.053L236.345 317.167C220.908 320.517 205.79 325.19 191.156 331.136L193.038 335.768ZM191.14 336.517C191.794 336.263 192.439 336.012 193.039 335.768L191.156 331.136C190.597 331.363 189.988 331.601 189.326 331.858L191.14 336.517Z" fill="white" mask="url(#path-2-outside-1_1684:9619)"/>
</svg>
