<svg width="626" height="626" viewBox="0 0 626 626" fill="none" xmlns="http://www.w3.org/2000/svg">
<rect x="0.101074" y="0.607544" width="625.035" height="625.035" fill="#308D8A"/>
<path fill-rule="evenodd" clip-rule="evenodd" d="M491.549 353.239L491.555 353.204C499.12 349.055 506.958 339.514 512.31 332.997C513.758 331.235 515.024 329.694 516.053 328.541C525.896 315.815 533.026 301.208 537.006 285.621C561.367 199.358 501.661 134.809 414.356 145.848C351.14 157.026 306.305 199.593 261.438 242.191L261.437 242.191L261.437 242.191L261.437 242.191L261.437 242.191C247.149 255.757 232.857 269.326 217.967 281.885C211.896 279.115 203.533 277.952 196.71 277.004L196.71 277.004C193.537 276.562 190.697 276.168 188.575 275.679C155.512 272.947 117.886 281.424 94.6519 306.433C57.7023 347.945 58.5201 412.072 123.295 421.168C138.496 423.886 154.072 423.348 169.003 419.622C169.427 421.617 170.246 423.53 171.064 425.441C171.573 426.63 172.082 427.818 172.495 429.026C175.075 435.24 177.01 441.754 178.946 448.268C181.765 457.753 184.584 467.239 189.392 475.804C190.984 477.883 193.108 478.869 195.293 479.021C196.655 480.523 198.558 481.539 200.936 481.634C249.947 460.241 301.417 444.993 354.171 436.235C383.736 430.635 413.347 427.883 443.142 425.114H443.142C460.092 423.539 477.101 421.958 494.196 419.845C502.899 420.036 506.127 412.384 504.018 406.815C504.884 405.215 505.248 403.255 504.843 401.003C503.346 394.752 501.497 388.583 499.652 382.427L499.65 382.419L499.647 382.411L499.645 382.403L499.642 382.395L499.64 382.387L499.638 382.379C499.335 381.368 499.032 380.357 498.73 379.346C498.258 377.716 497.779 376.086 497.3 374.455C495.239 367.434 493.172 360.392 491.549 353.239ZM186.012 414.009C196.431 410.411 208.535 405.354 204.656 395.146C203.607 392.959 201.742 391.272 199.462 390.445C197.182 389.618 194.668 389.719 192.461 390.724C163.454 406.186 122.589 412.1 96.0037 389.091C78.1203 366.729 93.8636 332.878 111.775 315.191C135.828 294.672 169.518 290.431 200.068 296.186C195.182 299.856 190.212 303.386 185.14 306.743C175.114 313.446 184.943 328.259 194.997 322.12C223.082 304.456 246.946 281.479 270.825 258.486C285.857 244.012 300.896 229.533 316.998 216.368C353.44 185.502 400.782 156.888 450.32 164.211C475.019 169.28 501.577 180.461 513.264 204.286C532.922 240.363 524.586 288.409 499.774 320.007C494.779 326.482 488.985 332.298 482.531 337.318C480.094 336.592 477.288 336.344 474.638 336.111L474.637 336.111C473.626 336.022 472.638 335.935 471.702 335.824C479.779 322.294 483.938 300.97 483.499 291.901C484.456 280.185 466.882 278.467 465.643 290.127C465.344 297.241 464.335 304.307 462.63 311.221C460.657 318.289 457.265 324.882 452.66 330.597C451.12 331.18 449.766 332.169 448.741 333.458C448.422 333.859 448.139 334.284 447.893 334.728C441.004 334.608 434.114 334.642 427.229 334.831C432.488 322.907 435.396 308.818 434.098 302.885C433.351 295.531 431.849 288.274 429.619 281.228C425.93 270.019 409.118 275.398 412.441 286.663C418.322 302.803 416.646 322.375 405.425 335.945C392.043 336.948 378.701 338.536 365.437 340.707C348.98 344.104 332.776 348.631 316.94 354.253C314.69 355.003 312.819 356.595 311.716 358.695C310.614 360.795 310.366 363.24 311.026 365.518C311.759 367.783 313.345 369.673 315.448 370.787C317.552 371.902 320.006 372.153 322.291 371.489C325.777 370.435 329.248 369.346 332.718 368.258L332.718 368.258L332.72 368.257C341.304 365.565 349.877 362.876 358.621 360.73C375.116 356.849 391.117 355.163 407.823 354.157C408.967 354.322 410.098 354.247 411.212 353.962C415.223 353.742 419.279 353.555 423.395 353.38C440.07 352.008 456.724 352.939 473.304 354.03C473.473 358.298 474.988 363.132 476.363 367.519C477.172 370.098 477.932 372.523 478.341 374.587C479.766 379.317 481.063 384.09 482.359 388.861L482.36 388.864C483.569 393.315 484.778 397.763 486.089 402.173C471.208 403.911 456.277 405.376 441.339 406.841H441.338L441.333 406.842C403.39 410.565 365.407 414.292 328.12 422.492C300.732 428.034 273.717 435.286 247.236 444.205L247.162 444.229L247.162 444.229C232.076 449.056 216.834 453.932 202.982 461.645C200.854 455.863 198.968 449.971 197.082 444.079L197.082 444.079L197.082 444.078C193.813 433.868 190.545 423.656 186.012 414.009ZM232.205 407.478C224.122 410.625 212.259 415.245 217.92 425.364C223.262 432.333 230.438 428.552 237.415 424.876L237.416 424.876C240.702 423.144 243.944 421.436 246.929 420.886C255.128 417.628 263.495 414.808 271.994 412.437C277.407 411.013 282.851 409.676 288.281 408.343L288.295 408.339L288.306 408.337C290.381 407.827 292.455 407.318 294.524 406.805C305.704 403.313 300.409 386.246 289.144 389.682C270.471 393.734 252.183 399.387 234.481 406.58C233.775 406.867 233.011 407.164 232.209 407.476L232.206 407.478L232.205 407.478Z" fill="white"/>
</svg>
