<?xml version="1.0" encoding="utf-8"?>
<!-- Generator: Adobe Illustrator 25.4.1, SVG Export Plug-In . SVG Version: 6.00 Build 0)  -->
<svg version="1.1" id="Layer_1" xmlns="http://www.w3.org/2000/svg" xmlns:xlink="http://www.w3.org/1999/xlink" x="0px" y="0px"
	 viewBox="0 0 562.8 562.8" style="enable-background:new 0 0 562.8 562.8;" xml:space="preserve">
<style type="text/css">
	.st0{fill:#242731;}
</style>
<g id="Layer_2_00000042699985413917981600000002722634273222845846_">
	<g id="Layer_1-2">
		<path class="st0" d="M409.5,82.4C334.3,95.7,281,146.4,227.6,197c-17,16.1-34,32.3-51.7,47.2c-7.2-3.3-17.2-4.7-25.3-5.8
			c-3.8-0.5-7.1-1-9.7-1.6c-39.3-3.2-84.1,6.8-111.7,36.6c-43.9,49.4-43,125.6,34.1,136.4c18,3.2,36.6,2.6,54.4-1.8
			c0.6,2.4,1.4,4.7,2.4,6.9c0.6,1.4,1.2,2.8,1.7,4.3c3,7.5,5.5,15.2,7.7,22.9l0,0c3.4,11.3,6.7,22.6,12.4,32.7
			c1.7,2.2,4.2,3.7,7,3.8c1.7,1.9,4.1,3,6.7,3.1c58.3-25.4,119.5-43.6,182.2-54c35.2-6.7,70.4-9.9,105.8-13.2l0,0
			c20.1-1.9,40.4-3.8,60.7-6.3c10.4,0.2,14.2-8.9,11.7-15.5c1.1-2.1,1.5-4.6,1-6.9c-1.8-7.4-4-14.8-6.2-22.1l0,0l-1.1-3.7
			c-0.6-1.9-1.1-3.9-1.7-5.8c-2.5-8.4-4.9-16.7-6.8-25.2l0,0c9-4.9,18.3-16.3,24.7-24c1.7-2.1,3.2-3.9,4.5-5.3
			c11.7-15.1,20.2-32.5,24.9-51C584.3,146.1,513.3,69.3,409.5,82.4z M511,289.5c-5.9,7.7-12.8,14.6-20.5,20.6
			c-3.1-0.8-6.2-1.3-9.4-1.4l0,0c-1.2-0.1-2.4-0.2-3.5-0.3c9.6-16.1,14.5-41.4,14-52.2c1.1-13.9-19.8-16-21.2-2.1
			c-0.3,8.5-1.5,16.9-3.6,25.1c-2.4,8.4-6.4,16.2-11.9,23c-1.8,0.7-3.4,1.9-4.7,3.4c-0.4,0.5-0.7,1-1,1.5
			c-8.2-0.1-16.4-0.1-24.6,0.1c6.3-14.2,9.7-30.9,8.2-38c-0.9-8.7-2.7-17.4-5.3-25.8c-4.4-13.3-24.4-6.9-20.4,6.5
			c7,19.2,5,42.5-8.3,58.6c-15.9,1.2-31.8,3.1-47.5,5.7c-19.6,4-38.8,9.4-57.7,16.1c-5.7,1.8-8.8,7.8-7.1,13.4s7.8,8.8,13.4,7.1
			c4.1-1.2,8.3-2.5,12.4-3.8l0,0c10.2-3.2,20.4-6.4,30.8-9c19.6-4.6,38.6-6.6,58.5-7.8c1.3,0.2,2.7,0.1,4-0.2
			c4.8-0.3,9.6-0.5,14.5-0.7c19.8-1.6,39.6-0.5,59.3,0.8c0.2,5.1,2,10.8,3.6,16l0,0c0.9,2.8,1.7,5.6,2.4,8.4
			c1.7,5.6,3.2,11.3,4.8,17l0,0c1.4,5.3,2.9,10.6,4.4,15.8c-17.7,2.1-35.5,3.8-53.2,5.5l0,0c-45.1,4.4-90.3,8.9-134.6,18.6
			c-32.6,6.6-64.7,15.2-96.2,25.8h-0.1l0,0c-17.9,5.7-36.1,11.5-52.5,20.7c-2.5-6.9-4.8-13.9-7-20.9c-3.9-12.1-7.8-24.3-13.2-35.8
			c12.4-4.3,26.8-10.3,22.2-22.4c-2.6-5.4-9-7.8-14.5-5.3c-34.5,18.5-83.1,25.6-114.7-1.8c-21.3-26.6-2.5-66.8,18.8-87.9
			c28.6-24.4,68.7-29.4,105-22.6c-5.8,4.4-11.7,8.6-17.8,12.6c-11.9,8-0.2,25.6,11.7,18.3c33.4-21,61.8-48.3,90.2-75.7l0,0
			c17.9-17.2,35.8-34.4,54.9-50.1c43.3-36.7,99.6-70.7,158.5-62c29.4,6,61,19.3,74.8,47.6C550.5,194.8,540.5,252,511,289.5z"/>
		<path class="st0" d="M260.6,374.6c-22.2,4.8-44,11.5-65,20.1l-2.7,1.1c-9.6,3.7-23.7,9.2-17,21.3c6.4,8.3,14.9,3.8,23.2-0.6
			c3.9-2,7.8-4.1,11.3-4.7c9.8-3.9,19.7-7.2,29.8-10c6.4-1.7,12.9-3.3,19.4-4.9l0,0l7.4-1.8C280.3,390.8,274,370.5,260.6,374.6z"/>
	</g>
</g>
</svg>
