<svg width="21" height="21" viewBox="0 0 21 21" fill="none" xmlns="http://www.w3.org/2000/svg">
<path d="M10.5009 0.469972C4.70478 0.467628 0.0102539 5.15981 0.0102539 10.9512C0.0102539 15.5309 2.94697 19.4239 7.03682 20.8535C7.5876 20.9918 7.50322 20.6004 7.50322 20.3332V18.5168C4.32275 18.8895 4.19385 16.7848 3.98057 16.4332C3.54932 15.6973 2.52978 15.5098 2.83447 15.1582C3.55869 14.7856 4.29697 15.252 5.15244 16.5153C5.77119 17.4317 6.97822 17.277 7.58994 17.1246C7.72353 16.5739 8.00947 16.0817 8.40322 15.6996C5.10791 15.109 3.73447 13.0981 3.73447 10.7075C3.73447 9.54731 4.1165 8.4809 4.8665 7.62074C4.38838 6.20278 4.91104 4.98872 4.98135 4.80825C6.34307 4.68637 7.75869 5.78325 7.86885 5.86997C8.64228 5.66137 9.52588 5.55122 10.5149 5.55122C11.5087 5.55122 12.3946 5.66606 13.1751 5.877C13.4399 5.67543 14.7524 4.73325 16.0181 4.84809C16.086 5.02856 16.597 6.2145 16.147 7.61371C16.9063 8.47621 17.2931 9.55199 17.2931 10.7145C17.2931 13.1098 15.9103 15.1231 12.6056 15.7043C12.8886 15.9827 13.1134 16.3147 13.2667 16.6809C13.42 17.0471 13.4988 17.4401 13.4985 17.8371V20.4739C13.5173 20.6848 13.4985 20.8934 13.8501 20.8934C18.0009 19.4942 20.9892 15.5731 20.9892 10.9536C20.9892 5.15981 16.2923 0.469972 10.5009 0.469972Z" fill="#242731"/>
</svg>
