<svg width="31" height="31" viewBox="0 0 31 31" fill="none" xmlns="http://www.w3.org/2000/svg">
<path d="M2.37512 2.52783V28.7778H28.6251V2.52783H2.37512ZM24.1837 8.74463L22.7775 10.0923C22.6544 10.186 22.5958 10.3384 22.6193 10.4849V20.4048C22.5958 20.5571 22.6544 20.7095 22.7775 20.7974L24.1544 22.145V22.4438H17.2404V22.1567L18.6642 20.7739C18.8048 20.6333 18.8048 20.5923 18.8048 20.3813V12.3599L14.8439 22.4146H14.3107L9.69934 12.3599V19.0981C9.65833 19.3794 9.75793 19.6665 9.95715 19.8716L11.8087 22.1157V22.4146H6.547V22.1157L8.39856 19.8716C8.59778 19.6665 8.68567 19.3794 8.63879 19.0981V11.3052C8.66223 11.0884 8.5802 10.8774 8.41614 10.731L6.76965 8.74463V8.4458H11.8849L15.8341 17.1177L19.3087 8.45166H24.1837V8.74463Z" fill="white"/>
</svg>
