<svg width="24" height="24" viewBox="0 0 24 24" fill="none" xmlns="http://www.w3.org/2000/svg">
<path d="M21.7295 6.65039H20.2201L17.417 11.3941V6.65039H15.9795V16.7129H17.417V13.6223L18.0639 12.5441L20.2201 16.7129H21.7295L18.9264 11.2504L21.7295 6.65039Z" fill="#242731"/>
<path d="M11.667 16.7129H8.79199V6.65039H11.667C12.4288 6.65267 13.1587 6.9563 13.6974 7.49497C14.2361 8.03365 14.5397 8.76359 14.542 9.52539V13.8379C14.5397 14.5997 14.2361 15.3296 13.6974 15.8683C13.1587 16.407 12.4288 16.7106 11.667 16.7129ZM10.2295 15.2754H11.667C12.0479 15.2743 12.4129 15.1224 12.6822 14.8531C12.9515 14.5838 13.1034 14.2188 13.1045 13.8379V9.52539C13.1034 9.14449 12.9515 8.77952 12.6822 8.51018C12.4129 8.24084 12.0479 8.08903 11.667 8.08789H10.2295V15.2754Z" fill="#242731"/>
<path d="M5.91699 16.7129H1.60449V15.2754H5.91699V12.4004H3.04199C2.66109 12.3993 2.29612 12.2474 2.02678 11.9781C1.75745 11.7088 1.60563 11.3438 1.60449 10.9629V8.08789C1.60563 7.70699 1.75745 7.34202 2.02678 7.07268C2.29612 6.80334 2.66109 6.65153 3.04199 6.65039H7.35449V8.08789H3.04199V10.9629H5.91699C6.29789 10.964 6.66286 11.1158 6.9322 11.3852C7.20154 11.6545 7.35335 12.0195 7.35449 12.4004V15.2754C7.35335 15.6563 7.20154 16.0213 6.9322 16.2906C6.66286 16.5599 6.29789 16.7118 5.91699 16.7129Z" fill="#242731"/>
</svg>
