<svg width="30" height="31" viewBox="0 0 30 31" fill="none" xmlns="http://www.w3.org/2000/svg">
<path d="M26.9162 9.54496C26.9353 9.81145 26.9353 10.078 26.9353 10.3445C26.9353 18.4726 20.7488 27.8381 9.44162 27.8381C5.95811 27.8381 2.72209 26.8292 0 25.078C0.494941 25.1351 0.970781 25.1541 1.48477 25.1541C4.35908 25.1541 7.00506 24.1833 9.11801 22.5272C6.41496 22.4701 4.14973 20.6998 3.36926 18.2632C3.75 18.3203 4.13068 18.3584 4.53047 18.3584C5.08248 18.3584 5.63455 18.2822 6.14848 18.149C3.33123 17.5779 1.21822 15.1033 1.21822 12.1148V12.0387C2.03672 12.4955 2.98857 12.781 3.99738 12.8191C2.34129 11.715 1.25631 9.83049 1.25631 7.6985C1.25631 6.55639 1.56082 5.50943 2.09385 4.59572C5.12051 8.32668 9.67002 10.7632 14.7715 11.0297C14.6763 10.5729 14.6192 10.097 14.6192 9.62113C14.6192 6.23277 17.3603 3.47266 20.7677 3.47266C22.538 3.47266 24.1369 4.21504 25.2601 5.41428C26.6496 5.14779 27.9821 4.63381 29.1623 3.92951C28.7054 5.35721 27.7346 6.55645 26.4593 7.31781C27.6966 7.18463 28.8959 6.84191 29.9999 6.36607C29.1625 7.5843 28.1154 8.66928 26.9162 9.54496Z" fill="#F7FAFC"/>
</svg>
