<?xml version="1.0" encoding="UTF-8"?>
<svg width="142px" height="70px" viewBox="0 0 142 70" version="1.1" xmlns="http://www.w3.org/2000/svg" xmlns:xlink="http://www.w3.org/1999/xlink">
    <title>Fill 1</title>
    <g id="Design" stroke="none" stroke-width="1" fill="none" fill-rule="evenodd">
        <g id="Desktop-HD" transform="translate(-1076.000000, -6510.000000)" fill="#FFFFFF">
            <g id="Contact/footer" transform="translate(60.000000, 6342.000000)">
                <path d="M1107.83948,223.373959 C1106.44178,223.373959 1105.12348,223.747918 1104.02008,224.443786 L1104.02008,218.5213 L1100.97852,218.5213 L1100.97852,230.149263 L1100.97852,230.154068 L1100.97852,231.672325 L1100.97852,237.465887 L1104.02008,237.465887 L1104.02008,230.149263 C1104.02249,227.948751 1105.59178,226.412076 1107.83948,226.412076 C1110.08797,226.412076 1111.65807,227.950352 1111.65807,230.154068 L1111.65807,237.465887 L1114.70043,237.465887 L1114.70043,230.154068 C1114.70043,228.21861 1113.97553,226.466528 1112.66203,225.222133 C1111.40387,224.030589 1109.69184,223.373959 1107.83948,223.373959 L1107.83948,223.373959 Z M1124.46182,235.097213 C1122.02648,235.097213 1120.04582,233.119315 1120.04582,230.68738 C1120.04582,228.256246 1122.02648,226.277546 1124.46182,226.277546 C1126.89635,226.277546 1128.87702,228.256246 1128.87702,230.68738 C1128.87702,233.119315 1126.89635,235.097213 1124.46182,235.097213 L1124.46182,235.097213 Z M1128.87702,224.868994 L1128.73669,224.767297 C1127.48334,223.862428 1126.00465,223.383568 1124.46182,223.383568 C1120.42832,223.383568 1117.1478,226.660314 1117.1478,230.68738 C1117.1478,234.714446 1120.42832,237.991192 1124.46182,237.991192 C1126.00546,237.991192 1127.48334,237.512332 1128.73669,236.607463 L1128.87702,236.505766 L1128.87702,237.453075 L1131.77504,237.453075 L1131.77504,223.922486 L1128.87702,223.922486 L1128.87702,224.868994 Z M1135.91279,237.445067 L1138.83647,237.445067 L1138.83647,223.902466 L1135.91279,223.902466 L1135.91279,237.445067 Z M1149.98753,223.35394 C1148.58904,223.35394 1147.27234,223.727098 1146.16894,224.422966 L1146.16894,223.88565 L1143.12657,223.88565 L1143.12657,230.129244 L1143.12657,230.133248 L1143.12657,231.652306 L1143.12657,237.445067 L1146.16894,237.445067 L1146.16894,230.128443 C1146.17134,227.927931 1147.74064,226.391256 1149.98753,226.391256 C1152.23522,226.391256 1153.80532,227.929532 1153.80532,230.133248 L1153.80532,237.445067 L1156.84769,237.445067 L1156.84769,230.133248 C1156.84769,228.196989 1156.12438,226.445708 1154.80929,225.201313 C1153.55193,224.009769 1151.83909,223.35394 1149.98753,223.35394 L1149.98753,223.35394 Z M1137.37383,218.662236 C1136.44283,218.662236 1135.68826,219.41656 1135.68826,220.346252 C1135.68826,221.275945 1136.44283,222.029468 1137.37383,222.029468 C1138.30482,222.029468 1139.0602,221.275945 1139.0602,220.346252 C1139.0602,219.41656 1138.30482,218.662236 1137.37383,218.662236 L1137.37383,218.662236 Z M1092.38147,226.263933 C1093.74388,226.263933 1095.00204,226.873318 1095.84403,227.939942 L1098.47262,226.634689 C1097.11101,224.588725 1094.84086,223.370756 1092.38147,223.370756 C1088.34797,223.370756 1085.06745,226.646701 1085.06745,230.673767 C1085.06745,234.701634 1088.34797,237.977578 1092.38147,237.977578 C1094.84086,237.977578 1097.11101,236.758808 1098.47262,234.712844 L1095.84403,233.408392 C1095.00124,234.474215 1093.74388,235.0836 1092.38147,235.0836 C1089.94614,235.0836 1087.96547,233.105701 1087.96467,230.673767 C1087.96547,228.242633 1089.94614,226.263933 1092.38147,226.263933 L1092.38147,226.263933 Z M1084.96962,223.936099 L1081.20074,223.936099 L1076.86493,229.144299 L1075.1529,229.144299 L1075.1529,218.5213 L1072.25568,218.5213 L1072.25568,237.465887 L1075.1529,237.465887 L1075.1529,232.257687 L1076.86493,232.257687 L1081.20475,237.465887 L1084.97283,237.465887 L1079.33635,230.700993 L1084.96962,223.936099 Z M1024.47436,234.961883 C1022.1144,234.961883 1020.19388,233.044843 1020.19388,230.68738 C1020.19388,228.330717 1022.1144,226.412876 1024.47436,226.412876 C1026.83431,226.412876 1028.75484,228.330717 1028.75484,230.68738 C1028.75484,233.044843 1026.83431,234.961883 1024.47436,234.961883 L1024.47436,234.961883 Z M1024.47436,223.375561 C1022.87699,223.375561 1021.39831,223.890455 1020.19388,224.76009 L1020.19388,218.5213 L1017.15151,218.5213 L1017.15151,237.467489 L1020.19388,237.467489 L1020.19388,236.61467 C1021.39831,237.485106 1022.87699,238 1024.47436,238 C1028.51186,238 1031.7964,234.71925 1031.7964,230.68738 C1031.7964,226.655509 1028.51186,223.375561 1024.47436,223.375561 L1024.47436,223.375561 Z M1034.44183,237.465887 L1037.36551,237.465887 L1037.36551,218.5213 L1034.44183,218.5213 L1034.44183,237.465887 Z M1046.99058,234.961883 C1044.63062,234.961883 1042.7101,233.044843 1042.7101,230.68738 C1042.7101,228.330717 1044.63062,226.412876 1046.99058,226.412876 C1049.35134,226.412876 1051.27106,228.330717 1051.27106,230.68738 C1051.27106,233.044843 1049.35134,234.961883 1046.99058,234.961883 L1046.99058,234.961883 Z M1046.99058,223.375561 C1042.95307,223.375561 1039.66774,226.655509 1039.66774,230.68738 C1039.66774,234.71925 1042.95307,238 1046.99058,238 C1051.02809,238 1054.31262,234.71925 1054.31262,230.68738 C1054.31262,226.655509 1051.02809,223.375561 1046.99058,223.375561 L1046.99058,223.375561 Z M1063.56802,226.263933 C1064.93123,226.263933 1066.19019,226.873318 1067.03138,227.939942 L1069.66077,226.634689 C1068.29836,224.588725 1066.02821,223.370756 1063.56802,223.370756 C1059.53612,223.370756 1056.2548,226.646701 1056.2548,230.673767 C1056.2548,234.701634 1059.53612,237.977578 1063.56802,237.977578 C1066.02821,237.977578 1068.29836,236.758808 1069.66077,234.712844 L1067.03138,233.408392 C1066.18939,234.474215 1064.93123,235.0836 1063.56802,235.0836 C1061.13349,235.0836 1059.15282,233.105701 1059.15202,230.673767 C1059.15282,228.242633 1061.13349,226.263933 1063.56802,226.263933 L1063.56802,226.263933 Z M1039.17939,185.656951 C1035.42575,185.656951 1032.37216,188.707079 1032.37216,192.455477 C1032.37216,196.204676 1035.42575,199.254004 1039.17939,199.254004 C1042.93383,199.254004 1045.98662,196.204676 1045.98662,192.455477 C1045.98662,188.707079 1042.93383,185.656951 1039.17939,185.656951 L1039.17939,185.656951 Z M1135.15901,185.656951 C1132.37004,185.656951 1129.98362,187.379404 1129.07829,190.044363 L1129.01735,190.225336 L1141.30067,190.225336 L1141.23893,190.044363 C1140.3336,187.379404 1137.94798,185.656951 1135.15901,185.656951 L1135.15901,185.656951 Z M1109.87467,185.656951 C1107.0865,185.656951 1104.69928,187.379404 1103.79475,190.044363 L1103.73301,190.225336 L1116.01633,190.225336 L1115.95539,190.044363 C1115.05006,187.379404 1112.66444,185.656951 1109.87467,185.656951 L1109.87467,185.656951 Z M1146.09516,194.686419 L1129.06306,194.686419 L1129.13442,194.871397 C1130.13438,197.493113 1132.6916,199.254004 1135.49741,199.254004 C1137.35699,199.254004 1139.08185,198.528507 1140.36728,197.207239 L1144.37592,199.396541 C1142.22285,202.143177 1138.99605,203.715086 1135.49741,203.715086 C1129.28037,203.715086 1124.22286,198.664638 1124.22286,192.455477 C1124.22286,186.142217 1129.02617,181.196669 1135.15901,181.196669 C1141.29185,181.196669 1146.09516,186.142217 1146.09516,192.455477 L1146.09516,194.686419 Z M1120.81162,194.686419 L1103.77871,194.686419 L1103.84928,194.871397 C1104.85004,197.493113 1107.40886,199.254004 1110.21387,199.254004 C1112.07184,199.254004 1113.79751,198.528507 1115.08293,197.207239 L1119.09157,199.396541 C1116.9385,202.143177 1113.7117,203.715086 1110.21387,203.715086 C1103.99602,203.715086 1098.93771,198.664638 1098.93771,192.455477 C1098.93771,186.142217 1103.74263,181.196669 1109.87467,181.196669 C1116.00831,181.196669 1120.81162,186.142217 1120.81162,192.455477 L1120.81162,194.686419 Z M1092.14411,202.88549 L1085.45396,194.855381 L1082.81575,194.855381 L1082.81575,202.88549 L1078.34923,202.88549 L1078.34923,173.692665 L1082.81575,173.692665 L1082.81575,190.056374 L1085.45396,190.056374 L1092.1393,182.026265 L1097.94898,182.026265 L1089.26533,192.455477 L1097.9546,202.88549 L1092.14411,202.88549 Z M1065.54548,199.254004 C1067.64642,199.254004 1069.58619,198.314702 1070.88525,196.670724 L1074.93799,198.683056 C1072.83865,201.836483 1069.33841,203.715086 1065.54548,203.715086 C1059.32924,203.715086 1054.27093,198.664638 1054.27093,192.455477 C1054.27093,186.247117 1059.32924,181.196669 1065.54548,181.196669 C1069.33841,181.196669 1072.83865,183.075272 1074.93799,186.2287 L1070.88525,188.240231 C1069.58619,186.597053 1067.64723,185.656951 1065.54548,185.656951 C1061.79184,185.656951 1058.73905,188.707079 1058.73825,192.455477 C1058.73905,196.204676 1061.79184,199.254004 1065.54548,199.254004 L1065.54548,199.254004 Z M1050.45394,202.88549 L1045.98662,202.88549 L1045.98662,201.425689 L1045.77011,201.582639 C1043.83836,202.977578 1041.55939,203.715086 1039.17939,203.715086 C1032.96235,203.715086 1027.90403,198.664638 1027.90403,192.455477 C1027.90403,186.247117 1032.96235,181.196669 1039.17939,181.196669 C1041.55939,181.196669 1043.83836,181.934177 1045.77011,183.329116 L1045.98662,183.486067 L1045.98662,182.026265 L1050.45394,182.026265 L1050.45394,202.88549 Z M1016,212.137572 L1158,212.137572 L1158,168 L1016,168 L1016,212.137572 Z" id="Fill-1"></path>
            </g>
        </g>
    </g>
</svg>