<svg width="41" height="41" viewBox="0 0 41 41" fill="none" xmlns="http://www.w3.org/2000/svg">
<circle cx="20.4814" cy="20.1797" r="20" fill="#308D8A"/>
<path fill-rule="evenodd" clip-rule="evenodd" d="M30.6756 22.4653L30.6759 22.4631C31.1069 22.2267 31.5533 21.6832 31.8582 21.312L31.8582 21.312C31.9407 21.2116 32.0128 21.1238 32.0714 21.0581C32.6322 20.3331 33.0384 19.501 33.2651 18.613C34.653 13.6986 31.2515 10.0213 26.2778 10.6502C22.6764 11.287 20.1222 13.712 17.5661 16.1388L17.5661 16.1388C16.7521 16.9117 15.9378 17.6847 15.0895 18.4002C14.7437 18.2425 14.2674 18.1763 13.8788 18.1223C13.698 18.0971 13.5362 18.0747 13.4154 18.0468C11.5318 17.8912 9.38824 18.3741 8.06459 19.7988C5.95959 22.1638 6.00618 25.817 9.69636 26.3353C10.5623 26.4901 11.4497 26.4594 12.3002 26.2472C12.3245 26.3608 12.3711 26.4697 12.4176 26.5785C12.4466 26.6463 12.4756 26.714 12.4991 26.7827C12.6461 27.1368 12.7564 27.5079 12.8667 27.879L12.8667 27.879C13.0273 28.4193 13.1879 28.9597 13.4618 29.4477C13.5525 29.5661 13.6734 29.6223 13.7979 29.6309C13.8755 29.7165 13.9839 29.7744 14.1194 29.7798C16.9116 28.5611 19.8437 27.6924 22.8491 27.1935C24.5334 26.8744 26.2203 26.7177 27.9177 26.5599L27.9177 26.5599H27.9178H27.9178L27.9178 26.5599C28.8834 26.4702 29.8524 26.3802 30.8263 26.2597C31.322 26.2706 31.5059 25.8348 31.3859 25.5176C31.4352 25.4264 31.456 25.3147 31.4329 25.1864C31.3477 24.8302 31.2423 24.4788 31.1372 24.128L31.0847 23.9526C31.0578 23.8598 31.0305 23.7669 31.0032 23.674C30.8858 23.274 30.768 22.8728 30.6756 22.4653ZM13.2693 25.9274C13.8629 25.7224 14.5525 25.4343 14.3315 24.8528C14.2717 24.7282 14.1655 24.6321 14.0356 24.585C13.9057 24.5379 13.7625 24.5436 13.6368 24.6009C11.9842 25.4817 9.65618 25.8186 8.1416 24.5078C7.12279 23.2339 8.01968 21.3054 9.0401 20.2978C10.4103 19.1289 12.3294 18.8872 14.0697 19.215C13.7914 19.4241 13.5083 19.6251 13.2195 19.8163C12.6483 20.1981 13.2082 21.0421 13.781 20.6923C15.381 19.686 16.7405 18.377 18.1009 17.0671C18.9573 16.2426 19.814 15.4177 20.7313 14.6677C22.8075 12.9092 25.5045 11.2791 28.3267 11.6963C29.7337 11.9851 31.2467 12.6221 31.9126 13.9794C33.0325 16.0347 32.5575 18.7718 31.144 20.572C30.8595 20.9408 30.5293 21.2722 30.1616 21.5582C30.0228 21.517 29.8632 21.5029 29.7124 21.4896C29.6547 21.4845 29.5982 21.4796 29.5448 21.4732C30.005 20.7024 30.242 19.4874 30.217 18.9707C30.2715 18.3033 29.2703 18.2054 29.1997 18.8697C29.1827 19.2749 29.1253 19.6775 29.0281 20.0714C28.9157 20.4741 28.7225 20.8497 28.4601 21.1752C28.3724 21.2085 28.2953 21.2648 28.2368 21.3382C28.2186 21.3611 28.2025 21.3854 28.1884 21.4108C27.7959 21.404 27.4034 21.4059 27.0112 21.4167C27.3109 20.7373 27.4766 19.9344 27.4027 19.5964C27.3601 19.1775 27.2746 18.764 27.1475 18.3626C26.9373 17.724 25.9796 18.0305 26.1689 18.6722C26.504 19.5919 26.4084 20.7071 25.7688 21.4802C25.0067 21.5373 24.2467 21.6278 23.4913 21.7514C22.5537 21.945 21.6306 22.2028 20.7284 22.5231C20.6002 22.5659 20.4936 22.6566 20.4308 22.7762C20.368 22.8958 20.3539 23.0351 20.3915 23.1649C20.4332 23.2939 20.5236 23.4016 20.6434 23.4651C20.7632 23.5286 20.9031 23.5429 21.0333 23.505C21.2319 23.445 21.4297 23.383 21.6274 23.321C22.1164 23.1676 22.6048 23.0144 23.1029 22.8922C24.0432 22.6709 24.9552 22.5749 25.9074 22.5176C25.9715 22.5266 26.0348 22.5224 26.0972 22.5067C26.3263 22.4941 26.5579 22.4834 26.7931 22.4734C27.743 22.3953 28.6917 22.4483 29.6362 22.5104C29.6458 22.7535 29.7321 23.0289 29.8104 23.2788L29.8104 23.2788C29.8565 23.4258 29.8998 23.5639 29.9231 23.6815C30.0043 23.951 30.0782 24.223 30.1521 24.4948L30.1521 24.495L30.1522 24.4952C30.221 24.7486 30.2898 25.0019 30.3645 25.253C29.5166 25.352 28.6659 25.4355 27.8147 25.519L27.8147 25.519L27.8147 25.519L27.8147 25.519L27.8146 25.519L27.8146 25.519L27.8146 25.519L27.8146 25.519C25.653 25.7311 23.4892 25.9434 21.365 26.4106C19.8048 26.7263 18.2657 27.1394 16.7571 27.6476L16.7529 27.6489C15.8935 27.9239 15.0252 28.2017 14.236 28.6411C14.1147 28.3116 14.0073 27.976 13.8999 27.6403C13.7137 27.0587 13.5275 26.4769 13.2693 25.9274ZM15.9007 25.5552C15.4402 25.7345 14.7643 25.9977 15.0869 26.5742C15.3912 26.9712 15.8 26.7558 16.1975 26.5464C16.3847 26.4477 16.5694 26.3504 16.7395 26.3191C17.2066 26.1335 17.6832 25.9728 18.1674 25.8378C18.4758 25.7566 18.7859 25.6805 19.0953 25.6045C19.214 25.5754 19.3326 25.5463 19.451 25.5169C20.0879 25.3179 19.7863 24.3457 19.1445 24.5414C18.0807 24.7722 17.0388 25.0943 16.0303 25.504C15.99 25.5204 15.9464 25.5374 15.9007 25.5552Z" fill="white"/>
</svg>
