<svg xmlns="http://www.w3.org/2000/svg" width="43.23" height="34.56" viewBox="0 0 43.23 34.56">
  <g id="Layer_2" data-name="Layer 2">
    <g id="partners">
      <g id="mercurial">
        <g>
          <path d="M23.21,15.93c.26-6.08,10.13-9.48,14.58-12.49a35.44,35.44,0,0,0,4-2.49,1,1,0,0,1,1.47,1c-.07,1.94-1.38,3.64-2.72,4.94-3.28,3.6-8.11,4.86-12.15,7.3A11.16,11.16,0,0,0,25.5,16.4a.91.91,0,0,1-1,.23A.89.89,0,0,1,23.21,15.93Zm2.53-2.18c4.88-3.54,11.63-4.65,15.05-10C36,6.85,30.17,9.07,26.19,13.13,26,13.33,25.88,13.54,25.74,13.75Z" fill="#fff"/>
          <path d="M22.68,27.85c-1.27-.21-.7-1.74-.44-2.55C23.77,21.08,28.07,19,31.72,17c2-1.15,3.87-2.39,5.72-3.7.91-.38,1.84-1.91,2.84-1.14A1,1,0,0,1,40,13.7c-2.33,1.62-4.65,3.21-7.09,4.66-3.62,2.1-8.31,4-9.23,8.48A1,1,0,0,1,22.68,27.85Z" fill="#fff"/>
          <path d="M23.66,34.05a.9.9,0,0,1-.46-1.12c.43-1,1.67-.29,2.49-.6,2.11-.58,3.88-2.08,5.69-3.27,1.73-1.37,3.64-2.65,4.82-4.55a88.22,88.22,0,0,1-7.89,4.38c-1.06.54-1.83,1.34-2.95,1.51-2.65-.53-.94-4.64.16-6,1.18-1.68,3-2.4,4.59-3.46,3-2,6.61-3.19,8.66-6.18a4.1,4.1,0,0,0,.66-1.8.9.9,0,0,1,.48-1.07c1.24-.47,1.53,1.17,1.17,2-1.59,5-7.5,6.62-11.36,9.36a6.55,6.55,0,0,0-3.94,5h0c3.84-2.22,7.85-4.14,11.5-6.61,2.67-.64,1.08,3,.28,4C35.56,28.57,27.19,35.4,23.66,34.05Z" fill="#fff"/>
          <path d="M22.75,33.41c-.43-.93-2-3.41-.4-3.84a.91.91,0,0,1,1,.73,9.29,9.29,0,0,0,.86,2.15A.89.89,0,0,1,22.75,33.41Z" fill="#fff"/>
          <path d="M21.3,27.23c-2.35-4.41-6.71-7.16-10.86-9.65A36.83,36.83,0,0,1,4,13.51a1.09,1.09,0,0,1-.43-1.08s0,.07,0,.11a.13.13,0,0,1,0,.06.9.9,0,0,1,.86-.86c.67,0,1.17.87,1.68,1.14,3.22,2.32,7,3.8,10.09,6.27A19.62,19.62,0,0,1,23,26.58.9.9,0,0,1,21.3,27.23Z" fill="#fff"/>
          <path d="M18.63,30.14a.89.89,0,0,1-.37-1.2.73.73,0,0,0,.1-.36c-.81-4.18-5.13-6-8.46-7.85-2.66-2.09-6.28-4.38-6.6-8a.9.9,0,1,1,1.8.09c.29,2,2,3.38,3.43,4.58,3.53,3.32,9.1,4.37,11.09,9.21C20.23,27.62,20.63,30.7,18.63,30.14Z" fill="#fff"/>
          <path d="M18.34,30.52c-4.47-1.28-8.33-4-12.1-6.64A.9.9,0,0,1,5.53,23c.14-1.47,1.69-.86,2.39-.16,3,2.05,6.05,4.19,9.48,5.43.81.32,2.47.44,2.1,1.68A.9.9,0,0,1,18.34,30.52Z" fill="#fff"/>
          <path d="M17.69,33.94c-.27-.85.61-1.19,1.28-1.33a8.51,8.51,0,0,0,2.41-2.41.89.89,0,0,1,1.75.16C23.13,31.8,18.73,36.16,17.69,33.94Z" fill="#fff"/>
          <path d="M18.29,34.45a21.63,21.63,0,0,1-13-9.86v0h0c-.54-.69-.88-2,.34-2.11.71-.06.9.75,1.17,1.17A20.87,20.87,0,0,0,14.44,31a16,16,0,0,0,4.15,1.65A.9.9,0,0,1,18.29,34.45Z" fill="#fff"/>
          <path d="M19,17.37C14.35,13,7.55,12,3.21,7.22A12.41,12.41,0,0,1,.33,2.54a1,1,0,0,1,.12-.8C-.64,1,.46-.62,1.5.25,3.91,2.17,6.23,4.4,9,5.81c3.08,1.59,6.41,2.75,8.73,5.48,1.3,1.44,2.74,2.93,2.88,4.94A1,1,0,0,1,19,17.37Zm-4.21-5.06a24.83,24.83,0,0,1,2.88,1.75A17.85,17.85,0,0,0,9.47,8.13,28.26,28.26,0,0,1,2.73,3.57C5.22,8.3,10.44,10,14.83,12.31Z" fill="#fff"/>
        </g>
      </g>
    </g>
  </g>
</svg>
