<svg width="76" height="76" viewBox="0 0 76 76" fill="none" xmlns="http://www.w3.org/2000/svg">
<g clip-path="url(#clip0_3302_17564)">
<path d="M36.2859 52.7482H30.6118L17.7641 33.3348V52.7482H12.0901V24.4185H17.7641L30.6118 43.8724V24.4185H36.2859V52.7482Z" fill="white"/>
<path d="M40.3945 41.4407C40.3945 39.1711 40.8404 37.1581 41.732 35.4019C42.6507 33.6456 43.8935 32.2947 45.4607 31.349C47.0278 30.4033 48.7705 29.9305 50.6889 29.9305C52.1479 29.9305 53.5394 30.2547 54.8634 30.9032C56.1873 31.5246 57.2411 32.3622 58.0246 33.416V22.7568H63.7797V52.7483H58.0246V49.4249C57.3221 50.5327 56.3359 51.4243 55.066 52.0998C53.7961 52.7753 52.3236 53.113 50.6484 53.113C48.757 53.113 47.0278 52.6267 45.4607 51.654C43.8935 50.6813 42.6507 49.3168 41.732 47.5606C40.8404 45.7773 40.3945 43.7373 40.3945 41.4407V41.4407ZM58.0652 41.5217C58.0652 40.1438 57.795 38.9684 57.2546 37.9957C56.7142 36.996 55.9847 36.2395 55.066 35.7261C54.1474 35.1857 53.1612 34.9155 52.1074 34.9155C51.0537 34.9155 50.081 35.1722 49.1893 35.6856C48.2977 36.1989 47.5682 36.9555 47.0008 37.9552C46.4604 38.9279 46.1902 40.0897 46.1902 41.4407C46.1902 42.7916 46.4604 43.9805 47.0008 45.0072C47.5682 46.0069 48.2977 46.777 49.1893 47.3174C50.108 47.8578 51.0807 48.128 52.1074 48.128C53.1612 48.128 54.1474 47.8713 55.066 47.3579C55.9847 46.8175 56.7142 46.061 57.2546 45.0883C57.795 44.0886 58.0652 42.8997 58.0652 41.5217Z" fill="white"/>
<path d="M1.94751 1.94775H73.9224V73.9226H1.94751V1.94775Z" stroke="white" stroke-width="4.582"/>
</g>
<defs>
<clipPath id="clip0_3302_17564">
<rect width="75.87" height="75.87" fill="white"/>
</clipPath>
</defs>
</svg>
