<svg xmlns="http://www.w3.org/2000/svg" width="48.39" height="39.45" viewBox="0 0 48.39 39.45">
  <g id="Layer_2" data-name="Layer 2">
    <g id="partners">
      <g id="orca">
        <g>
          <path d="M13.14,29.85c-1.38-.49,0-2.4,0-3.41a14.91,14.91,0,0,0-.68-6.26A9.07,9.07,0,0,0,9.4,23.69c-.26.38,0,.81-.24,1.19a.8.8,0,0,1-1.11.18c-1.23-1.33.63-3.23,1.43-4.34,1-1.38,4-3.86,4.58-.93A14.43,14.43,0,0,1,14.22,29C14.13,29.5,13.72,30,13.14,29.85Z" fill="#fff"/>
          <path d="M.22,25.72a.83.83,0,0,1,.24-1.14c2.08-1.33,4.7-1,7-.85.6,0,1.42,0,1.54.76a.84.84,0,0,1-1.3.88,23.28,23.28,0,0,0-5,.06C1.87,25.54.91,26.65.22,25.72Z" fill="#fff"/>
          <path d="M10.83,33.15C7.36,32.83,4.41,30.43,2,28c-.69-.89-1.91-1.64-2-2.84.05-1,1.7-1.05,1.69,0A19.62,19.62,0,0,0,9,31c.83.59,2.63.07,2.77,1.28a.83.83,0,0,1-.95.84Z" fill="#fff"/>
          <path d="M20.48,33.07c-2.12-.43-7.14-1.14-7.76-3.5a.8.8,0,0,1,1.58-.26,15.22,15.22,0,0,0,6.86,2.15C26.07,31.14,28,26.32,27,22a.82.82,0,0,1,1.63-.17C30.09,27.25,26.47,33.53,20.48,33.07Z" fill="#fff"/>
          <path d="M26.86,21.55a22.66,22.66,0,0,1-5.24-3.84c-2-1.77-4.41-3.32-5.78-5.72-.76-1.77-2.08-3.21-2.73-5-.52-2.12-.56-4.35,2.06-4.81a14.89,14.89,0,0,1,4.11,0,.82.82,0,0,1-.05,1.64c-1.43,0-2.92-.28-4.27.27-.68.29-.31,1.13-.33,1.71.3,1.94,2,3.47,2.65,5.26,1.42,2.45,3.88,3.92,5.91,5.8a18.26,18.26,0,0,0,3,2.41,10.23,10.23,0,0,1,2.09,1.38C29,21.73,27.45,22.87,26.86,21.55Z" fill="#fff"/>
          <path d="M38.75,10.74c-2.94-5.5-7.64-9.49-14.14-9.09A17.38,17.38,0,0,0,19.5,3.18a.8.8,0,0,1-1.32-.77c.22-.71,1.07-.9,1.68-1.17A13.93,13.93,0,0,1,26.14.05c5.58,0,10.34,3.71,13.16,8.3.37.79,1.62,1.89.63,2.65A.87.87,0,0,1,38.75,10.74Z" fill="#fff"/>
          <path d="M47,20.94a13.18,13.18,0,0,0-3.8-.73.85.85,0,0,1-.87-.82c.12-1.69,3.2-.56,4.18-.32-1.13-3.41-3.9-6-6.65-8.1-1.48.09-1-2.39.39-1.73a25.15,25.15,0,0,1,6.5,6.51C47.38,17,50,21.28,47,20.94Z" fill="#fff"/>
          <path d="M33.42,37.14c-.4-.92.67-1.19,1.23-1.48,5.61-3,9.34-9.35,8.36-15.75,0-.39-.2-.89.07-1.23a.81.81,0,0,1,1.32,0c1.39,5.93-1,11.82-5.38,15.88C38.1,35.36,34.29,38.72,33.42,37.14Z" fill="#fff"/>
          <path d="M27.14,39.43a23,23,0,0,1-9.3-2.27,41.09,41.09,0,0,1-6.79-4.23c-.44-.59-.56-1.73.42-1.8a.86.86,0,0,1,.83.69,30,30,0,0,0,10,5.18,15.43,15.43,0,0,0,9.89-.16c1-.45,2-.86,3-1.27a.84.84,0,0,1,1.08.16c.8,1.29-1.23,1.7-2.06,2.11A14.42,14.42,0,0,1,27.14,39.43Z" fill="#fff"/>
          <path d="M37.87,29.67c-.83-.08-.75-1-.7-1.58a16.34,16.34,0,0,0-.73-5c-1.27-4.64-6.33-10.59-10.73-12.42a30.35,30.35,0,0,0-5.09-2,20,20,0,0,0-3.1,0c-.1,1.17,1.75,3.66-.06,4.07a.86.86,0,0,1-.84-1,12.76,12.76,0,0,1-.73-3.39C16,7.36,17.14,7,18.06,7.07c3.47-.49,6.49,1.37,9.57,2.63,5.72,3.72,10.46,9.67,11.15,16.63C38.73,27.31,39.32,29.64,37.87,29.67Z" fill="#fff"/>
          <path d="M23.26,38.38a.86.86,0,0,1,.81-1A22.26,22.26,0,0,0,26.88,37c4.28-1.38,10-4.55,10.46-9.45A.81.81,0,0,1,39,27.51c-.43,5.85-6.49,9.37-11.5,11.09C26.46,38.69,23.5,39.75,23.26,38.38Z" fill="#fff"/>
          <path d="M28.73,8.93C24.93,7.65,23.67,3.18,29,4a7.18,7.18,0,0,1,3.48,1.84,5.58,5.58,0,0,1,2,2.34.81.81,0,0,1-1,.91A8,8,0,0,1,28.73,8.93Zm3.38-1.25c-1.36-1.28-3.1-2.59-5.05-2A5.15,5.15,0,0,0,32.11,7.68Z" fill="#fff"/>
          <path d="M19.07,24.94a1.27,1.27,0,0,1-.15-1.15,8.4,8.4,0,0,1,3.76-4.88.8.8,0,0,1,1.58.11c0,.84-.77,1.29-1.31,1.68a6.56,6.56,0,0,0-2.24,2.85,15.53,15.53,0,0,1,6.65-.79c.58,0,1.28.26,1.21.95a.82.82,0,0,1-.79.74,12.23,12.23,0,0,0-4.93.25C21.66,24.85,20.11,25.88,19.07,24.94Z" fill="#fff"/>
          <path d="M10.9,32.65a.8.8,0,0,1-.11-1.59,4.7,4.7,0,0,0,2-.34.81.81,0,0,1,1.08-1.09c.46.26,1.06.49,1.08,1.11C14.79,32.21,12.11,32.73,10.9,32.65Z" fill="#fff"/>
        </g>
      </g>
    </g>
  </g>
</svg>
