<svg xmlns="http://www.w3.org/2000/svg" width="57.99" height="53.24" viewBox="0 0 57.99 53.24">
  <g id="Layer_2" data-name="Layer 2">
    <g id="partners">
      <g id="parrot">
        <g>
          <path d="M.42,37.65c-1.33-1.31.86-2,1.77-2.47a13.79,13.79,0,0,0,2.72-2.12c1.19-.79,3.64-5.28,5-4A1,1,0,0,1,10,30.36C7.42,33.1,5.11,36.25,1.5,37.65A.93.93,0,0,1,.42,37.65Z" fill="#fff"/>
          <path d="M19.4,40.67c-21-8.06-9.07-32.05,6.6-38.56A29,29,0,0,1,30.16.81c1.15-.17,3.42-1.32,3.75.43,0,1.28-1.6.94-2.42,1.27A29.31,29.31,0,0,0,24,5.2C16,10,6.81,21.58,11.18,31.22A14.9,14.9,0,0,0,19,38.38a7,7,0,0,0,3.64.8,1,1,0,0,1,1.41,1.13C23.29,41.77,20.69,41.06,19.4,40.67Z" fill="#fff"/>
          <path d="M50.8,13.16a17.91,17.91,0,0,0-8.95-9.77A20.61,20.61,0,0,0,33.13,2,.94.94,0,0,1,32.42.29a13.11,13.11,0,0,1,5.91.15,15.41,15.41,0,0,1,4,1A20.67,20.67,0,0,1,51,9c.4,1.11,2.57,3.84,1.11,4.61A1,1,0,0,1,50.8,13.16Z" fill="#fff"/>
          <path d="M49.05,52.16c0-3,0-6,.25-9A8,8,0,0,1,52,37.24c1.4-2,3-4.14,3.72-6.5a16.51,16.51,0,0,0-1.55-10.86c-1.31-2.94-2.19-6.16-4-8.79a.94.94,0,0,1,.08-1.83c2.47-.16,4.44,7.19,5.46,9.14a20.07,20.07,0,0,1,2.3,8.92c.42,4.28-2.13,8-4.53,11.25a7.81,7.81,0,0,0-2,3A88.71,88.71,0,0,0,51,52.3,1,1,0,1,1,49.05,52.16Z" fill="#fff"/>
          <path d="M47.63,13.92C45.79,13.08,45.76,9,48.11,9c.88-.73,2.89.13,3,1.27C52.87,12.5,49.92,15.2,47.63,13.92Z" fill="#fff"/>
          <path d="M27.08,14.33a2.49,2.49,0,0,1-1.4-3.05,3,3,0,0,1,3.43-3C32.79,9.56,31,16,27.08,14.33Z" fill="#fff"/>
          <path d="M40.22,32.63c-1.17-1-1.54-2.8-2.31-4.14C35.82,24.37,34.6,19.71,36,15.15c.55-1.76,3.34-5.65,5.42-4.84,1.16.21,1.72,1.36,2.28,2.27C47.17,17.69,46,24.93,43,30,42.29,30.93,41.81,33.24,40.22,32.63Z" fill="#fff"/>
        </g>
      </g>
    </g>
  </g>
</svg>
