<svg xmlns="http://www.w3.org/2000/svg" width="34.99" height="40.53" viewBox="0 0 34.99 40.53">
  <g id="Layer_2" data-name="Layer 2">
    <g id="partners">
      <g id="port">
        <g>
          <path d="M.53,39.75C-.55,39.22.34,37.88.48,37c.93-2.77,1.9-5.58,2.91-8.3a68,68,0,0,1,2.32-6.56.84.84,0,0,1,1.4-.63c.47.43.26,1.12,0,1.62-1.33,3.12-2.24,6.39-3.41,9.57-.67,2-1.45,3.92-2,5.94C1.69,39.31,1.25,40,.53,39.75Z" fill="#fff"/>
          <path d="M7,22.8A.83.83,0,0,1,6.14,22a.82.82,0,0,1,.79-.85C9.73,21,12.54,21,15.35,21c.7,0,1.85,0,1.77,1s-.95.78-1.57.68q-4.29-.06-8.58.1Z" fill="#fff"/>
          <path d="M15.92,25.55c-.69-.17-.71-.88-.51-1.43.13-.85.25-1.72.41-2.55.36-1,1.82-.46,1.59.53S17.45,25.73,15.92,25.55Z" fill="#fff"/>
          <path d="M18.32,14c-1.3-.25-.5-1.9-.45-2.75.08-.63,0-1.52.87-1.55,1.42.1.67,1.91.59,2.78C19.26,13.09,19.2,14.05,18.32,14Z" fill="#fff"/>
          <path d="M15.65,25.71c-.51-.94.64-1.41,1.23-1.87,1.23-.8,2.35-1.67,3.5-2.57,1.67-1.14,3.24-2.41,4.81-3.68.76-.65,1.84.47,1.14,1.19-2.36,2-4.94,3.81-7.41,5.69-.7.51-1.46.93-2.13,1.49A.84.84,0,0,1,15.65,25.71Z" fill="#fff"/>
          <path d="M25.34,18.18C23.84,16,21.71,14.3,20,12.41h0a15.8,15.8,0,0,1-1.72-1.84.82.82,0,0,1,1.38-.9c1.57,1.69,3.13,3.22,4.73,4.86.65.91,3.57,2.94,2,4A.84.84,0,0,1,25.34,18.18Z" fill="#fff"/>
          <path d="M16.54,14.11c-2.54,0-5.1,0-7.65,0A.87.87,0,0,1,8,13.69c-.41-1.1.84-1.3,1.64-1.21,2.29,0,4.57,0,6.86,0,.84.17,2.41-.28,2.55.92C19,14.68,17.39,14.08,16.54,14.11Z" fill="#fff"/>
          <path d="M8.2,16.62c-1.29-.26-.51-2-.59-2.86,0-.47-.06-1,.45-1.25,1.64-.46,1.17,1.77,1.1,2.71C9.18,15.84,9,16.7,8.2,16.62Z" fill="#fff"/>
          <path d="M10.45,3.73C9.18,3.49,9.92,1.9,9.84,1a.86.86,0,0,1,.81-1c1,0,.89,1.21.8,1.93S11.43,3.81,10.45,3.73Z" fill="#fff"/>
          <path d="M.74,8.9A.84.84,0,0,1,1,7.76c.6-.54,1.17-1.11,1.79-1.63C5.09,4.27,7.27,2.28,9.54.37c.52-.57,1.66-.52,1.71.4a.83.83,0,0,1-.59.82c-.5.4-1,.83-1.47,1.24C7,4.88,4.53,6.7,2.33,8.78,1.94,9.26,1.15,9.53.74,8.9Z" fill="#fff"/>
          <path d="M7.35,16.32C5.42,14,3.12,11.91,1.2,9.62A1,1,0,0,1,.75,8.5a.93.93,0,0,1,1.65,0c2,2.39,4.21,4.34,6.16,6.7A.84.84,0,0,1,7.35,16.32Z" fill="#fff"/>
          <path d="M25.87,5.19c-2.51-1-5-1-7.65-1.22a47.43,47.43,0,0,0-7-.08.82.82,0,0,1-.29-1.61c1.82-.31,17.06-.19,16,2.43A.83.83,0,0,1,25.87,5.19Z" fill="#fff"/>
          <path d="M6.35,40.53c-1.93-.22-4.07,0-5.9-.54l.13.07a.82.82,0,0,1,.52-1.55,67.13,67.13,0,0,0,8.39.36c.56-.06,1.27,0,1.38.67a.83.83,0,0,1-.67,1c-1.28,0-2.57,0-3.85,0Z" fill="#fff"/>
          <path d="M10.63,40.38a.89.89,0,0,1-.55-1.26,34,34,0,0,1,1.27-3.68c.39-.86.65-1.79,1.05-2.64a.84.84,0,0,1,1.48.74c-.63,1.64-1.36,3.25-1.88,4.94C11.74,39.19,11.7,40.58,10.63,40.38Z" fill="#fff"/>
          <path d="M17.93,33.91c-1.42-.06-2.81-.14-4.23-.23a.83.83,0,0,1-.79-.79A.82.82,0,0,1,13.7,32c3.62.26,7.25.46,10.71-.7.92-.18,2-1.63,2.82-.61,1.14,2.35-7.83,3.39-9.31,3.18Z" fill="#fff"/>
          <path d="M26,31.76c-.62-1.33,1.46-1.58,2.13-2.31a33.44,33.44,0,0,0,3.11-3.92,19.58,19.58,0,0,0,2-5.46,24.1,24.1,0,0,0-.1-4.25A16,16,0,0,0,25.63,5.19v0a.82.82,0,0,1,0-1.63c2.67.64,4.64,3.34,6.33,5.34,4.36,5.62,3.89,13.91-.61,19.29a10.19,10.19,0,0,1-3.19,3.21C27.51,31.74,26.61,32.63,26,31.76Z" fill="#fff"/>
        </g>
      </g>
    </g>
  </g>
</svg>
