<svg xmlns="http://www.w3.org/2000/svg" width="46.44" height="53.92" viewBox="0 0 46.44 53.92">
  <g id="Layer_2" data-name="Layer 2">
    <g id="partners">
      <g id="raydium">
        <g>
          <path d="M13,20.13a26.67,26.67,0,0,1-.33-4.45.73.73,0,0,1,1.4.12,25.32,25.32,0,0,0,.2,3.25c.08.6.35,1.58-.51,1.7A.7.7,0,0,1,13,20.13Z" fill="#fff"/>
          <path d="M13.52,27a.76.76,0,0,1,.66-.82c1.16-.1,2.33-.11,3.5-.13,1.43-.07,2.71-.09,4.12,0,1.6-.06,4.67.75,5-1.45.08-1.05.17-2.21-1-2.66-2.42-1-5-.82-7.56-1.06-1-.19-5.09.42-4.85-1,.1-.57.71-.64,1.17-.5a84.19,84.19,0,0,1,9.81.7c1.39.23,3,.76,3.65,2.15.61,2,.21,4.75-2.19,5.17a12.14,12.14,0,0,1-3.76.14c-2.07-.11-4.1.06-6.16.07C15.13,27.46,13.74,28.1,13.52,27Z" fill="#fff"/>
          <path d="M17.8,31.69c0-1.29,2.13-.71,2.95-.85A27.36,27.36,0,0,0,27.2,30a7.11,7.11,0,0,0,3.92-2.49c1.56-2.3,2.39-5.61.48-7.91-2.4-3.1-6.73-3.32-10.32-3.35a31.94,31.94,0,0,0-4.69,0c-.91-.09-4,.85-3.7-.74.2-.58.8-.47,1.27-.49a55.21,55.21,0,0,1,11.71.16c4.7.4,9.48,4.47,8,9.5-.64,2.49-2,4.92-4.44,6a24.67,24.67,0,0,1-10,1.65C18.84,32.33,17.91,32.51,17.8,31.69Z" fill="#fff"/>
          <path d="M13.28,39.59c-.27-.35-.16-.78-.16-1.18q.11-3.06.18-6.12c0-1.54,0-3.08.15-4.62,0-.37,0-.82.41-1a.72.72,0,0,1,1,.86c-.19,3.7-.21,7.42-.33,11.13a10.91,10.91,0,0,0,2.9.24,34.27,34.27,0,0,0,.09-4.18c.1-.93-.45-3.86,1-3.77.78.15.54,1,.46,1.58-.11,2.12.13,4.26-.09,6.38-.15,1.5-.86,1.42-2.1,1.46a11.91,11.91,0,0,1-2.06-.22A2.11,2.11,0,0,1,13.28,39.59Z" fill="#fff"/>
          <path d="M25.1,33.34c0-.56.58-.73,1-.8a11.23,11.23,0,0,0,2.41-.75.81.81,0,0,1,1.17.55.76.76,0,0,1-.8.79,11.43,11.43,0,0,1-2.67.81A.69.69,0,0,1,25.1,33.34Z" fill="#fff"/>
          <path d="M32.12,38.49a59.64,59.64,0,0,0-3.07-5.38c-.69-.62-.19-1.78.73-1.3h0c1.51,1.77,2.43,4,3.59,6A.71.71,0,0,1,32.12,38.49Z" fill="#fff"/>
          <path d="M27.64,38.62a.7.7,0,0,1,.79-.56,33.73,33.73,0,0,0,4.14-.4.7.7,0,0,1,.15,1.39C31.73,39,27.44,40.26,27.64,38.62Z" fill="#fff"/>
          <path d="M27.94,39a50.37,50.37,0,0,1-3-4.67c-1.22-.76.34-2,1.11-.87,1,1.6,1.88,3.25,3,4.73A.7.7,0,0,1,27.94,39Z" fill="#fff"/>
          <path d="M41.31,18.51c-4.36-1.16-1.75-7.61,2.12-6.19,1.26.31,3,1.18,2.71,2.71A3.47,3.47,0,0,1,41.31,18.51Zm1.14-1.28a1.89,1.89,0,0,0,2.18-2c-.17-.32-.49-.64-.31-1a4.53,4.53,0,0,0-1.58-.6,1.29,1.29,0,0,0-1.1.09C40,15.12,40.09,16.92,42.45,17.23Z" fill="#fff"/>
          <path d="M42.2,20.44c-.15-.82.89-1,1.5-1.15s1.36-.57,1.66.18c.31,1.09-1.22,1.08-1.91,1.3C43,21.05,42.35,21,42.2,20.44Z" fill="#fff"/>
          <path d="M41.54,38.2c0-3.84-.07-7.67-.12-11.52a38.12,38.12,0,0,1,.28-6.32.7.7,0,0,1,.78-.52.72.72,0,0,1,.55.92c-.6,5.28.06,10.62-.15,15.91-.06.74.44,2.17-.67,2.25A.7.7,0,0,1,41.54,38.2Z" fill="#fff"/>
          <path d="M45,40.61c.29-4-.12-8-.12-11.95a77.4,77.4,0,0,0,0-8.06c-.07-.62,0-1.71.84-1.6a.74.74,0,0,1,.53,1c.3,4.22-.19,8.47.11,12.68.05,2.11.08,4.23.11,6.34-.07.79.26,2.45-.93,2.41A.69.69,0,0,1,45,40.61Z" fill="#fff"/>
          <path d="M23.28,53.55a.7.7,0,0,1,.28-.94c1-.57,2.1-1.11,3.16-1.63a57.34,57.34,0,0,0,6.59-3.9l8.27-4.8A25.13,25.13,0,0,1,45,40.39a.71.71,0,0,1,.65-.25c1,.28.55,1.45-.27,1.61-4.48,2.47-8.82,5-13.15,7.68a57.08,57.08,0,0,1-7,3.86C24.64,53.56,23.78,54.35,23.28,53.55Z" fill="#fff"/>
          <path d="M22.44,49.94a.7.7,0,0,1,.28-.93,23.29,23.29,0,0,0,2.47-1.61c5.14-3.18,10.17-6.56,15.62-9.21.65-.2,1.36-1.13,2-.4.57,1-.91,1.38-1.55,1.74a125,125,0,0,0-13.79,8.18,24.52,24.52,0,0,0-2.95,1.86C23.9,49.9,23,50.77,22.44,49.94Z" fill="#fff"/>
          <path d="M37.94,13.4a.72.72,0,0,1,.16-1,17.13,17.13,0,0,0,1.32-1.38,2.57,2.57,0,0,1,.54-.5.7.7,0,0,1,1,.84,17.16,17.16,0,0,1-1.19,1.39C39.32,13.25,38.54,14.13,37.94,13.4Z" fill="#fff"/>
          <path d="M39.74,10.92c-3.65-3-8-4.95-12.2-7-1.69-.8-3.23-2-5.05-2.47A.7.7,0,0,1,23,.1c1.58.31,2.87,1.4,4.32,2.05,1.59.92,3.24,1.67,4.91,2.43,2.15,1.09,4.2,2.4,6.26,3.65.67.56,3,1.58,2.26,2.6A.69.69,0,0,1,39.74,10.92Z" fill="#fff"/>
          <path d="M37.35,13.38a90.05,90.05,0,0,0-10.3-5.73C25.31,7,23.76,5.7,22,5.28a.7.7,0,1,1,.29-1.36c2,.43,3.65,1.82,5.54,2.56a88.25,88.25,0,0,1,10.29,5.73A.69.69,0,0,1,37.35,13.38Z" fill="#fff"/>
          <path d="M.53,13.23c-.44-1,1.21-1.34,1.72-1.83C4.07,10.27,5.9,9.14,7.78,8.1c3.34-2,7-3.73,10.37-5.63C19.48,1.73,20.73.89,22,.13a.84.84,0,0,1,.67-.1.7.7,0,0,1,.5.78c-.11.57-.81.61-1.2.94a51.66,51.66,0,0,1-5.82,3.3c-3.5,1.89-7,3.74-10.41,5.82-1,.58-1.94,1.17-2.87,1.76C2.21,13,1.2,14.17.53,13.23Z" fill="#fff"/>
          <path d="M3.29,15.88c-.52-.81.57-1.22,1.1-1.61,1.42-.85,2.84-1.7,4.3-2.47,4.43-2.35,8.6-5.24,13.1-7.42a.7.7,0,0,1,.29,1.36C19.54,7.08,17,8.55,14.56,10c-3.06,2-6.38,3.55-9.45,5.45C4.58,15.8,3.84,16.58,3.29,15.88Z" fill="#fff"/>
          <path d="M.13,39.5C0,34.59,0,29.75.15,24.85,0,21.65.16,18.43,0,15.24c.06-.76-.2-1.62.13-2.31a.71.71,0,0,1,1-.09c.34.28.27.78.26,1.17.13,6.35.09,12.68,0,19,0,2.14.12,4.12.1,6.2a.8.8,0,0,1-.15.63A.7.7,0,0,1,.13,39.5Z" fill="#fff"/>
          <path d="M4.09,38.77a88.58,88.58,0,0,1-.45-10c-.16-4.46-.18-8.9-.42-13.35a.69.69,0,0,1,.8-1c.7.22.6,1.15.62,1.63.22,4.29.25,8.64.38,12.89a90.53,90.53,0,0,0,.46,9.9A.7.7,0,0,1,4.09,38.77Z" fill="#fff"/>
          <path d="M23,49.75c-5.82-4-12.53-6.54-18.38-10.49-.52-.6.32-1.49.93-1,3.8,2.28,7.61,4.42,11.58,6.37a56.09,56.09,0,0,1,6.6,3.94.69.69,0,0,1,.22,1A.7.7,0,0,1,23,49.75Z" fill="#fff"/>
          <path d="M23.3,53.88c-7.92-3.75-15-9.13-23-12.9A.69.69,0,0,1,1,39.78c5.85,2.74,11.13,6.41,16.75,9.49a44.69,44.69,0,0,0,6.06,3.32A.69.69,0,0,1,23.3,53.88Z" fill="#fff"/>
        </g>
      </g>
    </g>
  </g>
</svg>
