<svg xmlns="http://www.w3.org/2000/svg" width="31.48" height="32.34" viewBox="0 0 31.48 32.34">
  <g id="Layer_2" data-name="Layer 2">
    <g id="partners">
      <g id="saber">
        <g>
          <path d="M16,13.43c-4.46-.1-8.92,0-13.38,0a.94.94,0,0,1-.06-1.88c5.23-.1,10.49-.09,15.72.06a28.54,28.54,0,0,1-5-3.32c-1-.71-.27-2,.86-1.89,5.11-.26,10.2.08,15.31.07a1,1,0,0,1,1,.92c-.17,1.64-2.44.78-3.56,1-3.51-.13-7-.22-10.54-.13,1.46,1,3.35,1.77,4.61,3,.75.46,1.51,1.4.55,2.09C19.69,13.76,17.75,13.38,16,13.43Z" fill="#fff"/>
          <path d="M30,8.47a1,1,0,0,1-.85-1c.13-1.88.1-3.79.41-5.65v0a.94.94,0,0,1,1.88,0c-.3,1.91-.23,3.86-.4,5.78A1,1,0,0,1,30,8.47Z" fill="#fff"/>
          <path d="M.31,12.31c0-3.2-.57-9.58,2.75-11.21C6-.18,9.37.16,12.51,0c4.08,0,8.22.07,12.28.41,1.57.05,3.15,0,4.73.08.78-.09,1.64.61,1.21,1.44a1,1,0,0,1-1.08.47c-3-.08-5.91-.1-8.86-.37C17.19,1.88,13.63,1.83,10,2c-2.17.15-4.6-.09-6.5,1a3.42,3.42,0,0,0-1,2.12,31.51,31.51,0,0,0-.35,7A1,1,0,0,1,.31,12.31Z" fill="#fff"/>
          <path d="M28.79,19.86c-1.46-.66-3.36-.31-5-.45-4.31-.11-8.63,0-12.93-.06a.94.94,0,0,1,0-1.87c.72-.05,1.45,0,2.17,0,4,0,8,0,12,.08,1.63.16,3.71-.27,5,.93A1,1,0,0,1,28.79,19.86Z" fill="#fff"/>
          <path d="M29.33,28.34a1,1,0,0,1-.78-1.45,22.36,22.36,0,0,0-.26-7A1,1,0,1,1,29,18c2.1.84,1.52,5.38,1.61,7.29C30.46,26.34,30.8,28.34,29.33,28.34Z" fill="#fff"/>
          <path d="M18.05,24.25c-2.33-1.78-4.86-3.13-7.24-4.82h0c-1.7-.08-.93-2.65.55-1.9,2.62,1.8,5.36,3.31,7.88,5.24A1,1,0,0,1,18.05,24.25Z" fill="#fff"/>
          <path d="M11.69,24.85a69.39,69.39,0,0,0-7.63-.07c-1-.11-2.94.65-3.14-.84a1,1,0,0,1,.92-1c2.61-.13,5.22-.22,7.83-.09,3.22.31,6.49-.14,9.67.22A.94.94,0,0,1,19,24.87C16.55,24.8,14.12,25,11.69,24.85Z" fill="#fff"/>
          <path d="M.56,32.18a1.11,1.11,0,0,1-.56-1,38.49,38.49,0,0,1,.32-5.68c.25-.76-.27-1.84.72-2.17C2.66,23,2.35,25,2.16,26a35.75,35.75,0,0,0-.25,4.36c7.79-.47,15.68.21,23.46-.12a4.45,4.45,0,0,0,3.07-1.66c.26-.65.65-1.54,1.53-1.21,1,.43.5,1.63.05,2.32-2.83,3.63-8,2.44-12.07,2.47C12.17,32,6.29,32.35.56,32.18Z" fill="#fff"/>
        </g>
      </g>
    </g>
  </g>
</svg>
