<svg xmlns="http://www.w3.org/2000/svg" width="41.26" height="47.75" viewBox="0 0 41.26 47.75">
  <g id="Layer_2" data-name="Layer 2">
    <g id="partners">
      <g id="serum">
        <g>
          <path d="M19.73,6.72A.84.84,0,0,1,21,7.85a60.13,60.13,0,0,0-4.21,5.2c-1.61,2.21-3.15,4.48-4.73,6.71a1.65,1.65,0,0,0-.33-.24,1.48,1.48,0,0,0-1.72.25A121.07,121.07,0,0,1,19.73,6.72Z" fill="#fff"/>
          <path d="M23.81,12.31c-1.2-1.56-2.55-3-3.69-4.58A.88.88,0,0,1,21,6.31a.85.85,0,0,1,.61.58c2.7,3.41,5.58,6.69,8.3,10.09.36.45.72.92,1.08,1.39a1.93,1.93,0,0,0-1.19.43,2.1,2.1,0,0,0-.37.36C27.58,16.83,25.68,14.59,23.81,12.31Z" fill="#fff"/>
          <path d="M34.52,19.82C31,14.27,26.46,9.43,22.64,4.16a.84.84,0,1,1,1.62-.42c4,5,8.27,9.88,11.72,15.27A.84.84,0,0,1,34.52,19.82Z" fill="#fff"/>
          <path d="M37.8,18.83A127.35,127.35,0,0,0,26.05,1.91c-1-1,.64-2.34,1.3-1A116,116,0,0,1,39.3,18.13.84.84,0,0,1,37.8,18.83Z" fill="#fff"/>
          <path d="M5.31,21.28c-1.24-.72.7-2.77,1.07-3.68,1.86-2.89,3.73-5.76,5.8-8.49C13.44,7.27,14.73,5.68,16.06,4c.27-.35.6-.82,1.09-.82A.83.83,0,0,1,18,4c.05.36-.34.68-.51.91A141.31,141.31,0,0,0,9,16.64c-.58.85-1.14,1.68-1.6,2.48C6.8,19.85,6.61,21.79,5.31,21.28Z" fill="#fff"/>
          <path d="M1.46,21.89c-1-.3-.51-1.43-.21-2.12a70.42,70.42,0,0,1,3.12-6.64,63.2,63.2,0,0,1,6.87-10C12.16,2.13,13,.46,14.31,0a.84.84,0,0,1,.59,1.44A61.75,61.75,0,0,0,3.68,18.26h0c-.44,1-.87,2.08-1.26,3.14A.84.84,0,0,1,1.46,21.89Z" fill="#fff"/>
          <path d="M18.27,39.33A13.18,13.18,0,0,1,7.44,27.42a1.76,1.76,0,0,0,.81.29h.17a1.77,1.77,0,0,0,.76-.18,11.69,11.69,0,0,0,4.23,7.83,11.14,11.14,0,0,0,6.22,2.32.83.83,0,0,1,.17,1.65,4.4,4.4,0,0,1-.73.06A5.52,5.52,0,0,1,18.27,39.33Z" fill="#fff"/>
          <path d="M19.89,39.25h0c-.52,0-1,0-1.54,0a.82.82,0,0,1,0-1.63,13.71,13.71,0,0,1,1.57,0C26,37.91,30.58,33,31.59,27.37c.2-.57,0-1.45.17-2.07a2.25,2.25,0,0,0,1.17.53,1.62,1.62,0,0,0,.31,0h.28a16.78,16.78,0,0,1-.32,2.58c-1.36,5.88-6.31,10.85-12.49,10.85Z" fill="#fff"/>
          <path d="M32.33,28a.85.85,0,0,1-.44-1.49,3.58,3.58,0,0,0,.05-1.08,2.12,2.12,0,0,0,1,.4,1.62,1.62,0,0,0,.31,0,2.56,2.56,0,0,0,.39,0,3.16,3.16,0,0,1-.53,1.79.5.5,0,0,0,.09-.21.82.82,0,0,1-.78.61Z" fill="#fff"/>
          <path d="M33.1,27.61,33,27.7Z" fill="#fff"/>
          <path d="M14.09,42.32C9.22,40.05,5.87,35.2,4.27,30.2c-.52-3.34-.7-7.12.81-10.2.6-1.52,2.34-.13,1.33,1.05-1,2.51-.77,5.38-.56,8,.77,3.47,2.86,6.42,5.12,9a20.23,20.23,0,0,0,4,2.79.84.84,0,0,1-.88,1.43Z" fill="#fff"/>
          <path d="M20.19,43.19c-2.06-.19-6.49.11-7.36-2.09a.89.89,0,0,1,1.61-.48c4.1,1.66,8.88.79,12.8-1a.86.86,0,0,1,1.12.4C29.23,41.87,21.5,43.2,20.19,43.19Z" fill="#fff"/>
          <path d="M25.78,41.29c-.62-1.13,1.06-1.51,1.82-2a12.46,12.46,0,0,0,5.89-5.62,22.87,22.87,0,0,0,1.86-9.38,2,2,0,0,0,0-1.16,3.82,3.82,0,0,0-.13-.36,18,18,0,0,0-.52-2.63,2.41,2.41,0,0,1-.55-1.27.83.83,0,0,1,1.6-.2c1.08,1.3.92,3,1.18,4.52.47,5.58-1.11,12.46-5.85,15.9a24.69,24.69,0,0,1-4.28,2.5.8.8,0,0,1-.34.07A.85.85,0,0,1,25.78,41.29Z" fill="#fff"/>
          <path d="M23.61,46.83a.85.85,0,0,1,.4-1.11c1.12-.43,2.15-1,3.24-1.48,2.51-.9,4.51-2.87,6.5-4.56,5.93-5.82,7-12.47,4.42-20.19a.82.82,0,0,1,.54-1.4,1.17,1.17,0,0,1,1.06.95A44.57,44.57,0,0,1,41,23.62c1.6,8.29-3.06,15.65-9.66,20.29a21.39,21.39,0,0,1-4.62,2.47C25.76,46.7,24.33,48,23.61,46.83Z" fill="#fff"/>
          <path d="M5,40.85A20.46,20.46,0,0,1,.15,25.14c.47-1.53.08-3.19,1-4.55v0h0a.82.82,0,0,1,1.63,0c.06.49-.3.88-.43,1.3a5.94,5.94,0,0,0-.18,1.83c-.08,1-.45,2-.44,3A18,18,0,0,0,3.05,34a15.92,15.92,0,0,0,2.3,4.54c.34.46.72.89,1,1.37A.84.84,0,0,1,5,40.85Z" fill="#fff"/>
          <path d="M18.6,47.52a24.47,24.47,0,0,1-13-6c-.56-.75-2.27-1.72-1.32-2.72a.85.85,0,0,1,1.18.1A19.08,19.08,0,0,0,7.61,41a21.82,21.82,0,0,0,9.51,4.51,14.23,14.23,0,0,0,7.24.14.82.82,0,0,1,.84.94C25,48.2,19.86,47.74,18.6,47.52Z" fill="#fff"/>
          <path d="M8.1,30.25c-1.34-2.22-.24-4.93.5-7.18a15.77,15.77,0,0,1,3.87-6.44.76.76,0,0,0-.11.22.82.82,0,0,1,1.57.06A1.25,1.25,0,0,1,13.48,18a15.54,15.54,0,0,0-1.68,2.09,22.69,22.69,0,0,0-2,4.6c-.39,1.62-1.1,3.23-.26,4.75A.84.84,0,0,1,8.1,30.25Z" fill="#fff"/>
          <path d="M31.88,26.84a13.15,13.15,0,0,0-3.53-8.56c-.85-1.24,1.15-2.41,1.48-.8a14.17,14.17,0,0,1,3.7,9.42A.83.83,0,0,1,31.88,26.84Z" fill="#fff"/>
        </g>
      </g>
    </g>
  </g>
</svg>
