<svg xmlns="http://www.w3.org/2000/svg" width="42.6" height="34.93" viewBox="0 0 42.6 34.93">
  <g id="Layer_2" data-name="Layer 2">
    <g id="partners">
      <g id="solend">
        <g>
          <path d="M11.65,16.34A2.77,2.77,0,0,1,9.11,13.2C9.33,8.21,19.55,1.11,24.23.94c2.88-.1,5.37,1.91,3.42,4.75C26.42,7.29,24.49,8,22.74,8.9a17.18,17.18,0,0,0-7.07,5.25A4.19,4.19,0,0,1,11.65,16.34ZM12,14.68a2.35,2.35,0,0,0,1.77-.8A28.64,28.64,0,0,1,18,9.61c2.4-1.91,5.69-2.44,8-4.48,1.81-1.84-.1-2.54-1.87-2.53a8.59,8.59,0,0,0-3.49,1.16C17.07,5.64,13.67,8,11.43,11.28,10.75,12.3,10.13,14.74,12,14.68Z" fill="#fff"/>
          <path d="M16.78,33.66A2.67,2.67,0,0,1,14.52,30c1.72-4.56,7.49-5.28,10.53-8.66a6.31,6.31,0,0,0,1.31-1.62,3.36,3.36,0,0,1,2.49-.95c4.88-.28,4.68,4.68,1.91,7.3C27,29.65,22.5,34.61,16.78,33.66Zm2.27-1.57c2.84-.39,5.08-2.36,7.24-4.09,1.6-1.45,3.47-2.86,4.47-4.8.27-.77.65-2.05-.23-2.51a3.65,3.65,0,0,0-2.81,0c-2.23,3.34-6.16,5-9.4,7.09-1.14.85-3,2.5-2,4A6,6,0,0,0,19.05,32.09Z" fill="#fff"/>
          <path d="M5.62,15.39C5,12.06,7,8.87,9.05,6.42c.84-1,2.18-1.85,2.48-3.23a2.46,2.46,0,0,0-.22-1.35C11,1.45,10.63,1,11,.5c1.05-1.12,2,.78,2.13,1.73a4.44,4.44,0,0,1-1.64,4,17.31,17.31,0,0,0-3.6,4.84A7.33,7.33,0,0,0,7.22,15,.83.83,0,0,1,5.62,15.39Z" fill="#fff"/>
          <path d="M12.26,19.37c-1.73,0-3.66.09-4.88-1.34a4.13,4.13,0,0,1-1.7-3.28.83.83,0,0,1,.79-.85c.81,0,.87.77.87,1.39a3.73,3.73,0,0,0,3.6,2.39h0c4.29.58,6.7-3.78,9.72-6a29.42,29.42,0,0,1,5.54-2.88,20.74,20.74,0,0,1,6.24-.33.81.81,0,0,1-.16,1.62,24,24,0,0,0-5.23.18,20.36,20.36,0,0,0-6.17,3.38C18.25,15.86,15.9,19.17,12.26,19.37Z" fill="#fff"/>
          <path d="M.87,13.14c-1.78-.13.32-4.65.78-5.57C3.24,4.85,4.88,1.89,7.94.67,9.35.08,11.5-.57,12.58.87a.83.83,0,0,1-1.3,1c-1.11-.47-2.34.25-3.33.68C5.27,4.13,3.6,7.21,2.42,10a23,23,0,0,0-.64,2.44A.84.84,0,0,1,.87,13.14Z" fill="#fff"/>
          <path d="M8.39,25C3.7,23.8-.27,17.42,0,12.68v.05c0-.52,0-1.19.31-1.54a.82.82,0,0,1,1.38.88c-.44,3.44,1.46,6.76,3.69,9.21a8.36,8.36,0,0,0,3.17,2.09A.82.82,0,0,1,8.39,25Z" fill="#fff"/>
          <path d="M12.5,25.38c-1.63-.24-3.63.13-5-.89a.82.82,0,0,1,1.06-1.25,6.36,6.36,0,0,0,2.19.39h0a12.47,12.47,0,0,0,3.86-.16,11.31,11.31,0,0,0,4.28-2.29c3-1.87,5.15-5,8.47-6.29a7.11,7.11,0,0,1,6.44.69A.83.83,0,0,1,33,17c-3.87-2.54-7.15.4-10,3C20.07,22.56,16.65,25.5,12.5,25.38Z" fill="#fff"/>
          <path d="M32.37,34.9c-3.43-.73-2.81-4.89-1.22-7.09.85-1.81,3-2.9,3.43-4.86a8,8,0,0,0-.71-4.44c-.29-.57-.76-1-1.06-1.58A.82.82,0,0,1,34.15,16c1.94,2.42,3.06,6.29,1.29,9.08-1.53,2-3.72,3.8-3.95,6.43a2.12,2.12,0,0,0,.35,1.33,3.2,3.2,0,0,0,.9.46A.82.82,0,0,1,32.37,34.9Z" fill="#fff"/>
          <path d="M40.5,27.54c-1.32-.71.31-2.26.28-3.28.78-5.7-1.9-13.19-8.21-14.12a.82.82,0,0,1-.1-1.63c6.75.52,10.28,8,10.13,14.11C42.61,23.74,42.11,28,40.5,27.54Z" fill="#fff"/>
          <path d="M31.67,34c0-.93,1-.9,1.71-1a13.34,13.34,0,0,0,4.23-3.48,12.4,12.4,0,0,0,2.66-3.79.83.83,0,0,1,1.46.77,15.84,15.84,0,0,1-3.64,4.95c-1.39,1.41-3.1,3.14-5.18,3.25A.87.87,0,0,1,31.67,34Z" fill="#fff"/>
        </g>
      </g>
    </g>
  </g>
</svg>
