<svg xmlns="http://www.w3.org/2000/svg" width="271.83" height="173.96" viewBox="0 0 271.83 173.96">
  <g id="Layer_2" data-name="Layer 2">
    <g id="Vector_layer" data-name="Vector layer">
      <g>
        <path d="M77.47,170.34a1.47,1.47,0,0,1,.93-1.8c1.18-.44,2.41-.76,3.62-1.08s2.5-.62,3.76-.93,2.51-.62,3.75-1,2.58-.83,3.83-1.32l0,0,.43-.17-.11,0a73.18,73.18,0,0,0,7-3.18l-.16.09a24.06,24.06,0,0,0,2.22-1.37c.35-.28.68-.56,1-.86l.6-.65c.16-.22.31-.43.45-.66a8,8,0,0,0,.41-.76c.06-.14.11-.28.16-.42s.07-.33.1-.5,0-.32,0-.48,0-.28,0-.41,0-.26-.07-.39l-.12-.38-.18-.37c-.16-.27-.33-.53-.51-.79s-.48-.6-.74-.89-.66-.63-1-.92a23.12,23.12,0,0,0-2.09-1.47l0,0a41.5,41.5,0,0,0-4.14-2.14l.13.06a34,34,0,0,0-3.63-1.41h0l-.06,0-.12,0,.09,0c-.31-.09-.63-.18-1-.24a1.45,1.45,0,0,1-1.55-.26,1.4,1.4,0,0,1-.29-1.69,1.83,1.83,0,0,1,1.52-.93,6.81,6.81,0,0,1,2.18.43,35.46,35.46,0,0,1,4.12,1.6l-.17-.07a27.32,27.32,0,0,1,7.51,4.61,12.57,12.57,0,0,1,1.62,1.88,7.06,7.06,0,0,1,1.07,2.12,5.26,5.26,0,0,1,.19,2.23,10,10,0,0,1-.2,1.09,6.57,6.57,0,0,1-.48,1.25c-1.12,2.4-3.36,4-5.61,5.23-1.18.65-2.42,1.23-3.65,1.79s-2.37,1-3.57,1.51h0l-.07,0-.11,0,.06,0c-1.33.52-2.68,1-4,1.43s-2.47.68-3.71,1-2.65.64-4,1-2.5.66-3.72,1.09a1.29,1.29,0,0,1-.43.07A1.48,1.48,0,0,1,77.47,170.34Z" fill="#110802" fill-opacity="0.25"/>
        <path d="M222.93,140.26a6.91,6.91,0,0,1-1.53,4.58c-1.5,1.75-3.78,2.41-5.94,2.92a37.71,37.71,0,0,1-4.45.79,88.59,88.59,0,0,1-9.5.61h-.95a52.93,52.93,0,0,1-8.35-.55,37.43,37.43,0,0,1-4.7-1,42.93,42.93,0,0,1-4.51-1.69,68.74,68.74,0,0,1-7.68-4.18,82.34,82.34,0,0,0-7.66-4c-2.48-1.11-5-2.13-7.52-3.12s-5-1.92-7.52-2.74a43.35,43.35,0,0,0-4.64-1.08,115.87,115.87,0,0,0-13.69-.94h.2l-1.21,0-.82,0a175.64,175.64,0,0,0-18.21.7,72.28,72.28,0,0,1-9.07.28c-1.51-.07-3-.19-4.53-.39a24.5,24.5,0,0,1-4.62-1,8.7,8.7,0,0,1-3.65-2.19,4.61,4.61,0,0,1-1.09-4.56,7.7,7.7,0,0,1,1.21-2.37,9,9,0,0,1,1.5-1.64A24.46,24.46,0,0,1,97.94,116a34.54,34.54,0,0,1,4-1.92,64.6,64.6,0,0,1,9-2.86,65.65,65.65,0,0,1,9.14-1.47c3-.29,5.94-.49,8.91-.65,1.48-.08,3-.15,4.45-.19s3.06,0,4.58,0c1.32,0,2.64.13,3.95.24q.3,0,.6.06a1.52,1.52,0,0,1,1.12-.6,59.23,59.23,0,0,1,8.32,0c1.41.08,2.82.19,4.23.29s3.05.22,4.57.4c3,.36,5.89.93,8.8,1.58s5.9,1.39,8.85,2.1c3.12.75,6.23,1.52,9.31,2.39s6.06,1.83,9.05,2.83,5.94,2,8.81,3.32c1.47.65,2.91,1.38,4.31,2.17a42.76,42.76,0,0,1,4,2.62c.61.43,1.18.92,1.75,1.4s1.11,1,1.62,1.47l.87.91c.33.34.63.71.94,1.06a17.84,17.84,0,0,1,1.36,1.87,15.8,15.8,0,0,1,2,4.35A10.46,10.46,0,0,1,222.93,140.26Z" fill="#110802" fill-opacity="0.25"/>
        <path d="M260.42,153.58a3.32,3.32,0,0,1-.49,2,5.71,5.71,0,0,1-1.86,1.8,14.34,14.34,0,0,1-2.41,1.22,16,16,0,0,1-2.22.73,59,59,0,0,1-9.26,1.43l-4.69.52c-1.5.17-3,.37-4.5.52h0c-3.07.33-6.16.48-9.25.57s-6.1.14-9.14.14l-5.72,0c-1.68,0-3.36,0-5-.07h0l-.57,0c-1.48,0-3-.08-4.48-.26a6.83,6.83,0,0,1-2-.49,3.78,3.78,0,0,1-1-.64,2.67,2.67,0,0,1-.67-1.09,3,3,0,0,1,.38-2.33,8,8,0,0,1,1.89-2.12,20.7,20.7,0,0,1,4.48-2.72c.71-.34,1.46-.6,2.2-.87a19,19,0,0,1,2.23-.64,43.61,43.61,0,0,1,4.54-.82c1.54-.19,3.1-.29,4.64-.43,2.93-.25,5.84-.64,8.78-.76.46,0,.92,0,1.38,0a1.45,1.45,0,0,1,1.48,1.38v.11l2.21-.4a84.4,84.4,0,0,1,9-1c3.06-.19,6.11-.26,9.16-.23a43.83,43.83,0,0,1,4.44.19,14.07,14.07,0,0,1,2.23.39,8.87,8.87,0,0,1,2.07.91A3.91,3.91,0,0,1,260.42,153.58Z" fill="#110802" fill-opacity="0.25"/>
        <path d="M45.76,126.51a6.12,6.12,0,0,1-2.14-.85A14.64,14.64,0,0,1,42,124.37,35.77,35.77,0,0,1,38.39,121a33.35,33.35,0,0,1-2.73-3.54c-.88-1.26-1.75-2.53-2.57-3.82-1.66-2.6-3.08-5.34-4.56-8s-2.79-5.27-4-8a83.11,83.11,0,0,1-5.27-17.46c-.3-1.59-.56-3.18-.81-4.78-.22-1.41-.46-2.83-.65-4.25a54.19,54.19,0,0,1-.58-9.35,44.37,44.37,0,0,1,1.06-7.42c.51-2.43,1.08-4.86,1.8-7.24.46-1.5,1-3,1.51-4.46s1.08-2.9,1.7-4.31a84,84,0,0,1,4-8c1.52-2.65,3.17-5.23,4.89-7.76.81-1.21,1.63-2.43,2.51-3.59a33.55,33.55,0,0,1,3.07-3.55L41,12.28c1-1,2.15-2,3.28-2.9a37.74,37.74,0,0,1,3.83-2.7c1.32-.83,2.66-1.65,4.06-2.37A32.88,32.88,0,0,1,60,1.57C61.6,1.23,63.19,1,64.78.7S67.93.22,69.52.1a33.6,33.6,0,0,1,9,.51,34,34,0,0,1,4.12,1c1.33.44,2.69.83,4,1.35a29.24,29.24,0,0,1,3.81,1.87c.67.39,1.31.82,2,1.24s1.18.77,1.76,1.18a25,25,0,0,1,3.45,2.88,16.82,16.82,0,0,1,2.69,3.88c.64,1.23,1.17,2.53,1.7,3.82a34.38,34.38,0,0,1,1.45,4.33,27.27,27.27,0,0,1,.79,4.2,25.85,25.85,0,0,1,0,4.4c-.11,1.37-.22,2.75-.28,4.12s-.11,2.86-.19,4.29a73.57,73.57,0,0,1-.81,8.51A19.6,19.6,0,0,1,101.68,52a20.51,20.51,0,0,1-2.24,4,32,32,0,0,1-2.79,3.35c-1,1-2,2-3,3-2,1.87-4,3.76-6,5.58-2.25,2-4.72,3.78-7.09,5.65-.85.67-1.69,1.36-2.56,2s-1.7,1.27-2.56,1.9a53.27,53.27,0,0,0-4.49,3.74,18.92,18.92,0,0,0-1.29,1.4,22.51,22.51,0,0,0-1.31,1.88h0A32.08,32.08,0,0,0,66.48,88c-.75,1.69-1.38,3.42-2,5.14s-1.39,3.67-2,5.54c-.75,2.55-1.28,5.17-1.82,7.76-.27,1.29-.46,2.59-.68,3.89s-.47,2.57-.69,3.85c-.14.85-.24,1.7-.37,2.55-.1.66-.2,1.33-.27,2s-.1,1.12-.15,1.67a4.44,4.44,0,0,1-.3,1.39,2.26,2.26,0,0,1-.11.22,6.13,6.13,0,0,1-.62,1.38,4.92,4.92,0,0,1-1.5,1.58,8.09,8.09,0,0,1-2.07.89,19.62,19.62,0,0,1-3.78.9,11.75,11.75,0,0,1-1.45.08A15.77,15.77,0,0,1,45.76,126.51ZM68.53,3.36c-1.41.16-2.81.38-4.21.62s-2.93.5-4.39.84a40.19,40.19,0,0,0-4.16,1.32,31.66,31.66,0,0,0-3,1.38c-.89.5-1.75,1-2.61,1.56s-1.89,1.19-2.8,1.85a45.09,45.09,0,0,0-3.89,3.29c-.89.86-1.76,1.75-2.65,2.61a36.59,36.59,0,0,0-2.64,2.79C37.11,21,36.07,22.51,35.05,24S33,27.13,32,28.73s-2,3.37-3,5.11S27.29,37.24,26.5,39h0a88.19,88.19,0,0,0-3.36,9l-.12.43c-.47,1.57-.85,3.17-1.21,4.77s-.7,3.28-1,4.94a35.57,35.57,0,0,0-.43,4.25,48.45,48.45,0,0,0,.27,5.9c.28,2.49.69,5,1.09,7.42.42,2.65.9,5.28,1.52,7.9a86.82,86.82,0,0,0,3.3,10.49c.89,2.27,1.89,4.49,3,6.67s2.37,4.45,3.59,6.66c.89,1.6,1.79,3.19,2.78,4.75.51.8,1.06,1.58,1.6,2.37s1.06,1.56,1.61,2.32a29.65,29.65,0,0,0,2.22,2.65,40.2,40.2,0,0,0,3.22,2.89l.09.07h0q.39.31.81.6l.27.14.28.1a8,8,0,0,0,1,.21,14.84,14.84,0,0,0,1.48.15,11.12,11.12,0,0,0,1.29,0c.66-.09,1.31-.22,2-.37s1.49-.41,2.21-.67c.13-.06.26-.11.39-.18l.18-.11.17-.15.18-.2.12-.17.21-.4.09-.22a14,14,0,0,1,.09-1.84c.08-1,.21-1.92.35-2.87.19-1.27.35-2.54.58-3.8.25-1.46.53-2.92.77-4.38s.5-2.79.8-4.18.6-2.84,1-4.25a77.37,77.37,0,0,1,2.75-8.2A54.13,54.13,0,0,1,65,83.89,26.23,26.23,0,0,1,67,80.74a24,24,0,0,1,3.09-3.12c.77-.66,1.53-1.32,2.33-1.93s1.68-1.25,2.53-1.87l0,0s0,0,0,0c1.22-.91,2.4-1.87,3.59-2.81s2.37-1.82,3.55-2.74,2.4-1.9,3.54-2.93,2-1.81,2.94-2.73c1.33-1.26,2.69-2.49,4-3.76a47.34,47.34,0,0,0,3.39-3.69,28.37,28.37,0,0,0,1.67-2.39,17.47,17.47,0,0,0,.87-1.66c.28-.65.53-1.31.75-2A21.68,21.68,0,0,0,99.85,47a78.75,78.75,0,0,0,.74-8.25c.08-1.43.12-2.85.19-4.28s.19-2.75.29-4.12c0-.46.05-.92.07-1.39a22.28,22.28,0,0,0-.07-2.45c-.13-1-.32-1.93-.54-2.89a35,35,0,0,0-1.25-4A41.71,41.71,0,0,0,97.2,15c-.31-.54-.65-1.08-1-1.59-.27-.35-.55-.68-.85-1l0,0a18.8,18.8,0,0,0-1.77-1.56l0,0a51.74,51.74,0,0,0-4.44-3,29.37,29.37,0,0,0-2.73-1.42,27.46,27.46,0,0,0-2.66-1q-1.35-.45-2.7-.87a35.76,35.76,0,0,0-4-.89,31.51,31.51,0,0,0-3.62-.38l-1.07,0C71.08,3.17,69.8,3.24,68.53,3.36Z" fill="#110802"/>
        <path d="M57.68,123a1.5,1.5,0,0,1-1.3-.85h0a1.53,1.53,0,0,1,.56-1.91l.69-.38c.33-.18.65-.38,1-.58l.64-.41c.74-.46,1.47-.92,2.17-1.44a14.82,14.82,0,0,0,1.21-1,18,18,0,0,0,1.31-1.45c.61-.78,1.17-1.61,1.71-2.44s1.25-1.89,1.85-2.85c1-1.71,2-3.46,3-5.16s2.16-3.36,3.21-5.06l1-1.69.12-.21c.14-.21.27-.43.41-.65h0a0,0,0,0,0,0,0l0,0h0c1-1.69,2.07-3.36,3.08-5.07s2.15-3.63,3.25-5.42h0s0-.05,0-.08h0c1.26-2,2.45-4.14,3.68-6.19.63-1.05,1.27-2.1,1.9-3.16a28.63,28.63,0,0,0,1.62-3,55.23,55.23,0,0,0,1.88-5.28c.45-1.58.87-3.17,1.23-4.77.19-.85.35-1.7.5-2.55,0-.17,0-.33.07-.51a1.26,1.26,0,0,1,0-.28A1.42,1.42,0,0,1,93.75,59a1.37,1.37,0,0,1,.72.06,1.56,1.56,0,0,1,1,1.42h0a12.93,12.93,0,0,1-.31,2.39c-.28,1.5-.63,3-1,4.46s-.82,3-1.31,4.44a32.49,32.49,0,0,1-1.68,4.26c-.7,1.39-1.53,2.72-2.33,4.06s-1.58,2.65-2.35,4c-1.56,2.7-3.22,5.35-4.79,8.06-1.41,2.43-2.87,4.83-4.34,7.23-.74,1.21-1.48,2.43-2.25,3.63s-1.47,2.24-2.17,3.38-1.47,2.58-2.22,3.87-1.59,2.53-2.42,3.78a33.28,33.28,0,0,1-2.57,3.54,16,16,0,0,1-3.18,2.8c-.67.46-1.35.88-2,1.32l-.25.16A6.09,6.09,0,0,1,58,123l-.25,0Z" fill="#110802"/>
        <path d="M16.32,153.08a1.47,1.47,0,0,1-1.44-1.21c0-.17,0-.34-.05-.5,0-.47,0-1,0-1.42l0-1.79c0-.08,0-.17,0-.25,0-.87,0-1.75.09-2.62,0-.56.05-1.12.1-1.68a35.56,35.56,0,0,1,1.81-8.7,14.87,14.87,0,0,1,2.27-4,24.29,24.29,0,0,1,3-3.25,17,17,0,0,1,1.7-1.34,16.69,16.69,0,0,1,2-1.09,33.37,33.37,0,0,1,4-1.62,42.05,42.05,0,0,1,8.37-1.8c.3,0,.61-.07.91-.09s.77-.08,1.16-.1,1-.1,1.45-.09a1.79,1.79,0,0,1,1.54.75,1.42,1.42,0,0,1-.41,2,1.34,1.34,0,0,1-.73.21,2.23,2.23,0,0,1-.36,0l-.15,0-.59,0-1.53.14a51.27,51.27,0,0,0-6.15,1,33.78,33.78,0,0,0-3.78,1.19A30.2,30.2,0,0,0,26,128.44c-.31.18-.61.38-.91.59a18.68,18.68,0,0,0-1.43,1.24,24,24,0,0,0-1.87,2,18.67,18.67,0,0,0-1.26,1.76,10.72,10.72,0,0,0-.5.95c-.24.55-.44,1.12-.63,1.69a38.5,38.5,0,0,0-1,4.22,45.34,45.34,0,0,0-.49,5.32h0a1.21,1.21,0,0,1,0,.19v.05c0,.9,0,1.81-.05,2.72,0,.75,0,1.5-.06,2.25,0,.1,0,.2,0,.3a1.48,1.48,0,0,1-1.41,1.32Z" fill="#110802"/>
        <path d="M87.34,153.55a1.52,1.52,0,0,1-.91-.63,1.47,1.47,0,0,1-.24-.59,4.44,4.44,0,0,1,.21-1.69c.12-.54.24-1.09.34-1.64l0-.2,0,.2a28,28,0,0,0,.27-3.17,45.56,45.56,0,0,0-.1-4.82s0,0,0,0v0a19.41,19.41,0,0,0-.41-2.38,10,10,0,0,0-.33-1.06c-.18-.44-.39-.88-.61-1.3a17.18,17.18,0,0,0-1.12-1.7,17.72,17.72,0,0,0-1.2-1.4l-.08-.08a0,0,0,0,0,0,0,18.14,18.14,0,0,0-1.44-1.33c-.46-.36-.94-.69-1.43-1s-1.28-.74-1.93-1.09-1.25-.71-1.9-1a49.64,49.64,0,0,0-5.15-1.9h0l0,0-.1,0h0A51.49,51.49,0,0,0,65,125.14c-1.34-.21-2.69-.31-4-.46l-2-.21c-.5,0-1-.09-1.51-.17h.08a1.55,1.55,0,0,1-.62-.19,1.41,1.41,0,0,1-.74-1.19,1.47,1.47,0,0,1,.22-.82l.15-.19a1.39,1.39,0,0,1,1.19-.46,3.73,3.73,0,0,0,.56.07l.62,0,1.58.16.22,0c1.13.12,2.27.2,3.41.33a31.35,31.35,0,0,1,4.2.77c1.29.34,2.58.67,3.86,1.06l.08,0h0a37.92,37.92,0,0,1,10.67,5,18.75,18.75,0,0,1,3,2.76,16.82,16.82,0,0,1,2.52,3.61,12.92,12.92,0,0,1,.82,2,18.29,18.29,0,0,1,.53,2.33,30.73,30.73,0,0,1,.33,4.49v1.28c0,1,0,1.93-.15,2.88a1.46,1.46,0,0,1,0,.22,19.36,19.36,0,0,1-.43,2.51c0,.06,0,.13,0,.2s-.09.37-.15.55a4.56,4.56,0,0,1-.45,1.18,1.47,1.47,0,0,1-1.24.63Z" fill="#110802"/>
        <path d="M49.59,162.17h-.06c-2-.06-4.07-.15-6.1-.32-1-.08-2-.17-3-.3s-2-.3-3-.47c-1.82-.3-3.62-.69-5.42-1.08-.93-.2-1.85-.45-2.77-.68s-1.63-.41-2.44-.65c-1.37-.41-2.72-.86-4-1.4-.68-.27-1.34-.57-2-.87s-1.39-.63-2.06-1-1.28-.76-1.92-1.15A7.29,7.29,0,0,1,15.13,153a1.58,1.58,0,0,1-.3-1.61,1.52,1.52,0,0,1,.76-.84,1.63,1.63,0,0,1,1-.12h0l.07,0h0a1.53,1.53,0,0,1,.63.33,1.59,1.59,0,0,1,.13.13h0a1.24,1.24,0,0,1,.27.49l.14.09.58.37h0a30.41,30.41,0,0,0,3.28,1.77c.93.41,1.85.84,2.8,1.19s1.92.67,2.89,1c.76.23,1.53.42,2.3.61s1.81.47,2.72.68c1.74.38,3.49.75,5.25,1.05h0c.9.15,1.81.31,2.71.43s2,.22,3,.31c1.92.17,3.84.25,5.76.31,1.4,0,2.79,0,4.19,0h1c.93,0,1.86,0,2.79,0,2.74-.07,5.47-.37,8.2-.63h0c2.06-.23,4.08-.69,6.11-1.09s4-.82,6-1.3c1-.24,2-.51,2.93-.79s1.72-.51,2.56-.82l.06,0a26.25,26.25,0,0,0,3-1.37h0l.4-.24c.76-.46,1.48-1,2.21-1.48a1.36,1.36,0,0,1,.87-.23,1.54,1.54,0,0,1,1,.52,1.47,1.47,0,0,1,0,1.93,8.56,8.56,0,0,1-1,.87,17.1,17.1,0,0,1-2.74,1.69A30.16,30.16,0,0,1,83,157.77a80,80,0,0,1-8.36,2.13c-1.37.3-2.75.56-4.13.83s-2.79.58-4.21.75-2.89.29-4.33.43-2.81.21-4.21.27c-1.24,0-2.48,0-3.72,0H52C51.17,162.21,50.38,162.2,49.59,162.17Z" fill="#110802"/>
        <path d="M35.66,143c-1.33-.23-2.67-.46-4-.77a22.38,22.38,0,0,1-3.8-1.29l.07,0c-1-.47-2.06-1-3.05-1.52a9.92,9.92,0,0,1-1.34-.87,2.59,2.59,0,0,1-.61-.53,1.41,1.41,0,0,1,2-1.94l.06.05c.25.2.51.38.77.55,1.07.63,2.2,1.16,3.31,1.68l.15.07a14.29,14.29,0,0,0,1.65.62,52.3,52.3,0,0,0,5.39,1.18A1.4,1.4,0,0,1,36,143Z" fill="#110802"/>
        <path d="M56.21,144.48c-1.51,0-3-.07-4.52-.14-.65,0-1.31-.07-2-.14S48.56,144,48,144H47.8a1.41,1.41,0,0,1,.28-2.81c.93.06,1.86.23,2.79.3,1.21.09,2.42.12,3.63.16a97.72,97.72,0,0,0,12.22-.38h.15a43.56,43.56,0,0,0,5.1-.92l.07,0c1.25-.31,2.48-.69,3.7-1.08s2.47-.81,3.68-1.28l.41-.16A1.42,1.42,0,1,1,81,140.34c-1.32.55-2.65,1-4,1.45s-2.57.84-3.87,1.16-2.74.64-4.12.86-2.84.35-4.27.45c-2.32.17-4.64.23-7,.23Z" fill="#110802"/>
        <path d="M66.81,141.23h0Z" fill="#110802"/>
        <path d="M79.41,137.94l-.07,0Z" fill="#110802"/>
        <path d="M58.38,174c-3.14,0-6.28-.1-9.41-.38-1.49-.13-3-.24-4.49-.38s-3.13-.35-4.69-.56-3.1-.41-4.65-.67-3.06-.45-4.59-.72c-1.13-.2-2.25-.45-3.38-.65s-2.21-.4-3.31-.62-2.3-.43-3.44-.67-2.2-.54-3.29-.87h.05l-.85-.25h0l-.18-.05c-1.45-.45-2.9-.92-4.34-1.42a23.8,23.8,0,0,1-4.17-2,31.68,31.68,0,0,1-3.56-2.4,13.17,13.17,0,0,1-3.14-3.18A6.26,6.26,0,0,1,.07,157a5.31,5.31,0,0,1,.08-2.1A7.57,7.57,0,0,1,1.54,152a12.55,12.55,0,0,1,2.53-2.35,21,21,0,0,1,3.54-2.09c.64-.31,1.3-.59,2-.85A30.06,30.06,0,0,1,13,145.6a9.38,9.38,0,0,1,1.73-.31,2.1,2.1,0,0,1,.71.09l-.16,0h-.07a1.44,1.44,0,0,1,1.35,1.36,1.42,1.42,0,0,1-1.36,1.46,1.72,1.72,0,0,1-.32,0c-.34,0-.67.12-1,.19a31.5,31.5,0,0,0-3.16,1,29.24,29.24,0,0,0-3,1.4,22.56,22.56,0,0,0-2,1.3c-.4.31-.78.63-1.15,1a7.18,7.18,0,0,0-.6.63,6.18,6.18,0,0,0-.4.56,6.82,6.82,0,0,0-.34.66,3.75,3.75,0,0,0-.16.43c0,.12-.07.24-.1.36l0,.33c0,.09,0,.18,0,.28s0,.22,0,.33a2.81,2.81,0,0,0,.1.31l.18.37c.12.2.24.38.37.57s.32.39.5.58a19.8,19.8,0,0,0,1.53,1.36,37.21,37.21,0,0,0,3.41,2.32,22.75,22.75,0,0,0,2.18,1.16,51,51,0,0,0,5.13,1.79l0,0c1.31.4,2.62.8,3.95,1.12s2.51.5,3.76.75,2.52.5,3.79.71,2.55.51,3.83.73h0l4.42.7c1.52.24,3,.42,4.56.61s3.17.4,4.76.52l4.46.38c1.26.1,2.52.16,3.78.2h.21c2.35.06,4.7.12,7,0s4.6-.29,6.89-.52l.2,0,.08,0h.29l.28,0,.47,0a97.71,97.71,0,0,0,11.63-2.09l.18,0h0l.1,0a79,79,0,0,0,9.75-3,3.12,3.12,0,0,1,.39-.15l.35-.14A38.33,38.33,0,0,0,95.43,163a21.89,21.89,0,0,0,2-1.28c.54-.4,1.07-.81,1.57-1.26s.82-.85,1.2-1.3.6-.85.87-1.29h0l0,0c.27-.47.54-.94.77-1.43a7.15,7.15,0,0,0,.29-.77c0-.1.06-.2.08-.3s0-.09,0-.14V155a.36.36,0,0,1,0-.1l-.06-.2c0-.07-.07-.15-.11-.23l-.27-.4q-.33-.42-.69-.81c-.23-.23-.47-.46-.73-.68-.42-.33-.85-.63-1.3-.92a11.31,11.31,0,0,0-1.15-.59,46.3,46.3,0,0,0-5-1.87c-.57-.17-1.16-.32-1.74-.46s-1-.18-1.5-.33a1.56,1.56,0,0,1-1.18-1.65A1.53,1.53,0,0,1,90,145.41a8.2,8.2,0,0,1,1.48.18c.5.1,1,.21,1.49.34a38.15,38.15,0,0,1,3.74,1.25,27.05,27.05,0,0,1,3.84,1.74,12.77,12.77,0,0,1,1.86,1.32,11.57,11.57,0,0,1,1.42,1.38,5.19,5.19,0,0,1,1.52,4.07,10.78,10.78,0,0,1-1.61,3.79,15.76,15.76,0,0,1-2.39,3,20.24,20.24,0,0,1-3.44,2.61,27.43,27.43,0,0,1-4.29,2.09c-1.42.58-2.84,1.15-4.29,1.66a83.16,83.16,0,0,1-8.8,2.47c-2,.46-4,.88-6.07,1.24s-4.3.62-6.47.85l-.24,0-.4,0c-1.46.15-2.92.3-4.38.38s-2.88.12-4.32.12Z" fill="#110802"/>
        <path d="M173,75.53l0,0Z" fill="#110802"/>
        <path d="M172.91,75.5l0,0Z" fill="#110802"/>
        <path d="M172.8,75.41s0,0,0,0S172.81,75.41,172.8,75.41Z" fill="#110802"/>
        <path d="M171.22,70.17h0Z" fill="#110802"/>
        <path d="M124.77,50.64h0Z" fill="#110802"/>
        <path d="M201.37,165.53c-1.55,0-3.09-.1-4.63-.27s-3-.43-4.55-.69-3.18-.65-4.79-.92h.07l-.17,0h0c-1.21-.19-2.44-.37-3.64-.65a38.46,38.46,0,0,1-4.05-1.22,20.49,20.49,0,0,1-3.62-1.67,6.26,6.26,0,0,1-1.61-1.29,2.39,2.39,0,0,1-.36-.59,1.59,1.59,0,0,1-.26-.48h0a1.27,1.27,0,0,1-.14-.48,10.38,10.38,0,0,1-.39-1.84,15.67,15.67,0,0,1,0-1.94,14.29,14.29,0,0,1,.58-3.84,7.63,7.63,0,0,1,1.43-2.68,8.24,8.24,0,0,1,2.27-1.7,32.93,32.93,0,0,1,4.37-2c1.33-.49,2.68-.95,4-1.44a1.48,1.48,0,0,1-.69-1c-.3-1.49-.47-3-.62-4.49a41.32,41.32,0,0,1-.16-4.16c0-2.94,0-5.87.15-8.81,0-1.31.14-2.63.23-3.94s.17-2.76.25-4.13a27.46,27.46,0,0,1,.51-3.84c.16-.82.38-1.64.62-2.44-1.85.32-3.69.66-5.55,1-1.52.23-3,.42-4.57.55s-3.11.2-4.68.25c-2.45.09-4.9.15-7.36.15-1.4,0-2.8,0-4.19-.06a48.4,48.4,0,0,1-9-1c-1.43-.31-2.84-.68-4.26-1s-3.11-.83-4.64-1.33c-2.83-.92-5.65-1.89-8.42-3-1.3-.51-2.6-1-3.88-1.6s-2.7-1.3-4-2a53,53,0,0,1-8-5.08c-2.28-1.83-4.3-4-6.48-5.91-.68-.61-1.37-1.21-2.07-1.79l0,0a26.1,26.1,0,0,0-2.18-1.56c-.26-.16-.52-.3-.8-.44l-.07,0a16.61,16.61,0,0,0-1.83-.66c-1.12-.33-2.26-.63-3.35-1a9.76,9.76,0,0,1-2-1,6.21,6.21,0,0,1-1.69-1.81,5.52,5.52,0,0,1-.51-4.87,6.36,6.36,0,0,1,3.47-3.35,2.6,2.6,0,0,1,.36-.13,6.84,6.84,0,0,1-1.88-1,4.3,4.3,0,0,1-1.21-1.47A3.55,3.55,0,0,1,97,69a4.11,4.11,0,0,1,1.29-2.59,11.4,11.4,0,0,1,2.85-1.94c1-.5,2-.87,3-1.3s2.08-.95,3.08-1.49l.15-.09.1,0,0,0c2.37-1.33,4.65-2.86,6.92-4.37l1.47-1a1.43,1.43,0,0,1,.23-1.16,32.66,32.66,0,0,1,2.61-3.16c1-1.16,2.11-2.29,3.24-3.35a61.37,61.37,0,0,1,7.23-5.72,27.25,27.25,0,0,1,4-2.34,37,37,0,0,1,4.32-1.66,47.49,47.49,0,0,1,8.91-1.77c1.18-.13,2.36-.23,3.54-.28s2.37,0,3.55,0l1.69.07h.16a1.46,1.46,0,0,1,1.1-.14c.12-.34.27-.67.41-1a26.71,26.71,0,0,1-3.45-2A13.24,13.24,0,0,1,150.05,30a11.2,11.2,0,0,1-1.66-4.81,8.24,8.24,0,0,1,1.14-4.94,12.28,12.28,0,0,1,3.12-3.61,9.4,9.4,0,0,1,4.56-1.95,10.79,10.79,0,0,1,2.54-.05c.74.08,1.47.25,2.2.4a18.68,18.68,0,0,1,8.2,4.4,30.65,30.65,0,0,1,3.7,4h.21c.76,0,1.52,0,2.29,0a33,33,0,0,1,4.75.62,19.75,19.75,0,0,1,4.38,1.32,14.4,14.4,0,0,1,2.17,1.13,18.13,18.13,0,0,1,1.79,1.34,20.32,20.32,0,0,1,3.19,3.49,13,13,0,0,1,2.18,4.28,7.6,7.6,0,0,1,.19,2.69,8.16,8.16,0,0,1-.75,2.54,6.71,6.71,0,0,1-1.57,2,9.94,9.94,0,0,1-2,1.36,10.39,10.39,0,0,1-2.1.78,20.35,20.35,0,0,1-2.32.49c-.46.06-.91.1-1.38.12l.41.15a10.18,10.18,0,0,1,1.93,1.2c.59.43,1.17.9,1.75,1.36,1.13.93,2.22,1.9,3.31,2.86s2.25,2.05,3.34,3.11,2.1,2.19,3.09,3.34a43,43,0,0,1,2.8,3.65,37.13,37.13,0,0,1,2.25,3.92c.64,1.25,1.25,2.53,1.84,3.81s1.17,2.55,1.69,3.84a23.14,23.14,0,0,1,1.19,3.52c.64-.43,1.3-.84,2-1.22.47-.26.94-.53,1.42-.78a32.8,32.8,0,0,1,8.65-3.55,34.07,34.07,0,0,1,4.73-.66c1.59-.13,3.2-.11,4.8-.13a53.71,53.71,0,0,1,7.06.39,22.66,22.66,0,0,1,3.58.7,11.57,11.57,0,0,1,1.62.58c.31.14.59.31.9.46a1.37,1.37,0,0,1,.73,1,7.69,7.69,0,0,1,1.19.58c.51.3,1,.65,1.5.95a14.21,14.21,0,0,0,1.4.72h0c.45.2.9.38,1.35.59s.93.49,1.39.75c1.16.66,2.29,1.36,3.44,2s2.24,1.27,3.3,2a20.87,20.87,0,0,1,3.27,2.73,28.07,28.07,0,0,1,3,3.67,44,44,0,0,1,2.29,3.86c.75,1.39,1.47,2.79,2.12,4.22a30.54,30.54,0,0,1,1.57,4.58,53.76,53.76,0,0,1,1.84,18.82,27.15,27.15,0,0,1-.61,4.3c-.34,1.5-.78,3-1.23,4.45a31,31,0,0,1-1.54,4,34.71,34.71,0,0,1-2.2,4,71.81,71.81,0,0,1-5.51,7.58c-.88,1.08-1.88,2.06-2.8,3.11a34.79,34.79,0,0,1-2.93,3.14,43.69,43.69,0,0,1-4.34,3.2,50.29,50.29,0,0,1-4.52,2.69h0l0,0c-1.31.73-2.57,1.56-3.87,2.31a34.57,34.57,0,0,1-4.55,2.08c-1.52.6-3.06,1.18-4.61,1.68s-2.92.84-4.4,1.19-3,.69-4.54,1c-1.37.26-2.74.44-4.11.67s-2.91.46-4.38.62-3,.26-4.55.35-3.16.21-4.74.25c-.92,0-1.85,0-2.77,0Zm-.18-42.13a27.51,27.51,0,0,1,.75,4.43,20.74,20.74,0,0,1-.16,4.59,11.32,11.32,0,0,1-1.93,4.51,11.11,11.11,0,0,1-1.34,1.65,13.78,13.78,0,0,1-1.84,1.49,18.29,18.29,0,0,1-1.86,1.19c-.63.35-1.28.68-1.92,1A70.53,70.53,0,0,1,185,145.5c-.91.33-1.83.65-2.73,1A33.08,33.08,0,0,0,179,148c-.3.17-.6.35-.89.55l-.35.29-.26.28c-.07.1-.14.19-.2.29s-.16.29-.23.44a7.08,7.08,0,0,0-.28.77,10.26,10.26,0,0,0-.28,1.22c-.08.55-.12,1.09-.15,1.63s0,1.13.05,1.69.18,1.21.3,1.82l.09.08.4.28c.54.32,1.1.61,1.66.87A32.11,32.11,0,0,0,182,159.4l.07,0,.48.15a35.78,35.78,0,0,0,3.83.83c1.28.21,2.55.42,3.82.67s2.36.46,3.55.67h0a49.9,49.9,0,0,0,6.1.67c1.2,0,2.41,0,3.61,0,1.35,0,2.71,0,4.07-.09,2.55-.13,5.11-.27,7.65-.52,1-.11,2-.22,3-.4l3.19-.53c2.2-.34,4.39-.81,6.57-1.32,1.24-.31,2.47-.64,3.69-1s2.68-.93,4-1.44a39.6,39.6,0,0,0,4.42-2c.95-.55,1.88-1.15,2.82-1.71s1.88-1.07,2.82-1.59a54.69,54.69,0,0,0,5.75-3.77l0,0c.59-.45,1.16-.92,1.71-1.42,1-1,1.8-2,2.71-3,.45-.49.91-1,1.36-1.45s.87-1,1.29-1.52c.92-1.14,1.82-2.29,2.66-3.48s1.7-2.5,2.5-3.78l0,0a38,38,0,0,0,1.8-3.4,36.68,36.68,0,0,0,1.38-3.8,44.48,44.48,0,0,0,1.33-5.32,38.69,38.69,0,0,0,.33-4.56,56.83,56.83,0,0,0-.15-6.26v0a62.14,62.14,0,0,0-1.13-7,45.82,45.82,0,0,0-1.56-5.25,50.78,50.78,0,0,0-2.52-5.13,44.34,44.34,0,0,0-2.44-4c-.69-.9-1.44-1.76-2.21-2.58a19.94,19.94,0,0,0-1.66-1.52A22.89,22.89,0,0,0,255,83.07c-1.25-.76-2.54-1.47-3.79-2.22a38.89,38.89,0,0,0-3.45-1.93l-1-.43h0l-.15-.07a18.05,18.05,0,0,1-1.79-1c-.4-.25-.78-.52-1.18-.77l-.64-.34c-.44-.19-.88-.36-1.33-.54a1.55,1.55,0,0,1-1-1.55l-.45-.15c-.76-.21-1.53-.38-2.32-.52a53.17,53.17,0,0,0-5.51-.47,73.52,73.52,0,0,0-7.71.21,32.58,32.58,0,0,0-3.54.56c-.95.25-1.87.54-2.78.87a39.91,39.91,0,0,0-4.49,2.1l.11-.07c-.18.11-.37.21-.56.31l.18-.09c-.81.45-1.61.9-2.4,1.37s-1.52,1-2.26,1.52a43.81,43.81,0,0,0-3.74,3.22A40.24,40.24,0,0,0,202,86.59v0l-.09.08-.29.25a3.77,3.77,0,0,0-.57.56,5.72,5.72,0,0,0-.39.57s0,.08-.07.13-.13.3-.19.45l-.14.38-.13.2a16.48,16.48,0,0,0-.78,1.5A32.21,32.21,0,0,0,198.14,94a44.75,44.75,0,0,0-1.24,5.11,40,40,0,0,0-.53,4.88,19.23,19.23,0,0,0,.1,2.28h0a46.17,46.17,0,0,0,1.05,5.94.64.64,0,0,1,0-.07l0,.11a0,0,0,0,0,0,0,55.74,55.74,0,0,0,2.1,6.65l.07.19s0,0,0,0A32.62,32.62,0,0,1,201.19,123.4ZM187.37,131a56.39,56.39,0,0,0,.19,5.81c.13,1.2.28,2.39.46,3.59a1.3,1.3,0,0,1-.05.65,54.73,54.73,0,0,0,5.52-2.63c.64-.39,1.23-.82,1.84-1.26.31-.23.61-.48.89-.73l.58-.65c.25-.33.48-.67.71-1s.44-.77.64-1.17c.07-.19.15-.38.21-.58a13.26,13.26,0,0,0,.33-1.35c.07-.51.1-1,.12-1.54a21.23,21.23,0,0,0-.09-2.52,28.49,28.49,0,0,0-.62-3.44,22.57,22.57,0,0,0-.77-2.37c-.17-.45-.35-.89-.53-1.34a55.58,55.58,0,0,1-2.56-8.29c-.31-1.41-.61-2.84-.79-4.27a25.85,25.85,0,0,1-.26-4c0-.85.11-1.7.21-2.55l-.41.51a29.18,29.18,0,0,0-2,2.81c-.28.48-.54,1-.77,1.45-.31.76-.57,1.53-.81,2.31l0,0s0,.06,0,.08c-.43,1.48-.83,3-1.11,4.46-.29,1.92-.35,3.86-.47,5.79s-.26,4-.33,6c0,.23-.06.46-.07.69,0,.53-.09,1.07-.09,1.61a4.43,4.43,0,0,0,0,.63l.06.35C187.38,129,187.37,130,187.37,131Zm-84.66-55.1a4.62,4.62,0,0,0-.63.11,6.36,6.36,0,0,0-.62.19l-.56.26c-.16.1-.31.19-.46.3l-.33.28c-.1.11-.21.22-.3.33l-.16.23a1,1,0,0,0-.12.23,1.11,1.11,0,0,0-.07.16l-.06.28a1.71,1.71,0,0,0,0,.31,2.53,2.53,0,0,0,0,.28c0,.1,0,.21.05.31l.1.34c0,.11.11.22.16.32l.21.34.27.32.27.25.36.24a5.36,5.36,0,0,0,.53.28,15.82,15.82,0,0,0,1.5.55c1.3.39,2.61.73,3.86,1.23a16.5,16.5,0,0,1,3.68,2.19,78,78,0,0,1,6.24,5.55c.85.81,1.71,1.6,2.61,2.35a44,44,0,0,0,4.35,3,71.08,71.08,0,0,0,7.19,3.87c2.12.94,4.27,1.78,6.45,2.55,2.34.84,4.68,1.66,7.06,2.4,1.54.46,3.12.85,4.68,1.24,1.38.36,2.77.68,4.18.93a50.54,50.54,0,0,0,6.63.57h0c2.8.09,5.6,0,8.4,0,3,0,5.92-.15,8.86-.45l-.16,0c3.43-.38,6.81-1.06,10.21-1.62l.12,0c.15-.4.32-.8.5-1.19a17.47,17.47,0,0,1,1.74-2.86,33.4,33.4,0,0,1,2.19-2.72,4,4,0,0,1,1.49-1.19,1.39,1.39,0,0,1,.83,0c.17-.85.37-1.69.59-2.52a2.76,2.76,0,0,1,.08-.27,30.66,30.66,0,0,1-4.2,1.93,65.59,65.59,0,0,1-8.65,2.8,34.52,34.52,0,0,1-4.62.77c-1.47.14-2.94.22-4.41.27-3.11.11-6.23.17-9.35,0s-6.28-.52-9.41-.91c-1.54-.2-3.07-.43-4.6-.7a37.4,37.4,0,0,1-4.53-1.11,47.51,47.51,0,0,1-8.47-3.61c-1.35-.72-2.67-1.49-4-2.24s-2.56-1.42-3.84-2.13-2.67-1.54-4-2.39-2.34-1.67-3.47-2.56-2.21-1.75-3.32-2.6-2.2-1.59-3.34-2.34-2.14-1.47-3.24-2.17a15.83,15.83,0,0,0-1.53-.79,21.1,21.1,0,0,0-2.33-.89c-.41-.12-.84-.23-1.26-.31s-.9-.1-1.35-.13h-.46C103.77,75.78,103.24,75.8,102.71,75.85Zm71.67,3.86a17.35,17.35,0,0,1,.07,4.32,17.63,17.63,0,0,1-2.53,7.15,18,18,0,0,1-2.52,3.3,15.4,15.4,0,0,1-3.34,2.44l0,0a11.44,11.44,0,0,1-1.5.71c2.08.06,4.18,0,6.26,0s4.34-.13,6.5-.34h0a35.78,35.78,0,0,0,4.24-.73l.49-.12c1-.25,2-.54,3-.85a.72.72,0,0,1,.21-.12l1.3-.51.18-.07c.95-.38,1.88-.79,2.8-1.22s1.57-.72,2.33-1.13a14.33,14.33,0,0,0,1.41-.86l1.11-.81a14.72,14.72,0,0,0,1.27-1.1,15.16,15.16,0,0,0,1.27-1.38,4.79,4.79,0,0,1,.48-.53l.09-.16c-.42-.07-.83-.16-1.24-.25-1.35-.27-2.66-.63-4-1a48,48,0,0,1-5.7-2.09,53.28,53.28,0,0,1-5.7-3l-.19-.12a50.75,50.75,0,0,1-5.24-3.73l-.78-.63h0l-.2-.17L173,75.57l0,0a0,0,0,0,1,0,0A12,12,0,0,1,174.38,79.71Zm-32,6.59a14.9,14.9,0,0,1-3.32,2.48,16,16,0,0,1-3.51,1.5c1.84,1,3.69,2.07,5.62,3a52.59,52.59,0,0,0,5.18,1.9,44,44,0,0,0,4.52,1A17,17,0,0,1,148,94.08a12.63,12.63,0,0,1-2.92-3.63,10.73,10.73,0,0,1-.88-2.17,12.87,12.87,0,0,1-.38-2.55,11,11,0,0,1,0-1.15A12.1,12.1,0,0,1,142.4,86.3ZM161.46,76a10,10,0,0,1,2,.94,15.08,15.08,0,0,1,1.89,1.25,9,9,0,0,1,1.5,1.53c.2.27.4.54.59.82l.29.37,0,.08.05.06a8.59,8.59,0,0,1,1.05,1.84,11.89,11.89,0,0,1,.53,2,9.85,9.85,0,0,1-.25,4.18c-.09.37-.2.73-.32,1.1l.36-.56A14.71,14.71,0,0,0,170,88l-.08.19a2.72,2.72,0,0,0,.11-.25,18,18,0,0,0,.7-1.85,16.24,16.24,0,0,0,.46-1.95c.07-.51.13-1,.15-1.56a17.88,17.88,0,0,0-.07-1.93c-.06-.43-.13-.86-.22-1.29s-.21-.72-.34-1.08-.34-.76-.53-1.13-.42-.69-.66-1a9.15,9.15,0,0,0-.65-.77,11.52,11.52,0,0,0-.89-.82c-.21-.17-.44-.32-.66-.47-.41-.23-.83-.44-1.25-.65l-1.4-.71a1.43,1.43,0,0,1-.73-.9c-.19-.07-.37-.14-.55-.19-.43-.12-.87-.21-1.3-.29s-1-.11-1.46-.14-1.06,0-1.6.07-1,.16-1.45.26c-.63.16-1.24.36-1.86.58s-1.09.46-1.61.73a13.15,13.15,0,0,0-1.19.74c-.44.33-.85.67-1.26,1l-.09.08-.18.18a14.08,14.08,0,0,0-1.17,1.27c-.39.5-.76,1-1.1,1.53s-.65,1.17-.94,1.78-.56,1.36-.8,2.06-.31,1.16-.43,1.76A16.91,16.91,0,0,0,146.8,85c0,.4,0,.79,0,1.18s.11.65.18,1v0a11.46,11.46,0,0,1,.18-2.42,14,14,0,0,1,1.41-3.92,9.87,9.87,0,0,1,2.71-3.46,10,10,0,0,1,4.07-1.87,9.15,9.15,0,0,1,4,.15,2.43,2.43,0,0,1,.38,0A5.61,5.61,0,0,1,161.46,76ZM131.55,66.4a8.48,8.48,0,0,1,1.93.46c.22.08.44.16.66.26a10,10,0,0,1,3.35,1.77,10.33,10.33,0,0,1,2.23,2.52,9.3,9.3,0,0,1,1.15,3,18.73,18.73,0,0,1,.43,3,13.79,13.79,0,0,1-.08,3.08v0s0,0,0,.06A9.88,9.88,0,0,1,139.34,85c.21-.17.4-.34.6-.52a11.25,11.25,0,0,0,.93-1h0l0,0c.26-.33.49-.68.72-1a23.54,23.54,0,0,0,1.24-2.26c.25-.6.48-1.21.68-1.83.25-.91.44-1.82.6-2.75a15.59,15.59,0,0,0,.18-1.66c0-.29,0-.57,0-.85a10.68,10.68,0,0,0-.2-1.13,9.1,9.1,0,0,0-.32-1c-.13-.34-.29-.68-.45-1s-.43-.7-.67-1-.62-.76-.95-1.12-.62-.61-1-.89a10.77,10.77,0,0,0-1-.72c-.39-.23-.78-.44-1.19-.63q-.92-.39-1.86-.69c-.49-.13-1-.24-1.48-.34a15.9,15.9,0,0,0-1.68-.16,17.14,17.14,0,0,0-2,.08h-.09l-1.67.23a4.14,4.14,0,0,1-.78.05c-.69.21-1.37.43-2,.68a33.19,33.19,0,0,0-3.81,1.81l-1.27.73a3.36,3.36,0,0,1-.82.82c-.17.17-.32.34-.48.53v0c-.2.25-.38.51-.56.78s-.26.47-.38.71c-.27.64-.52,1.29-.73,2a20.75,20.75,0,0,0-.49,2.07h0c0,.21-.06.42-.07.63a14.41,14.41,0,0,1,1.76-3.72,11.86,11.86,0,0,1,3.32-3.11,13.37,13.37,0,0,1,3.17-1.51,16,16,0,0,1,3.13-.64c.36,0,.72-.06,1.08-.06A7.14,7.14,0,0,1,131.55,66.4Zm11.69-6.89c1.48.07,3,.23,4.44.39s2.94.38,4.39.69,2.92.71,4.36,1.16c.7.22,1.4.44,2.08.7a22.12,22.12,0,0,1,2.05.92c1.36.66,2.65,1.45,3.95,2.23s2.41,1.41,3.56,2.2,2.12,1.54,3.15,2.36h0c1.16.94,2.38,1.81,3.54,2.75l0,0,.42.34,1.35,1.08.61.49.15.13a51.88,51.88,0,0,0,5,3.53l.14.09.06,0a50.62,50.62,0,0,0,5.15,2.72,47,47,0,0,0,5.6,2.06,42.64,42.64,0,0,0,5.25,1.25h0l.94.15a36.74,36.74,0,0,1,3-3.34c-.77-.3-1.53-.64-2.27-1a20.72,20.72,0,0,1-2.84-1.67,39.75,39.75,0,0,1-3.21-2.72c-1-.88-1.93-1.77-2.86-2.69s-2-2.12-3-3.18c-.82-.84-1.64-1.68-2.5-2.48s-1.69-1.49-2.56-2.2c-1.95-1.57-4-3-6-4.55s-4-3-6.18-4.4h0c-.87-.53-1.75-1-2.66-1.53s-1.92-1-2.9-1.43c-1.46-.65-2.94-1.23-4.43-1.79s-3.09-1.12-4.65-1.62a49.84,49.84,0,0,0-6.17-1.46l-.64-.11.12,0a43.81,43.81,0,0,0-4.86-.56,45.82,45.82,0,0,0-5.49.22,24.44,24.44,0,0,0-2.56.44,22.76,22.76,0,0,0-2.3.73l-.09,0,0,0c-1.38.54-2.73,1.16-4.09,1.77s-2.63,1.24-3.9,1.94l-.18.1c-2.67,1.5-5.29,3.09-7.83,4.81s-4.82,3.25-7.29,4.78a44.86,44.86,0,0,1-4.56,2.5c-1.41.67-2.91,1.14-4.29,1.88a13.57,13.57,0,0,0-1.36.86,3.17,3.17,0,0,0-.35.29,1.54,1.54,0,0,0-.17.19l-.14.18-.07.13a.69.69,0,0,1,0,.13.22.22,0,0,0,0,.08.13.13,0,0,0,0,.06v0a.11.11,0,0,1,0,0h0l0,.07.06.1.11.12.1.09q.21.17.42.3l.45.24.52.2c.38.1.76.18,1.14.25h-.07l.15,0h0a23.06,23.06,0,0,0,2.35.22h0a21.92,21.92,0,0,0,2.69-.08,20.72,20.72,0,0,0,2.2-.4c.66-.17,1.28-.4,1.91-.63a19.17,19.17,0,0,0,2.2-1c2.55-1.46,5-3.15,7.54-4.56a31.74,31.74,0,0,1,3.59-1.69,43.62,43.62,0,0,1,4.32-1.42c1.47-.41,2.95-.83,4.45-1.12a29.08,29.08,0,0,1,4.36-.48c.88,0,1.76-.08,2.64-.08C142,59.47,142.6,59.49,143.24,59.51Zm11.83,19.76-.24.16-.29.24-.4.44c0,.07-.11.14-.15.21a4,4,0,0,0-.24.46c-.06.12-.1.25-.15.37s0,.21-.07.31,0,.09,0,.14,0,.21,0,.32,0,0,0,.06a.56.56,0,0,0,0,.12,2.26,2.26,0,0,0,.11.22,1.22,1.22,0,0,0,.12.19l.17.2.24.21.16.11a4,4,0,0,0,.46.24l.43.16.4.09.53.06h.1a7.15,7.15,0,0,0,1,0l.64-.1.4-.14.39-.18.34-.22.29-.24a3.85,3.85,0,0,0,.27-.3l.18-.25a3.72,3.72,0,0,0,.21-.39l.09-.23,0-.15s0-.08,0-.11a1.48,1.48,0,0,1,0-.21s0-.09,0-.13a.74.74,0,0,1,0-.14,2,2,0,0,1-.1-.21l-.18-.27-.18-.22-.16-.14a.83.83,0,0,0-.15-.11l-.15-.08-.31-.12-.34-.08-.53,0a8.93,8.93,0,0,0-1.16,0h-.09a1.56,1.56,0,0,1-1.24-.39A1.27,1.27,0,0,1,155.07,79.27ZM145.54,45a40.2,40.2,0,0,1,4.76.6c1.57.26,3.12.56,4.66,1a89.33,89.33,0,0,1,9,3,51.37,51.37,0,0,1,8.29,4.07,89.5,89.5,0,0,1,7.58,5.38c1.22.93,2.47,1.83,3.69,2.75s2.34,1.85,3.47,2.83c2.13,1.85,4,4,5.93,6,.94,1,1.92,1.89,2.91,2.8s1.88,1.71,2.86,2.52a14.33,14.33,0,0,0,1.26.9h0a27.32,27.32,0,0,0,2.83,1.5c.69.31,1.41.56,2.11.83l1.2-1a1.68,1.68,0,0,1-.33-.55c-.19-.56-.35-1.14-.54-1.7s-.37-1-.56-1.54a.36.36,0,0,0,0,.09,84.88,84.88,0,0,0-4.59-9.8,29.48,29.48,0,0,0-1.75-2.69,54.5,54.5,0,0,0-4-4.72c-1.23-1.26-2.5-2.47-3.81-3.65s-2.51-2.26-3.83-3.33a26.91,26.91,0,0,0-2.29-1.68l-.25-.13,0,0a.82.82,0,0,1-.22,0h0a1.16,1.16,0,0,1-.37,0l-.07,0-.12.4a3.35,3.35,0,0,1-.62,1.2,1.93,1.93,0,0,1-1,.57,4.3,4.3,0,0,1-1.12.14,10,10,0,0,1-1.46-.14,31,31,0,0,1-3.56-.78c-1.38-.38-2.77-.76-4.13-1.2a31.63,31.63,0,0,1-4-1.57c-1.32-.62-2.59-1.35-3.84-2.08s-2.44-1.43-3.65-2.16q-.95-.57-1.86-1.2a8.24,8.24,0,0,1-1.67-1.38,2.35,2.35,0,0,1-.4-.7,3.07,3.07,0,0,1-.53,0c-.41,0-.82,0-1.24,0-1.1,0-2.21-.08-3.31-.05s-2.24.1-3.36.21a64.15,64.15,0,0,0-6.75,1.11,38.69,38.69,0,0,0-4.21,1.31l-.18.07-.06,0h0a27.52,27.52,0,0,0-3.12,1.44,43.33,43.33,0,0,0-3.94,2.61,64.74,64.74,0,0,0-5.62,4.7l-.4.4,1.45-.82h0l.09,0,.08,0h0c.84-.47,1.69-.93,2.56-1.34s1.85-.84,2.78-1.25a36.93,36.93,0,0,1,6.1-2.26,26.29,26.29,0,0,1,4.41-.61c1-.06,2-.09,3-.09C144.37,45,145,45,145.54,45ZM109.76,73.72a21.35,21.35,0,0,1,2.9,1.38c.93.53,1.82,1.14,2.71,1.74a12,12,0,0,1,.53-4.36c.1-.39.22-.78.35-1.17-.6.34-1.2.66-1.83,1a19.69,19.69,0,0,1-3.65,1.26l.13,0Q110.33,73.61,109.76,73.72ZM128.49,71l-.26,0-.43.14-.3.14c-.12.07-.24.14-.35.22l-.28.24a4.12,4.12,0,0,0-.28.31c-.09.11-.17.23-.25.35a1.24,1.24,0,0,0-.1.2.87.87,0,0,0-.07.17,2.86,2.86,0,0,0-.07.28.78.78,0,0,1,0,.16.53.53,0,0,1,0,.13s0,0,0,.08l0,.1.13.28c.06.09.12.19.19.28a1.74,1.74,0,0,0,.18.22l.29.27.38.27.5.27.6.23.39.08.41,0,.59,0,.57-.1c.21-.06.41-.13.6-.2l.46-.2.22-.14.11-.09.13-.15.25-.35c.07-.12.13-.24.19-.36a.87.87,0,0,1,.07-.17.7.7,0,0,1,0-.14s0-.08,0-.12V73.3l0-.14c0-.07,0-.14-.07-.22a.47.47,0,0,0-.05-.1.83.83,0,0,0-.08-.12l-.06-.08-.12-.1-.13-.1-.32-.17a9.81,9.81,0,0,0-1.08-.37,1.64,1.64,0,0,1-1.06-.94l-.29,0h-.66Zm17.63-2.16a11.71,11.71,0,0,1,1,3.21,11.49,11.49,0,0,1,.05,3.26c.16-.23.33-.46.51-.68l0,0a17.36,17.36,0,0,1,3.66-3.5A16.93,16.93,0,0,1,155.79,69a14.54,14.54,0,0,1,4.72-.72,14,14,0,0,1,2.81.3A51.14,51.14,0,0,0,158,65.68a35.57,35.57,0,0,0-3.77-1.28l-.14-.05a38.51,38.51,0,0,0-4.4-1c-1.2-.19-2.41-.33-3.61-.45s-2.48-.24-3.72-.29q-1.57,0-3.15,0c.3.12.59.25.88.39a13.18,13.18,0,0,1,3.75,2.74l.15.16-.08-.08A12.32,12.32,0,0,1,146.12,68.82Zm23.35-24.1h0a36.2,36.2,0,0,0,3.73,1.36,49.71,49.71,0,0,0,6.1,1.59h.11c.32,0,.64.09,1,.11h.1s0,0,0,0c.18-.62.34-1.23.52-1.84a1.84,1.84,0,0,1,.22-.47,7.6,7.6,0,0,1-1.78-.65,12.35,12.35,0,0,1-1.88-1.22,1.48,1.48,0,0,1-.45-1.87,1.45,1.45,0,0,1,2-.6c.55.33,1.11.64,1.68.91.23.1.45.19.68.27s.49.12.73.17a17.46,17.46,0,0,0,1.76.17c.5,0,1,0,1.5-.07s1.25-.2,1.87-.34c.45-.11.89-.25,1.33-.4h0c.33-.14.64-.28,1-.44s.36-.23.55-.35l.49-.41c.14-.14.27-.28.4-.43s.22-.29.32-.44.19-.34.27-.51.12-.33.17-.5a5.23,5.23,0,0,0,.12-.54c0-.18,0-.35,0-.53s0-.38,0-.57-.06-.4-.1-.61-.16-.54-.25-.81-.35-.74-.54-1.11-.63-1-1-1.5-1-1.23-1.51-1.81-1.08-1.05-1.66-1.54c-.31-.23-.61-.45-.93-.66-.51-.3-1-.58-1.54-.83s-1.22-.49-1.84-.69a31.74,31.74,0,0,0-3.18-.72l-.15,0-.19,0-.11,0-.07,0h0c-.88-.13-1.77-.24-2.66-.29a2.43,2.43,0,0,1,.14.2,1.55,1.55,0,0,1-.55,2.26,1.45,1.45,0,0,1-1.45-.13,1.23,1.23,0,0,1-.4-.45c-.3-.37-.64-.71-.95-1.07s-.82-1-1.21-1.46c-.77-.95-1.55-1.89-2.39-2.77-.62-.63-1.27-1.22-2-1.79s-1.26-1-1.93-1.39a17.31,17.31,0,0,0-1.8-1c-.47-.2-.94-.38-1.42-.54-.71-.2-1.42-.36-2.15-.5-.47-.07-.94-.14-1.42-.17l-.76,0c-.37.05-.72.11-1.08.19l-.77.25-.7.33c-.24.15-.48.3-.71.46s-.63.52-.94.8-.55.61-.82.94-.41.57-.59.86-.32.59-.46.89-.15.39-.22.6-.09.37-.13.56-.06.42-.08.64,0,.41,0,.63a10.13,10.13,0,0,0,.18,1.08c.11.38.24.76.37,1.13s.24.54.37.81.42.67.64,1,.4.47.6.69c.36.35.74.69,1.12,1s1,.75,1.58,1.11a29.55,29.55,0,0,0,2.84,1.5c.83.36,1.66.69,2.51,1,.46.14.91.26,1.38.37s.93.2,1.4.29c2.72.4,5.43.75,8.16,1A1.47,1.47,0,0,1,174,37.46a1.45,1.45,0,0,1-1.45,1.3h-.13l-5-.44a35.08,35.08,0,0,1-4.79-.63,27.54,27.54,0,0,1-3-.91l-.18.41q-.24.62-.45,1.23l0,.14.1.08c.59.46,1.21.88,1.84,1.28l0,0c1.31.8,2.65,1.58,4,2.36s2.86,1.63,4.36,2.32l.1.05,0,0Z" fill="#110802"/>
        <path d="M100,126.41a2.38,2.38,0,0,1-1.38-.61A7.79,7.79,0,0,1,97,123.63a18,18,0,0,1-1.5-3.76,25.21,25.21,0,0,1-.64-8.66A45.91,45.91,0,0,1,96.25,102a39.67,39.67,0,0,1,3.57-8.63,29.92,29.92,0,0,1,1.94-3.15,24.8,24.8,0,0,1,2.31-2.6,18.52,18.52,0,0,1,2.68-2.32,1.93,1.93,0,0,1,1.53-.4,1.43,1.43,0,0,1,1,2,1.36,1.36,0,0,1-.72.64l-.42.3.07,0a17.85,17.85,0,0,0-1.47,1.27c-.75.74-1.5,1.5-2.17,2.3-.45.59-.86,1.2-1.25,1.83a49.59,49.59,0,0,0-2.37,4.58,39,39,0,0,0-1.6,4.3c-.34,1.22-.63,2.44-.86,3.69a58.68,58.68,0,0,0-.69,6.5,33.35,33.35,0,0,0,.1,4.24c.06.52.14,1,.25,1.54a22.36,22.36,0,0,0,.84,2.67,1.46,1.46,0,0,1-.07-.19,14.09,14.09,0,0,0,.7,1.53c.17.3.36.57.55.85l.12.15a.83.83,0,0,1,.07-.13,22.44,22.44,0,0,0,.76-2.13.83.83,0,0,0,0,.15c.35-1.18.63-2.37,1-3.54a39.56,39.56,0,0,1,1.6-4c1.13-2.54,2.36-5,3.66-7.5.67-1.26,1.35-2.51,2.11-3.72a17.25,17.25,0,0,1,2.51-3.08,37.9,37.9,0,0,1,3-2.7A16,16,0,0,1,117,94.86a2.71,2.71,0,0,1,.37-.21,1.47,1.47,0,0,1,1.85.53,1.5,1.5,0,0,1-.29,1.91,14.81,14.81,0,0,1-1.18.91l.16-.11a38.1,38.1,0,0,0-3.57,3l-.09.08a18.51,18.51,0,0,0-1.29,1.37h0v0l-.07.09,0,0,0,0h0c-.43.55-.82,1.13-1.19,1.71-1,1.64-1.88,3.36-2.74,5.08s-1.66,3.41-2.45,5.14a39.89,39.89,0,0,0-1.61,4.09.36.36,0,0,0,0,.11s0,0,0,0a38.45,38.45,0,0,1-1.91,5.88,3.69,3.69,0,0,1-1.67,1.73,2.51,2.51,0,0,1-1.11.23Z" fill="#110802"/>
        <path d="M112.89,102.47l0,0,0,0h0Z" fill="#110802"/>
        <path d="M113.11,117.81a4.09,4.09,0,0,1-2-2.58,10.38,10.38,0,0,1-.43-2.34.13.13,0,0,0,0,.06,31.6,31.6,0,0,1,.31-8,27.35,27.35,0,0,1,1-4.21,10.2,10.2,0,0,1,.85-1.91,2.37,2.37,0,0,1,.72-.85,1.48,1.48,0,0,1,1.47-.07,1.42,1.42,0,0,1,.76,1.21,1.56,1.56,0,0,1-.18.74l0-.09a1.18,1.18,0,0,1-.1.19.61.61,0,0,0,.07-.1,1.37,1.37,0,0,1-.2.29s0,0,0,0a5.68,5.68,0,0,0-.28.55,12.34,12.34,0,0,0-.5,1.32c-.24.83-.42,1.68-.58,2.53a43.13,43.13,0,0,0-.51,4.93,25.92,25.92,0,0,0,.12,2.92l0-.2c.06.56.14,1.12.25,1.67,0,.18.11.37.17.55s.11.23.17.34l.1.17,0,0,.07-.06.22-.24c.14-.18.27-.37.39-.56.69-1.15,1.21-2.38,1.79-3.58a37.49,37.49,0,0,1,2.18-3.86,35.56,35.56,0,0,1,2.46-3.38,37.88,37.88,0,0,1,2.54-3,8,8,0,0,1,1.83-1.45,1.46,1.46,0,0,1,1.88.29,1.44,1.44,0,0,1-.17,2c-.34.27-.66.57-1,.87l.14-.14a37.33,37.33,0,0,0-2.88,3.28l.12-.15a40.91,40.91,0,0,0-2.73,3.79v0l0,0v0h0l0,0h0c-.73,1.23-1.4,2.48-2,3.77a21.45,21.45,0,0,1-1.94,3.59,4.25,4.25,0,0,1-1.76,1.52,2.77,2.77,0,0,1-2.34-.06Z" fill="#110802"/>
        <path d="M121.18,109l0,0,0,0Z" fill="#110802"/>
        <path d="M121.23,108.91l0,0Z" fill="#110802"/>
        <path d="M121.21,108.94h0l0,0Z" fill="#110802"/>
        <path d="M129.22,113.65a2.54,2.54,0,0,1-1.69-2.16,12.44,12.44,0,0,1,.17-4.3,30.68,30.68,0,0,1,.58-3.18,13.5,13.5,0,0,1,.42-1.37,2.63,2.63,0,0,1,.68-1.15,1.48,1.48,0,0,1,1.43-.25,1.44,1.44,0,0,1,.93,1.29,1.67,1.67,0,0,1-.14.64s0,0,0,0c-.14.34-.26.68-.38,1a1.21,1.21,0,0,0,0-.18,18.74,18.74,0,0,0-.45,2,33.26,33.26,0,0,0-.47,3.84c0,.21,0,.42,0,.63l.4-.27c.75-.58,1.46-1.21,2.17-1.83l2.22-1.87a11,11,0,0,1,4.06-2.45,1.49,1.49,0,0,1,1.76.77,1.47,1.47,0,0,1-.7,1.94c-.43.21-.86.4-1.28.63-.23.13-.45.27-.67.42h0s0,0,0,0h0l0,0h0c-1.08.81-2.1,1.71-3.14,2.58l-1.6,1.38a12.49,12.49,0,0,1-1.76,1.3,4.11,4.11,0,0,1-2,.64A2.83,2.83,0,0,1,129.22,113.65Z" fill="#110802"/>
        <path d="M138.35,107.78h0Z" fill="#110802"/>
        <path d="M178.54,132.59a3.2,3.2,0,0,1-.35-1.9c.07-1.2.19-2.4.34-3.6.24-1.94.51-3.88.6-5.84a49.16,49.16,0,0,0-.26-5.56,27.14,27.14,0,0,0-.59-3.59,1.29,1.29,0,0,1,0,.19c-.1-.42-.23-.82-.37-1.23a2.44,2.44,0,0,1-.1-.24,1.39,1.39,0,0,1-.57-1.9,1.59,1.59,0,0,1,2.15-.66,2.53,2.53,0,0,1,1,1.43c.17.38.3.77.43,1.16a21.88,21.88,0,0,1,.78,4.09c.15,1.44.27,2.87.33,4.31a35,35,0,0,1-.12,4.34c-.18,2-.52,4.07-.69,6.11.34-.29.67-.6,1-.91v0a27,27,0,0,0,2.1-2.31h0a1.34,1.34,0,0,1,.11-.14s0,0,0,0c.28-.35.55-.71.82-1.09a1.44,1.44,0,0,1,1.83-.44,1.26,1.26,0,0,1,.38.3c0,.09,0,.18,0,.27,0,.54-.08,1.07-.09,1.61v.3a18.5,18.5,0,0,1-2.26,2.88c-.47.5-1,1-1.47,1.43a8.66,8.66,0,0,1-2,1.45,3.32,3.32,0,0,1-1.45.37A1.93,1.93,0,0,1,178.54,132.59Z" fill="#110802"/>
        <path d="M184.29,126.5h0Z" fill="#110802"/>
        <path d="M108.24,60.87a.64.64,0,0,1,0,.07h0l.1.16h0l.11.15a2.58,2.58,0,0,1-.45-1.17c-.07-.24-.14-.48-.23-.72a12,12,0,0,0-.54-1.15,15.63,15.63,0,0,0-.94-1.45c-.72-1-1.59-1.79-2.3-2.76a5,5,0,0,1-.84-3.82,3.34,3.34,0,0,1,1.8-2.5,5.22,5.22,0,0,1,2.39-.23h.53l.22,0,.16,0,.13-.06.21-.13a1.07,1.07,0,0,0,.16-.14,3.83,3.83,0,0,0,.28-.29,10.45,10.45,0,0,0,.63-.9c.34-.58.65-1.18.93-1.79l-.09.18a22.22,22.22,0,0,0,.89-2.35c.37-1.27.58-2.58.91-3.86a5.22,5.22,0,0,1,.79-1.9,3,3,0,0,1,3-1.15,3.6,3.6,0,0,1,2.24,1.89,40.19,40.19,0,0,1,1.78,3.82c1,2.46,2,5,2.83,7.52a10.58,10.58,0,0,1,.37,1.55,1.49,1.49,0,0,1-1,1.65,1.47,1.47,0,0,1-1.77-.77c-.47-1.13-.8-2.31-1.2-3.46s-.73-2.08-1.13-3.11-.81-2-1.24-3-.77-1.82-1.24-2.7c-.08-.14-.17-.28-.26-.42l0,0a4.24,4.24,0,0,0-.18.5c-.37,1.26-.53,2.57-.89,3.84a18.54,18.54,0,0,1-2.64,5.75,5.46,5.46,0,0,1-2.65,2.14,6.94,6.94,0,0,1-2.61.16h-.29l0,.06a.16.16,0,0,0,0,.06.19.19,0,0,0,0,.08c0,.06,0,.12,0,.19a1.94,1.94,0,0,0,0,.24c0,.1,0,.2,0,.3s0,.22,0,.33l0,.13.08.17.18.28c.48.63,1,1.2,1.53,1.79a15.47,15.47,0,0,1,1.68,2.35,10.9,10.9,0,0,1,1.13,2.6,4.24,4.24,0,0,1,.25,1.49,1.45,1.45,0,0,1-1.37,1.29h0A1.42,1.42,0,0,1,108.24,60.87Z" fill="#110802"/>
        <path d="M107.32,47.45h0Z" fill="#110802"/>
        <path d="M107.31,47.45h0Z" fill="#110802"/>
        <path d="M111.4,39l-.71-1.33a1.09,1.09,0,0,1-.08-.15,57.69,57.69,0,0,0-3.72-5.8c-1-1.32-2.07-2.6-3.07-3.92l-1.41-1.87a2.9,2.9,0,0,1-.59-1,1.65,1.65,0,0,1,0-.88v0h0a.48.48,0,0,1,.06-.18.52.52,0,0,1,.06-.16l0,.05a1.42,1.42,0,0,1,2.6.11l0,.05c.81,1.08,1.64,2.15,2.48,3.2s1.85,2.27,2.71,3.46,1.62,2.31,2.35,3.51A25.79,25.79,0,0,1,114,37.54a1.47,1.47,0,0,1-.53,1.85,1.51,1.51,0,0,1-.8.22A1.36,1.36,0,0,1,111.4,39Z" fill="#110802"/>
        <path d="M102.32,48.58q-.54-.64-1.11-1.26a4.83,4.83,0,0,0-.4-.38,1.44,1.44,0,0,1,.29-2.61c.88-.3,1.62.38,2.17,1s.86,1,1.26,1.43a1.47,1.47,0,0,1-.17,2,1.44,1.44,0,0,1-.92.33A1.49,1.49,0,0,1,102.32,48.58Z" fill="#110802"/>
        <path d="M147.34,89.22a1.55,1.55,0,0,1-.46-1c0,.07,0,.22.05.31s0,0,0,.06,0,0,0-.06,0,.12,0-.12h0a2.91,2.91,0,0,1,0-.31v-.07c-.08-.29-.17-.57-.23-.87a8.85,8.85,0,0,1-.12-.9,9.62,9.62,0,0,1,0-1.78,8.7,8.7,0,0,1,1.41-3.74,10.72,10.72,0,0,1,.78-1,6.44,6.44,0,0,1,.48-.56,5.81,5.81,0,0,1,.9-.74l0,0a11,11,0,0,1,3.5-1.62,14,14,0,0,1,2.22-.49,7.68,7.68,0,0,1,1.79,0,1.46,1.46,0,0,1,1.31,1.39,1.41,1.41,0,0,1-.2.79c.34.11.68.25,1,.39l0,0a1.75,1.75,0,0,1,.5.23,1.5,1.5,0,0,1,0,2.44,2.56,2.56,0,0,1,.32.64,2.14,2.14,0,0,1-.56,2.2,2.36,2.36,0,0,1-.94.58,2.66,2.66,0,0,1-1.53,0,2.58,2.58,0,0,1-1.07-.62,10.89,10.89,0,0,1-2.57.59A2,2,0,0,1,152,83.8a2,2,0,0,1,0-1.69l-.66.44c-.31.25-.61.5-.91.77s-.33.34-.49.52l-.14.18a2.6,2.6,0,0,1-.42.85c0,.16,0,.32,0,.48,0,.31,0,.61,0,.92a4,4,0,0,0,.09.59,6.45,6.45,0,0,1,.21,1,3,3,0,0,1,0,.52v0a1.29,1.29,0,0,1-.07.31h0v0h0a1.43,1.43,0,0,1-1.27.92h-.06A1.36,1.36,0,0,1,147.34,89.22Z" fill="#110802"/>
        <path d="M150.12,78.4h0Z" fill="#110802"/>
        <path d="M150.15,78.38l0,0Z" fill="#110802"/>
        <path d="M150.14,78.38h0Z" fill="#110802"/>
        <path d="M150.26,78.29l-.11.09Z" fill="#110802"/>
        <path d="M127.21,77a2.73,2.73,0,0,1-1.3-1.16l-.26,0a1.46,1.46,0,0,1-1.88-.5,1.43,1.43,0,0,1,.26-1.83,2.41,2.41,0,0,1,.36-.91,3.5,3.5,0,0,1,.76-.82,4.18,4.18,0,0,1,.45-.57,4,4,0,0,1,1.36-.89,5,5,0,0,1,3.79,0,4.76,4.76,0,0,1,2.54,1.85,2.05,2.05,0,0,1,.25,1.14,2.16,2.16,0,0,1-.41,1,2,2,0,0,1-.76.66,3,3,0,0,1-1.43,1.91,3.78,3.78,0,0,1-1.88.47A4.54,4.54,0,0,1,127.21,77Z" fill="#110802"/>
        <path d="M126.07,73.19a1.87,1.87,0,0,1-.77-.78,1.65,1.65,0,0,1-.07-1.27,2.19,2.19,0,0,1,1.2-1.17,5.22,5.22,0,0,1,1.73-.5h.08a3.74,3.74,0,0,1,.67,0l.28,0H129a1.69,1.69,0,0,1,.73.16,1.88,1.88,0,0,1,.86,2.16,2.91,2.91,0,0,1-1.51,1.25,5.34,5.34,0,0,1-1.17.32,6.16,6.16,0,0,1-.76.06A2.15,2.15,0,0,1,126.07,73.19Z" fill="#fefefe"/>
        <path d="M128.16,69.47h0Z" fill="#fefefe"/>
        <path d="M152.93,82.28a1.71,1.71,0,0,1-.77-2.56,3.56,3.56,0,0,1,1.44-1.07,7.74,7.74,0,0,1,1.38-.54A2.39,2.39,0,0,1,156,78a1.51,1.51,0,0,1,.89.52,1.09,1.09,0,0,1,.13.17,1.39,1.39,0,0,1,.38.25,1.44,1.44,0,0,1,.08,2,4.8,4.8,0,0,1-2.28,1.2,5.2,5.2,0,0,1-1.4.24A2.69,2.69,0,0,1,152.93,82.28Z" fill="#fefefe"/>
        <path d="M200.2,80.47c.74.37,1.5.71,2.27,1a38.12,38.12,0,0,0-3,3.34l-.94-.15h0a44.5,44.5,0,0,1-5.25-1.24,48.16,48.16,0,0,1-5.6-2.07,50.62,50.62,0,0,1-5.15-2.72l-.06,0-.14-.09a51.88,51.88,0,0,1-5-3.53l-.16-.13-.6-.48-1.35-1.09-.42-.34,0,0c-1.16-.94-2.38-1.81-3.54-2.74h0c-1-.82-2.06-1.62-3.15-2.36s-2.36-1.49-3.56-2.2-2.59-1.56-3.95-2.23c-.67-.33-1.35-.65-2.05-.92s-1.38-.48-2.08-.7c-1.44-.45-2.89-.84-4.36-1.16a44,44,0,0,0-4.39-.68c-1.48-.17-3-.33-4.44-.39-.65,0-1.29-.05-1.93-.05-.88,0-1.76,0-2.64.08a32,32,0,0,0-4.36.48c-1.5.29-3,.71-4.45,1.13a41.1,41.1,0,0,0-4.32,1.41A33.57,33.57,0,0,0,122,64.26c-2.59,1.41-5,3.1-7.54,4.56a19.17,19.17,0,0,1-2.2,1,18.55,18.55,0,0,1-1.91.63,18.27,18.27,0,0,1-2.21.4,21.76,21.76,0,0,1-2.68.08h0a20.53,20.53,0,0,1-2.35-.22s0,0,0,0h0l-.15,0h.07c-.38-.07-.76-.15-1.14-.25l-.53-.2-.44-.24-.42-.29-.1-.1-.11-.12a.86.86,0,0,1-.07-.1s0,0,0-.07h0a.07.07,0,0,0,0,0v-.06a.13.13,0,0,1,0-.06.22.22,0,0,1,0-.08.69.69,0,0,0,0-.13l.07-.13.13-.18.18-.19.34-.29a15,15,0,0,1,1.37-.86c1.38-.74,2.88-1.21,4.29-1.88a44.86,44.86,0,0,0,4.56-2.5c2.47-1.53,4.89-3.15,7.29-4.78s5.15-3.31,7.83-4.81l.18-.09q1.91-1.07,3.9-2c1.36-.61,2.71-1.23,4.09-1.77l0,0,.09,0a19.89,19.89,0,0,1,2.3-.74,24.44,24.44,0,0,1,2.56-.44,45.82,45.82,0,0,1,5.49-.22,43.81,43.81,0,0,1,4.86.56l-.12,0,.64.11a49.87,49.87,0,0,1,6.17,1.47c1.56.49,3.1,1.05,4.64,1.62s3,1.13,4.44,1.79c1,.44,2,.92,2.9,1.42s1.79,1,2.66,1.53h0c2.14,1.35,4.19,2.86,6.19,4.4s4,3,6,4.56c.87.7,1.74,1.42,2.56,2.19s1.68,1.64,2.5,2.49c1,1,2,2.15,3,3.17s1.89,1.81,2.86,2.69a42,42,0,0,0,3.21,2.73A20.65,20.65,0,0,0,200.2,80.47Z" fill="#f0caa1"/>
        <path d="M194.63,94.84c0,.09,0,.18-.07.27-.22.84-.42,1.67-.59,2.52a1.39,1.39,0,0,0-.83,0,4,4,0,0,0-1.49,1.19,33.4,33.4,0,0,0-2.19,2.72,17.47,17.47,0,0,0-1.74,2.86c-.18.39-.35.79-.5,1.19l-.12,0c-3.4.56-6.78,1.24-10.21,1.62h.16c-2.94.29-5.9.39-8.87.44-2.8,0-5.59.09-8.39,0h0a50.53,50.53,0,0,1-6.62-.56c-1.41-.25-2.8-.58-4.18-.93-1.57-.4-3.14-.79-4.68-1.25-2.38-.73-4.72-1.56-7.06-2.4-2.18-.77-4.33-1.61-6.45-2.55a71.08,71.08,0,0,1-7.19-3.87,44,44,0,0,1-4.35-3c-.9-.75-1.76-1.54-2.61-2.35a76.47,76.47,0,0,0-6.25-5.55A16.21,16.21,0,0,0,106.69,83c-1.26-.49-2.56-.83-3.86-1.22a15.82,15.82,0,0,1-1.5-.55c-.18-.09-.36-.18-.54-.29s-.24-.16-.35-.24a3.2,3.2,0,0,1-.27-.25l-.27-.32c-.07-.11-.15-.22-.21-.33s-.11-.22-.16-.33-.07-.23-.1-.33,0-.22-.05-.32,0-.18,0-.27,0-.21,0-.32l.06-.27.06-.17.13-.23.16-.23q.14-.16.3-.33l.32-.28.47-.3.56-.26.62-.19c.21,0,.42-.08.63-.11.53,0,1.06-.07,1.59-.07h.45a12.27,12.27,0,0,1,1.36.12c.42.08.84.19,1.26.31a21.9,21.9,0,0,1,2.33.89c.52.24,1,.5,1.53.79,1.1.7,2.16,1.46,3.24,2.17s2.26,1.51,3.34,2.34l3.32,2.6c1.12.9,2.27,1.76,3.47,2.56s2.61,1.64,4,2.39,2.57,1.41,3.84,2.13,2.65,1.52,4,2.24a46.49,46.49,0,0,0,8.47,3.61,38.9,38.9,0,0,0,4.53,1.12c1.53.26,3.06.5,4.6.69,3.13.39,6.26.79,9.41.91s6.24.06,9.35,0c1.47,0,2.94-.13,4.41-.27a33,33,0,0,0,4.62-.77,65.59,65.59,0,0,0,8.65-2.8A29.4,29.4,0,0,0,194.63,94.84Z" fill="#f0caa1"/>
        <path d="M197.44,87.72l-.1.16a4,4,0,0,0-.47.53,16.48,16.48,0,0,1-1.27,1.37,14.72,14.72,0,0,1-1.27,1.1l-1.11.82c-.45.31-.93.59-1.41.86-.76.41-1.54.76-2.33,1.12s-1.85.84-2.8,1.22l-.18.07-1.3.51a.72.72,0,0,0-.21.12c-1,.31-2,.6-3,.85l-.49.12a38,38,0,0,1-4.24.74h0c-2.16.21-4.33.28-6.5.33s-4.18.07-6.27,0a12.94,12.94,0,0,0,1.5-.72l0,0a14.76,14.76,0,0,0,3.34-2.44,18.9,18.9,0,0,0,5-10.45,17.35,17.35,0,0,0-.07-4.32,11.94,11.94,0,0,0-1.44-4.18h0l0,0,1.41,1.13.2.16h0l.78.63a51.72,51.72,0,0,0,5.23,3.73l.2.12a51.53,51.53,0,0,0,5.7,3,46.29,46.29,0,0,0,5.7,2.09c1.31.41,2.62.76,4,1Z" fill="#cc4f32"/>
        <path d="M116.25,71.31c-.13.39-.25.78-.35,1.17a12,12,0,0,0-.53,4.36c-.89-.6-1.78-1.21-2.71-1.74a22.74,22.74,0,0,0-2.91-1.38c.39-.07.77-.15,1.15-.24l-.13,0a19.69,19.69,0,0,0,3.65-1.26C115,72,115.65,71.65,116.25,71.31Z" fill="#cc4f32"/>
        <path d="M148,94.08a17.35,17.35,0,0,0,2.91,2.08c-1.52-.28-3-.6-4.51-1a53.72,53.72,0,0,1-5.19-1.9c-1.92-.88-3.77-1.91-5.61-3a16,16,0,0,0,3.51-1.5,15.13,15.13,0,0,0,3.32-2.48,12.23,12.23,0,0,0,1.4-1.72,8.84,8.84,0,0,0,0,1.15,13.08,13.08,0,0,0,.38,2.56,10.61,10.61,0,0,0,.87,2.16A12.7,12.7,0,0,0,148,94.08Z" fill="#cc4f32"/>
        <path d="M163.32,68.57a14,14,0,0,0-2.81-.3,14.54,14.54,0,0,0-4.72.72,16.78,16.78,0,0,0-4.38,2.08,17.36,17.36,0,0,0-3.66,3.5l0,0c-.18.22-.35.45-.52.68a11.06,11.06,0,0,0,0-3.25,11.44,11.44,0,0,0-3.22-6.22l.08.08-.16-.16A13,13,0,0,0,140.12,63c-.29-.14-.58-.27-.88-.39,1,0,2.1-.06,3.14,0,1.25.05,2.49.15,3.73.29s2.41.26,3.61.45a37,37,0,0,1,4.4,1l.13,0A38.17,38.17,0,0,1,158,65.68,55.23,55.23,0,0,1,163.32,68.57Z" fill="#cc4f32"/>
        <path d="M192,37.11c0,.2,0,.38,0,.57s0,.35,0,.53a5.23,5.23,0,0,1-.12.54c-.05.17-.11.34-.17.5a5,5,0,0,1-.27.51,4.48,4.48,0,0,1-.32.44c-.13.15-.26.29-.4.43s-.32.28-.49.41l-.55.35c-.31.16-.62.3-1,.44h0c-.44.14-.89.28-1.33.39a17.05,17.05,0,0,1-1.87.34c-.5,0-1,.07-1.51.07a17.55,17.55,0,0,1-1.75-.17c-.25,0-.49-.1-.73-.16l-.68-.27c-.57-.28-1.14-.59-1.68-.92a1.45,1.45,0,0,0-1.52,2.47,12.35,12.35,0,0,0,1.88,1.22,7.18,7.18,0,0,0,1.78.65,1.84,1.84,0,0,0-.22.47c-.18.61-.34,1.23-.52,1.84,0,0,0,0,0,0h-.1c-.31,0-.63-.06-1-.11h0l-.05,0h0a49.71,49.71,0,0,1-6.1-1.59,34,34,0,0,1-3.73-1.36h0l-.15-.06h0l-.11,0c-1.5-.7-2.92-1.5-4.35-2.33s-2.66-1.56-4-2.36l0,0c-.63-.4-1.25-.82-1.84-1.28a.39.39,0,0,1-.1-.08l0-.13q.21-.63.45-1.23l.18-.42a25.51,25.51,0,0,0,3,.91,33.59,33.59,0,0,0,4.79.63l5,.44h.13a1.45,1.45,0,0,0,.16-2.9q-4.09-.43-8.16-1c-.47-.09-.94-.17-1.41-.29s-.91-.23-1.37-.37c-.85-.29-1.68-.62-2.51-1a29.63,29.63,0,0,1-2.84-1.51c-.54-.35-1.06-.72-1.58-1.11s-.76-.66-1.12-1-.4-.45-.6-.69-.44-.65-.64-1-.25-.53-.37-.8-.26-.75-.37-1.14-.14-.72-.19-1.08,0-.42,0-.63.05-.43.08-.64.08-.37.13-.56.14-.4.22-.6.29-.59.46-.88a10.22,10.22,0,0,1,.59-.87c.26-.33.53-.63.82-.94s.62-.54.94-.8.47-.31.71-.45l.7-.34.77-.25c.36-.08.71-.14,1.07-.19l.77,0c.48,0,1,.1,1.42.18a20.27,20.27,0,0,1,2.15.5c.48.16.95.34,1.41.53a16.49,16.49,0,0,1,1.81,1c.67.43,1.3.9,1.93,1.39s1.33,1.16,2,1.79c.83.89,1.62,1.82,2.38,2.77.4.49.81,1,1.22,1.46s.65.7.94,1.07a1.36,1.36,0,0,0,.41.45,1.45,1.45,0,0,0,1.45.13,1.55,1.55,0,0,0,.55-2.26l-.14-.2c.89.06,1.77.16,2.66.29h0l.11,0,.19,0,.15,0a31.74,31.74,0,0,1,3.18.72q.93.3,1.83.69c.53.26,1,.53,1.55.83.32.21.62.43.93.66.58.49,1.13,1,1.66,1.54s1,1.18,1.51,1.81.67,1,1,1.5.37.74.53,1.12a7.46,7.46,0,0,1,.26.8C191.89,36.71,191.92,36.91,192,37.11Z" fill="#fefefe"/>
        <path d="M171.3,80.66a17.88,17.88,0,0,1,.07,1.93q0,.8-.15,1.56a18.41,18.41,0,0,1-.46,1.95,18,18,0,0,1-.7,1.85,1.89,1.89,0,0,1-.11.25L170,88a13.86,13.86,0,0,1-.85,1.62l-.36.56c.12-.37.22-.73.31-1.1a9.53,9.53,0,0,0,.25-4.18,12.1,12.1,0,0,0-.52-2A8.59,8.59,0,0,0,167.81,81l-.05-.06-.06-.08-.28-.37c-.19-.28-.39-.55-.59-.82a9.44,9.44,0,0,0-1.5-1.53,15.08,15.08,0,0,0-1.89-1.25,9.79,9.79,0,0,0-2-.94,5.55,5.55,0,0,0-1.67-.37,1.58,1.58,0,0,0-.38,0,9.15,9.15,0,0,0-4-.16,10.09,10.09,0,0,0-4.07,1.87,6.94,6.94,0,0,0-.94.85l-.28.19,0,0a5.73,5.73,0,0,0-.89.74,6.33,6.33,0,0,0-.49.56,11.28,11.28,0,0,0-.78,1,9.62,9.62,0,0,0-.61,1.08l.09-.34c.24-.7.5-1.38.79-2.06s.61-1.2,1-1.78.71-1,1.1-1.53a15.57,15.57,0,0,1,1.17-1.27l.17-.17.09-.09c.42-.36.83-.71,1.27-1s.78-.51,1.18-.74,1.07-.51,1.62-.73,1.23-.42,1.86-.58c.48-.1,1-.19,1.45-.25s1.06-.07,1.6-.07a14,14,0,0,1,1.45.13c.44.08.88.17,1.31.29l.55.19a1.43,1.43,0,0,0,.73.9c.47.23.93.48,1.4.72s.84.41,1.24.64c.23.15.45.31.67.47a11.52,11.52,0,0,1,.89.82c.23.25.45.51.65.77s.45.68.66,1,.37.75.53,1.13.24.71.34,1.08S171.24,80.23,171.3,80.66Z" fill="#fefefe"/>
        <path d="M144.28,73c0,.28,0,.57,0,.85a15.31,15.31,0,0,1-.18,1.66,25.42,25.42,0,0,1-.61,2.75,17.52,17.52,0,0,1-.68,1.83,21.45,21.45,0,0,1-1.23,2.26c-.23.35-.46.7-.72,1l0,0h0a10.05,10.05,0,0,1-.94,1c-.19.18-.38.35-.59.52a9.88,9.88,0,0,0,1.87-4.43s0,0,0-.06v0a13.89,13.89,0,0,0,.08-3.09,20.13,20.13,0,0,0-.43-3,9.54,9.54,0,0,0-1.15-3,10.52,10.52,0,0,0-2.23-2.52,10.13,10.13,0,0,0-3.36-1.77c-.21-.1-.43-.18-.65-.26a8.48,8.48,0,0,0-1.93-.46c-.27,0-.53,0-.8,0a9.79,9.79,0,0,0-1.08.07,15.11,15.11,0,0,0-3.13.63,13.37,13.37,0,0,0-3.17,1.51,12,12,0,0,0-3.32,3.11,14.32,14.32,0,0,0-1.76,3.73c0-.21,0-.43.07-.64h0a20.75,20.75,0,0,1,.49-2.07c.21-.67.46-1.32.73-2,.12-.24.25-.48.38-.71s.36-.53.56-.78v0c.15-.18.31-.36.48-.53a3.32,3.32,0,0,0,.82-.81c.42-.25.84-.5,1.27-.74a33.13,33.13,0,0,1,3.81-1.8c.66-.25,1.34-.48,2-.68a5.25,5.25,0,0,0,.79-.06c.55-.08,1.11-.16,1.67-.22h.09a19.57,19.57,0,0,1,2-.08,15.9,15.9,0,0,1,1.68.16c.5.1,1,.21,1.48.34s1.25.43,1.86.69c.41.19.8.4,1.19.63a10.77,10.77,0,0,1,1,.72,11.48,11.48,0,0,1,1,.89c.34.37.66.74,1,1.12s.46.68.67,1,.32.66.45,1,.23.67.32,1A10.68,10.68,0,0,1,144.28,73Z" fill="#fefefe"/>
        <path d="M101.07,26.46c.07.82.09,1.63.08,2.45,0,.47-.05.93-.08,1.39-.1,1.37-.22,2.74-.29,4.12s-.11,2.85-.19,4.28A78.75,78.75,0,0,1,99.85,47a21.68,21.68,0,0,1-.48,2.12c-.22.68-.47,1.34-.75,2a17.47,17.47,0,0,1-.87,1.66,27.69,27.69,0,0,1-1.67,2.39,49.22,49.22,0,0,1-3.39,3.69c-1.33,1.27-2.69,2.5-4,3.76-1,.92-1.94,1.83-2.94,2.73s-2.33,2-3.54,2.93S79.81,70,78.64,71s-2.37,1.9-3.59,2.81l0,0,0,0c-.85.62-1.69,1.23-2.53,1.86S70.89,77,70.13,77.62A23.43,23.43,0,0,0,67,80.74,26.23,26.23,0,0,0,65,83.89a55.27,55.27,0,0,0-3.38,7.78,77.37,77.37,0,0,0-2.75,8.2c-.35,1.41-.64,2.83-.94,4.24s-.57,2.78-.81,4.19-.51,2.92-.77,4.38c-.23,1.26-.39,2.53-.58,3.8-.14,1-.27,1.9-.35,2.86a14.17,14.17,0,0,0-.09,1.84l-.09.23a3.84,3.84,0,0,1-.21.4l-.12.17-.18.2-.17.14-.18.12-.39.18c-.72.26-1.46.47-2.21.67s-1.29.28-2,.37a11.12,11.12,0,0,1-1.29,0,14.84,14.84,0,0,1-1.48-.15,8,8,0,0,1-1-.21l-.28-.1-.27-.15a9.3,9.3,0,0,1-.81-.59,0,0,0,0,1,0,0l-.09-.07a38.25,38.25,0,0,1-3.22-2.88,29.65,29.65,0,0,1-2.22-2.65c-.55-.76-1.08-1.54-1.61-2.32s-1.09-1.57-1.6-2.38c-1-1.55-1.89-3.14-2.78-4.75-1.22-2.2-2.46-4.4-3.59-6.66s-2.08-4.39-3-6.66a87.54,87.54,0,0,1-3.3-10.5c-.62-2.61-1.1-5.24-1.52-7.89-.4-2.47-.81-4.93-1.09-7.42a50.55,50.55,0,0,1-.27-5.9,38.18,38.18,0,0,1,.43-4.26c.27-1.65.6-3.3,1-4.94S22.55,50,23,48.44c0-.15.08-.29.13-.43a85.84,85.84,0,0,1,3.35-9h0c.79-1.73,1.61-3.45,2.51-5.13s1.94-3.43,3-5.11,2-3.17,3.07-4.72,2-3,3.18-4.4c.82-1,1.71-1.88,2.63-2.78s1.76-1.75,2.65-2.61a45.09,45.09,0,0,1,3.89-3.29c.91-.66,1.85-1.26,2.8-1.86S51.93,8,52.82,7.52a29.29,29.29,0,0,1,3-1.38,37.91,37.91,0,0,1,4.16-1.32c1.46-.34,2.93-.59,4.4-.84s2.79-.46,4.2-.62,2.55-.19,3.83-.19l1.07,0a31.51,31.51,0,0,1,3.62.38,35.22,35.22,0,0,1,4,.88c.9.28,1.8.58,2.7.87a27.52,27.52,0,0,1,2.66,1,29.37,29.37,0,0,1,2.73,1.42,48.15,48.15,0,0,1,4.44,3l0,0a21.67,21.67,0,0,1,1.76,1.55l0,0c.3.32.58.65.85,1a16.42,16.42,0,0,1,1,1.59,43.71,43.71,0,0,1,2.09,4.63,37,37,0,0,1,1.24,4C100.75,24.52,100.94,25.48,101.07,26.46Z" fill="#e76d49"/>
        <path d="M92,63.82c-.35,1.6-.78,3.19-1.23,4.77-.55,1.78-1.15,3.55-1.87,5.27a30.87,30.87,0,0,1-1.63,3C86.64,77.91,86,79,85.37,80c-1.23,2-2.42,4.15-3.67,6.19h0a.56.56,0,0,0,0,.08h0c-1.1,1.8-2.17,3.62-3.25,5.43s-2,3.38-3.08,5.07h0l0,0s0,0,0,0h0l-.4.65-.13.2-1,1.7c-1,1.7-2.17,3.35-3.21,5.06s-2,3.45-3,5.16q-.92,1.44-1.86,2.85c-.54.83-1.09,1.66-1.71,2.44-.41.5-.84,1-1.31,1.45a14.82,14.82,0,0,1-1.21,1c-.7.51-1.43,1-2.16,1.44l-.65.4.06-.54c.07-.68.18-1.34.27-2,.13-.85.23-1.7.37-2.55.22-1.29.46-2.57.69-3.86s.42-2.59.69-3.88c.53-2.6,1.07-5.21,1.82-7.76.57-1.87,1.28-3.7,2-5.54s1.28-3.45,2-5.14a30.49,30.49,0,0,1,1.85-3.48h0a20.26,20.26,0,0,1,1.3-1.88c.41-.49.84-1,1.29-1.4a55.38,55.38,0,0,1,4.49-3.75c.86-.62,1.72-1.25,2.56-1.89s1.71-1.35,2.56-2c2.37-1.87,4.84-3.63,7.09-5.65C89.1,66.54,90.55,65.18,92,63.82Z" fill="#e76d49"/>
        <path d="M112,39.46c-.17.81-.34,1.61-.57,2.41a21.6,21.6,0,0,1-.87,2.32l0,0c-.25.55-.53,1.08-.83,1.6-.2.31-.41.61-.64.91a3.83,3.83,0,0,1-.28.29l-.16.14-.21.13-.13.06-.16,0-.22,0h-.53a5.09,5.09,0,0,0-2.39.23l-.09,0a1.47,1.47,0,0,0-.33-1c-.4-.48-.81-1-1.25-1.42.24-2,.36-4.06.47-6.1.08-1.42.12-2.85.19-4.28s.17-2.75.28-4.12c.06-.8.11-1.6.11-2.4.85,1.09,1.73,2.16,2.56,3.27a57.69,57.69,0,0,1,3.72,5.8,1.09,1.09,0,0,0,.08.15L111.4,39A1.25,1.25,0,0,0,112,39.46Z" fill="#e76d49"/>
        <path d="M119.34,47.16c.34,1,.63,2,1,2.94-.53.55-1,1.11-1.57,1.68a32.94,32.94,0,0,0-2.6,3.17,1.41,1.41,0,0,0-.23,1.15l-1.47,1c-1.2.8-2.4,1.6-3.61,2.37,0-.16-.09-.33-.14-.48a10.9,10.9,0,0,0-1.13-2.6A16.14,16.14,0,0,0,107.92,54c-.51-.6-1.06-1.16-1.54-1.79L106.2,52l-.08-.17,0-.13c0-.11,0-.23,0-.34a2.71,2.71,0,0,1,0-.29,1.94,1.94,0,0,1,0-.24c0-.07,0-.13,0-.19a.19.19,0,0,1,0-.08l0-.07,0-.05h.29a6.74,6.74,0,0,0,2.61-.15,5.46,5.46,0,0,0,2.65-2.14,18.49,18.49,0,0,0,2.64-5.76c.36-1.26.52-2.57.89-3.83a4.24,4.24,0,0,1,.18-.5l0,0c.09.14.18.28.26.42.47.87.84,1.79,1.24,2.69s.84,2,1.24,3S119,46.12,119.34,47.16Z" fill="#e76d49"/>
        <path d="M205.75,77.7a1.68,1.68,0,0,0,.33.55c-.4.33-.81.66-1.2,1-.7-.27-1.42-.52-2.11-.83a28.53,28.53,0,0,1-2.84-1.5h0a14.33,14.33,0,0,1-1.26-.9c-1-.8-1.92-1.66-2.86-2.52s-2-1.83-2.91-2.8c-1.94-2-3.8-4.18-5.93-6-1.13-1-2.29-1.93-3.47-2.82S181,60,179.81,59.08a89.5,89.5,0,0,0-7.58-5.38,51.89,51.89,0,0,0-8.3-4.07,87.66,87.66,0,0,0-9-3c-1.53-.41-3.09-.71-4.66-1a40,40,0,0,0-4.75-.6c-.59,0-1.18,0-1.77,0-1,0-2,0-3,.09a26.29,26.29,0,0,0-4.41.61A37,37,0,0,0,130.27,48c-.93.41-1.85.82-2.77,1.25s-1.72.87-2.56,1.34h0l-.08,0a.47.47,0,0,1-.1,0h0l-1.45.82.4-.4a62.89,62.89,0,0,1,5.62-4.69,42.59,42.59,0,0,1,3.93-2.62,30.48,30.48,0,0,1,3.13-1.44h0l.06,0,.18-.07a36.56,36.56,0,0,1,4.21-1.3,64.18,64.18,0,0,1,6.75-1.12c1.12-.11,2.23-.18,3.35-.21s2.22,0,3.32.05c.42,0,.83,0,1.24,0a3.07,3.07,0,0,0,.53,0,2.23,2.23,0,0,0,.4.7,8.24,8.24,0,0,0,1.67,1.38q.92.63,1.86,1.2c1.21.73,2.43,1.45,3.65,2.16s2.52,1.46,3.84,2.09a33.17,33.17,0,0,0,4,1.56c1.36.44,2.75.83,4.13,1.2a32.72,32.72,0,0,0,3.56.79,10,10,0,0,0,1.45.13,4.19,4.19,0,0,0,1.12-.14,2,2,0,0,0,1-.56,3.66,3.66,0,0,0,.62-1.21l.12-.4.07,0a1.14,1.14,0,0,0,.37,0h0a.83.83,0,0,0,.22,0l0,0,.25.13a26.91,26.91,0,0,1,2.29,1.68c1.31,1.07,2.58,2.2,3.83,3.34s2.58,2.38,3.81,3.64a54.5,54.5,0,0,1,4,4.72,29.48,29.48,0,0,1,1.75,2.69,84.71,84.71,0,0,1,4.58,9.8l0-.09c.19.51.39,1,.56,1.54S205.56,77.14,205.75,77.7Z" fill="#e76d49"/>
        <path d="M116.66,95.07a19.67,19.67,0,0,0-1.79,1.32,39.94,39.94,0,0,0-3,2.7,17.64,17.64,0,0,0-2.5,3.08c-.76,1.21-1.44,2.46-2.11,3.72-1.3,2.46-2.53,5-3.66,7.5a39.56,39.56,0,0,0-1.6,4c-.35,1.12-.63,2.27-1,3.4a20.55,20.55,0,0,1-.75,2.12.83.83,0,0,0-.07.13l-.12-.15c-.19-.28-.38-.55-.55-.85a16.11,16.11,0,0,1-.7-1.52h0a24.24,24.24,0,0,1-.76-2.47c-.11-.52-.19-1-.26-1.55a35.31,35.31,0,0,1-.09-4.24,56.38,56.38,0,0,1,.69-6.5c.23-1.25.51-2.47.86-3.69a38.07,38.07,0,0,1,1.6-4.29,49.76,49.76,0,0,1,2.37-4.59,18.91,18.91,0,0,1,1.25-1.82,29.52,29.52,0,0,1,2.17-2.31c.47-.44,1-.88,1.46-1.27l.23-.16.64.49,0,0c.7.58,1.39,1.18,2.07,1.79C113,91.63,114.75,93.43,116.66,95.07Z" fill="#e76d49"/>
        <path d="M124.21,100.19l-.2.2c-.9.93-1.72,2-2.54,3a39,39,0,0,0-2.47,3.38,39.37,39.37,0,0,0-2.17,3.86c-.58,1.2-1.1,2.44-1.79,3.58-.12.19-.25.38-.39.56l-.22.24-.07.06,0,0-.11-.16c0-.12-.11-.23-.16-.35a5,5,0,0,1-.16-.55,11.84,11.84,0,0,1-.23-1.47,28.51,28.51,0,0,1-.12-2.92,42.72,42.72,0,0,1,.51-4.92c.16-.86.34-1.7.58-2.54.15-.45.31-.89.5-1.32a5.68,5.68,0,0,1,.28-.55s0,0,0,0a.84.84,0,0,0,.18-.24l0,.05.1-.19a.16.16,0,0,0,0,.09,1.48,1.48,0,0,0,.1-.27c.7-.61,1.42-1.2,2.17-1.75.35-.26.69-.51,1-.8l.13-.13A53.59,53.59,0,0,0,124.21,100.19Z" fill="#e76d49"/>
        <path d="M136.25,105.6c-.37.28-.73.57-1.07.87L133,108.33c-.71.62-1.42,1.25-2.17,1.83l-.4.27c0-.21,0-.42,0-.62a33.17,33.17,0,0,1,.47-3.85,18.06,18.06,0,0,1,.41-1.8c0-.14.09-.28.14-.43.69.29,1.38.56,2.08.83C134.39,104.92,135.31,105.26,136.25,105.6Z" fill="#e76d49"/>
        <path d="M186.13,109c-.24.81-.46,1.62-.62,2.44a27.66,27.66,0,0,0-.51,3.84c-.08,1.37-.16,2.75-.25,4.13s-.18,2.63-.23,3.94q-.06,1.47-.09,2.94l0,0-.11.14h0a27,27,0,0,1-2.1,2.31l-1,.89c.17-2,.51-4.07.69-6.11a35,35,0,0,0,.12-4.34c-.06-1.44-.18-2.87-.33-4.31a21.1,21.1,0,0,0-.78-4.09c-.1-.29-.2-.59-.31-.88C182.45,109.69,184.29,109.35,186.13,109Z" fill="#e76d49"/>
        <path d="M198.72,127.56a23.68,23.68,0,0,1,.09,2.53q0,.76-.12,1.53a13.26,13.26,0,0,1-.33,1.35l-.21.58c-.2.4-.41.79-.64,1.17s-.46.68-.72,1-.37.43-.57.65-.59.5-.89.73c-.61.44-1.2.87-1.84,1.26A54.73,54.73,0,0,1,188,141a1.3,1.3,0,0,0,.05-.65c-.18-1.2-.34-2.39-.46-3.59a53.71,53.71,0,0,1-.19-5.81c0-1,0-1.95,0-2.93,0-.11,0-.23-.06-.35a3.16,3.16,0,0,1,0-.32h0c0-.1,0-.2,0-.3,0-.54,0-1.07.09-1.61,0-.07,0-.15,0-.22v0c0-.14,0-.28.05-.42.07-2,.21-4,.33-6s.18-3.88.47-5.8a45.15,45.15,0,0,1,1.1-4.45l0-.09,0,0c.24-.77.5-1.55.81-2.3.23-.5.49-1,.77-1.46a30.48,30.48,0,0,1,2-2.81l.41-.51c-.1.85-.18,1.7-.21,2.55a24.61,24.61,0,0,0,.26,4c.18,1.43.48,2.86.79,4.27a55.58,55.58,0,0,0,2.56,8.29c.18.45.36.9.53,1.34a22.57,22.57,0,0,1,.77,2.37A28.49,28.49,0,0,1,198.72,127.56Z" fill="#e76d49"/>
        <path d="M268.45,110a56.83,56.83,0,0,1,.15,6.26,38.69,38.69,0,0,1-.33,4.56,42.84,42.84,0,0,1-1.34,5.33,35,35,0,0,1-1.37,3.79,38,38,0,0,1-1.8,3.4l0,0c-.8,1.28-1.64,2.54-2.5,3.78s-1.74,2.34-2.66,3.48c-.42.52-.84,1-1.29,1.52s-.91,1-1.36,1.45c-.92,1-1.74,2.09-2.72,3-.54.5-1.11,1-1.7,1.42l0,0a54.69,54.69,0,0,1-5.75,3.77c-.94.52-1.89,1-2.82,1.59s-1.87,1.16-2.82,1.71a39.6,39.6,0,0,1-4.42,2c-1.32.51-2.65,1-4,1.44s-2.45.72-3.69,1c-2.18.51-4.37,1-6.57,1.32-1.07.17-2.13.35-3.19.54s-2,.28-3,.39c-2.54.25-5.1.39-7.65.52-1.36.08-2.72.09-4.07.09s-2.41,0-3.62,0a51.77,51.77,0,0,1-6.09-.66h0c-1.19-.2-2.37-.44-3.55-.67s-2.54-.46-3.82-.66a38.44,38.44,0,0,1-3.83-.84l-.48-.15-.07,0a32.11,32.11,0,0,1-3.15-1.16c-.56-.26-1.12-.55-1.66-.87l-.4-.28-.09-.08c-.12-.6-.23-1.21-.3-1.82a13.57,13.57,0,0,1-.05-1.69c0-.54.07-1.08.15-1.62a12.2,12.2,0,0,1,.27-1.23c.09-.26.18-.52.29-.77a3.68,3.68,0,0,1,.23-.44,2.83,2.83,0,0,1,.2-.28c.08-.1.17-.19.26-.29l.35-.29A10.13,10.13,0,0,1,179,148a34,34,0,0,1,3.3-1.53l2.74-1a69.6,69.6,0,0,0,7.85-3.23c.65-.32,1.3-.66,1.93-1a20.3,20.3,0,0,0,1.86-1.2,14.54,14.54,0,0,0,1.84-1.48,12.64,12.64,0,0,0,1.34-1.66,11.17,11.17,0,0,0,1.92-4.51,19.57,19.57,0,0,0,.16-4.59,26.44,26.44,0,0,0-.74-4.43,33.13,33.13,0,0,0-1.49-4.3s0,0,0,0-.05-.13-.08-.19a55.13,55.13,0,0,1-2.09-6.65s0,0,0,0l0-.11s0,0,0,.06a46.17,46.17,0,0,1-1.05-5.94h0a21.62,21.62,0,0,1-.11-2.28,42.1,42.1,0,0,1,.54-4.88A42.74,42.74,0,0,1,198.14,94a33.53,33.53,0,0,1,1.22-3.26,16.47,16.47,0,0,1,.79-1.5l.13-.21.14-.38c.06-.15.12-.3.19-.45a.54.54,0,0,1,.07-.13c.12-.2.25-.38.39-.57a4.31,4.31,0,0,1,.57-.56l.29-.25.09-.08v0a41.77,41.77,0,0,1,3.18-3.47,43.81,43.81,0,0,1,3.74-3.22c.74-.53,1.48-1.06,2.26-1.52s1.59-.92,2.39-1.37l-.17.1.56-.32-.12.07a39.07,39.07,0,0,1,4.5-2.09,29,29,0,0,1,2.78-.88,32.58,32.58,0,0,1,3.54-.56,76.34,76.34,0,0,1,7.71-.21c1.85.08,3.69.21,5.51.47.78.14,1.55.31,2.32.52l.45.16a1.55,1.55,0,0,0,1,1.54c.45.19.89.35,1.33.54l.64.34c.39.26.78.52,1.18.77a16.17,16.17,0,0,0,1.79,1l.15.07h0l1,.43a38.89,38.89,0,0,1,3.45,1.93c1.25.76,2.53,1.46,3.78,2.22a21.51,21.51,0,0,1,1.93,1.35,19.94,19.94,0,0,1,1.66,1.52,33.67,33.67,0,0,1,2.2,2.58,42.27,42.27,0,0,1,2.45,4,51.84,51.84,0,0,1,2.52,5.13,47.92,47.92,0,0,1,1.56,5.25,62,62,0,0,1,1.13,7Z" fill="#e76d49"/>
        <path d="M37.36,141.94a1.41,1.41,0,0,0-1.06-1.69,52.3,52.3,0,0,1-5.39-1.18,14.29,14.29,0,0,1-1.65-.62l-.15-.07c-1.11-.52-2.24-1-3.31-1.68-.26-.18-.52-.36-.77-.55l-.06-.06a1.41,1.41,0,0,0-2,1.95,3.41,3.41,0,0,0,.61.53,10.62,10.62,0,0,0,1.35.86c1,.55,2,1,3.05,1.52l-.07,0a22.09,22.09,0,0,0,3.8,1.29c1.32.31,2.66.54,4,.77l.29,0A1.4,1.4,0,0,0,37.36,141.94ZM81,140.34a1.42,1.42,0,1,0-1.21-2.57l-.41.16c-1.21.47-2.44.88-3.68,1.28s-2.45.77-3.7,1.08l-.07,0a43.94,43.94,0,0,1-5.1.92h-.15a97.72,97.72,0,0,1-12.22.38c-1.21,0-2.42-.07-3.63-.16-.94-.07-1.86-.24-2.79-.3A1.41,1.41,0,0,0,47.8,144H48c.59.05,1.17.16,1.75.22s1.32.11,2,.14c1.51.07,3,.13,4.51.14h1.61c2.33,0,4.65-.06,7-.23,1.43-.1,2.85-.22,4.26-.45s2.77-.51,4.13-.86,2.58-.74,3.87-1.16S79.72,140.89,81,140.34Zm5.87.67a43,43,0,0,1,.09,4.82,25.89,25.89,0,0,1-.26,3.17l0-.2,0,.2c-.1.55-.22,1.1-.34,1.64a4.44,4.44,0,0,0-.21,1.69,1.47,1.47,0,0,0,.24.59l-.39.24h0a26.25,26.25,0,0,1-3,1.37l-.06,0c-.84.32-1.7.57-2.56.82s-1.94.55-2.93.79c-2,.48-4,.9-6,1.3s-4,.86-6.11,1.09h0c-2.73.26-5.46.56-8.2.63-.93,0-1.86,0-2.79,0h-1c-1.39,0-2.79,0-4.19,0-1.92-.06-3.84-.14-5.76-.31-1-.09-2-.18-3-.31s-1.81-.27-2.7-.43h-.06c-1.76-.3-3.51-.67-5.25-1.05-.91-.21-1.81-.45-2.72-.68s-1.54-.38-2.29-.61c-1-.3-1.94-.62-2.89-1s-1.88-.77-2.81-1.19a31.39,31.39,0,0,1-3.28-1.77h0l-.58-.37c.05-.75.05-1.51.06-2.26s0-1.81.05-2.71v-.05a1.21,1.21,0,0,0,0-.19h0a45,45,0,0,1,.49-5.32,38.5,38.5,0,0,1,1-4.22c.19-.57.39-1.14.63-1.7a10.54,10.54,0,0,1,.5-.94,20.22,20.22,0,0,1,1.26-1.77,23.79,23.79,0,0,1,1.87-2A18.81,18.81,0,0,1,25.08,129c.3-.2.6-.4.91-.58a30.84,30.84,0,0,1,3.51-1.61,33.94,33.94,0,0,1,3.79-1.19,53.2,53.2,0,0,1,6.14-1l1.54-.13.59,0,.15,0,.36,0h0a12.83,12.83,0,0,0,1.55,1.2,5.8,5.8,0,0,0,2.13.84,15.78,15.78,0,0,0,2.91.29,11.75,11.75,0,0,0,1.45-.08,19.62,19.62,0,0,0,3.78-.9,8.09,8.09,0,0,0,2.07-.89,5,5,0,0,0,.93-.8,1.55,1.55,0,0,0,.62.19h-.08c.5.08,1,.12,1.51.17l2,.21c1.35.14,2.7.25,4,.46a50.06,50.06,0,0,1,6.12,1.49h0l.1,0,0,0h0a52,52,0,0,1,5.15,1.89c.65.3,1.27.66,1.9,1s1.3.71,1.92,1.09a16,16,0,0,1,1.44,1A18.14,18.14,0,0,1,83.13,133a0,0,0,0,1,0,0l.08.08a17.72,17.72,0,0,1,1.2,1.4,17.18,17.18,0,0,1,1.12,1.7c.22.42.43.86.61,1.3a10,10,0,0,1,.33,1.06,19.41,19.41,0,0,1,.41,2.38v0S86.91,141,86.91,141Z" fill="#308d8a"/>
        <path d="M102.24,155v.17c0,.05,0,.09,0,.14s0,.2-.08.3a7.15,7.15,0,0,1-.29.77c-.23.49-.5,1-.77,1.43l0,0h0c-.27.43-.56.87-.87,1.28s-.78.89-1.2,1.3-1,.86-1.57,1.26a21.89,21.89,0,0,1-2,1.28,38.33,38.33,0,0,1-3.87,1.73l-.35.14c-.13,0-.26.1-.38.15a78,78,0,0,1-9.76,3l-.1,0h0l-.18,0a97.71,97.71,0,0,1-11.63,2.09l-.47,0-.28,0h-.16l-.13,0H68l-.2,0c-2.29.23-4.58.44-6.89.52s-4.7,0-7,0h-.21c-1.26,0-2.52-.1-3.78-.2l-4.46-.38c-1.59-.12-3.17-.33-4.76-.52s-3-.37-4.56-.61-2.95-.45-4.42-.7h0c-1.28-.22-2.56-.51-3.83-.73s-2.53-.45-3.78-.71-2.52-.45-3.77-.74-2.64-.73-3.95-1.13a46.44,46.44,0,0,1-5.09-1.77,22.75,22.75,0,0,1-2.18-1.16,37.21,37.21,0,0,1-3.41-2.32,19.68,19.68,0,0,1-1.53-1.35c-.18-.2-.34-.39-.5-.59s-.25-.37-.37-.57l-.18-.37a2.81,2.81,0,0,1-.1-.31c0-.11,0-.22,0-.33s0-.19,0-.28l0-.33c0-.12.06-.24.1-.36a3.75,3.75,0,0,1,.16-.43,6.82,6.82,0,0,1,.34-.66c.13-.2.26-.38.4-.56a7.18,7.18,0,0,1,.6-.63c.37-.35.75-.67,1.15-1a22.56,22.56,0,0,1,2-1.3,29.17,29.17,0,0,1,3-1.39,31.55,31.55,0,0,1,3.16-1c.31-.07.62-.13.94-.18l0,1.79c0,.47,0,.94,0,1.42a1.58,1.58,0,0,0,.3,1.61,7.52,7.52,0,0,0,1.65,1.26c.64.39,1.28.78,1.92,1.15s1.37.7,2.06,1,1.33.6,2,.87c1.32.54,2.68,1,4,1.4.81.24,1.62.44,2.44.65s1.84.49,2.77.68c1.81.39,3.6.79,5.42,1.08,1,.17,2,.34,3,.47s2,.22,3,.3c2,.17,4.07.26,6.11.32h.05c.79,0,1.58,0,2.38,0h2c1.24,0,2.48,0,3.72,0,1.41-.05,2.81-.15,4.21-.27s2.89-.27,4.33-.43,2.82-.47,4.21-.75,2.76-.53,4.13-.83A80.15,80.15,0,0,0,83,157.77a31.46,31.46,0,0,0,3.77-1.55,17.46,17.46,0,0,0,2.73-1.69,8.56,8.56,0,0,0,1-.87,1.45,1.45,0,0,0-1-2.44c0-.07,0-.14,0-.2a19.5,19.5,0,0,0,.43-2.5c.41.09.82.15,1.22.25.58.14,1.17.29,1.74.46a46.3,46.3,0,0,1,5,1.87,11.31,11.31,0,0,1,1.15.59c.45.29.88.6,1.3.92.26.22.5.45.73.68s.47.53.69.81l.27.4c0,.08.07.16.11.23l.06.2A.3.3,0,0,0,102.24,155Z" fill="#6dbda9"/>
        <path d="M42.69,115.32a1.44,1.44,0,0,1,1.38-1.48,1.46,1.46,0,0,1,1.48,1.39,1.43,1.43,0,0,1-2.86.09Z" fill="#110802"/>
        <path d="M34.93,108.34a1.42,1.42,0,1,1,1.46,1.36A1.42,1.42,0,0,1,34.93,108.34Z" fill="#110802"/>
        <path d="M30,96.52a1.41,1.41,0,1,1,1.46,1.36A1.42,1.42,0,0,1,30,96.52Z" fill="#110802"/>
        <path d="M25.85,85.33a1.42,1.42,0,1,1,1.46,1.37A1.43,1.43,0,0,1,25.85,85.33Z" fill="#110802"/>
        <path d="M22.34,64.91a1.42,1.42,0,1,1,1.46,1.37A1.42,1.42,0,0,1,22.34,64.91Z" fill="#110802"/>
        <path d="M26.49,51.19A1.43,1.43,0,1,1,28,52.56,1.43,1.43,0,0,1,26.49,51.19Z" fill="#110802"/>
        <path d="M27.33,72a1.42,1.42,0,0,1,1.37-1.46A1.42,1.42,0,1,1,27.33,72Z" fill="#110802"/>
        <path d="M30.65,83a1.43,1.43,0,1,1,1.48,1.38A1.44,1.44,0,0,1,30.65,83Z" fill="#110802"/>
        <path d="M35,98.45a1.42,1.42,0,1,1,1.46,1.37A1.43,1.43,0,0,1,35,98.45Z" fill="#110802"/>
        <path d="M40.47,106.73a1.42,1.42,0,1,1,1.47,1.37A1.45,1.45,0,0,1,40.47,106.73Z" fill="#110802"/>
        <path d="M47.64,117.45a1.43,1.43,0,1,1,1.48,1.38A1.44,1.44,0,0,1,47.64,117.45Z" fill="#110802"/>
        <path d="M48.73,109a1.41,1.41,0,1,1,1.45,1.36A1.43,1.43,0,0,1,48.73,109Z" fill="#110802"/>
        <path d="M38.13,93.61A1.41,1.41,0,1,1,39.59,95,1.43,1.43,0,0,1,38.13,93.61Z" fill="#110802"/>
        <path d="M32.7,66.84a1.42,1.42,0,1,1,1.47,1.38A1.44,1.44,0,0,1,32.7,66.84Z" fill="#110802"/>
        <path d="M34,37.08a1.43,1.43,0,0,1-.83-1.83c.08-.19.16-.37.25-.55A1.42,1.42,0,0,1,36,35.85l-.12.26v0h0s0,0,0,0,0,0,0,0h0l0,0h0a0,0,0,0,0,0,0l0,0h0a1.46,1.46,0,0,1-1.3.86A1.41,1.41,0,0,1,34,37.08Z" fill="#110802"/>
        <path d="M35.79,36.31h0Z" fill="#110802"/>
        <path d="M35.79,36.32l0,0Z" fill="#110802"/>
        <path d="M35.85,36.19h0Z" fill="#110802"/>
        <path d="M35.85,36.19Z" fill="#110802"/>
        <path d="M35.85,36.19Z" fill="#110802"/>
        <path d="M35.88,36.12l0,.07Z" fill="#110802"/>
        <path d="M35.85,36.19Z" fill="#110802"/>
        <path d="M41.17,40.74a1.43,1.43,0,1,1,1.47,1.38A1.44,1.44,0,0,1,41.17,40.74Z" fill="#110802"/>
        <path d="M45.52,17.18A1.43,1.43,0,1,1,47,18.56,1.43,1.43,0,0,1,45.52,17.18Z" fill="#110802"/>
        <path d="M32.55,51.84a1.44,1.44,0,0,1,1.38-1.48,1.44,1.44,0,1,1-1.38,1.48Z" fill="#110802"/>
        <path d="M208,158.79a1.42,1.42,0,1,1,1.47,1.37A1.43,1.43,0,0,1,208,158.79Z" fill="#110802"/>
        <path d="M221.91,156.24a1.42,1.42,0,1,1,1.46,1.37A1.43,1.43,0,0,1,221.91,156.24Z" fill="#110802"/>
        <path d="M233.94,151.91a1.42,1.42,0,0,1,1.37-1.46,1.42,1.42,0,1,1-1.37,1.46Z" fill="#110802"/>
        <path d="M246.59,142.76a1.42,1.42,0,1,1,1.46,1.37A1.42,1.42,0,0,1,246.59,142.76Z" fill="#110802"/>
        <path d="M260,127.61a1.42,1.42,0,1,1,1.46,1.37A1.44,1.44,0,0,1,260,127.61Z" fill="#110802"/>
        <path d="M261.87,109.31a1.42,1.42,0,0,1,1.36-1.46,1.44,1.44,0,0,1,1.46,1.37,1.41,1.41,0,0,1-2.82.09Z" fill="#110802"/>
        <path d="M259.27,96.41a1.42,1.42,0,1,1,1.46,1.37A1.42,1.42,0,0,1,259.27,96.41Z" fill="#110802"/>
        <path d="M261.93,118.68a1.44,1.44,0,1,1,1.49,1.39A1.46,1.46,0,0,1,261.93,118.68Z" fill="#110802"/>
        <path d="M255.68,136.61a1.44,1.44,0,1,1,1.49,1.39A1.45,1.45,0,0,1,255.68,136.61Z" fill="#110802"/>
        <path d="M240.22,149.6a1.44,1.44,0,1,1,1.49,1.39A1.45,1.45,0,0,1,240.22,149.6Z" fill="#110802"/>
        <path d="M213.84,153a1.43,1.43,0,1,1,1.47,1.38A1.44,1.44,0,0,1,213.84,153Z" fill="#110802"/>
        <path d="M225.93,147a1.43,1.43,0,1,1,1.47,1.38A1.43,1.43,0,0,1,225.93,147Z" fill="#110802"/>
        <path d="M244.59,134.61a1.43,1.43,0,1,1,1.47,1.38A1.43,1.43,0,0,1,244.59,134.61Z" fill="#110802"/>
        <path d="M253.19,123.26a1.43,1.43,0,1,1,1.48,1.38A1.44,1.44,0,0,1,253.19,123.26Z" fill="#110802"/>
        <path d="M254,105.89a1.42,1.42,0,1,1,1.47,1.38A1.43,1.43,0,0,1,254,105.89Z" fill="#110802"/>
        <path d="M247.36,87.73a1.43,1.43,0,0,1,1.38-1.47,1.43,1.43,0,1,1-1.38,1.47Z" fill="#110802"/>
        <path d="M240.38,122.9a1.43,1.43,0,1,1,1.47,1.37A1.44,1.44,0,0,1,240.38,122.9Z" fill="#110802"/>
        <path d="M229.31,139.11a1.44,1.44,0,0,1,1.38-1.48,1.43,1.43,0,1,1,.09,2.86A1.44,1.44,0,0,1,229.31,139.11Z" fill="#110802"/>
        <path d="M207.78,149a1.43,1.43,0,1,1,1.47,1.39A1.43,1.43,0,0,1,207.78,149Z" fill="#110802"/>
        <path d="M197.83,160.4a1.42,1.42,0,1,1,2.84-.09,1.42,1.42,0,0,1-1.37,1.46A1.44,1.44,0,0,1,197.83,160.4Z" fill="#110802"/>
        <path d="M183.9,156.9a1.42,1.42,0,1,1,1.47,1.37A1.43,1.43,0,0,1,183.9,156.9Z" fill="#110802"/>
        <path d="M198.21,155.88a1.41,1.41,0,1,1,1.46,1.36A1.42,1.42,0,0,1,198.21,155.88Z" fill="#110802"/>
        <path d="M215.65,157.68a1.43,1.43,0,1,1,1.47,1.38A1.43,1.43,0,0,1,215.65,157.68Z" fill="#110802"/>
        <path d="M259,131.53a1.43,1.43,0,1,1,1.47,1.38A1.44,1.44,0,0,1,259,131.53Z" fill="#110802"/>
        <path d="M200.24,74.06a1.42,1.42,0,1,1,2.84-.09,1.42,1.42,0,0,1-1.37,1.46A1.45,1.45,0,0,1,200.24,74.06Z" fill="#110802"/>
        <path d="M198.26,68.52a1.42,1.42,0,0,1,1.36-1.46,1.44,1.44,0,0,1,1.46,1.37,1.41,1.41,0,0,1-1.36,1.45A1.43,1.43,0,0,1,198.26,68.52Z" fill="#110802"/>
        <path d="M196.17,71.7a1.42,1.42,0,1,1,1.46,1.37A1.43,1.43,0,0,1,196.17,71.7Z" fill="#110802"/>
        <path d="M189.12,65.47a1.43,1.43,0,1,1,1.48,1.38A1.44,1.44,0,0,1,189.12,65.47Z" fill="#110802"/>
        <path d="M183.71,60.16a1.43,1.43,0,0,1,1.37-1.47,1.43,1.43,0,1,1-1.37,1.47Z" fill="#110802"/>
        <path d="M194.42,65.47a1.41,1.41,0,1,1,1.46,1.37A1.43,1.43,0,0,1,194.42,65.47Z" fill="#110802"/>
        <path d="M192.36,60.57A1.43,1.43,0,1,1,193.83,62,1.44,1.44,0,0,1,192.36,60.57Z" fill="#110802"/>
        <path d="M132.47,45.73a1.42,1.42,0,0,1,1.37-1.46,1.42,1.42,0,1,1-1.37,1.46Z" fill="#110802"/>
        <path d="M139.92,43.2a1.42,1.42,0,1,1,2.84-.09,1.42,1.42,0,0,1-1.37,1.46A1.44,1.44,0,0,1,139.92,43.2Z" fill="#110802"/>
        <path d="M186.33,141h0a1.47,1.47,0,0,1,.52-1.41,2.26,2.26,0,0,1,.38-.25l.26-.14.32-.22c.51-.4,1-.83,1.47-1.28a2,2,0,0,1,.23-.51,5.9,5.9,0,0,1,.7-.79,23.32,23.32,0,0,0,1.59-1.71l-.08.1.23-.29-.12.15c.33-.43.65-.86.93-1.31.11-.19.21-.38.31-.58s.21-.52.31-.8c.16-.54.28-1.09.39-1.65a18.68,18.68,0,0,0,.19-2h0a52,52,0,0,0-.29-6.24c-.16-1.48-.36-2.95-.62-4.41s-.52-2.85-.75-4.28a26.31,26.31,0,0,1-.37-4.43c0-.77,0-1.53.08-2.29,0-.48.11-1,.15-1.45v-.07a1.41,1.41,0,0,1,1.55-1.26,1.43,1.43,0,0,1,1.26,1.53c0,.81-.15,1.61-.17,2.42v.21a1.09,1.09,0,0,0,0-.18c0,.1,0,.21,0,.32a1.28,1.28,0,0,1,0-.19,30.79,30.79,0,0,0,.12,3.33c.21,1.76.55,3.49.87,5.22.1.55.2,1.1.29,1.65a1.54,1.54,0,0,1,1.13.53,2.65,2.65,0,0,1,.47,1.15c.08.34.15.68.22,1,.13.66.26,1.33.4,2,.3,1.47.7,2.92.86,4.41a14.53,14.53,0,0,1-.31,4.69,13.34,13.34,0,0,1-.64,2.18c-.16.41-.34.8-.52,1.2a13,13,0,0,1-.68,1.13,7.58,7.58,0,0,1-3.45,2.75,6.84,6.84,0,0,1-1.41.46l-.29.06-.27.23a13.73,13.73,0,0,1-2.19,1.54,4.07,4.07,0,0,1-1.13.63,1.41,1.41,0,0,1-.44.08A1.54,1.54,0,0,1,186.33,141Z" fill="#110802" fill-opacity="0.25"/>
        <path d="M57.8,120.33a3,3,0,0,1-.44-2c0-.83.12-1.65.21-2.47.18-1.55.43-3.09.76-4.62s.72-2.91,1.11-4.37c.76-2.85,1.33-5.74,2.06-8.59.37-1.43.71-2.88,1.1-4.31a40.31,40.31,0,0,1,1.55-4.53,31.61,31.61,0,0,1,2-4.13,28.65,28.65,0,0,1,2.69-3.77,56.5,56.5,0,0,1,6.25-6.41c1.18-1,2.36-2,3.57-3s2.46-1.88,3.7-2.79l0,0,.25-.19-.15.12.33-.25-.15.11c1.08-.79,2.14-1.61,3.23-2.38.39-.28.79-.55,1.19-.82l.55-.55a1.82,1.82,0,0,1,1-.48l.44-.32-.16.11c.58-.42,1.27-1,2-.91a1.8,1.8,0,0,1,.83.32,1.69,1.69,0,0,1,.61.87,6.44,6.44,0,0,1,.25,1.51,9.3,9.3,0,0,1-.23,2.41,6.33,6.33,0,0,1-.48,1.47A5.45,5.45,0,0,1,90.61,72a1.43,1.43,0,0,1,.16,1.55,1.48,1.48,0,0,1-1.11.75l0,0c-1.68,1.36-3.35,2.74-5,4.11-.83.67-1.67,1.34-2.49,2S80.43,82,79.61,82.71,77.86,84.47,77,85.38,75.49,87.14,74.75,88c-1.32,1.69-2.55,3.43-3.7,5.24A37.42,37.42,0,0,0,69,97.13a35.27,35.27,0,0,0-1.37,3.72c-.87,2.91-1.69,5.83-2.67,8.7-.48,1.38-1,2.75-1.49,4.13s-1,2.61-1.51,3.89a17.17,17.17,0,0,1-.89,1.83,2.91,2.91,0,0,1-1.47,1.54,1.41,1.41,0,0,1-.45.07A1.77,1.77,0,0,1,57.8,120.33Zm3.78-10c.27-.77.54-1.53.8-2.3a1.52,1.52,0,0,1-.21,0C62,108.84,61.77,109.59,61.58,110.35Z" fill="#110802" fill-opacity="0.25"/>
        <path d="M269.17,105.5a17.06,17.06,0,0,1,.43,4.67c-.11,3.09-.35,6.19-.75,9.25-.19,1.43-.42,2.85-.65,4.26a35.5,35.5,0,0,1-1.05,4.7,22,22,0,0,1-1.81,4,39.69,39.69,0,0,1-2.6,4c-1.85,2.53-3.9,4.93-5.9,7.35a61,61,0,0,1-6.28,6.86,34.66,34.66,0,0,1-7.82,5.11c-1.42.69-2.86,1.34-4.33,1.91s-2.82,1-4.23,1.45-3,1-4.47,1.43-3,.74-4.55,1c-3,.55-6,.94-9,1.33-1.49.2-3,.43-4.43.72s-3,.53-4.47.7-3.27.29-4.91.34l-1.22,0c-1.16,0-2.32,0-3.47-.09a69.91,69.91,0,0,1-9.37-.76,31.77,31.77,0,0,1-4.61-1.17,31.37,31.37,0,0,1-4.64-1.94,19,19,0,0,1-2-1.22,4.94,4.94,0,0,1-1.89-2.23,5,5,0,0,1,0-2.82,2.47,2.47,0,0,1,1.23-1.87,3.34,3.34,0,0,1,1.93,0h.07l.09,0a30.57,30.57,0,0,0,3.17.27h.11a118.63,118.63,0,0,0,14-.51h.13a70.66,70.66,0,0,0,8.9-1.5c1.3-.33,2.59-.68,3.87-1.1s2.59-.89,3.87-1.38a129.38,129.38,0,0,0,13.53-6.52l.11-.06a84.57,84.57,0,0,0,8.46-5.38,54,54,0,0,0,4.6-3.94,70.94,70.94,0,0,0,5.42-5.94c.76-1,1.49-1.92,2.2-2.91s1.32-1.95,1.94-2.95c1.14-1.94,2.21-3.9,3.15-5.94a58.94,58.94,0,0,0,2.24-5.89,59.34,59.34,0,0,0,1.56-6.74,58.28,58.28,0,0,0,.73-6.85,50.74,50.74,0,0,0-.24-5.65,44,44,0,0,0-.83-5.1c0-.11-.06-.22-.09-.33,0,0,0,.1.05.14l.06.09a1.41,1.41,0,0,1,.3-1.78,1.43,1.43,0,0,1,2,.18,2.49,2.49,0,0,1,.45,1l.06.28a1.54,1.54,0,0,1,1.7.43,11.38,11.38,0,0,1,1.26,1.8,18.79,18.79,0,0,1,1,1.82c.62,1.37,1.15,2.76,1.87,4.07s1.51,2.71,2.17,4.11a33,33,0,0,1,1.74,4.55Q268.63,103.15,269.17,105.5Z" fill="#110802" fill-opacity="0.25"/>
        <path d="M102.35,154a4.21,4.21,0,0,1,.35,2.68,10.56,10.56,0,0,1-.7,2.17,12.28,12.28,0,0,1-2.42,3.66A20.1,20.1,0,0,1,96,165.18a25.79,25.79,0,0,1-8.3,3.45c-1.35.28-2.72.41-4.08.6l-2,.3a14.59,14.59,0,0,1-2,.21h0a2.21,2.21,0,0,1-1.81-.83,4.14,4.14,0,0,1-.54-1l-.39-1h0a13,13,0,0,0-.6-1.32,18.3,18.3,0,0,0-1.08-1.67c-.31-.4-.64-.79-1-1.18s-.61-.59-.94-.86a10.12,10.12,0,0,0-.92-.65c-.24-.14-.47-.27-.71-.39s-.35-.14-.53-.21l-.25-.05-.44,0-.65,0a2.51,2.51,0,0,1-.67,0,1.52,1.52,0,0,1-1.11-1,1.71,1.71,0,0,1,.6-1.78c.2-.2.39-.41.58-.63s.42-.57.62-.87a10.28,10.28,0,0,0,.48-.93l0,0h0a13.3,13.3,0,0,0,.49-1.33c.12-.44.22-.89.31-1.34.26-1.88.23-3.8.45-5.69a18.09,18.09,0,0,1,.62-3.25,6.87,6.87,0,0,1,.58-1.37,3.73,3.73,0,0,1,1-1.16,20.91,20.91,0,0,1,2.51-1.36,10,10,0,0,0,1-.66,7.89,7.89,0,0,0,.76-.65,3.84,3.84,0,0,0,.44-.46l.21-.28.17-.33c0-.12.09-.23.13-.35s.07-.29.1-.44,0-.34.05-.52,0-.47,0-.71a18.45,18.45,0,0,0-.34-1.83c-.14-.53-.29-1-.47-1.55a12,12,0,0,0-.51-1.16c-.18-.3-.36-.59-.56-.87s-.31-.39-.48-.58-.56-.52-.85-.78a2.85,2.85,0,0,1-.59-.61,1.52,1.52,0,0,1-.25-1,1.42,1.42,0,0,1,.5-1,1.45,1.45,0,0,1,1.57-.17,1.21,1.21,0,0,1,.53.52c.24.21.49.4.72.61a9.23,9.23,0,0,1,1.37,1.56,9,9,0,0,1,.65,1.07,1.5,1.5,0,0,1,.81,0,5.26,5.26,0,0,1,2.25,1.93,29.4,29.4,0,0,1,2.24,3.58c.74,1.34,1.48,2.67,2.13,4.06a20.13,20.13,0,0,1,1.39,4.36c.2,1,.33,1.91.53,2.86a5.73,5.73,0,0,1,2.21.24,10.26,10.26,0,0,1,1.19.49c.64.28,1.28.58,1.93.88a19.91,19.91,0,0,1,4,2.28A10.9,10.9,0,0,1,102.35,154Z" fill="#110802" fill-opacity="0.25"/>
        <path d="M187.82,96.75a3.18,3.18,0,0,1-.32.16,1.94,1.94,0,0,1-.81.2,1.86,1.86,0,0,1-.33,0,1.56,1.56,0,0,1-.82-.5,1.4,1.4,0,0,1,1.89-.25A1.59,1.59,0,0,1,187.82,96.75Z" fill="#110802" fill-opacity="0.25"/>
        <path d="M180.52,131.36a1.64,1.64,0,0,1-1-1.76,3.89,3.89,0,0,1,.33-1c.58-1.41,1.08-2.83,1.52-4.28a1,1,0,0,0-.05.18c.06-.21.12-.42.17-.63,0-.71-.06-1.41-.13-2.12v0a31.77,31.77,0,0,0-.66-4c-.18-.71-.38-1.42-.55-2.14a1.17,1.17,0,0,0,0,.2l0-.18a1.47,1.47,0,0,1,.77-1.75,1.37,1.37,0,0,1,.51-.13c-.06-.2-.13-.4-.2-.6a.61.61,0,0,0,.05.12c-.27-.67-.58-1.32-.92-2a2.58,2.58,0,0,1-.41-1.41,2,2,0,0,1,.71-1.39,11.16,11.16,0,0,1,2.34-1.42.82.82,0,0,1-.1-.26,1.56,1.56,0,0,1,.11-1.16,3.45,3.45,0,0,1,.2-.32c.17-.28.31-.56.45-.85v0l.06-.14a.61.61,0,0,0-.05.12c.2-.49.39-1,.55-1.5s.24-.92.33-1.38.12-1,.14-1.52v.2a2.39,2.39,0,0,1,.61-2l.12-.09a1.58,1.58,0,0,1-.15-1,1.42,1.42,0,0,1,2.19-.83,1.69,1.69,0,0,1,.51.64l.21-.16a19.09,19.09,0,0,1,1.59-1.06c.83-.49,1.87-1.23,2.87-.85l.17.08a6,6,0,0,1,1.94-.17,2,2,0,0,1,1.63,1,1.67,1.67,0,0,1-.29,1.83,7.3,7.3,0,0,1-1.18.89c-.38.25-.77.51-1.14.77-.22.17-.42.35-.63.53-.85.88-1.65,1.8-2.43,2.74a19.78,19.78,0,0,0-1.22,1.71c-.16.28-.3.56-.44.84a4.86,4.86,0,0,1-.21,1,1.69,1.69,0,0,1-1.59,1.22l0,.12a1.46,1.46,0,0,0-.07.19c-.07.22-.14.44-.22.66a2.55,2.55,0,0,1-.71,1.27,1.56,1.56,0,0,1-.89.34,3.09,3.09,0,0,1,.44.63,10.53,10.53,0,0,1,.82,2.86,23.52,23.52,0,0,1,.25,5,34.8,34.8,0,0,1-.55,4.67,34.4,34.4,0,0,1-1,4.26c-.18.61-.37,1.22-.58,1.83a2.87,2.87,0,0,1-.4.85,1.72,1.72,0,0,1-1.61.73,2.24,2.24,0,0,1-1.56.79A1.47,1.47,0,0,1,180.52,131.36Z" fill="#110802" fill-opacity="0.25"/>
        <path d="M111.31,60.86a3.15,3.15,0,0,1-1.86-.79,3.45,3.45,0,0,1-.8-1c-.23-.4-.43-.81-.65-1.21a.41.41,0,0,0,0,.09c-.34-.6-.69-1.19-1-1.78A20.91,20.91,0,0,1,105.88,54a11.76,11.76,0,0,1-.76-2.4,3.77,3.77,0,0,1,.08-2.13,2.39,2.39,0,0,0-.13-.21,5.45,5.45,0,0,1-.85-2.27,1.32,1.32,0,0,1-.5-.22c-.77-.51-.7-1.46-.61-2.27v0a12.84,12.84,0,0,1-.53-4.23,43,43,0,0,1,.28-4.81c.07-.73.18-1.46.3-2.19s.24-1.56.42-2.31a2.27,2.27,0,0,1,.32-.75,1,1,0,0,1,.23-.27,1.16,1.16,0,0,0,0-.18c-.08-.29-.16-.58-.26-.87a1.4,1.4,0,0,1-.65-1.14,1.57,1.57,0,0,1,1.49-1.55,1.67,1.67,0,0,1,1.29.6,3.79,3.79,0,0,1,.69,1.46,20.43,20.43,0,0,1,.8,4.6A33.08,33.08,0,0,1,107,41.4c0,.16,0,.32-.08.48.06.37.12.74.2,1.11a10.5,10.5,0,0,0,.32,1c.06.15.14.3.21.45s.34.54.53.8c.53.68,1.27,1.4,1,2.33a1.67,1.67,0,0,1-.82,1c.07.1.13.2.19.3a16.33,16.33,0,0,1,.85,1.6,1,1,0,0,0,.07.15,4,4,0,0,1,.68.63h0l.41.4a1.46,1.46,0,0,1,.5.12c.38.14.75.33,1.12.5a31.82,31.82,0,0,0,3.28,1.28,5.15,5.15,0,0,1,.7.2,1.68,1.68,0,0,1,1,1,1.61,1.61,0,0,1-.35,1.54l-.08.09a2.27,2.27,0,0,1,.11.53,1.61,1.61,0,0,1-.73,1.4,2.35,2.35,0,0,1-1.54.27,1.39,1.39,0,0,1,0,.64,1.78,1.78,0,0,1-1.09,1.22,4.92,4.92,0,0,1-.65.21,5.36,5.36,0,0,1-1.19.13Z" fill="#110802" fill-opacity="0.25"/>
        <path d="M119.85,104.18a3.22,3.22,0,0,1-.69-.58h0c-.18-.18-.37-.34-.56-.5a11.1,11.1,0,0,0-1.11-.79c-.37-.23-.75-.45-1.14-.65l-.22-.09a1.3,1.3,0,0,1-.52,0,1.42,1.42,0,0,1-1.06-1.69l0,.16a1.76,1.76,0,0,1,.4-.94,1.61,1.61,0,0,1,1.47-.44,1.85,1.85,0,0,1,.21-.45,1.77,1.77,0,0,1,1.25-.71,1.45,1.45,0,0,1,.29-.32,1.43,1.43,0,0,1,1.48-.23h0l.09,0a2.36,2.36,0,0,1,1.76-.58,1.66,1.66,0,0,1,1.38,2.22,2.44,2.44,0,0,1-.14.28,4.29,4.29,0,0,1,1.17,1.37,2.62,2.62,0,0,1,.15,2,2.58,2.58,0,0,1-.8,1.13,4.1,4.1,0,0,1-2,1,3.27,3.27,0,0,1-.44,0A2.15,2.15,0,0,1,119.85,104.18Z" fill="#110802" fill-opacity="0.25"/>
        <path d="M131.4,107.43a1.91,1.91,0,0,1-.06-.33l-.42-.37a2,2,0,0,0-.25-.18l-.06,0,0,0a1.76,1.76,0,0,1-.63.15h-.16a2,2,0,0,1-.38-.08h0a1.38,1.38,0,0,1-1-1.28,1.45,1.45,0,0,1,.69-1.26,2.56,2.56,0,0,1,1-.41,3,3,0,0,1,1.62.2h0a3.88,3.88,0,0,1,4.58,1.36,1.88,1.88,0,0,1-.6,2.61,4.07,4.07,0,0,1-1.24.44,4.17,4.17,0,0,1-.71.07l-.76.12a1,1,0,0,1-.24,0A1.51,1.51,0,0,1,131.4,107.43Z" fill="#110802" fill-opacity="0.25"/>
        <path d="M207.24,75.9a6.31,6.31,0,0,1,.62,2.36A2,2,0,0,1,206.52,80a4.94,4.94,0,0,1-1.85.38l-.43,0a14.31,14.31,0,0,1-1.93-.38,16.93,16.93,0,0,1-2-.64A9.54,9.54,0,0,1,198,77.88c-.48-.39-.94-.83-1.4-1.24s-1-1-1.55-1.44c-1-.93-2-1.87-3-2.84l-.68-.69h0c-.79-.84-1.55-1.71-2.27-2.59A14.29,14.29,0,0,1,187.6,67a12.89,12.89,0,0,1-.95-2.23c-.3-.93-.54-1.88-.89-2.79-.12-.29-.26-.57-.4-.84-.55-1-1.19-1.92-1.82-2.85-.82-1.2-1.64-2.41-2.5-3.58a24.39,24.39,0,0,0-2-2.33,26.86,26.86,0,0,0-2.42-2.23c-.32-.25-.64-.48-1-.7-1.23-.72-3.36-1.35-3-3.19a3.05,3.05,0,0,1,.94-1.45c.45-.43.92-.83,1.37-1.25a12.38,12.38,0,0,0,.93-1,8,8,0,0,0,.64-.89,3.49,3.49,0,0,1,1-1.41,2.59,2.59,0,0,1,1.33-.34c.66,0,1.32,0,2-.09a14.2,14.2,0,0,0,1.45-.26c.52-.14,1-.3,1.55-.49l.69-.31a8.57,8.57,0,0,0,.81-.52l.59-.5.37-.41c.14-.19.28-.38.41-.58s.22-.4.32-.6.11-.29.16-.44.07-.31.11-.46,0-.4.05-.6,0-.53,0-.79a13.36,13.36,0,0,0-.23-1.41c-.1-.38-.22-.75-.35-1.12a6.4,6.4,0,0,0-.39-.84,2,2,0,0,1-.33-1,1.42,1.42,0,0,1,2.76-.5h0a11.48,11.48,0,0,1,1.15,3,4.56,4.56,0,0,1,2.11,2.34,16.7,16.7,0,0,1,.85,2.16,6.88,6.88,0,0,1,.41,2.42,6.51,6.51,0,0,1-.54,2.25,4.18,4.18,0,0,1-1.71,2.17,9.89,9.89,0,0,1-1.86.81,2.4,2.4,0,0,1-1,.17,1.55,1.55,0,0,1-1.27-.93l-.42.22a33.11,33.11,0,0,1-3.44,1.41,11.7,11.7,0,0,0-1.13.54c.17.2.35.41.53.6s.36.35.55.51.4.28.6.41c.88.53,1.8,1,2.7,1.49a25.2,25.2,0,0,1,3,2.09c1.15.86,2.26,1.76,3.39,2.65s2.46,2,3.64,3a27.38,27.38,0,0,1,5.44,7.2c.76,1.36,1.5,2.73,2.18,4.13A38.21,38.21,0,0,1,205.77,72C206.24,73.28,206.73,74.59,207.24,75.9Z" fill="#110802" fill-opacity="0.25"/>
        <path d="M197.24,87.75c.36,1.17-.75,2.09-1.48,2.83a26.86,26.86,0,0,1-2.89,2.65c-1,.78-2.13,1.51-3.2,2.27a19.34,19.34,0,0,1-1.85,1.25,1.59,1.59,0,0,0-.39-.43,1.4,1.4,0,0,0-1.89.25,1.33,1.33,0,0,1-.22-.34,1.54,1.54,0,0,1,0-1.21,2.42,2.42,0,0,1,.24-.45c0-.09.1-.17.14-.26a3,3,0,0,0,.12-.32,1.89,1.89,0,0,0,.05-.23c0-.12,0-.24,0-.37a4.71,4.71,0,0,0,0-.53,9.43,9.43,0,0,0-.18-1q-.16-.61-.39-1.23c-.11-.25-.23-.5-.35-.75s-.32-.51-.49-.76h0c-.22-.29-.45-.56-.7-.83s-.79-.76-1.2-1.11a19.68,19.68,0,0,0-1.84-1.3c-1.27-.78-2.61-1.45-3.91-2.18s-2.43-1.37-3.59-2.15S171,80,170,79.19s-2.31-1.71-3.45-2.58c-.61-.46-1.22-.93-1.85-1.37s-1.33-.87-2-1.29c-1.25-.78-2.46-1.61-3.71-2.38a66.8,66.8,0,0,0-6.51-3.64h0c-1.17-.52-2.37-1-3.56-1.47s-2.22-.88-3.35-1.24a19.32,19.32,0,0,0-2.12-.53c-1.08-.17-2.17-.27-3.26-.38s-2.2-.22-3.3-.27c-.52,0-1,0-1.55,0-.29,0-.6,0-.9,0a1.41,1.41,0,0,1-.08-2.82c.33,0,.67,0,1,0,.63,0,1.26,0,1.88,0,1.25,0,2.49.17,3.73.3a34,34,0,0,1,3.78.52,23.57,23.57,0,0,1,3.2,1h0a2.07,2.07,0,0,1,1.24-.59,6.84,6.84,0,0,1,2,0,1.47,1.47,0,0,1,1.27,1.18c.51.16,1,.34,1.51.53,1.38.54,2.76,1.09,4.09,1.76s2.58,1.41,3.84,2.17,2.77,1.72,4.13,2.65,2.9,2,4.35,3,2.75,2,4.19,2.87l.05,0,0,0,0,0,.05,0h0l.17.1Q177,78.1,179,79.43c1.36.91,2.69,1.89,4.08,2.76a42.55,42.55,0,0,0,4.19,2.29,23.81,23.81,0,0,0,2.56.94,24.81,24.81,0,0,0,2.69.59h.06l2.05.32C195.59,86.5,196.88,86.63,197.24,87.75Z" fill="#110802" fill-opacity="0.25"/>
        <path d="M195.38,86.42a13,13,0,0,1-3.37-.63,6.59,6.59,0,0,1-1.63-.72,1.81,1.81,0,0,1-.66-2.44,7.16,7.16,0,0,1,.58-.78l-.12.14a8,8,0,0,0,.55-.75,7.82,7.82,0,0,0,.43-.81,7.59,7.59,0,0,0,.3-.84c.11-.38.19-.77.27-1.17s.12-1.07.15-1.62a20.07,20.07,0,0,0-.11-2.19,1.23,1.23,0,0,0,0,.19c0-.34-.08-.67-.15-1a3.93,3.93,0,0,1-.15-.76,1.41,1.41,0,0,1,2.8-.29s0,.06,0,.08c.07.29.15.57.2.86a16,16,0,0,1,.19,1.83,5.07,5.07,0,0,1,0,.55,2.16,2.16,0,0,1,.8.22c.35.19.67.42,1,.62l-.05,0,.19.12-.16-.1a21.46,21.46,0,0,0,2.17,1.16,18.13,18.13,0,0,1,3.38,1.7,3.17,3.17,0,0,1,1.53,1.85,2.14,2.14,0,0,1-.39,1.59,6.26,6.26,0,0,1-1.3,1.27,16.51,16.51,0,0,1-1.68,1.24,4.12,4.12,0,0,1-1.21.45c-.26.06-.52.09-.78.13a19.91,19.91,0,0,1-2.31.15Z" fill="#110802" fill-opacity="0.25"/>
        <path d="M113.64,96.76a1.72,1.72,0,0,1-.85-.7c-.31-.44-.55-.92-.81-1.38-.51-.87-1.1-1.67-1.69-2.48l0,.06-.14-.18,0,.07A29.35,29.35,0,0,0,108,89.39c-.16-.16-.34-.32-.52-.47l-.15-.11h0a1.4,1.4,0,0,1-1-1.31,1.45,1.45,0,0,1,1.09-1.43c1-.27,2,.59,2.71,1.28a29.76,29.76,0,0,1,2.67,3.25l.39.52a1.62,1.62,0,0,1,1.22.46,4.52,4.52,0,0,1,.59.72,6.3,6.3,0,0,1,.83,1.61,7.72,7.72,0,0,1,.47.85,1.47,1.47,0,0,1-1.68,2,1.83,1.83,0,0,1-.4,0A1.71,1.71,0,0,1,113.64,96.76Z" fill="#110802" fill-opacity="0.25"/>
        <path d="M48.67,124.28a12.39,12.39,0,0,1-4.38-1.46A18,18,0,0,1,40.46,120a23.7,23.7,0,0,1-3.08-3.77c-.86-1.26-1.64-2.58-2.37-3.91l.09.18c0-.09-.09-.18-.14-.27l-.06-.1v0l0,0c-.7-1.27-1.34-2.57-2-3.86-.29-.56-.57-1.13-.85-1.69-.2-.3-.4-.61-.59-.92-.42-.67-.82-1.35-1.22-2a4.57,4.57,0,0,1-1.43-1.85c-.37-.69-.72-1.39-1.06-2.1-.64-1.38-1.17-2.84-1.72-4.26a83,83,0,0,1-2.75-9c-.27-1-.53-2-.8-3.05a37.47,37.47,0,0,1-1.3-4.14c-.39-1.54-.66-3.1-.93-4.66s-.46-3.08-.59-4.63a37.25,37.25,0,0,1,.18-7.08c0-1.33.07-2.66.17-4,.12-1.56.28-3.1.51-4.65.12-.76.28-1.53.46-2.28.09-.37.21-.73.33-1.1a2.91,2.91,0,0,1,.44-.88l0,0c0-.06,0-.13,0-.19.08-1.34.2-2.69.32-4a20.08,20.08,0,0,1,.25-2,1.49,1.49,0,0,1,1.59-1.31h-.07a1.44,1.44,0,0,1,1.36,1.37,1.31,1.31,0,0,1-.08.48c-.2,1.39-.28,2.8-.38,4.2s-.2,2.87-.26,4.32v0c-.09,3.17,0,6.34,0,9.51s-.06,6.36.17,9.54c0,.45.07.89.12,1.34a71.69,71.69,0,0,0,1.54,8.72,61.66,61.66,0,0,0,2.06,6.52c.62,1.69,1.23,3.39,1.86,5.08l.39,1c.19.47.37,1,.54,1.43a54,54,0,0,0,2.55,5.45s-.06-.11-.09-.17a38.76,38.76,0,0,0,2.3,3.48.61.61,0,0,0-.07-.1c1,1.31,2,2.58,3.11,3.79.41.41.83.81,1.26,1.19a22.16,22.16,0,0,0,1.88,1.34l-.16-.1a42.24,42.24,0,0,0,4.09,2.19c.6.26,1.21.49,1.84.7a14.7,14.7,0,0,0,1.49.36c.43.07.86.11,1.31.14l.58,0,.56-.09.56-.17c.3-.13.59-.26.88-.41l.51-.33.23-.2.31-.35a17.4,17.4,0,0,0,1-1.5,4.31,4.31,0,0,1,.84-1.24,1.53,1.53,0,0,1,1.83-.07c.82.52.69,1.55.59,2.37-.07.54-.16,1.07-.25,1.61-.17,1.07-.33,2.16-.54,3.23a18.29,18.29,0,0,1-.78,2.81,9.81,9.81,0,0,1-.77,1.64l.05-.08-.06.1,0,.06,0-.06a5.31,5.31,0,0,1-1.08,1.23,7.75,7.75,0,0,1-1.91,1.11,8.51,8.51,0,0,1-3.36.67A11,11,0,0,1,48.67,124.28Zm-6.9-7.5v-.06a2.22,2.22,0,0,1,0-.37l-.69-.37C41.32,116.25,41.54,116.52,41.77,116.78Z" fill="#110802" fill-opacity="0.25"/>
        <path d="M42.14,132.39a8.64,8.64,0,0,1-2.91-.34A1.77,1.77,0,0,1,38,130.26a1.86,1.86,0,0,1,.81-1.29,12,12,0,0,1,3.81-1.62,18.32,18.32,0,0,1,2.74-.59,2.86,2.86,0,0,1,2.32.38A28.52,28.52,0,0,1,51,127c1.41,0,2.82.13,4.23.26l2,.2a18.08,18.08,0,0,1,2.07.29,3.29,3.29,0,0,1,1.51.64,1.65,1.65,0,0,1,.47,1.85,2.65,2.65,0,0,1-1.88,1.33,15.26,15.26,0,0,1-3.92.61c-1.35.07-2.7.15-4,.17H47.18l-4,0Z" fill="#110802" fill-opacity="0.25"/>
      </g>
    </g>
  </g>
</svg>
