<?xml version="1.0" encoding="utf-8"?>
<!-- Generator: Adobe Illustrator 26.1.0, SVG Export Plug-In . SVG Version: 6.00 Build 0)  -->
<svg version="1.1" id="Layer_1" xmlns="http://www.w3.org/2000/svg" xmlns:xlink="http://www.w3.org/1999/xlink" x="0px" y="0px"
	 viewBox="0 0 318.3 282.2" style="enable-background:new 0 0 318.3 282.2;" xml:space="preserve">
<style type="text/css">
	.st0{fill:#110802;fill-opacity:0.25;}
	.st1{fill:#110802;}
	.st2{fill:#F0CAA1;}
	.st3{fill:#CC4F32;}
	.st4{fill:#FEFEFE;}
	.st5{fill:#D1A173;}
	.st6{fill:#FFCA11;}
	.st7{fill:#E76D49;}
</style>
<g id="Layer_2_00000163040371491022875400000012665588452355824771_">
	<g id="Vector_layer">
		<g>
			<path class="st0" d="M104.6,267.9c0.3,0.8,0.1,1.6-0.3,2.3c-0.7,0.8-1.7,1.4-2.8,1.6c-1.4,0.5-2.9,0.9-4.4,1.2s-3,0.7-4.5,0.9
				c-3.1,0.4-6.3,0.7-9.4,0.7h-1.8c-2.5,0-5.1-0.1-7.6-0.2c-3.1-0.2-6.1-0.5-9.2-0.7c-3.1-0.2-6.2-0.4-9.3-0.6s-6.2-0.3-9.3-0.6
				s-6-0.4-9-0.7c-3.1-0.3-6.2-0.8-9.2-1.5c-1.5-0.3-3-0.8-4.5-1.3c-0.8-0.3-1.5-0.6-2.2-1.1c-0.7-0.4-1.3-1-1.7-1.7
				c-0.2-0.4-0.3-0.8-0.3-1.2c0-0.4,0.1-0.9,0.3-1.3c0.4-0.7,0.9-1.4,1.6-1.9c0.5-0.5,1.1-0.9,1.7-1.3c1.2-0.7,2.6-1.4,3.9-1.9l0,0
				h0.1c0.8-0.3,1.6-0.6,2.5-0.7c0.7-0.1,1.3-0.1,2,0c1-0.3,2.1-0.5,3.1-0.7c2.9-0.6,5.8-1,8.7-1.4c3.1-0.4,6.1-0.7,9.2-0.9
				s6.1-0.2,9.2-0.2c3.1,0,6.3,0.3,9.5,0.6s6.3,0.6,9.4,1.2c3.1,0.5,6.2,1.3,9.2,2.3c1.6,0.6,3.1,1.2,4.7,1.8
				c1.4,0.6,2.8,1.2,4.1,1.9c1.8,0.9,3.5,2,5.1,3.3C103.8,266.4,104.3,267.1,104.6,267.9z"/>
			<path class="st0" d="M88.4,251.7C88.4,251.6,88.4,251.6,88.4,251.7L88.4,251.7C88.4,251.6,88.4,251.6,88.4,251.7z M88.6,252.2
				L88.6,252.2L88.6,252.2C88.6,252.2,88.6,252.2,88.6,252.2C88.6,252.2,88.6,252.2,88.6,252.2L88.6,252.2L88.6,252.2z M240.7,265.3
				c1,1.2,1.2,2.9,0.4,4.2c-0.8,1.1-1.9,2-3.2,2.5l-0.3,0.1l-0.2,0.1l0,0c-1.5,0.5-3,0.9-4.6,1c-1.1,0.1-2.3,0.2-3.4,0.2
				c-0.5,0-1.1,0-1.6,0c-3.2-0.3-6.4-0.9-9.4-1.9c-6.3-1.7-12.6-3.2-18.9-4.8c-3-0.8-6-1.6-9-2.4c-1.6-0.4-3.2-0.9-4.7-1.3
				c-1.5-0.4-3.1-0.9-4.6-1.3c-3.2-0.9-6.5-1.6-9.9-2.2c-1.5-0.2-3.1-0.5-4.6-0.6c-1.6-0.1-3.2-0.3-4.8-0.4
				c-3.2-0.2-6.4-0.4-9.7-0.5h-1.1c-3.2-0.1-6.4-0.1-9.6-0.2s-6.6,0-9.8,0.2s-6.7,0.5-10,0.7s-6.6,0.5-9.9,0.6
				c-3.3,0.2-6.7,0.2-10-0.1c-3.3-0.4-6.6-1-9.8-1.9c-2.1-0.6-4.4-1.4-5.7-3.2c-0.5-0.7-0.9-1.6-0.9-2.6c0-1,0.3-2,0.8-2.9
				c0.7-1.1,1.6-2.1,2.7-2.8c1.3-1,2.8-1.7,4.3-2.2c1.5-0.5,3.1-0.8,4.7-1c2.8-0.5,5.6-0.7,8.4-0.8c0.2,0,0.4,0,0.6,0.1
				c1-0.1,1.9-0.1,2.9-0.1c3.2-0.1,6.4-0.2,9.6-0.2c1.4,0,2.9,0,4.3,0c1.9,0,3.8,0,5.8,0c3.2,0,6.4-0.3,9.6-0.4
				c2.8-0.1,5.6-0.2,8.5-0.2c1.6,0,3.2,0.1,4.8,0.2l5.1,0.3c3.2,0.2,6.5,0.4,9.7,0.6s6.6,0.6,9.9,1.2s6.3,1.1,9.4,1.9
				s6.2,1.6,9.3,2.4s6,1.5,8.9,2.2l4.6,1.2c1.6,0.4,3.1,0.8,4.7,1.2s3.1,0.8,4.7,1.2l1.2,0.3l0.5,0.2l0,0l0.2,0.1h0.1l0,0
				c6,1.8,11.6,4.6,16.6,8.4C238.6,263.3,239.7,264.2,240.7,265.3z"/>
			<path class="st1" d="M63.6,274.7c-12.4-1.9-25.4-4.3-35.7-12c-5-3.8-9.3-8.2-13-13.3c-4.4-4.8-6.5-11-7.1-17.4
				c-3-16.6,2.6-37.4,18.9-45.1c8.9-4.5,19.2-6.9,29.1-5.6c7.1,0.6,14.7,2.8,18.7,9.3l0,0c1.2,1.6,2.5,3.1,3.7,4.7
				c1.7-3.4,4.2-6.2,6.6-9.1c6.3-8.1,13.8-15.1,22.4-20.8c7-3.9,14.3-7.6,22.2-9.3c0-0.1,0-0.2-0.1-0.4c-0.1-0.3-0.2-0.7-0.2-1
				c-3.7-0.7-7-3.6-7.5-7.4c-0.3-4.1,3-7.4,6-9.7c5.3-2.9,11.7-3.4,17.5-2.4c1.7,0.4,3.8,0.3,5.1,1.7c6.7-4.3,13.6-10.6,22.2-9.2
				c7.5,1.7,10.6,9.5,6.8,16.1c-2.9,4-7.9,5.9-12.5,7.3c0.1,0.4,0.2,0.9,0.2,1.3c11,2.6,21,9.1,29.2,16.8c6.7,6.6,11.5,15,15.3,23.5
				c2.9,1.5,5.9,3.2,9.3,3.1c0.5-0.4,1.3-0.5,1.9-0.2c4.6-0.7,7,4.2,7.7,8c0.8,4.3-2.7,6-6.4,6.4c1.2,1.5,1.7,3.5,1.4,5.4
				c-1.2,6.3-9.4,6.3-14.5,7.1c-2.8,0.8-5.2,2.5-8,3.5c-7.1,3-14.3,5.8-21.6,8.4c-8.3,2.5-16.8,4.2-25.4,5
				c-6.8,0.4-13.5-0.9-20.2-1.5c-5.2-0.6-10.3-1.4-15.4-2.5c-3.4-1-6.7-2.2-10-3.4c0.6,1.7,1.2,3.4,1.9,5c3.1,1.3,6.4,2.1,9.8,2.3
				c1.2,0.2,2.7-0.1,3.6,0.7c0.9,0.3,1.7,1,2.2,1.8c4.7,5.8,1.7,14.3-2.4,19.6c-7.5,9-17.7,12.5-29,13.5c-4.1,0.7-8.2,1-12.4,1
				C77.1,276,70.3,275.3,63.6,274.7z M25.7,191.1c-12.9,7.9-17.3,25.5-14.9,39.7c0.3,4.3,1.5,8.4,3.4,12.3c2.5,3.7,5.2,7.2,8.1,10.4
				c8,8.8,19,13.9,30.5,16c7.1,1.5,14.3,2.5,21.6,2.9c12,1,24.5,0.1,35.9-3.8c8-3.6,16.1-10.3,16.8-19.7c0.1-2.4-0.9-4.8-2.8-6.3
				c-3.6,0-7.1-0.5-10.6-1.5c-5-1.6-9.3-4.6-13.8-7.2l0.2,0.1c-5.3-3.2-8.9-8.6-12.2-13.7c-3.3-5.4-5.3-11.4-8.3-16.9
				c-2.2-3.8-4.7-7.3-7.5-10.7c-1.2-2-2.9-3.6-4.8-4.9c-5-2.5-10.6-3.8-16.2-3.7C42.1,184.4,33.4,186.7,25.7,191.1z M154.6,236.6
				c11.6-1.3,23.3-3.3,34.1-8.1c4.7-1.7,9.5-3.6,14.1-5.6c3.8-1.9,7.4-3.8,11.7-3.8c2.7-0.4,8-1.2,8-4.7c0.1-3.3-2.6-3.9-5.3-4.3
				c-1.9-0.6-4.1-0.6-5.7-1c-5.5,1.1-10,4.8-14.9,7.4c-3.9,2.2-8,4-12.2,5.5c-11.3,4.4-23.5,5.2-35.5,5.3
				c-8.4,0.1-16.6-1.6-24.7-3.6c-3.7-0.9-7.3-1.9-10.9-3.1c-2.7-1.1-5.4-2.4-8.2-3.4c2,3.4,2.7,7.4,3.9,11.1
				c7.1,3.1,14.5,5.1,22.2,6.1l0,0C138.9,235.2,146.7,236.5,154.6,236.6z M107,234.5l0.9,0.6c-1.6-4.5-2.7-9.2-4.2-13.7
				c-3.7-9.4-12.1-15.9-21.4-19.4c2.8,5,4.6,10.5,7.4,15.5c2.6,4.7,5.9,9,9.9,12.6l0,0C102,231.7,104.6,232.9,107,234.5z
				 M98.3,208.2c1.3,1.1,2.4,2.3,3.4,3.6c10.1,5.6,21.5,8.6,32.8,10.8c9.9,2.1,20,1.6,30,0.7c3.7-0.3,7.5-0.9,11.1-1.8
				c6.7-1.7,13.1-4.2,19.2-7.4c4.3-2.3,8.4-5.3,13-7c-3.9-1.8-7.9-3.6-11-6.6c0.4,16.1-21.5,25.7-33.8,15.9
				c-13.4-9.3-3.7-29.7,10.5-31.6c-5.1-2-10.4-3.7-15.9-3.6h0.1c-7.5-0.2-14.9,1.8-21.9,4.2c4.6,0.3,8.8,2.4,12,5.6
				c1.7,2,3,4.3,3.9,6.7c1.7,7,0,15.3-6.1,19.6c-5.5,3.4-14.6,4.2-20.6,1.7c-7.6-3-12.4-11.9-10-19.9
				C110,203.1,104.4,206.2,98.3,208.2z M117.6,201.5c-0.8,6.8,3.3,13.1,9.8,15.1c2.6,0.8,5.4,0.9,8.1,0.5c4.1-0.4,8.4-1.5,10.9-5
				c0.1-0.2,0.2-0.3,0.3-0.5c-7.5,5.5-18.8,3.6-24.2-3.9c-2.6-4-2.7-9.5-1-13.8C120,196.3,118.1,198.7,117.6,201.5L117.6,201.5z
				 M172.7,217c8,0.9,16.6-3.4,19.8-11l0.1-0.3c-4.4,6.7-13.2,8.8-20.6,6.4c-8.1-2.4-11.9-8.4-9.7-16.7
				C155.8,205.5,161.5,215.2,172.7,217L172.7,217z M179,183.9c5.9,4.1,12,8.1,17.7,12.4c2.9,2.2,5.4,4.8,8.9,6.1
				c3.6,2.2,7.8,2.9,11.8,4.2c1.7,0.8,10.1,0.9,10-1.7c0-1.9-1.3-5.9-3.4-6.4c-2.7,0.4-5.5,0.2-8.1-0.4c-1.8-0.6-3.6-1.4-5.2-2.4
				h-0.2c-0.5,0-1-0.3-1.3-0.8c-5.5-2.8-9.9-7.4-14.8-11.1c-5.3-4.2-11.1-7.6-16.6-11.6c-9.5-5.1-20.6-4.8-31-4.2h0.1
				c-14.4,1.3-27.1,9-38.4,17.4c-6.9,5.2-13.2,11.2-20.8,15.6c2.9,1.3,5.5,2.9,8,4.9c5.5-1.7,10.7-4.2,15.4-7.5l0,0l0.2-0.1
				c5.6-4,10.3-9.4,16.6-12.3c7.8-4.7,17-6.9,26.1-7.9c1-0.1,1.9-0.1,2.9-0.1C164.5,178.1,172.2,180.1,179,183.9z M116.7,163.7
				c-5.9,2.5-11.3,5.9-16.1,10.2c-5.1,4.2-9.6,8.9-13.6,14.1c-2.6,3.1-5.3,6.3-7,10.1l0,0c1.3,0.3,2.6,0.8,3.8,1.3
				c8.5-4.3,15.3-11.2,23-16.8c7.6-5.8,15.8-10.6,24.5-14.4c7.8-2.7,16-3.9,24.3-3.6c6.4-0.3,12.7,0.6,18.7,2.7
				c4.6,1.3,8.2,4.5,12.1,7.1c7.4,4.4,13.7,10.3,20.5,15.5c-2.3-4.5-4.9-8.8-7.8-12.8v0.1c-4.9-6.4-11-11.7-18-15.7l0,0
				c-4.3-2.8-9.1-4.9-14.1-6.2c-1.8,4.1-18.5,4.4-23,4.4c-2.6,0-5.2,0-7.8,0c-0.5,0-1.1,0-1.6,0c-1.5,0.1-3.1,0.1-4.2-0.9
				C125.6,159.8,121,161.5,116.7,163.7L116.7,163.7z M171.5,190.4c-1,0.6-2.2,1.3-2.6,2.5c2.4,2.7,9.5,1.6,10.2-2.2
				c0-0.8-0.8-1.3-1.1-1.9h-0.7C175.3,188.8,173.3,189.3,171.5,190.4L171.5,190.4z M134.1,188.1c-0.1,1.4-2.2,2-1.9,3.5
				c0.6,1.5,2.5,1.6,3.9,1.7c2.4,0.2,4.5-1.3,6-3l0,0c-2.3-1.4-5-2.2-7.8-2.1L134.1,188.1z M131.9,155c0.1,0.6,0.3,1.1,0.5,1.6
				c5.5,0.1,11,0.1,16.4,0c5.2-0.4,10.4-0.4,15.2-2.4c-0.1-0.9-0.2-1.7-0.3-2.6c-3.2,0.5-6.5,0.6-9.7,0.3c-0.8-0.1-1.3-0.9-1.2-1.6
				c0.1-0.7,0.7-1.2,1.5-1.2c1.8,0.1,3.7,0.1,5.5,0c6.2-0.7,18.1-3.4,17.9-11.3c0.3-3.1-2-5.8-4.8-6.9h0.1
				c-10.1-2.9-17.3,7.7-26.1,10.7c-1.8,0.5-4.1,2-5.9,1c-0.7-0.4-0.9-1.3-0.5-2c0.4-0.6,1.2-0.9,1.8-0.6c1.6-0.4,3.1-0.9,4.5-1.6
				c-6.9-1.4-16.3-1.6-20.9,4.6c-2.7,3.1-1.5,6.5,2.1,8.1c2.6,1,5.4,0.7,8.1,0.7c0.8,0,1.5,0.6,1.5,1.4c0,1.7-2.2,1.7-4.1,1.7h-0.4
				C132.7,154.9,132.3,154.9,131.9,155L131.9,155z"/>
			<path class="st1" d="M111.1,198.2L111.1,198.2l-0.2,0.1L111.1,198.2z"/>
			<path class="st1" d="M262.4,201.3c-3-0.1-5.9-1.6-8.4-3.2c-1.3-0.8-2.5-1.8-3.7-2.8c-1.2-1-2.3-2.1-3.5-3.1s-2.4-2.1-3.5-3.2
				c-2.2-2.2-4.1-4.6-5.7-7.3c-0.8-1.4-1.4-2.8-2.1-4.3c-0.6-1.3-1.1-2.7-1.6-4c-0.5-1.3-0.9-2.5-1.2-3.9c-0.2-0.8-0.3-1.5-0.4-2.3
				c-0.1-0.7-0.1-1.3-0.1-2c0-0.6,0-1.2,0-1.8c0-0.9,0-1.7,0.1-2.6c0.1-1.5,0.3-2.9,0.6-4.4c0.2-1.4,0.6-2.8,0.9-4.2
				c0.9-3,2-6,3.2-9c0.6-1.4,1.1-2.9,1.8-4.3s1.3-2.6,2.1-3.9s1.4-2.4,2.1-3.6c0.8-1.4,1.7-2.7,2.6-4s1.7-2.4,2.6-3.6
				s1.8-2.5,2.6-3.8s1.7-2.6,2.6-3.8c1.6-2.2,3.3-4.4,4.7-6.7c0.7-1.2,1.4-2.3,2-3.6c0.2-0.4,0.3-0.8,0.4-1.2
				c0.5-1.6,0.8-3.3,1.1-4.9c0.3-1.8,0.7-3.6,1-5.4c0-0.2,0-0.3,0.1-0.4c0.2-1.4,0.5-2.8,0.6-4.2s0.3-3,0.4-4.5l0,0
				c0-0.1,0-0.1,0-0.2c0-0.1,0-0.1,0-0.2s0,0.1,0,0.1c0-1.8,0-3.6-0.2-5.3l0,0c-0.2-1.5-0.3-3-0.4-4.5c-0.1-1.3-0.1-2.6-0.1-3.9
				c-0.1-1.8-0.1-3.7-0.1-5.6c-0.1-1.9,0.3-3.8,1.3-5.5c0.6-0.8,1.3-1.5,2.1-2.1c1-0.7,2-1.3,3-1.9c1.2-0.7,2.5-1.2,3.8-1.6
				c0.5-0.2,1-0.3,1.6-0.4c0.5-0.4,1.1-0.4,1.6-0.2c0.4,0.2,0.8,0.5,1.2,0.8s1,0.6,1.4,1c0.8,0.5,1.4,1.1,2.1,1.7
				c0.7,0.8,1.4,1.7,2,2.7c0.9,1.1,1.8,2.2,2.6,3.4l2.8,3.6c1,1.2,2,2.5,2.8,3.8c0.9,1.3,1.6,2.5,2.3,3.8c0.6,1.1,1.3,2.2,1.9,3.3
				l0,0.1c0.3,0.5,0.6,1,0.9,1.6l0.2,0.4c1.5,2.7,3,5.3,4.3,8c0.6,1.4,1.2,2.8,1.8,4.2s1.1,2.9,1.5,4.3c0.3,1.2,0.6,2.4,0.9,3.6l0,0
				v0.1c0.4,1.5,0.8,3,1.1,4.4s0.6,3.2,0.8,4.7s0.5,3.2,0.7,4.8s0.4,3.1,0.5,4.6c0.2,2,0.3,4,0.5,6c0.2,1.6,0.3,3.1,0.5,4.7
				s0.2,3,0.4,4.4c0,0.2,0,0.3,0,0.5c0,0.2,0.1,0.3,0.1,0.5c0.1,0.4,0.1,0.8,0.1,1.2c0.1,0.6,0.1,1.2,0.1,1.9
				c0.1,1.1,0.1,2.3,0.2,3.4c0.3,3.2,1,6.3,1.1,9.5s0,6.5-0.1,9.8c0,3.1-0.5,6.2-1.5,9.1c-0.6,1.4-1.3,2.6-2.1,3.9
				c-0.8,1.3-1.7,2.5-2.6,3.8c-1.8,2.5-3.7,4.9-5.8,7.2c-2.2,2.2-4.4,4.4-6.8,6.4c-1.2,1-2.4,1.9-3.7,2.9c-0.6,0.4-1.2,0.8-1.8,1.2
				c-0.6,0.4-1.3,0.8-2,1.1c-1.4,0.6-2.8,1.1-4.2,1.6s-2.9,0.9-4.4,1.4s-2.7,0.7-4.1,1c-1.6,0.4-3.1,0.8-4.7,1.1
				c-0.9,0.1-1.7,0.2-2.6,0.2c-0.5,0-0.9,0-1.4,0L262.4,201.3z M237.8,174.4c0.7,1.8,1.5,3.5,2.4,5.2c0.5,1,1.1,1.9,1.8,2.8
				c0.9,1.2,1.8,2.3,2.8,3.4c1.2,1.2,2.5,2.4,3.7,3.5s2.6,2.4,4,3.6c1.3,1,2.6,2,4,2.9c0.7,0.4,1.5,0.9,2.3,1.2
				c0.6,0.3,1.2,0.5,1.8,0.7c0.4,0.1,0.8,0.2,1.2,0.3s0.6,0.1,0.9,0.1h0.1c1.2,0,2.5,0,3.7-0.1c1-0.1,2-0.3,2.9-0.6l4-1
				c0.8-0.2,1.6-0.4,2.5-0.7s1.7-0.5,2.5-0.7s1.5-0.5,2.3-0.8l2.1-0.8c0.7-0.3,1.4-0.6,2.1-1c1.2-0.7,2.3-1.5,3.4-2.3
				c2-1.5,4-3.2,5.8-5c1-0.9,2-1.9,2.9-2.9s1.9-2,2.7-3.1c2.1-2.5,4-5.2,5.7-7.9c0.4-0.7,0.9-1.5,1.2-2.2c0.2-0.5,0.4-1,0.5-1.5
				c0.2-0.8,0.4-1.6,0.5-2.4c0.2-1.7,0.4-3.5,0.4-5.2c0-1.8,0.1-3.6,0.1-5.4s0-3.6-0.2-5.5c-0.2-1.5-0.4-3-0.6-4.5s-0.4-3.3-0.5-4.9
				c0-0.8-0.1-1.6-0.2-2.4c0-0.4-0.1-0.8-0.1-1.2l-0.1-0.5c0-0.2,0-0.4,0-0.5c0,0,0-0.1,0-0.1c0-0.5-0.1-1-0.1-1.5
				c-0.2-1.8-0.3-3.6-0.5-5.4v-0.1c-0.2-1.9-0.4-3.8-0.6-5.7s-0.3-3.7-0.5-5.5c-0.2-2.1-0.6-4.1-0.9-6.2s-0.6-4.2-1.1-6.3
				c-0.4-1.4-0.7-2.8-1.1-4.3c-0.5-1.9-1-3.7-1.7-5.6c-0.6-1.5-1.2-3-1.9-4.5s-1.5-3-2.3-4.5s-1.5-2.7-2.3-4l-0.8-1.5l0,0l0,0
				c0,0,0-0.1,0-0.1l0,0l-0.1-0.2l-0.1-0.2c-0.7-1.2-1.4-2.5-2.2-3.7s-1.5-2.6-2.4-3.8c-1.4-1.9-2.9-3.7-4.4-5.6
				c-0.7-0.9-1.5-1.9-2.2-2.8s-1.3-1.8-2-2.7c-0.3-0.4-0.6-0.7-0.9-1.1c-0.2-0.2-0.5-0.4-0.7-0.6l0,0c-0.6-0.5-1.2-0.9-1.8-1.3
				c-0.2-0.2-0.5-0.3-0.7-0.5l-0.2-0.1h-0.2c-0.7,0.2-1.3,0.4-2,0.6c-0.8,0.3-1.5,0.6-2.3,1c-0.9,0.5-1.8,1.1-2.7,1.7l0,0l0,0
				c-0.2,0.2-0.5,0.4-0.7,0.6s-0.3,0.3-0.5,0.5l-0.2,0.4l-0.2,0.3c-0.1,0.2-0.1,0.3-0.2,0.5s-0.1,0.5-0.2,0.8
				c-0.1,0.4-0.1,0.9-0.1,1.3v0.1c0,0.7,0,1.5,0,2.2c0,0.9,0,1.8,0,2.7c0.1,2.5,0.1,5.1,0.4,7.6l0,0c0.1,1.3,0.3,2.7,0.4,4
				c0.1,1.4,0.1,2.8,0.1,4.2c-0.1,1.5-0.2,3-0.4,4.5s-0.4,3-0.7,4.5s-0.5,3.1-0.8,4.7c-0.2,1.4-0.5,2.8-0.8,4.2
				c-0.2,0.7-0.4,1.4-0.6,2.2c-0.2,0.8-0.5,1.5-0.8,2.2c-0.7,1.4-1.5,2.8-2.3,4.1c-1.6,2.6-3.6,5-5.3,7.5c-0.9,1.2-1.7,2.6-2.5,3.8
				s-1.7,2.5-2.6,3.7c-0.7,1-1.4,1.9-2.1,2.9c-0.7,1-1.4,2.2-2.1,3.3c0-0.1,0.1-0.1,0.1-0.2l-0.2,0.4c-0.8,1.2-1.5,2.5-2.2,3.8
				s-1.4,2.5-2,3.8c-0.8,1.9-1.6,3.9-2.3,5.9s-1.5,4-2.1,6.1c-0.5,1.8-0.9,3.7-1.2,5.6c0,0.1,0,0.1,0,0.2c-0.2,1.1-0.3,2.3-0.4,3.4
				c-0.1,1.6,0,3.2,0.1,4.8c0.1,0.7,0.2,1.3,0.3,2c0,0,0-0.1,0-0.1c0,0,0,0.1,0,0.1l0,0C236.5,170.7,237.1,172.6,237.8,174.4z"/>
			<path class="st1" d="M257.5,80.1c-0.8,0-1.4-0.5-1.7-1.3c-0.1-0.4-0.2-0.9-0.1-1.3c0-0.4,0-0.8,0-1.2c0-0.9,0.1-1.8,0.1-2.7l0,0
				c0.1-2.6,0.1-5.3,0.2-7.9c0.1-2.9,0.2-5.8,0.2-8.7c0-1.6,0-3.3,0-4.9c0-0.8,0-1.6,0-2.4c0-0.4,0-0.8,0-1.2
				c0.1-0.7,0.7-1.2,1.4-1.2c0.7,0,1.3,0.5,1.4,1.2c0,0.3,0,0.7,0,1c0,0.7,0,1.4,0,2v4.5c0,2.9,0,5.9-0.1,8.8
				c-0.1,2.3-0.1,4.5-0.1,6.8c0,1.9-0.1,3.7-0.2,5.6c1.2-0.1,2.5-0.4,3.7-0.5c0-1.6-0.1-3.1,0-4.7c0-1.7,0.2-3.4,0.2-5.2v0.2
				c0.1-2.5,0.1-4.9,0.1-7.4c-0.1-2.2-0.1-4.4-0.2-6.6c0-2-0.1-3.9-0.1-5.9l0,0c0-0.8,0.7-1.4,1.5-1.4c0.7,0,1.3,0.6,1.4,1.3
				c0.1,3.5,0.1,7.1,0.2,10.6c0.1,2.2,0.1,4.3,0,6.5c0,1.4-0.1,2.9-0.1,4.4c0,1.1-0.1,2.2-0.1,3.3c0-0.1,0-0.1,0-0.2
				c0,1.4,0,2.8,0,4.2c0.1,0.8,0,1.7-0.2,2.5c-0.2,0.5-0.6,0.8-1.1,1c-0.2,0.1-0.5,0.1-0.8,0.1c-0.6,0.1-1.1,0.2-1.7,0.3
				c-0.9,0.2-1.9,0.3-2.8,0.4c-0.3,0-0.6,0.1-0.9,0.1L257.5,80.1z"/>
			<path class="st1" d="M232.8,167.4c-0.3-0.1-0.6-0.3-0.9-0.5c-0.3-0.1-0.6-0.3-0.9-0.5c-0.4-0.3-0.7-0.6-1.1-0.9
				c-0.5-0.5-0.9-1-1.4-1.5c-0.9-1.1-1.7-2.3-2.4-3.6c-0.9-1.4-1.6-2.8-2.3-4.3c-0.9-2-1.6-4.1-2.1-6.2l0,0v-0.1c0,0,0,0,0,0.1
				c-0.2-1-0.4-2-0.5-3.1c-0.1-1.2-0.3-2.5-0.4-3.7c-0.1-2.4-0.1-4.8,0-7.2c0,0.1,0,0.1,0,0.2c0-0.2,0-0.4,0-0.5l0,0
				c0.1-1.5,0.1-3.1,0.2-4.6s0.1-3.1,0.2-4.6c0.2-3,0.6-6.1,1.2-9.1c0.6-2.9,1.4-5.8,2.3-8.7c1-2.8,2.1-5.6,3.3-8.3s2.5-5.6,3.7-8.4
				s2.4-5.6,3.8-8.2c0.7-1.3,1.4-2.5,2.2-3.8c0.8-1.2,1.8-2.4,2.8-3.5c2-2.2,4.1-4.2,6.4-6c1.4-1.1,2.8-2,4.3-3.1l0,0l0.2-0.2
				l0.1-0.1l0,0c0.8-0.6,1.6-1.3,2.5-1.9c0.4-0.4,0.9-0.7,1.4-0.8l0,0h0.3l0,0c0.8-0.1,1.5,0.5,1.5,1.3c0,0,0,0.1,0,0.1
				c0,0.6-0.4,1.2-1,1.4c-0.4,0.3-0.9,0.7-1.3,1.1c-0.4,0.3-1.1,0.9-1.7,1.3c-1.2,0.9-2.5,1.8-3.8,2.7h0.1c-1.7,1.3-3.3,2.7-4.8,4.1
				c-1.1,1.1-2.2,2.2-3.2,3.4c-0.8,1-1.5,2.1-2.2,3.2c-1,1.7-2,3.5-2.8,5.4l0,0v0.1c0,0,0,0.1-0.1,0.1v-0.1c-1.2,2.7-2.3,5.3-3.5,8
				c-1.2,2.8-2.5,5.6-3.7,8.4c-0.9,2.1-1.6,4.2-2.3,6.3l0,0c0,0.1-0.1,0.2-0.1,0.3l0,0l0,0l0,0l0,0l-0.1,0.2
				c-0.4,1.4-0.8,2.8-1.1,4.3s-0.6,2.9-0.9,4.4l0,0l0,0c0,0,0,0.1,0,0.1l0,0l0,0c-0.4,2.5-0.6,5-0.7,7.4c-0.1,1.3-0.1,2.6-0.2,3.9
				c-0.1,1.3-0.1,2.5-0.2,3.8c0-0.1,0-0.1,0-0.2c0,0.2,0,0.5,0,0.7v-0.2c0,0.1,0,0.2,0,0.3c0-0.1,0-0.1,0-0.2c0,1.5-0.1,2.9-0.1,4.4
				s0.1,3.1,0.3,4.6v-0.1c0,0.2,0,0.3,0.1,0.5l0,0c0.1,1.3,0.3,2.7,0.6,4V149c0.4,1.5,0.8,2.9,1.4,4.3c0.5,1.2,1,2.4,1.6,3.5l0,0
				l0,0l0,0l0.1,0.3c0-0.1-0.1-0.1-0.1-0.2c0.4,0.8,0.9,1.5,1.4,2.3s0.9,1.5,1.4,2.2l-0.1-0.2l0.1,0.2c0.4,0.6,0.9,1.1,1.4,1.7
				c0.2,0.2,0.4,0.4,0.6,0.6s0.3,0.2,0.5,0.3c0.4,0.2,0.8,0.5,1.2,0.8c0.5,0.5,0.6,1.2,0.3,1.8c-0.3,0.5-0.8,0.8-1.3,0.8
				C233.2,167.4,233,167.4,232.8,167.4z"/>
			<path class="st1" d="M227.8,157L227.8,157z"/>
			<path class="st1" d="M220.9,135.4L220.9,135.4z"/>
			<path class="st1" d="M225,120.2L225,120.2L225,120.2z"/>
			<path class="st1" d="M227,111.3L227,111.3z"/>
			<path class="st1" d="M227,111.3"/>
			<path class="st1" d="M251.5,67.2"/>
			<path class="st1" d="M256,64.1L256,64.1z"/>
			<path class="st1" d="M240.8,138.7h0.2c-0.8,0-1.4-0.6-1.4-1.4c0-0.3,0.1-0.6,0.3-0.9c0.1-0.8,0.2-1.7,0.2-2.5v0.2
				c0.1-2.3,0-4.7-0.2-7v0.2c0-0.1,0-0.2,0-0.3v0.1c-0.1-0.9-0.2-1.8-0.2-2.8c-0.1-1.2-0.1-2.4,0-3.6c0.1-1.3,0.2-2.7,0.4-4
				s0.4-2.6,0.6-3.9c0.2-1.4,0.5-2.8,0.9-4.1c0.4-1.4,0.8-2.8,1.3-4.2s0.9-2.8,1.4-4.2s1-2.7,1.5-4c0.9-2.2,1.8-4.3,2.7-6.5
				s2.1-3.9,3-5.9c0.6-1.4,1.2-2.9,1.7-4.4c0.4-1.2,0.6-2.4,0.9-3.6c0.4-1.5,0.9-3,1.2-4.6c0.1-0.7,0.2-1.3,0.2-2c0-0.6,0-1.1,0-1.7
				c0-0.2-0.1-0.5-0.1-0.7l-0.1-0.3l-0.1-0.1c0,0,0-0.1-0.1-0.1c-0.5-0.6-0.3-1.5,0.3-2c0.6-0.5,1.5-0.3,2,0.3
				c0.6,0.8,0.9,1.7,1,2.6c0.1,1.1,0.1,2.3,0,3.4c-0.4,2.1-0.8,4.2-1.5,6.2c-0.2,0.8-0.4,1.6-0.6,2.4c-0.4,1.2-0.8,2.4-1.3,3.6
				c-0.5,1.3-1.1,2.6-1.7,3.8c-0.6,1.2-1.3,2.4-1.9,3.6c-0.2,0.3-0.3,0.7-0.5,1.1l0,0l0,0l0,0c-0.6,1.3-1.1,2.6-1.7,3.9
				s-1.1,2.6-1.6,3.9c-1.1,2.7-2,5.5-2.9,8.2l-0.1,0.5l0,0c0,0.1-0.1,0.2-0.1,0.3l0,0c-0.5,1.6-0.8,3.3-1.1,4.9
				c-0.2,1.4-0.4,2.9-0.6,4.3c-0.2,1.5-0.3,2.9-0.4,4.4v-0.2c0,1.2,0,2.5,0.1,3.7c0.1,0.9,0.2,1.8,0.2,2.7c0.1,1.1,0.1,2.2,0.1,3.3
				c0,1.5,0,3-0.2,4.5c0,0.6-0.1,1.2-0.4,1.8c-0.3,0.6-0.8,0.9-1.4,0.9L240.8,138.7z"/>
			<path class="st1" d="M239.7,127.1L239.7,127.1z"/>
			<path class="st1" d="M240.5,112.9L240.5,112.9L240.5,112.9L240.5,112.9z"/>
			<path class="st1" d="M244.7,108.2L244.7,108.2z"/>
			<path class="st1" d="M250.9,91.6"/>
			<path class="st1" d="M251,91.6L251,91.6z"/>
			<path class="st1" d="M251,91.6L251,91.6z"/>
			<path class="st1" d="M255.6,47.2L255.6,47.2L255.6,47.2c0-0.1,0-0.2,0-0.3l0,0l0,0l-0.1-0.1c-0.3-0.4-0.7-0.8-1-1.2l0,0
				c-1.4-1.9-2-4.3-1.7-6.6c0.3-1.5,1.2-2.8,2.4-3.6c1.4-0.8,3-1.2,4.7-1.2c1.3,0,2.5,0.2,3.7,0.6c1,0.4,1.9,1.1,2.5,2
				c0.7,1.1,1,2.4,1,3.7c0,1.4-0.4,2.8-1.1,4c-0.4,0.6-0.8,1.2-1.2,1.9s-1.2,1.6-2.3,1.3c-0.6-0.1-1.1-0.6-1.2-1.3h-0.1
				c-0.3,0.1-0.5,0.1-0.8,0c-0.3,0.1-0.6,0.1-0.8,0c-0.6-0.1-1.1-0.4-1.5-0.8c0.1,0.2,0.1,0.3,0.1,0.5c0.1,0.4,0,0.8-0.1,1.2l0,0
				c-0.2,0.6-0.7,1-1.3,1H257C256.3,48.5,255.7,47.9,255.6,47.2z M255.9,41.7c0,0.1,0,0.1,0.1,0.2v-0.4l-0.1-0.1l-0.1-0.1
				C255.8,41.3,255.8,41.5,255.9,41.7L255.9,41.7z"/>
			<path class="st1" d="M258,54.2c-0.8,0-1.6-0.1-2.4-0.3c-0.8-0.2-1.5-0.5-2.2-0.9c-1.3-0.7-2.6-1.6-3.7-2.5
				c-0.6-0.5-1.2-1.1-1.9-1.6c-0.6-0.5-1.1-1.1-1.6-1.8c-0.5-0.6-0.9-1.3-1.3-2c-0.4-0.8-0.8-1.5-1.1-2.3l0,0c0,0-0.1-0.2-0.1-0.3
				l0.1,0.2c-0.5-1.4-1-2.9-1.3-4.4c-0.4-1.5-0.6-3.1-0.6-4.6c0-1.5,0.3-3,0.8-4.4c0.6-1.3,1.3-2.5,2-3.7c1.4-2.2,2.9-4.3,4.5-6.4
				c0.8-1,1.6-2,2.4-3.1s1.4-2,2-3c0.5-0.9,1-1.8,1.5-2.7c0.4-0.9,0.9-1.7,1.5-2.4c0.6-0.8,1.5-1.4,2.5-1.6c1-0.2,2.1,0.1,2.9,0.7
				c1,0.8,1.7,1.9,2.1,3.2l0,0l0.4,1l-0.1-0.2l0.1,0.3c0.2,0.6,0.5,1.3,0.8,1.9c0.2,0.4,0.4,0.7,0.6,1.1c0.3,0.4,0.6,0.8,1,1.2
				c0.9,0.9,1.8,1.6,2.6,2.5c1,1,1.9,2,2.7,3.1c0.8,1.1,1.5,2.3,2.2,3.5c0.3,0.6,0.7,1.2,1,1.8c0.3,0.7,0.6,1.3,0.9,2
				c0-0.1,0-0.1-0.1-0.2c0.2,0.5,0.4,1,0.6,1.5c0.2,0.6,0.3,1.1,0.5,1.7c0-0.1,0-0.1,0-0.2c0,0.1,0.1,0.3,0.1,0.4
				c0.3,1.4,0.5,2.8,0.7,4.3c0.2,1.5,0.3,3,0.3,4.6c0,1.6-0.3,3.2-0.8,4.7c-0.3,0.7-0.7,1.5-1.2,2.2c-0.4,0.6-0.8,1.2-1.2,1.8
				c-0.9,1.3-2.2,2.4-3.6,3.2c-0.8,0.4-1.7,0.8-2.5,1.1c-0.9,0.4-1.9,0.7-2.9,0.8c-0.4,0-0.7-0.1-1-0.3c-0.4,0.2-0.8,0.2-1.2,0.2
				c-0.6,0.1-1.3,0.1-1.9,0.1c-1.1,0-2.2,0.1-3.3,0.1L258,54.2z M265.4,51.3c0.1,0,0.2-0.1,0.3-0.1c0.7-0.2,1.4-0.4,2.1-0.7
				l-0.2,0.1c0.8-0.3,1.6-0.6,2.4-1c0.4-0.2,0.7-0.4,1-0.7s0.5-0.4,0.7-0.6s0.4-0.4,0.5-0.6c0.6-0.7,1.1-1.5,1.6-2.2
				c0.2-0.4,0.4-0.8,0.6-1.1s0.3-0.7,0.4-1s0.2-0.6,0.2-1c0.1-0.5,0.1-1,0.1-1.5c0-1.3,0-2.5-0.2-3.8v0.2c-0.2-1.8-0.4-3.7-0.8-5.5
				c0,0.1,0,0.1,0,0.2c-0.2-0.9-0.5-1.9-0.9-2.8v-0.1c0,0,0-0.1,0-0.1v0.1c-0.4-1-0.8-2-1.3-2.9l0.1,0.2c-0.7-1.2-1.4-2.5-2.2-3.6
				c-0.5-0.6-1-1.2-1.5-1.8c-0.7-0.7-1.4-1.4-2.1-2.1c-0.8-0.7-1.5-1.4-2.2-2.2c-0.6-0.7-1.2-1.6-1.6-2.4c-0.4-0.7-0.6-1.4-0.9-2.2
				c0-0.1-0.1-0.2-0.1-0.3c0,0,0,0,0,0.1c-0.2-0.6-0.5-1.2-0.8-1.8c-0.1-0.1-0.1-0.2-0.2-0.4c-0.1-0.1-0.1-0.1-0.2-0.2L260,9.3h-0.1
				h-0.1h-0.1h-0.1h-0.1h-0.1h-0.1l-0.2,0.1c-0.1,0.1-0.1,0.1-0.2,0.2c-0.1,0.1-0.2,0.2-0.3,0.3c-0.2,0.2-0.3,0.4-0.4,0.6l0.1-0.2
				c-0.5,0.8-0.9,1.6-1.3,2.4c-0.6,1.1-1.2,2.1-1.9,3.1c-1.5,2.3-3.3,4.4-5,6.6c-1.1,1.5-2.2,3.1-3.2,4.7l0.1-0.2
				c-0.7,1.1-1.3,2.3-1.9,3.4c-0.1,0.2-0.1,0.3-0.2,0.5c-0.1,0.3-0.1,0.5-0.2,0.8c-0.1,0.7-0.1,1.5-0.2,2.3c0,0.3,0,0.5,0,0.8
				c0.1,0.7,0.2,1.5,0.4,2.2c0.4,1.5,0.8,3,1.3,4.5c0,0,0,0,0-0.1v0.1l0,0l0,0v0.1l0.1,0.3c0.3,0.7,0.6,1.3,0.9,1.9
				c0.2,0.4,0.4,0.7,0.7,1.1c0.4,0.5,0.8,1,1.2,1.5c0.7,0.7,1.5,1.4,2.3,2s1.4,1.1,2.2,1.6c0.5,0.3,1,0.5,1.5,0.8L256,51
				c0.3,0.1,0.6,0.2,0.9,0.2c0.2,0,0.4,0,0.5,0h-0.2c1.2,0,2.4,0,3.6,0c1,0,2,0,3.1-0.1h0.1h0.4C264.8,51,265.1,51.1,265.4,51.3
				L265.4,51.3z"/>
			<path class="st1" d="M264.2,51.1"/>
			<path class="st1" d="M277.3,31.5v-0.1V31.5L277.3,31.5z"/>
			<path class="st1" d="M273.4,29.2"/>
			<path class="st1" d="M273.3,29.2L273.3,29.2z"/>
			<path class="st1" d="M273.3,29.2L273.3,29.2z"/>
			<path class="st1" d="M261.4,12L261.4,12L261.4,12C261.4,12,261.4,12,261.4,12z"/>
			<path class="st1" d="M227.3,224.5L227.3,224.5c-0.9-0.1-1.8-0.4-2.7-0.6c-1.1-0.3-2.1-0.8-3.1-1.4c-0.7-0.4-1.3-0.8-1.9-1.3
				c-0.6-0.6-0.7-1.6-0.1-2.2c0.5-0.5,1.2-0.6,1.8-0.3c0.4,0.3,0.9,0.6,1.3,0.9s1.1,0.6,1.7,0.9c0.4,0.2,0.9,0.4,1.4,0.5
				c0.8,0.2,1.5,0.4,2.3,0.5H228h0.2l0,0c0.9,0.1,1.8,0.2,2.7,0.3h-0.2c0.6,0,1.3,0,1.9,0c1.3-0.1,2.6-0.4,3.8-0.7h-0.1h0.2
				c0.8-0.2,1.6-0.4,2.4-0.7l0.9-0.4c0.3-0.2,0.6-0.3,0.8-0.5s0.3-0.2,0.4-0.4l-0.6-0.3c-0.4-0.2-0.8-0.4-1.2-0.7
				c-0.9-0.5-1.6-1.3-2.1-2.2c-0.4-1-0.5-2.1-0.2-3.1c0.2-1.1,0.6-2.2,1-3.2c0.3-0.7,0.6-1.4,0.8-2.2c0.1-0.3,0.2-0.7,0.2-1
				c0-0.1,0-0.3,0.1-0.4s0-0.2,0-0.3c0,0,0-0.1,0-0.1l0,0v-0.1l0,0l0,0l-0.1-0.1l-0.1-0.1l-0.2-0.1l-0.2-0.1l-0.2-0.1h-0.4h-0.4
				c-0.3,0-0.6,0.1-0.8,0.1c-1.2,0.3-2.4,0.8-3.6,1.1c-0.7,0.2-1.4,0.3-2.1,0.3c-0.3,0-0.6-0.1-0.9-0.2h-0.1h-0.1l0,0h-0.1l0,0
				l-0.3-0.1h0.1c-0.5-0.2-0.8-0.7-0.8-1.2c0-0.8,0.6-1.4,1.4-1.5c0.3,0,0.6,0,0.9,0.1h0.2h0.2l0.4-0.1c2.1-0.5,4.1-1.6,6.3-1.5
				c1,0,1.9,0.3,2.7,0.9c0.8,0.6,1.3,1.4,1.4,2.4c0.2,2.4-1.1,4.7-1.9,7c0,0,0-0.1,0-0.1c0,0,0,0.1,0,0.1l0,0
				c-0.1,0.4-0.2,0.8-0.3,1.3c0,0.1,0,0.2,0,0.4v0.2c0,0,0,0.1,0,0.1s0,0.1,0,0.1l0.1,0.1c0,0.1,0.1,0.1,0.1,0.2l0.3,0.3
				c0.1,0.1,0.2,0.2,0.2,0.2c0.2,0.1,0.4,0.3,0.6,0.4c0.6,0.3,1.2,0.6,1.8,1c0.8,0.5,1.3,1.4,1.3,2.4c-0.2,0.8-0.6,1.4-1.3,1.9
				c-0.5,0.5-1.1,0.9-1.7,1.2c-1.4,0.7-2.9,1.3-4.5,1.6h0.2c-1.6,0.4-3.2,0.7-4.8,0.8h-0.9C229.9,224.9,228.6,224.7,227.3,224.5z"/>
			<path class="st1" d="M240.6,206.2c-0.2-0.4-0.2-1,0-1.4c0.3-0.7,1.1-0.8,1.8-1c0.4-0.1,0.9-0.2,1.3-0.4c0.8-0.3,1.6-0.7,2.3-1.1
				h-0.1l0.1-0.1l0,0l0,0c0.4-0.2,0.8-0.5,1.2-0.8s0.7-0.6,1-0.9s0.6-0.6,0.9-0.9s0.7-0.9,1-1.4l0.1-0.1l-0.1,0.2
				c0.3-0.4,0.5-0.9,0.7-1.3c0,0.1-0.1,0.1-0.1,0.2c0.1-0.3,0.2-0.6,0.4-0.8c0.3-0.6,1.1-0.9,1.8-0.7c0.7,0.3,1.1,1.1,0.9,1.9
				c-0.4,1.1-1,2.2-1.7,3.2c-0.7,1.1-1.6,2-2.6,2.8c-1.1,0.8-2.3,1.5-3.5,2c-0.6,0.3-1.3,0.6-2,0.8c-0.4,0.1-0.9,0.2-1.3,0.3
				c-0.2,0.2-0.5,0.3-0.8,0.3h-0.1C241.4,206.9,240.9,206.7,240.6,206.2z"/>
			<path class="st1" d="M242.9,219.3c-0.1-0.8,0.4-1.5,1.2-1.7c0.8-0.1,1.6-0.3,2.3-0.4c0.8-0.2,1.6-0.5,2.4-0.8l0,0h0.1l0.1-0.1
				l0,0c1.2-0.5,2.4-1,3.5-1.5s2.3-1.2,3.4-1.8l0,0l0.2-0.1l0,0c2-1.1,3.8-2.3,5.6-3.7l-0.1,0.1c1.3-0.9,2.5-1.9,3.6-3
				c0.5-0.5,1.1-1.1,1.6-1.7c0.4-0.5,0.7-1,1.1-1.5c0.5-0.8,0.9-1.7,1.4-2.6l0,0c0.2-0.4,0.3-0.8,0.5-1.2c0-0.3,0-0.5,0.2-0.7
				c0.3-0.5,0.8-0.8,1.3-0.9c0.7,0,1.3,0.5,1.5,1.2c0,0.5,0,0.9-0.2,1.4c-0.1,0.3-0.2,0.7-0.4,1c-0.3,0.7-0.6,1.4-1,2
				c-0.7,1.3-1.5,2.6-2.5,3.7c-2.1,2.3-4.4,4.2-7,5.9c-2.4,1.6-4.8,3-7.4,4.3c-0.6,0.3-1.2,0.5-1.8,0.8s-1.2,0.5-1.8,0.8
				c-1.3,0.5-2.6,1-3.9,1.2c-0.7,0.1-1.5,0.2-2.2,0.3h-0.1C243.6,220.5,243,220,242.9,219.3z"/>
			<path class="st1" d="M226.4,267.9c-0.6-0.4-1.2-1.1-1.5-1.8c-0.3-0.6-0.6-1.3-0.8-2c-0.2-0.5-0.4-0.9-0.5-1.4
				c0,0.1,0,0.1,0.1,0.2c-1.2-3-2.5-5.9-4.1-8.7l0,0l-0.1-0.1l0,0v-0.1c0-0.1-0.1-0.2-0.1-0.3l0.1,0.2l0,0l0,0l0,0l-1.9-3.4v0.1
				v-0.1l-0.1-0.1l0,0c-1-1.8-2.2-3.6-3.4-5.3l0,0l-0.1-0.1l0,0l0,0c-0.6-0.9-1.3-1.7-1.9-2.6s-1.1-1.6-1.6-2.3v0.1
				c-1.2-1.7-2.6-3.3-4-4.8c-0.7-0.7-1.4-1.4-2.1-2.1s-1.4-1.4-2.1-2.1s-1.2-1.1-1.8-1.6s-1-1-1.6-1.4l0.2,0.1
				c-0.3-0.3-0.7-0.5-1-0.8c-0.6-0.4-0.8-1.3-0.5-1.9c0.4-0.7,1.1-1,1.9-0.7c0.5,0.2,1,0.4,1.4,0.8c0.4,0.3,0.8,0.7,1.2,1
				c0.9,0.8,1.7,1.5,2.5,2.3c1,1,2,2,3,3s2.1,2.1,3,3.2s1.9,2.3,2.8,3.5s1.6,2.3,2.4,3.4c1.1,1.6,2.3,3.1,3.3,4.7s2,3.6,3,5.3
				l-0.1-0.2c0.6,1,1.1,2,1.6,3s1,2.1,1.5,3.2s0.9,2,1.3,3s0.7,1.9,1,2.8c0.2,0.4,0.3,0.7,0.5,1.1c0-0.1-0.1-0.1-0.1-0.2l0.1,0.2
				l0.2-0.1l0.2-0.1l0.5-0.3c0.2-0.2,0.4-0.4,0.6-0.6l0,0c0.1-0.1,0.2-0.2,0.3-0.4l0.3-0.4c0.2-0.4,0.4-0.7,0.6-1.1
				c0.2-0.5,0.4-0.9,0.5-1.4c0.2-0.5,0.2-1,0.3-1.5c0-0.3,0.1-0.7,0.1-1.1c0-1.7-0.1-3.5-0.3-5.2c0,0.1,0,0.1,0,0.2
				c0-0.1,0-0.3-0.1-0.5v0.2c-0.2-1.7-0.5-3.4-0.9-5l0,0c-0.3-1.2-0.6-2.4-1-3.5s-0.8-2.4-1.2-3.6v0.1l-0.1-0.2l0,0
				c-0.8-2.2-1.8-4.3-2.9-6.4l0.1,0.2c-1.1-2-2.4-4-3.7-5.8l0.1,0.2c-1.3-1.7-2.7-3.4-4.2-5c-0.5-0.5-1-1-1.6-1.5l-0.4-0.3
				c-0.1,0-0.3,0-0.4,0c-0.8-0.2-1.3-1.1-1.1-1.9c0.1-0.4,0.3-0.7,0.6-0.9c0.9-0.6,1.9,0,2.7,0.6c0.6,0.5,1.2,1,1.7,1.5
				c0.6,0.6,1.1,1.1,1.6,1.7c1.1,1.2,2.1,2.4,3.1,3.6s1.8,2.5,2.6,3.9c0.8,1.3,1.6,2.6,2.3,3.9c0.7,1.4,1.3,2.8,1.9,4.3
				s1.1,2.9,1.6,4.3s0.9,3.1,1.3,4.7c0.4,1.5,0.6,3,0.8,4.6v-0.2c0.2,1.6,0.3,3.2,0.3,4.7c0.1,1.4-0.1,2.7-0.4,4.1
				c-0.4,1.8-1.2,3.4-2.3,4.9c-0.8,0.9-1.8,1.6-3,2c-0.3,0.1-0.7,0.1-1.1,0.1C227.3,268.1,226.8,268.1,226.4,267.9z"/>
			<path class="st1" d="M204.8,261.4c-0.3-0.5-0.6-1.1-0.6-1.7c-0.2-1.4-0.5-2.7-0.8-4c0,0.1,0,0.1,0.1,0.2c0-0.1-0.1-0.3-0.1-0.4
				v0.2c-0.6-2.4-1.4-4.8-2.2-7.1c-0.8-1.9-1.6-3.7-2.6-5.5c-1-1.9-2.2-3.7-3.4-5.5c-0.8-1-1.6-2-2.5-3c-0.6-0.6-1.2-1.1-1.8-1.6
				c-0.8-0.6-1.6-1.2-2.4-1.8c-0.7-0.5-0.8-1.5-0.2-2.2c0.1-0.2,0.3-0.3,0.5-0.4c0.6-0.3,1.3-0.1,1.7,0.4c0.1,0.1,0.1,0.2,0.2,0.2
				c1,0.7,1.9,1.4,2.9,2.2c1.1,1,2.2,2.1,3.1,3.2c1.8,2.2,3.4,4.6,4.7,7.1v-0.1c0.8,1.4,1.5,2.8,2.1,4.2c0.6,1.4,1.1,2.8,1.6,4.2
				c0.9,2.6,1.5,5.2,2,7.8c0.1,0.3,0.1,0.6,0.2,0.9l0.3-0.1c0.2-0.1,0.5-0.3,0.7-0.4c0.1-0.1,0.3-0.2,0.4-0.3l0.1-0.2v-0.1
				c0.1-0.1,0.1-0.2,0.2-0.4c0.1-0.3,0.3-0.7,0.4-1c0.3-1.1,0.6-2.1,0.8-3.2c0.3-2,0.5-4,0.5-6V247c0,0.1,0,0.1,0,0.2
				c0.1-1.3,0.1-2.6,0.1-4c-0.1-0.8-0.1-1.6-0.1-2.4c0.1-0.8,0.8-1.4,1.6-1.3c0.7,0.1,1.2,0.6,1.3,1.2v0.1v-0.1
				c0.2,0.8,0.3,1.6,0.3,2.5c0,1.4,0,2.8,0,4.2v-0.2c0,2-0.2,4-0.5,6c-0.2,1.4-0.6,2.8-1,4.2c-0.2,0.7-0.5,1.3-0.8,1.9
				c-0.3,0.4-0.6,0.8-1,1.1c-0.4,0.4-0.9,0.7-1.5,1c-0.6,0.4-1.3,0.6-1.9,0.8c-0.2,0-0.3,0-0.5,0
				C205.9,262.1,205.2,261.9,204.8,261.4z"/>
			<path class="st1" d="M186.3,252.2c-0.8-0.1-1.6-0.4-2.2-0.9c-0.7-0.6-1.1-1.5-1.3-2.4c-0.3-1.3-0.6-2.6-0.9-3.9
				c-0.4-1.9-1-3.7-1.6-5.5c-0.3-0.7-0.6-1.5-1-2.1c-0.4-0.7-0.9-1.4-1.3-2l-0.4-0.4c-0.3-0.2-0.5-0.6-0.6-1
				c-0.1-0.4,0.1-0.9,0.4-1.2c0.4-0.4,0.9-0.5,1.4-0.4c0.6,0.2,1.1,0.6,1.4,1.2c0.5,0.6,0.9,1.2,1.3,1.9c0.8,1.3,1.5,2.7,1.9,4.2
				c0.9,2.6,1.6,5.3,2.1,8.1l0.1,0.5c0.1,0.2,0.1,0.5,0.2,0.7c0,0,0,0.1,0.1,0.1v0.1l0.1,0.1l0,0l0,0h0.1l0.1,0.1h0.2h0.2l0.3-0.1
				c0.6-0.2,1.1-0.5,1.6-0.8l0.2-0.1l0.1-0.1l0.1-0.3c0.1-0.1,0.1-0.3,0.2-0.5c0.2-0.6,0.3-1.2,0.4-1.8c0.2-1.4,0.3-2.9,0.4-4.3
				c0,0.1,0,0.1,0,0.2v-0.2c0-1.2,0-2.5,0.1-3.7c0-0.9,0-1.9,0-2.8c-0.1-0.5-0.1-1.1-0.2-1.6c-0.2-0.8,0.3-1.6,1.1-1.8
				c0.8-0.2,1.6,0.3,1.8,1.1c0,0.1,0,0.1,0,0.2c0,0.1,0,0.2,0.1,0.3c0.2,0.5,0.3,1,0.4,1.6c0.1,0.5,0.1,1,0.1,1.6c0,1.3,0,2.7-0.1,4
				s-0.1,3-0.2,4.4c-0.1,1.5-0.4,2.9-1,4.3c-0.2,0.7-0.7,1.2-1.3,1.6c-0.6,0.4-1.2,0.7-1.9,1c-0.4,0.2-0.8,0.3-1.1,0.5
				c-0.4,0.1-0.7,0.1-1.1,0.1L186.3,252.2z"/>
			<path class="st1" d="M115.4,232.7c0-0.8,0.6-1.4,1.4-1.5c0.8,0,1.4,0.6,1.5,1.4s-0.6,1.4-1.4,1.5c0,0,0,0,0,0
				C116.1,234,115.5,233.4,115.4,232.7z"/>
			<path class="st1" d="M114.3,240.4c-0.7-0.1-1.3-0.7-1.3-1.4c0-0.4,0.1-0.9,0.2-1.3c0.1-0.5,0.2-1,0.3-1.4
				c0.1-0.9,0.4-1.7,0.7-2.6c0.4-0.9,0.9-2,2-2.2c0.8-0.1,1.6,0.4,1.7,1.2c0,0.2,0,0.4,0,0.6c0-0.1,0-0.1,0-0.2
				c0,0.6-0.4,1.1-0.9,1.4c-0.1,0.2-0.2,0.5-0.2,0.7c-0.1,0.4-0.2,0.9-0.3,1.4c0,0.1,0,0.1,0,0.2l0,0c-0.1,0.5-0.2,1-0.2,1.4
				s-0.2,0.7-0.2,1c-0.2,0.7-0.7,1.1-1.4,1.1L114.3,240.4z"/>
			<path class="st2" d="M227.4,204.9c0.1,2.7-8.3,2.6-10,1.7c-4-1.2-8.2-1.9-11.8-4.2c-3.5-1.2-6-3.9-8.9-6.1
				C191,192,185,188,179,183.9c-6.9-3.8-14.6-5.9-22.4-6c-1,0-1.9,0-2.9,0.1c-9,1-18.2,3.2-26.1,7.9c-6.4,2.9-11,8.3-16.6,12.3
				l-0.2,0.1l0,0c-4.7,3.3-9.9,5.8-15.4,7.5c-2.5-1.9-5.1-3.6-8-4.9c7.5-4.4,13.9-10.4,20.8-15.6c11.4-8.4,24-16.2,38.4-17.4h-0.1
				c10.5-0.6,21.5-0.8,31,4.2c5.5,4,11.2,7.5,16.6,11.6c4.9,3.7,9.3,8.3,14.8,11.1c0.3,0.5,0.8,0.8,1.3,0.8h0.2
				c1.7,0.9,3.4,1.7,5.2,2.4c2.7,0.6,5.4,0.8,8.1,0.4C226,199,227.4,203,227.4,204.9z"/>
			<path class="st2" d="M222.5,214.4c0,3.5-5.3,4.3-8,4.7c-4.3-0.1-8,1.9-11.7,3.8c-4.6,2-9.2,3.8-13.9,5.6h-0.1h-0.1
				c-3.3,1.5-6.8,2.8-10.3,3.8c-0.2,0-0.5,0.1-0.7,0.2c-7.6,2-15.3,3.4-23.1,4.2c-7.9,0-15.7-1.3-23.5-2.3c-7.6-0.9-15.1-3-22.1-6.1
				c-1.2-3.7-1.9-7.6-3.9-11.1c2.8,0.9,5.4,2.3,8.2,3.4c3.6,1.2,7.3,2.1,10.9,3c8.1,2,16.4,3.7,24.7,3.6c12-0.1,24.3-0.8,35.5-5.3
				c4.2-1.5,8.3-3.3,12.2-5.5c4.9-2.6,9.3-6.3,14.9-7.4c1.6,0.5,3.7,0.4,5.7,1C219.9,210.5,222.5,211.1,222.5,214.4z"/>
			<path class="st3" d="M196.7,200.4c3.1,3.1,7.1,4.8,11,6.6c-4.6,1.7-8.7,4.7-13,7c-6.1,3.2-12.5,5.7-19.2,7.4
				c-3.6,0.9-7.4,1.5-11.1,1.8c-10,0.9-20.1,1.4-30-0.7c-11.3-2.2-22.8-5.1-32.8-10.8c-1-1.3-2.2-2.5-3.4-3.6c6.1-2,11.8-5.1,16.8-9
				c-2.4,7.9,2.4,16.9,10,19.9c6,2.5,15.1,1.7,20.6-1.7c6.1-4.3,7.8-12.7,6.1-19.6c-0.9-2.5-2.2-4.7-3.9-6.7
				c-3.2-3.3-7.4-5.3-12-5.6c7-2.4,14.4-4.4,21.9-4.2h-0.1c5.5,0,10.8,1.6,15.9,3.6c-14.2,1.9-23.9,22.2-10.5,31.6
				C175.3,226.1,197.2,216.5,196.7,200.4z"/>
			<path class="st4" d="M178,188.7c0.3,0.7,1.1,1.1,1.1,1.9c-0.7,3.9-7.8,4.9-10.2,2.2c0.4-1.2,1.7-1.8,2.6-2.5
				c1.8-1,3.7-1.6,5.8-1.7L178,188.7z"/>
			<path class="st4" d="M192.7,205.8l-0.1,0.3c-3.2,7.5-11.8,11.9-19.8,11c-11.2-1.9-17-11.6-10.4-21.6c-2.1,8.3,1.6,14.3,9.7,16.7
				C179.4,214.6,188.2,212.5,192.7,205.8z"/>
			<path class="st4" d="M146.9,211.7l-0.3,0.5c-2.5,3.5-6.8,4.6-10.9,5c-2.7,0.4-5.5,0.2-8.1-0.5c-6.3-1.9-10.8-8.5-9.8-15.1
				c0.5-2.9,2.4-5.2,4.1-7.5c-1.7,4.3-1.6,9.8,1,13.8C128.1,215.3,139.4,217.2,146.9,211.7z"/>
			<path class="st4" d="M142.1,190.3L142.1,190.3c-1.5,1.7-3.6,3.3-6,3c-1.4,0-3.3-0.2-3.9-1.7c-0.2-1.5,1.8-2.1,2-3.5h0.2
				C137.1,188.1,139.8,188.8,142.1,190.3z"/>
			<path class="st5" d="M262.5,59.6c0.1,2.4,0,4.8-0.1,7.2c-0.1,1.7-0.2,3.4-0.2,5.2c0,1.6,0.1,3.1,0,4.7c-1.2,0.1-2.5,0.4-3.7,0.5
				c0.1-1.9,0.2-3.8,0.2-5.6c0-2.3,0.1-4.5,0.1-6.8c0.1-2.9,0.1-5.9,0.1-8.8v-1.7c1,0,2,0,3-0.1h0.4
				C262.4,55.9,262.5,57.7,262.5,59.6z"/>
			<path class="st6" d="M275,37c0.1,1.3,0.2,2.5,0.2,3.8c0,0.5-0.1,1-0.1,1.5c-0.1,0.3-0.1,0.7-0.2,1s-0.2,0.7-0.4,1
				s-0.4,0.8-0.6,1.1c-0.5,0.8-1,1.5-1.6,2.2c-0.2,0.2-0.3,0.4-0.5,0.6s-0.5,0.4-0.7,0.6s-0.7,0.5-1,0.7c-0.7,0.4-1.5,0.7-2.2,1
				c-0.7,0.3-1.4,0.5-2.1,0.7c-0.1,0-0.2,0.1-0.3,0.1l-0.2-0.1c0-1.4,0-2.8-0.1-4.2c0-0.2-0.1-0.4-0.2-0.6c0.4-0.5,0.8-1.1,1.1-1.7
				c0.7-1.2,1.1-2.6,1.1-4c0-1.3-0.3-2.6-1-3.7c-0.6-0.9-1.5-1.6-2.5-2c-1.2-0.5-2.4-0.7-3.7-0.6c-1.6,0-3.2,0.3-4.7,1.1
				c-1.3,0.8-2.2,2.1-2.4,3.6c-0.3,2.3,0.3,4.7,1.7,6.6c0.3,0.4,0.7,0.8,1,1.2c0,0,0,0.1,0,0.1l0,0l0,0c0,0.1,0,0.2,0,0.3l0,0l0,0
				c0,0.5,0.3,0.9,0.7,1.2c0,0,0,0.1,0,0.2c0,0.4,0,0.8,0,1.2c0,0.4,0,0.9,0,1.3h-0.1c-0.2-0.1-0.5-0.2-0.7-0.3
				c-0.5-0.2-1-0.5-1.5-0.8c-0.8-0.5-1.5-1-2.2-1.6s-1.5-1.3-2.3-2c-0.4-0.5-0.8-1-1.2-1.5c-0.2-0.3-0.5-0.7-0.7-1.1
				c-0.3-0.6-0.6-1.3-0.9-1.9l-0.1-0.3l0,0l0,0l0,0c-0.5-1.5-1-2.9-1.3-4.5c-0.1-0.7-0.3-1.4-0.4-2.2c0-0.3,0-0.5,0-0.8
				c0-0.8,0.1-1.5,0.2-2.3c0.1-0.3,0.1-0.5,0.2-0.8c0-0.2,0.1-0.3,0.2-0.5c0.5-1.1,1.1-2.2,1.8-3.3c1-1.6,2-3.2,3.2-4.7
				c1.6-2.2,3.5-4.3,5-6.6c0.7-1,1.3-2.1,1.9-3.1c0.4-0.8,0.8-1.5,1.2-2.3c0.1-0.2,0.3-0.4,0.4-0.6c0.1-0.1,0.2-0.2,0.3-0.3l0.2-0.2
				l0.2-0.1h0.1h0.1h0.1h0.1h0.1h0.1h0.1c0.1,0,0.1,0.1,0.2,0.2c0.1,0.1,0.1,0.1,0.2,0.2c0.1,0.1,0.2,0.2,0.2,0.4
				c0.3,0.6,0.5,1.2,0.8,1.8c0,0,0,0,0-0.1l0.1,0.3c0.3,0.7,0.6,1.5,0.9,2.2c0.4,0.8,0.9,1.6,1.5,2.4c0.7,0.8,1.4,1.5,2.2,2.2
				c0.7,0.7,1.5,1.4,2.1,2.1c0.5,0.6,1,1.2,1.5,1.8c0.8,1.1,1.5,2.2,2.1,3.4c0.5,0.9,1,1.9,1.4,2.8c0,0,0,0,0,0.1v0.1
				c0.3,0.9,0.6,1.8,0.9,2.7v0C274.5,33.6,274.8,35.3,275,37z"/>
			<path class="st6" d="M262.4,51.2H261h-2c0-0.6,0-1.2,0-1.9c0-0.3,0-0.7,0-1c-0.1-0.4-0.3-0.7-0.6-1c0.1-0.3,0.1-0.7,0-1
				c0-0.2-0.1-0.3-0.1-0.5c0.4,0.4,0.9,0.7,1.5,0.8c0.3,0.1,0.6,0.1,0.8,0c0.3,0,0.5,0,0.8,0h0.1c0.1,0.5,0.4,0.9,0.8,1.2
				C262.3,49,262.3,50.1,262.4,51.2z"/>
			<path class="st7" d="M124.3,242.6c1.9,1.6,2.9,3.9,2.8,6.4c-0.7,9.4-8.7,16.1-16.8,19.7c-11.4,3.9-23.9,4.7-35.9,3.8
				c-7.3-0.4-14.5-1.4-21.6-2.9c-11.6-2.1-22.6-7.2-30.5-16c-2.9-3.3-5.7-6.8-8.1-10.4c-1.9-3.8-3-8-3.3-12.3
				c-2.5-14.2,2-31.8,14.9-39.7c7.7-4.4,16.4-6.7,25.3-6.9c5.6-0.1,11.2,1.2,16.3,3.7c2,1.3,3.6,2.9,4.8,4.9
				c2.8,3.4,5.3,6.9,7.5,10.7c3,5.5,5,11.6,8.3,16.9c3.3,5,6.9,10.4,12.1,13.6c4.5,2.6,8.8,5.6,13.8,7.2
				C117.2,242.1,120.8,242.6,124.3,242.6z"/>
			<path class="st7" d="M107.9,235l-0.9-0.6c-2.4-1.6-5-2.7-7.3-4.5l0,0c-3.9-3.7-7.3-7.9-9.9-12.6c-2.8-5-4.7-10.5-7.4-15.5
				c9.2,3.5,17.7,10,21.4,19.4C105.2,225.9,106.3,230.5,107.9,235z"/>
			<path class="st7" d="M199.1,177.1c2.9,4.1,5.5,8.4,7.8,12.8c-6.8-5.2-13.1-11.1-20.5-15.5c-3.9-2.5-7.5-5.8-12.1-7.1
				c-6-2.1-12.4-3.1-18.7-2.7c-8.2-0.3-16.5,0.9-24.3,3.6c-8.7,3.8-17,8.6-24.5,14.4c-7.6,5.6-14.5,12.5-23,16.8
				c-1.2-0.5-2.5-0.9-3.8-1.3l0,0c1.7-3.8,4.4-7,7-10.1c4-5.2,8.5-9.9,13.6-14.1c4.8-4.3,10.2-7.7,16.1-10.2c4.3-2.2,8.9-3.9,13.7-5
				c1.1,1,2.7,1,4.2,0.9c0.5,0,1.1,0,1.6,0c2.6,0,5.2-0.1,7.8,0c4.5,0,21.2-0.2,23-4.4c5,1.3,9.8,3.4,14.1,6.3l0,0
				C188.1,165.5,194.2,170.8,199.1,177.1L199.1,177.1z"/>
			<path class="st7" d="M114.2,233.5c0,0.1-0.1,0.2-0.1,0.3c-0.3,0.8-0.5,1.7-0.7,2.6c-0.1,0.4-0.2,0.9-0.2,1.3
				c-0.4-0.1-0.8-0.3-1.1-0.5c-0.7-1.6-1.3-3.3-1.9-5L114.2,233.5z"/>
			<path class="st7" d="M190.1,234.8c0.1,0.9,0,1.9,0,2.8c0,1.2,0,2.4-0.1,3.7l0,0c0,1.4-0.1,2.8-0.4,4.3c-0.1,0.6-0.2,1.2-0.4,1.8
				c-0.1,0.2-0.1,0.3-0.2,0.5l-0.1,0.3l-0.1,0.1l-0.2,0.1c-0.5,0.3-1.1,0.5-1.6,0.8l-0.3,0.1h-0.1h-0.2h-0.2h-0.1H186l0,0l0,0
				c0,0,0,0-0.1,0c0,0,0-0.1,0-0.1c0,0-0.1-0.1-0.1-0.1c-0.1-0.2-0.1-0.5-0.2-0.7l-0.1-0.5c-0.5-2.7-1.3-5.4-2.1-8.1
				c-0.5-1.5-1.1-2.9-1.9-4.2l-0.5-0.7l0.3-0.1c2.6-0.9,5.1-1.9,7.7-2.8c0.3,0.2,0.7,0.5,1,0.8c-0.1,0.3-0.2,0.6-0.1,0.9
				C189.9,233.8,190,234.3,190.1,234.8z"/>
			<path class="st7" d="M210.6,240.2l0.1,0.1c-0.1,0.1-0.1,0.3-0.1,0.4c0,0.8,0,1.6,0.1,2.4c0,1.2,0,2.5,0,3.8v0.2l0,0l0,0
				c0,2-0.2,4-0.5,5.9c-0.2,1.1-0.5,2.1-0.8,3.2c-0.1,0.4-0.2,0.7-0.4,1c-0.1,0.1-0.1,0.2-0.2,0.4v0l-0.1,0.2
				c-0.1,0.1-0.2,0.2-0.4,0.3c-0.2,0.2-0.5,0.3-0.7,0.4l-0.3,0.1c-0.1-0.3-0.1-0.6-0.2-0.9c-0.5-2.7-1.1-5.3-2-7.8
				c-0.5-1.4-1-2.9-1.6-4.2c-0.6-1.4-1.3-2.8-2.1-4.1c0,0,0,0,0-0.1c-1.3-2.5-2.9-4.9-4.7-7.1c-0.9-1.2-2-2.2-3.1-3.2
				c-0.4-0.3-0.8-0.6-1.2-1c2.1-0.8,4.3-1.7,6.4-2.5l0.4,0.3l0,0c0.5,0.4,1.1,0.9,1.6,1.4s1.2,1.1,1.8,1.7s1.4,1.4,2.1,2.1
				s1.4,1.4,2.1,2.1c1.4,1.5,2.8,3.1,4,4.7L210.6,240.2z"/>
			<path class="st7" d="M231.2,253.1c0.2,1.7,0.3,3.5,0.3,5.2c0,0.4,0,0.7-0.1,1c-0.1,0.5-0.2,1-0.4,1.5c-0.1,0.5-0.3,1-0.5,1.4
				c-0.2,0.4-0.4,0.8-0.6,1.1c-0.1,0.1-0.2,0.2-0.3,0.4l-0.3,0.3l0,0l0,0c-0.2,0.2-0.4,0.4-0.6,0.5l-0.5,0.3l-0.2,0.1l-0.2,0.1
				c0-0.1-0.1-0.1-0.1-0.2c0,0.1,0.1,0.1,0.1,0.2c-0.2-0.4-0.4-0.7-0.5-1.1c-0.4-0.9-0.7-1.9-1-2.8c-0.3-0.9-0.8-2-1.3-3
				s-1-2.1-1.5-3.2s-1.1-2-1.6-3l0,0c-0.9-1.7-1.9-3.5-2.9-5.1s-2.1-3.2-3.3-4.7c-0.8-1.1-1.6-2.3-2.4-3.4s-1.8-2.4-2.8-3.5
				s-2-2.2-3-3.2s-2-2-3-3c-0.8-0.8-1.6-1.5-2.5-2.3l-0.2-0.2l1-0.4c2.7-1,5.1-2.7,7.9-3.5c1.1-0.2,2.4-0.3,3.8-0.5
				c0.1,0.1,0.3,0.2,0.5,0.2c0.1,0,0.3,0,0.4,0l0.4,0.3c0.5,0.5,1.1,0.9,1.6,1.5c1.5,1.6,2.9,3.3,4.2,5c1.3,1.8,2.5,3.7,3.6,5.6l0,0
				c1.1,2,2,4.1,2.8,6.2l0,0v0.1c0.4,1.2,0.9,2.4,1.2,3.6s0.7,2.3,1,3.5c0.4,1.6,0.7,3.1,0.9,4.7v0.2L231.2,253.1z"/>
			<path class="st7" d="M241,219.1c-0.1,0.1-0.3,0.2-0.4,0.4s-0.5,0.4-0.8,0.5s-0.6,0.3-0.9,0.4c-0.8,0.3-1.6,0.5-2.4,0.7h-0.2
				c-1.2,0.3-2.5,0.5-3.7,0.7c-0.6,0-1.1,0.1-1.7,0.1l0,0c-0.9,0-1.8-0.1-2.7-0.3h-0.1c-0.8-0.1-1.6-0.3-2.3-0.5
				c-0.5-0.1-0.9-0.3-1.4-0.5c-0.6-0.3-1.1-0.6-1.7-0.9l0,0c1.4-1,2.3-2.4,2.6-4.1c0.3-1.9-0.2-3.9-1.4-5.4c2.7-0.3,5.3-1.3,6.2-3.5
				c0.2,0.1,0.4,0.1,0.7,0.1c0.7,0,1.4-0.1,2.1-0.3c1.2-0.4,2.4-0.8,3.6-1.1c0.3-0.1,0.6-0.1,0.8-0.2h0.4h0.4l0.2,0.1l0.2,0.1
				l0.2,0.1l0.1,0.1l0.1,0.1l0,0l0,0c0,0,0,0,0,0.1l0,0c0,0,0,0.1,0,0.1c0,0.1,0,0.2,0,0.3s0,0.3-0.1,0.4c-0.1,0.3-0.1,0.7-0.2,1
				c-0.2,0.7-0.5,1.4-0.8,2.2c-0.4,1-0.8,2.1-1,3.2c-0.3,1-0.2,2.1,0.2,3.1c0.5,0.9,1.2,1.7,2.1,2.2c0.4,0.2,0.8,0.5,1.2,0.7
				L241,219.1z"/>
			<path class="st7" d="M269,200.8c-0.4,0.8-0.8,1.6-1.3,2.4c-0.3,0.5-0.7,1-1.1,1.5c-0.5,0.6-1,1.2-1.5,1.7c-1.1,1-2.3,2-3.5,2.9
				c-1.8,1.3-3.7,2.6-5.6,3.7l-0.2,0.1c-1.1,0.6-2.2,1.2-3.4,1.8s-2.3,1-3.5,1.5l0,0h-0.1l0,0c-0.8,0.3-1.6,0.6-2.4,0.8
				c-0.8,0.2-1.5,0.3-2.3,0.4h-0.2c-0.2-0.4-0.5-0.7-0.9-0.9c-0.6-0.4-1.2-0.7-1.8-1c-0.2-0.1-0.4-0.3-0.6-0.4
				c-0.1-0.1-0.2-0.1-0.2-0.2c-0.1-0.1-0.2-0.2-0.3-0.3c0-0.1-0.1-0.1-0.1-0.2l-0.1-0.1c0,0,0-0.1,0-0.1s0-0.1,0-0.1v-0.2
				c0-0.1,0-0.2,0-0.4c0.1-0.4,0.2-0.9,0.3-1.3l0,0c0,0,0,0,0-0.1c0.6-1.7,1.5-3.5,1.8-5.3l0,0c0.3,0,0.6-0.1,0.8-0.3
				c0.4-0.1,0.9-0.2,1.3-0.3c0.7-0.2,1.4-0.5,2-0.8c1.2-0.5,2.4-1.2,3.5-2c1-0.8,1.9-1.8,2.6-2.8c0.6-0.9,1.2-1.9,1.6-2.9l0.2,0.2
				c2.5,1.6,5.4,3.1,8.4,3.2h1c0.5,0,1,0,1.4,0c0.9,0,1.7-0.1,2.6-0.2C268,201,268.5,200.9,269,200.8z"/>
			<path class="st7" d="M308,149c0.2,1.8,0.2,3.6,0.2,5.5s0,3.6-0.1,5.4c0,1.8-0.2,3.5-0.4,5.2c-0.1,0.8-0.3,1.6-0.5,2.4
				c-0.2,0.5-0.3,1-0.5,1.5c-0.4,0.8-0.8,1.5-1.2,2.2c-1.7,2.8-3.6,5.4-5.7,8c-0.9,1-1.8,2.1-2.7,3s-1.9,1.9-2.9,2.9
				c-1.8,1.8-3.8,3.4-5.8,5c-1.1,0.8-2.2,1.6-3.4,2.3c-0.7,0.4-1.4,0.7-2.1,1l-2.1,0.8c-0.8,0.3-1.5,0.6-2.3,0.8s-1.7,0.5-2.5,0.7
				s-1.6,0.5-2.5,0.7c-1.3,0.3-2.6,0.6-4,1c-1,0.2-1.9,0.4-2.9,0.5c-1.2,0.1-2.5,0.1-3.7,0.1h-0.1c-0.3,0-0.6,0-0.9-0.1
				c-0.4-0.1-0.8-0.2-1.2-0.3c-0.6-0.2-1.2-0.4-1.8-0.7c-0.8-0.4-1.5-0.8-2.3-1.2c-1.4-0.9-2.7-1.8-4-2.9c-1.4-1.1-2.7-2.4-4-3.6
				s-2.5-2.3-3.7-3.5c-1-1.1-2-2.2-2.8-3.4c-0.7-0.9-1.3-1.9-1.8-2.8c-0.9-1.7-1.7-3.4-2.3-5.2c-0.7-1.8-1.4-3.7-1.9-5.7
				c-0.1-0.7-0.3-1.3-0.3-2c-0.1-1.6-0.2-3.2-0.1-4.8c0.1-1.1,0.2-2.3,0.4-3.4c0-0.1,0-0.1,0-0.2c0.3-1.9,0.7-3.7,1.2-5.6
				c0.6-2,1.4-4.1,2.1-6.1s1.5-3.9,2.3-5.9c0.6-1.3,1.3-2.6,2-3.8s1.4-2.5,2.2-3.8l0.2-0.4c0,0.1-0.1,0.1-0.1,0.2
				c0.7-1.1,1.4-2.2,2.1-3.3c0.7-1.1,1.4-1.9,2.1-2.9c0.9-1.2,1.8-2.5,2.6-3.7s1.6-2.6,2.5-3.8c1.8-2.5,3.7-4.9,5.3-7.5
				c0.8-1.3,1.6-2.7,2.3-4.1c0.4-0.7,0.6-1.5,0.8-2.2c0.2-0.7,0.4-1.4,0.5-2.2c0.3-1.4,0.5-2.8,0.8-4.2c0.3-1.6,0.5-3.1,0.8-4.7
				c0.2-1.5,0.5-3,0.7-4.5s0.3-3,0.4-4.5c0.1-1.4,0-2.8-0.1-4.2c-0.1-1.3-0.3-2.7-0.4-4l0,0c-0.2-2.5-0.3-5-0.4-7.6
				c0-0.9,0-1.8,0-2.7c0-0.7,0-1.5,0-2.2v-0.1c0-0.4,0-0.8,0.1-1.3c0-0.3,0.1-0.5,0.2-0.8c0.1-0.2,0.1-0.4,0.2-0.5l0.2-0.3l0.2-0.4
				c0.1-0.2,0.3-0.3,0.5-0.5s0.4-0.4,0.7-0.6l0,0l0,0c0.9-0.6,1.8-1.2,2.7-1.7c0.7-0.4,1.5-0.7,2.3-1c0.7-0.2,1.3-0.5,2-0.6h0.2
				l0.2,0.1c0.2,0.2,0.5,0.3,0.7,0.5c0.6,0.4,1.2,0.8,1.8,1.3l0,0c0.2,0.2,0.5,0.4,0.7,0.6c0.3,0.3,0.6,0.7,0.9,1.1
				c0.6,0.9,1.3,1.8,2,2.7l2.2,2.8c1.5,1.9,3,3.7,4.4,5.6c0.9,1.2,1.7,2.5,2.4,3.8s1.5,2.5,2.2,3.7l0.1,0.2l0.1,0.2l0,0
				c0,0,0,0.1,0,0.1l0,0l0,0l0.8,1.5c0.7,1.3,1.5,2.7,2.3,4s1.6,3,2.3,4.5s1.3,3,1.9,4.5c0.7,1.8,1.2,3.7,1.7,5.6
				c0.3,1.4,0.7,2.8,1.1,4.3c0.5,2.1,0.8,4.2,1.1,6.3s0.6,4.1,0.9,6.2c0.2,1.8,0.3,3.7,0.5,5.5s0.4,3.8,0.6,5.7v0.1
				c0.2,1.8,0.3,3.6,0.5,5.4c0,0.5,0.1,1,0.1,1.5c0,0,0,0,0,0.1c0,0.2,0,0.4,0,0.5c0,0.2,0,0.4,0,0.5c0,0.4,0.1,0.8,0.1,1.2
				c0.1,0.8,0.1,1.6,0.2,2.4c0.1,1.6,0.3,3.3,0.5,4.9S307.8,147.5,308,149z"/>
			<path class="st7" d="M255.4,67.8c0,0.5,0,1.1,0,1.6c0,0.7-0.1,1.3-0.2,2c-0.3,1.6-0.8,3-1.2,4.6c-0.3,1.2-0.6,2.4-0.9,3.6
				c-0.5,1.5-1,3-1.7,4.4c-0.9,2-2.1,3.9-3,5.9s-1.9,4.3-2.7,6.5c-0.5,1.3-1.1,2.6-1.5,4s-1,2.8-1.4,4.2s-0.9,2.8-1.3,4.2
				s-0.6,2.7-0.9,4.1s-0.4,2.6-0.6,3.9s-0.3,2.7-0.4,4c-0.1,1.2-0.1,2.4,0,3.6c0,0.9,0.1,1.8,0.2,2.8v-0.1c0,0.1,0,0.2,0,0.3v-0.2
				c0.2,2.3,0.3,4.6,0.2,6.8c0,0.8-0.1,1.6-0.2,2.4c-0.2,0.3-0.3,0.6-0.3,0.9c0,0.1,0,0.2,0,0.2c-0.2,0.5-0.5,0.9-0.7,1.4
				c-0.6,1.4-1.2,2.8-1.8,4.3c-1.1,3-2.3,5.9-3.2,9c-0.4,1.4-0.7,2.8-0.9,4.2c-0.3,1.4-0.5,2.9-0.6,4.4c0,0.9-0.1,1.7-0.1,2.6
				l-0.1-0.1c-0.5-0.5-1-1.1-1.4-1.7l0,0c-0.5-0.7-1-1.4-1.4-2.2s-0.9-1.5-1.4-2.3v-0.1l0,0l0,0c-0.6-1.1-1.1-2.3-1.6-3.5
				c-0.5-1.4-1-2.8-1.3-4.2c-0.3-1.3-0.5-2.7-0.6-4c0-0.1,0-0.3-0.1-0.4v0.1c-0.1-1.5-0.3-3.1-0.3-4.6s0-2.8,0-4.2c0,0,0-0.1,0-0.1
				V136c0-0.1,0-0.3,0-0.4c0-1.3,0.1-2.5,0.2-3.8s0.1-2.6,0.2-3.9c0.1-2.5,0.3-5,0.7-7.4l0,0l0,0l0,0l0,0l0,0
				c0.3-1.5,0.6-2.9,0.9-4.4s0.7-2.9,1.1-4.3l0.1-0.2l0,0l0,0c0,0,0.1-0.2,0.1-0.3c0.7-2.2,1.4-4.2,2.3-6.3c1.2-2.8,2.4-5.6,3.7-8.4
				c1.2-2.6,2.3-5.3,3.5-7.9l0.1-0.1l0,0c0.8-1.9,1.8-3.7,2.8-5.4c0.7-1.1,1.4-2.1,2.2-3.2c1-1.2,2.1-2.3,3.2-3.4
				c1.5-1.5,3.1-2.9,4.9-4.2c1.2-0.9,2.5-1.8,3.7-2.7c0.6-0.4,1.1-0.9,1.7-1.3L255.4,67.8z"/>
			<path class="st4" d="M172.9,130.9c2.8,1.1,5.1,3.8,4.8,6.9c0.2,7.8-11.7,10.6-17.9,11.3c-1.8,0.1-3.7,0.1-5.5,0
				c-0.8,0-1.4,0.6-1.5,1.4c0,0.7,0.5,1.3,1.2,1.5c3.2,0.3,6.5,0.3,9.7-0.3c0.1,0.9,0.2,1.7,0.3,2.6c-4.8,2-10.1,2.1-15.2,2.4
				c-5.5,0.2-11,0.2-16.4,0c-0.2-0.5-0.4-1.1-0.5-1.6c0.4-0.1,0.8-0.1,1.2-0.1h0.4c1.8,0,4.1,0,4.1-1.7c0-0.8-0.7-1.4-1.5-1.4
				c-2.7,0-5.5,0.4-8.1-0.7c-3.6-1.6-4.8-5-2.1-8.1c4.7-6.1,14-6,20.9-4.6c-1.5,0.7-3,1.2-4.5,1.6c-0.7-0.3-1.6,0-1.9,0.7
				c-0.3,0.7,0,1.4,0.6,1.8c1.8,1,4.1-0.5,5.9-1C155.6,138.7,162.8,128.1,172.9,130.9L172.9,130.9z"/>
			<path class="st1" d="M85.1,194.9c0-0.8,0.6-1.4,1.4-1.5s1.4,0.6,1.5,1.4c0,0.8-0.6,1.4-1.4,1.5C85.7,196.3,85.1,195.7,85.1,194.9
				z"/>
			<path class="st1" d="M91.8,185.1c0-0.8,0.6-1.4,1.4-1.5c0.8,0,1.4,0.6,1.5,1.4s-0.6,1.4-1.4,1.5c0,0,0,0,0,0
				C92.5,186.5,91.8,185.9,91.8,185.1z"/>
			<path class="st1" d="M89.1,190c0-0.8,0.6-1.4,1.4-1.5c0.8,0,1.4,0.6,1.5,1.4c0,0.8-0.6,1.4-1.4,1.5S89.1,190.8,89.1,190z"/>
			<path class="st1" d="M95.4,188.2c0-0.8,0.6-1.4,1.4-1.5s1.4,0.6,1.5,1.4c0,0.8-0.6,1.4-1.4,1.5C96.1,189.6,95.4,189,95.4,188.2z"
				/>
			<path class="st1" d="M103.1,180.2c0-0.8,0.6-1.4,1.4-1.5c0.8,0,1.4,0.7,1.4,1.5c0,0.7-0.6,1.3-1.3,1.4
				C103.8,181.6,103.2,181,103.1,180.2z"/>
			<path class="st1" d="M111.3,175.5c0-0.8,0.6-1.4,1.4-1.5c0.8,0,1.5,0.6,1.5,1.4c0,0.8-0.6,1.5-1.4,1.5S111.3,176.3,111.3,175.5
				C111.3,175.5,111.3,175.5,111.3,175.5z"/>
			<path class="st1" d="M98.6,180c0-0.8,0.6-1.5,1.4-1.5c0.8,0,1.5,0.6,1.5,1.4c0,0.8-0.6,1.5-1.4,1.5
				C99.3,181.4,98.6,180.8,98.6,180z"/>
			<path class="st1" d="M106.6,173c0-0.8,0.6-1.4,1.4-1.5c0.8,0,1.4,0.6,1.5,1.4c0,0.8-0.6,1.4-1.4,1.5
				C107.3,174.4,106.6,173.7,106.6,173z"/>
			<path class="st1" d="M117.8,170.5c0-0.8,0.6-1.4,1.4-1.5c0.8,0,1.4,0.6,1.5,1.4c0,0.8-0.6,1.4-1.4,1.5
				C118.4,171.9,117.8,171.3,117.8,170.5z"/>
			<path class="st1" d="M199,182.6c0-0.8,0.6-1.4,1.4-1.5c0.8,0,1.4,0.6,1.5,1.4c0,0.8-0.6,1.4-1.4,1.5
				C199.7,184,199,183.4,199,182.6z"/>
			<path class="st1" d="M191.8,176.4c0-0.8,0.6-1.4,1.4-1.5c0.8,0,1.4,0.6,1.5,1.4c0,0.8-0.6,1.4-1.4,1.5
				C192.5,177.8,191.8,177.2,191.8,176.4z"/>
			<path class="st1" d="M180,168.4c0-0.8,0.6-1.4,1.4-1.5c0.8,0,1.4,0.6,1.5,1.4c0,0.8-0.6,1.4-1.4,1.5c0,0,0,0,0,0
				C180.7,169.8,180,169.2,180,168.4z"/>
			<path class="st1" d="M186.1,171.4c0-0.8,0.6-1.4,1.4-1.5c0.8,0,1.4,0.6,1.5,1.4c0,0.8-0.6,1.4-1.4,1.5
				C186.8,172.8,186.1,172.2,186.1,171.4z"/>
			<path class="st1" d="M189.9,170c0-0.8,0.6-1.4,1.4-1.5c0.8,0,1.4,0.6,1.5,1.4c0,0.8-0.6,1.4-1.4,1.5c0,0,0,0,0,0
				C190.6,171.3,189.9,170.7,189.9,170z"/>
			<path class="st1" d="M239.9,170c0-0.8,0.6-1.5,1.4-1.5c0.8,0,1.5,0.6,1.5,1.4c0,0.8-0.6,1.5-1.4,1.5c0,0,0,0,0,0
				C240.6,171.4,240,170.8,239.9,170z"/>
			<path class="st1" d="M246,182.3c0-0.8,0.6-1.4,1.4-1.5c0.8,0,1.4,0.6,1.5,1.4c0,0.8-0.6,1.4-1.4,1.5
				C246.7,183.7,246,183.1,246,182.3C246,182.3,246,182.3,246,182.3z"/>
			<path class="st1" d="M258.7,191.9c0-0.8,0.6-1.4,1.4-1.5c0.8,0,1.5,0.6,1.5,1.4c0,0.8-0.6,1.5-1.4,1.5
				C259.4,193.3,258.8,192.7,258.7,191.9C258.7,191.9,258.7,191.9,258.7,191.9z"/>
			<path class="st1" d="M268.4,192.2c0-0.8,0.6-1.4,1.4-1.5c0.8,0,1.4,0.6,1.5,1.4c0,0.8-0.6,1.4-1.4,1.5
				C269.1,193.6,268.4,193,268.4,192.2z"/>
			<path class="st1" d="M279,188.4c0-0.8,0.6-1.5,1.4-1.5s1.5,0.6,1.5,1.4c0,0.8-0.6,1.5-1.4,1.5c0,0,0,0,0,0
				C279.7,189.8,279,189.2,279,188.4z"/>
			<path class="st1" d="M289.9,182.1c0-0.8,0.6-1.4,1.4-1.5s1.4,0.6,1.5,1.4c0,0.8-0.6,1.4-1.4,1.5
				C290.6,183.5,289.9,182.9,289.9,182.1z"/>
			<path class="st1" d="M299.6,167.7c0-0.8,0.6-1.4,1.4-1.5s1.4,0.6,1.5,1.4c0,0.8-0.6,1.4-1.4,1.5
				C300.3,169.1,299.6,168.5,299.6,167.7z"/>
			<path class="st1" d="M298.1,126.2c0-0.8,0.6-1.4,1.4-1.5c0.8,0,1.4,0.6,1.5,1.4c0,0.8-0.6,1.4-1.4,1.5S298.2,127,298.1,126.2z"/>
			<path class="st1" d="M300.5,144.7c0-0.8,0.6-1.4,1.4-1.5c0.8,0,1.4,0.6,1.5,1.4c0,0.8-0.6,1.4-1.4,1.5
				C301.2,146.1,300.5,145.5,300.5,144.7z"/>
			<path class="st1" d="M301.8,152.8c0-0.8,0.6-1.5,1.4-1.5c0.8,0,1.5,0.6,1.5,1.4c0,0.8-0.6,1.5-1.4,1.5
				C302.5,154.2,301.8,153.6,301.8,152.8z"/>
			<path class="st1" d="M300.9,134.3c0-0.8,0.6-1.4,1.4-1.5c0.8,0,1.4,0.6,1.5,1.4c0,0.8-0.6,1.4-1.4,1.5
				C301.6,135.7,300.9,135.1,300.9,134.3z"/>
			<path class="st1" d="M303.5,159.1c0-0.8,0.6-1.5,1.4-1.5c0.8,0,1.5,0.6,1.5,1.4c0,0.8-0.6,1.5-1.4,1.5
				C304.2,160.5,303.6,159.9,303.5,159.1z"/>
			<path class="st1" d="M297.2,175.3c0-0.8,0.6-1.5,1.4-1.5c0.8,0,1.5,0.6,1.5,1.4c0,0.8-0.6,1.5-1.4,1.5c0,0,0,0,0,0
				C297.9,176.7,297.2,176,297.2,175.3z"/>
			<path class="st1" d="M285,187.3c0-0.8,0.6-1.4,1.4-1.5c0.8,0,1.4,0.6,1.5,1.4c0,0.8-0.6,1.5-1.4,1.5
				C285.7,188.7,285,188.1,285,187.3L285,187.3z"/>
			<path class="st1" d="M271.5,183.6c-0.1-0.8,0.5-1.5,1.3-1.6c0.8-0.1,1.5,0.5,1.6,1.3c0,0.1,0,0.1,0,0.2c0,0.8-0.6,1.5-1.4,1.5
				c0,0,0,0,0,0C272.2,185,271.6,184.4,271.5,183.6z"/>
			<path class="st1" d="M284.2,177.4c0-0.8,0.6-1.4,1.4-1.5c0.8,0,1.4,0.6,1.5,1.4c0,0.8-0.6,1.4-1.4,1.5S284.2,178.2,284.2,177.4
				L284.2,177.4z"/>
			<path class="st1" d="M292.7,166c0-0.8,0.6-1.4,1.4-1.5c0.8,0,1.4,0.7,1.4,1.5c0,0.7-0.6,1.3-1.3,1.3
				C293.4,167.4,292.8,166.8,292.7,166z"/>
			<path class="st1" d="M281.2,164.6c0-0.8,0.6-1.5,1.4-1.5c0.8,0,1.5,0.6,1.5,1.4c0,0.8-0.6,1.5-1.4,1.5c0,0,0,0,0,0
				C281.9,166,281.3,165.4,281.2,164.6z"/>
			<path class="st1" d="M263.7,195.7c0-0.8,0.6-1.5,1.4-1.5c0.8,0,1.5,0.6,1.5,1.4c0,0.8-0.6,1.5-1.4,1.5c0,0,0,0,0,0
				C264.3,197.1,263.7,196.5,263.7,195.7z"/>
			<path class="st1" d="M249.3,187c0-0.8,0.6-1.5,1.4-1.5c0,0,0,0,0,0c0.8,0,1.4,0.6,1.5,1.4c0,0.8-0.7,1.4-1.5,1.4
				C249.9,188.2,249.4,187.7,249.3,187L249.3,187z"/>
			<path class="st1" d="M261.3,184.8c0-0.8,0.6-1.4,1.4-1.5c0.8,0,1.4,0.6,1.5,1.4c0,0.8-0.6,1.4-1.4,1.5
				C262,186.1,261.3,185.5,261.3,184.8z"/>
			<path class="st1" d="M249.9,176.9c0-0.8,0.6-1.5,1.4-1.5c0.8,0,1.5,0.6,1.5,1.4c0,0.8-0.6,1.5-1.4,1.5c0,0,0,0,0,0
				C250.5,178.3,249.9,177.6,249.9,176.9z"/>
			<path class="st1" d="M241.6,153.3c0-0.8,0.6-1.5,1.4-1.5c0.8,0,1.5,0.6,1.5,1.4c0,0.8-0.6,1.5-1.4,1.5c0,0,0,0,0,0
				C242.3,154.7,241.6,154.1,241.6,153.3z"/>
			<path class="st1" d="M245.4,167.2c0-0.8,0.6-1.5,1.4-1.5c0.8,0,1.5,0.6,1.5,1.4s-0.6,1.5-1.4,1.5c0,0,0,0,0,0
				C246.1,168.6,245.4,168,245.4,167.2z"/>
			<path class="st1" d="M277.3,178.9c0-0.8,0.6-1.5,1.4-1.5c0.8,0,1.5,0.6,1.5,1.4c0,0.8-0.6,1.5-1.4,1.5c0,0,0,0,0,0
				C278,180.3,277.4,179.6,277.3,178.9z"/>
			<path class="st1" d="M290.6,174.2c0-0.8,0.7-1.4,1.5-1.4c0.7,0,1.3,0.6,1.4,1.3c0,0.8-0.6,1.4-1.4,1.5
				C291.3,175.6,290.7,175,290.6,174.2z"/>
			<path class="st1" d="M298.7,110.1c0-0.8,0.6-1.5,1.4-1.5c0.8,0,1.5,0.6,1.5,1.4s-0.6,1.5-1.4,1.5c0,0,0,0,0,0
				C299.4,111.5,298.7,110.9,298.7,110.1z"/>
			<path class="st1" d="M288.4,158c0-0.8,0.6-1.4,1.4-1.5s1.4,0.6,1.5,1.4l0,0c0,0.8-0.6,1.4-1.4,1.5
				C289.1,159.4,288.5,158.8,288.4,158z"/>
			<path class="st1" d="M18.8,201.2c0-0.8,0.6-1.4,1.4-1.5c0.8,0,1.4,0.6,1.5,1.4c0,0.8-0.6,1.4-1.4,1.5
				C19.4,202.6,18.8,202,18.8,201.2C18.8,201.2,18.8,201.2,18.8,201.2z"/>
			<path class="st1" d="M13.9,216c0-0.8,0.6-1.4,1.4-1.5c0.8,0,1.4,0.6,1.5,1.4s-0.6,1.4-1.4,1.5c0,0,0,0,0,0
				C14.6,217.4,14,216.8,13.9,216z"/>
			<path class="st1" d="M15.4,235.3c0-0.8,0.6-1.4,1.4-1.5c0.8,0,1.4,0.6,1.5,1.4c0,0.8-0.6,1.4-1.4,1.5c0,0,0,0,0,0
				C16.1,236.7,15.5,236.1,15.4,235.3z"/>
			<path class="st1" d="M16.1,208.9c0-0.8,0.6-1.5,1.4-1.5c0.8,0,1.5,0.6,1.5,1.4c0,0.8-0.6,1.5-1.4,1.5c0,0,0,0,0,0
				C16.8,210.3,16.2,209.7,16.1,208.9z"/>
			<path class="st1" d="M12.3,225.8c0-0.8,0.6-1.5,1.4-1.5c0.8,0,1.5,0.6,1.5,1.4c0,0.8-0.6,1.5-1.4,1.5c0,0,0,0,0,0
				C13,227.2,12.3,226.6,12.3,225.8z"/>
			<path class="st1" d="M19.8,226.1c0-0.8,0.6-1.4,1.4-1.5c0.8,0,1.5,0.6,1.5,1.4c0,0.8-0.6,1.5-1.4,1.5
				C20.5,227.5,19.8,226.9,19.8,226.1z"/>
			<path class="st1" d="M16,242.3c0-0.8,0.6-1.5,1.4-1.5c0.8,0,1.5,0.6,1.5,1.4c0,0.8-0.6,1.5-1.4,1.5C16.7,243.7,16,243.1,16,242.3
				z"/>
			<path class="st1" d="M26,251.2c0-0.8,0.6-1.5,1.4-1.5c0.8,0,1.5,0.6,1.5,1.4c0,0.8-0.6,1.5-1.4,1.5c0,0,0,0,0,0
				C26.7,252.6,26,252,26,251.2z"/>
			<path class="st1" d="M37.6,262.2c0-0.8,0.6-1.4,1.4-1.5c0.8,0,1.4,0.6,1.5,1.4c0,0.8-0.6,1.4-1.4,1.5c0,0,0,0,0,0
				C38.2,263.6,37.6,263,37.6,262.2z"/>
			<path class="st1" d="M50.4,265.6c0-0.8,0.6-1.4,1.4-1.5c0.8,0,1.4,0.6,1.5,1.4c0,0.8-0.6,1.4-1.4,1.5
				C51.1,267,50.5,266.4,50.4,265.6C50.4,265.6,50.4,265.6,50.4,265.6z"/>
			<path class="st1" d="M63.2,268.5c0-0.8,0.6-1.4,1.4-1.5c0.8,0,1.4,0.6,1.5,1.4c0,0.8-0.6,1.4-1.4,1.5c0,0,0,0,0,0
				C63.9,269.9,63.2,269.3,63.2,268.5z"/>
			<path class="st1" d="M83.3,270.2c0-0.8,0.6-1.4,1.4-1.5c0.8,0,1.4,0.6,1.5,1.4c0,0.8-0.6,1.4-1.4,1.5
				C84,271.6,83.3,271,83.3,270.2z"/>
			<path class="st1" d="M97.6,267.9c0-0.8,0.6-1.4,1.4-1.5c0.8,0,1.4,0.7,1.4,1.5c0,0.7-0.6,1.3-1.3,1.4
				C98.2,269.3,97.6,268.7,97.6,267.9z"/>
			<path class="st1" d="M114.3,261.6c0-0.8,0.6-1.4,1.4-1.5c0.8,0,1.4,0.6,1.5,1.4c0,0.8-0.6,1.4-1.4,1.5c0,0,0,0,0,0
				C115,263,114.4,262.4,114.3,261.6z"/>
			<path class="st1" d="M104.6,263.6c0-0.8,0.6-1.4,1.4-1.5c0.8,0,1.4,0.6,1.5,1.4s-0.6,1.4-1.4,1.5c0,0,0,0,0,0
				C105.2,265,104.6,264.4,104.6,263.6z"/>
			<path class="st1" d="M88.6,265.3c0-0.8,0.6-1.4,1.4-1.5c0.8,0,1.4,0.6,1.5,1.4c0,0.8-0.6,1.4-1.4,1.5
				C89.3,266.6,88.6,266,88.6,265.3z"/>
			<path class="st1" d="M70.3,266.4c0-0.8,0.6-1.4,1.4-1.5c0.8,0,1.4,0.6,1.5,1.4c0,0.8-0.6,1.4-1.4,1.5c0,0,0,0,0,0
				C71,267.8,70.4,267.2,70.3,266.4z"/>
			<path class="st1" d="M44.5,256.1c0-0.8,0.6-1.4,1.4-1.5c0.8,0,1.5,0.6,1.5,1.4c0,0.8-0.6,1.5-1.4,1.5
				C45.2,257.5,44.6,256.9,44.5,256.1C44.5,256.1,44.5,256.1,44.5,256.1z"/>
			<path class="st1" d="M34,247.2c0-0.8,0.6-1.4,1.4-1.5s1.4,0.6,1.5,1.4c0,0.8-0.6,1.4-1.4,1.5C34.7,248.6,34,248,34,247.2
				C34,247.2,34,247.2,34,247.2z"/>
			<path class="st1" d="M24.4,237.5c0-0.8,0.6-1.4,1.4-1.5c0.8,0,1.4,0.6,1.5,1.4c0,0.8-0.6,1.4-1.4,1.5
				C25.1,238.9,24.5,238.3,24.4,237.5L24.4,237.5z"/>
			<path class="st1" d="M27,196.4c0-0.8,0.6-1.5,1.4-1.5c0.8,0,1.5,0.6,1.5,1.4c0,0.8-0.6,1.5-1.4,1.5c0,0,0,0,0,0
				C27.7,197.8,27,197.2,27,196.4z"/>
			<path class="st1" d="M23.7,215.1c0-0.8,0.6-1.4,1.4-1.5c0.8,0,1.4,0.6,1.5,1.4c0,0.8-0.6,1.4-1.4,1.5
				C24.4,216.5,23.7,215.9,23.7,215.1z"/>
			<path class="st1" d="M23.2,247.8c0-0.8,0.6-1.5,1.4-1.5c0.8,0,1.5,0.6,1.5,1.4c0,0.8-0.6,1.5-1.4,1.5c0,0,0,0,0,0
				C23.8,249.2,23.2,248.5,23.2,247.8z"/>
			<path class="st1" d="M30.6,259c0-0.8,0.6-1.4,1.4-1.5c0.8,0,1.4,0.6,1.5,1.4c0,0.8-0.6,1.4-1.4,1.5
				C31.3,260.3,30.7,259.7,30.6,259z"/>
			<path class="st1" d="M45.3,264.2c0-0.8,0.6-1.4,1.4-1.5c0.8,0,1.4,0.6,1.5,1.4c0,0.8-0.6,1.4-1.4,1.5c0,0,0,0,0,0
				C46,265.6,45.4,265,45.3,264.2z"/>
			<path class="st1" d="M57.6,266.4c0-0.8,0.6-1.4,1.4-1.5c0.8,0,1.4,0.6,1.5,1.4c0,0.8-0.6,1.5-1.4,1.5
				C58.2,267.8,57.6,267.2,57.6,266.4z"/>
			<path class="st1" d="M79.1,269.8c0-0.8,0.6-1.4,1.4-1.4c0.8,0,1.4,0.6,1.4,1.4c0,0.8-0.6,1.4-1.4,1.4
				C79.8,271.2,79.1,270.6,79.1,269.8C79.1,269.8,79.1,269.8,79.1,269.8z"/>
			<path class="st1" d="M59.5,258.7c0-0.8,0.6-1.4,1.4-1.5c0.8-0.1,1.5,0.5,1.6,1.3c0.1,0.8-0.5,1.5-1.3,1.6c-0.1,0-0.1,0-0.2,0
				C60.2,260.1,59.5,259.5,59.5,258.7z"/>
			<path class="st1" d="M36,255l-0.1-0.3c-0.3-0.7,0-1.5,0.7-1.9c0.7-0.3,1.5,0,1.9,0.7l0.1,0.3c0.3,0.7,0,1.5-0.7,1.9
				c-0.2,0.1-0.4,0.1-0.6,0.1C36.8,255.8,36.3,255.5,36,255z"/>
			<path class="st1" d="M46.4,241.6c-0.1-0.8,0.4-1.5,1.2-1.6h0.2c0.8-0.1,1.5,0.5,1.5,1.3c0.1,0.7-0.4,1.3-1.1,1.5H48
				c-0.1,0-0.2,0-0.2,0C47.1,242.7,46.5,242.2,46.4,241.6z"/>
			<path class="st1" d="M32.2,228.3c0-0.8,0.6-1.4,1.4-1.4c0.8,0,1.4,0.6,1.4,1.4c0,0.8-0.6,1.4-1.4,1.4
				C32.9,229.7,32.2,229.1,32.2,228.3z"/>
			<path class="st1" d="M33.7,193.9c-0.1-0.8,0.5-1.5,1.3-1.6s1.5,0.5,1.6,1.3c0,0.1,0,0.1,0,0.2c0.1,0.8-0.5,1.5-1.3,1.6
				c-0.8,0.1-1.5-0.5-1.6-1.3C33.7,194.1,33.7,194,33.7,193.9z"/>
			<path class="st1" d="M78.6,261.5c0-0.8,0.6-1.4,1.4-1.5c0,0,0,0,0,0c0.8,0,1.4,0.6,1.5,1.4c0,0.8-0.6,1.4-1.4,1.5
				C79.3,262.9,78.6,262.3,78.6,261.5C78.6,261.5,78.6,261.5,78.6,261.5z"/>
			<path class="st1" d="M14.2,221c0-0.8,0.6-1.4,1.4-1.5c0.8,0,1.4,0.6,1.5,1.4c0,0.8-0.6,1.4-1.4,1.5
				C14.9,222.4,14.2,221.8,14.2,221z"/>
			<path class="st0" d="M257.2,78.2c-0.3-0.5-0.3-1-0.1-1.5c0.1-0.2,0.3-0.4,0.6-0.6c0.1-0.1,0.3-0.2,0.5-0.3l0.3-0.3
				c0.1-0.1,0.2-0.3,0.4-0.4s0.4-0.5,0.6-0.8l0,0c0-0.1,0.1-0.2,0.1-0.3c0.1-0.3,0.2-0.6,0.3-0.9c0.2-0.6,0.3-1.1,0.4-1.7
				c0.3-1.6,0.4-3.3,0.4-4.9v-0.2c0,0.1,0,0.1,0,0.2c0.1-1.9,0.1-3.8,0.2-5.6c0.1-1.9,0.2-3.8,0.2-5.8v0.2c0-0.3,0-0.6,0-0.9
				c0-0.2,0-0.4,0.1-0.6c0.2-0.6,0.8-1,1.5-0.9c0.3,0,0.6,0.2,0.8,0.4c0.3,0.3,0.4,0.6,0.5,1c0,0.1,0,0.1,0,0.2l0,0l0,0l0,0
				c0,1-0.1,2.1-0.1,3.1c0,0.1,0,0.2,0,0.3c0-0.1,0-0.1,0-0.2c-0.1,2.2-0.2,4.4-0.3,6.6c0-0.1,0-0.1,0-0.2c0,1.4-0.1,2.9-0.1,4.3
				c-0.1,1.4-0.3,2.8-0.5,4.2c0,0.2-0.1,0.3-0.1,0.5c0.1,0.1,0.2,0.1,0.3,0.2c0.4,0.4,0.7,1,0.7,1.6c0.1,1.2-0.4,2.4-1.3,3.3
				c-0.5,0.6-1.4,0.6-2,0.1l-0.1-0.1c-0.3,0.1-0.5,0.3-0.8,0.4l-0.6,0.2c-0.2,0.1-0.4,0.1-0.6,0.1C258,78.9,257.5,78.6,257.2,78.2z"
				/>
			<path class="st0" d="M229.7,163.3c-0.3-0.5-0.4-1.1-0.3-1.7l0,0l-0.1-0.1c-0.7-0.5-1.2-1.3-1.2-2.2l-0.1-0.2l-0.6-1
				c-0.4-0.7-0.8-1.4-1.1-2.1c-0.2-0.5-0.4-1-0.5-1.5c-0.1-0.3-0.1-0.7-0.1-1l-0.5-0.2c-0.4-0.2-0.8-0.5-1.1-0.7
				c-0.2-0.1-0.4-0.3-0.6-0.4c-0.1-0.1-0.2-0.1-0.3-0.2l0.1,0.1l0,0c-0.4-0.2-0.6-0.7-0.6-1.1c0-0.4,0.2-0.9,0.5-1.2l0.1-0.1
				c0.1-0.1,0.3-0.1,0.5-0.2c0.4-0.1,0.8,0,1.1,0.2c0.5,0.3,0.9,0.6,1.4,0.9c0.3,0.2,0.6,0.3,0.9,0.5l0.5,0.2l0.3,0.1h0.3h0.1h0.1
				l0,0l0.3-0.2c0.5-0.5,1-1,1.4-1.6l-0.1,0.1c1-1.2,2-2.5,2.9-3.8l0.4-0.5c0.3-0.7,0.6-1.3,0.9-2c0.7-1.4,1.4-2.7,2.1-4.1
				c0.4-0.8,0.9-1.5,1.4-2.2c0.2-0.3,0.4-0.6,0.6-0.9c0.3-0.5,0.7-0.9,1.2-1.1c0.8-0.2,1.6,0.2,1.8,1c0.1,0.2,0.1,0.4,0.1,0.6
				c-0.1,0.5-0.3,1-0.6,1.5c-0.3,0.6-0.6,1.1-0.8,1.7c-0.6,1.4-1.2,2.7-2,4c-0.6,1-1.4,2-2.1,3c-0.7,1.7-1.4,3.4-2,5.2
				c-0.6,2.2-1.1,4.4-1.4,6.6c0,0,0-0.1,0-0.1c0,0,0,0.1,0,0.1v0.1c0,0,0-0.1,0-0.1c0,0.2-0.1,0.5-0.1,0.7s0,0.6,0,0.9
				c0,0.5,0,1,0,1.5c0,0.3,0,0.7,0,1c-0.1,0.8-0.8,1.4-1.6,1.4C230.4,164,230,163.7,229.7,163.3z"/>
			<path class="st0" d="M109.7,217.6c-0.4-0.3-0.8-0.6-1.2-1c-2.5-0.9-4.8-2.2-7-3.7c-0.4-0.3-0.7-0.6-1.1-0.9
				c-0.2-0.2-0.4-0.4-0.6-0.6h-0.4c-0.4,0-0.8,0-1.1-0.1c-0.7-0.2-1.2-0.8-1.3-1.5c-0.3-1.4,1.1-2.4,2.2-3c1.1-0.5,2.2-1,3.3-1.4
				l0.2-0.1h0.1l0,0l0.3-0.2h-0.1c1.6-0.7,3.1-1.4,4.6-2.2h-0.1l0.1-0.1l0,0l0,0c2.6-1.4,5-3,7.6-4.6c2.1-1.8,4.3-3.6,6.6-5.2
				c2.6-1.9,5.1-3.8,7.8-5.6c2.5-1.7,5.2-3.1,8.1-4.3c2.8-1.1,5.7-1.8,8.7-2.3c3.1-0.6,6.2-1,9.4-1.2c2.2-0.1,4.4-0.1,6.6,0
				c1.1,0.1,2.2,0.2,3.3,0.4c0.5,0.1,1,0.2,1.5,0.3l0.7,0.2c0.4,0.1,0.8,0.4,1.1,0.7c0.1,0.2,0.2,0.4,0.2,0.6
				c0.9,0.1,1.9,0.2,2.8,0.3c1.6,0.2,3.1,0.5,4.7,0.9c0.7,0.2,1.5,0.4,2.2,0.6c0.8,0.2,1.6,0.6,2.3,1c0.3,0.2,0.5,0.4,0.8,0.6l0,0
				l0,0l0,0c0.5,0.2,0.8,0.7,0.8,1.2c0,0.8-0.6,1.4-1.4,1.5l0,0c-0.4,0-0.8-0.1-1.2-0.4c-0.2-0.1-0.4-0.2-0.5-0.4L179,187
				c-0.4-0.1-0.7-0.3-1.1-0.4c-1.6-0.5-3.3-0.8-4.9-1.1l0,0h-0.2c-3-0.4-6-0.7-9-0.8h0.1c-3.1-0.1-6.3,0-9.4,0.3h0.1
				c-0.7,0.1-1.5,0.2-2.2,0.3s-1.5,0.3-2.3,0.5c-1.5,0.3-3.1,0.6-4.6,1c-1.9,0.5-3.9,1.1-5.7,1.8l0,0c-1.1,0.4-2.3,0.9-3.4,1.5
				s-2.4,1.3-3.5,1.9l0.2-0.1l-0.5,0.3c-1.3,0.7-2.6,1.5-3.9,2.3c-1.3,0.8-2.6,1.6-3.8,2.4s-2.4,1.7-3.6,2.6s-2.4,1.6-3.6,2.4
				l-0.4,0.3v0.1c-0.2,0.2-0.5,0.4-0.8,0.5c-0.3,0.2-0.5,0.3-0.8,0.5c-0.7,0.5-1.3,1-1.9,1.6c-0.8,0.7-1.4,1.5-2.1,2.3
				c-0.3,0.4-0.7,0.9-1,1.4c-0.1,0.2-0.3,0.5-0.4,0.8c-0.2,0.3-0.3,0.6-0.4,0.9c-0.3,0.6-0.4,1.3-0.4,1.9c0,0.3,0,0.7,0.1,1
				c0.1,0.2,0.1,0.5,0.2,0.7c0.2,0.8,0.6,1.6,1.1,2.3c0.7,0.9,1.5,1.7,2.2,2.5c0.4,0.5,0.9,0.9,1.3,1.3l0,0
				C112.8,219.4,111.1,218.7,109.7,217.6z"/>
			<path class="st0" d="M102.9,205.3L102.9,205.3z"/>
			<path class="st0" d="M173,185.6L173,185.6z"/>
			<path class="st0" d="M154.6,185.1L154.6,185.1z"/>
			<path class="st0" d="M135.4,153.8l0.1-0.1l-0.2-0.1C135.3,153.7,135.3,153.8,135.4,153.8L135.4,153.8z M141.1,156.6
				c0.2,0.8-0.2,1.7-0.9,2.2c-0.5,0.2-0.9,0.4-1.4,0.6c-0.8,0.2-1.5,0.5-2.3,0.8c-2.4,1-4.8,2.1-7.1,3.2c-1.1,0.5-2.3,1.1-3.5,1.6
				s-2.3,1-3.4,1.6l-0.3,0.2c-1.3,0.7-2.6,1.5-3.8,2.3s-2.3,1.5-3.3,2.2l0,0c-0.5,0.4-1.1,0.8-1.6,1.3c-0.6,0.6-1.2,1.3-1.8,2
				c-0.4,0.5-0.8,1.1-1.1,1.6c-0.3,0.5-0.5,0.9-0.8,1.4c-0.1,0.3-0.3,0.7-0.4,1c-0.1,0.3-0.1,0.6-0.2,0.9c-0.1,0.4-0.1,0.8-0.1,1.2
				c0,0.3,0,0.6,0,0.8c0.1,0.6,0,1.2-0.3,1.7c-0.5,0.8-1.1,1.4-1.9,2l0,0c-1.1,1.1-2.1,2.2-3.1,3.3c-0.5,0.7-1,1.4-1.4,2.1
				c-0.7,1.2-1.3,2.4-1.8,3.6c-0.2,0.4-0.4,0.8-0.5,1.3c-0.3,1-0.5,1.9-0.7,2.9c0,0.1,0,0.2,0,0.3c-0.3,1.7-0.4,3.3-0.5,5
				c0,1.4-0.1,3.3-1.8,3.6c-0.1,0-0.2,0-0.3,0c-0.7-0.1-1.4-0.3-2-0.7c-0.8-0.4-1.6-0.9-2.4-1.2c-1.6-0.7-3.2-1.2-4.8-2
				c-0.5-0.2-1-0.5-1.5-0.8c-0.6-0.4-1.1-0.8-1.7-1.1c-0.3-0.2-0.6-0.3-0.9-0.5c-0.3-0.1-0.6-0.2-0.9-0.3c-0.8-0.1-1.5-0.4-2.1-0.8
				c-0.4-0.4-0.6-1-0.6-1.5c0.1-0.5,0.2-1,0.4-1.4c0.3-0.6,0.6-1.3,1-1.9c0.7-1.4,1.6-2.7,2.5-4c0.9-1.3,1.9-2.5,2.8-3.7
				c1.8-2.5,3.7-4.9,5.8-7.1c2.1-2.3,4.3-4.4,6.7-6.4c2.5-1.9,5.2-3.7,7.8-5.5c1.2-0.8,2.5-1.6,3.7-2.4s2.7-1.5,4.1-2.2
				s2.7-1.2,4-1.8s2.6-1.1,3.9-1.6c2.5-1,5-2.1,7.6-3.2c0.5-0.2,0.9-0.4,1.4-0.6c0-0.2,0-0.4,0-0.7s-0.1-0.6-0.1-0.8
				s-0.1-0.3-0.1-0.4v-0.1l0,0l0,0h-0.1l-0.1-0.1l-0.1-0.1c-0.3-0.1-0.7-0.2-1-0.3c-0.6-0.2-1.1-0.4-1.7-0.6
				c-0.5-0.2-1.1-0.5-1.6-0.8c-0.6-0.4-1.1-0.8-1.6-1.4c-0.5-0.6-0.8-1.3-1-2c-0.3-0.7-0.4-1.5-0.4-2.3c0-0.8,0.2-1.5,0.4-2.2
				c0.2-0.6,0.4-1.2,0.8-1.8c0.3-0.5,0.6-1,0.9-1.4c0.3-0.6,0.8-1,1.4-1.2c0.2-0.6,0.7-1.2,1.2-1.5c0.3-0.2,0.7-0.2,1.1-0.2h-0.1
				c0.1,0,0.2,0,0.4,0.1c0.5,0.2,0.9,0.7,0.9,1.3c0,0.3-0.1,0.6-0.3,0.9c-0.1,0.2-0.3,0.3-0.5,0.4c0,0,0,0.1,0,0.1l-0.1,0.3
				c-0.1,0.2-0.1,0.4-0.2,0.6s-0.1,0.7-0.1,1c0,0.2,0,0.3,0,0.5c0,0.2,0,0.4,0.1,0.6c0.1,0.4,0.2,0.8,0.3,1.1
				c0.2,0.6,0.5,1.1,0.8,1.6c0.1,0.3,0.3,0.5,0.5,0.8c0.2,0.3,0.3,0.4,0.5,0.6s0.4,0.3,0.6,0.5s0.6,0.4,0.8,0.6
				c0.6,0.3,1.1,0.6,1.7,0.9l0.2,0.1c0.5,0.2,1,0.4,1.5,0.6c0.3,0.1,0.7,0.2,1,0.2s0.7,0.1,1.1,0.2c0.7,0.2,1.2,0.7,1.6,1.3
				c0.2,0.4,0.4,0.9,0.5,1.4c0.1,0.5,0.2,1,0.4,1.4S141.1,156.2,141.1,156.6z"/>
			<path class="st0" d="M309.4,153c0.1,2.8,0,5.6-0.3,8.3c-0.2,1.3-0.4,2.5-0.8,3.7c-0.4,1.5-0.9,2.9-1.5,4.3
				c-0.1,0.4-0.3,0.7-0.5,1.1c0,0.1,0,0.2,0,0.2c-0.1,0.9-0.5,1.7-1.2,2.4c-0.5,0.6-1,1.2-1.5,1.8s-1,1.1-1.5,1.6
				c-0.5,0.6-1.1,1.1-1.8,1.5c-0.1,0.2-0.2,0.4-0.4,0.6c-0.8,1.2-1.7,2.4-2.8,3.5c-1,1-2,2-3,3s-2.3,2.1-3.5,3.1
				c-0.9,0.7-1.9,1.4-2.8,2.1c-2.4,1.9-4.9,3.6-7.5,5.1c-1.2,0.7-2.5,1.3-3.8,1.9l-3.6,1.7c-0.6,0.3-1.2,0.6-1.8,0.9l-0.3,0.2
				l-0.2,0.2l-0.4,0.5c-0.8,1-1.5,2-2.3,3s-1.9,2.2-2.8,3.2s-2.1,2.2-3.3,3.2c-1.1,1-2.3,1.9-3.5,2.8c-1,0.7-2,1.2-3.1,1.7
				c-0.8,0.4-1.6,0.7-2.4,1.1c-0.5,0.5-1.1,0.9-1.7,1.1c-0.5,0.2-1.1,0.4-1.6,0.6s-1.3,0.5-2,0.8l0.2-0.1c-0.6,0.3-1.3,0.5-1.9,0.7
				c-0.6,0.2-1.3,0.4-1.9,0.6c-1.3,0.3-2.6,0.6-3.8,1l-0.1,0.1c-0.4,0.4-0.9,0.6-1.4,0.6c-0.3,0-0.5,0.1-0.8,0.1l-0.7,0.2
				c-0.2,0.1-0.4,0.2-0.6,0.3c-0.6,0.3-1.4,0.1-1.8-0.4H234c-0.2,0.4-0.7,0.8-1.1,0.9c-0.4,0-0.7,0.1-1.1,0.1h-1h-0.1
				c-0.8,0-1.6-0.1-2.4-0.2c-1.8,0-3.5-0.4-5.1-1.2c-0.4-0.2-0.8-0.6-1.1-1c-0.3-0.6-0.3-1.3,0-1.8c0.3-0.4,0.6-0.7,0.9-1.1
				c0.1-0.1,0.2-0.2,0.2-0.3c0.1-0.2,0.2-0.4,0.3-0.6c0.1-0.3,0.2-0.5,0.3-0.8s0.1-0.4,0.2-0.6v-0.3c0-0.4,0-0.7-0.1-1.1
				s-0.1-0.7-0.2-1.1s-0.2-0.9-0.4-1.3c-0.2-0.5-0.3-1-0.3-1.4c0.1-0.6,0.5-1.2,1-1.5c0.2-0.2,0.5-0.3,0.7-0.4
				c0.7-0.3,1.5-0.4,2.2-0.2c0.7,0.2,1.2,0.6,1.5,1.3c0.1,0.3,0.2,0.7,0.3,1c0,0.1,0,0.1,0,0.2l0,0c0.1,0.8,0,1.6,0.1,2.4
				c0,0.4,0.1,0.8,0.2,1.1c0.1,0.3,0.2,0.6,0.3,0.9c0,0.1,0.1,0.1,0.1,0.2l0.2,0.3c0.2,0.2,0.4,0.4,0.6,0.6l0.4,0.4l0.2,0.1l0.1,0.1
				l0.5,0.2l0.6,0.1c0.2,0,0.4,0,0.6,0.1h0.4c0.3,0,0.6-0.1,0.9-0.2c1.1-0.3,2.1-0.6,3.2-1c0.8-0.3,1.6-0.7,2.4-1
				c0.5-0.2,1-0.4,1.6-0.5c0.5-0.1,1.1-0.1,1.7-0.1l1,0.1h0.4l0.3-0.1l0.2-0.1l0.5-0.2c0.3-0.2,0.6-0.4,0.9-0.6
				c0.6-0.4,1.1-0.9,1.6-1.4c0.9-0.8,1.8-1.6,2.6-2.4c0.8-0.7,1.5-1.5,2.2-2.3c0.3-0.4,0.6-0.8,0.9-1.3c0.1-0.2,0.2-0.3,0.3-0.5
				s0.1-0.1,0.1-0.2c0,0,0-0.1,0-0.1c0,0,0-0.1,0-0.1v-0.1c-0.1-0.2-0.1-0.4-0.2-0.6s-0.2-0.4-0.3-0.6c-0.2-0.4-0.5-0.8-0.7-1.1
				c-0.2-0.2-0.3-0.4-0.5-0.6l-0.2-0.2l-0.1-0.1c-0.3-0.2-0.7-0.4-1-0.6c-0.5-0.4-0.8-1-0.8-1.6c0-0.4,0.2-0.7,0.3-1v-0.1l0,0
				c0,0,0,0,0-0.1s0,0,0,0c0.2-0.4,0.5-0.8,0.7-1.1s0.5-1,0.8-1.5c-0.2-0.2-0.5-0.4-0.8-0.7s-0.6-0.7-0.9-1s-0.7-0.9-1.1-1.3
				c-1.1-1.1-2.2-2.2-3.4-3.1c-1.1-0.9-2.3-1.7-3.5-2.4c-0.5-0.3-1-0.8-1.2-1.4c-0.2-0.5-0.1-1.1,0.2-1.6c0.2-0.3,0.5-0.6,0.9-0.7
				c0.7-0.3,1.4-0.5,2.2-0.5c1.2-0.1,2.4,0,3.6,0c1.7,0.1,3.4,0.2,5.1,0.2c0.7,0,1.3,0,2-0.1c1.9-0.3,3.8-0.7,5.7-1.1
				c1.5-0.4,2.9-0.8,4.3-1.2s3-0.9,4.5-1.5s2.8-1.2,4.2-1.8s2.9-1.3,4.2-2.1c1.2-0.7,2.5-1.5,3.6-2.3c0.8-0.6,1.6-1.3,2.3-2
				c1.7-1.6,3.4-3.4,4.9-5.2c0.9-1.1,1.7-2.3,2.5-3.5c0.8-1.3,1.5-2.6,2.1-4c0.5-1.2,1-2.5,1.4-3.8c0.9-3,1.6-6.1,2.2-9.2
				s1.3-6.2,1.9-9.3c0.1-0.4,0.1-0.7,0.2-1.1v0.2c0.2-1.4,0.4-2.8,0.6-4.2c0.2-1.4,0.3-2.8,0.4-4.2c0.2-2.7,0.4-5.3,0.5-8
				c0.1-3.2-0.1-6.4-0.2-9.6s0-6.1-0.1-9.2c0-1-0.1-2-0.1-3c-0.1-0.8-0.4-1.7,0.4-2.3c0.5-0.4,1.2-0.4,1.7-0.1
				c0.3,0.2,0.5,0.6,0.6,1c0,0.1,0,0.2,0,0.3c0.1,0.7,0.2,1.4,0.2,2.2c0.1,1.5,0.1,2.9,0.1,4.4v4.2c0.4,0.1,0.8,0.5,0.9,0.9
				c0.2,0.4,0.3,0.9,0.4,1.3c0.1,0.4,0.1,0.9,0.2,1.3c0.1,0.8,0.1,1.6,0.1,2.4c0.1,1,0.3,2,0.4,3c0.2,1.4,0.5,2.8,0.7,4.2
				s0.5,2.7,0.8,4.1s0.5,3,0.7,4.5c0.1,1.1,0.3,2.3,0.5,3.4c0.2,1.1,0.3,2.2,0.4,3.3c0.1,1.4,0.3,2.9,0.5,4.3s0.2,3,0.2,4.5
				C309.3,146.8,309.3,149.9,309.4,153z"/>
			<path class="st0" d="M219.9,224.4c0,0.4-0.1,0.7-0.4,1c-0.4,0.5-1.2,0.5-1.8,0.5c-1.1,0.2-2.2,0.4-3.3,0.6
				c-0.5,0.1-0.9,0.3-1.3,0.4c-1.9,0.7-3.8,1.7-5.4,2.9l0,0h-0.1l-0.7,0.6l0.5,0.6c0.4,0.5,0.8,1.1,1.2,1.6c0.4,0.5,0.8,1.1,1.2,1.7
				c0.3,0.4,0.5,0.9,0.8,1.3c0.3,0.6,0.6,1.2,0.8,1.8c0.2,0.6,0.3,1.1,0.4,1.7c0.1,0.7,0.3,1.4,0.4,2c0-0.1,0-0.1,0-0.2
				c0.3,0.6,0.2,1.4-0.2,1.9c-0.4,0.5-0.9,0.7-1.6,0.7c-0.2,0-0.4,0-0.6,0c-0.9-0.2-1.8-0.5-2.6-1c-1-0.6-2-1.1-3-1.6
				s-1.9-0.9-2.9-1.4c-0.5-0.2-0.9-0.4-1.4-0.7c-0.2-0.1-0.5-0.2-0.7-0.3c-0.6-0.1-1.2-0.3-1.8-0.6c-0.6-0.4-1.2-0.9-1.7-1.4
				c-0.3-0.2-0.6-0.5-0.9-0.7l-0.6-0.4l-0.5-0.2c-0.2-0.1-0.5-0.1-0.7-0.1c-0.2,0-0.5-0.1-0.7-0.1l0,0c-0.5,0.1-1,0.3-1.4,0.5
				c-1.1,0.4-2.2,0.9-3.4,1.3c-1,0.4-2,0.7-3,0.9c-0.5,0.1-1,0.1-1.5,0.2c-0.4,0-0.7,0.1-1.1,0.1c-0.5,0-1-0.1-1.5-0.3
				c-0.6-0.3-1-0.9-1.1-1.6c-0.1-0.5,0-1,0.2-1.4c0.4-0.6,0.9-1,1.6-1.2l2.6-1.1c1.8-0.8,3.5-1.6,5.4-2.3c0.7-0.3,1.4-0.5,2.1-0.8
				s1.4-0.8,2.1-1.1c1.3-0.6,2.6-1.1,3.9-1.7s2.7-1.1,4.1-1.6l0.2-0.1c0.3-0.1,0.7-0.3,1-0.4l1.1-0.4c0.7-0.2,1.4-0.4,2-0.6
				c1.3-0.4,2.6-0.8,3.9-1.1c1.2-0.3,2.4-0.5,3.7-0.7c0.8-0.1,1.7-0.1,2.5-0.1h1c0.5-0.1,1.1,0,1.5,0.3c0.4,0.3,0.6,0.7,0.6,1.2
				c0.3,0.1,0.6,0.2,0.8,0.5C219.8,223.8,219.9,224.1,219.9,224.4z"/>
			<path class="st0" d="M112.3,239.3c-0.7-0.3-0.9-1.1-1.1-1.7s-0.3-1.2-0.4-1.9s-0.2-1.4-0.3-2.1c0-0.3,0-0.7-0.1-1
				c0-0.4,0-0.9,0.2-1.3c0.4-0.7,1.3-1,2-0.6c0.5,0.3,0.8,0.8,0.8,1.3c0.3,0,0.5,0.1,0.7,0.3c0.5,0.4,0.8,1.1,0.6,1.8
				c0,0.5,0,1-0.1,1.4s0,0.7-0.1,1.1c0,0,0,0.1,0,0.1c0,0.8,0.1,1.8-0.6,2.4c-0.3,0.2-0.6,0.3-0.9,0.3
				C112.8,239.5,112.5,239.4,112.3,239.3z"/>
			<path class="st0" d="M106.3,235.3c-1.1-0.6-2.1-1.2-3.1-2l-0.3-0.2c-0.8-0.5-1.7-1.1-2.5-1.7c-1-0.7-1.9-1.4-2.8-2.2
				s-2-1.9-3-2.9s-2.2-2.1-3.2-3.2c-2-2.1-3.7-4.4-5-7c-0.6-1.3-1.1-2.6-1.5-4c-0.4-1.4-0.7-2.9-0.9-4.4v-0.1
				c-0.4-0.8-0.9-1.6-1.4-2.4c-0.3-0.4-0.6-0.8-0.8-1.2c-0.3-0.4-0.6-0.9-0.9-1.4c-0.4-0.8-0.2-1.7,0.6-2.2c0,0,0.1,0,0.1,0
				c0.5-0.2,1.2-0.2,1.7,0.1c0.6,0.4,1.3,0.7,1.9,1c0.6,0.2,1.2,0.5,1.7,0.9c0.3,0.4,0.6,0.8,0.8,1.3c0.4,0.9,0.7,1.9,1,2.9
				c0.4,1.3,0.8,2.7,1.3,4s1.3,2.8,2,4.2s1.2,2.9,2,4.2c0.5,0.9,1.1,1.8,1.7,2.7c1,1.3,2.1,2.5,3.2,3.6l-0.1-0.1
				c1.9,1.9,3.9,3.7,6.1,5.4l0,0l0.6,0.5c1,0.5,1.9,1,2.9,1.5c0.3,0.1,0.5,0.3,0.7,0.5c0.6,0.7,0.5,1.7-0.2,2.3
				c-0.2,0.2-0.5,0.3-0.8,0.4h-0.3C107.2,235.7,106.7,235.5,106.3,235.3z"/>
			<path class="st0" d="M120.2,263.6c0.4,0.5,0.5,1.2,0.2,1.7c-0.3,0.4-0.6,0.7-1.1,0.9c-0.4,0.2-0.7,0.4-1.1,0.5l-0.5,0.2
				c-0.5,0.2-1,0.4-1.4,0.5c-0.3,0.1-0.6,0.3-0.9,0.4c-1,0.4-2,0.7-3.1,1s-1.9,0.5-2.9,0.8c-0.5,0.3-1,0.5-1.6,0.5l-1.8,0.3
				l-1.7,0.3l-0.5,0.1c-0.9,0.2-1.9,0.5-2.8,0.7c-1.6,0.4-3.3,0.7-5,0.8h0.1c-1.5,0.2-3,0.3-4.5,0.4s-3.2,0.2-4.8,0.3
				s-3,0.2-4.6,0.3s-2.9,0.2-4.3,0.2h-0.4c-3.1,0-6.3-0.1-9.4-0.4c-3.1-0.3-6.1-0.8-9.2-1.1c-1.5-0.1-3.1-0.3-4.6-0.5
				s-3.1-0.4-4.6-0.7c-2.1-0.5-4.2-1.1-6.3-1.8c-0.8-0.3-1.7-0.7-2.4-1.1c-0.5-0.3-1-0.7-1.5-1s-0.8-0.5-1.2-0.7
				c-0.7-0.4-1.4-0.9-2.1-1.4c-1.2-0.8-2.5-1.5-3.7-2.2s-2.2-1.6-3.3-2.4s-2.4-1.5-3.5-2.3s-2.4-1.9-3.6-2.9c-1.2-1-2.2-1.9-3.2-3
				c-0.6-0.6-1.1-1.2-1.6-1.8c-0.5-0.6-0.9-1.2-1.4-1.8c-0.8-1.2-1.6-2.5-2.2-3.9c-0.3-0.7-0.6-1.4-0.9-2.1
				c-0.1-0.3-0.2-0.5-0.3-0.8l-0.1-0.2l0,0l0,0c-0.5-1.4-1-2.8-1.3-4.3c-0.3-1.4-0.6-2.9-0.8-4.4c-0.2-1.4-0.4-2.8-0.4-4.3
				c-0.1-1.5-0.2-2.9-0.2-4.4c0-3.1,0.2-6.2,0.8-9.3c0.2-1.3,0.4-2.6,0.7-3.9s0.6-2.5,0.9-3.7c0.3-1.3,0.7-2.5,1.1-3.7
				c0.4-1,1-2,1.4-3c0.3-0.8,0.7-1.6,1.2-2.4c0.3-0.4,0.7-0.6,1.2-0.6c0.1-0.9,0.3-1.8,0.6-2.7c0.2-0.7,1-1.1,1.6-0.9
				c0.8,0.2,1.2,0.9,1.1,1.7c-0.2,0.8-0.4,1.6-0.5,2.5c-0.3,1.7-0.5,3.3-0.7,5c-0.2,1.7-0.4,3.4-0.5,5.1c0,0.8,0,1.7,0.1,2.5
				c0.5,3.3,1.1,6.6,2,9.9c0.5,2,1.1,4,1.8,6s1.3,3.9,2.1,5.8c1.1,2.6,2.3,5.1,3.6,7.5c0,0.1,0.1,0.1,0.1,0.2l0,0
				c0.7,1.3,1.5,2.6,2.4,3.8c1.1,1.5,2.4,2.9,3.7,4.3l0,0l0,0.1c0.7,0.8,1.5,1.5,2.3,2.2s1.9,1.4,2.9,2.1s2,1.4,3.1,2.1
				s2.3,1.3,3.5,1.9c1.2,0.6,2.3,1.2,3.5,1.7c2.2,1,4.5,1.9,6.8,2.6c1.2,0.4,2.5,0.7,3.8,1s2.8,0.7,4.2,1c2.9,0.7,5.8,1.4,8.8,1.9
				H73c1.6,0.2,3.1,0.5,4.7,0.6s3,0.4,4.5,0.6c3.2,0.4,6.4,0.6,9.6,0.8h0.7c2.2,0.1,4.3,0.1,6.5,0c1.1-0.1,2.2-0.2,3.3-0.3
				s2.3-0.1,3.4-0.3c2.1-0.2,4.3-0.6,6.4-1.1l0,0c1-0.2,1.9-0.5,2.9-0.8c0.4-0.2,0.8-0.3,1.2-0.5l1-0.3l0,0l0.6-0.3l0.5-0.2
				C118.9,262.8,119.8,263,120.2,263.6z"/>
		</g>
	</g>
</g>
</svg>
