<svg width="81" height="80" viewBox="0 0 81 80" fill="none" xmlns="http://www.w3.org/2000/svg">
<g clip-path="url(#clip0_7730_1956)">
<mask id="mask0_7730_1956" style="mask-type:alpha" maskUnits="userSpaceOnUse" x="1" y="0" width="80" height="80">
<path d="M40.9011 80C62.6672 80 80.312 62.0914 80.312 40C80.312 17.9086 62.6672 0 40.9011 0C19.1351 0 1.49023 17.9086 1.49023 40C1.49023 62.0914 19.1351 80 40.9011 80Z" fill="#98D7C3"/>
</mask>
<g mask="url(#mask0_7730_1956)">
<path d="M40.9011 80C62.6672 80 80.312 62.0914 80.312 40C80.312 17.9086 62.6672 0 40.9011 0C19.1351 0 1.49023 17.9086 1.49023 40C1.49023 62.0914 19.1351 80 40.9011 80Z" fill="#98D7C3"/>
<path d="M58.669 21.5562H24.5645V54.2855H58.669V21.5562Z" fill="#308D8A"/>
<path d="M54.7431 59.653C54.8093 59.9996 54.7382 60.3587 54.5452 60.6525C54.338 60.9671 54.0777 61.2421 53.7763 61.4649C53.3266 61.8483 52.7825 62.1678 52.2923 62.5192C51.8021 62.8707 51.303 63.1673 50.8038 63.4868C50.2147 63.8611 49.6211 64.2217 49.0051 64.5731L48.5329 64.8424H48.4969L48.4429 64.8743L48.362 64.92C47.7624 65.2486 47.1628 65.5529 46.5632 65.8328C45.9561 66.134 45.3626 66.4672 44.7645 66.773C43.5863 67.3755 42.3541 67.8501 41.1355 68.3476C40.4654 68.6215 39.7864 68.9136 39.1343 69.2011C38.4823 69.4887 37.7853 69.7397 37.1107 69.9998C36.9668 70.0592 36.8229 70.1231 36.6835 70.1915V70.2235C36.6956 70.4205 36.6399 70.6157 36.5261 70.7757C36.3628 70.9824 36.1367 71.1285 35.8831 71.1911C35.3103 71.3621 34.7295 71.5037 34.1428 71.6155C33.5941 71.7388 33.041 71.8392 32.4834 71.9259C31.8493 72.0217 31.2198 72.0856 30.5902 72.1998C29.2142 72.4462 27.8471 72.7383 26.4665 72.9711C25.765 73.0898 25.0635 73.2039 24.362 73.3362C23.6605 73.4686 22.9814 73.5827 22.2889 73.6877C20.9039 73.8976 19.5143 74.0802 18.1158 74.1988C17.4188 74.2627 16.7127 74.2947 16.0112 74.3312C15.4446 74.3586 14.878 74.3814 14.3159 74.3814H13.8662C13.1146 74.3688 12.3641 74.317 11.6178 74.2262C10.8713 74.1395 10.1338 74.0163 9.39178 73.8885H9.33782H9.24788C8.89223 73.8354 8.5395 73.7638 8.19111 73.674C7.86078 73.5754 7.53771 73.4534 7.22427 73.3088C6.58209 73.0344 5.9775 72.677 5.42551 72.2454C4.8587 71.8099 4.35861 71.2916 3.94153 70.7073C3.54631 70.128 3.19744 69.5175 2.89825 68.8816C2.57358 68.2264 2.28239 67.5545 2.02585 66.8688C1.79201 66.2253 1.61213 65.5635 1.42326 64.9017C1.23439 64.2399 1.04102 63.4412 0.892625 62.7201C0.747161 61.9754 0.646543 61.2225 0.591332 60.4654C0.568847 60.2189 0.546363 59.9679 0.519381 59.7169L0.478909 59.3289C0.478909 59.1737 0.447431 59.0231 0.43394 58.8725V58.9638C0.36199 58.2655 0.294536 57.5672 0.290039 56.8643C0.290039 56.4855 0.290039 56.1066 0.339505 55.7278C0.339505 55.4448 0.43394 55.1573 0.438437 54.8698V54.9474C0.438437 54.9474 0.438437 54.9108 0.438437 54.8926C0.446156 54.7604 0.493305 54.6337 0.573623 54.5294C0.653942 54.425 0.763631 54.348 0.888128 54.3084C1.03611 54.2632 1.19511 54.2727 1.33677 54.3354C1.47843 54.3981 1.59355 54.5099 1.6616 54.6507C1.69572 54.7237 1.71557 54.8028 1.72006 54.8835C2.0056 54.9113 2.28936 54.9554 2.56997 55.0158C3.01966 55.1117 3.43338 55.2714 3.87857 55.3536C4.54861 55.4585 5.22764 55.4905 5.90218 55.5407C6.26643 55.5681 6.63068 55.5955 6.99943 55.6365C7.36817 55.6776 7.63349 55.705 7.95277 55.7187C8.47891 55.7187 9.00505 55.7187 9.52669 55.6685L10.2507 55.6274L10.7004 55.6046C10.8939 55.5818 11.0899 55.591 11.2805 55.632C11.4642 55.6755 11.6249 55.788 11.7302 55.9469C11.8108 56.0711 11.8501 56.2183 11.8426 56.3668L11.9775 56.4124C12.3013 56.5037 12.6296 56.5722 12.9623 56.6315C13.5287 56.7138 14.0992 56.7641 14.6712 56.7821C15.2468 56.7821 15.8224 56.7821 16.398 56.7821H17.3288H17.7021C17.887 56.7547 18.0748 56.7547 18.2597 56.7821C18.3737 56.8101 18.479 56.8665 18.5662 56.9462C18.6533 57.0259 18.7195 57.1264 18.7588 57.2386L19.6582 57.0879C20.2338 56.9921 20.8139 56.9282 21.3805 56.7913H21.43C21.8797 56.6726 22.3294 56.5265 22.7791 56.3805C23.0847 56.2583 23.4167 56.2205 23.7414 56.271C23.8947 56.3083 24.045 56.3571 24.1911 56.417C24.5869 56.5582 24.9668 56.7418 25.3243 56.9647C25.724 57.2607 26.1082 57.5776 26.4755 57.914C26.6599 58.0601 26.8443 58.2061 27.0421 58.3339C27.0961 58.3659 27.1501 58.3978 27.2085 58.4252L27.312 58.4663H27.3794H27.4918H27.6178L27.7751 58.4344C28.2833 58.302 28.7735 58.1012 29.2726 57.9277C29.8842 57.7178 30.5003 57.5261 31.1029 57.2933C32.302 56.8126 33.4787 56.2923 34.6329 55.7324C35.231 55.4449 35.8246 55.1345 36.4317 54.8835C37.0909 54.5869 37.792 54.3974 38.5093 54.3221C38.8468 54.3065 39.1848 54.3419 39.5121 54.4271C39.9247 54.5089 40.3063 54.7066 40.6138 54.9976C41.1262 55.5644 41.442 56.2856 41.5132 57.0514C41.5463 57.37 41.5296 57.692 41.4637 58.0053C41.3988 58.2722 41.3085 58.5321 41.1939 58.7812C40.9835 59.2529 40.7431 59.7103 40.4744 60.1505C40.1989 60.5964 39.8507 60.9915 39.4446 61.3189C39.1622 61.5412 38.8613 61.7382 38.5452 61.9076L38.7251 61.9442C39.8991 62.1214 41.0823 62.2281 42.2687 62.2636C42.6304 62.2705 42.9922 62.2568 43.3524 62.2226C43.955 62.1587 44.5576 62.0765 45.1512 61.9624C45.7448 61.8483 46.3564 61.716 46.95 61.5745H46.9859C48.3807 61.2276 49.7533 60.7947 51.0961 60.2783C51.5098 60.1094 51.919 59.9268 52.3193 59.7397C52.7195 59.5526 53.0658 59.37 53.448 59.1966C53.5668 59.1294 53.6979 59.0875 53.8332 59.0734C53.9684 59.0593 54.1051 59.0732 54.235 59.1144C54.3559 59.1565 54.4651 59.2273 54.5535 59.321C54.6419 59.4147 54.7069 59.5285 54.7431 59.653Z" fill="#D1A173"/>
<path d="M38.7704 60.2143C38.6581 60.0753 38.6038 59.8974 38.6189 59.7183C38.634 59.5393 38.7174 59.3733 38.8514 59.2558C39.1664 59.0275 39.4668 58.779 39.7507 58.5119C39.8632 58.3932 39.9756 58.2745 40.079 58.1467C40.1824 58.0189 40.2454 57.914 40.3218 57.7953C40.3983 57.6766 40.4298 57.599 40.4792 57.4941V57.3571C40.4838 57.2766 40.4838 57.1958 40.4792 57.1152C40.4792 57.0103 40.4478 56.9144 40.4298 56.814C40.4118 56.7136 40.3803 56.6543 40.3533 56.5767C40.3263 56.4991 40.2634 56.353 40.2139 56.2435C40.1645 56.134 40.07 56.0153 39.9936 55.9057C39.9621 55.8692 39.9351 55.8282 39.8991 55.7916C39.8632 55.7551 39.7912 55.6821 39.7328 55.6319C39.6971 55.6034 39.6595 55.5775 39.6203 55.5543L39.5664 55.5224C39.5006 55.5036 39.436 55.4808 39.373 55.4539C39.3172 55.4297 39.2644 55.3991 39.2156 55.3626H39.0762C38.7664 55.3931 38.4586 55.4419 38.1543 55.5087L37.9925 55.5589L37.943 55.6091C37.8342 55.7011 37.6986 55.7541 37.5571 55.7599C37.4156 55.7657 37.2762 55.7239 37.1605 55.641C37.0441 55.5527 36.9588 55.4286 36.9175 55.2871C36.8762 55.1457 36.881 54.9945 36.9312 54.856C37.017 54.6942 37.139 54.555 37.2874 54.4495C37.4358 54.3441 37.6064 54.2754 37.7856 54.249C38.2269 54.1311 38.679 54.0592 39.1347 54.0345C39.3419 54.0185 39.5502 54.0277 39.7552 54.0618C40.0798 54.1267 40.3866 54.2622 40.6546 54.4589C40.7633 54.5095 40.8684 54.5674 40.9694 54.6324C41.2971 54.8378 41.5655 55.1275 41.7474 55.4722C41.9442 55.8601 42.0446 56.291 42.0397 56.7273C42.1428 57.4269 42.028 58.1418 41.7114 58.772C41.5565 59.0691 41.3759 59.3517 41.1718 59.6164C41.0649 59.7576 40.9492 59.8918 40.8255 60.018C40.6886 60.1755 40.5178 60.2988 40.3263 60.3786C40.2289 60.4104 40.1255 60.4192 40.0241 60.4042C39.9228 60.3891 39.8262 60.3507 39.7417 60.2919L39.6698 60.3375C39.5625 60.4072 39.4375 60.4437 39.31 60.4425C39.209 60.4476 39.1082 60.4298 39.0148 60.3903C38.9214 60.3509 38.8379 60.2907 38.7704 60.2143Z" fill="#D1A173"/>
<path d="M33.5808 63.6738C33.536 63.5044 33.5579 63.3239 33.6418 63.1706C33.7258 63.0173 33.8651 62.9031 34.0305 62.8522C34.7583 62.7124 35.4787 62.5357 36.189 62.3228C36.7242 62.1311 37.2458 61.8938 37.7585 61.6564L37.8304 61.6154C38.0127 61.5218 38.1899 61.4182 38.361 61.305H38.3925C38.3999 61.3069 38.4076 61.3069 38.415 61.305C39.1507 60.8131 39.8565 60.2766 40.5286 59.6984C40.6635 59.5752 40.7939 59.4474 40.9153 59.315C41.0367 59.1827 41.0727 59.1096 41.1491 59.0047C41.2705 58.8175 41.3875 58.6258 41.4954 58.425C41.5404 58.3292 41.5808 58.2288 41.6168 58.1329C41.6528 58.0371 41.6798 57.9321 41.7067 57.8271C41.7382 57.6446 41.7652 57.4574 41.7787 57.2703C41.7899 57.0971 41.7899 56.9232 41.7787 56.75C41.7831 56.6816 41.7831 56.613 41.7787 56.5446C41.7427 56.3849 41.6977 56.2251 41.6483 56.0882C41.5988 55.9513 41.5404 55.8098 41.4819 55.6729C41.4234 55.5359 41.293 55.3305 41.1896 55.1708C41.0862 55.0111 41.0592 54.9882 40.9917 54.9015C40.9243 54.8148 40.9153 54.8194 40.8748 54.7829L40.6769 54.6231L40.5645 54.5546L40.3846 54.4771H40.3262L40.0519 54.4405C39.9231 54.4337 39.794 54.4337 39.6651 54.4405C39.4628 54.4405 39.2649 54.4862 39.0671 54.5227C38.6543 54.6018 38.2472 54.7085 37.8484 54.8422C37.1293 55.1066 36.4252 55.4113 35.7393 55.755C35.2222 56.0289 34.7365 56.3483 34.2284 56.6268L32.6185 57.5031C31.5062 58.1349 30.3608 58.7048 29.1873 59.2101C28.3779 59.5524 27.564 59.881 26.732 60.1731H26.6736C26.0665 60.3785 25.4459 60.5337 24.8298 60.7117C24.2138 60.8897 23.6382 60.9901 23.0311 61.1087C22.6247 61.2058 22.2069 61.2442 21.7899 61.2228C21.6218 61.2174 21.4626 61.1444 21.3475 61.0198C21.2324 60.8953 21.1707 60.7294 21.1761 60.5588C21.1815 60.3881 21.2534 60.2266 21.3761 60.1097C21.4988 59.9929 21.6622 59.9303 21.8304 59.9358H22.0597C22.2126 59.9358 22.361 59.8992 22.5094 59.8719H22.4735L23.4223 59.6802H23.4628C23.9125 59.5843 24.3622 59.452 24.8119 59.3287C25.2615 59.2055 25.7382 59.0686 26.1924 58.9179C27.5272 58.4436 28.8336 57.8904 30.1047 57.2612C31.2155 56.6952 32.3037 56.0836 33.401 55.4812C33.6573 55.3442 33.9136 55.1982 34.1654 55.0247C34.4173 54.8513 34.7006 54.6916 34.9839 54.5683C35.5595 54.2671 36.1531 54.0024 36.7556 53.7605C37.3517 53.5167 37.967 53.3243 38.5949 53.1854C39.1485 53.0535 39.7192 53.0119 40.2857 53.0622C40.9358 53.111 41.5478 53.3924 42.0125 53.8563C42.4878 54.4071 42.8419 55.0544 43.0513 55.755C43.1671 56.1163 43.2278 56.4934 43.2312 56.8732C43.2327 57.2252 43.2026 57.5766 43.1413 57.923C42.9986 58.6273 42.702 59.2902 42.2734 59.8627C41.8799 60.3868 41.4115 60.8482 40.8838 61.232C40.3802 61.6382 39.8585 62.0124 39.3279 62.373C39.0708 62.5556 38.8019 62.7202 38.5229 62.8659C38.1902 63.0348 37.8529 63.1854 37.5111 63.3223C37.2012 63.4617 36.8845 63.5851 36.5623 63.692C35.8235 63.894 35.0724 64.0465 34.3138 64.1484H34.2239C34.0808 64.1494 33.9412 64.1038 33.8255 64.0184C33.7098 63.933 33.624 63.8122 33.5808 63.6738Z" fill="#110802"/>
<path d="M39.8901 62.8069C39.6922 62.8069 39.4944 62.8069 39.2965 62.7704C39.1108 62.7705 38.9256 62.7522 38.7434 62.7157C38.5986 62.6733 38.4725 62.5817 38.3864 62.4562C38.3002 62.3307 38.2593 62.1789 38.2703 62.0264C38.2814 61.8738 38.3438 61.7298 38.4472 61.6184C38.5505 61.5071 38.6884 61.4352 38.8378 61.4149C39.0249 61.4012 39.2128 61.4012 39.3999 61.4149C39.7012 61.4377 40.0025 61.456 40.2993 61.4651C41.0683 61.4925 41.8373 61.4651 42.6017 61.4423C42.921 61.4423 43.2403 61.3921 43.5596 61.3555C43.8788 61.319 44.2116 61.2506 44.5399 61.1958C45.0615 61.1136 45.5877 61.0497 46.1048 60.9493L46.7524 60.8215L46.9952 60.7759H46.9053C47.8352 60.6004 48.753 60.3641 49.6529 60.0685C50.398 59.8107 51.1264 59.5059 51.8339 59.1556C52.36 58.8864 52.8727 58.5942 53.3853 58.3113C53.898 58.0283 54.4421 57.7088 54.9457 57.3711C55.9215 56.6803 56.8542 55.9288 57.7383 55.1209L57.8193 55.0479L57.7563 55.1027C58.6225 54.3544 59.4425 53.5526 60.2116 52.702L60.1576 52.7659L60.2566 52.6518C60.861 51.9315 61.4269 51.1788 61.9519 50.3971C62.6899 49.2608 63.3582 48.0795 63.953 46.8599C64.3343 46.0692 64.6706 45.2569 64.9603 44.4272C65.2738 43.5118 65.5366 42.5792 65.7473 41.634C65.8812 40.9692 65.9773 40.2972 66.0351 39.6212C66.0891 38.662 66.0891 37.7004 66.0351 36.7412C66.0036 36.1981 65.9632 35.6504 65.9047 35.1118C65.8462 34.5733 65.7428 33.9617 65.6349 33.3957C65.437 32.3962 65.1852 31.4103 64.9379 30.4199C64.6905 29.4295 64.3937 28.325 64.0385 27.3026C64.0385 27.33 64.0385 27.3528 64.0655 27.3848C63.8684 26.8007 63.6372 26.2292 63.3729 25.6732V25.7052C63.0523 25.0505 62.695 24.415 62.3027 23.8019V23.77C61.9384 23.2314 61.5517 22.7065 61.165 22.1816C60.7782 21.6568 60.3555 21.1182 59.9283 20.607L59.8878 20.5614C59.7142 20.3911 59.531 20.2311 59.3392 20.0821L59.2718 20.0228L59.2358 19.9954C59.1548 19.9224 59.0694 19.8448 58.9929 19.7627C58.8753 19.6554 58.7805 19.525 58.7141 19.3793C58.652 19.2292 58.6482 19.0607 58.7035 18.9079C58.7589 18.755 58.8692 18.6292 59.0124 18.5556C59.1555 18.4821 59.3208 18.4664 59.4749 18.5117C59.6291 18.557 59.7605 18.6599 59.8429 18.7996L60.0677 19.0187L60.0992 19.0461C60.3482 19.2706 60.5853 19.5083 60.8097 19.7581C61.2099 20.2145 61.5922 20.7029 61.9609 21.1912C62.3297 21.6796 62.6579 22.1406 62.9952 22.6198C63.3574 23.11 63.6922 23.6205 63.998 24.1488C64.2498 24.6052 64.4927 25.0616 64.713 25.518C64.9364 26.0119 65.1331 26.5177 65.3021 27.0333C65.7158 28.2565 66.0351 29.5071 66.3409 30.7668C66.4893 31.3784 66.6512 31.99 66.7906 32.5924C66.93 33.1949 67.0424 33.8658 67.1368 34.5094C67.2313 35.1529 67.2718 35.7554 67.3167 36.3806C67.3617 37.0059 67.3797 37.7499 67.3797 38.4345C67.3797 39.1191 67.3527 39.7125 67.2897 40.3514C67.219 40.9936 67.1094 41.6308 66.9615 42.2592C66.6668 43.5444 66.2713 44.8035 65.7788 46.0246C65.2742 47.2339 64.6913 48.4079 64.034 49.539C63.6238 50.2848 63.1735 51.007 62.6849 51.7024C62.2236 52.3661 61.7298 53.0058 61.2054 53.6194C61.2221 53.5969 61.2401 53.5756 61.2594 53.5555C60.4307 54.4752 59.5428 55.3381 58.6017 56.1387L58.6647 56.084C57.7296 56.9425 56.7429 57.7413 55.7102 58.4756C55.1886 58.8316 54.6444 59.1556 54.0868 59.4614C53.5292 59.7672 52.9896 60.0822 52.4275 60.3743C51.4995 60.84 50.5354 61.2277 49.5449 61.5336C49.0953 61.6796 48.6051 61.7846 48.1329 61.8987C47.6607 62.0128 47.2335 62.0995 46.7838 62.1908H46.7029L46.4106 62.2501H46.3297C45.88 62.3368 45.4303 62.3962 44.9806 62.4692C44.5309 62.5422 43.9688 62.6472 43.4561 62.702C42.73 62.7775 42.0005 62.8141 41.2706 62.8115C40.8299 62.8434 40.3578 62.8343 39.8901 62.8069Z" fill="#110802"/>
<path d="M16.654 32.8616C16.5689 32.8493 16.4869 32.82 16.413 32.7754C16.339 32.7309 16.2744 32.6719 16.223 32.6019C16.1716 32.5319 16.1343 32.4522 16.1134 32.3676C16.0924 32.2829 16.0882 32.1948 16.1009 32.1085C16.2186 31.4228 16.3916 30.7481 16.6181 30.0911C16.7979 29.5754 17.0003 29.0688 17.2072 28.5622C17.414 28.0555 17.6568 27.4211 17.9312 26.8643C18.2055 26.3075 18.5248 25.737 18.8305 25.1847C19.2617 24.3976 19.7362 23.6357 20.2516 22.9026C20.7991 22.1243 21.3891 21.3777 22.0189 20.6662C21.9971 20.6852 21.9775 20.7067 21.9604 20.7301C22.7786 19.7468 23.6557 18.8155 24.5866 17.9414C25.5061 17.1265 26.4699 16.3646 27.4736 15.6594C28.6072 14.8658 29.7977 14.1594 31.0351 13.5462C32.2069 12.9451 33.4327 12.4591 34.6956 12.0948C35.2802 11.9305 35.8783 11.8072 36.4674 11.6795C37.0565 11.5517 37.6996 11.4102 38.3246 11.3326C38.9738 11.255 39.6271 11.2184 40.2808 11.223C40.8654 11.223 41.45 11.223 42.0346 11.255C43.1496 11.2999 44.2602 11.425 45.3578 11.6292C46.2981 11.8039 47.2275 12.0341 48.1414 12.3184C48.5641 12.4462 48.9823 12.5832 49.4005 12.7292C49.8187 12.8753 50.2999 13.0304 50.7496 13.1856C51.9693 13.6016 53.1543 14.116 54.2932 14.7237C55.3824 15.3247 56.4337 15.9939 57.441 16.7274C58.0571 17.1838 58.6642 17.6083 59.2847 18.0418C59.6355 18.2405 59.899 18.5667 60.0222 18.9547C60.0312 19.0137 60.0312 19.0737 60.0222 19.1327C60.0026 19.261 59.9451 19.3803 59.8573 19.4749C59.7696 19.5695 59.6557 19.6349 59.5307 19.6625C59.4056 19.6902 59.2753 19.6788 59.1567 19.6298C59.0382 19.5809 58.937 19.4967 58.8665 19.3883C58.8491 19.3705 58.834 19.3506 58.8215 19.3289C58.7946 19.3289 58.7721 19.2787 58.7451 19.2513C58.7181 19.224 58.5787 19.1235 58.4888 19.0596C57.7063 18.5256 56.9508 17.9643 56.1729 17.4257L56.1054 17.3755C55.1729 16.7361 54.2044 16.1524 53.2049 15.6274C52.7552 15.4083 52.3055 15.2121 51.8558 15.025C51.4061 14.8378 50.8845 14.6416 50.3943 14.4636L50.3179 14.4362C49.9087 14.2947 49.4905 14.1669 49.0857 14.0254C48.681 13.8839 48.3348 13.7653 47.957 13.6512C47.1386 13.4001 46.3156 13.1947 45.4837 13.0122C44.551 12.8268 43.6078 12.7003 42.6597 12.6334C42.1245 12.5923 41.5984 12.5786 41.0633 12.574C40.4382 12.574 39.8131 12.574 39.188 12.574C38.6418 12.6135 38.0982 12.6851 37.5602 12.7885L35.8468 13.1537C35.2393 13.2883 34.6389 13.4543 34.0481 13.6512L33.9851 13.674H34.0166C33.143 13.9833 32.2898 14.3491 31.4624 14.7694C30.4323 15.2869 29.435 15.8692 28.4764 16.5129C27.4195 17.2421 26.4088 18.0378 25.45 18.8953C24.5671 19.7267 23.7337 20.6107 22.9542 21.5425C22.9468 21.5409 22.9391 21.5409 22.9317 21.5425V21.5699C22.2768 22.3243 21.6657 23.1168 21.1015 23.9433C20.367 25.0691 19.6988 26.238 19.1004 27.4439C19.1004 27.4166 19.1273 27.3892 19.1408 27.3664C18.871 27.9277 18.6372 28.5074 18.4033 29.087C18.201 29.5891 18.0031 30.0866 17.8232 30.5978V30.6434V30.6799C17.6417 31.2337 17.4916 31.7975 17.3735 32.3686C17.3372 32.5117 17.2544 32.6381 17.1385 32.7276C17.0227 32.817 16.8805 32.8642 16.735 32.8616H16.654Z" fill="#110802"/>
<path d="M27.5726 58.877C27.3342 58.7902 27.1229 58.6761 26.8666 58.5712C26.6102 58.4662 26.3134 58.2973 26.0391 58.1604C25.3623 57.8009 24.7103 57.3953 24.0875 56.9463L24.1594 56.9965C23.7097 56.6907 23.26 56.3849 22.8418 56.0335C22.4451 55.7038 22.0724 55.3453 21.7266 54.9609L21.4163 54.6004C21.4163 54.6004 21.4163 54.6004 21.4163 54.6278L20.8857 54.0253L20.9441 54.0892C20.6608 53.7606 20.382 53.432 20.1302 53.076C19.8784 52.7199 19.6265 52.3274 19.3837 51.944C18.8929 51.1652 18.4426 50.3608 18.0346 49.5342C18.0493 49.5587 18.0614 49.5847 18.0706 49.6118C17.7884 49.0179 17.5391 48.4084 17.3241 47.7861C17.0948 47.1608 16.8744 46.5356 16.6586 45.9057C16.6586 45.9331 16.6586 45.965 16.6856 45.9879C16.294 44.8162 16.0243 43.6062 15.8806 42.3776C15.8132 41.766 15.7592 41.1499 15.7007 40.552C15.6423 39.8628 15.5793 39.1828 15.5568 38.4844C15.5418 37.4531 15.5808 36.4217 15.6738 35.3945V35.4812C15.754 34.4662 15.9042 33.4581 16.1235 32.4644C16.2359 31.9258 16.3708 31.3918 16.5147 30.8624C16.6046 30.5474 16.717 30.2416 16.789 29.9221C16.7846 29.8903 16.7846 29.8581 16.789 29.8263C16.7947 29.7836 16.8068 29.742 16.825 29.7031C16.8766 29.5869 16.9599 29.4881 17.0651 29.4186C17.1703 29.349 17.293 29.3115 17.4186 29.3105C17.5439 29.313 17.6657 29.3528 17.7688 29.4251C17.872 29.4973 17.9519 29.5987 17.9987 29.7168C17.9987 29.7168 17.9987 29.7168 17.9987 29.7441C18.0154 29.7884 18.0274 29.8343 18.0346 29.8811C18.0325 29.8675 18.0325 29.8536 18.0346 29.84C18.0487 30.1972 17.9826 30.5531 17.8413 30.8806C17.6704 31.4876 17.5175 32.0992 17.3916 32.7063C17.3916 32.7063 17.3916 32.7063 17.3916 32.7382C17.2971 33.1946 17.2027 33.683 17.1308 34.1622C17.0588 34.6414 17.0004 35.1618 16.9599 35.6684C16.9577 35.6548 16.9577 35.6409 16.9599 35.6273C16.8618 36.741 16.8333 37.86 16.8744 38.9774C16.9284 39.7533 17.0004 40.5292 17.0768 41.3005C17.1532 42.0718 17.2432 42.8888 17.3871 43.6739V43.5871C17.519 44.259 17.6963 44.9208 17.9177 45.568C17.9177 45.568 17.9177 45.5406 17.9177 45.5269C17.9188 45.5421 17.9188 45.5573 17.9177 45.5725V45.6364C18.1021 46.1704 18.2955 46.709 18.4933 47.2476C18.698 47.8419 18.9322 48.4253 19.1948 48.9956C19.4422 49.4931 19.6985 49.986 19.9728 50.4653C20.2471 50.9445 20.5349 51.3781 20.8272 51.8345L20.7778 51.766L20.8722 51.9075C21.1233 52.29 21.3982 52.6559 21.6951 53.0029L21.6367 52.939L21.8255 53.1535L21.7671 53.0896C22.2603 53.692 22.7873 54.265 23.3455 54.8058C23.776 55.1248 24.225 55.4175 24.6901 55.6821C25.2536 56.0911 25.8424 56.4631 26.4529 56.7957C26.7452 56.9418 27.033 57.0924 27.3253 57.2521C27.5977 57.3592 27.8609 57.489 28.1122 57.6401C28.2542 57.726 28.361 57.8609 28.413 58.0201C28.465 58.1794 28.4588 58.3523 28.3955 58.5073C28.3412 58.6318 28.2533 58.7382 28.1418 58.8141C28.0304 58.8901 27.9001 58.9324 27.766 58.9363C27.6983 58.9293 27.6327 58.9091 27.5726 58.877Z" fill="#110802"/>
<path d="M15.6287 57.713H15.5657H15.3409H15.1655C14.5494 57.6628 13.9379 57.5852 13.3218 57.4939C13.0025 57.4483 12.6832 57.3844 12.3594 57.3205L11.8873 57.2201C11.7668 57.1923 11.6493 57.1525 11.5365 57.1014C11.4019 57.0353 11.2893 56.9306 11.2127 56.8002C11.1562 56.7102 11.1265 56.6056 11.1273 56.4989C10.835 56.4989 10.5427 56.4989 10.2504 56.4989C8.90132 56.4989 7.55224 56.3848 6.20317 56.2799H6.28861H6.18968H6.12223C5.34741 56.2266 4.57588 56.1322 3.81082 55.9969C3.09151 55.8707 2.37985 55.703 1.67928 55.4948C1.51708 55.4482 1.37976 55.3381 1.29754 55.1888C1.21531 55.0394 1.19491 54.863 1.24083 54.6984C1.28675 54.5338 1.39522 54.3944 1.54238 54.311C1.68954 54.2275 1.86334 54.2068 2.02554 54.2534C2.40778 54.3675 2.79451 54.4542 3.18574 54.5409L3.42858 54.5957H3.46455H3.50503C4.38051 54.7675 5.26478 54.8894 6.1537 54.9608H6.31559H6.4505H6.36506L6.72931 54.9882C7.33639 55.0339 7.93898 55.0658 8.55056 55.1023C9.16214 55.1388 9.7917 55.1708 10.4123 55.1708C11.0329 55.1708 11.6849 55.1434 12.3235 55.116L13.2228 55.0841H13.6186C13.7908 55.0718 13.9638 55.0872 14.1312 55.1297C14.249 55.1694 14.3536 55.2417 14.4331 55.3384C14.5125 55.4352 14.5637 55.5526 14.5809 55.6774C14.5976 55.7788 14.59 55.8827 14.5587 55.9804C14.5274 56.0782 14.4733 56.1668 14.401 56.2388L14.3516 56.2753C14.6619 56.3164 14.9676 56.3483 15.251 56.3711H15.5477H15.6872C16.3133 56.4054 16.9407 56.4054 17.5669 56.3711C18.2234 56.3209 18.8755 56.2479 19.532 56.184C20.1886 56.1201 20.7642 56.038 21.3757 55.9193H21.4522C21.8164 55.8463 22.1852 55.7687 22.5494 55.6865C22.8372 55.6226 23.1205 55.5359 23.3994 55.4583C23.5583 55.414 23.728 55.4329 23.8737 55.5111C24.0195 55.5894 24.1303 55.7211 24.1837 55.8794C24.237 56.0378 24.2288 56.2108 24.1608 56.3632C24.0928 56.5157 23.97 56.636 23.8176 56.6998C23.4289 56.8451 23.0307 56.9625 22.6259 57.0512C22.0503 57.1699 21.4747 57.2977 20.8901 57.3889C20.3055 57.4802 19.5995 57.5487 18.9519 57.6126C18.3044 57.6765 17.5804 57.7358 16.8878 57.7586H16.627C16.2807 57.7541 15.9525 57.7358 15.6287 57.713Z" fill="#110802"/>
<path d="M12.5576 74.6872C11.8516 74.6598 11.1456 74.5823 10.4441 74.5092C9.74256 74.4362 9.095 74.3586 8.40698 74.2673C8.32141 74.2567 8.23879 74.2289 8.16396 74.1855C8.08913 74.142 8.02359 74.0839 7.9712 74.0144C7.91881 73.9449 7.88062 73.8655 7.85886 73.7808C7.8371 73.6962 7.83221 73.608 7.84449 73.5214C7.85676 73.4348 7.88595 73.3515 7.93034 73.2765C7.97473 73.2015 8.03343 73.1363 8.10299 73.0846C8.17256 73.0329 8.25158 72.9958 8.33544 72.9756C8.4193 72.9553 8.50631 72.9522 8.59135 72.9666C9.72907 73.0852 10.8713 73.1948 12.0135 73.286C12.6026 73.3271 13.1917 73.3636 13.7853 73.3591C14.3789 73.3545 15.0669 73.3591 15.71 73.3089C17.1265 73.2221 18.5385 73.0715 19.946 72.9163C21.3536 72.7612 22.7251 72.6014 24.1057 72.3869L24.389 72.3413H24.443C24.642 72.2429 24.8567 72.1811 25.077 72.1587C25.3738 72.1085 25.6751 72.0765 25.9764 72.04C26.6374 71.9624 27.294 71.8849 27.955 71.8164C29.3041 71.6749 30.6937 71.5517 32.0517 71.36C32.5284 71.2915 33.0006 71.2139 33.4727 71.1318C34.0978 70.9994 34.7229 70.8442 35.339 70.6754L36.0405 70.4609C35.9477 70.4058 35.8686 70.3298 35.8094 70.2388C35.7501 70.1478 35.7123 70.0442 35.6987 69.936C35.683 69.794 35.7067 69.6504 35.7671 69.5214C35.8275 69.3924 35.9222 69.283 36.0405 69.2057C36.2007 69.1135 36.3734 69.0458 36.5531 69.0049C36.8634 68.909 37.1827 68.8406 37.493 68.763C38.8421 68.4389 40.1552 68.1468 41.4683 67.768C42.1878 67.5626 42.9028 67.3436 43.6088 67.1017C44.6022 66.7447 45.5764 66.3349 46.5273 65.8739C47.4705 65.3969 48.3849 64.8634 49.2659 64.2765L49.3513 64.2171L49.4683 64.135L49.5492 64.0802L49.4772 64.1304C50.2732 63.569 51.0332 62.9666 51.7707 62.3048C52.2568 61.8729 52.7206 61.4159 53.1602 60.9355C53.3536 60.7027 53.5335 60.4791 53.7088 60.2235C53.9681 59.81 54.2068 59.3834 54.4238 58.9456L54.3879 59.0186C54.509 58.7901 54.6186 58.5555 54.7161 58.3157C54.7161 58.3157 54.7161 58.3157 54.7161 58.2883V58.1879C54.7161 58.1879 54.7161 58.1468 54.7161 58.124C54.7351 57.9595 54.8158 57.8087 54.9415 57.7031C55.0672 57.5974 55.2282 57.545 55.3909 57.5568C55.5537 57.5686 55.7058 57.6436 55.8154 57.7662C55.9251 57.8889 55.984 58.0497 55.9798 58.2153C55.9928 58.3873 55.976 58.5603 55.9303 58.7265C55.8172 59.0425 55.6773 59.3479 55.5121 59.6393C55.2078 60.2828 54.8418 60.8943 54.4193 61.465C53.9828 62.0119 53.5014 62.5203 52.9803 62.9848C52.4587 63.4656 51.9191 63.922 51.3614 64.354C50.9927 64.6462 50.615 64.9246 50.2237 65.1938C50.1875 65.2155 50.1529 65.24 50.1203 65.2669C48.9624 66.0575 47.7444 66.7534 46.4778 67.3481C45.1658 67.9474 43.8133 68.4508 42.4306 68.8543C41.4727 69.1464 40.4969 69.3928 39.5211 69.6256L38.5183 69.863C38.5492 69.8979 38.5763 69.9362 38.5992 69.9771C38.6797 70.1318 38.7067 70.3096 38.6757 70.4817C38.6447 70.6539 38.5576 70.8105 38.4283 70.9264C38.2518 71.0757 38.0466 71.1861 37.8258 71.2504L37.2636 71.4467C36.9174 71.5654 36.5621 71.6795 36.2114 71.789C34.8921 72.2161 33.5375 72.5216 32.1641 72.7018C30.941 72.8631 29.7148 73.0015 28.4857 73.1172C27.8921 73.1765 27.2985 73.2404 26.6869 73.3134C26.0753 73.3865 25.6166 73.4138 25.086 73.5097C24.9579 73.5841 24.8178 73.6351 24.6723 73.6603C24.4879 73.7014 24.2991 73.7288 24.1102 73.7607L23.0174 73.9159C22.3384 74.0072 21.6684 74.0848 20.9758 74.1715C19.5503 74.3449 18.1158 74.4955 16.6858 74.6279C15.9888 74.6872 15.2962 74.7192 14.5992 74.7374H14.0686C13.5649 74.7237 13.0613 74.7055 12.5576 74.6872Z" fill="#110802"/>
<path d="M40.6134 61.4876L40.9057 61.2594C41.4324 60.8745 41.9006 60.4132 42.2953 59.8902C42.7248 59.3165 43.0214 58.6519 43.1632 57.9459C43.2245 57.601 43.2546 57.2511 43.2531 56.9007C43.2497 56.5208 43.189 56.1437 43.0733 55.7825C42.8617 55.0698 42.4996 54.4124 42.012 53.8564C41.5753 53.3646 40.9778 53.0501 40.3301 52.971C39.7637 52.9207 39.1929 52.9623 38.6393 53.0942C38.0114 53.2331 37.3961 53.4255 36.8001 53.6693C36.1975 53.9112 35.6039 54.1759 35.0283 54.4726C34.745 54.6232 34.4797 54.7875 34.2098 54.929C33.94 55.0705 33.7017 55.2211 33.4454 55.3854C32.3481 55.9879 31.2554 56.604 30.1356 57.1654C29.56 57.453 28.9754 57.7222 28.3863 57.9733C28.3291 57.8171 28.2234 57.6841 28.0851 57.5944C27.8327 57.4466 27.5696 57.3185 27.2981 57.2111C27.0058 57.0741 26.718 56.9235 26.4257 56.7546C25.8203 56.4333 25.2347 56.0751 24.6719 55.6821C24.2228 55.3885 23.7931 55.0653 23.3858 54.7145C22.8471 54.1966 22.3395 53.6464 21.8658 53.0668L21.677 52.8478L21.7354 52.9162C21.428 52.5539 21.1426 52.1729 20.881 51.7752C20.5887 51.3188 20.2964 50.8624 20.0266 50.4059C19.7568 49.9495 19.496 49.4292 19.2486 48.9363C18.9859 48.3644 18.7518 47.7795 18.5471 47.1837C18.3492 46.6497 18.1559 46.1111 17.9715 45.568C17.969 45.5513 17.969 45.5344 17.9715 45.5178C17.9723 45.5041 17.9723 45.4904 17.9715 45.4767C17.7608 44.8447 17.5896 44.1999 17.4589 43.5461C17.3195 42.7884 17.234 42.0262 17.1621 41.264C17.0901 40.5018 17.0137 39.7213 16.9597 38.9454C16.9184 37.828 16.947 36.7091 17.0451 35.5954C17.0811 35.1024 17.1306 34.6141 17.207 34.1257C17.2835 33.6373 17.3779 33.1809 17.4724 32.7063C17.4741 32.6911 17.4741 32.6758 17.4724 32.6606C17.6073 32.0445 17.7602 31.4283 17.922 30.835C18.0413 30.545 18.1098 30.2361 18.1244 29.9222C18.2233 29.6666 18.3268 29.4064 18.4302 29.1554C18.664 28.5803 18.8799 28.0007 19.1632 27.4438C19.7506 26.2612 20.4068 25.1151 21.1283 24.0116C21.6911 23.1841 22.3023 22.3915 22.9586 21.6383L23.008 21.5835C23.7848 20.6507 24.6168 19.7666 25.4993 18.9363C26.4581 18.0787 27.4689 17.283 28.5258 16.5538C29.4834 15.9112 30.4791 15.3289 31.5072 14.8103C32.3369 14.3917 33.1915 14.0259 34.0659 13.7149H34.0974C34.6883 13.5181 35.2886 13.3521 35.8962 13.2175L37.6095 12.8523C38.143 12.7489 38.6821 12.6773 39.2239 12.6378C39.849 12.6013 40.474 12.6378 41.0991 12.6378C41.6297 12.6378 42.1559 12.6378 42.6865 12.6971C43.6362 12.7638 44.5809 12.8903 45.5151 13.076C46.347 13.2585 47.1699 13.4639 47.9884 13.7149C48.3661 13.829 48.7439 13.9614 49.1171 14.0892C49.4903 14.217 49.94 14.3585 50.3493 14.5H50.4032C50.8844 14.6734 51.3656 14.8651 51.8422 15.0522C52.3189 15.2394 52.7416 15.4356 53.1913 15.6593C54.183 16.1643 55.1454 16.7266 56.0738 17.3434L56.1368 17.3891C56.9057 17.9231 57.6612 18.4799 58.4347 19.0139C58.5034 19.0569 58.5695 19.1041 58.6326 19.1554C58.6375 19.212 58.6512 19.2674 58.673 19.3197C58.7401 19.4649 58.8349 19.5952 58.9518 19.7031L59.1857 19.9267L59.2172 19.9587C59.2375 19.9808 59.2601 20.0007 59.2846 20.018C59.46 20.1823 59.6264 20.3603 59.7883 20.5429C60.238 21.0586 60.6382 21.5835 61.0339 22.1266C61.4296 22.6698 61.7984 23.1672 62.1626 23.7012L62.1896 23.7469C62.5754 24.3457 62.9253 24.9676 63.2374 25.6091C63.5054 26.1618 63.7368 26.732 63.9299 27.316C64.2627 28.3156 64.546 29.3288 64.7933 30.3512C65.0407 31.3735 65.288 32.3046 65.4813 33.295C65.4839 33.3101 65.4839 33.3256 65.4813 33.3407C65.5893 33.9021 65.6837 34.4726 65.7512 35.0431C65.8186 35.6136 65.8501 36.1294 65.8816 36.6771C65.9378 37.6347 65.9378 38.5948 65.8816 39.5525C65.8285 40.2305 65.7324 40.9043 65.5938 41.5698C65.3872 42.5142 65.126 43.4454 64.8113 44.3585C64.5227 45.1836 64.1879 45.9912 63.8085 46.7775C63.2132 48.0022 62.5434 49.1881 61.8029 50.3284C61.2791 51.1072 60.7162 51.8582 60.1165 52.5785C60.1024 52.5974 60.0857 52.6143 60.0671 52.6287C59.3006 53.4789 58.4821 54.2793 57.6163 55.0248C56.7335 55.8325 55.8023 56.5839 54.8282 57.275C54.3245 57.6127 53.7984 57.9185 53.2677 58.2152C52.7371 58.5118 52.2425 58.7902 51.7163 59.0595C51.0076 59.407 50.2793 59.7118 49.5353 59.9724C48.6354 60.268 47.7176 60.5043 46.7877 60.6798H46.8776L46.6348 60.73L45.9738 60.8624C45.4611 60.9628 44.9305 61.0267 44.4133 61.1088C44.0851 61.1636 43.7613 61.2275 43.433 61.2686C43.1047 61.3096 42.7944 61.3325 42.4752 61.3507C42.0255 61.3781 41.5398 61.3872 41.0721 61.3872L40.6134 61.4876ZM31.8445 43.8154C31.5139 44.1023 31.1986 44.407 30.9001 44.7282C30.4504 45.1846 30.0277 45.6821 29.587 46.1522C29.1463 46.6223 28.7596 47.0331 28.3504 47.4758C27.9412 47.9185 27.6219 48.2928 27.2396 48.6853C26.9284 48.9657 26.6547 49.2864 26.4257 49.6392C26.3585 49.7563 26.3289 49.8917 26.341 50.0266C26.3531 50.1616 26.4063 50.2894 26.4931 50.3923C26.4819 50.4541 26.4819 50.5175 26.4931 50.5794C26.5053 50.7422 26.5763 50.8947 26.6925 51.0076C26.8087 51.1205 26.9619 51.1858 27.1227 51.191H27.2172C27.2872 51.1794 27.3553 51.1579 27.4195 51.1271H27.3835C27.4244 51.1095 27.4635 51.0881 27.5005 51.0632H27.6129C28.112 51.0404 28.6112 51.0632 29.1103 51.0632C30.392 51.0906 31.6781 51.1088 32.9597 51.0632C34.2413 51.0175 35.5814 50.9445 36.899 50.9399C38.2166 50.9354 39.5252 50.9399 40.8383 50.8761C41.4813 50.8487 42.1244 50.803 42.7675 50.7848C43.4105 50.7665 43.9951 50.7848 44.6067 50.7483C45.7459 50.7209 46.8806 50.7209 48.0109 50.7483C49.0406 50.7483 50.0704 50.7483 51.1002 50.7756C51.2109 50.7762 51.3198 50.7479 51.4166 50.6936C51.5135 50.6393 51.595 50.5607 51.6534 50.4653C51.7572 50.4322 51.8524 50.3761 51.9322 50.301C52.0822 50.1394 52.2204 49.9671 52.3459 49.7852C52.5213 49.557 52.7011 49.3288 52.8765 49.1189C53.0519 48.9089 53.2992 48.5575 53.5151 48.2836C53.7309 48.0098 53.9648 47.7405 54.1896 47.4758C54.4684 47.1563 54.7562 46.8505 55.0395 46.5356C55.3228 46.2206 55.6736 45.7825 55.9704 45.3854C56.1053 45.2074 56.2357 45.0248 56.3571 44.8332C56.4453 44.7025 56.5235 44.5652 56.591 44.4224C56.6443 44.3164 56.672 44.1991 56.672 44.0801C56.672 43.9611 56.6443 43.8438 56.591 43.7378C56.5332 43.6333 56.4489 43.5465 56.3469 43.4863C56.2449 43.4262 56.1289 43.3948 56.0109 43.3955C55.9062 43.3996 55.8035 43.426 55.7096 43.473C55.5992 43.3737 55.4569 43.3185 55.3093 43.3179H54.5494C54.0457 43.3179 53.5421 43.3179 53.0429 43.3179C52.4448 43.3179 51.8512 43.295 51.2441 43.2768C50.003 43.2311 48.7573 43.1992 47.5117 43.1992C46.9091 43.1992 46.311 43.1992 45.7129 43.1992H43.7073C42.4437 43.1992 41.1801 43.1992 39.9164 43.1992C39.3138 43.1992 38.7068 43.1992 38.1177 43.2266C37.5286 43.254 36.8046 43.2768 36.148 43.2768C35.4915 43.2768 34.8304 43.2768 34.1739 43.2768H33.198C33.0856 43.2768 32.9732 43.2768 32.8653 43.2768H32.8293C32.7763 43.2812 32.7246 43.2951 32.6764 43.3179L32.6 43.3544C32.5362 43.3885 32.4796 43.435 32.4336 43.4913H32.3661C32.1757 43.5691 31.9994 43.6786 31.8445 43.8154ZM27.2756 33.2357C27.1312 33.2919 27.0003 33.3788 26.8917 33.4906C26.7831 33.6024 26.6993 33.7364 26.646 33.8838C26.6235 33.9998 26.6328 34.1198 26.673 34.2307L26.7 34.29C26.8037 34.5043 26.9209 34.7116 27.0508 34.9107C27.6835 35.8342 28.3888 36.7043 29.1598 37.5123L30.1806 38.6122C30.4954 38.9409 30.8057 39.2695 31.107 39.6118C31.3453 39.8856 31.5567 40.1777 31.7815 40.4698C31.852 40.5663 31.949 40.6393 32.0603 40.6798C32.0972 40.7936 32.1647 40.8945 32.2554 40.9712C32.346 41.0479 32.4561 41.0971 32.573 41.1134H32.6449H32.7618H33.0451L33.9445 41.0814C34.5786 41.0814 35.2127 41.0404 35.8467 41.0404H37.9153L39.9074 41.0769C40.5685 41.0769 41.2295 41.0312 41.8951 41.0221C42.2413 41.0221 42.5876 41.0221 42.9383 41.0221H43.8962L45.8433 40.9902C47.116 40.9902 48.3841 40.9308 49.6567 40.8669C50.8394 40.8076 52.0221 40.7574 53.2093 40.7756C54.0277 40.7756 54.8462 40.8167 55.6691 40.7756C55.8075 40.7768 55.9427 40.7331 56.0551 40.6511C56.1675 40.569 56.2512 40.4528 56.2942 40.3192C56.4177 40.2348 56.5086 40.1095 56.5512 39.9647C56.5939 39.8198 56.5857 39.6644 56.528 39.5251C56.395 39.2757 56.2448 39.0362 56.0783 38.8085C55.84 38.4342 55.5837 38.0828 55.3228 37.7268C54.5857 36.7784 53.7928 35.8761 52.9485 35.0248C52.4988 34.5684 52.0761 34.112 51.5994 33.683C51.3916 33.4568 51.1343 33.2833 50.8484 33.1764C50.6467 33.1141 50.4291 33.1338 50.2413 33.2311H49.9805C48.9552 33.2311 47.9299 33.2311 46.9046 33.2311C46.293 33.2311 45.677 33.2311 45.0654 33.2311C44.4538 33.2311 43.7568 33.2311 43.1047 33.2311C42.4527 33.2311 41.8546 33.1992 41.2295 33.1946C40.6045 33.1901 39.8804 33.1946 39.1969 33.1946C38.5134 33.1946 37.9018 33.222 37.2543 33.2494C36.6067 33.2768 35.9052 33.2905 35.2351 33.295C34.5651 33.2996 33.922 33.295 33.261 33.295C32.6 33.295 31.9344 33.2585 31.2689 33.254C30.6033 33.2494 29.9198 33.254 29.2722 33.254C28.935 33.254 28.5977 33.254 28.2604 33.2768C28.0176 33.2768 27.7703 33.3042 27.5274 33.2768H27.4375C27.3848 33.2585 27.3306 33.2447 27.2756 33.2357ZM46.5224 30.8304C47.1519 30.8304 47.786 30.908 48.4156 30.9536C48.9687 30.9856 49.5263 31.0175 50.0794 31.0586C50.2188 31.0586 50.3627 31.086 50.5021 31.086C50.559 31.0907 50.6162 31.0907 50.673 31.086C50.8295 31.064 50.9814 31.0162 51.1227 30.9445C51.4156 30.8016 51.6942 30.6304 51.9546 30.4333C52.16 30.2759 52.3484 30.0969 52.5168 29.8993C53.1823 29.1554 53.8658 28.4206 54.5179 27.6538C54.9676 27.1563 55.3723 26.6542 55.786 26.1385C55.9974 25.8738 56.2087 25.6136 56.3931 25.3306C56.5089 25.168 56.6155 24.9989 56.7124 24.824C56.8122 24.6654 56.8809 24.4888 56.9147 24.3037C56.9322 24.1516 56.9118 23.9975 56.8552 23.8555C56.7986 23.7135 56.7077 23.5883 56.591 23.4913C56.4216 23.3556 56.2168 23.2731 56.0019 23.254C55.6151 23.2083 55.2194 23.2083 54.8327 23.1901C53.605 23.1399 52.3819 23.0851 51.1542 23.076C49.9265 23.0668 48.6809 23.076 47.4442 23.076C46.1267 23.076 44.8136 23.076 43.496 23.076C42.8214 23.076 42.1469 23.076 41.4724 23.076L39.4353 23.117C38.7742 23.117 38.1087 23.149 37.4431 23.1581C36.7776 23.1672 36.1795 23.1581 35.5454 23.1581C34.9114 23.1581 34.3133 23.1581 33.7017 23.1581C33.4049 23.1581 33.1036 23.1581 32.8023 23.1992C32.6947 23.2036 32.5892 23.2306 32.4925 23.2785C32.3957 23.3265 32.3098 23.3942 32.2402 23.4776L32.2132 23.5232C31.9555 23.7196 31.7175 23.9412 31.5027 24.185C31.053 24.6415 30.5584 25.1526 30.1042 25.6501C29.65 26.1476 29.2318 26.6086 28.7821 27.0787C28.3324 27.5488 27.9771 27.8774 27.5724 28.2973C27.2334 28.6232 26.9121 28.9675 26.6101 29.3288C26.5176 29.4429 26.4695 29.5874 26.4752 29.735C26.3972 29.8283 26.3472 29.9424 26.3313 30.0636C26.3117 30.236 26.3582 30.4094 26.4612 30.5479C26.5641 30.6865 26.7157 30.7794 26.8844 30.8076C27.1921 30.8587 27.5034 30.8847 27.8152 30.8852C30.284 30.9902 32.7618 30.9217 35.2306 30.9126C36.4943 30.9126 37.7534 30.8715 39.017 30.835C39.6466 30.835 40.2762 30.803 40.9012 30.835C41.5263 30.8669 42.1154 30.8669 42.7 30.8669C43.2216 30.8669 43.7388 30.8669 44.2604 30.8669H45.5241L46.5224 30.8304Z" fill="#308D8A"/>
<path d="M33.9494 55.2623C34.0227 55.4998 34.0017 55.7569 33.8909 55.9789C33.8054 56.1288 33.6888 56.258 33.5492 56.3577C33.1207 56.6607 32.6697 56.9292 32.2001 57.161C31.6604 57.4485 31.1163 57.7315 30.5632 57.9917C30.0461 58.2352 29.5127 58.4411 28.9668 58.6078C28.6745 58.7037 28.3867 58.8178 28.0674 58.8953C27.9728 58.9165 27.8765 58.9287 27.7796 58.9319H27.7077C27.6178 58.9171 27.5292 58.8957 27.4423 58.868C27.2962 58.8205 27.1547 58.7594 27.0196 58.6854C26.6914 58.5074 26.3766 58.3111 26.0618 58.1149C25.4802 57.7498 24.9136 57.3603 24.362 56.9465C23.9842 56.6589 23.62 56.3577 23.2692 56.0336C23.0714 55.8556 22.878 55.6685 22.6891 55.4768C22.1765 54.9656 21.7268 54.4179 21.2771 53.8566C21.0837 53.6283 20.9038 53.4001 20.7285 53.1491C20.2788 52.5512 19.91 51.9168 19.5278 51.2824C19.1456 50.648 18.8263 50.082 18.5115 49.4567C17.88 48.1333 17.3566 46.7594 16.9466 45.349C16.5215 43.9567 16.2205 42.5285 16.0472 41.0816C15.9572 40.3559 15.9033 39.621 15.8673 38.8862C15.8268 38.1885 15.8268 37.489 15.8673 36.7913C15.9123 36.061 16.0202 35.3353 16.1281 34.6188C16.2207 33.8911 16.3513 33.169 16.5194 32.4554C16.6194 32.1127 16.7457 31.7785 16.8971 31.4558C17.0275 31.1546 17.1444 30.8442 17.2613 30.543C17.4952 29.9405 17.711 29.3289 17.9179 28.7174C18.1248 28.1058 18.3676 27.4029 18.6329 26.7685C18.7768 26.4353 18.9522 26.1204 19.1231 25.8009C19.294 25.4814 19.4244 25.2304 19.5728 24.9519C19.9377 24.3363 20.3386 23.7434 20.7734 23.1765C21.1647 22.6608 21.5964 22.1815 22.0146 21.6886C22.2259 21.4376 22.4373 21.1957 22.6576 20.9492C22.8089 20.7615 22.9759 20.5874 23.1568 20.4289C23.2391 20.3722 23.3264 20.3233 23.4176 20.2828L23.5031 20.2509C23.5705 19.9634 23.6425 19.6804 23.7234 19.3928C23.7893 19.0972 23.878 18.8072 23.9887 18.5257C24.0273 18.4115 24.0944 18.3094 24.1835 18.2295C24.2726 18.1495 24.3805 18.0943 24.4969 18.0692C24.6231 18.0472 24.753 18.0631 24.8704 18.115C24.9879 18.1669 25.0878 18.2525 25.1579 18.3614L25.1984 18.4344C25.2299 18.7219 25.2838 18.8041 25.1984 18.9958L25.1444 19.1692C24.8332 20.2617 24.5825 21.371 24.3934 22.4919C24.2361 23.5188 24.1101 24.5412 24.0112 25.5727C23.9123 26.6042 23.8718 27.7041 23.8358 28.7676C23.7999 29.831 23.7954 30.7758 23.8358 31.7753C23.8763 32.7749 23.9168 33.8931 24.0112 34.9702C24.0832 35.6092 24.1731 36.2436 24.281 36.878C24.3889 37.5124 24.5553 38.197 24.7037 38.8543C25.1264 40.5333 25.6337 42.1892 26.2237 43.8155C26.6861 44.9961 27.2192 46.1469 27.8201 47.2614C28.3707 48.2064 28.9711 49.1206 29.6189 49.9999C30.3695 51.0756 31.1834 52.1044 32.0562 53.0807C32.317 53.3545 32.5778 53.6283 32.8476 53.8885C33.1174 54.1487 33.3243 54.3449 33.5536 54.5777C33.7327 54.7742 33.8677 55.0078 33.9494 55.2623Z" fill="#110802" fill-opacity="0.25"/>
<path d="M27.3701 58.2744C27.4246 58.3609 27.4593 58.4587 27.4717 58.5605C27.4842 58.6624 27.4741 58.7658 27.4421 58.8632C27.4333 58.9013 27.4197 58.9381 27.4016 58.9727C27.3889 59.0008 27.3722 59.027 27.3522 59.0503C27.3543 59.0777 27.3543 59.1051 27.3522 59.1325C27.316 59.286 27.2286 59.4221 27.1048 59.5178C26.9811 59.6134 26.8286 59.6627 26.6731 59.6573H26.6371C26.2621 59.6242 25.8947 59.5302 25.5489 59.3789C25.369 59.3013 25.1891 59.2237 25.0138 59.137C24.4886 59.0372 23.9809 58.8588 23.5073 58.6076C23.3232 58.5036 23.1551 58.3729 23.0081 58.2196C22.8059 58.0317 22.6516 57.7968 22.5585 57.535C22.4692 57.2335 22.49 56.9095 22.6169 56.6222C22.7152 56.4345 22.8611 56.2769 23.0396 56.1658C23.1138 56.119 23.1921 56.0793 23.2735 56.0471C23.3875 55.9929 23.5118 55.9648 23.6377 55.9648C23.7636 55.9648 23.888 55.9929 24.002 56.0471C24.1266 56.1175 24.2309 56.2199 24.3043 56.3441C24.3777 56.4682 24.4177 56.6098 24.4202 56.7546L24.4786 56.7865C25.0587 57.1151 25.6658 57.3981 26.2774 57.6765C26.4393 57.7541 26.6057 57.8271 26.7766 57.891C27.0123 57.9448 27.2222 58.0804 27.3701 58.2744Z" fill="#110802" fill-opacity="0.25"/>
<path d="M54.554 59.2103C54.6129 59.6733 54.4884 60.1412 54.2077 60.5111C53.8236 61.1296 53.3455 61.6826 52.7912 62.1496C52.2944 62.6065 51.7703 63.0318 51.2218 63.423L50.6911 63.7881C50.6834 63.8107 50.6728 63.8322 50.6597 63.852C50.564 64.0122 50.4351 64.1492 50.2819 64.2536L49.8322 64.6051L49.7783 64.6416C49.3232 64.977 48.847 65.2819 48.3527 65.5544C48.3344 65.6455 48.2993 65.7322 48.2493 65.81C48.154 65.9438 48.0129 66.0366 47.8536 66.0702C47.5838 66.1888 47.323 66.3486 47.0576 66.4809C46.7923 66.6133 46.4236 66.7822 46.1043 66.9373C45.4492 67.2318 44.7798 67.4922 44.0987 67.7178C42.712 68.1949 41.3009 68.5956 39.8716 68.9182C39.1925 69.0688 38.5225 69.2011 37.8255 69.3381L37.2499 69.5663L37.0295 69.7123L36.9621 69.7717C36.8896 69.8491 36.8114 69.9208 36.7282 69.9862C36.5568 70.1193 36.3695 70.2297 36.1706 70.3148C35.5791 70.5506 34.9701 70.7383 34.3494 70.8762C33.0003 71.2322 31.6018 71.5152 30.2167 71.7616C29.5422 71.8849 28.8676 71.999 28.1931 72.1176C27.5186 72.2363 26.934 72.3504 26.3044 72.4554C25.6748 72.5603 24.9059 72.6699 24.2043 72.7383C23.5028 72.8068 22.9002 72.8433 22.2527 72.9072C20.8497 73.0624 19.4691 73.3362 18.0706 73.5279C17.3645 73.6238 16.654 73.7196 15.939 73.7835C15.3454 73.8383 14.7518 73.8474 14.1403 73.8474H13.812C12.4127 73.875 11.013 73.8156 9.62087 73.6694C8.89222 73.5632 8.17333 73.3969 7.47135 73.1719L6.70238 72.9346C6.60794 72.9346 6.518 72.8935 6.42357 72.8661C6.11182 72.7656 5.81057 72.6341 5.52419 72.4736C5.23009 72.3146 4.95919 72.115 4.71924 71.8803C4.64729 71.8073 4.57984 71.7297 4.51688 71.6566L4.18861 71.328C3.77489 70.9446 3.35218 70.5658 2.96994 70.1459C2.78799 69.9407 2.61686 69.7259 2.4573 69.5024C2.30927 69.3603 2.19263 69.188 2.11511 68.9968C2.03759 68.8057 2.00095 68.5999 2.0076 68.3933C2.03478 68.2645 2.09538 68.1453 2.18314 68.0482C2.2709 67.9511 2.38262 67.8796 2.50676 67.841C2.71053 67.7893 2.92542 67.8069 3.11834 67.8912C3.33419 67.9688 3.56803 68.0464 3.77039 68.1149C4.4809 68.334 5.20491 68.5074 5.91992 68.6808C6.63492 68.8543 7.46685 69.0095 8.24482 69.1372H8.2763C9.91415 69.4004 11.5659 69.565 13.2229 69.6302H13.2724H13.6321C15.0352 69.6713 16.4382 69.6667 17.8412 69.6302C19.2443 69.5937 20.6878 69.6302 22.1088 69.5343C23.2375 69.475 24.3572 69.3928 25.4905 69.3518C26.0391 69.3518 26.5877 69.3153 27.1363 69.2879C27.586 69.2879 28.0357 69.2285 28.4584 69.1875C28.8811 69.1464 29.2274 69.0186 29.6096 68.9273C30.482 68.6971 31.3408 68.4167 32.1819 68.0875C32.7379 67.8726 33.28 67.6226 33.8052 67.339C34.0076 67.2158 34.201 67.0834 34.3943 66.9465C34.6188 66.7748 34.8335 66.5904 35.0374 66.3942C35.5635 65.8693 36.0627 65.3079 36.5349 64.7374V64.6142L36.5079 64.459L36.4764 64.3586C36.3752 64.3477 36.2756 64.3247 36.1796 64.2901H36.2426C36.1632 64.2651 36.0887 64.2266 36.0222 64.176H35.9143C35.749 64.1785 35.5837 64.1693 35.4196 64.1487C35.3356 64.1299 35.256 64.0942 35.1858 64.0437C35.095 63.975 35.0227 63.8843 34.9755 63.7798C34.9284 63.6753 34.9079 63.5604 34.916 63.4458C34.9277 63.318 34.9768 63.1968 35.0569 63.0976C35.1371 62.9984 35.2446 62.9257 35.3657 62.889C35.4307 62.872 35.4968 62.8598 35.5635 62.8525C35.7292 62.7223 35.9166 62.6234 36.1167 62.5603C36.2785 62.4965 36.4404 62.428 36.6023 62.355C36.9441 62.2043 37.2904 62.0492 37.6321 61.8985C38.2437 61.611 38.8463 61.3098 39.4309 60.9857L39.6377 60.8716C40.1998 60.5637 40.7461 60.227 41.2746 59.863C41.2268 59.7215 41.2269 59.5678 41.275 59.4264C41.3231 59.285 41.4163 59.1639 41.5399 59.0825C41.6389 59.0049 41.7378 58.9136 41.8322 58.8269L41.8862 58.7721C41.8275 58.6793 41.7949 58.572 41.7918 58.4618C41.7911 58.2934 41.852 58.1308 41.9626 58.0053L41.9986 57.9643C42.0681 57.9016 42.1491 57.8536 42.237 57.8228C42.4252 57.7664 42.6239 57.7554 42.8171 57.7908H42.943L43.0419 57.7452C43.1701 57.7119 43.3049 57.7148 43.4316 57.7534C43.5584 57.7919 43.6724 57.8649 43.7614 57.9643C43.7775 57.9783 43.7925 57.9936 43.8064 58.0099C44.9465 58.1765 46.0951 58.2771 47.2465 58.3111C48.0605 58.3385 48.8699 58.3385 49.6838 58.3111C50.4978 58.2838 51.3342 58.1879 52.1526 58.1012C52.6023 58.051 53.052 57.9825 53.5332 57.8958C53.6344 57.8689 53.739 57.8582 53.8435 57.8639C53.9588 57.8763 54.069 57.9184 54.1638 57.9863C54.2585 58.0542 54.3345 58.1456 54.3845 58.2518C54.4346 58.3579 54.457 58.4753 54.4497 58.5928C54.4423 58.7102 54.4055 58.8238 54.3426 58.9227C54.4339 59.0009 54.5062 59.0992 54.554 59.2103Z" fill="#110802" fill-opacity="0.25"/>
<path fill-rule="evenodd" clip-rule="evenodd" d="M55.0038 39.5939C55.6289 39.1534 56.1775 38.6105 56.6272 37.9873C56.7396 37.8504 56.8385 37.7272 56.9195 37.6359C57.6953 36.6282 58.2586 35.4692 58.5743 34.2311C60.481 27.3849 55.8132 22.2639 48.9869 23.1402C44.0448 24.0257 40.5417 27.3849 37.0162 30.7852C35.8964 31.8577 34.7677 32.9349 33.6165 33.9344C33.0822 33.7277 32.5222 33.5971 31.9526 33.5465C31.7053 33.5099 31.5029 33.478 31.3186 33.4415C28.7328 33.2224 25.7919 33.8979 23.9751 35.8787C21.0881 39.174 21.1511 44.263 26.2236 45.007C27.4194 45.2182 28.6458 45.1684 29.8211 44.8609C29.8583 45.0181 29.911 45.171 29.9785 45.3173C30.019 45.4132 30.0594 45.509 30.0909 45.6049C30.2863 46.1032 30.4544 46.6121 30.5946 47.1293C30.7878 47.8862 31.0623 48.6193 31.413 49.3155C31.4663 49.3875 31.5339 49.4474 31.6113 49.4914C31.6887 49.5354 31.7744 49.5625 31.8627 49.5711C31.9188 49.636 31.9879 49.688 32.0655 49.7234C32.1431 49.7589 32.2273 49.777 32.3124 49.7765C36.1439 48.0788 40.1677 46.8692 44.2922 46.1754C46.6036 45.719 48.9195 45.5136 51.2489 45.2945C52.571 45.1667 53.902 45.0435 55.2376 44.8746C55.3646 44.8863 55.4924 44.8649 55.609 44.8125C55.7256 44.7602 55.8271 44.6786 55.9041 44.5754C55.981 44.4722 56.0308 44.3508 56.0487 44.2227C56.0667 44.0946 56.0522 43.964 56.0066 43.8431C56.0779 43.7026 56.1001 43.5417 56.0696 43.3867C55.9526 42.8892 55.8087 42.4009 55.6648 41.9125L55.6244 41.7756L55.5929 41.666L55.4805 41.2781C55.3096 40.7213 55.1477 40.1644 55.0038 39.5939ZM31.1342 44.4182C31.9481 44.1307 32.897 43.729 32.5912 42.9212C32.5515 42.8347 32.4953 42.7571 32.4258 42.6929C32.3563 42.6286 32.275 42.579 32.1865 42.5469C32.0107 42.4739 31.8136 42.4739 31.6378 42.5469C29.3714 43.8157 26.1786 44.2721 24.101 42.4465C22.7025 40.6665 23.9301 37.9782 25.3242 36.577C27.2039 34.9476 29.8211 34.6099 32.2269 35.0663C31.8447 35.3584 31.4535 35.6368 31.0577 35.9061C30.9087 36.0146 30.8064 36.1771 30.772 36.3601C30.7377 36.543 30.774 36.7323 30.8733 36.8888C30.9727 37.0454 31.1275 37.1572 31.3058 37.2011C31.4841 37.245 31.6722 37.2176 31.8312 37.1247C34.0257 35.7235 35.8784 33.9025 37.7581 32.0768C38.9318 30.9266 40.11 29.7947 41.3557 28.7359C44.2067 26.2849 47.9077 24.0166 51.7795 24.5962C53.7132 24.9978 55.7863 25.8833 56.7036 27.7911C58.2371 30.6528 57.603 34.4638 55.6468 36.9695C55.2561 37.4821 54.8028 37.9422 54.2978 38.3388C54.0958 38.2877 53.8895 38.2556 53.6817 38.2429H53.4524C54.017 37.1697 54.3251 35.9768 54.3517 34.7605C54.3599 34.5785 54.2991 34.4002 54.1817 34.2624C54.0643 34.1246 53.8994 34.0376 53.7208 34.0195C53.5421 34.0014 53.3635 34.0534 53.2215 34.1649C53.0796 34.2765 52.9852 34.439 52.9577 34.619C52.9322 35.1839 52.8524 35.7449 52.7194 36.2941C52.5665 36.854 52.3017 37.3761 51.9414 37.8276C51.8222 37.8764 51.717 37.9549 51.6356 38.0558C51.6101 38.0871 51.5875 38.1207 51.5682 38.1562C51.0285 38.1562 50.4934 38.1562 49.9538 38.1562C50.363 37.2114 50.5923 36.0932 50.4889 35.6231C50.4306 35.0389 50.313 34.4622 50.1381 33.9025C50.1086 33.8125 50.0619 33.7294 50.0007 33.6578C49.9396 33.5862 49.8651 33.5276 49.7816 33.4852C49.6981 33.4428 49.6071 33.4175 49.514 33.4108C49.4209 33.4041 49.3273 33.4161 49.2388 33.446C49.1502 33.476 49.0683 33.5234 48.9977 33.5855C48.9272 33.6476 48.8694 33.7232 48.8276 33.8079C48.7859 33.8927 48.761 33.985 48.7544 34.0795C48.7477 34.174 48.7595 34.269 48.7891 34.3589C49.034 35.0034 49.1122 35.7009 49.0162 36.3848C48.9202 37.0688 48.6531 37.7163 48.2404 38.2658C47.1912 38.3479 46.1494 38.4742 45.1151 38.6446C43.8284 38.9141 42.5617 39.2741 41.3242 39.7217C41.2365 39.75 41.1552 39.7956 41.085 39.8559C41.0147 39.9162 40.957 39.9901 40.915 40.0732C40.8276 40.24 40.8082 40.4351 40.861 40.6163C40.9215 40.7972 41.0499 40.9466 41.2183 41.0321C41.3867 41.1175 41.5815 41.1321 41.7604 41.0727L42.5743 40.8171C43.2444 40.6026 43.9234 40.3926 44.5979 40.2192C45.8642 39.935 47.1519 39.761 48.4473 39.6989C48.5333 39.7171 48.6221 39.7171 48.7081 39.6989L49.6615 39.6533C50.962 39.5718 52.2667 39.5886 53.5648 39.7035C53.6 40.0682 53.68 40.427 53.8031 40.7715C53.8635 40.9558 53.9145 41.1432 53.956 41.3328C54.0684 41.7071 54.1719 42.0859 54.2708 42.4648C54.3652 42.8162 54.4597 43.1676 54.5631 43.5191C53.3984 43.656 52.2337 43.7747 51.0645 43.8888C48.0931 44.1261 45.138 44.5406 42.2146 45.1302C40.0729 45.5678 37.9611 46.1441 35.8919 46.8554C34.6993 47.1958 33.5425 47.6544 32.4383 48.2247C32.2719 47.7683 32.128 47.3119 31.9886 46.8281C31.756 46.0067 31.4705 45.2017 31.1342 44.4182ZM34.7317 43.8979C34.1022 44.1489 33.1758 44.514 33.6165 45.3173C34.0347 45.8696 34.5968 45.5684 35.1409 45.2808C35.3717 45.1383 35.6216 45.0307 35.8829 44.9613C36.5288 44.697 37.1877 44.467 37.8571 44.2721L39.1297 43.9481L39.6199 43.8249C39.7988 43.768 39.9481 43.6413 40.0349 43.4727C40.1218 43.304 40.1391 43.1073 40.083 42.9257C40.027 42.7442 39.9022 42.5926 39.736 42.5045C39.5699 42.4163 39.3761 42.3987 39.1972 42.4556C37.7371 42.7831 36.3078 43.2381 34.9251 43.8157L34.7317 43.8979Z" fill="white"/>
</g>
</g>
<defs>
<clipPath id="clip0_7730_1956">
<rect width="80" height="80" fill="white" transform="translate(0.3125)"/>
</clipPath>
</defs>
</svg>
