<svg xmlns="http://www.w3.org/2000/svg" width="175.28" height="175.28" viewBox="0 0 175.28 175.28">
  <g id="Layer_2" data-name="Layer 2">
    <g id="Vector_layer" data-name="Vector layer">
      <g>
        <circle cx="87.64" cy="87.64" r="87.64" fill="#98d7c3"/>
        <g>
          <path d="M36.18,124.22c-1.44-.1-2.89-.22-4.32-.42a15.5,15.5,0,0,1-4.34-1.22,10.23,10.23,0,0,1-1.86-1,5.94,5.94,0,0,1-1.5-1.62,3.92,3.92,0,0,1,0-4.06,8.59,8.59,0,0,1,3.18-3,16.62,16.62,0,0,1,1.8-1,15.68,15.68,0,0,1,1.87-.72l-.18.06a25.57,25.57,0,0,1,4.32-1.1,41.6,41.6,0,0,1,4.32-.45,31.58,31.58,0,0,1,4.35,0,29.93,29.93,0,0,1,4.31.77,22.35,22.35,0,0,1,6.19,2.5,9.44,9.44,0,0,1,2.59,2.24,3.35,3.35,0,0,1,.54,1c.06.18.11.36.17.54v0a1.09,1.09,0,0,1,0,.4,1.53,1.53,0,0,1,0,.3,2.73,2.73,0,0,1-.54,1.53,4.76,4.76,0,0,1-.56.63,9.33,9.33,0,0,1-1.19,1,14.33,14.33,0,0,1-3,1.52,33.76,33.76,0,0,1-8.09,2,37,37,0,0,1-4.08.14h-.65C38.44,124.32,37.31,124.3,36.18,124.22Zm3.38-2.89c1.19,0,2.37,0,3.56,0a23.4,23.4,0,0,0,3-.4h0l.08,0,.12,0h-.06a38.72,38.72,0,0,0,4.1-1.1,23.54,23.54,0,0,0,2.4-1,10.72,10.72,0,0,0,.93-.54,7.63,7.63,0,0,0,.7-.54c.14-.12.26-.25.39-.38l0,0a.5.5,0,0,0,0-.13s0,0,0,0l-.15-.18a7.8,7.8,0,0,0-.57-.58q-.42-.34-.87-.66c-.39-.25-.79-.48-1.21-.7-.78-.38-1.58-.74-2.4-1.05a31.24,31.24,0,0,0-3.42-.89c-.88-.17-1.75-.31-2.64-.4a35.72,35.72,0,0,0-4.39,0h.21a39.29,39.29,0,0,0-4.07.47,25.67,25.67,0,0,0-3.13.81l0,0-.08,0L32,114l.08,0a15.6,15.6,0,0,0-2,.79c-.6.32-1.18.67-1.75,1l.16-.1c-.35.24-.7.49-1,.76l-.29.3-.28.36c-.07.11-.13.22-.19.33a.61.61,0,0,0-.05.12,1.55,1.55,0,0,0-.07.23l0,.18v.13h0a.07.07,0,0,0,0,0l0,.06a.64.64,0,0,0,.08.14c.09.13.18.26.29.39l.14.15.43.33c.17.11.35.21.53.31a17.46,17.46,0,0,0,1.72.74c.36.12.73.22,1.11.31a41.57,41.57,0,0,0,4.73.59h.16C37.05,121.28,38.3,121.33,39.56,121.33Z" fill="#110802"/>
          <path d="M40.37,130.85c-1.42,0-2.84-.14-4.25-.25a41.75,41.75,0,0,1-5.32-.84,12.7,12.7,0,0,1-4.56-1.62h0l0,0,0,0a8.41,8.41,0,0,1-2.09-2.16,4.53,4.53,0,0,1-.7-1.85c-.1-.71-.14-1.44-.18-2.16-.05-1-.09-2-.06-3,0-.24,0-.48,0-.72,0,.06,0,.12,0,.19a4.23,4.23,0,0,1,.11-.87,1.57,1.57,0,0,1,.86-1,1.43,1.43,0,0,1,1.85.76,1.34,1.34,0,0,1,.06.88.11.11,0,0,1,0,0,30.17,30.17,0,0,0,.06,3.68c0,.08,0,.17,0,.26,0,.53.08,1.07.17,1.6a1.6,1.6,0,0,0,0,.21l.06.13.15.26c.1.14.21.27.31.39s.43.46.65.67l.4.31c.15.09.3.18.46.26a6.57,6.57,0,0,0,.61.26,24.18,24.18,0,0,0,2.63.68l-.19,0c1,.21,2,.41,3,.55s2.17.26,3.25.34h0c1,.07,2,.14,2.93.14s1.86,0,2.79-.09a34.14,34.14,0,0,0,4.29-.49l-.19,0c.81-.16,1.61-.37,2.41-.56s1.57-.4,2.35-.66a17.64,17.64,0,0,0,2-.82c.22-.11.43-.23.64-.36l.29-.22.13-.13.13-.17c.08-.12.15-.25.22-.38a7.27,7.27,0,0,0,.34-.81,4.84,4.84,0,0,0,.19-.65c0-.23.07-.46.1-.69a9.79,9.79,0,0,0,0-1.21,11.12,11.12,0,0,0-.13-1.16c0-.22-.11-.43-.17-.63l-.06-.18a.17.17,0,0,1,0,0l0,0a1.48,1.48,0,0,1,2.67-1.27,7.76,7.76,0,0,1,.76,3.68,8.21,8.21,0,0,1-.09,1.64,9.49,9.49,0,0,1-.41,1.5s0,0,0,0a10.52,10.52,0,0,1-.62,1.42,4.92,4.92,0,0,1-1.35,1.59,10.2,10.2,0,0,1-2.5,1.34,21.18,21.18,0,0,1-3.19,1c-1.07.27-2.13.54-3.21.75a32.27,32.27,0,0,1-3.39.39c-1.29.11-2.59.18-3.88.18Z" fill="#110802"/>
          <path d="M78.81,143.51a33.61,33.61,0,0,1-4.59-.32A20.43,20.43,0,0,1,69.87,142a11.4,11.4,0,0,1-4-2.26,4.23,4.23,0,0,1-1.14-2.46,4,4,0,0,1,.4-2.13,7.71,7.71,0,0,1,2.61-3.26,11.94,11.94,0,0,1,1.95-1.16,11.43,11.43,0,0,1,2.07-.69,20.88,20.88,0,0,1,2.22-.48,19.46,19.46,0,0,1,2-.17l.4,0c1.55-.1,3.1-.18,4.66-.17a32.15,32.15,0,0,1,4.59.46,23.94,23.94,0,0,1,4.56,1.13,25.57,25.57,0,0,1,4.14,1.86,10,10,0,0,1,1.16.8,3.52,3.52,0,0,1,1,1,2.77,2.77,0,0,1,.34,1.51h0a1.25,1.25,0,0,1-.07.43,3.28,3.28,0,0,1,.06,1.21,3,3,0,0,1-.53,1.3.21.21,0,0,0,0-.06l-.06.09a0,0,0,0,1,0,0,9.46,9.46,0,0,1-4.92,3.26,19.56,19.56,0,0,1-3.77.84c-1.44.18-2.89.26-4.34.33-1.2.06-2.41.08-3.62.08Zm5.87-3.23-.21,0a33.06,33.06,0,0,0,3.84-.38,22.45,22.45,0,0,0,2.4-.66,9.69,9.69,0,0,0,1.05-.44,8.13,8.13,0,0,0,.81-.47,7,7,0,0,0,.61-.46,3.73,3.73,0,0,0,.34-.35l.19-.23.06-.11h0v-.12l0-.47a1.27,1.27,0,0,1,.16-.66c-.17-.15-.35-.28-.53-.42a11.27,11.27,0,0,0-1.12-.65h0a27.15,27.15,0,0,0-2.66-1.12,26.17,26.17,0,0,0-3-.87,42.69,42.69,0,0,0-4.5-.62,44.25,44.25,0,0,0-5.4.1,24.23,24.23,0,0,0-2.69.25,21.18,21.18,0,0,0-2.68.71c-.2.08-.4.16-.6.26s-.64.37-1,.57a8.17,8.17,0,0,0-.68.52c-.15.14-.3.28-.44.43l-.25.32q-.21.34-.39.69c-.08.17-.15.34-.22.51l-.06.19h0l0,.2,0,.13a1.63,1.63,0,0,0,.11.23.08.08,0,0,0,0,.05l.05.07.17.18.31.24c.23.15.48.29.73.42a22.84,22.84,0,0,0,2.15.93c.82.28,1.66.52,2.51.72a20.56,20.56,0,0,0,2.34.32h.11A66.47,66.47,0,0,0,84.68,140.28Z" fill="#110802"/>
          <path d="M82.48,148.91c-1.41-.06-2.82-.17-4.22-.33s-2.61-.31-3.9-.56a21.81,21.81,0,0,1-6.81-2.28,11.53,11.53,0,0,1-2-1.42,3.59,3.59,0,0,1-1.11-2.18,11.21,11.21,0,0,1,0-2.09,18.36,18.36,0,0,1,.39-2.94,1.83,1.83,0,0,1,.68-1.18,1.5,1.5,0,0,1,1.66-.13,1.42,1.42,0,0,1,.68,1,1.43,1.43,0,0,1-.26,1c-.11.61-.19,1.23-.24,1.85,0-.06,0-.12,0-.19a12.5,12.5,0,0,0,0,1.73,5.14,5.14,0,0,0,.06.55l0,.13,0,0,0,.05,0,.07.1.09a7.38,7.38,0,0,0,.77.58l-.07,0,.07,0,0,0h0c.36.24.73.46,1.12.67a15.18,15.18,0,0,0,1.56.66h0a29.07,29.07,0,0,0,3.55,1l-.19,0c1,.21,2.06.34,3.1.48s2.1.27,3.15.35h.15a43.07,43.07,0,0,0,5.33.11,24.22,24.22,0,0,0,2.54-.35l-.2,0a21.93,21.93,0,0,0,2.68-.69l.13,0h0a10.84,10.84,0,0,0,1.12-.44l.43-.26a5.32,5.32,0,0,0,.47-.36,8.09,8.09,0,0,0,.78-.77,3.92,3.92,0,0,0,.25-.32l.05-.09,0-.07c.1-.29.18-.59.25-.88s.13-.8.17-1.2a14.42,14.42,0,0,0,0-1.47c0-.22,0-.43-.07-.65a1.48,1.48,0,0,1,1.07-1.58,1.44,1.44,0,0,1,1.77,1,9.3,9.3,0,0,1,.22,2.17,12.49,12.49,0,0,1-.15,1.73,9.2,9.2,0,0,1-.5,1.92,5.52,5.52,0,0,1-1.31,1.8,9.88,9.88,0,0,1-1.35,1.15,9.2,9.2,0,0,1-2.07,1,24,24,0,0,1-6.3,1.3c-.6,0-1.21,0-1.81,0S83.1,148.93,82.48,148.91Z" fill="#110802"/>
          <path d="M57,117a1.47,1.47,0,1,1,0-2.94l.64,0a20.28,20.28,0,0,0,2-.25c.5-.11,1-.25,1.48-.4a26.52,26.52,0,0,0,2.65-1.11l-.08,0,.11,0,0,0A35.08,35.08,0,0,0,67,110.46c.94-.66,1.82-1.37,2.69-2.12l0,0,.2-.18a36.7,36.7,0,0,0,2.71-2.58,22.85,22.85,0,0,0,1.4-1.84c.2-.31.39-.62.57-1l.24-.52c0-.13.07-.26.11-.39a.88.88,0,0,0,0-.17c0-.16,0-.32,0-.47s0-.17,0-.24a0,0,0,0,0,0,0l0-.09a3,3,0,0,0-.18-.3,3.15,3.15,0,0,0-.22-.29,3.22,3.22,0,0,0-.32-.32c-.17-.15-.35-.28-.53-.41L73,99.23,72.59,99l-.4-.12a8,8,0,0,0-1-.12c-.45,0-.89,0-1.33,0a24.51,24.51,0,0,0-2.82.39h0l-.08,0H67a39.41,39.41,0,0,0-3.83,1c-.68.25-1.36.54-2,.85a35.3,35.3,0,0,0-3.33,1.9,26.68,26.68,0,0,0-2.26,1.7,19.42,19.42,0,0,0-1.51,1.5,22.37,22.37,0,0,0-1.48,1.89c-.3.46-.58.93-.83,1.41-.13.29-.25.58-.36.88s-.1.32-.14.49,0,.07,0,.11V111a1.78,1.78,0,0,1,0,.4.86.86,0,0,1,0-.16,1.41,1.41,0,0,1-2.82.12,5.35,5.35,0,0,1,.68-3.11,16.67,16.67,0,0,1,2.54-3.74,25.08,25.08,0,0,1,7.1-5.47,28.71,28.71,0,0,1,9.34-3A15.37,15.37,0,0,1,72.48,96a6.19,6.19,0,0,1,2,.72A7.82,7.82,0,0,1,76.27,98a6.83,6.83,0,0,1,1,1.3,4.15,4.15,0,0,1,.57,2.06,6.83,6.83,0,0,1-1.34,3.91,20.06,20.06,0,0,1-2.37,3c-.82.86-1.73,1.64-2.63,2.42l0,0h0a28.42,28.42,0,0,1-3.57,2.71,30.37,30.37,0,0,1-4,2.12A17.41,17.41,0,0,1,57.19,117Z" fill="#110802"/>
          <path d="M71.51,110.68Z" fill="#110802"/>
          <path d="M71.51,110.67h0Z" fill="#110802"/>
          <path d="M58.34,122.27a1.45,1.45,0,0,1-1.22-1.43,1.43,1.43,0,0,1,1.44-1.41h.33l.57,0a12,12,0,0,0,1.58-.21l-.2,0a23.36,23.36,0,0,0,5.5-1.87A38.75,38.75,0,0,0,70,115.11l-.16.1a33.47,33.47,0,0,0,3-2.25,31.06,31.06,0,0,0,2.27-2.32h0l.09-.1,0,0v0c.5-.58,1-1.16,1.47-1.8a7.45,7.45,0,0,0,.46-.77c0-.11.1-.22.14-.33s.12-.4.17-.6a5.07,5.07,0,0,0,.09-.54q0-.36,0-.72a1,1,0,0,0,0-.18.75.75,0,0,0,0-.16c0-.1-.08-.21-.12-.31-.36-.7-.79-1.35-1.18-2-.28-.5-.54-1-.77-1.53a3.4,3.4,0,0,1-.38-1.31,1.43,1.43,0,0,1,2.74-.54c0,.07,0,.13.07.19a7.39,7.39,0,0,0,.36.88c.59,1.16,1.41,2.21,1.91,3.41a6.29,6.29,0,0,1-.22,4.78,11.1,11.1,0,0,1-1.86,2.75c-.84,1-1.71,1.94-2.63,2.85a23.33,23.33,0,0,1-3.32,2.62c-1.12.77-2.26,1.51-3.42,2.2a19.79,19.79,0,0,1-3,1.44,26.5,26.5,0,0,1-3.51,1.11,14.13,14.13,0,0,1-2,.35c-.32,0-.63,0-1,0A4.76,4.76,0,0,1,58.34,122.27Z" fill="#110802"/>
          <path d="M79,111.16a1.44,1.44,0,0,1,.22-2.86c.57,0,1.14,0,1.71,0a21.47,21.47,0,0,0,2.77-.39h0a25.39,25.39,0,0,0,2.57-.64A43.36,43.36,0,0,0,91,105.31a37,37,0,0,0,3.72-2.14c.56-.38,1.09-.78,1.61-1.21.31-.28.61-.58.9-.89.14-.16.27-.33.4-.5s.2-.33.29-.5a5.89,5.89,0,0,0,.24-.58,9.58,9.58,0,0,0,.31-1.08c0-.11,0-.22,0-.33s0-.3,0-.44,0-.34-.07-.5-.07-.33-.12-.49l-.07-.16a3.79,3.79,0,0,0-.2-.34l-.1-.13-.22-.23-.22-.17a3.3,3.3,0,0,0-.32-.18l-.32-.14a3.31,3.31,0,0,0-.42-.12l-.3-.05c-.58,0-1.16,0-1.73,0a16.38,16.38,0,0,0-1.71.25h0a26.77,26.77,0,0,0-3,.79h0l-.08,0h-.06c-1.27.45-2.52.93-3.77,1.43S83.2,98.7,82,99.3a21.85,21.85,0,0,0-2.1,1.2,9.16,9.16,0,0,0-.87.67,1.4,1.4,0,0,1-2.69-.21,1.1,1.1,0,0,1,0-.18v.07a1.77,1.77,0,0,1,.25-1.19,4.75,4.75,0,0,1,1-1,17.61,17.61,0,0,1,3.42-2c1.21-.59,2.48-1.12,3.74-1.63s2.51-1,3.78-1.43a29,29,0,0,1,4.22-1.09,13.6,13.6,0,0,1,2.11-.22,9.16,9.16,0,0,1,2.16.11,5.54,5.54,0,0,1,3.6,2.4,6,6,0,0,1,.81,3.79,8.24,8.24,0,0,1-.57,2.15,7.53,7.53,0,0,1-1,1.79,9.31,9.31,0,0,1-1.48,1.59,18,18,0,0,1-1.7,1.32,38.24,38.24,0,0,1-7.66,4,26,26,0,0,1-3.09,1c-1,.25-2,.45-3.06.62a14.77,14.77,0,0,1-2.49.21A12.21,12.21,0,0,1,79,111.16Z" fill="#110802"/>
          <path d="M83.74,107.87h0Z" fill="#110802"/>
          <path d="M78,116.39c-.61,0-1.22,0-1.82-.06A1.93,1.93,0,0,1,74.47,115a3.65,3.65,0,0,1-.15-1.18,1.44,1.44,0,0,1,2.84-.36h0a22.22,22.22,0,0,0,2.45,0A26.72,26.72,0,0,0,83,112.9h0l.07,0,.12,0h-.08A35.51,35.51,0,0,0,87,111.77h0l.14-.05h0l.13,0h0a51.13,51.13,0,0,0,6-2.37,23.27,23.27,0,0,0,2.19-1.2c.67-.47,1.31-1,1.93-1.51s1-1,1.53-1.51c.27-.33.53-.66.78-1s.48-.77.69-1.17a3.54,3.54,0,0,0,.16-.34s0-.09,0-.14a.13.13,0,0,0,0-.06v0c0-.16,0-.32-.07-.48h0v0a.11.11,0,0,1,0,0h0c0-.24-.1-.48-.14-.73l0,.12c-.12-.58-.22-1.17-.34-1.76,0,.06,0,.13,0,.19a2.38,2.38,0,0,1-.05-.26.43.43,0,0,1,0,.05c-.13-.69-.25-1.39-.38-2.08l0,.19a6,6,0,0,0-.14-.61,1.47,1.47,0,0,1,.33-2.16l-.13.09-.09.08a1.55,1.55,0,0,1,1.23-.39,1.59,1.59,0,0,1,1.27,1.11,18,18,0,0,1,.5,2.17v0l0,.16h0V98h0c.09.47.19.93.28,1.4v0c.07.35.13.7.2,1a1.29,1.29,0,0,0,0-.19,13.69,13.69,0,0,1,.38,2.09,5.49,5.49,0,0,1-1,2.81,15.34,15.34,0,0,1-2.82,3.35A18.55,18.55,0,0,1,96.33,111a46.77,46.77,0,0,1-8.26,3.48c-1.2.41-2.4.81-3.64,1.1a30.69,30.69,0,0,1-3.79.67,23.25,23.25,0,0,1-2.5.12Z" fill="#110802"/>
          <path d="M100.59,101.84h0Z" fill="#110802"/>
          <path d="M87.36,111.66Z" fill="#110802"/>
          <path d="M87.34,111.66h0Z" fill="#110802"/>
          <path d="M100.58,101.83Z" fill="#110802"/>
          <path d="M88.53,123.93l-.41,0h.07l-.12,0h.06a46.15,46.15,0,0,1-5.85-.89c-1-.19-1.89-.37-2.83-.58s-1.85-.49-2.79-.69h0a.45.45,0,0,1-.16,0h0l-2.43-.54.18,0c-.64-.14-1.29-.21-1.94-.3s-1.2-.17-1.81-.22a19.1,19.1,0,0,0-2.14,0l-.35,0h0a1.41,1.41,0,0,1-.61,0,1.44,1.44,0,0,1-.92-1.93,1.46,1.46,0,0,1,1-.84,5.83,5.83,0,0,1,.73-.1c.72,0,1.45-.06,2.17,0a26.55,26.55,0,0,1,2.67.28c.47.06.94.12,1.4.21s1,.21,1.45.32l.11,0,1.14.24h0c1,.21,2,.5,3,.72h0l.12,0h0c1.59.33,3.19.65,4.79.93s3.48.44,5.24.58h.29a41.82,41.82,0,0,0,4.48.07,35.14,35.14,0,0,0,8.39-1.6,32.88,32.88,0,0,0,3.43-1.4,19.93,19.93,0,0,0,1.72-1,20.8,20.8,0,0,0,1.68-1.29c.4-.37.78-.76,1.14-1.16.68-.78,1.3-1.59,1.9-2.43a22.06,22.06,0,0,0,1.21-2c.28-.57.53-1.16.76-1.76.13-.41.25-.82.36-1.24s.14-.82.19-1.23a8.62,8.62,0,0,0,0-.88c0-.23,0-.45-.09-.68s-.17-.64-.27-.95c-.29-.78-.57-1.55-.89-2.31a1.43,1.43,0,1,1,2.63-1.1c.33.76.64,1.53.94,2.31a9.37,9.37,0,0,1,.6,2.44,8.29,8.29,0,0,1,0,1.65,14.5,14.5,0,0,1-1.25,4.37,21.32,21.32,0,0,1-2.3,3.88,20.78,20.78,0,0,1-3.12,3.5,17.8,17.8,0,0,1-4,2.66,32.92,32.92,0,0,1-4.25,1.68,35.38,35.38,0,0,1-4.3,1,32.17,32.17,0,0,1-4.16.52c-.58,0-1.16,0-1.74,0C92,124.22,90.26,124.07,88.53,123.93Z" fill="#110802"/>
          <path d="M85.2,117,83,116.86a1.44,1.44,0,0,1-1.4-1.44A1.42,1.42,0,0,1,83,114c2.28.07,4.56.11,6.84,0a42.3,42.3,0,0,0,4.49-.4c1-.21,1.92-.5,2.87-.8s1.92-.72,2.85-1.16c.37-.19.73-.39,1.09-.62s.64-.45.94-.7.47-.48.7-.73.54-.71.79-1.08l.41-.7c.19-.4.35-.81.51-1.23s.34-1.14.48-1.73a13,13,0,0,0,.17-1.4v.19a24.32,24.32,0,0,0,0-2.7v0c0-.2,0-.4-.07-.6a1.41,1.41,0,0,1,2.57-1.14l.06.11-.06-.1a3.94,3.94,0,0,1,.33,1.48c0,.7.06,1.4.06,2.09a15.17,15.17,0,0,1-1.39,6.22,13.55,13.55,0,0,1-1.22,2,10.53,10.53,0,0,1-3.25,2.91,16.93,16.93,0,0,1-2.1,1c-.67.28-1.35.54-2,.76a22.39,22.39,0,0,1-4.18,1c-.69.09-1.39.13-2.09.18s-1.52.11-2.29.15-1.36.06-2,.06S85.94,117,85.2,117Z" fill="#110802"/>
          <path d="M104.82,105.21h0l-.09,0h0a10,10,0,0,0-1.06-.34l-.19,0a1.36,1.36,0,0,1-.58.11,1.4,1.4,0,0,1-1.34-1.05h0a1.51,1.51,0,0,1,.89-1.79,2.58,2.58,0,0,1,1.32-.14,7.48,7.48,0,0,1,2.18.63,1.45,1.45,0,0,1,.76,1.87,1.39,1.39,0,0,1-1.31.86A1.55,1.55,0,0,1,104.82,105.21Z" fill="#110802"/>
          <path d="M58.1,100.66a4.93,4.93,0,0,1-1.67-1.54A5.23,5.23,0,0,1,55.51,97c-.39-2.56,1.65-4.81,3.82-5.81a23.31,23.31,0,0,1,8.81-1.72,44.24,44.24,0,0,1,4.46,0,28,28,0,0,1,4.63.64A31.13,31.13,0,0,1,83.17,92a20.89,20.89,0,0,1,2.59,1.3,1.94,1.94,0,0,1,1,1.34A1.5,1.5,0,0,1,86.22,96a1.43,1.43,0,0,1-1.72,0,1.07,1.07,0,0,1-.16-.14l-.09-.09-.45-.26A34,34,0,0,0,80,93.93l.18.06c-1.21-.4-2.44-.71-3.68-1h0A30.84,30.84,0,0,0,73,92.49a44.7,44.7,0,0,0-5.67,0,31.17,31.17,0,0,0-3.47.37,20.88,20.88,0,0,0-2.06.56,14.81,14.81,0,0,0-1.51.6l-.31.19a8.27,8.27,0,0,0-.66.51l-.24.24c-.1.12-.2.25-.29.38s-.1.16-.15.24a2.44,2.44,0,0,0-.1.24,2.58,2.58,0,0,0-.08.26,1.23,1.23,0,0,0,0,.19c0,.06,0,.13,0,.19l0,.17a1,1,0,0,0,0,.17,2.72,2.72,0,0,0,.11.25,2,2,0,0,0,.14.25c.09.13.19.25.29.37l.38.38c.14.12.28.23.41.36A1.46,1.46,0,0,1,60,100.3a1.44,1.44,0,0,1-1.14.56A1.53,1.53,0,0,1,58.1,100.66Z" fill="#110802"/>
          <path d="M56.06,103.07a2.6,2.6,0,0,1-1.19-.46,2,2,0,0,1-.75-1.38,6.86,6.86,0,0,1,.14-1.75c.11-.82.23-1.64.35-2.47s.17-1.89.92-2.39a1.43,1.43,0,0,1,2,.28,1.41,1.41,0,0,1,.09,1.56v0h0c-.16.87-.25,1.74-.36,2.62-.06.44-.13.89-.17,1.33a1.49,1.49,0,0,1,.63,1.42,1.45,1.45,0,0,1-1.43,1.22Z" fill="#110802"/>
          <path d="M71.69,90.91h0l.1.07a3.76,3.76,0,0,1-.64-.62,2.32,2.32,0,0,1-.52-1.83,3.81,3.81,0,0,1,.44-1.16,5,5,0,0,1,.47-.73,6.11,6.11,0,0,1,1.61-1.43,16.9,16.9,0,0,1,3.49-1.65,16.27,16.27,0,0,1,3.89-.89A38.27,38.27,0,0,1,86,82.39a15.59,15.59,0,0,1,3.12.4,1.42,1.42,0,0,1-.58,2.78c-.61-.11-1.24-.17-1.85-.23h-.1a25.8,25.8,0,0,0-3.29,0,28.77,28.77,0,0,0-3.72.39,16.48,16.48,0,0,0-1.67.45,22,22,0,0,0-2.2.89,11.4,11.4,0,0,0-1.22.71l.15-.1a6.12,6.12,0,0,0-.5.39l-.21.2-.14.18c-.07.11-.13.22-.19.33l.19.27a1.44,1.44,0,0,1-.23,1.72,1.4,1.4,0,0,1-1,.41A1.36,1.36,0,0,1,71.69,90.91Z" fill="#110802"/>
          <path d="M49,107.91l-.68-.41a5.07,5.07,0,0,1-1-.82,6.49,6.49,0,0,1-1.26-2.43,7.4,7.4,0,0,1,.07-3.53,11.13,11.13,0,0,1,.63-2.11c.29-.67.62-1.33,1-2A18.47,18.47,0,0,1,50,93.42l.23-.27h0a35.74,35.74,0,0,1,3-3c1.09-1,2.19-1.93,3.37-2.81s2.1-1.62,3.2-2.37,2.46-1.59,3.69-2.39c2.26-1.45,4.58-2.82,6.94-4.09a21.26,21.26,0,0,1,8-2.57,11.66,11.66,0,0,1,2.13,0h0a15.05,15.05,0,0,1,2.19.33c.79.19,1.56.42,2.34.66a29.07,29.07,0,0,1,4.54,1.68l0,0,.09,0h0l.09,0,.08,0h0A24.72,24.72,0,0,1,92.08,80h0A39.24,39.24,0,0,1,96.21,83a34.22,34.22,0,0,1,3,3.12c.91,1,1.74,2.16,2.57,3.28s1.76,2.26,2.61,3.42c.44.6.86,1.22,1.24,1.86s.71,1.28,1.06,1.92a10.25,10.25,0,0,1,1.3,2.76,2.51,2.51,0,0,1-.43,1.83,1.41,1.41,0,0,1-2.43-1.41h0s0,0,0,0c-.34-.66-.74-1.3-1.09-2s-.82-1.52-1.29-2.24c-.89-1.3-1.88-2.52-2.83-3.77s-1.94-2.61-3-3.84c-.81-.91-1.63-1.8-2.52-2.62l-.17-.14a42,42,0,0,0-3.68-2.71l0,0-.11-.07c-.64-.43-1.32-.83-2-1.2l.17.08c-.58-.29-1.16-.54-1.75-.77A44,44,0,0,0,81.84,79c-.45-.08-.92-.14-1.38-.18h-.09a10.9,10.9,0,0,0-1.28,0c-.6,0-1.21.13-1.81.24h-.17a19.82,19.82,0,0,0-2.13.6l.18-.06a24.26,24.26,0,0,0-2.43,1c-1.84,1-3.64,2-5.43,3.09-.89.52-1.75,1.08-2.61,1.63S62.86,86.47,62,87.07l.15-.11c-1,.7-2,1.45-3,2.19s-2,1.49-2.93,2.31l-.1.08A42.37,42.37,0,0,0,52.5,95l0,0s0,0,0,0a22.26,22.26,0,0,0-1.64,2.07c-.32.52-.62,1.06-.91,1.6a15.75,15.75,0,0,0-.64,1.46,8.17,8.17,0,0,0-.27,1,11.5,11.5,0,0,0-.2,1.31,3.65,3.65,0,0,0,0,.47l0,.3c0,.12.06.24.1.36s.16.39.25.57.14.25.21.38l.09.11.19.19c.29.24.59.44.86.68a1.47,1.47,0,0,1,.36,1.86,1.5,1.5,0,0,1-1.26.7A1.26,1.26,0,0,1,49,107.91Z" fill="#110802"/>
          <path d="M90.59,82.51l.1.07Z" fill="#110802"/>
          <path d="M38.52,111l-.5-.36a7.06,7.06,0,0,1-.89-.66,5.69,5.69,0,0,1-.6-.7,8.39,8.39,0,0,1-1.1-1.9,11.78,11.78,0,0,1-.62-2.42,7.1,7.1,0,0,1-.11-1.59,9.69,9.69,0,0,1,.22-1.4h0A27.58,27.58,0,0,1,36,97.82,19.25,19.25,0,0,1,38.18,94,23,23,0,0,1,41,90.73c1-1,2.11-2.09,3.24-3s2.23-1.8,3.35-2.7,2.36-1.8,3.58-2.66c2.3-1.6,4.59-3.2,6.76-5,1.29-1,2.59-2.1,3.85-3.17l1.53-1.36-.14.13c1.3-1.14,2.62-2.23,4-3.31a23.37,23.37,0,0,1,4-2.72,16.28,16.28,0,0,1,4.35-1.46A27.42,27.42,0,0,1,80.05,65a18.47,18.47,0,0,1,4.26.39c.75.15,1.5.31,2.25.49a20.66,20.66,0,0,1,2.19.7,31.36,31.36,0,0,1,7.74,4.34c1.13.82,2.22,1.7,3.28,2.6.6.5,1.18,1,1.72,1.56s.91,1,1.35,1.52l.94,1.09h0l.06.06h0l0,.06h0c.87,1,1.82,1.86,2.72,2.8s1.74,2.25,2.66,3.33a1.41,1.41,0,0,1-.63,2.57,1.56,1.56,0,0,1-1.15-.34,4.88,4.88,0,0,1-.74-.83c-.64-.8-1.24-1.63-1.9-2.41l-.09-.1c-.77-.83-1.59-1.58-2.37-2.4s-1.51-1.73-2.27-2.6l.12.14c-.07-.09-.15-.17-.22-.25a15.82,15.82,0,0,0-1.29-1.3c-.78-.68-1.57-1.35-2.38-2S94.45,73,93.47,72.33h0A35.14,35.14,0,0,0,90,70.27a25.41,25.41,0,0,0-2.64-1.11,21.42,21.42,0,0,0-2.46-.69H85l-.1,0H84.8l-.31-.07a28.2,28.2,0,0,0-2.9-.45,20.55,20.55,0,0,0-2.22,0,27.59,27.59,0,0,0-3.51.44c-.6.13-1.18.28-1.77.46s-.92.35-1.37.55h0l-.11,0a2.44,2.44,0,0,0-.28.14l.17-.09c-.5.27-1,.56-1.48.87-1,.68-1.93,1.43-2.86,2.19s-2,1.62-2.93,2.45l-.41.36.14-.13c-1.1,1-2.21,1.94-3.35,2.87S59.37,80,58.22,80.83c-2.26,1.74-4.64,3.32-6.95,5-1,.73-2,1.52-2.94,2.3s-1.9,1.51-2.82,2.3A51.51,51.51,0,0,0,41.8,94.1a23.09,23.09,0,0,0-1.42,1.84c-.48.74-.94,1.5-1.36,2.28-.14.32-.28.64-.4,1a30.47,30.47,0,0,0-.87,3.38c-.06.31-.12.61-.15.92v.31a9.47,9.47,0,0,0,.15,1c.08.36.16.73.27,1.09a6.44,6.44,0,0,0,.24.61c.11.2.22.4.35.59s.26.37.4.54l.17.17c.36.29.75.55,1.11.84a1.45,1.45,0,0,1,.25,2,1.41,1.41,0,0,1-1.14.55A1.45,1.45,0,0,1,38.52,111Z" fill="#110802"/>
          <path d="M112.28,121.57c-.78,0-1.56-.08-2.34-.16a5.31,5.31,0,0,1-1.63-.38,1.46,1.46,0,0,1,.78-2.78c.61.08,1.23.16,1.85.21,1.76.12,3.53.18,5.29.18h1.28c1.54,0,3.08,0,4.61-.08,1.08-.07,2.16-.2,3.24-.32s2.08-.24,3.11-.41l.17,0h0l.11,0h.05c.94-.19,1.87-.43,2.8-.68s1.86-.53,2.78-.83l.52-.17h0c.84-.3,1.65-.64,2.45-1a29.62,29.62,0,0,0,2.78-1.62,47,47,0,0,0,4-3,29.6,29.6,0,0,0,2.23-2.25c.54-.63,1-1.28,1.53-2,.34-.51.65-1,.95-1.58.35-.72.66-1.45.94-2.2a.31.31,0,0,0,0,.08l0-.09a32.86,32.86,0,0,0,.92-3.18c.09-.54.17-1.08.22-1.63s0-.82,0-1.24a17.59,17.59,0,0,0-.21-1.76,16.3,16.3,0,0,0-.45-1.66c-.25-.67-.54-1.33-.85-2s-.66-1.21-1-1.78c-.82-1.16-1.77-2.21-2.67-3.31s-1.85-2.32-2.77-3.5-1.74-2.25-2.63-3.38-1.75-2.18-2.58-3.3-1.5-2.14-2.25-3.2-1.48-2-2.29-3-1.72-1.92-2.61-2.86-1.88-1.86-2.87-2.75l.14.13-.21-.19a15,15,0,0,0-1.33-1c-.34-.22-.7-.42-1.07-.61-.52-.24-1-.46-1.59-.65h0l-.08,0h0a23.87,23.87,0,0,0-2.34-.65h0c-1.28-.25-2.57-.41-3.86-.56s-2.64-.4-4-.54a14.42,14.42,0,0,0-1.47,0,49,49,0,0,0-5.67.69h.07a42.8,42.8,0,0,0-4.86,1.26l.09,0a32.46,32.46,0,0,0-3,1.27c-1.12.56-2.17,1.18-3.24,1.82a35.65,35.65,0,0,1-3.55,1.92c-1.21.54-2.47,1-3.71,1.46-.4.14-.8.28-1.19.45a1.55,1.55,0,0,1-1.28,0l0,0h0l-.2-.12-.1-.07h0a1.41,1.41,0,0,1,.13-2.34h0l.16-.08.14,0,.75-.31L88.06,65c1.12-.44,2.23-.88,3.32-1.41,1.48-.77,2.87-1.7,4.33-2.5a30.93,30.93,0,0,1,5.37-2.36l-.18.06a35.93,35.93,0,0,1,4.34-1.13,45.12,45.12,0,0,1,4.62-.68,19.79,19.79,0,0,1,4.55-.07l2.25.32c.75.11,1.5.18,2.25.27A23,23,0,0,1,127.29,60a19.13,19.13,0,0,1,3.47,2.76c1.09,1,2.09,2.08,3.09,3.17s2,2.14,2.85,3.3,1.67,2.37,2.5,3.56,1.66,2.22,2.52,3.31,1.8,2.29,2.69,3.44,1.78,2.29,2.68,3.43,1.87,2.18,2.76,3.31a20,20,0,0,1,2.49,4.1A16.17,16.17,0,0,1,153.7,95a15.34,15.34,0,0,1,.11,2.44,17.76,17.76,0,0,1-.27,2.31,23.28,23.28,0,0,1-.61,2.32,22.6,22.6,0,0,1-.77,2.23,19,19,0,0,1-2.33,4.2,25.62,25.62,0,0,1-3.25,3.65,41.09,41.09,0,0,1-5.06,3.94,24.53,24.53,0,0,1-5.73,2.85l.19-.07a45,45,0,0,1-9,2.23c-1.51.18-3,.38-4.53.49s-2.93.09-4.39.09H116.9C115.36,121.67,113.82,121.64,112.28,121.57Z" fill="#110802"/>
          <path d="M123.51,61.48h0Z" fill="#110802"/>
          <path d="M123.5,61.48h0Z" fill="#110802"/>
          <path d="M37.56,58.15c-.7,0-1.4,0-2.1,0a29,29,0,0,1-4.36-.5,16.51,16.51,0,0,1-4.21-1.44,7.42,7.42,0,0,1-2.39-1.81,4.52,4.52,0,0,1-1.15-2.89c0-2,1.59-3.46,3.09-4.48a15.25,15.25,0,0,1,4-2,19.11,19.11,0,0,1,4.42-1,33.33,33.33,0,0,1,4.47-.09c1.52.06,3,.18,4.55.38a34.09,34.09,0,0,1,5.75,1.17,8.91,8.91,0,0,1,2.65,1.19,2.32,2.32,0,0,1,.67.83,1.32,1.32,0,0,1,.72.62,5.62,5.62,0,0,1,.61,1.91,5.86,5.86,0,0,1,0,.94A3.2,3.2,0,0,1,54.07,52,6.28,6.28,0,0,1,52,54.6a11.62,11.62,0,0,1-4,2,32.47,32.47,0,0,1-4.33,1,36,36,0,0,1-4.13.46c-.42,0-.84,0-1.26,0Zm2.17-3a39.68,39.68,0,0,0,4.19-.54,32.05,32.05,0,0,0,3.85-1c.3-.11.59-.23.88-.37a9.35,9.35,0,0,0,1-.54c.27-.19.53-.38.78-.59s.31-.29.45-.45a3.15,3.15,0,0,0,.22-.29,1.88,1.88,0,0,0,.14-.24,1,1,0,0,0,.07-.15l0-.12a1.62,1.62,0,0,0,0-.22c0-.2-.06-.41-.09-.61s-.09-.35-.14-.52a1.35,1.35,0,0,1-.49-.4,1.28,1.28,0,0,1-.15-.25l-.15-.08c-.36-.16-.72-.31-1.08-.44a24,24,0,0,0-2.35-.64,49.64,49.64,0,0,0-6.08-.83H41a44.48,44.48,0,0,0-4.9-.07,22.45,22.45,0,0,0-2.31.3,22.36,22.36,0,0,0-2.17.59c-.6.21-1.19.44-1.77.7s-1.17.66-1.73,1l-.05,0a9.5,9.5,0,0,0-.8.62,4.78,4.78,0,0,0-.39.39c-.11.13-.21.26-.31.4s-.1.16-.14.24l0,.08s0,.11,0,.16l0,.16v.11c0,.07,0,.15.07.23l.05.12c0,.08.09.16.14.24s.2.25.3.38a3.45,3.45,0,0,0,.28.26,4,4,0,0,0,.34.27l.72.4a13,13,0,0,0,1.44.62c.65.21,1.29.4,2,.55a28.69,28.69,0,0,0,3.32.42h-.2A41.88,41.88,0,0,0,39.73,55.11Z" fill="#110802"/>
          <path d="M76.19,41.32h0a40.28,40.28,0,0,1-4.9-.77h0l-.16,0h0l-.08,0h0a27.27,27.27,0,0,1-4.22-1.35A11.09,11.09,0,0,1,63,37a5.56,5.56,0,0,1-1.45-2.07,4.4,4.4,0,0,1-.28-1.57,4.25,4.25,0,0,1,.26-1.47,5.29,5.29,0,0,1,1.5-2,18.47,18.47,0,0,1,1.68-1.36,16.74,16.74,0,0,1,1.91-1.16,17.27,17.27,0,0,1,1.94-.81h0l0,0h0a21.45,21.45,0,0,1,3.8-.82c1.38-.18,2.76-.27,4.14-.35h-.19a34.7,34.7,0,0,1,7.05.36,21.74,21.74,0,0,1,3.55.82,6,6,0,0,1,1.6.74,2.37,2.37,0,0,1,.29.25,1.63,1.63,0,0,1,.64.19A6.43,6.43,0,0,1,92.68,31,6,6,0,0,1,93,35a8,8,0,0,1-2.8,3.44,12.08,12.08,0,0,1-3.76,2,22.8,22.8,0,0,1-4.91.95,20.91,20.91,0,0,1-2.37.13C78.14,41.46,77.17,41.4,76.19,41.32Zm4-2.88A34.53,34.53,0,0,0,83.75,38a16.08,16.08,0,0,0,1.69-.43h0c.52-.19,1-.39,1.54-.62a8.77,8.77,0,0,0,.84-.49,13,13,0,0,0,1.09-.83c.27-.25.53-.5.78-.77.06-.07.12-.16.18-.24s.15-.23.21-.34l.08-.2.06-.22,0-.18a1.93,1.93,0,0,0,0-.34,4.36,4.36,0,0,0-.06-.49,4.84,4.84,0,0,0-.14-.51,4.22,4.22,0,0,0-.18-.45,1.28,1.28,0,0,0-.11-.2l-.2-.26-.24-.24c-.26-.22-.53-.42-.81-.62L88,30.25l-.07-.05a1.48,1.48,0,0,1-.92-.48h0v0l0,0-.14-.08-.47-.19c-.6-.2-1.21-.37-1.84-.52a33.47,33.47,0,0,0-4-.56,37,37,0,0,0-3.94,0h-.29l-.19,0h.13a42.75,42.75,0,0,0-4.93.57c-.59.12-1.15.27-1.72.44h0c-.47.16-.92.36-1.37.56s-1.06.6-1.57.93-.91.68-1.34,1.05l.07-.07-.1.1c-.23.2-.44.4-.64.61l-.18.24,0,0-.07.16c0,.12,0,.25,0,.38s0,.15,0,.22l.07.25.12.27a.75.75,0,0,1,.07.12,3.11,3.11,0,0,0,.23.28l.34.36.55.44c.23.15.46.29.71.42,1.14.55,2.35,1,3.55,1.42L69.65,37a18.28,18.28,0,0,0,2.08.58h0a43.2,43.2,0,0,0,5.3.81l-.2,0A30.26,30.26,0,0,0,80.23,38.44Z" fill="#110802"/>
          <path d="M22.81,59.83a4.42,4.42,0,0,1-.55-2.28,20.28,20.28,0,0,1,.09-2.06c.07-.92.17-1.85.33-2.76.1-.54.22-1.07.3-1.62l0-.18a1.28,1.28,0,0,1,.21-.53,1.1,1.1,0,0,1,.19-.25v0a1.4,1.4,0,0,1,2.26.35l0-.08a1.09,1.09,0,0,1,.13.34.08.08,0,0,0,0,0s0,.06,0,.08v0l0,.15a1.55,1.55,0,0,1,0,.22,7.26,7.26,0,0,1-.22,1.42,31.29,31.29,0,0,0-.42,3.19v0a17.66,17.66,0,0,0-.05,2.06c0,.12,0,.24.05.36v0l0,.08.05.1a1.43,1.43,0,0,1-.51,1.93,1.39,1.39,0,0,1-.7.19A1.47,1.47,0,0,1,22.81,59.83Z" fill="#110802"/>
          <path d="M33.06,63.46l-.6-.14.12,0c-1-.21-2-.32-3-.54l-1.35-.33c-.54-.13-1.08-.25-1.61-.41a17.26,17.26,0,0,1-2-.76,2.32,2.32,0,0,1-1.17-.84,1.42,1.42,0,0,1,.31-1.9,1.44,1.44,0,0,1,1.79.06,16,16,0,0,0,1.49.6,13.56,13.56,0,0,0,1.66.45c.51.12,1,.26,1.53.37s1.08.2,1.63.29,1.32.25,2,.39a1.43,1.43,0,0,1,1,1.75,1.41,1.41,0,0,1-1.38,1A2.2,2.2,0,0,1,33.06,63.46Z" fill="#110802"/>
          <path d="M41.26,63.21h0l-.12,0,.11,0c-.42,0-.84,0-1.26-.07h-.13a1.41,1.41,0,0,1,.4-2.8H40c.9,0,1.8.12,2.7.2.37,0,.74,0,1.11,0,.62-.05,1.24-.12,1.85-.23h0a17,17,0,0,0,2.12-.56c.28-.09.56-.2.84-.31A1.41,1.41,0,0,1,49.73,62a19.53,19.53,0,0,1-4.1,1.15,17.21,17.21,0,0,1-2.26.18h-.11A19,19,0,0,1,41.26,63.21Z" fill="#110802"/>
          <path d="M51,84.25a1.44,1.44,0,0,1-1.23-1.43c0-1.89.1-3.78.16-5.67.05-1.26.21-2.52.32-3.78s.21-2.66.41-4c.26-1.71.48-3.41.62-5.13.07-.81.15-1.63.25-2.45,0-.48.12-1,.16-1.46v0c0-.05,0-.09,0-.14a0,0,0,0,0,0,0,59.44,59.44,0,0,0,0-7.31c0-.59-.09-1.19-.19-1.78A1.39,1.39,0,0,1,51.36,50a1.37,1.37,0,0,1,.82-.93,1.52,1.52,0,0,1,1.29.1,1.23,1.23,0,0,1,.34.26,2.34,2.34,0,0,1,.52,1.23,20.3,20.3,0,0,1,.22,2.19c.1,1.59.14,3.19.15,4.79,0,.73,0,1.46-.06,2.18s-.14,1.68-.23,2.52c-.13,1.12-.21,2.25-.32,3.37s-.28,2.37-.45,3.55c-.32,2.22-.5,4.45-.69,6.68-.11,1.49-.13,3-.17,4.47,0,.52,0,1,0,1.54a5,5,0,0,1-.13,1.28,1.46,1.46,0,0,1-1.38,1A.62.62,0,0,1,51,84.25Z" fill="#110802"/>
          <path d="M23,100a1.45,1.45,0,0,1-1.41-1.45c0-.9,0-1.8,0-2.71s.05-2.09.08-3.13c.08-2.43.28-4.85.35-7.27,0-1.3,0-2.59.05-3.88s.1-2.57.15-3.85.11-2.51.1-3.76-.09-2.44-.11-3.67-.06-2.32-.06-3.49,0-2.07,0-3.11c0-.8.06-1.6.1-2.39,0-.26,0-.51.05-.76a2,2,0,0,1,.23-1,1.3,1.3,0,0,1-.08.17.43.43,0,0,0,0,.05.14.14,0,0,1,0-.06.29.29,0,0,0,0,.09,1.35,1.35,0,0,1,1.13-.93A1.4,1.4,0,0,1,25.18,60a.17.17,0,0,1,0,.07v0a1.09,1.09,0,0,1,0,.18h0c0,.1,0,.2,0,.3h0s0,.07,0,.11l0-.09c-.05.72-.08,1.44-.11,2.16-.05,1,0,1.92,0,2.89,0,.68,0,1.36,0,2s0,1.29,0,1.93,0,1.28,0,1.91.07,1.21.08,1.82c.07,2.53-.12,5.06-.21,7.58-.05,1.3,0,2.58-.06,3.87s-.07,2.38-.14,3.57q-.18,3-.26,6c0,1.42-.1,2.86-.09,4.29A1.45,1.45,0,0,1,23,100Z" fill="#110802"/>
          <path d="M36.14,70.33h0a32.15,32.15,0,0,1-3.91-.5h0l-.65-.14.12,0c-.33-.07-.66-.14-1-.19h-.2a1.41,1.41,0,0,1,0-2.82,14.31,14.31,0,0,1,2.24.36l.17,0-.18,0a27.63,27.63,0,0,0,3.51.46h0a25.16,25.16,0,0,0,3.25,0c.76,0,1.51-.14,2.26-.24a1.41,1.41,0,1,1,.36,2.8c-1,.13-2.08.24-3.14.28l-.81,0C37.51,70.42,36.82,70.39,36.14,70.33Z" fill="#110802"/>
          <path d="M26.41,76.53c-.47-.09-.94-.24-1.41-.34a1.41,1.41,0,0,1,.15-2.82,2.67,2.67,0,0,1,.64.1l1,.26.14,0a3.08,3.08,0,0,0-.07.68,3.31,3.31,0,0,0,1,2.29C27.38,76.68,26.9,76.62,26.41,76.53Z" fill="#110802"/>
          <path d="M28.39,91.6A29.35,29.35,0,0,1,24.56,91l-.1,0a1.41,1.41,0,0,1,.4-2.79c.41.07.81.17,1.21.26.92.17,1.87.29,2.8.38a32,32,0,0,0,3.53,0l.93-.06a1.41,1.41,0,1,1,.36,2.79c-1.14.08-2.27.15-3.41.15C29.65,91.67,29,91.66,28.39,91.6Z" fill="#110802"/>
          <path d="M31.49,103.52c-.75,0-1.49-.11-2.23-.23a15.75,15.75,0,0,1-2.05-.51c-.63-.2-1.25-.37-1.86-.58a13.88,13.88,0,0,1-1.75-.81c-.45-.25-.85-.59-1.28-.88l.12.08a2,2,0,0,1-.9-1.1,1.57,1.57,0,0,1,0-1.07s0,0,0,.07a1.39,1.39,0,0,1,1.33-.93,1.44,1.44,0,0,1,1.23.74l.58.39a4.25,4.25,0,0,0,.46.27h0a9.64,9.64,0,0,0,1.18.53l-.13,0,.14,0h0c.51.17,1,.3,1.54.47s.87.26,1.31.35a17.65,17.65,0,0,0,1.9.25h0a21,21,0,0,0,2.51.08c.52,0,1-.12,1.56-.18a1.45,1.45,0,0,1,.55,2.83,11.78,11.78,0,0,1-2.3.3h-.26C32.61,103.6,32.05,103.55,31.49,103.52Z" fill="#110802"/>
          <path d="M65.06,44.63A8.25,8.25,0,0,1,63.13,44a4.7,4.7,0,0,1-.64-.46l0,0h0a.08.08,0,0,0,0,0s0,0-.06-.05l.06,0a7.72,7.72,0,0,1-.68-.72h0A2.74,2.74,0,0,1,61,41.37a8.27,8.27,0,0,1,0-1c0-.49-.12-1-.16-1.45-.06-.72-.07-1.43-.08-2.15s-.06-1.43-.06-2.15A3.89,3.89,0,0,1,60.81,33l0,.06a1.44,1.44,0,0,1,1.5-.85,1.45,1.45,0,0,1,1,.72,2,2,0,0,1,.16,1.17c0,.44,0,.89,0,1.34,0,1,0,1.93.09,2.89,0-.07,0-.13,0-.2,0,.42.07.84.12,1.26s.09.92.12,1.38c.11.13.22.27.34.4l-.08-.09.26.27.22.16,0,0,.15.06,1.1.31a1.42,1.42,0,0,1-.4,2.79A1.49,1.49,0,0,1,65.06,44.63Z" fill="#110802"/>
          <path d="M62.48,43.52h0Z" fill="#110802"/>
          <path d="M62.46,43.51h0Z" fill="#110802"/>
          <path d="M80.53,46.56c-1,0-2.06-.06-3.09-.14A5.42,5.42,0,0,1,76,46.11h0a1.41,1.41,0,0,1,.86-2.68l.14,0,.17,0,.62.09h.13c.73,0,1.46.07,2.2.1s1.68.06,2.52,0a20.07,20.07,0,0,0,2.44-.3c.51-.1,1-.22,1.51-.34a1.41,1.41,0,1,1,.73,2.73,27.23,27.23,0,0,1-3.38.64,22.52,22.52,0,0,1-2.32.11Z" fill="#110802"/>
          <path d="M89.86,65.05a17.45,17.45,0,0,1,0-3c0-.86.06-1.72.11-2.57s.15-1.77.22-2.65c0,.06,0,.13,0,.19.18-2.47.23-4.95.37-7.42.11-1.81.23-3.63.28-5.44s.08-3.67.16-5.5c0-.86,0-1.72,0-2.59a5.84,5.84,0,0,1,.06-1.18,1.41,1.41,0,0,1,1.4-1.18,1.39,1.39,0,0,1,1.35,1.07v0a1.26,1.26,0,0,1,0,.33v0a.25.25,0,0,1,0,.09v0h0c0,.58,0,1.16,0,1.74,0,1.15,0,2.3,0,3.45-.06,1.82-.08,3.63-.17,5.44-.1,2.06-.22,4.12-.32,6.17-.06,1.14-.11,2.28-.16,3.41s-.15,2.42-.25,3.63a.08.08,0,0,0,0,0c-.09,1.22-.11,2.45-.15,3.68,0,.64-.06,1.27,0,1.91a1.62,1.62,0,0,1,0,.22,1.45,1.45,0,0,1-1.27,1.42l-.18,0A1.46,1.46,0,0,1,89.86,65.05Z" fill="#110802"/>
          <path d="M63.07,75.13a1.46,1.46,0,0,1-1.42-1.45c0-1.12,0-2.24,0-3.37-.06-1.33-.1-2.66-.18-4,0-.07,0-.15,0-.22-.21-3.28-.53-6.55-.73-9.83-.17-2.82-.22-5.66-.16-8.49,0-1.36.06-2.72,0-4.08,0-.67,0-1.34,0-2a3.58,3.58,0,0,1,.05-.67v0h0a1.42,1.42,0,0,1,1.6-1.19,1.37,1.37,0,0,1,1.08.84.76.76,0,0,1-.06-.16,1.91,1.91,0,0,1,.18,1.08c0,.61,0,1.22,0,1.83,0,1.36,0,2.71,0,4.06q-.09,4.19.15,8.37c.18,2.78.42,5.57.64,8.35.11,1.51.18,3,.25,4.52,0,1.28.11,2.56.1,3.84,0,.44,0,.88,0,1.32a1.43,1.43,0,0,1-1.43,1.23Z" fill="#110802"/>
          <path d="M73.57,52.07a29.52,29.52,0,0,1-3-.14c-.84-.11-1.67-.25-2.51-.38a18.18,18.18,0,0,1-2.08-.4,2.65,2.65,0,0,1-1.29-.76,1.43,1.43,0,0,1,0-1.93,1.45,1.45,0,0,1,2-.05l.23.06c.75.16,1.51.28,2.27.39s1.5.25,2.25.32,1.42,0,2.13.07a1.41,1.41,0,0,1,0,2.82Z" fill="#110802"/>
          <path d="M71.22,61.84a23.17,23.17,0,0,1-2.88-.26c-1.44-.21-2.88-.45-4.31-.71a1.41,1.41,0,1,1,.4-2.79c2,.3,4,.72,6,.89a37.82,37.82,0,0,0,3.84,0,1.41,1.41,0,1,1,0,2.82c-.82,0-1.65.07-2.48.07Z" fill="#110802"/>
          <path d="M80,60.94a1.4,1.4,0,0,1,.41-1,1.43,1.43,0,0,1,.9-.4c.59,0,1.18,0,1.77-.06a16.74,16.74,0,0,0,2-.29c.41-.07.83-.16,1.25-.25a1.41,1.41,0,0,1,.73,2.72c-1,.22-2,.42-3,.56-.84.11-1.7.08-2.55.12h.19l-.3,0h-.07A1.42,1.42,0,0,1,80,60.94Z" fill="#110802"/>
          <path d="M34.53,77.63c-1.29-.06-2.58-.09-3.86-.19a14,14,0,0,1-4.21-.79c-.25-.1-.49-.21-.73-.33l-.38-.2L25.11,76h0a.41.41,0,0,0,.16,0h0l.18,0A1.44,1.44,0,0,1,24,74.62a1.42,1.42,0,0,1,1.43-1.39,3.89,3.89,0,0,1,1.5.52c.27.13.54.25.82.36s.46.14.69.19a21.93,21.93,0,0,0,2.42.31H30.8c1.25.09,2.51.11,3.76.2a1.46,1.46,0,0,1,1,.42,1.42,1.42,0,0,1,.42,1,1.45,1.45,0,0,1-1.38,1.41Z" fill="#110802"/>
          <path d="M37.75,84.22c-1,0-2-.11-3-.22q-.43,0-.87-.12c-.17,0-.34-.07-.52-.09a1.34,1.34,0,0,1-.51-.11h0A1.45,1.45,0,0,1,32,82.36a1.43,1.43,0,0,1,.9-1.29h0l.19-.06.16,0h.31c.41,0,.79.12,1.19.17.6.07,1.2.13,1.81.17a29.5,29.5,0,0,0,3.52.06c1.4-.1,2.78-.31,4.16-.53a1.41,1.41,0,0,1,.36,2.8,34.76,34.76,0,0,1-5.93.6Z" fill="#110802"/>
          <path d="M33.24,81h0Z" fill="#110802"/>
          <path d="M102,95.59a16.24,16.24,0,0,1-3.64-.81c-.76-.23-1.51-.48-2.24-.77s-1.32-.59-2-.91-1.41-.75-2.1-1.17a19.58,19.58,0,0,1-2.36-1.6,10.66,10.66,0,0,1-2-2.14A3.14,3.14,0,0,1,87,86.85a2.59,2.59,0,0,1,.3-1.47,17.66,17.66,0,0,1,1.6-2.44,8.89,8.89,0,0,1,1-1.16A1.55,1.55,0,0,1,91,81.3a1.42,1.42,0,0,1,1.4,1.43,1.69,1.69,0,0,1-.59,1.18,19.26,19.26,0,0,0-1.27,1.7h0c-.2.3-.4.6-.57.92l.33.43a12.6,12.6,0,0,0,.9.89q.5.41,1,.78a26.53,26.53,0,0,0,3,1.77l-.17-.08A28,28,0,0,0,98,91.62h0c.59.2,1.19.38,1.79.56s1,.29,1.46.4l1,.17A1.44,1.44,0,0,1,102,95.6Z" fill="#110802"/>
          <path d="M93.94,86.69c-.46-.25-.9-.54-1.34-.83a7.48,7.48,0,0,1-.71-.5c-.14-.11-.27-.23-.4-.35a1.43,1.43,0,0,1-1-.84,1.41,1.41,0,0,1,.44-1.67,1.63,1.63,0,0,1,.5-.24l-.12,0a1.7,1.7,0,0,1,1.31,0,3.74,3.74,0,0,1,.9.68l.36.28h0l0,0h0l0,0,0,0h0c.47.31.94.63,1.44.91a1.42,1.42,0,0,1,.5,1.93,1.4,1.4,0,0,1-1.21.69A1.47,1.47,0,0,1,93.94,86.69Z" fill="#110802"/>
          <path d="M31.11,100.56h0a18,18,0,0,1-1.9-.25c-.43-.09-.87-.22-1.3-.35s-1-.3-1.55-.47h-.08c-.38-.15-.74-.32-1.11-.51h0a4.39,4.39,0,0,1-.47-.27l-.24-.16c0-1.43.06-2.86.1-4.27,0-1.09.06-2.17.11-3.25a27.54,27.54,0,0,0,3.71.59c.64.05,1.27.07,1.89.07,1.14,0,2.27-.07,3.41-.15a1.41,1.41,0,1,0-.36-2.79l-.93.06a32,32,0,0,1-3.53,0c-.93-.09-1.87-.21-2.8-.38-.4-.09-.8-.19-1.21-.26h0c.06-1.14.11-2.29.13-3.44s0-2.58.06-3.87c.06-1.54.15-3.08.2-4.62l.75.19a5.27,5.27,0,0,0,.49.22,14,14,0,0,0,4.21.8c1.29.09,2.58.13,3.86.19h0a1.42,1.42,0,0,0,1-2.42,1.51,1.51,0,0,0-1-.42c-1.25-.09-2.51-.11-3.76-.2a18.49,18.49,0,0,1-2.34-.3,5.27,5.27,0,0,1-.68-.19c-.28-.11-.56-.23-.83-.36a3.89,3.89,0,0,0-1.5-.52h-.22c0-.6-.05-1.19-.07-1.78s0-1.27,0-1.91,0-1.29-.05-1.93,0-1.36,0-2c0-1-.05-1.93,0-2.89,0-.38,0-.77.05-1.16a13.37,13.37,0,0,0,1.45.54c.53.16,1.07.28,1.61.41l1.35.33c1,.22,2,.34,3,.54l.48.11a2.2,2.2,0,0,0,.36,0,1.39,1.39,0,0,0,1.38-1,1.42,1.42,0,0,0-1-1.74c-.66-.15-1.31-.3-2-.4s-1.08-.17-1.63-.28-1-.26-1.53-.37A15.63,15.63,0,0,1,27,59.24a16.06,16.06,0,0,1-1.49-.61,2.2,2.2,0,0,0-.25-.17s0,0,0-.06l-.06-.09,0-.08v0c0-.12,0-.24-.05-.36a15.7,15.7,0,0,1,.06-2.06c0-.23,0-.45.06-.68a8.23,8.23,0,0,0,1.65,1.08A16.64,16.64,0,0,0,31.1,57.6a29,29,0,0,0,4.36.5c.7,0,1.4,0,2.1,0h.76c.41,0,.83,0,1.25,0a35.73,35.73,0,0,0,4.13-.46,34.66,34.66,0,0,0,4.34-1,11.92,11.92,0,0,0,3.75-1.84,49.71,49.71,0,0,1,0,5.46.06.06,0,0,0,0,0,.59.59,0,0,1,0,.14v0c0,.49-.11,1-.16,1.47-.1.81-.17,1.63-.24,2.45C51.18,66,51,67.7,50.7,69.4c-.2,1.32-.29,2.64-.41,4S50,75.89,50,77.15c-.07,1.9-.12,3.79-.16,5.68a1.1,1.1,0,0,0,0,.4c-.79.57-1.57,1.16-2.33,1.76-1.12.9-2.26,1.78-3.35,2.7s-2.2,2-3.24,3A23,23,0,0,0,38.18,94,19.25,19.25,0,0,0,36,97.82a21.28,21.28,0,0,0-.78,2.65h-.07c-.52.06-1,.15-1.55.18l-.54,0C32.43,100.67,31.77,100.61,31.11,100.56Zm2-19.54-.16,0a1.4,1.4,0,0,0,0,2.61,1.22,1.22,0,0,0,.5.11,4.76,4.76,0,0,1,.52.1c.28,0,.57.08.87.11,1,.11,2,.18,3,.22l.93,0a35.78,35.78,0,0,0,5.92-.59,1.42,1.42,0,0,0-.35-2.81c-1.39.23-2.77.43-4.17.53a29.54,29.54,0,0,1-3.52-.05c-.6,0-1.2-.1-1.8-.18-.4,0-.79-.14-1.2-.16h-.31Zm-4-12.92a1.42,1.42,0,0,0,1.39,1.42h.2c.34,0,.67.12,1,.19l.52.11a32.15,32.15,0,0,0,3.91.5h0c.68.06,1.37.09,2.06.09l.81,0c1.05,0,2.09-.15,3.13-.28a1.43,1.43,0,0,0,1.22-1.58,1.42,1.42,0,0,0-1.58-1.22c-.75.1-1.5.19-2.26.24a25.18,25.18,0,0,1-3.25,0h-.14a27.43,27.43,0,0,1-3.38-.45,13.11,13.11,0,0,0-2.23-.36h0A1.43,1.43,0,0,0,29.09,68.1Zm9.53-6.57a1.43,1.43,0,0,0,1.2,1.6H40c.4,0,.81,0,1.21.06h.1a19.23,19.23,0,0,0,2,.17h.1a17.21,17.21,0,0,0,2.26-.18A19.53,19.53,0,0,0,49.73,62a1.41,1.41,0,0,0-1.08-2.61c-.28.11-.56.22-.84.31a19.28,19.28,0,0,1-2.11.56c-.62.11-1.24.18-1.86.23-.37,0-.74,0-1.11,0-.9-.08-1.8-.2-2.7-.2h0A1.42,1.42,0,0,0,38.62,61.53Z" fill="#ffca11"/>
          <path d="M77,38.38h-.1a43.21,43.21,0,0,1-5.2-.79h0A18,18,0,0,1,69.67,37h0c-1.14-.41-2.29-.83-3.38-1.35-.24-.14-.47-.27-.7-.42s-.37-.29-.55-.44l-.35-.36a3,3,0,0,1-.22-.28s0-.08-.07-.12l-.11-.27a1.17,1.17,0,0,1-.07-.25v-.23c0-.12,0-.25,0-.37s0-.11.07-.16l0,0,.18-.23a7.52,7.52,0,0,1,.64-.62l0,0,0,0a16,16,0,0,1,1.31-1c.52-.33,1-.65,1.58-.93a13.57,13.57,0,0,1,1.37-.56l0,0h0c.57-.17,1.13-.31,1.72-.44a42.48,42.48,0,0,1,4.9-.56h.39c1.31-.06,2.61,0,3.93,0a36,36,0,0,1,4,.57,16.92,16.92,0,0,1,1.85.52l.46.19.14.08,0,0a0,0,0,0,1,0,0h0a1.52,1.52,0,0,0,.92.49l.07.05.52.33c.28.19.55.4.82.61l.23.25.2.25a2.12,2.12,0,0,1,.11.21,3.52,3.52,0,0,1,.18.45,4.25,4.25,0,0,1,.14.51c0,.16,0,.32.07.49v.33a1.62,1.62,0,0,0,0,.19l-.06.22a1.54,1.54,0,0,1-.08.19l-.21.35-.19.24a9.2,9.2,0,0,1-.77.76,12.49,12.49,0,0,1-1.08.84c-.28.17-.56.34-.85.49-.49.22-1,.42-1.51.61h0a16.37,16.37,0,0,1-1.67.43,34.51,34.51,0,0,1-3.52.43c-.36,0-.71,0-1.07,0C78.44,38.46,77.72,38.43,77,38.38Z" fill="#ffca11"/>
          <path d="M34.92,55.06a28.69,28.69,0,0,1-3.32-.42,19.36,19.36,0,0,1-1.94-.55,12.25,12.25,0,0,1-1.44-.62c-.25-.13-.49-.26-.72-.4a4.11,4.11,0,0,1-.35-.27l-.28-.26-.3-.38-.14-.24-.05-.12-.06-.23a0,0,0,0,0,0,0s0,0,0-.08a1,1,0,0,1,0-.16s0-.11.05-.16l0-.08.14-.24c.1-.14.2-.27.31-.4s.26-.27.39-.39a9.65,9.65,0,0,1,.81-.62.1.1,0,0,1,.05,0c.56-.36,1.13-.71,1.72-1s1.18-.49,1.77-.7,1.44-.43,2.17-.59a22.64,22.64,0,0,1,2.32-.3,43.69,43.69,0,0,1,4.72.06,49.48,49.48,0,0,1,6.07.83,23.81,23.81,0,0,1,2.34.64c.36.13.72.28,1.08.44l.16.08a1.23,1.23,0,0,0,.14.25,1.39,1.39,0,0,0,.5.4c0,.17.09.34.13.52s0,.27.07.4h0a1.06,1.06,0,0,0,0,.25v.17a.56.56,0,0,1,0,.12l-.06.15-.14.24a3.25,3.25,0,0,1-.23.29,4.78,4.78,0,0,1-.45.45c-.25.21-.51.4-.78.59a9.2,9.2,0,0,1-1,.54c-.29.14-.59.26-.89.37a32.05,32.05,0,0,1-3.85,1,39,39,0,0,1-4.19.54c-.63,0-1.27,0-1.91,0C36.85,55.16,35.88,55.12,34.92,55.06Z" fill="#ffca11"/>
          <path d="M39.56,121.33c-1.26,0-2.5,0-3.76-.13h-.17a41.86,41.86,0,0,1-4.73-.59c-.37-.09-.74-.19-1.11-.31-.58-.22-1.15-.46-1.72-.74l-.53-.31-.43-.33-.14-.15-.29-.39s-.05-.09-.08-.14l0-.06a.43.43,0,0,1,0,0h0V118a1.1,1.1,0,0,1,0-.18c0-.08.05-.16.07-.23a.61.61,0,0,1,.05-.12c.06-.11.12-.22.19-.33l.28-.36q.13-.15.3-.3a10.56,10.56,0,0,1,1-.75,17.36,17.36,0,0,1,1.6-1,16.24,16.24,0,0,1,2-.79l0,0h0a25.67,25.67,0,0,1,3.13-.81,38.54,38.54,0,0,1,3.87-.46,35.56,35.56,0,0,1,4.38,0c.89.09,1.76.23,2.64.4a31.41,31.41,0,0,1,3.43.89c.81.31,1.61.67,2.39,1.05.42.22.82.45,1.21.7s.59.43.87.66.39.37.58.58l.14.18a.08.08,0,0,1,0,0l.06.13-.05,0c-.12.13-.25.26-.38.38s-.46.37-.7.54a9.57,9.57,0,0,1-.94.54,21.83,21.83,0,0,1-2.4,1,37,37,0,0,1-4,1.09l-.11,0-.09,0a24.62,24.62,0,0,1-3,.39c-.78,0-1.56,0-2.33,0Z" fill="#ffca11"/>
          <path d="M40.57,127.91c-.91,0-1.82-.06-2.73-.13h-.19c-1.09-.09-2.17-.19-3.25-.34s-1.87-.32-2.8-.52a26,26,0,0,1-2.63-.67l-.61-.26a4.25,4.25,0,0,1-.46-.27,3.9,3.9,0,0,1-.4-.31,8.11,8.11,0,0,1-.65-.66l-.31-.39-.15-.26-.06-.14a1.17,1.17,0,0,1,0-.2,14.4,14.4,0,0,1-.17-1.61c0-.09,0-.17,0-.26a.08.08,0,0,0,0,0,12.9,12.9,0,0,0,1.43.74,15.84,15.84,0,0,0,4.34,1.22c1.43.2,2.88.32,4.32.42,1.13.08,2.26.1,3.39.1h.65a37,37,0,0,0,4.08-.14,33.78,33.78,0,0,0,8.09-2,14,14,0,0,0,3-1.51,8.84,8.84,0,0,0,.77-.6l.06.65c0,.41,0,.81,0,1.21,0,.23-.06.47-.1.7s-.11.44-.19.65a7.07,7.07,0,0,1-.35.81c-.06.12-.13.25-.21.38l-.13.17-.14.13-.28.22c-.21.13-.42.25-.64.36a17.57,17.57,0,0,1-2,.81c-.78.26-1.56.47-2.35.67s-1.59.39-2.39.55h0a35.42,35.42,0,0,1-4.1.44c-.9,0-1.8.1-2.7.1Z" fill="#ffca11"/>
          <path d="M54.34,113a21.86,21.86,0,0,0-3.11-1.53,1.1,1.1,0,0,0,0-.18s0,.11,0,.16a2.81,2.81,0,0,0,0-.41v0a.34.34,0,0,1,0-.1c0-.17.09-.33.14-.5s.24-.58.37-.87a15.38,15.38,0,0,1,.82-1.42c.46-.65,1-1.28,1.48-1.89s1-1,1.51-1.49c.73-.61,1.48-1.17,2.26-1.71,1.08-.68,2.19-1.32,3.33-1.9.67-.3,1.34-.59,2-.84A38.7,38.7,0,0,1,67,99.21h0a24.48,24.48,0,0,1,2.82-.38c.45,0,.89,0,1.33,0s.65.07,1,.12l.39.12.42.2c.21.11.41.23.61.36s.36.27.54.41a3.26,3.26,0,0,1,.31.33l.23.28.18.3,0,.09a0,0,0,0,0,0,0l0,.25v.47l0,.17c0,.13-.07.26-.11.38s-.15.36-.24.53c-.18.32-.36.64-.57,1a22.31,22.31,0,0,1-1.4,1.84,36.7,36.7,0,0,1-2.71,2.58l-.17.15c-.87.75-1.75,1.46-2.68,2.12a35.14,35.14,0,0,1-3.15,1.81l0,0h0a23.49,23.49,0,0,1-2.65,1.1,13,13,0,0,1-1.48.4,17.31,17.31,0,0,1-2,.25l-.64,0a1.67,1.67,0,0,0-.86.29A9.65,9.65,0,0,0,54.34,113Z" fill="#ffca11"/>
          <path d="M58.51,117.37a1.39,1.39,0,0,0-.31-.37A17.88,17.88,0,0,0,64,115.51a32.19,32.19,0,0,0,4-2.12,27.71,27.71,0,0,0,3.57-2.71h0s0,0,0,0c.9-.79,1.81-1.56,2.63-2.42a20.59,20.59,0,0,0,2.37-3c.17-.26.33-.53.48-.8.13.21.25.43.36.65s.09.21.13.31,0,.1,0,.16a1,1,0,0,1,0,.18q0,.36,0,.72c0,.18,0,.36-.08.54s-.11.4-.17.6l-.14.33c-.15.26-.3.53-.47.77a21,21,0,0,1-1.47,1.8l0,0-.09.1h0A31.06,31.06,0,0,1,72.86,113a33.32,33.32,0,0,1-3,2.25,38.08,38.08,0,0,1-3.5,2.14,24.1,24.1,0,0,1-2.46,1,23.33,23.33,0,0,1-3,.83h0a12.87,12.87,0,0,1-1.39.17l-.3,0A5.73,5.73,0,0,0,58.51,117.37Z" fill="#ffca11"/>
          <path d="M76.33,140.32h-.11a20.24,20.24,0,0,1-2.34-.31c-.85-.2-1.68-.45-2.51-.72s-1.45-.59-2.15-.93l-.73-.43c-.1-.08-.21-.15-.31-.24l-.16-.17,0-.07s0,0,0-.05a2.44,2.44,0,0,1-.1-.24l0-.08a1.76,1.76,0,0,0,0-.23s0-.05,0-.07,0-.1,0-.15.14-.34.22-.5a7.76,7.76,0,0,1,.4-.69,2.51,2.51,0,0,1,.25-.32c.14-.15.28-.3.43-.44s.45-.35.69-.52.63-.39,1-.57l.61-.26a24,24,0,0,1,2.68-.71c.88-.14,1.78-.19,2.68-.25a46.34,46.34,0,0,1,5.4-.09,39.9,39.9,0,0,1,4.5.62,28.5,28.5,0,0,1,3,.86,27.43,27.43,0,0,1,2.62,1.11c.39.21.76.42,1.13.66.18.13.35.27.52.41a1.44,1.44,0,0,0-.16.67c0,.16,0,.31,0,.47v.12h0l-.06.1-.18.24c-.11.12-.23.23-.35.35s-.4.31-.61.46-.53.33-.8.47-.7.3-1,.43a20,20,0,0,1-2.41.67,32.85,32.85,0,0,1-3.84.38l.21,0c-1.57.1-3.13.15-4.7.15C78.76,140.43,77.55,140.4,76.33,140.32Z" fill="#ffca11"/>
          <path d="M80.77,145.85h0l-.14,0h0c-1.06-.08-2.1-.2-3.15-.35s-2.08-.27-3.1-.48a27.81,27.81,0,0,1-3.36-.92c-.53-.19-1-.41-1.54-.65s-.75-.43-1.12-.67h0l-.07,0c-.24-.17-.48-.34-.7-.53l-.1-.09,0-.07,0-.05,0,0,0-.13a5.14,5.14,0,0,1-.06-.55c0-.16,0-.31,0-.46A15.05,15.05,0,0,0,69.88,142a20.46,20.46,0,0,0,4.35,1.19,35.12,35.12,0,0,0,4.58.31h.78c1.21,0,2.42,0,3.63-.08,1.44-.07,2.89-.15,4.33-.33a19.41,19.41,0,0,0,3.77-.85,11.46,11.46,0,0,0,3.5-1.78v0a9.9,9.9,0,0,1-.17,1.2c-.07.29-.15.59-.25.88a.14.14,0,0,0,0,.07l-.06.09a3.92,3.92,0,0,1-.25.32,8.09,8.09,0,0,1-.78.77,5.32,5.32,0,0,1-.47.36l-.43.26a11.64,11.64,0,0,1-1.11.44h0l-.12,0a22.32,22.32,0,0,1-5,1c-.56,0-1.12,0-1.67,0C83.2,146,82,145.94,80.77,145.85Z" fill="#ffca11"/>
          <path d="M80.13,104.19a21.29,21.29,0,0,0-1.43-2.55,1.72,1.72,0,0,0,.28-.47,9.16,9.16,0,0,1,.87-.67A21.85,21.85,0,0,1,82,99.3c1.25-.6,2.54-1.14,3.83-1.67s2.5-1,3.78-1.43h0l.08,0h0a26.77,26.77,0,0,1,3-.79,15.82,15.82,0,0,1,1.7-.25c.58,0,1.15,0,1.73,0l.3.05a3.31,3.31,0,0,1,.42.12l.32.14a3.3,3.3,0,0,1,.32.18l.22.17.22.23a1.47,1.47,0,0,1,.1.13,3.79,3.79,0,0,1,.2.34l.07.16a3.89,3.89,0,0,1,.12.49,4,4,0,0,1,.07.5c0,.14,0,.29,0,.44s0,.22,0,.33a9.58,9.58,0,0,1-.31,1.08,5.89,5.89,0,0,1-.24.58c-.09.17-.19.34-.29.5s-.26.34-.4.5c-.29.31-.59.61-.9.89-.52.43-1,.83-1.61,1.21A37,37,0,0,1,91,105.31a42.54,42.54,0,0,1-4.68,1.92,25.39,25.39,0,0,1-2.57.64h0a21.62,21.62,0,0,1-2.78.39l-.79,0A6,6,0,0,0,80.13,104.19Z" fill="#ffca11"/>
          <path d="M77.16,113.42h0A1.12,1.12,0,0,0,77,113c.37-.4.74-.82,1.09-1.24.19-.22.38-.45.56-.68a1.2,1.2,0,0,0,.42.12,12.21,12.21,0,0,0,1.35.07,14.68,14.68,0,0,0,2.49-.21c1-.17,2.06-.37,3.06-.62a25.44,25.44,0,0,0,3.09-1,37.47,37.47,0,0,0,7.66-4,18,18,0,0,0,1.7-1.32,9.63,9.63,0,0,0,1.48-1.58,8.19,8.19,0,0,0,.64-1c0,.11,0,.22.07.33a.11.11,0,0,0,0,0s0,0,0,0v0c0,.16.06.32.08.49v0a.13.13,0,0,1,0,.06.74.74,0,0,1,0,.14,3.54,3.54,0,0,1-.16.34q-.32.6-.69,1.17c-.25.35-.51.68-.78,1-.48.53-1,1-1.53,1.51s-1.26,1-1.93,1.51a23.27,23.27,0,0,1-2.19,1.2h0a52,52,0,0,1-6,2.35h0l-.13,0-.14.05h0a34.89,34.89,0,0,1-3.91,1.11h.09l-.13,0-.07,0h0a26.72,26.72,0,0,1-3.43.49c-.54,0-1.08,0-1.62,0Z" fill="#ffca11"/>
          <path d="M96.32,111a18.29,18.29,0,0,0,3.43-2.57,15.34,15.34,0,0,0,2.82-3.35l.11-.19.2,0a1.44,1.44,0,0,0,.59-.11l.18,0a10,10,0,0,1,1.06.34h0l.09,0h0l.05,0q-.16.69-.39,1.35c-.16.42-.32.83-.51,1.23l-.41.7c-.25.37-.51.73-.79,1.08s-.46.49-.7.73-.62.48-.94.7-.72.43-1.09.62c-.93.44-1.88.81-2.85,1.16s-1.9.59-2.87.8c-1.48.25-3,.3-4.49.4l-.36,0A42.58,42.58,0,0,0,96.32,111Z" fill="#ffca11"/>
          <path d="M76.27,98a7.82,7.82,0,0,0-1.77-1.26,6.19,6.19,0,0,0-2-.72,15.37,15.37,0,0,0-4.39.07A29.65,29.65,0,0,0,60,98.47l-.08-.09L59.46,98a4.64,4.64,0,0,1-.39-.38c-.1-.12-.19-.24-.28-.37s-.1-.16-.14-.24l-.11-.26,0-.17a.88.88,0,0,0,0-.16v-.2l0-.19.07-.25.11-.24a2,2,0,0,1,.14-.25l.3-.38c.08-.08.15-.16.24-.24s.43-.34.66-.51l.31-.19c.49-.23,1-.42,1.51-.6a20.88,20.88,0,0,1,2.06-.56,33.26,33.26,0,0,1,3.46-.37,46.8,46.8,0,0,1,5.68,0,32.6,32.6,0,0,1,3.41.51c1.25.28,2.48.59,3.69,1a34,34,0,0,1,3.4,1.45c-.87.36-1.73.74-2.57,1.16a17.09,17.09,0,0,0-3.42,2l-.43.36A6.79,6.79,0,0,0,76.27,98Z" fill="#ffca11"/>
          <path d="M85.75,93.33A20.09,20.09,0,0,0,83.17,92a31,31,0,0,0-6-1.9A27.84,27.84,0,0,0,74,89.6a1.38,1.38,0,0,0-.17-.52,1.85,1.85,0,0,0-.19-.27,3.54,3.54,0,0,1,.19-.33.86.86,0,0,1,.14-.18l.21-.2c.16-.14.32-.26.5-.39.34-.22.7-.43,1.07-.62a21.93,21.93,0,0,1,2.2-.88,15.8,15.8,0,0,1,1.67-.45,28.77,28.77,0,0,1,3.72-.39,24.08,24.08,0,0,1,3.29,0h.1l.65.06A2.52,2.52,0,0,0,87,86.85a3.14,3.14,0,0,0,.57,1.34,10.66,10.66,0,0,0,2,2.14A19.58,19.58,0,0,0,92,91.93l.82.49-.13,0a29,29,0,0,0-4.22,1.09c-.62.22-1.24.44-1.86.68A2.32,2.32,0,0,0,85.75,93.33Z" fill="#ffca11"/>
          <path d="M99.73,92.17c-.6-.18-1.2-.35-1.79-.56a26.31,26.31,0,0,1-2.71-1.21,27.44,27.44,0,0,1-3-1.77,10.87,10.87,0,0,1-1-.78,8.41,8.41,0,0,1-.9-.89c-.12-.13-.23-.28-.34-.42.18-.32.37-.63.57-.92s.35-.52.53-.77a1.46,1.46,0,0,0,.41.16c.13.12.26.24.4.35s.47.34.71.5c.44.29.88.58,1.35.83a1.46,1.46,0,0,0,.72.19,1.44,1.44,0,0,0,.94-.35c.44.46.87.93,1.3,1.41,1.07,1.23,2,2.55,3,3.85l.44.57Z" fill="#ffca11"/>
          <path d="M103.76,102l-.2,0c-.06-.59-.24-1.17-.34-1.74-.06-.29-.11-.57-.17-.86-.1-.46-.19-.91-.28-1.38v0h0l0-.16a17.21,17.21,0,0,0-.5-2.15v0a1.27,1.27,0,0,0,.44-.15l.09.12c.47.72.88,1.48,1.29,2.24.32.58.66,1.15,1,1.74h0a1.46,1.46,0,0,0,0,.69,1.43,1.43,0,0,0,.11.79c0,.42,0,.85,0,1.27A5.87,5.87,0,0,0,103.76,102Z" fill="#ffca11"/>
          <path d="M90.66,121.16h-.28c-1.76-.14-3.5-.29-5.24-.59s-3.2-.59-4.79-.93h0a.5.5,0,0,0-.13,0h0c-1-.22-2-.51-3-.72h0l-1.14-.23h0l-.11,0c-.48-.11-1-.23-1.45-.32s-.93-.15-1.4-.21c-.66-.09-1.33-.2-2-.25l1-.65a29,29,0,0,0,2.52-1.89,1.91,1.91,0,0,0,1.51,1c.61.06,1.22,0,1.82,0h.18c.84,0,1.68,0,2.5-.11q.56-.06,1.11-.15a1.48,1.48,0,0,0,1.22.74l2.24.1c.74,0,1.48.06,2.21.06s1.37,0,2,0,1.53-.1,2.29-.15,1.4-.09,2.09-.18a22.39,22.39,0,0,0,4.18-1c.69-.23,1.37-.48,2-.76a20.33,20.33,0,0,0,2.1-1,10.53,10.53,0,0,0,3.25-2.91,13.65,13.65,0,0,0,1.22-2,14.27,14.27,0,0,0,.77-2,14.72,14.72,0,0,0,.62-4.17c0-.7,0-1.4-.06-2.09,0-.06,0-.13,0-.19h0a2.46,2.46,0,0,0,.07-1.07,10.28,10.28,0,0,0-1.31-2.76c-.34-.64-.68-1.29-1-1.92s-.8-1.26-1.24-1.86c-.85-1.16-1.75-2.27-2.61-3.42s-1.66-2.23-2.58-3.28a34.12,34.12,0,0,0-3-3.12A41.42,41.42,0,0,0,92.07,80h0c-.7-.46-1.42-.91-2.16-1.3l-.07,0-.09,0,0,0a28.81,28.81,0,0,0-4.55-1.68c-.77-.24-1.55-.47-2.34-.66a14.65,14.65,0,0,0-2.19-.33h0a11.77,11.77,0,0,0-2.14,0,21.27,21.27,0,0,0-8,2.57c-2.36,1.27-4.68,2.64-6.94,4.09-1.23.8-2.49,1.57-3.7,2.39s-2.13,1.58-3.2,2.37-2.27,1.83-3.36,2.81a35.62,35.62,0,0,0-3,3l-.24.27a19,19,0,0,0-2.28,3.22c-.36.64-.68,1.3-1,2a11.45,11.45,0,0,0-.63,2.12,7.4,7.4,0,0,0-.07,3.53,6.49,6.49,0,0,0,1.26,2.43,5.07,5.07,0,0,0,1,.82l.68.41a1.47,1.47,0,0,0,.28.14l-.12.24a7.28,7.28,0,0,0-.72,2.26l-.25-.06a29.93,29.93,0,0,0-4.31-.77,27.36,27.36,0,0,0-3-.1,1.48,1.48,0,0,0-.53-1c-.36-.29-.75-.54-1.11-.83l-.17-.17-.4-.54c-.13-.19-.25-.39-.36-.59s-.16-.41-.23-.61a10.38,10.38,0,0,1-.27-1.1c-.07-.34-.12-.68-.16-1v-.31a9.3,9.3,0,0,1,.16-.92,29.37,29.37,0,0,1,.87-3.38c.12-.33.26-.66.4-1,.41-.78.88-1.53,1.36-2.27s.91-1.25,1.42-1.85c1.17-1.29,2.42-2.5,3.71-3.67.92-.8,1.87-1.54,2.82-2.3s1.93-1.58,2.94-2.31c2.31-1.67,4.69-3.25,6.95-5,1.14-.89,2.25-1.82,3.37-2.73s2.15-1.82,3.21-2.75l.41-.35c1-.84,1.94-1.65,2.93-2.45S70,71,71,70.35c.48-.3,1-.59,1.48-.86l.11-.06.11-.05h0a14.5,14.5,0,0,1,1.37-.55c.59-.18,1.17-.34,1.77-.47a31.75,31.75,0,0,1,3.51-.44c.74,0,1.48,0,2.22,0,1,.1,1.94.27,2.9.46l.31.07h0l0,0h0l.67.16.24.07c.52.13,1,.29,1.55.46.9.33,1.77.7,2.64,1.12a37.14,37.14,0,0,1,3.44,2c1,.67,1.94,1.35,2.87,2.09s1.6,1.32,2.38,2A15.7,15.7,0,0,1,100,77.7l.1.12c.76.87,1.48,1.77,2.27,2.6s1.6,1.57,2.37,2.39l.09.1c.66.79,1.26,1.62,1.9,2.42a4.88,4.88,0,0,0,.74.83,1.6,1.6,0,0,0,1.15.34,1.43,1.43,0,0,0,1.26-1.39,1.4,1.4,0,0,0-.63-1.18c-.92-1.09-1.68-2.3-2.66-3.33s-1.85-1.84-2.72-2.81h0l0,0h0l0-.06h0l-.94-1.1c-.44-.51-.87-1-1.35-1.51a23,23,0,0,0-1.72-1.56c-1.07-.9-2.15-1.78-3.28-2.61a35.57,35.57,0,0,0-6.13-3.68c.44-.18.88-.36,1.31-.56a33.64,33.64,0,0,0,3.55-1.91c1.07-.64,2.12-1.26,3.24-1.82a29.22,29.22,0,0,1,3-1.24,39,39,0,0,1,4.86-1.26,50.36,50.36,0,0,1,5.6-.69c.49,0,1,0,1.47,0,1.32.14,2.64.38,4,.54s2.58.31,3.86.56h0a23,23,0,0,1,2.33.66l.1,0h0q.81.3,1.59.66a10.2,10.2,0,0,1,1.07.61,13.33,13.33,0,0,1,1.33,1l.07.06c1,.88,2,1.78,2.87,2.75s1.76,1.89,2.61,2.86,1.57,2,2.29,3,1.48,2.16,2.25,3.2,1.72,2.21,2.58,3.31,1.76,2.25,2.63,3.38,1.83,2.35,2.77,3.5,1.85,2.14,2.67,3.31c.37.57.71,1.16,1,1.77s.6,1.31.85,2a15.63,15.63,0,0,1,.45,1.66,17.05,17.05,0,0,1,.21,1.75c0,.42,0,.83,0,1.25s-.13,1.08-.22,1.63a32.68,32.68,0,0,1-.92,3.17v0c-.28.75-.59,1.48-.94,2.2-.29.54-.61,1.06-.95,1.58-.48.67-1,1.32-1.53,2-.71.79-1.45,1.53-2.23,2.25a47,47,0,0,1-4,3,32,32,0,0,1-2.78,1.62c-.8.37-1.61.7-2.45,1h0l-.52.18c-.92.3-1.85.56-2.78.82s-1.86.5-2.8.69h-.05l-.11,0-.17,0c-1,.17-2.07.29-3.11.41s-2.16.25-3.24.32c-1.53.08-3.07.08-4.61.08h-1.27q-2.17,0-4.35-.12a3.11,3.11,0,0,0,.28-.23,21.18,21.18,0,0,0,3.12-3.5,21.67,21.67,0,0,0,2.3-3.88,14.56,14.56,0,0,0,1.25-4.38,8.18,8.18,0,0,0,0-1.64,9.35,9.35,0,0,0-.6-2.45c-.3-.77-.61-1.54-.94-2.3a1.42,1.42,0,0,0-2.63,1.09c.32.76.6,1.54.89,2.31q.15.48.27,1c0,.23.07.45.09.67a8.81,8.81,0,0,1,0,.89c-.05.41-.11.82-.19,1.23s-.23.83-.36,1.24c-.23.6-.48,1.18-.77,1.76a21.09,21.09,0,0,1-1.2,2c-.6.84-1.23,1.65-1.9,2.43a15.72,15.72,0,0,1-1.15,1.16c-.54.46-1.09.88-1.67,1.29a19.93,19.93,0,0,1-1.72,1,35.22,35.22,0,0,1-3.43,1.4,35.83,35.83,0,0,1-8.39,1.59c-.51,0-1,0-1.54,0C92.63,121.26,91.65,121.22,90.66,121.16Z" fill="#e76d49"/>
          <path d="M50.55,105.55c-.28-.24-.58-.45-.86-.68a1.8,1.8,0,0,1-.2-.19,1,1,0,0,0-.08-.11l-.22-.38a5.72,5.72,0,0,1-.24-.57c0-.12-.07-.24-.1-.36s0-.2,0-.3,0-.32,0-.47c0-.44.12-.88.2-1.31s.17-.68.27-1c.19-.5.42-1,.65-1.46s.58-1.08.91-1.6a20.71,20.71,0,0,1,1.64-2.07v0a40.93,40.93,0,0,1,3.6-3.49l.09-.08c1-.82,1.93-1.57,2.94-2.31S61,87.73,62,87.07s1.82-1.16,2.73-1.75,1.72-1.11,2.6-1.63c1.8-1.07,3.59-2.13,5.44-3.09A23.58,23.58,0,0,1,75,79.66a21.21,21.21,0,0,1,2.11-.59h.06s0,0,0,0h.09a17.9,17.9,0,0,1,1.81-.24,11,11,0,0,1,1.28,0h.09q.69.06,1.38.18a44.49,44.49,0,0,1,5,1.53q.81.31,1.59.69h0c.42.23.84.46,1.25.72a7.69,7.69,0,0,0-.68.83,15.74,15.74,0,0,0-3.06-.4,41.44,41.44,0,0,0-5.46.28,18.48,18.48,0,0,0-7.39,2.55,6.42,6.42,0,0,0-1.61,1.42,5.09,5.09,0,0,0-.46.74,3.81,3.81,0,0,0-.44,1.16,2.36,2.36,0,0,0,0,.88c-.84,0-1.69,0-2.53,0a23.28,23.28,0,0,0-8.81,1.72,7.15,7.15,0,0,0-3.42,3.25,1.19,1.19,0,0,0-.38.21c-.76.5-.81,1.57-.93,2.39s-.23,1.65-.34,2.47a6.44,6.44,0,0,0-.14,1.75,2.18,2.18,0,0,0,.22.74,20.49,20.49,0,0,0-2.69,2.58c-.32.38-.64.76-.94,1.16C50.66,105.66,50.61,105.6,50.55,105.55Z" fill="#cc4f32"/>
          <path d="M64.45,68.74c-.07-1.51-.14-3-.25-4.51l-.27-3.38.09,0c1.44.26,2.88.51,4.33.71a21.11,21.11,0,0,0,2.87.26h.52c.82,0,1.64,0,2.47-.06a1.45,1.45,0,0,0,1.43-1.4A1.41,1.41,0,0,0,74.24,59c-1.28,0-2.55.09-3.83,0-2-.18-4-.6-6-.9a1.41,1.41,0,0,0-.71.09c-.06-.77-.11-1.53-.16-2.3-.16-2.79-.21-5.57-.15-8.36q0-1.68,0-3.36a10.09,10.09,0,0,0,1.62.49,1.47,1.47,0,0,0,.36,0,1.42,1.42,0,0,0,.41-2.78c-.38-.1-.75-.2-1.11-.32l-.15,0,0,0a1.2,1.2,0,0,1-.21-.17,2.29,2.29,0,0,1-.27-.27l-.26-.3c0-.46,0-.92-.12-1.38s-.1-.84-.12-1.26c0-.23,0-.46,0-.69a12.66,12.66,0,0,0,3.35,1.72,27.38,27.38,0,0,0,4.23,1.35h0l.08,0,.11,0a38,38,0,0,0,4.87.77h0c1,.08,1.94.14,2.92.14a20.91,20.91,0,0,0,2.37-.13,22.8,22.8,0,0,0,4.91-.95,12.24,12.24,0,0,0,3.77-2l.86-.74c0,.34,0,.67,0,1-.08,1.83-.11,3.67-.16,5.5s-.17,3.63-.28,5.44c-.13,2.41-.19,4.82-.36,7.23-.07.88-.17,1.77-.22,2.65s-.07,1.71-.11,2.57-.1,1.51-.07,2.26l-1.75.7-1.65.61-.29.12c-.6-.14-1.2-.27-1.81-.39A18.47,18.47,0,0,0,80.05,65a27.42,27.42,0,0,0-4.61.49,16.28,16.28,0,0,0-4.35,1.46,23.37,23.37,0,0,0-4,2.72c-.86.69-1.7,1.38-2.54,2.09C64.53,70.74,64.49,69.74,64.45,68.74ZM86.34,59c-.42.09-.83.18-1.25.25a16.74,16.74,0,0,1-2,.29c-.59,0-1.18,0-1.77.06a1.46,1.46,0,0,0-.9.4,1.4,1.4,0,0,0-.41,1,1.42,1.42,0,0,0,1.33,1.43h.17c.85,0,1.71,0,2.56-.12,1-.14,2-.34,3-.56a1.41,1.41,0,0,0,1-1.73,1.39,1.39,0,0,0-1.38-1A1.27,1.27,0,0,0,86.34,59ZM64.77,48.47a1.42,1.42,0,0,0,0,1.92,2.57,2.57,0,0,0,1.29.76,17.94,17.94,0,0,0,2.09.4c.83.13,1.66.27,2.5.38a29.52,29.52,0,0,0,3,.14h0a1.41,1.41,0,0,0,0-2.82c-.71,0-1.42,0-2.13-.07s-1.5-.2-2.25-.31-1.52-.24-2.27-.39l-.23-.06a1.27,1.27,0,0,0-.92-.36A1.46,1.46,0,0,0,64.77,48.47Zm10.3-4.06a1.42,1.42,0,0,0,.88,1.7,5.34,5.34,0,0,0,1.49.31c1,.09,2.06.1,3.09.14l1,0a20,20,0,0,0,2.32-.12,25.51,25.51,0,0,0,3.38-.64,1.41,1.41,0,1,0-.73-2.72L85,43.44c-.81.14-1.62.24-2.44.3s-1.68,0-2.52,0-1.47-.05-2.2-.09h-.13l-.62-.08L77,43.48l-.14,0a1.26,1.26,0,0,0-.38-.06A1.47,1.47,0,0,0,75.07,44.41Z" fill="#ffca11"/>
          <path d="M151.57,96.59c.05.72.06,1.45.05,2.18a11.48,11.48,0,0,1-.24,2.42,17.17,17.17,0,0,1-2,4.46,28.21,28.21,0,0,1-4,5.09c-.74.77-1.5,1.53-2.31,2.22a13.62,13.62,0,0,1-2.3,1.51c-.65.36-1.32.68-2,1s-1.6.79-2.41,1.16-1.7.72-2.56,1-1.58.54-2.38.75h0c-1.38.34-2.69.93-4,1.35a17.89,17.89,0,0,1-4.35.83c-1.48.08-3,.09-4.46.17s-3,.24-4.47.24h0c-.39,0-.78,0-1.16,0a4.22,4.22,0,0,1-1.32-.24,2.13,2.13,0,0,1-1.33-1.26,2.22,2.22,0,0,1,.06-1.46,18,18,0,0,1,1.19-2.36c.54-1,1.14-1.93,1.68-2.91s1-2,1.52-3l0,0h0a.08.08,0,0,0,0,0q.29-.67.54-1.35a3.07,3.07,0,0,1,1.38-2,1.89,1.89,0,0,1,2.06.47c.25.21.48.45.74.66l.33.24a6.36,6.36,0,0,0,.58.3c.39.17.8.32,1.2.45a19.7,19.7,0,0,0,2,.45c.25,0,.48.06.73.07s.46,0,.7,0a14.33,14.33,0,0,0,1.46-.24c.46-.12.9-.26,1.35-.42s.9-.4,1.33-.63,1-.6,1.42-.94,1-.79,1.41-1.22.76-.8,1.11-1.22.57-.79.84-1.21c.39-.68.74-1.37,1.07-2.07a35.43,35.43,0,0,0,1.37-3.73,46.13,46.13,0,0,0,1.21-5.2,32.66,32.66,0,0,0,.35-3.27,28,28,0,0,0-.09-3.17c-.14-1.14-.32-2.26-.56-3.38a45.08,45.08,0,0,0-1.47-4.71c-.58-1.59-1.11-3.19-1.71-4.76l-.09-.24c-.23-.58-.47-1.16-.75-1.72a1.21,1.21,0,0,1-.2-.3,1.91,1.91,0,0,1-.18-.63,1.46,1.46,0,0,1,1.2-1.47,1.49,1.49,0,0,1,1.38.52,4.2,4.2,0,0,1,.54.91A35.34,35.34,0,0,1,137.63,74c.09.23.18.48.27.72a1.4,1.4,0,0,1,1.25.36A12.6,12.6,0,0,1,140,76l1,1.27c.87,1.06,1.77,2.08,2.62,3.15s1.81,2.19,2.64,3.34,1.71,2.46,2.48,3.75a20.55,20.55,0,0,1,1.82,4.26,22.39,22.39,0,0,1,.65,2.4A17.79,17.79,0,0,1,151.57,96.59Z" fill="#110802" fill-opacity="0.25"/>
          <path d="M89.88,114.86a1.59,1.59,0,0,1-.7-2.92,2,2,0,0,1,.7-.27l.71-.19c.5-.13,1-.29,1.48-.45,1-.32,2-.67,3-1,.76-.31,1.5-.65,2.23-1l.2-.11.91-.79c.12-.11.22-.22.33-.33l.25-.36c.31-.53.58-1.06.84-1.61s.31-.85.44-1.28h0l-.06.19.06-.2-.36-.93c-.56-1.46-1.08-2.93-1.59-4.4-.29-.86-.6-1.72-.92-2.57s-.6-1.43-.91-2.14c-1-1.36-2.07-2.71-3-4.14-.29-.44-.57-.89-.85-1.33l-.73-.63c-.57-.48-1.12-1-1.65-1.52s-1.14-1-1.74-1.54-1.31-1-2-1.39c-.4-.15-.81-.29-1.21-.42-.6-.17-1.2-.31-1.81-.43a43.69,43.69,0,0,0-5-.47h.2a26.3,26.3,0,0,0-2.81,0,21.8,21.8,0,0,0-2.54.46c-1.47.37-2.89,1-4.32,1.49-.75.26-1.5.52-2.25.75s-1.41.41-2.1.67-1.41.59-2.12.85l.18-.06a2.21,2.21,0,0,1-1.05.26,1.39,1.39,0,0,1-1.21-1v0a1.69,1.69,0,0,1-.07-.38.61.61,0,0,1,0-.14.88.88,0,0,1,0-.17.2.2,0,0,1,0-.07,1.33,1.33,0,0,1,.34-.64,2.11,2.11,0,0,1,.58-.41c.14-.08.3-.13.45-.2.34-.13.68-.28,1-.43.64-.27,1.28-.53,1.94-.74s1.34-.4,2-.63c1.34-.45,2.65-.95,4-1.44a20.35,20.35,0,0,1,3.44-.94,1.26,1.26,0,0,1,0-.28,1.67,1.67,0,0,1,.51-.84,2,2,0,0,1,1-.39A12.4,12.4,0,0,1,77,78.23c.38,0,.76,0,1.15-.06a1.6,1.6,0,0,1,.59-1A2,2,0,0,1,80,76.77a19.61,19.61,0,0,1,3,.36,31.44,31.44,0,0,1,3.22.77l.24.07h0a21.66,21.66,0,0,1,4.31,1.79,30,30,0,0,1,3.8,2.5,9.43,9.43,0,0,1,1.65,1.69,20.7,20.7,0,0,1,1.37,1.86c.72,1.11,1.37,2.26,2,3.4a2,2,0,0,1,.35-.09c1.4-.15,2,1.25,2.58,2.31a25.65,25.65,0,0,1,1.79,4.46,17.71,17.71,0,0,1,.69,4.85,10.72,10.72,0,0,1,.13,1.39,10.6,10.6,0,0,1-.2,2.32,6.47,6.47,0,0,1-.28,1.07,3.57,3.57,0,0,1,0,.8,1.78,1.78,0,0,1-.34.84,1.52,1.52,0,0,1-.27,1.14,11.7,11.7,0,0,1-1.73,1.79l-.33.41a11.52,11.52,0,0,1-3.78,3.05,4.33,4.33,0,0,1-1.68.48h-.13q-.51.2-1.05.36l-.51.15a2.38,2.38,0,0,1-.61.19,1.67,1.67,0,0,1-.67,0c-.55.08-1.11.12-1.66.15l-1,0-.68,0Z" fill="#110802" fill-opacity="0.25"/>
          <path d="M43.72,88.88l-.23-.08c0-.39.07-.78.11-1.18s.06-1,.09-1.5c0-.18,0-.37,0-.55l.18-.14a12.11,12.11,0,0,1,.17-1.91c.13-1.28.17-2.56.23-3.85.1-2.12.27-4.24.34-6.37,0,.07,0,.14,0,.2,0-.6,0-1.2.05-1.81a1.34,1.34,0,0,0,0,.2c0-.16,0-.31,0-.46a1.34,1.34,0,0,0,0,.2c.08-2.95.35-5.89.72-8.82a41.33,41.33,0,0,1,.77-4.56,7.79,7.79,0,0,1,.77-2.17,7.93,7.93,0,0,1,1.44-1.72l1-.9-.14.13.23-.22-.09.09c.28-.28.56-.55.82-.84A1.39,1.39,0,0,1,51.28,52a1.41,1.41,0,0,1,1.35.86s0,0,0,0a1.46,1.46,0,0,1,0,1.14,1.3,1.3,0,0,1-.08.17l0,0a2.51,2.51,0,0,1,.32,1,15.15,15.15,0,0,1,0,2.43,1.34,1.34,0,0,0,0-.2c-.06,1.84-.22,3.68-.39,5.52s-.44,3.94-.77,5.89h0c0,.13,0,.27-.07.4h0v0h0a534459894648.5,534459894648.5,0,0,1,0,.14h0s0,0,0,.08q-.18,2.38-.42,4.77c-.14,1.48-.29,3-.49,4.43-.05.31-.09.62-.15.93-.08.52-.18,1-.28,1.57a13.25,13.25,0,0,1-1.53,4.84,3.64,3.64,0,0,1-2.4,1.46c-.2.12-.38.24-.57.38a5.17,5.17,0,0,0-.51.42,1.85,1.85,0,0,0-.14.14,1.42,1.42,0,0,1-1.18.61A1.86,1.86,0,0,1,43.72,88.88Z" fill="#110802" fill-opacity="0.25"/>
          <path d="M84.7,68.2a1.91,1.91,0,0,1-1.18-.61,2.2,2.2,0,0,1-.47-1,6.17,6.17,0,0,1-.1-1.13c0-.61.06-1.2.11-1.8s.11-1.29.15-1.94c.1-1.32.13-2.64.19-4s.13-2.9.18-4.35a1.34,1.34,0,0,1,0,.2c.07-2.22.09-4.45.11-6.67,0-1.13,0-2.26,0-3.39,0-.87,0-1.73.07-2.6a1.43,1.43,0,0,1,1.55-1.27,1.55,1.55,0,0,1,.31.07,2.38,2.38,0,0,1,.63-.82,4.76,4.76,0,0,1,2.06-.73h0c.43-.11.86-.23,1.28-.38a2.18,2.18,0,0,1,1.26-.18A1.59,1.59,0,0,1,92,38.9a4.5,4.5,0,0,1,0,1.16c0,1,0,2.06,0,3.08l.06,3.92c0,2.68,0,5.34-.1,8a1.41,1.41,0,0,1,0-.2l0,.73c0-.07,0-.13,0-.2A29.18,29.18,0,0,1,90.79,64a7.34,7.34,0,0,1-1.23,2.39,4.47,4.47,0,0,1-1.28,1,7.07,7.07,0,0,1-.8.33,7.15,7.15,0,0,1-2.28.48A2.89,2.89,0,0,1,84.7,68.2Z" fill="#110802" fill-opacity="0.25"/>
          <path d="M78.81,39.09a1.61,1.61,0,0,1,.49-1.72,2.41,2.41,0,0,1,.76-.4l.42-.11a14.74,14.74,0,0,0,1.82-.57,30.92,30.92,0,0,0,3-1.39c.39-.22.76-.44,1.12-.69l.13-.11h0a2.09,2.09,0,0,1,.08-.23c0-.16.08-.32.11-.48s0-.28,0-.42c0-.31,0-.63,0-.94,0,0,0-.06,0-.08a1.49,1.49,0,0,1,.69-1.48,1.41,1.41,0,0,1,0-.41,1.44,1.44,0,0,1,1.55-1.27,1.65,1.65,0,0,1,1.18.77,3.31,3.31,0,0,1,.34.74,3.83,3.83,0,0,1,.25,1.05,5.61,5.61,0,0,1-1.8,4.48A7.36,7.36,0,0,1,88.07,37a11.28,11.28,0,0,1-1.65,1.44A9.11,9.11,0,0,1,82,40.24a8.51,8.51,0,0,1-.91.06C80.11,40.3,79.12,40.06,78.81,39.09Z" fill="#110802" fill-opacity="0.25"/>
          <path d="M43.51,56.7a1.86,1.86,0,0,1-.71-.3,1.44,1.44,0,0,1-.61-1.33,1.57,1.57,0,0,1,1.15-1.35c.28-.09.55-.17.82-.27a10.07,10.07,0,0,0,1.1-.53c.41-.24.81-.49,1.2-.76s.56-.45.83-.69c.09-.1.19-.2.27-.3l.1-.13.21-.4.06-.18a.83.83,0,0,0,0-.15L48,50a2.81,2.81,0,0,0,0-.29,2,2,0,0,0-.06-.32l0-.13,0-.1L47.77,49l0,0-.07,0,0,0a1.41,1.41,0,0,1,.27-2.79h0l-.19,0a1.75,1.75,0,0,1,1,.11,3.16,3.16,0,0,1,1.7,1.52,1.36,1.36,0,0,1,1,.5A3.84,3.84,0,0,1,52,49.39a3.11,3.11,0,0,1,0,1.93A4.81,4.81,0,0,1,50.84,53a9.4,9.4,0,0,1-1.17,1,18.16,18.16,0,0,1-2.61,1.73,8.83,8.83,0,0,1-1.41.61,6.62,6.62,0,0,1-1.33.32,2.43,2.43,0,0,1-.38,0A3.13,3.13,0,0,1,43.51,56.7Z" fill="#110802" fill-opacity="0.25"/>
          <path d="M46.51,127.88a1.55,1.55,0,0,1-.22-1.73,3.71,3.71,0,0,1,.75-.83,7.68,7.68,0,0,0,.61-.67l.34-.48c.11-.19.21-.38.31-.58s.14-.35.2-.53,0-.19.07-.29,0-.29.06-.43a1.41,1.41,0,0,1,1.53-1.09,1.46,1.46,0,0,1,.82.36,1.2,1.2,0,0,1,.32.47l1.07-.71,0,0,.26-.19.87-.71a3.51,3.51,0,0,1,.76-.57,1.58,1.58,0,0,1,1.19-.06,1.39,1.39,0,0,1,.43.25l.19,0a1.51,1.51,0,0,1,1.28.67,2.17,2.17,0,0,1,0,2,5.88,5.88,0,0,1-.9,1.6,6.11,6.11,0,0,1-.41.51,2.82,2.82,0,0,1-.19.48,3.9,3.9,0,0,1-1.57,1.6,10.38,10.38,0,0,1-1,.43,16.58,16.58,0,0,1-3.92,1c-.34,0-.7.07-1,.07A2.13,2.13,0,0,1,46.51,127.88Z" fill="#110802" fill-opacity="0.25"/>
          <path d="M61,119.68a4.4,4.4,0,0,1-1.39-.27,3.61,3.61,0,0,1-1-.62,3,3,0,0,1-.42-.45,1.41,1.41,0,0,1-.37-.49A1.49,1.49,0,0,1,58.4,116,1.43,1.43,0,0,1,60,116a2.3,2.3,0,0,1,.48.56l0,0a.47.47,0,0,0,.1.1h0a1.27,1.27,0,0,0,.28.06l.29,0c.33,0,.66,0,1-.07a10.87,10.87,0,0,0,1.27-.22c.29-.08.58-.17.86-.27a32,32,0,0,0,3.13-1.48,11.92,11.92,0,0,0,1.13-.71c.82-.64,1.61-1.32,2.37-2l0,0,0,0,.1-.1L71,112c.4-.39.79-.82,1.16-1.25l0-.07a29.15,29.15,0,0,0,1.74-2.39,13.16,13.16,0,0,0,.78-1.49c0,.06,0,.11-.07.17.23-.54.45-1.08.63-1.64s.23-1,.37-1.48a1.46,1.46,0,0,1,1.72-1.07,1.44,1.44,0,0,1,1.06,1.71,16.61,16.61,0,0,1-3,6.75,19.65,19.65,0,0,1-2.65,3,25.88,25.88,0,0,1-3,2.5c-.28.19-.58.35-.87.51l0,0-.15.08h0c-.73.4-1.47.76-2.22,1.11a12.64,12.64,0,0,1-2.65.93c-.41.08-.81.15-1.22.2a10.88,10.88,0,0,1-1.27.11Z" fill="#110802" fill-opacity="0.25"/>
          <path d="M83.08,146.58a1.45,1.45,0,0,1,1.18-1.67l.65-.14c.28-.07.55-.15.82-.24l.21-.2.61-.43c.48-.36.92-.75,1.36-1.15.25-.26.49-.52.72-.79.33-.44.61-1,1.13-1.24a1.56,1.56,0,0,1,1.52.12l.17.14c.09-.1.19-.2.27-.3l0,0c0-.13.06-.25.08-.38v-.09a1.14,1.14,0,0,1,0-.26,1.45,1.45,0,0,1,1.38-1.29,1.4,1.4,0,0,1,1.08.43,1.54,1.54,0,0,1,1,1.39,2.85,2.85,0,0,1-.39,1.48,7,7,0,0,1-.82,1.26l-.28.34a9.27,9.27,0,0,1-1.93,1.82A12.72,12.72,0,0,1,90,146.6a3.81,3.81,0,0,1-1.66.53,1.5,1.5,0,0,1-.56-.1,5,5,0,0,1-.56.06,12.16,12.16,0,0,1-2.5.67l-.23,0A1.46,1.46,0,0,1,83.08,146.58Z" fill="#110802" fill-opacity="0.25"/>
          <path d="M40.3,132.35c-1.38,0-2.74-.16-4.11-.3a37.09,37.09,0,0,1-3.78-.58c-.6-.13-1.18-.27-1.77-.43s-.9-.28-1.36-.38h-.1a1.41,1.41,0,0,1-.29-2.8,4.85,4.85,0,0,1,2.19.34c1,.28,2,.5,3.08.69a49.37,49.37,0,0,0,5.94.59h0a44.07,44.07,0,0,0,5.63-.17l-.19,0c1.46-.16,2.92-.35,4.38-.56s2.84-.51,4.24-.84c.65-.17,1.29-.36,1.92-.59.42-.17.82-.36,1.22-.57.24-.14.49-.29.72-.45l.28-.23.11-.12,0,0v0l0-.05a.43.43,0,0,0,0-.11,2.19,2.19,0,0,0,0-.36,2.69,2.69,0,0,1,.5-1.64l.19-.23a1.61,1.61,0,0,1-.14-.79c.07-.93,1-1.38,1.75-1.69a18.32,18.32,0,0,1,1.84-.65,26.19,26.19,0,0,1,3.6-.76,12.11,12.11,0,0,1,1.8-.13c.36,0,.72,0,1.08.07s.57-.07.86-.09a10.1,10.1,0,0,1,1.23,0,2.21,2.21,0,0,1,1.07.3l.93.06a1.45,1.45,0,0,1-.28,2.89l-1,0h-.11l-.94,0h0c-.5.1-1,.21-1.48.33-1.3.32-2.58.7-3.86,1.08-1.11.34-2.26.63-3.35,1-.19.08-.37.16-.56.26l-.19.12c0,.33,0,.66-.1,1a3.27,3.27,0,0,1-.95,1.66,10.23,10.23,0,0,1-3.44,2,26.46,26.46,0,0,1-4,1c-1.42.3-2.85.51-4.29.69s-3,.38-4.55.48c-.63,0-1.26,0-1.9,0S40.91,132.37,40.3,132.35Z" fill="#110802" fill-opacity="0.25"/>
          <path d="M92.27,125.77a19.51,19.51,0,0,1-2.83-.6c-.89-.26-1.78-.51-2.69-.71a1.46,1.46,0,0,1,.47-2.88c1.72.24,3.34.87,5,1.16l-.19,0a22.82,22.82,0,0,0,2.49.25,49.57,49.57,0,0,0,6.09-.19h0c1.19-.13,2.37-.33,3.55-.52a1.78,1.78,0,0,1,.3-1.19,2.24,2.24,0,0,1,1.76-.88c.59,0,1.21.09,1.8.13s1.17.07,1.76.09h-.2c1.45,0,2.9,0,4.34,0s2.73,0,4.1-.07l4-.18c1.48-.08,3-.21,4.44-.35l-.2,0,.31,0-.2,0,.4,0h-.1l.24,0h0l.34,0-.2,0a58.27,58.27,0,0,0,6.58-1,31,31,0,0,0,3.48-1.06l.3-.11h0l.09,0,.09,0-.05,0a43,43,0,0,0,3.93-1.89l-.07,0a27.58,27.58,0,0,0,2.63-1.65c.22-.17.44-.35.65-.54a1.63,1.63,0,0,1-.21-.53h0v0a1.3,1.3,0,0,1,0-.52h0a1.59,1.59,0,0,1,1-1.14,2.69,2.69,0,0,1,1.82.26l.4.16a2.5,2.5,0,0,1,.76.15,2.81,2.81,0,0,1,1.17.78,6.49,6.49,0,0,1,.83.53,4,4,0,0,1,1.16,1.31,3,3,0,0,1-.74,3.46,11.24,11.24,0,0,1-3.92,2.47,26,26,0,0,1-3.67,1.15h0a113.89,113.89,0,0,1-14.81,2.15h0l-.5,0,.19,0-.63.07h0c-2.91.3-5.83.54-8.75.64-2.36.08-4.73.15-7.09.09h-1.14c-.87,0-1.73.1-2.59.19H108l-.27,0h.13c-1,.11-2,.23-2.94.37-1.37.21-2.73.46-4.1.6s-2.92.19-4.38.2h-.56A24.92,24.92,0,0,1,92.27,125.77Z" fill="#110802" fill-opacity="0.25"/>
          <path d="M83,150a30.91,30.91,0,0,1-4.07-.27,5.28,5.28,0,0,1-2.57-.86,1.41,1.41,0,1,1,1.62-2.3h0l.17.09.19.07c.18,0,.36.08.55.12a30.75,30.75,0,0,0,3.32.28H82a64.81,64.81,0,0,0,7.88-.21h0l.17,0-.15,0,1.24-.16a1.55,1.55,0,0,1,.55-1,4.23,4.23,0,0,1,1.73-.69c.66-.18,1.31-.35,2-.55a.83.83,0,0,1,.18-.13l.12-.09c.06,0,.11-.12.17-.18a4.72,4.72,0,0,1,.61-.73l0,0a1.72,1.72,0,0,1-.21-.71,1.46,1.46,0,0,1,.84-1.36,2.06,2.06,0,0,1,2,.34,6.19,6.19,0,0,1,1.44,1.05,3.21,3.21,0,0,1,.77,1.23,2.82,2.82,0,0,1,.12,1.12,2.75,2.75,0,0,1-.43,1.31,3.76,3.76,0,0,1-1.19,1.09,8.42,8.42,0,0,1-2,.86c-.71.23-1.44.4-2.17.56-1.42.34-2.85.59-4.29.79a47.91,47.91,0,0,1-6.66.39Z" fill="#110802" fill-opacity="0.25"/>
          <path d="M30,105.69a12.74,12.74,0,0,1-2.2-.5,8.68,8.68,0,0,1-1.09-.46,2.19,2.19,0,0,1-.94-.76,1.56,1.56,0,0,1-.22-.94l-.49-.17h0l-.09,0,.1,0h.05a1.41,1.41,0,0,1-1.17-1.33,1.45,1.45,0,0,1,1.29-1.46,3.71,3.71,0,0,1,1.49.36c.57.16,1.15.29,1.72.4a25.07,25.07,0,0,0,2.87.25H31.1c.88,0,1.75,0,2.62,0l1,0a2,2,0,0,1,1.2.17,1.46,1.46,0,0,1,.39,2.25.6.6,0,0,1-.08.08,1.49,1.49,0,0,1,0,.36,1.3,1.3,0,0,1,0,.44,1.5,1.5,0,0,1,0,.22A1.45,1.45,0,0,1,34.8,106h-.66A27.43,27.43,0,0,1,30,105.69Z" fill="#110802" fill-opacity="0.25"/>
        </g>
      </g>
    </g>
  </g>
</svg>
