<svg xmlns="http://www.w3.org/2000/svg" width="523.56" height="508.45"><g data-name="Layer 2"><path d="M96.3 378.41c-.72-.28-.74-1.15-.49-1.77a82.37 82.37 0 0 1 6.61-15c5.77-10.74 12.6-20.83 19.26-31 6-8.86 12-17.78 18.76-26.14 9.33-13.25 18.76-26.53 29.14-39 12.88-15.77 24.52-32.5 38.29-47.5 5.58-6.45 11.81-12.26 17.59-18.52a163.28 163.28 0 0 1 12.64-13.66c7.45-7.9 15.55-15.14 23.53-22.51a633.92 633.92 0 0 1 48.84-41.56c16-13.39 32.38-26.22 49-38.8 9.75-7 19.8-13.52 29.57-20.46 16.61-11.09 34.09-20.84 51.26-31a531.81 531.81 0 0 1 51.87-26.84c3-1.35 5.94-3 9-4.26.47-.41 1.32-.63 1.7 0 .54 1-.63 1.64-1.44 1.93-6 2.88-12 5.72-18.08 8.46-14.08 6.81-28 14-41.47 22-17.17 10.15-34.62 19.92-51.25 30.95-10.07 7.14-20.42 13.88-30.43 21.07-15 11.49-30 22.9-44.44 35.13-18.67 14.52-36.86 29.67-54.05 45.92-12.43 11.41-24.74 22.89-35.58 35.8a407.43 407.43 0 0 0-42.82 49.76c-7.06 9.17-14.63 17.82-21.57 27-3.91 5.41-7.93 10.76-12 16.09-3.67 5.05-6.92 10.38-10.94 15.16-8.37 11-15.93 22.61-23.5 34.17-6 9.52-12.11 19-16.29 29.47 2.83-4.21 5.92-8.22 8.8-12.4 5.46-8.27 10.33-17 16.43-24.8 4.72-6.85 10-13.26 15.19-19.77 4.85-6.29 9.3-12.87 14.45-18.92 3.91-5.47 8.09-10.74 12.46-15.84 4.44-5.83 8.68-11.79 13.57-17.27 10.44-14.12 22.58-26.66 34.56-39.43 15.8-17.62 31.23-35.57 47.93-52.35 8.95-8.88 18.48-17.15 28-25.46a190 190 0 0 1 15.89-14c5.55-4.49 11.2-8.87 17-13 11.33-8.73 22.26-18.08 33.83-26.47 18.7-14 38.72-26.13 58.92-37.83 16.56-9.76 33.25-19.32 50.64-27.54 12.87-6.48 25.9-12.63 39.27-18 4.12-1.62 8.29-3.11 12.44-4.64 1.29-.48 2.57-1 3.88-1.4a1 1 0 1 1 .6 1.89c-6.81 2.6-13.69 4.89-20.39 7.74-14.05 5.74-27.62 12.52-41.21 19.26-15.06 7.23-29.42 15.74-43.82 24.16C396 69.57 374.83 82.58 355.11 97.5c-9.16 6.94-18.12 14.17-27.05 21.4-8 6-15.89 11.75-23.57 18.09-4.77 3.63-8.89 8-13.34 12-8.51 7.46-17.09 14.86-25.16 22.8-8.65 8.28-16.47 17.37-24.82 25.94-9 10.19-17.91 20.52-27.16 30.52-4.94 5.08-9.62 10.4-14.44 15.59a103.34 103.34 0 0 0-8.85 10c-4.75 5.57-9 11.67-13.86 17.11-5.13 6.69-10.08 13.5-15.64 19.84-5.65 7.92-12 15.28-17.53 23.25-7.26 9.26-14.63 18.42-21.4 28.05-6.69 9.91-12.67 20.29-19.93 29.82-1.48 2.08-2.78 4.35-4.67 6.1a1.41 1.41 0 0 1-1.39.4Z" fill="#110802"/><path d="M68.13 508.45c-3.25-1-3.91-7-4.55-10-1.64-8.86-1-17.9-.5-26.83a256.35 256.35 0 0 1 5.65-40.34c2.9-12.72 6.56-25.38 12.1-37.22 2.1-4.54 4.53-8.86 6.55-13.37 2.79-5.58 5.74-11.4 11.08-15a5.13 5.13 0 0 1 2.1-1.13c1.44 0 1.55 2.2 0 2-6.54 4-9.64 11.31-12.86 17.92-4.75 9.38-9.41 19-12.22 29.15-5.69 17.78-8.75 36.33-10.3 54.89-.37 10.83-2.48 28.33 3 37.81 1.28-3 1.51-6.3 2.24-9.46 1-4 2-8.06 3.38-12 5.37-13.69 9.57-27.8 14.55-41.63 4.37-11.62 9.32-23.1 11.94-35.28 2.58-12.8 5-25.78 3.94-38.86a8.22 8.22 0 0 1-.06-2 1 1 0 0 1 2-.07 4.11 4.11 0 0 1 .12 1.11c1.25 15.69-1.83 31.41-5.54 46.57-3.56 13-9.46 25.18-13.54 38-2.48 6.85-4.56 13.84-7 20.71-1.84 5.08-4 10.06-5.53 15.24a112.67 112.67 0 0 0-3 12.28c-.58 2.24-.68 7.54-3.55 7.51ZM17.47 414.89c-1.42-.52-1.55-2.06-.91-3.27a56.08 56.08 0 0 1 6.92-11.15c8.73-10.63 19.26-19.59 30.31-27.71a221.39 221.39 0 0 1 27-17.79 55.86 55.86 0 0 1 12.31-5c3.59-1.07 7.11-2.61 10.9-2.85a19 19 0 0 1 6.67 1c3.19.56-2.73 5.11-3.59 6-6.48 5.2-13.66 9.57-20.19 14.69-10.59 7.06-21.51 13.63-31.93 21-5.15 3.53-10.22 7.44-15.25 11.08-4 3-8.5 5.36-12.64 8.22a47.83 47.83 0 0 0-5.43 4.12c-1.19.85-2.59 2.08-4.17 1.66Zm.71-1.91c2.37-1 4-3.18 6.18-4.52 4.57-3.21 9.55-5.83 14-9.14 7.85-5.85 15.66-11.53 23.79-16.94C67.61 379 72.81 375.3 78.26 372a116.64 116.64 0 0 0 12.42-8.52c6-4.61 12.85-8.25 18.08-13.79-4.66-1.58-9.36.34-13.78 1.77-12.89 3.48-24 11.56-34.83 19-9.68 7.22-19.56 14.34-27.8 23.22-5.66 5.59-11.19 11.92-14.17 19.32ZM4.63 351.6c-5.1-5.07 13.14-14 16.86-15.68 14.65-5.63 29.16-11.53 44.63-14.48 9.91-1.83 20.09-3.29 30.18-2.67 7.9 0 15.79.43 23.49 2.37 1.85.57 8.68 1.64 8.14 3.75a1 1 0 0 1-1.1.58 1 1 0 0 1-.49.5c-2.68 1.25-5.75 2.25-8.44 3.31a129.75 129.75 0 0 1-21 7.22c-13.49 3-27.39 3.65-41 5.83-9.74 1.79-19.61 3.05-29.18 5.58-3.69.91-7.38 1.85-11 2.89-3.51.92-7.72 2.76-11.09.8Zm4.3-1.26c7.2-1.42 14.08-3.83 21.24-5.43 13.56-2.73 27.23-5 41-6.68a225.72 225.72 0 0 0 25.42-3.77c9.74-2.27 18.8-6.46 28.09-10-9.61-3.1-19.58-3.77-29.53-3.75-20.44-.66-40.59 4.86-59.6 11.86-7.23 3.18-14.88 5.24-21.5 9.6-3 2.11-7.2 3.89-8.31 7.66.81.77 2.13.55 3.19.51ZM1.38 322.75c-3-1.48-.34-3.7 1.26-5.09 4.7-3.9 10.27-6.56 15.83-9 7.94-4 16.61-6.08 25-8.78 15.29-4.14 31.07-6 46.78-7.78 14-1.09 28.07-2.37 42-.66 5.06.72 10.69.56 15.13 3.34a1 1 0 0 1 .61 1.82c-5.24 2.58-11 4-16.59 5.63a209 209 0 0 1-31.18 6.28c-9.75.78-19.58 1.76-29.3 2.59-7.62.86-15.26 1.2-22.8 2.42-7.51 1-14.81 3-22.21 4.48-5.49 1.09-10.79 2.91-16.2 4.29-2.66.54-5.71 1.83-8.33.46Zm3.27-1.45c5.83-.94 11.37-3 17.08-4.44C34.39 314 47 311.07 59.93 310c13.38-1.07 26.71-2.55 40.1-3.59a213.84 213.84 0 0 0 45.23-10.73c-4.71-1.72-9.65-1.89-14.54-2.45a111.42 111.42 0 0 0-18.26-.57c-10.11.48-20.29 1-30.31 2.31-10.89 1.47-21.79 2.8-32.49 5.41-6.84 1.54-13.46 3.91-20.19 5.9-5 1.73-9.78 4-14.61 6.18-4.58 2.28-9.17 4.69-12.67 8.39a3.6 3.6 0 0 0 2.46.45ZM24.11 289c-5.13-4.54 23.23-16.07 26.72-17.73 9.81-4.69 20.31-7.31 30.92-9.46a87.16 87.16 0 0 1 15.58-2.29c9.21-1.35 18.55-.54 27.79.12 12.08.86 24.36 1.76 35.78 6.09 2.12.8 4.52 1.08 6.4 2.39a1 1 0 0 1 .51 1.81 51.28 51.28 0 0 1-6.8 2.72c-13.75 4.09-28.28 2.69-42.44 2.92-8.26-.31-16.45.85-24.58 2-13.2 2.22-26.47 4.07-39.58 6.8-7.27 1.45-14.53 2.92-21.86 4.06a41.53 41.53 0 0 1-7.2.87 2 2 0 0 1-1.24-.3Zm1.56-1.72c11.23-1.11 22.19-3.75 33.26-5.88 15.7-2.71 31.43-5.69 47.27-7.44 19.42-2.08 40.06 2.66 58.61-4.93-4.71-1.41-9.31-3.1-14-4.3a194.87 194.87 0 0 0-21.27-2.78c-9.16-.54-18.47-1.62-27.63-.92-7.9.75-15.72 1.47-23.38 3.59-10.9 1.91-21.26 5.75-31.25 10.4-7.46 3.58-15.44 6.58-21.61 12.24ZM22 257.46c-6.33-.86 4.85-10.13 6.63-11.64 13.81-11.24 30.94-17.63 47.91-22.41 6.22-1.48 12.46-3 18.78-3.87 4.75-.53 9.49-.88 14.22-1.45 16.07-1.61 32.58.74 47.15 7.86 5.64 2.32 11.47 4.2 16.92 7 5.26 1.94 10.62 4.6 13.23 9.86a1 1 0 0 1 .82.69 1 1 0 0 1-.1.82 1 1 0 1 1-1.69.87c-5.29 2.08-11 1.31-16.41 0-5-1.15-10.09-2.42-15.19-3.31a219.51 219.51 0 0 0-41.89-2.88c-7 .17-14.07.25-21.08.74-12 1.8-24.17 3.46-35.83 7a169.23 169.23 0 0 0-19.55 6.8c-4.46 1.81-8.99 4.05-13.92 3.92Zm1.61-2.07c5.63-.67 10.56-3.5 15.79-5.42a179.73 179.73 0 0 1 21.27-6.71c10-2.74 20.31-4 30.53-5.58 10.32-.63 20.66-.82 31-.83a156.6 156.6 0 0 1 20.8 1.45 142.15 142.15 0 0 1 20.3 3.29c7 1.45 14.54 4.32 21.62 1.72-2.51-4.43-7.14-6.61-11.72-8.31a126.29 126.29 0 0 0-12-5c-4-1.32-7.73-3.29-11.63-4.84-8.27-3-17-5.12-25.8-5.31a169.19 169.19 0 0 0-66.11 12.05c-12.65 5-27.3 12.37-35.36 23.54h.08a13.07 13.07 0 0 0 1.39-.07ZM200.71 221.39c-15.17-.77-30.09-5.53-44.82-9-4-1-7.95-2-11.87-3.24-3.44-1.21-7.05-2.63-10.66-3-6.1-.95-12.26-1-18.42-1.37a148.08 148.08 0 0 0-29.92.52c-3.37.14-6.77.37-10.15.24-.74-.07-1.73-.29-2-1.13-.25-1.94 3-3.06 4.29-4 11-5 23.26-6.36 35.23-7.16 8.75-.47 17.54-.92 26.29-.1a142.69 142.69 0 0 1 29.91 4.68c6.88 2 13.45 5 20.09 7.73 5.32 2.54 10.15 6 15 9.37 1.59 1.24 3.19 2.47 4.74 3.77a1.38 1.38 0 0 1 .5 1.4.89.89 0 0 0 0-.15c-.16 2.12-6.55 1.37-8.21 1.44Zm3.92-2.08 1.32-.09a126.43 126.43 0 0 0-15.64-10.61c-6-3-12.38-5.22-18.59-7.72-15.78-4.95-32.51-6.43-49-6.08C108.7 195.36 94.3 196 81 201a21.94 21.94 0 0 0-5.13 2.57c8.64 0 17.2-1.45 25.86-1.39 10.57.42 21.29.59 31.78 1.9 5.23.59 9.9 3 15 4.24 6.73 1.85 13.52 3.42 20.27 5.21 11.78 2.57 23.71 6.08 35.85 5.78ZM222 201.74c-10.07-.13-19.64-3.7-29.2-6.51a153.28 153.28 0 0 1-18-6.14 161.8 161.8 0 0 1-19.4-8.09c-6.72-2.32-13.44-4.87-20.14-7.23a106.47 106.47 0 0 0-21.42-3.47c-2.66-.07-10.6.61-7.56-4a4.91 4.91 0 0 1 2.32-1.24 67.63 67.63 0 0 1 7.12-1.84A94.91 94.91 0 0 1 131 162.1c4.88.21 9.81-.06 14.65.7 4.13.79 8.09 2.31 12.26 2.94 7.35 1.86 14.93 3 22 5.79 7.31 2.62 14.73 4.92 21.3 9.17 4.61 2.64 9.52 4.83 13.52 8.39 3.82 3.27 8.65 6 11.18 10.42a1.08 1.08 0 0 1 .75.83c.19 1.92-3.44 1.22-4.66 1.4Zm1.76-2.16c-3.86-4.4-8.67-7.49-13.14-11.11-4.77-3.18-10-5.55-14.94-8.5-5.27-3-11.25-4.4-16.85-6.63-6.42-2.57-13.11-3.49-19.75-5.23-4.88-.83-9.56-2.43-14.4-3.38-4.5-.57-9-.41-13.53-.58a91.49 91.49 0 0 0-12.5.74 38.34 38.34 0 0 0-7.39 1.53c-1.16.45-2.74.44-3.57 1.42 2.2.65 4.45.31 6.69.47a107.56 107.56 0 0 1 18.57 2.78c6.71 1.54 13 4.72 19.54 6.7 5.87 1.88 11.11 5.19 16.94 7.1 9.15 3.56 18.43 6.9 27.87 9.54 8.64 2.44 17.33 5.57 26.45 5.15ZM247.19 175.26c-11.37.32-21.65-5-31.7-9.61-5.45-2.48-10.57-5.63-16.28-7.52-4.91-1.88-9.43-4.45-14.38-5.95-7.47-2.19-15.07-3.68-22.64-5.44-3.92-1.13-7.78-2.44-11.65-3.72-2.37-.84-4.62-2-7.11-2.42-1.41-.3-5-1-2.91-2.88 12.26-5.6 30.59-3.05 43.69-1.21 7.5.89 14.6 3.25 21.81 5.28a110.93 110.93 0 0 1 19 7.71 92.18 92.18 0 0 1 14.81 10.5c3.09 3.16 6.94 5.52 9.69 9 1 1.24 4.25 5.14 1.7 5.8-.92.98-2.79.31-4.03.46Zm.85-2.06h2.05c-3.06-5.51-8.62-8.62-13-13-4.16-3.1-8.24-6.36-12.82-8.82a119.18 119.18 0 0 0-25.77-9.66c-14.62-4.33-40.56-7.81-55-3.2 7 1.88 13.78 5.1 20.88 6.67 10.07 2.29 20.5 4 29.82 8.57 4.29 2 8.83 3.43 13.11 5.48 5.51 3 11.15 5.47 16.81 8.07 7.56 3.5 15.55 6.2 23.88 5.89ZM269.61 151.19c-5.39-.4-10.52-2.4-15.66-4-9.84-3-18.82-8.22-28.6-11.33-9.86-2.7-19.59-6.1-29.66-7.94-8.49-1-17-2.2-25.53-2.68-6.57-.08-13.14.59-19.71.84-2.82 0-5.43.94-8.18.24a1.68 1.68 0 0 1-.5-3.13 17.93 17.93 0 0 1 3.08-1.74c13.86-6.2 29.41-6.8 44.37-6.35 10.28.56 20.56 1.64 30.54 4.27 7.05 1.82 13.91 4.38 20.83 6.66a93.93 93.93 0 0 1 10.41 3.9c5.18 2.45 10.36 4.95 15.35 7.77s9.42 6.34 12 11.46a1 1 0 1 1-1 1.65 27.53 27.53 0 0 1-7.74.38Zm5.48-2 1-.11c-3.64-6.3-10.42-9.64-16.72-12.74-5.62-2.89-11.27-5.77-17.34-7.62-8.59-2.79-17.1-6.09-25.91-8-9.23-2.25-18.78-3-28.25-3.51-15-.29-31 .25-44.52 7.41 11.92-.41 23.93-2.23 35.84-.54 5.65.72 11.34 1.15 17 2 8.48 1.47 16.64 4.32 24.94 6.55 13.11 3.35 24.8 10.61 37.82 14.15 5.29 1.72 10.74 3.1 16.33 2.44ZM299.73 127.87c-10.43 0-20.58-2.4-30.52-5.36-6.31-1.8-12.69-3.32-18.82-5.7-10.5-3.33-20.36-8.28-30.47-12.54-6.35-2.17-12.53-4.78-18.8-7.12-16.8-5.85-34.79-5.31-52.24-3.79-1.91 0-4 .14-5.68-.87a2.48 2.48 0 0 1-.75-3c.43-1.09 1.71-1.25 2.71-1.54 38-9.2 77.81-1.41 113.93 11.84 10 3.47 20.18 6.8 29.74 11.47 6.59 3.27 13.11 7.39 16.86 13.91a1 1 0 0 1 1.2.51c.7 2.49-5.64 2.21-7.16 2.19Zm3.36-2.11.58-.08c-5.45-8.55-15.24-12.56-24.17-16.36-8.29-3.22-16.66-6.17-25.1-9-34.89-12.54-73.64-19.42-110.1-10-.34 1.14 2.69.87 3.4 1 4.63-.11 9.1-.85 13.72-.86 10-.26 20.12-.21 29.93 1.92 8.15 1.51 15.67 5 23.38 7.88 9.86 3.17 18.91 8.35 28.63 11.85a233.09 233.09 0 0 0 25.91 8.3c11 3.27 22.4 5.87 34 5.33ZM320.29 111.38c-7.06.2-14-1.14-20.81-2.84-6.32-2-12.08-5.36-18.11-8-16.72-8.05-33-17.47-51.06-22.19C221 75.36 211.46 73 202 70.61c-6.55-1.63-13.21-2.86-19.57-5.2-4.8-1.83-10.25-1.39-14.84-3.72-2-1.39-.88-3 1.34-3.25 14.89-2.74 30.14-1.1 45 1 9.19 1.24 18 4.1 26.91 6.7 6.94 2.1 13.92 4.06 20.67 6.73 6.29 2.5 12.77 4.53 19 7.29 4.56 2.17 9.09 4.41 13.55 6.76 7.87 4 16.05 7.61 23.22 12.73 3.92 2.41 7.49 5.94 8.28 10.64-.23 2.06-3.84.92-5.27 1.09Zm-.36-2.06 2.39.06h.94c-1.59-5.07-6.47-7.62-10.58-10.34a93.39 93.39 0 0 0-10.11-5.64c-7.81-3.71-15.42-7.89-23.24-11.55a420.17 420.17 0 0 0-58.67-19.15c-16.74-3-34.19-5.12-51.07-2.31 3.66 1.34 7.6 1.27 11.3 2.45 4.07 1.12 8 2.74 12.14 3.56 12.43 2.89 24.82 6 37 9.71 6.52 2 13.13 3.71 19.3 6.65 11.85 5.09 23.18 11.31 34.83 16.82 5.06 2.21 10 5.1 15.23 6.81 6.75 1.7 13.61 3.13 20.54 2.93ZM343.14 94.06a85.11 85.11 0 0 1-18.28-3.65c-7.7-2.7-15-6.47-22.32-10-5.9-3-11.83-6-17.66-9.12a120.84 120.84 0 0 0-19.38-7.65c-11.5-4.18-23.64-6.44-35.26-10.2-2.48-1.35-13.44-2.65-11.34-6.45 5.74-5.54 21.8-3.75 29.37-2.78a126 126 0 0 1 24.23 5.09c9.3 3.12 18.24 7.2 27.22 11.11 8.74 4 17.31 8.33 25.79 12.86 6.19 3.33 12.44 7 17 12.43 1.69 2.11 3.93 4.09 4.6 6.79a1 1 0 0 1 .42.76c-.14 1.86-3.18.75-4.39.81ZM342 91.81c.82.07 1.63.18 2.45.26h.45C340 84.29 332.3 79.1 324.24 75c-7.35-3.9-14.76-7.7-22.31-11.2-17.18-7.89-34.73-15.68-53.76-17.44-7.94-1-20.17-2.43-27.22 1.57 2.55 1.72 5.83 1.81 8.61 3.07 7.89 2.64 16 4.55 24 6.74a242.13 242.13 0 0 1 26.77 9.06c10.09 4.77 19.85 10.33 29.94 15.08 4.09 1.67 7.93 3.87 12.09 5.37A75.47 75.47 0 0 0 342 91.81ZM126.21 455.27c-2.8-1.06-2.62-6.5-3.21-9.07-.6-4.77-.92-9.32-1.52-14-1.27-8.22-3.22-16.3-4.65-24.49-1.53-7.41-2.58-15.08-4.49-22.36a64.21 64.21 0 0 1-2.08-18.41c.06-2 .52-13.36 3.51-11.81 9.82 9.31 15.87 22.06 18.32 35.29a135.23 135.23 0 0 1 3 27.78 97.41 97.41 0 0 1-1.42 21.18c-.67 3.98-2.52 15.74-7.46 15.89Zm.42-2c3.59-3.73 4.05-9.27 5-14.13a108.11 108.11 0 0 0 1.23-25.54 120.12 120.12 0 0 0-3.38-25.33 61.46 61.46 0 0 0-16-30.6c-1.74 5.76-1.35 12-.9 18 1.12 8.56 3.88 16.68 5 25.2 1.85 10.56 4.33 21 6 31.6.59 4.74.93 9.53 1.56 14.24.42 2.19.44 4.62 1.54 6.58ZM151.26 434.28c-3-1-3.06-7.86-3.87-10.59-1.86-8.54-4.13-16.85-6.58-25.24-5-17.2-12.11-34.41-11.63-52.62.52-6-.27-12.48 2.14-18.1a1 1 0 0 1 1.52-1 15.23 15.23 0 0 1 2.55 2.17c4.57 5.32 7.06 11.91 9.12 18.51a114.83 114.83 0 0 1 4.27 16.92c2.11 11.81 3.07 23.8 5.06 35.63a63.07 63.07 0 0 1 1.32 16.16c0 4.4.31 8.88-.89 13.18-.54 1.7-.99 4.93-3.01 4.98Zm.1-2.38c2.21-5 1.82-10.49 1.84-15.79.58-9.62-2.14-18.95-3.14-28.46-1.78-14.14-3.33-28.44-8.22-41.91-2-6-4.39-12.23-9.14-16.55a39.82 39.82 0 0 0-1.32 10.4c-.42 6.67-.51 13.36.78 19.94 1.67 12 6.05 23.29 9.41 34.83 2.48 7.73 4.5 15.81 6.52 23.61 1.33 4.58 1.52 9.52 3.27 13.93ZM185.84 441.57c-2.24-6.31-4.46-12.77-6.32-19.25-2.64-9.52-4.88-19.14-7.16-28.74-2.09-8.67-5.31-17-7.91-25.52-3.51-11.92-7.51-23.74-10.5-35.79a67.45 67.45 0 0 1-2.68-17.63 78.36 78.36 0 0 1 .41-12.06c.12-.68.14-1.48.74-1.93 1.25-2.11 4.57 2 5.72 2.87 2.07 1.88 3.48 4.33 5.09 6.59 13.88 21.69 17.59 47.86 22.38 72.7 1.58 10.91 3.6 21.91 4.53 32.89 0 5.22-.53 10.45-.94 15.65-.36 2.07.06 12.73-3.36 10.22Zm-5.28-22.88c1.66 6.56 4 12.91 6.12 19.33.62-7.32 1.31-14.69 1.48-22-1.1-12.32-3.26-24.51-5.21-36.72-3.18-16.06-5.77-32.35-11.59-47.71a89 89 0 0 0-9.22-19.49c-2.37-3.65-4.89-7.22-8.46-9.79-2.93 20.07 5.07 39.18 10.48 58.11 2.41 8.51 5.43 16.84 8.07 25.28 3.14 10.88 5.33 22.07 8.33 32.99ZM199.78 408.27c-2.54-2.14-1.57-16.32-1.88-20.32a247.47 247.47 0 0 0-3.54-36.46 215 215 0 0 0-10.12-35.19c-2.85-6.6-5.67-13.22-8.81-19.69-2.32-5.33-4.45-10.74-4-16.63a20.77 20.77 0 0 1 .69-5.47 1 1 0 0 1 .35-.42c.76-2.84 5.91 1.17 7.28 2 9.12 5.91 14.65 15.91 17.54 26.17a118.56 118.56 0 0 1 4.45 18.54 329.26 329.26 0 0 1 4.78 47.82c-.16 9.14 1 18.46-1.29 27.42-.65 2.25-2.32 13.96-5.45 12.23Zm.79-2.74a82.3 82.3 0 0 0 3.87-16.83c.45-3.93.09-7.81.11-11.75.21-12.29-.93-24.67-2-36.89-1.6-11.84-3.05-23.85-6.66-35.23-3.09-12.16-10-24.65-22-29.63-2.23 10.05 2.58 19.13 6.83 27.88 3 7 6.14 13.94 8.53 21.16 4.41 13.48 7.89 27.41 9.2 41.56.39 6.35 1.24 12.61 1.39 18.94.23 6.88-.06 13.97.73 20.79ZM215.75 377.15c-.89-.89-.76-2.27-.76-3.43.12-2.22.4-4.42.5-6.64a98 98 0 0 0 .07-19.3c-1.79-15.81-4-31.63-8.42-46.94-2.6-9.29-6.51-18.16-10.28-27-2.35-4.93-4.42-10.07-4.85-15.56-.2-3-.92-6.36.11-9.24.21-1.48 2.19-.91 3.23-.93 3.57-.11 6.59 2.3 9.17 4.49 7.82 7 12.43 16.69 15.8 26.47a89.41 89.41 0 0 1 5.51 22.09c1.26 10.62 1 21.35.91 32-.1 7.94-.28 15.92-1.75 23.73-.9 5.1-3 9.57-4.77 14.33-.81 1.89-1.56 7.85-4.47 5.93Zm1.22-2.41c1.69-5.64 4.44-10.89 5.73-16.61 1.43-6.12 1.7-12.53 2-18.75.16-14.13.83-28.4-1.46-42.4-1.09-7.1-3.43-13.9-6-20.6-2.46-6.52-5.5-12.92-10.12-18.18-2.73-3.35-5.93-6.46-10-8a27.34 27.34 0 0 0-3.27-.21 1 1 0 0 1-.21.21c-.74 8.68 1.94 17 5.79 24.67 3.12 7.59 6.47 15.09 8.85 23 4.8 15.83 7.21 32.24 9.09 48.64 1.3 9.39.11 18.83-.37 28.23ZM235.57 329.65c-1.17-.67-.79-2.23-.85-3.35 0-3.23.07-6.46.08-9.68 0-10.38-.72-20.83-3.08-30.95s0 0 0 .06a214 214 0 0 0-6-20.82c-1.57-5-2.57-10.11-4.61-14.92v.08a67.47 67.47 0 0 1-3.61-10.41c-.71-3.59-1.1-7.25-1.82-10.84a24.11 24.11 0 0 1-.43-4c.61-2.08 3.58-.64 4.93-.09 14.75 7.47 22.51 24.32 26.66 39.58 2.32 8.69 2.71 17.63 2.29 26.57-.22 9.19-2.53 18.07-5.85 26.57-1.07 3.09-3.53 13.36-7.71 12.2Zm.24-31.25c1.14 9.69.95 19.44.84 29.17 3.84-4.62 4.48-11 6.8-16.43 2.54-6.68 3.47-13.83 3.77-20.92 0-4.56.22-9.16-.13-13.71a89.93 89.93 0 0 0-3.76-17.26c-3-8.6-6.75-16.79-12.75-23.69-3.72-4.13-7.93-8.21-13.33-9.73.72 4.83 1.46 9.66 2.41 14.45a98.91 98.91 0 0 0 3.68 10.16c1.71 4.21 2.64 8.67 3.95 13a226 226 0 0 1 6.32 21.79s0 0 0-.06a102 102 0 0 1 2.2 13.23Z" fill="#110802"/><path d="M257.77 339.7c-1.53-3.83-1.27-8.17-1.4-12.23q0-6.59-.34-13.16c-.3-10.12-1-20.23-1.88-30.32-.62-6.15-1.9-12.16-2.89-18.25a234.94 234.94 0 0 0-9.26-34.22 116.75 116.75 0 0 1-6-16.19c-.86-3.55-2.52-7.36-1.79-11a1 1 0 0 1 .79-1.65 28.2 28.2 0 0 1 5 1.35 29.65 29.65 0 0 1 7 3.92c11.27 7.72 15.63 17.84 18.45 30.72 5.41 18.94 6.35 38.81 4.65 58.34-.49 8.62-1.37 17.26-3.66 25.61a124.55 124.55 0 0 1-4.11 12.47c-.68 1.79-2.18 7.85-4.56 4.61Zm1.39-1.75a117.54 117.54 0 0 0 9-41.44c1.49-17.54.89-35.45-3.38-52.57-2-7.1-3.17-14.63-6.77-21.15-4.83-8.17-12.55-15.45-21.87-17.86a.68.68 0 0 1-.18.26c0 4.27 1.64 8.37 2.81 12.43 1.41 5.08 3.57 9.62 5.49 14.46a260.11 260.11 0 0 1 7.27 25.45c1.87 8.59 3.41 17.29 4.51 26 .78 8.7 1.27 17.43 1.79 26.15.13 5.86.55 11.73.47 17.59a49.29 49.29 0 0 0 .86 10.73ZM283.71 307a4.41 4.41 0 0 1-1.18-2.76 43.31 43.31 0 0 1-.62-8c-.15-5.44 0-10.88-.13-16.31a196.41 196.41 0 0 0-3.7-33.51c-2.46-10.71-5.06-21.47-9.15-31.68-3.17-9.82-9.22-18.48-11.59-28.59-.53-1.79-1.42-9.18 1.64-8.12 1-2.31 3.8 1.15 4.84 2 2.31 2.15 4.89 4.05 7 6.45 4.93 6.33 9.48 13.31 11.89 21 4 13 5.18 26.75 6.07 40.29.65 11.08 2 22.19 1.1 33.29-.5 5.56-1.79 11-2.39 16.52-.56 2.15-.49 11.07-3.78 9.42Zm.76-3c.84-3.93 1.09-8 1.73-11.89a111.35 111.35 0 0 0 1.88-14.52c.3-11.35-.95-22.66-1.65-34-1-13.74-2.41-27.73-7.56-40.59-3-5.63-6.24-11.29-10.45-16.1-2-2-4.22-3.75-6.28-5.67a10.42 10.42 0 0 0-2.74-2.14.93.93 0 0 1-.42.57c-1.21 8 4.49 17.36 7.77 24.44a211 211 0 0 1 7.76 20.59c3.66 12.87 7.09 26.09 8.18 39.41a200.13 200.13 0 0 1 1.1 24.72c.1 5.03-.2 10.18.68 15.18ZM310.62 279c-1.12-2.24-.92-5-1.1-7.41-.14-5.34-.34-10.7-.83-16a275.2 275.2 0 0 0-6-30.78v.09c-1.84-7.75-4.66-15.22-6.86-22.87s-4.64-15.4-7.51-22.91c-2.82-7.36-5.85-14.92-5.9-22.9a1 1 0 0 1 .69-1.08c.39-3.43 7.64 3.19 8.85 4 9.57 7.58 15.64 18.31 19.18 29.86a124.45 124.45 0 0 1 6.23 28.58c1.18 18.18 4 37.74-2.28 55.24-.86 1.83-1.79 8.18-4.47 6.18Zm1.22-2.8c7-16.61 5.19-35 4-52.52a130.28 130.28 0 0 0-8.16-38.41c-2.76-7.3-6.43-14.17-11.88-19.73-3.51-3.3-7.11-6.92-11.39-9.13.05 7.22 2.74 14 5.25 20.69 2.95 7.54 5.33 15.28 7.69 23 2.15 7.61 5 15 6.88 22.69 2.17 8.69 4.13 17.42 5.52 26.28 1.76 8.93 1.25 18.14 2.09 27.15ZM337.75 258.49c-3.34-.43-4-22.28-4.42-26a206.72 206.72 0 0 0-4.88-32.87c-3.36-12.25-7.34-24.35-11.91-36.21-3.9-10-8.7-20.62-7.74-31.59a1 1 0 0 1 .81-1.76 24.33 24.33 0 0 1 9.95 5.52c15.48 15.45 17.2 38.63 19.2 59.27 1 14.42 1.39 28.9 2 43.34 0 4.41-.36 8.79-.63 13.19-.24 1.76-.26 7.14-2.38 7.11Zm-.82-8.27c.16.92.33 1.84.48 2.76.1.61.2 1.22.32 1.83a152.76 152.76 0 0 0 .42-29.55c-.3-8-.49-16-1-24.06-1.5-17.71-2.73-41.1-12.67-56-3.31-5.44-7.69-10.62-13.93-12.66-.49 10.89 4.25 21.1 8.09 31q4.45 11.49 8 23.31c4.34 12.54 6.59 25.74 8.06 38.88.87 8.15.92 16.4 2.23 24.49ZM366.91 230.33c-1.11-.18-1.28-1.54-1.51-2.43-.77-3.49-1.35-7-1.94-10.52a156.77 156.77 0 0 0-8.61-32.56c-6.34-15.62-13-31.17-20-46.5a71.35 71.35 0 0 0-3.85-8.92c-1.29-2-5.27-10.16-2.67-11.66.11-3.88 7.11 3.52 8.13 4.38a130.06 130.06 0 0 1 10.95 13.4c14.11 18.08 20.37 40.72 23.24 63.14a87.31 87.31 0 0 1 .28 14.37c-.42 4.93-1.79 9.71-2.37 14.62-.23 1.03-.28 2.72-1.65 2.68Zm-3-21.18c1.14 5.43 1.9 10.93 3 16.37.61-5 2.17-10 2.18-15 .46-11.65-2.14-23.18-4.7-34.45v.07a107.58 107.58 0 0 0-18.56-39.33c-4.79-6.5-9.75-13.16-16.36-17.93-.25 3.42 1.53 6.61 3.11 9.48a54.42 54.42 0 0 1 3.3 7.21c6.05 13.91 12.28 27.71 18 41.76a149.23 149.23 0 0 1 10.03 31.82ZM392 202.17c-1.79-1.06-1.89-3.64-2.49-5.45-.52-2.1-1-4.25-1.51-6.35a130.37 130.37 0 0 0-10.37-29.18c-6.83-16.84-16.18-32.48-24.18-48.75a29.89 29.89 0 0 1-2-13.14c.11-.87.1-2.07 1-2.43a1 1 0 0 1 1.08.39c.42.63-.22 1.19-.18 1.84a1 1 0 0 1 .72.18c1.61 1.23 3.3 2.36 5 3.45 5.56 3.5 9.71 8.71 13.29 14.14 8 12.18 11.81 26.25 15.54 40.16 1.32 5.45 2.81 10.93 4.08 16.38 1 4.37 2.8 8.59 3.07 13.1-.05 3.35 1.82 15.86-3.05 15.66Zm.49-2.36c1-2.17.91-4.54.8-6.85-.23-3.32.07-6.71-.75-10-2.33-8.09-4.23-16.29-6.28-24.34-4.11-15.67-8.5-31.81-18.52-44.85a40.25 40.25 0 0 0-6.45-7c-2.53-2-5.4-3.63-8-5.59-.33 8.11 4.15 14.85 7.76 21.72 3.51 6.32 6.53 12.82 9.91 19.2 3.41 6 5.94 12.46 8.7 18.79a145.45 145.45 0 0 1 7.66 19c2.07 6.62 3.08 13.45 5.2 19.92ZM405.77 184.7c-.8-1.88-.22-4.07-.23-6.06.26-4.62.43-9.21.35-13.82a141.92 141.92 0 0 0-8.52-46.71c-3.51-9.81-9.34-18.5-14.91-27.21-1.28-1.93-2.51-3.72-3.83-5.49-.66-1.14-2.09-2.12-2.18-3.45a1.05 1.05 0 0 1 .32-.56c.12-1.4 1.7-.9 2.62-.68 7.93 1.8 13.45 8.78 17.89 15.15A85.89 85.89 0 0 1 410.8 126a141.88 141.88 0 0 1 2.2 34.53c-.23 5.48-.13 11.16-1.71 16.45-.48 1.62-3.35 10.43-5.52 7.72Zm1.56-3c3.66-6.73 3.48-14.44 3.73-21.86a161.65 161.65 0 0 0-.28-19.69c-.59-4.89-1.08-9.78-2.14-14.59-2.41-8.85-5.61-17.53-10.8-25.12-4.69-7.12-10.08-15.44-18.84-17.7a185.35 185.35 0 0 1 18.34 30c9.14 21.71 11.72 45.63 9.99 68.95ZM422.87 178.8c-1.65-.39-1.58-2.34-1.49-3.68.17-2.94.56-5.86.7-8.8.54-6.08 1.31-12.22 1.58-18.31.09-5.16-.07-10.33-.3-15.49A187.75 187.75 0 0 0 417 99.1c-1.49-5.63-2.58-11.47-5.31-16.67-3.07-5.35-5.16-11.36-4.44-17.6.15-.91 0-2.33 1.11-2.6 1-2.29 6.09 3 7.07 4a50.44 50.44 0 0 1 14.76 26.72 130.3 130.3 0 0 1 3.49 30.85c-.06 14.77-.15 29.73-4.21 44.05-1.02 3.04-2.93 10.79-6.6 10.95Zm.47-2.2c3.3-3.92 4.14-9.31 5.37-14.13 2.32-10.47 2.86-21.1 2.85-31.78A143.53 143.53 0 0 0 429.9 102c-1.31-7.48-2.83-15.12-6.35-21.85l.06.11c-3.58-6.31-8.3-12.28-14.3-16.39-1.52 8.88 2.77 14.28 6 21.87C418 94 420 102.45 422 110.88c1.11 6.14 2.26 12.29 3.05 18.49.56 6 .58 12 .58 18-.33 9.8-1.93 19.48-2.29 29.23ZM440.63 172.17c-.69-.49-.39-1.37-.25-2 .44-2.07.68-4.14 1-6.21 1.36-7.33 2.26-14.55 3-21.93 2.05-20.49.77-41.3-1.91-61.65-.75-4.72-.92-9.63-2.74-14.1-1.67-4.18-8-15.53-5.3-19.31.67-1.25 2-.13 2.92.24a27.65 27.65 0 0 1 7.72 5.58c4.72 4.7 7 11 9.31 17.13 4.18 11.36 5.64 23.48 5.85 35.53a132.72 132.72 0 0 1-1.52 20.3c-.81 11.59-3.07 23.22-8.53 33.55-1.11 2.33-6.94 14.32-9.55 12.87Zm2.19-4.57-.12.82a83.78 83.78 0 0 0 11.68-26.25c1.73-6.47 1.71-13.23 2.74-19.83 2.28-18.13 1.08-37.14-5.56-54.24-3-8.32-7.36-15.78-15.82-19.42.2 8.25 6.39 14.77 7.5 22.82a324.18 324.18 0 0 1 4 58.95 302.48 302.48 0 0 1-4.42 37.15Z" fill="#110802"/><path d="M188.17 416c-.18 7.34-.87 14.71-1.49 22-2.11-6.42-4.46-12.77-6.12-19.33-3-10.92-5.2-22.11-8.33-33-2.64-8.44-5.65-16.77-8.07-25.28-5.41-18.94-13.41-38-10.48-58.11 3.57 2.57 6.1 6.14 8.46 9.79a89 89 0 0 1 9.22 19.49c5.82 15.36 8.41 31.65 11.59 47.71 1.95 12.21 4.11 24.4 5.22 36.73ZM150.06 387.65c1 9.51 3.72 18.84 3.13 28.46 0 5.3.38 10.81-1.83 15.79-1.75-4.41-1.94-9.35-3.26-13.93-2-7.8-4-15.87-6.53-23.61-3.36-11.54-7.74-22.86-9.42-34.83-1.28-6.58-1.18-13.27-.77-19.94a39.82 39.82 0 0 1 1.32-10.4c4.75 4.32 7.13 10.59 9.14 16.55 4.89 13.48 6.44 27.77 8.22 41.91ZM132.85 413.6a108.22 108.22 0 0 1-1.23 25.55c-.94 4.85-1.4 10.39-5 14.13-1.1-2-1.12-4.39-1.54-6.58-.63-4.71-1-9.5-1.55-14.24-1.63-10.59-4.11-21-6-31.6-1.14-8.52-3.9-16.64-5-25.2-.45-5.94-.84-12.21.9-18a61.46 61.46 0 0 1 16 30.6 119.48 119.48 0 0 1 3.42 25.34ZM104.33 369.28c1 13-1.39 25.94-4 38.69-2.62 12.18-7.57 23.66-11.94 35.28-5 13.83-9.18 27.94-14.55 41.63-1.34 3.93-2.43 8-3.37 12-.74 3.16-1 6.45-2.25 9.46-5.52-9.48-3.41-27-3-37.81 1.55-18.54 4.61-37.08 10.29-54.85 2.8-10.13 7.46-19.74 12.19-29.11 3-6.23 6-13.08 11.77-17.19a76.79 76.79 0 0 0-3.66 9.26c-.25.62-.23 1.49.49 1.77a1.41 1.41 0 0 0 1.39-.38c1.89-1.75 3.19-4 4.67-6.1.64-.88 1.33-1.76 1.97-2.65ZM95 351.43c4.43-1.43 9.13-3.35 13.79-1.78-5.23 5.55-12.08 9.19-18.08 13.8A118.14 118.14 0 0 1 78.26 372c-5.45 3.32-10.65 7-16.07 10.41-8.13 5.41-15.94 11.09-23.79 16.93-4.49 3.32-9.47 5.94-14 9.14-2.16 1.34-3.81 3.55-6.18 4.53 3-7.38 8.51-13.7 14.17-19.29 8.24-8.88 18.12-16 27.8-23.22C71 363 82.09 354.92 95 351.43ZM124.64 324.47c-9.29 3.53-18.35 7.72-28.09 10a223.44 223.44 0 0 1-25.42 3.76c-13.73 1.66-27.4 4-41 6.69-7.16 1.6-14 4-21.24 5.43-1.06 0-2.38.26-3.23-.49 1.11-3.77 5.31-5.54 8.31-7.66 6.62-4.36 14.27-6.42 21.5-9.6 19-7 39.16-12.52 59.6-11.86 9.99-.04 19.93.64 29.57 3.73ZM130.72 293.27c4.89.56 9.83.73 14.54 2.45A213.69 213.69 0 0 1 100 306.45c-13.39 1-26.72 2.52-40.1 3.59-13 1-25.55 4-38.2 6.82-5.71 1.42-11.25 3.5-17.08 4.44a3.6 3.6 0 0 1-2.46-.41c3.5-3.7 8.09-6.11 12.67-8.39 4.83-2.16 9.59-4.45 14.61-6.18 6.73-2 13.35-4.36 20.2-5.9 10.69-2.61 21.59-3.94 32.48-5.41 10-1.35 20.2-1.83 30.31-2.31a111.42 111.42 0 0 1 18.29.57ZM150.78 264.71c4.72 1.2 9.32 2.89 14 4.3-18.55 7.59-39.19 2.85-58.61 4.93-15.84 1.75-31.57 4.73-47.27 7.44-11.07 2.13-22 4.77-33.26 5.88 6.17-5.66 14.15-8.66 21.58-12.25 10-4.66 20.35-8.5 31.26-10.41 7.65-2.13 15.47-2.84 23.37-3.59 9.16-.7 18.47.38 27.63.93a192.43 192.43 0 0 1 21.3 2.77ZM184.88 243.31c-7.07 2.6-14.56-.27-21.61-1.72a142.18 142.18 0 0 0-20.3-3.3c-6.89-.76-13.8-1.59-20.75-1.44-10.34 0-20.68.2-31 .83-10.22 1.59-20.53 2.84-30.53 5.58A179.73 179.73 0 0 0 39.42 250c-5.23 1.92-10.16 4.75-15.79 5.42-.42 0-.84.06-1.25.06h-.08c8.06-11.2 22.7-18.57 35.37-23.58a169.13 169.13 0 0 1 66.09-12.09c8.8.19 17.52 2.36 25.79 5.31 3.9 1.55 7.62 3.52 11.63 4.84a125.21 125.21 0 0 1 12 5c4.56 1.74 9.2 3.92 11.7 8.35ZM206 219.22l-1.32.09c-12.14.3-24.07-3.21-35.86-5.79-6.75-1.79-13.55-3.36-20.28-5.21-5.06-1.24-9.73-3.65-15-4.24-10.49-1.31-21.2-1.48-31.78-1.9-8.65-.06-17.22 1.4-25.87 1.39A22.17 22.17 0 0 1 81 201c13.28-5 27.68-5.63 41.74-6.18 16.45-.35 33.18 1.13 49 6.08 6.21 2.5 12.6 4.71 18.59 7.72a125.33 125.33 0 0 1 15.67 10.6ZM223.74 199.58c-9.11.41-17.8-2.72-26.45-5.15-9.44-2.64-18.72-6-27.87-9.54-5.84-1.91-11.07-5.22-16.94-7.1-6.57-2-12.83-5.16-19.54-6.69a106.76 106.76 0 0 0-18.57-2.79c-2.24-.16-4.49.18-6.69-.47.83-1 2.41-1 3.57-1.42a38.41 38.41 0 0 1 7.38-1.54 93.3 93.3 0 0 1 12.5-.73c4.52.17 9 0 13.54.58 4.84 1 9.52 2.55 14.4 3.38 6.63 1.74 13.33 2.66 19.75 5.23 5.6 2.23 11.58 3.66 16.85 6.63 4.91 2.95 10.17 5.32 14.94 8.5 4.47 3.62 9.28 6.71 13.13 11.11ZM250.09 173.22h-2.05c-8.37.31-16.36-2.39-23.9-5.85-5.66-2.6-11.31-5.09-16.81-8.07-4.28-2.05-8.82-3.43-13.11-5.48-9.32-4.6-19.75-6.28-29.82-8.57-7.1-1.57-13.86-4.79-20.88-6.67 14.47-4.61 40.41-1.12 55 3.2a119.18 119.18 0 0 1 25.77 9.66c4.58 2.46 8.66 5.72 12.82 8.82 4.36 4.34 9.89 7.45 12.98 12.96ZM276.06 149l-1 .11h.14c-5.59.66-11-.72-16.33-2.44-13-3.54-24.71-10.8-37.82-14.14-8.3-2.24-16.46-5.09-24.94-6.56-5.63-.84-11.33-1.27-17-2-11.91-1.69-23.92.13-35.84.54 13.51-7.16 29.51-7.7 44.52-7.41 9.47.48 19 1.26 28.25 3.51 8.81 1.94 17.32 5.24 25.92 8 6.06 1.85 11.71 4.73 17.33 7.62 6.36 3.17 13.13 6.51 16.77 12.77ZM303.67 125.68l-.52.07c-11.53.53-22.89-2.06-33.88-5.33a231 231 0 0 1-25.91-8.3c-9.72-3.5-18.77-8.68-28.63-11.84-7.73-2.88-15.23-6.38-23.38-7.89-9.81-2.13-19.93-2.18-29.93-1.92-4.62 0-9.09.75-13.72.86-.71-.13-3.74.14-3.4-1 36.46-9.39 75.21-2.51 110.1 10 8.43 2.8 16.82 5.75 25.09 9 8.94 3.78 18.73 7.8 24.18 16.35ZM323.26 109.4h-.94l-2.39-.06c-6.95.2-13.8-1.23-20.52-2.93-5.25-1.71-10.17-4.6-15.23-6.81-11.65-5.51-23-11.73-34.83-16.82-6.17-2.94-12.78-4.63-19.3-6.65-12.2-3.75-24.59-6.82-37-9.71-4.15-.82-8.07-2.44-12.14-3.56-3.7-1.19-7.63-1.11-11.3-2.44 16.88-2.82 34.33-.69 51.06 2.3a419.87 419.87 0 0 1 58.68 19.17c7.82 3.66 15.43 7.84 23.24 11.55a93.39 93.39 0 0 1 10.11 5.64c4.09 2.7 8.97 5.25 10.56 10.32ZM344.9 92.11h-.45c-.82-.08-1.63-.19-2.44-.26a75.45 75.45 0 0 1-19.65-4.59c-4.16-1.5-8-3.7-12.08-5.37-10.1-4.75-19.86-10.31-29.95-15.07a240.12 240.12 0 0 0-26.77-9.07c-8-2.19-16.11-4.1-24-6.74-2.78-1.26-6.05-1.35-8.61-3.07 7-4 19.28-2.55 27.22-1.57 19 1.76 36.58 9.55 53.76 17.44 7.55 3.5 15 7.29 22.31 11.2 8.06 4.09 15.76 9.28 20.66 17.1Z" fill="#308d8a"/><path d="M447.28 29.63h16.44c-16.32 7.89-32.05 16.9-47.66 26.15-20.2 11.69-40.22 23.8-58.92 37.82-1.47 1.06-2.92 2.14-4.37 3.23a1.17 1.17 0 0 0-.26 0 1.33 1.33 0 0 0-.72.7c-9.62 7.31-18.91 15.13-28.48 22.5-4.55 3.22-9 6.6-13.37 10.07l-.33-.1a1 1 0 0 0-1.17 1.28l-2.15 1.74a188.44 188.44 0 0 0-15.89 14c-9.48 8.31-19 16.57-28 25.47-16.7 16.78-32.13 34.73-47.93 52.34-7.21 7.68-14.47 15.28-21.38 23.18a1.11 1.11 0 0 0-1 1c0 .1-.07.2-.09.3-4.19 4.84-8.24 9.8-12.07 15-4.89 5.48-9.13 11.44-13.57 17.27-4.37 5.1-8.55 10.37-12.46 15.85-5.15 6-9.61 12.62-14.45 18.91-5.17 6.51-10.47 12.92-15.19 19.77-6.1 7.84-11 16.53-16.43 24.8-2.88 4.18-6 8.2-8.8 12.4 4.17-10.45 10.29-19.95 16.29-29.47 4.06-6.21 8.13-12.43 12.32-18.56a.91.91 0 0 0 .27-.39c3.51-5.14 7.12-10.23 10.9-15.19 4-4.79 7.27-10.12 10.94-15.16 4-5.34 8.05-10.69 12-16.1 6.94-9.19 14.52-17.84 21.57-27a379.39 379.39 0 0 1 24.4-30.3c.71-.22 1.18-.58 1.23-1.13a.17.17 0 0 1 0 .07.7.7 0 0 0 0-.32q8.34-9.28 17.18-18.08c10.84-12.91 23.16-24.39 35.58-35.79q8-7.57 16.28-14.83a1 1 0 0 0 1.05-.92c11.92-10.44 24.22-20.45 36.72-30.18 14.41-12.23 29.45-23.64 44.44-35.13 10-7.19 20.36-13.93 30.43-21.07 16.63-11 34.08-20.8 51.25-30.95q2.69-1.63 5.4-3.18Z" fill="#308d8a"/><path d="M451.56 68.1c6.64 17.1 7.84 36.11 5.56 54.24-1 6.6-1 13.36-2.74 19.83a83.78 83.78 0 0 1-11.68 26.25l.12-.82a302.48 302.48 0 0 0 4.44-37.15 324.18 324.18 0 0 0-4-58.95c-1.11-8-7.3-14.57-7.5-22.82 8.44 3.64 12.82 11.1 15.8 19.42ZM429.9 102a142.66 142.66 0 0 1 1.66 28.7c0 10.68-.53 21.31-2.85 31.78-1.23 4.82-2.07 10.21-5.37 14.13.36-9.75 2-19.43 2.31-29.19 0-6 0-12-.59-18-.78-6.2-1.93-12.35-3.05-18.49-2-8.43-4-16.93-6.72-25.16-3.21-7.59-7.5-13-6-21.87 6 4.09 10.67 10 14.24 16.28 3.54 6.68 5.05 14.32 6.37 21.82ZM410.78 140.14a161.65 161.65 0 0 1 .28 19.69c-.25 7.41-.07 15.13-3.73 21.86 1.73-23.32-.85-47.24-10-68.91a185.35 185.35 0 0 0-18.34-30c8.75 2.22 14.14 10.58 18.83 17.69 5.19 7.59 8.39 16.27 10.8 25.11 1.08 4.78 1.57 9.67 2.16 14.56ZM393.31 193c.12 2.31.21 4.68-.79 6.85-2.12-6.47-3.12-13.3-5.17-19.83a145.45 145.45 0 0 0-7.66-19c-2.75-6.34-5.29-12.76-8.7-18.79-3.38-6.38-6.4-12.88-9.91-19.2-3.61-6.87-8.09-13.61-7.75-21.72 2.59 2 5.46 3.54 8 5.59a40.61 40.61 0 0 1 6.45 7c10 13 14.4 29.18 18.52 44.85 2 8 3.95 16.25 6.28 24.34.81 3.16.51 6.55.73 9.91ZM364.36 176c2.56 11.27 5.16 22.8 4.7 34.45 0 5.08-1.57 10-2.18 15-1.07-5.44-1.83-10.94-3-16.37a149.23 149.23 0 0 0-10-31.85c-5.72-14-11.95-27.85-18-41.76a53.05 53.05 0 0 0-3.28-7.21c-1.59-2.87-3.38-6.06-3.12-9.48 6.6 4.77 11.57 11.43 16.36 17.93A107.55 107.55 0 0 1 364.36 176ZM338.15 225.26a152.76 152.76 0 0 1-.42 29.55c-.12-.61-.22-1.22-.32-1.83-.15-.92-.32-1.84-.48-2.76-1.31-8.09-1.35-16.34-2.16-24.49-1.47-13.14-3.72-26.34-8.07-38.88q-3.56-11.81-8-23.31c-3.84-9.94-8.58-20.16-8.09-31 6.24 2 10.61 7.22 13.93 12.66 9.94 14.95 11.17 38.34 12.67 56 .45 8.02.64 16.04.94 24.06ZM315.82 223.7c1.21 17.54 3 35.91-4 52.52-.82-9-.33-18.18-2.12-27.11-1.37-8.86-3.34-17.59-5.52-26.28-1.91-7.67-4.72-15.08-6.87-22.69-2.36-7.74-4.74-15.48-7.69-23-2.51-6.66-5.2-13.47-5.25-20.69 4.28 2.2 7.89 5.83 11.39 9.13 5.46 5.55 9.12 12.43 11.88 19.73a130 130 0 0 1 8.18 38.39ZM286.42 243.57c.71 11.32 2 22.63 1.66 34a111.35 111.35 0 0 1-1.88 14.52c-.64 3.85-.89 8-1.73 11.89-.88-5-.58-10.11-.68-15.16a200.13 200.13 0 0 0-1.1-24.72c-1.09-13.32-4.52-26.54-8.18-39.41a211 211 0 0 0-7.76-20.59c-3.28-7.08-9-16.44-7.76-24.44a1 1 0 0 0 .41-.57 10.38 10.38 0 0 1 2.73 2.13c2.07 1.93 4.28 3.7 6.29 5.68 4.21 4.81 7.46 10.47 10.44 16.1 5.14 12.85 6.54 26.83 7.56 40.57ZM264.79 243.94c4.27 17.12 4.88 35 3.38 52.57a117.32 117.32 0 0 1-9 41.44 48.67 48.67 0 0 1-.85-10.67c.09-5.86-.34-11.73-.47-17.59-.51-8.72-1-17.45-1.8-26.15-1.09-8.72-2.63-17.42-4.5-26a260.11 260.11 0 0 0-7.27-25.45c-1.92-4.84-4.08-9.38-5.49-14.46-1.17-4.06-2.84-8.16-2.81-12.43a.76.76 0 0 0 .18-.26c9.32 2.41 17 9.68 21.87 17.86 3.58 6.51 4.76 14.04 6.76 21.14ZM247.09 276.51c.35 4.55.17 9.15.13 13.71-.3 7.09-1.23 14.24-3.77 20.92-2.32 5.42-3 11.8-6.8 16.43.11-9.73.3-19.48-.84-29.17a100.33 100.33 0 0 0-2.21-13.23c-1.72-7.34-3.87-14.6-6.31-21.73-1.32-4.34-2.24-8.79-3.94-13a99 99 0 0 1-3.69-10.16c-.95-4.79-1.69-9.62-2.41-14.45 5.4 1.52 9.61 5.6 13.33 9.73 6 6.89 9.77 15.09 12.75 23.69a90.09 90.09 0 0 1 3.76 17.26ZM223.22 297c2.29 14 1.62 28.27 1.46 42.4-.28 6.22-.55 12.63-2 18.75-1.29 5.72-4 11-5.73 16.61.51-9.4 1.7-18.84.43-28.25-1.87-16.4-4.28-32.8-9.08-48.64-2.38-7.86-5.73-15.36-8.85-23-3.85-7.64-6.53-16-5.79-24.66a1.7 1.7 0 0 0 .19-.19 23.4 23.4 0 0 1 3.24.21c4.07 1.5 7.27 4.61 10 8 4.62 5.26 7.66 11.66 10.12 18.18 2.58 6.67 4.92 13.47 6.01 20.59ZM202.58 340.06c1 12.22 2.18 24.6 2 36.89 0 3.94.35 7.82-.1 11.75a82.3 82.3 0 0 1-3.87 16.83c-.79-6.82-.5-13.91-.72-20.79-.15-6.33-1-12.59-1.4-18.94-1.3-14.15-4.78-28.08-9.19-41.56-2.39-7.22-5.54-14.15-8.53-21.16-4.25-8.75-9.06-17.83-6.83-27.88 12 5 18.93 17.47 22 29.63 3.59 11.38 5.06 23.39 6.64 35.23Z" fill="#308d8a"/><path d="M416.23 54.82c-1.06.6-2.12 1.2-3.19 1.79-2.06 1.13-4.14 2.22-6.21 3.34a66.26 66.26 0 0 0 9.4-5.13Zm47.56-25.19a.92.92 0 0 1 .11 1.24c-3.19 2.51-7.3 3.76-10.95 5.55-6.87 4.11-14.21 7.34-21 11.51-3.56 2.15-7.07 4.41-10.61 6.61a20.68 20.68 0 0 1-4.44 3 1 1 0 0 1-.81-.09c-9.6 6.16-19.8 11.37-29.09 18.06-2 1.18-3.69 3.08-5.92 3.67a1.11 1.11 0 0 1-1.08-1.36c-18.85 11.46-34.65 27-52.16 40.24-6.08 5-12.42 9.64-18.26 14.92-5.05 4.24-10.58 7.85-15.5 12.24-4.07 3.66-8.52 6.95-12.77 10.31-4.78 5.3-10.74 9.3-16 14.08.22.68-.34 1.31-.72 1.82-1.63 2.08-3.62 3.85-5.41 5.79-6.32 6.7-12.81 13.21-19.11 19.93a77.81 77.81 0 0 0-10.64 13.23c-.47.78-1.26 2.12-2.31 1.43-2.93 3.61-6 7.13-8.82 10.81-.71.91-2.18 3.3-3.14 1.33-2.09 3-4.28 6-6.59 8.88-1 .91-3.47 5.09-4.74 2.94-2.91 4.26-6.7 8-9.84 12.06-3.68 5-7.52 10-11.49 14.72-.74.8-.79 1.94-1.4 2.84-.8 1.15-4.18 7.47-5.55 4.8-6.84 7.36-12.56 16.68-18.41 25.11-4.91 6.7-10.38 13.06-15.48 19.57a38.05 38.05 0 0 0-2.54 3.5c-.39.85-1.69 1.56-2.25.48-6 8.18-11.59 16.59-17.37 24.88-1.65 2.43-3.54 4.69-5.15 7.14-1.71 3.18-3.86 6.06-5.84 9.05-1.41 2.61-2.73 5.26-4.12 7.87-.71 1.32-1.43 2.63-2.2 3.92-.23.71-.94 1.41-1.61 1.27a1.06 1.06 0 0 1-.66-.45 1.41 1.41 0 0 1 .09-1.48c.69-1.13 1.54-2.16 2.14-3.35 1.92-2.93 2.91-6.33 4.87-9.22 4.08-7 9.15-13.39 13.62-20.16 4.16-5.55 7.14-11.81 11.14-17.47 8.54-10.63 17.16-21.2 25.52-32 5.52-8.58 12.28-16.21 18.83-24 6.28-7.51 12-15.46 18.49-22.79 1.55-1.78 3.22-3.46 4.72-5.28 2.81-4.07 5.43-8.28 8.86-11.89 4.41-5.21 9-10.25 13.69-15.22 2.27-2.58 4.77-5 6.86-7.73a1.22 1.22 0 0 1 .87-.48c5.47-5.52 11.15-10.76 16.57-16.29 5.58-6.26 12-11.74 18.13-17.44 5.45-4.63 11.25-8.91 16.11-14.12 3.14-2.57 6.54-4.67 9.45-7.49 5.64-5 11.83-9.41 17.71-14.1 4.67-4 9.32-8 14.31-11.68 13.55-10.62 26.63-21.82 40.09-32.55 6.29-5 13.14-9.11 19.79-13.53 2.84-1.83 5.16-4.34 8-6.13a227.67 227.67 0 0 1 23.62-14 139.07 139.07 0 0 1 13.13-6.9 230.32 230.32 0 0 1 32.22-16.63.85.85 0 0 1 .6-1 9.57 9.57 0 0 1 1.33-.28c.47-.11 1.05-.28 1.45.08a1.55 1.55 0 0 1 1.66.23Z" fill="#110802" fill-opacity=".25"/><path d="m311.08 131.63-1.52 1.37-.85.71a2.44 2.44 0 0 1-.59-1.8c.43-.98 1.76-.69 2.96-.28ZM102.87 369.68a7.19 7.19 0 0 1 1.51-1.89c-.71 1.32-1.43 2.63-2.2 3.92-.23.71-.94 1.41-1.61 1.27.77-1.1 1.55-2.19 2.3-3.3ZM454.62 69.08c.73 3.46 7.65 29.57 2.71 29.14a1.1 1.1 0 0 1-.59-.38c-1.06-2.14-1.36-4.63-1.95-6.94-1-4.26-1.62-8.6-3.71-12.48-1.64-3.66-3.79-6.93-7.46-8.79-.22-.13-.39 0-.55.17a1 1 0 0 1-1.35-.27c-1.52-2.4-2.23-5.43-3.16-8.06-1.15-2.7-2-5.2-3.27-7.78-.78-1.75-3.09-6.91.4-6.74 1.2.44 2.26 1.25 3.44 1.78 2.22 1.44 4.65 2.56 6.75 4.2a24.78 24.78 0 0 1 3.78 5.07 38.53 38.53 0 0 1 4.96 11.08ZM432.76 108.84c-.11 1.76 1 9.67-1.78 9-1-.55-1.34-1.81-1.85-2.77a31.24 31.24 0 0 1-2.08-7.48c-1.85-6-5.25-17.29-11.89-19.2a1 1 0 0 1-.54-1.87A101.63 101.63 0 0 1 408.11 69c-1.09-4.35-1.29-9.87 4.09-4.49 4.72 3.79 9.72 7.75 12 13.53 4.13 9.81 8.13 20.02 8.56 30.8ZM408 117.89c.86 1.73 3.07 6.78.77 7.9a1.45 1.45 0 0 1-1.35-.35c-5.07-5.86-7.44-13.83-13.22-19.11-1.9-2.57-4.61-4.23-6.71-6.56-1.58-1.48-2.34-3.53-3.49-5.33-2.1-3.62-4.29-7.22-6-11-1.51-.71.09-3.57 1.26-1.91 6.72 2 13.8 9.81 17.25 15.78 2.06 3.68 4.41 7.19 6.35 10.93a105 105 0 0 0 5.14 9.65ZM338.72 83.46c1.08 1.12 9.48 9.21 5.18 9.42h.06a1 1 0 0 1-.88-.9h-.26c-3.15.35-6.45-.5-9.59-1-2.77-.68-9.07-.87-10.34-3.67-6.44-1.74-12.52-4.71-18.55-7.52-1.56-.55-1-2.52.65-2 4.72 1 9.56 1.67 14.1 3.34a2.1 2.1 0 0 0 1.24.08 4.28 4.28 0 0 0 2.07-3.84c-.41-1.83-1.84-3.37-3-4.81a.94.94 0 0 1 0-1.88c1.69 0 2.35 1.93 3.28 3.06a1 1 0 0 1 .84 0 34 34 0 0 1 7.84 4.57c2.42 1.85 5.43 2.74 7.36 5.15ZM321.41 105c1.13 1.13 4.67 5.23 1 5-11.62-.68-23.47-1.48-34.23-6.3-3.28-1.05-6-3.23-8.95-4.86-1.28-1-2.5-1.56-3.71-2.51a1 1 0 0 1-.57-.88 1 1 0 0 1 1.6-.75c.58.15 1.19.22 1.78.33 3.66.89 7.49.78 11.22 1.15 4.67.51 10.63 2 13.62-2.8a1 1 0 0 1 1.12-1.38 1.38 1.38 0 0 1 .58 2.15c2.85 1.78 6.12 2.72 9 4.53s5.06 4.32 7.54 6.32ZM382.5 140.12c.39 1.55 3.92 9.68.36 8.57-6-5.16-8.29-13.56-14.52-18.52-3.68-2.71-7.45-5.46-10.36-9-1.42-2.37-3.09-4.66-3.61-7.41s-2.42-4.95-2.65-7.73a12.92 12.92 0 0 1 .33-4.37 1 1 0 1 1 .85-1.84c.62-.66 2-.33 2 .69 10.02 4.72 24.26 28.87 27.6 39.61ZM361.19 163.22c.6 1.68 5.08 10.37 1.17 9.67a2 2 0 0 1-.8-1.12c-.86-2-1.55-4-2.27-6a51.84 51.84 0 0 0-8-13.52c-1.59-2.18-11-15.1-13.47-12.19-.69 1.17-1.95.26-2.17-.76-.74-2-1.95-3.9-2.37-6.06-1.19-3.6-2.75-7-3.63-10.76-.38-1.49-1.09-3-1-4.54a1.48 1.48 0 0 1 .32-.69l.23-.18c1.83-.92 7 5.92 7.63 7a22.62 22.62 0 0 0 5.56 6.81c5.31 7.82 11 15.42 15.25 23.93 1.1 2.83 2.49 5.59 3.55 8.41Z" fill="#110802" fill-opacity=".25"/><path d="M336.7 182.64c-.1 1.35 1 5.45-1.25 5-.91-.48-.93-1.75-1.33-2.59-.83-2-1.57-3.95-2.29-5.95-2.08-4.78-7.21-16.24-13.23-16a1 1 0 0 1-1.65-.85c-1.66-3.52-2.23-7.56-3.75-11.12a41.46 41.46 0 0 1-2.39-7.53c-.28-2.91-.17-5.84-1.43-8.57a4.21 4.21 0 0 0-.67-1.34l.85-.71 1.52-1.35c.68.25 1.32.53 1.71.65 5.12 1.7 8.47 6.14 11.15 10.58 8.26 10.79 9.07 17.27 11.46 30.1a46.49 46.49 0 0 1 1.3 9.68ZM300.31 120.38c1 1.22 5.65 3.69 3.2 5.28-.28.49-.89.51-1.38.53-1.94.09-3.88.1-5.81 0-4.27-.27-8.81-.54-12.81-2-4.91-.62-9.68-1.85-14.49-2.9-2.25-.41-4.49-.84-6.69-1.47a1 1 0 0 1-.73-1.28 1 1 0 0 1 1.12-.6c5.93.73 12.41.31 17.51-3 1.52-.84 3.11-1.9 3.75-3.59-1.06-1.79 2.34-2.24 2-.24a17.71 17.71 0 0 1 5.68 3 41 41 0 0 1 8.65 6.27ZM317 223.88c.39.76.11 1.92-.91 1.86-.73-.05-1-.83-1-1.45-2.29-5.89-5.24-11.46-8-17.11-2.88-6.24-5.53-12.69-9.48-18.33-1.87-2.66-3.34-5.84-6.24-7.54a1 1 0 0 1-1.51.2c-.38-.48-.47-1.13-.84-1.64a1.22 1.22 0 0 1-.57-1.23c-1.73-5.54-3.52-11.09-4.26-16.87-.46-2.71-1.28-8.15 2.93-4.26 2.74 2.53 5.91 4.6 8.07 7.68 2.85 3.1 5.75 6 7.78 9.73 2.42 5.12 4.93 10.31 6.88 15.61 1.68 3.92 3.51 7.8 4.33 12a126.56 126.56 0 0 1 2.55 18c.1 1.21.2 2.21.27 3.35ZM276.44 147.5c1.05.78 1.23 2.32-.4 2.37-.82 0-1.64 0-2.46-.07-9.78-1.11-19.27-4.13-28.48-7.46-2.44-.74-4.85-1.55-7.2-2.52-.69-.15-1.34-.83-.93-1.54.56-.87 1.76-.62 2.62-.47a63.91 63.91 0 0 0 7 1.15c2.24.25 5.11.89 6.9-.89 1.11-1.56.5-4-.78-5.22-.57-.54-1.54-.23-1.6-1.27a1 1 0 0 1 .91-1c1.65.07 2.83 1.54 3.41 3a45 45 0 0 1 13.57 6.85c2.74 2.07 4.84 4.85 7.44 7.07ZM244.42 166c2.78 2.34 11.43 10.09 2.1 8.7-6.46-1.14-13.2-1.66-19.26-4.25-2.23-1-4.36-2.17-6.61-3.08-3.33-1.61-6.64-3.67-10.14-4.83-1.3-.38-2.59-.8-3.86-1.24-.47-.16-1.09-.28-1.37-.72a1 1 0 0 1 .78-1.48 40.19 40.19 0 0 0 5.61.5 120 120 0 0 0 14.31.51c2.31-.3 4.67 0 6.66-1.18a1 1 0 0 1 .27-1.5c-.7-1.77 2.11-2.42 1.85-.46a4.72 4.72 0 0 1 .21.8 2.36 2.36 0 0 1 0 .46 95.82 95.82 0 0 1 9.45 7.77ZM286.42 230c0 .81.09 1.91-.77 2.32a1.11 1.11 0 0 1-1.32-.39c-1.52-2.58-1.64-5.68-2.21-8.55-1.7-6.4-3.2-13.24-7.88-18.2-1.73-1.72-4.21-3.05-6.7-2.44a.92.92 0 0 0-.8 1.09 1 1 0 0 1-1.3 1.34c-.94-.61-.69-2.06-.29-2.93-2.38-2.74-3.63-6.21-4.74-9.61s-2.82-7.14-1.77-10.76c-.17-1.13-.95-3.41.84-3.48.77.12 1.2.91 1.87 1.25 3.83 3.1 7 6.86 10.18 10.52 3.09 3 5 6.89 7.14 10.52a65.65 65.65 0 0 1 4.79 11.73c1.15 4.23 1.54 8.61 2.39 12.9a33.74 33.74 0 0 1 .57 4.69ZM225 199.23c.56 1.2-.66 1.92-1.74 1.72a87.56 87.56 0 0 1-15-3.23 139 139 0 0 1-15.52-3.84c-4.89-1.74-9.74-3.55-14.68-5.09-2.34-.89-5.26-.63-7.28-2.16-.57-1.14.61-1.69 1.6-1.46 1.15.06 2.27.06 3.41.08 8.25 0 16.72.87 24.82-1a1.65 1.65 0 0 0 1.07-1.16 2.79 2.79 0 0 1 .24-.74c.81-1 2.17.07 1.63 1.18 2.78 1.61 5.66 3.1 8.43 4.74a66.84 66.84 0 0 1 9.9 7.65c1.02 1.08 2.38 1.97 3.12 3.31ZM269.24 268.05c.18.94-.16 2.41-1.41 2a1.21 1.21 0 0 1-.66-.67c-.49-1.39-.95-2.81-1.5-4.18-1.34-3.93-2.71-7.83-4.43-11.62-2.6-5.13-5.09-13.87-10.2-16.79a16.13 16.13 0 0 0-4-1.3c-.44.09-.38.79-.39 1.15a.89.89 0 0 1 .26.6.91.91 0 0 1-.08.41c.92 2-1.56 2.77-2 .59-.58-3.18-2.06-6.21-3.27-9.15-1.62-4-2.82-8.06-4.07-12.15a91.29 91.29 0 0 1-2.51-9.86 2 2 0 0 1 .14-1.61 2.62 2.62 0 0 1 1.78-.66 1.91 1.91 0 0 1 1.12-.32c1.88.25 3.63 1.21 5.42 1.8a24 24 0 0 1 5.07 3.39 25.57 25.57 0 0 1 4.92 4.18c3.68 4 7 8.35 8.89 13.47.49.93 1.44 2.59-.19 2.94 3.52 10.53 5.2 21.63 6.64 32.59.23 1.75.38 3.43.47 5.19ZM205.61 217.6c1.73.9 1.63 2.94-.58 2.73-4.93-.57-10-.49-14.83-1.59-5.27-1.49-10.75-1.86-16.07-3.07-3.11-.37-6.13-1-9.24-1.27-1.06-.13-2.13-.27-3.19-.44-.73-.07-1.78-.26-1.69-1.22a1 1 0 0 1 1.07-.91c1.29-.09 2.47-.31 3.75-.43 4.11-.18 8.36-.1 12.45-.39 3.59-.28 7-1.09 7.89-5a1 1 0 0 1 2-.06c4.68 1.59 8.42 5.11 12.42 7.88 2.19.87 3.9 2.64 6.02 3.77ZM247 271.2a1 1 0 0 1-1.88.45c-1.33-5.86-5.35-10.55-9.15-15-2.85-3.31-6.74-8.7-11.73-7.27a2.58 2.58 0 0 1 .14.67 1.08 1.08 0 0 1-1.38 1.1c-.91.23-1.35-.77-1.18-1.54a52.54 52.54 0 0 1-3.66-13.23 30.91 30.91 0 0 1-1.2-6.68.93.93 0 0 1 .31-.88 6.47 6.47 0 0 1-.07-2.44.89.89 0 0 1-.18-.56 1 1 0 0 1 1.22-1 6.8 6.8 0 0 1 2.44 1.43c3.87 3.22 8.18 5.92 11.59 9.65a20.16 20.16 0 0 1 3.91 5 34.56 34.56 0 0 0 2.86 5.29 1.38 1.38 0 0 1 .34 1.63c1.55 1.8 2.16 4.29 2.93 6.42a60.06 60.06 0 0 1 2.34 6A82.91 82.91 0 0 1 247 271.2ZM223 290.28a8.05 8.05 0 0 1-.07 4.11 1 1 0 0 1-1.68-.15 43.89 43.89 0 0 0-8.24-18.68 22.39 22.39 0 0 0-7.12-6.54 10.4 10.4 0 0 0-6.91-1.56 3.85 3.85 0 0 0-1.86 2.85 1 1 0 0 1-1.79.19 2.22 2.22 0 0 1 .17-1.67c-1.47-2.82-3.8-18.92-.73-20.37.74-.24 1.43.27 2.05.63a29.6 29.6 0 0 1 4 2.65 54 54 0 0 1 16.15 20.5c2.19 5.98 4.91 11.76 6.03 18.04ZM181.31 238.37c1.32.82 6.68 4.48 4.15 6a37.38 37.38 0 0 1-11.8.81c-3.64-.5-7.44-.07-11-1.26a26.16 26.16 0 0 0-5-1.74 21.12 21.12 0 0 0-4-1.23c-.76-.16-1.68-.07-2.28-.64-.77-.95.36-1.84 1.28-1.93 3-.6 6.1-.37 8.9-1.77 2.3-.73 4.1-2.37 3.16-4.91a1 1 0 0 1-.56-1.46c.88-1.18 2.23 0 2.46 1.09 1.27.37 2.44 1.38 3.6 1.87a81.35 81.35 0 0 1 11.09 5.17ZM165.62 268.12a1 1 0 0 1 .65 1.26 1.39 1.39 0 0 1-.73.7c-1.21.53-2.38.94-3.61 1.36-3.1 1.09-6.38 1.28-9.62 1.71-3 .36-6 1.18-9.1 1-.47-.05-1 0-1.35-.43-6.29 1-12.64.87-19 1.5a1 1 0 0 1-.7-1.73 4.37 4.37 0 0 1 1.75-.54c5.33-1.09 12-3.43 14.6-8.57a7 7 0 0 1 1.12-2.82c1-.27 1.32.72 1.22 1.54 6.48.79 13 1.4 19.26 3.27 1.37.35 2.75.69 4.11 1.08.54.1 1.13.19 1.4.67ZM200.8 318.35c.16 1.5 2.06 7.44-1 6.25-2.45-3.25-2.62-7.68-5-11-2.54-5.27-4.51-11.14-9.36-14.77-1.94-1-4.55-2.57-6.79-2.06a1 1 0 1 1-1.42 1.27 2.32 2.32 0 0 1-.49-1.11c-.78-1-.68-2.32-.94-3.48a29 29 0 0 1-1.39-5.25 32.58 32.58 0 0 1-1.79-9.1c0-1.64-1-6.32 1.86-5.61 8 4.82 13.8 12.56 18.72 20.32 4.03 7.61 6.01 16.19 7.6 24.54ZM181.1 361.13c.11.79.56 1.9-.27 2.45a1 1 0 0 1-1.18-.11c-.66-.67-.55-1.79-.73-2.66-.71-5.31-3.95-9.88-5.84-14.82a32.54 32.54 0 0 0-5-9.11c-3-4.62-6.13-9.45-12.44-8.12a1.06 1.06 0 0 1-1.56.82c-.63-.4-.8-1.2-1.08-1.85-.6-.32-.59-1.1-.62-1.68-.15-1.93.1-3.86-.09-5.78 0-5-1.33-10.15-.54-15.12a4.32 4.32 0 0 1 .56-1.14c-.28-2.63 1.38-2.92 2.87-1 3.91 1.16 6.19 4.41 7.71 8 1.3 2.71 4 5.18 4 8.24a76.66 76.66 0 0 1 7.44 17.72 93.63 93.63 0 0 1 3 10.11c1.4 4.63 2.84 9.27 3.77 14.05ZM145.94 295.26c.49.78-.25 1.5-1 1.68a35.49 35.49 0 0 1-6.67 1.63 28.46 28.46 0 0 1-4.09 1.56c-4.59 1.44-9 3.29-13.75 4.32-1.12.44-4.37 1.34-3.61-.91-3.39.61-6.73 1.36-10 2.29a101.58 101.58 0 0 0-11 2.71c-1 0-2-1.86-1.19-2.64 1.54-1.27 3.24-2.32 4.74-3.64a37.35 37.35 0 0 0 8.13-9.13c-.63-1.27 1.43-2 1.89-.75a1.2 1.2 0 0 1 1-.44 137.85 137.85 0 0 1 20.11.81c3.27.32 6.53.67 9.8.9.89.09 2 0 2.57.8.9.31 2.33-.08 3.07.81ZM118 322.57c2.07.4 11.82.12 6.62 3.72a20.29 20.29 0 0 1-4.1 1 48.07 48.07 0 0 1-4.89 1.36c-5 1.8-10.11 3.3-15.07 5.21-3.75 1.07-7.67 2-11.15 3.73-.69.53-1.57.91-2-.14a1.16 1.16 0 0 1 .75-1.36c.61-.46 1.18-.87 1.8-1.31 4-3.19 8.14-7.33 8.73-12.56a1 1 0 0 1-.66-.77.78.78 0 0 1 0-.34 1 1 0 0 1 .44-1.76 1.94 1.94 0 0 1 1.44.9c6.09.29 11.98 1.84 18.09 2.32ZM148.12 360.6a50.66 50.66 0 0 1 2.09 16.56c-.23 1.42.62 5.9-1.52 5.62-.71-.17-.86-.95-1.07-1.55-1.68-3.51-2.5-7.36-3.76-11-1.66-4.55-6.61-20-11.89-20.26a1 1 0 0 1-1.89-.4 91.73 91.73 0 0 0 .62-10.21 80.1 80.1 0 0 1 1-10.48 1.16 1.16 0 0 1 1.88-.85c4.77 5 7.53 11.41 10.23 17.69a86 86 0 0 1 4.31 14.88ZM133 407.24c.3 1.1.58 3.27-1.23 2.69-.66-.39-.73-1.25-.92-1.92a39.1 39.1 0 0 0-1.28-5.57 59.53 59.53 0 0 0-7.82-16.84 46.51 46.51 0 0 0-9-8.15c-1.83-.09-1.37-2.59-1.45-3.85a33.68 33.68 0 0 0-.42-6.34c0-3.25-1-7.23 1.25-9.93a1.87 1.87 0 0 1 2.6 0c1.87 1.47 2.79 3.74 4 5.72a61.27 61.27 0 0 1 5.74 10.39 120.31 120.31 0 0 1 5.74 16.37c1.17 5.73 1.25 11.73 2.79 17.43ZM105.79 368.2c.26 2.79-.64 5.66-.71 8.49-1.08 11-1.54 22.11-4.16 32.85-1.43 5.09-3.1 10.12-4.48 15.22-2.45 6.61-4.83 13.28-6.92 20-1.89 5.46-3.15 11-5.61 16.2-.74 1.19-1.47 5.41-3.3 3.51-.53-1.48-.07-3.17.08-4.7.29-1.82.63-3.72.91-5.51 1.23-9.21 2.53-18.39 5.14-27.33 2.18-7.63 4.19-15.31 6.35-22.94 2.21-8.61 5.54-17.28 5.59-26.23-.24.19-.48.38-.7.58a.94.94 0 0 1-1.86-.14 1.62 1.62 0 0 1 .82-1.46 3.42 3.42 0 0 1 1.81-1.05c.58-.92 1.2-1.81 1.82-2.7.67.14 1.38-.56 1.61-1.27.77-1.29 1.49-2.6 2.2-3.92.45-.31.93-.31 1.41.4ZM109.58 347.86c1.29 1.57-.4 3.31-1.73 4.15-4.38 3.05-9.43 5.16-13.35 8.85-1.25 1.08-3 1.79-4.12 3-1 1.07-2.26 1.86-3.18 3a1 1 0 0 1-.66 1.18 1.35 1.35 0 0 1-.82 0 29.12 29.12 0 0 1-3 3.3 1.08 1.08 0 0 1-.78.27 1 1 0 0 1-.38-1.77 60 60 0 0 0 6.92-8.56c2-3.46 3.69-7.05 5.61-10.53a3.17 3.17 0 0 1 3-2.07c2.36-.41 4.58-1.12 7-1.11 1.83-.24 4.08-1.24 5.49.29Z" fill="#110802" fill-opacity=".25"/><path d="M169 366.43a115.91 115.91 0 0 1-3.32-17c-1.28-7.85-3.73-15.47-4.8-23.36a.94.94 0 0 1 1.85-.31c.88 6.57 2.78 12.95 4.08 19.45 1.38 6.88 1.92 13.94 4 20.62a.94.94 0 0 1-1.81.6ZM77.48 443.69a.94.94 0 0 1-.7-1.13c.65-3.37 1.23-6.76 1.93-10.13a138.85 138.85 0 0 1 5.19-17.34c1.41-4.25 3.79-8.28 4.56-12.71a.94.94 0 0 1 1.87.06c-.51 4.13-2.72 7.84-4.07 11.73-1.67 4.36-3.05 8.85-4.39 13.25-1.22 4.18-1.92 8.47-2.73 12.74-.43 1.08.01 3.73-1.66 3.53ZM118.25 374.21a1 1 0 0 1-.84-1c.18-1.31.37-2.62.65-3.92.35-1.11.71-4.44 2.42-3.78 1.12.67-.06 1.84-.22 2.74a40.59 40.59 0 0 0-1 5.15.94.94 0 0 1-1.01.81ZM122.45 373.75c-1.09-.29-.64-1.44-.39-2.13a1 1 0 0 1 1.17-.84c1 .26.76 1.21.47 1.87-.11.62-.54 1.28-1.25 1.1ZM223.4 234a.94.94 0 0 1-.85-1c.21-1.42.45-2.84.59-4.27-.65-.81.44-1.92 1.29-1.42 1 .59.5 1.94.45 2.88-.37 1.06.12 3.81-1.48 3.81ZM227.6 239.19c-1.52-.35-.6-2.45-.59-3.54.26-.93.36-2.87 1.75-2.49 1.27.6.08 2 .07 3-.29 1.01.3 3.03-1.23 3.03ZM231.2 244.69a1 1 0 0 1-.7-1.13 18.15 18.15 0 0 0 .39-5.09c0-.46-.18-.9.1-1.3a1 1 0 0 1 1.7.38 16.36 16.36 0 0 1-.17 5.37c-.1.79-.23 1.99-1.32 1.77ZM206.05 274.44c-1.08-4-2.7-7.75-4.05-11.65a.94.94 0 0 1 1.79-.57c.76 1.95 1.44 4.17 2.21 6.06a48.08 48.08 0 0 1 1.84 5.59.94.94 0 1 1-1.79.57ZM217.54 318.2c-1.22-6.53-2.41-13.06-3.14-19.67-.75-5.23-1.66-10.63-4.67-15.09a.94.94 0 0 1 1.59-1c4.93 7.47 4.74 16.81 6.23 25.34.6 3.37 1.25 6.74 1.84 10.11a.94.94 0 0 1-1.85.31ZM193.17 319.85a45.45 45.45 0 0 0-4.58-11.62c-1-1.08.39-2.58 1.36-1.38 1 1.65 6.72 12.86 4.4 13.61a.94.94 0 0 1-1.18-.61ZM57.19 237c-.63-1.6 2.83-2.11 3.86-2.68l3.88-1.37a1 1 0 0 1 1.18.61 1 1 0 0 1-.62 1.18c-1.74.6-3.48 1.22-5.2 1.88-.98.18-2.36 1.59-3.1.38ZM85.54 231c-3.75-2.83 10-4.08 11.43-4a.94.94 0 0 1 .07 1.88 30.25 30.25 0 0 0-10.46 1.85 1 1 0 0 1-1.04.27ZM154.36 234.29c-13.77-3.74-27.8-7.07-42.17-6.6a.94.94 0 0 1-.06-1.88c8.68-.42 17.23 1.09 25.77 2.35 5.65 1.35 11.26 2.87 16.89 4.3a.94.94 0 0 1-.43 1.83ZM56.43 277c-.94-3.12 15.87-4.49 18.53-5.32 2.45-.48 4.9-.95 7.36-1.39a.94.94 0 1 1 .32 1.85c-8.08 1.83-16.51 2.33-24.38 4.95a.94.94 0 0 1-1.83-.09ZM109.14 267.9a1 1 0 0 1 .77-1.08 80.81 80.81 0 0 1 14-.1.93.93 0 0 1 .85 1 1 1 0 0 1-1 .85c-1.38-.07-2.75-.13-4.13-.18a75.89 75.89 0 0 0-8.26.13c-.81.09-2.01.48-2.23-.62ZM109.57 298.23a.94.94 0 0 1 .91-1c4.07-.16 8.15 0 12.21-.23a.93.93 0 0 1 1 .78c.13.75-.59 1.18-1.26 1.14-1.82.09-3.65.07-5.47.09-2.13 0-4.27 0-6.4.1a1 1 0 0 1-.99-.88ZM54 304.74a1 1 0 0 1 .77-1.09c2-.3 4.07-.64 6.11-1a.94.94 0 0 1 1.08.76 1 1 0 0 1-.76 1.09c-2 .36-4.07.7-6.11 1a1 1 0 0 1-1.09-.76ZM68.68 302.63a1 1 0 0 1 1.91-.06 1 1 0 0 1-1.91.06ZM75.58 328.89c-.82-3.35 23.65-3.87 26.78-3.94l5.63-.08a.94.94 0 0 1 .06 1.88 208.64 208.64 0 0 0-25.24 1.37 52.59 52.59 0 0 0-6 1.38.94.94 0 0 1-1.23-.61ZM252 231c-1.09-2.7-1.34-5.89-3.09-8.26a1 1 0 0 1 .11-1.33c.79-.64 1.54.24 1.94.89 1.36 2.54 1.85 5.44 2.83 8.14a.94.94 0 0 1-1.79.56ZM258.81 270.07c-.71-4.42-.48-9-1.66-13.35-.2-.68-.44-1.65.44-1.92 1.65-.45 1.52 2.88 1.9 3.94.75 3.7.55 7.32 1.19 11a1 1 0 0 1-1.87.33ZM237.49 275.69c-2.2-7-2.49-14.74-5.7-21.37l-.12-.15c-2.29-1 .91-3.93 2.42.59 2.07 4.95 2.81 10.29 3.9 15.49.42 1.63.88 3.25 1.29 4.88a1 1 0 0 1-.62 1.17.92.92 0 0 1-1.17-.61ZM273.81 205c-1.67-5.89-4.84-10.86-8-16a.94.94 0 0 1 1.58-1c2.61 4.48 5.68 8.78 7.27 13.76.17 1.12 1.82 3.21.31 3.87a1 1 0 0 1-1.16-.63ZM289 171.45c-.32-2.12-.39-4.27-.81-6.36a.94.94 0 0 1 1.61-1 4.77 4.77 0 0 1 .45 1.78c.21 1.75.39 3.5.61 5.24a.94.94 0 0 1-1.86.32ZM291.93 179.82c.27-1.61-.62-10.71 1.68-10.08.93.23.73 1.22.53 1.91a29.87 29.87 0 0 0-.24 3.39c0 1.57-.06 3.14-.09 4.71a.94.94 0 1 1-1.88.07ZM310.48 221.58c-.33-4.11-.6-8.14-1.92-12-.78-2.47-2.06-4.77-2.91-7.11a.94.94 0 0 1 1.75-.68c1.55 3.78 3.41 7.39 4 11.45a79.89 79.89 0 0 1 .93 8.32.94.94 0 1 1-1.88.06ZM325.15 158.06c-1.24-3-2-6-3.31-8.92-.75-1.43-1.46-2.88-2.09-4.37a1 1 0 0 1 .46-1.25c1.58-.55 1.71 2.18 2.45 3.1 1.92 3.38 2.77 7.33 4.28 10.87a.94.94 0 0 1-1.79.57ZM329.3 173.33a46.08 46.08 0 0 0-1.48-6.32.94.94 0 0 1 1.7-.8 41.34 41.34 0 0 1 1.64 6.8 1 1 0 0 1-.77 1.09 1 1 0 0 1-1.09-.77ZM331.26 189c-.07-1.7-.1-3.39-.13-5.09a.94.94 0 1 1 1.87-.06c0 1.69.07 3.39.14 5.08a.94.94 0 0 1-1.88.07ZM210.77 152.31c-6.16-2.34-12.85-3.19-18.79-6.09a1 1 0 0 1-.39-1.27c.59-1 1.65-.17 2.39.17 5.67 2.28 11.73 3.3 17.45 5.44a.94.94 0 0 1-.66 1.75ZM227.61 161c-1.3-.76-8.07-3.54-6.91-5.31a1 1 0 0 1 1.31-.23 21.15 21.15 0 0 0 4.29 2.78c.87.64 3.15.89 2.58 2.38a.94.94 0 0 1-1.27.38ZM179.35 181c-3.48-1-6.94-2-10.31-3.32a.94.94 0 0 1 .66-1.76c2 .71 4 1.47 6 2.07 1.36.4 2.73.77 4.09 1.18a.94.94 0 1 1-.43 1.83ZM196.56 188.55c-.69-.71-2.58-1.31-1.86-2.57 1-1.14 2.1.53 3 1a.94.94 0 0 1-1.14 1.57ZM251.69 144.74c-.76-.49-1.49-1-2.22-1.53-1.19 1.42-2.31-1-3-1.76-1.33-1.54.31-2.91 1.76-1.57 1.52 1.12 3 2.3 4.59 3.31a1 1 0 0 1-1.13 1.55ZM262.15 149.89c-1.76-1.8-3.59-3.55-5.34-5.36-.62-.95-2.76-2.08-1.66-3.3a1 1 0 0 1 1.34.11c1.31 1.54 2.73 2.95 4.17 4.37.93.92 1.85 1.86 2.76 2.8a1 1 0 0 1 .06 1.33.94.94 0 0 1-1.33.05ZM268.05 150.18c-1.79-1.83-3.67-3.57-5.48-5.38-.62-.52-1.34-1.49-.43-2.11.62-.39 1.15 0 1.46.47.88.9 1.8 1.77 2.71 2.64s2 2 3 3a1 1 0 0 1 .06 1.34 1 1 0 0 1-1.32.04ZM285.68 122.56c-.79-1.12-5.27-4.14-3.81-5.41a1 1 0 0 1 1.33.12 49.52 49.52 0 0 0 3.76 3.9 1 1 0 0 1-1.28 1.39ZM290.4 123.36a29.28 29.28 0 0 1-2-3.61 1 1 0 0 1 1.72-.81 26.55 26.55 0 0 0 1.83 3.41.94.94 0 0 1-1.55 1.01ZM250.45 110.19c-3-1.13-5.93-2.64-9-3.75a33.68 33.68 0 0 1-4.46-2.22 1 1 0 0 1-.39-1.27c1-1.43 2.95.85 4.16 1.17 3.49 1.32 6.85 3 10.33 4.31a.94.94 0 0 1-.64 1.76ZM269.62 116.5a35 35 0 0 0-3.84-1.11c-.77-.06-1.85 0-1.78-1.1.38-2 5 .18 6.28.45a.94.94 0 0 1-.66 1.76ZM352.34 157.35a74 74 0 0 0-4.71-10.77c-.39-.65-1.06-1.57-.2-2.14a.93.93 0 0 1 1.29.28c1.13 1.92 2 4 3 6a35 35 0 0 1 2.44 6.1.94.94 0 1 1-1.79.56ZM360.86 180.82c-.95-2.9-2.08-5.73-2.94-8.65a1 1 0 0 1 .62-1.18.94.94 0 0 1 1.17.61c.87 2.92 2 5.75 2.94 8.65a.94.94 0 0 1-1.79.57ZM295.51 96.2a183.47 183.47 0 0 0-20.25-9.94.94.94 0 0 1 .66-1.76 177.28 177.28 0 0 1 16.74 8 12.13 12.13 0 0 1 4.12 2.31c.9.83-.39 2.19-1.27 1.39ZM250.73 77c-.93-.67-3.87-1-3.41-2.46.69-1.55 3.17.51 4.29.79a.94.94 0 0 1-.88 1.67ZM216.73 67.85c-6.73-2-13.59-3.38-20.46-4.75a.94.94 0 0 1 .43-1.83c6.87 1.36 13.74 2.77 20.46 4.74a.94.94 0 0 1-.43 1.84ZM271.15 57.65a53.44 53.44 0 0 0-12-2.74c-1.75-.27-3.48-.59-5.22-.91a1 1 0 0 1-.7-1.13 1 1 0 0 1 1.13-.7c5.9 1.13 11.85 1.55 17.49 3.71a.94.94 0 0 1-.7 1.77ZM318.35 79.4c-5.57-3.21-11-7-17.13-9a.94.94 0 0 1 .43-1.83c6.42 2 12 6 17.79 9.3a.94.94 0 0 1-1.09 1.53ZM370.09 131.76c-1.43-3.55-2.76-7-4.15-10.45a.94.94 0 0 1 1.71-.8c.27.65.53 1.29.73 1.83 1.14 3 2.35 5.88 3.5 8.85a.94.94 0 0 1-1.79.57ZM380.67 155.66c-.8-2.29-1.61-4.58-2.45-6.72-.44-1.13-.91-2.25-1.37-3.37a1 1 0 0 1 .45-1.26 1 1 0 0 1 1.26.46c.7 1.69 1.4 3.38 2 5.09s1.26 3.48 1.86 5.23a.94.94 0 0 1-1.79.57ZM449.29 86.05c-.48-4.36-1.19-8.69-1.89-13-.2-1.24-.43-2.48-.7-3.7a.94.94 0 0 1 .76-1.09 1 1 0 0 1 1.09.77c1.11 5.53 1.95 11.12 2.59 16.72a.94.94 0 0 1-1.85.3ZM451.63 117.8c0-4.38-.18-8.76-.25-13.14 0-.81-.24-2.13.92-2.21a.94.94 0 0 1 1 .91c0 4.79.24 9.58.25 14.38a1 1 0 0 1-1.92.06ZM227.8 204a.93.93 0 0 1-.05-1.32c.95-1 1.9-2 2.71-3 2.16-2.74 4.3-5.49 6.67-8 1.77-2 3.7-4.08 5.33-6.11a.94.94 0 0 1 1.53 1.08c-3.71 4.6-8 8.84-11.53 13.58-1.06 1.32-2.18 2.57-3.33 3.81a1 1 0 0 1-1.33-.04ZM158.1 210.24c0-.77.72-1.05 1.37-1 .66-.19 1.54-.16 1.68.67a1 1 0 0 1-.77 1.1c-.82.15-2.2.4-2.28-.77ZM164 213c-1.2-1.86 3.2-2.52 4.34-3.09q2.3-.75 4.6-1.45a.95.95 0 0 1 .57 1.81 75.85 75.85 0 0 0-8.06 2.77A1 1 0 0 1 164 213ZM170.55 215.46a.94.94 0 0 1-.32-1.83c4.08-1.24 8-2.84 12.09-4.15a.95.95 0 1 1 .57 1.81c-4.13 1.31-8.16 3.06-12.34 4.17ZM180.07 216.73a1 1 0 0 1-.06-1.9 24.45 24.45 0 0 0 5.67-1.61l4.93-1.76a1 1 0 0 1 1.19.62 1 1 0 0 1-.62 1.19c-3.68 1.15-7.25 3.02-11.11 3.46Z" fill="#110802"/><path d="M157.66 210.93c-.57-1 .59-1.55 1.3-1.92s1.95-1.16 2.5-.1-1 1.42-1.67 1.79-1.54 1.1-2.13.23ZM40.6 392.69c-1.08-1.28 2.43-2.91 3.21-3.81 1.42-1.13 2.87-2.24 4.31-3.29 2.19-1.58 4.43-3.08 6.64-4.64a.94.94 0 0 1 1 1.58c-2.54 1.8-5.24 3.6-7.69 5.43-2.09 1.56-4.14 3.19-6.16 4.85a1 1 0 0 1-1.31-.12ZM125.37 399.7c-1.42-7.33-4.15-14.25-5.4-21.59a.94.94 0 0 1 1.88-.06c1.36 7.23 4 14.12 5.37 21.34a.94.94 0 0 1-1.85.31ZM126.9 424.14c0-4.37-.47-8.71-.82-13.05.11-1.17-.87-4.49.77-4.62a1 1 0 0 1 1 .9c.1 5.58 1 11.11 1 16.71a.94.94 0 0 1-1.95.06ZM137.85 356a16 16 0 0 0-.91-5.62c-.14-.78-.67-1.61-.38-2.39a1 1 0 0 1 1.73.16c.32 1.47 2.83 8.54.53 8.75a.94.94 0 0 1-.97-.9ZM133.41 339.61c-1.68-.27-.26-3.16-.32-4.34.38-1.09 0-4.33 1.68-4 1.36.44.36 2.17.35 3.14-.21 1.46-.43 2.92-.67 4.38a1 1 0 0 1-1.04.82ZM136.51 339.73c-1.54-.59.58-3.87.92-5 1-1.28 2.38.09 1.44 1.38a.54.54 0 0 1 0-.11c-.46 1-.84 2.08-1.2 3.14a1 1 0 0 1-1.16.59ZM177.32 282.84c-1.45-.49-.21-2.46-.22-3.42.09-.6.19-1.2.22-1.8a1 1 0 0 1 .86-1.39c1.61.14.92 2.25.81 3.32-.35 1.03-.08 3.45-1.67 3.29ZM181.09 286.13c-1.2-.33-.52-1.75-.45-2.59.18-1.19.28-2.37.35-3.57a1 1 0 0 1 1-.85c1.5.35.59 2.39.66 3.47-.29 1.07.09 3.75-1.56 3.54ZM184.84 290.52c-1.57-.48 0-3.3 0-4.51 0-.65.32-1.41 1.1-1.33s1 .94.77 1.61c-.19 1.18-.49 2.35-.71 3.53a1 1 0 0 1-1.16.7Z" fill="#110802"/></g></svg>