<svg xmlns="http://www.w3.org/2000/svg" width="175.28" height="175.28" viewBox="0 0 175.28 175.28">
  <g id="Layer_2" data-name="Layer 2">
    <g id="Vector_layer" data-name="Vector layer">
      <g>
        <circle cx="87.64" cy="87.64" r="87.64" fill="#98d7c3"/>
        <g>
          <path d="M90.24,157.44c-1.52,0-3-.08-4.56-.22s-2.91-.36-4.36-.61a44.69,44.69,0,0,1-5-1.1,39.67,39.67,0,0,1-5.07-1.91l-.2-.09.13.06A48.91,48.91,0,0,1,66,150.83a42.85,42.85,0,0,1-4.74-3.53A38.07,38.07,0,0,1,55.1,141a50.72,50.72,0,0,1-5.19-8.13,85.32,85.32,0,0,1-3.52-8.44c-.51-1.4-1-2.82-1.42-4.24s-.92-2.94-1.35-4.42a91.16,91.16,0,0,1-2.1-9.08,74.63,74.63,0,0,1-.84-18.64c.14-1.6.34-3.19.55-4.79s.43-3.17.75-4.75a28.89,28.89,0,0,1,1.16-4.19A4,4,0,0,1,44.8,72a6.8,6.8,0,0,1,.5-.57,7.82,7.82,0,0,1,1.36-1,24.51,24.51,0,0,1,3.86-2l.66-.25a18.92,18.92,0,0,1,2.89-.77l.24,0c1.35-.24,2.73-.37,4.1-.5,1.78-.17,3.57-.31,5.35-.43,1-.06,1.93-.12,2.89-.16a5.44,5.44,0,0,1,.57,0c1.6-.08,3.19-.13,4.79-.2s3.26-.11,4.89-.12c3.12,0,6.25,0,9.37.09,1.48,0,3,.12,4.44.21s2.88.14,4.32.23l4.57.29c1.61.1,3.23.25,4.83.37s3.2.29,4.79.45c1,.1,2,.2,3,.33l1.42.21c.58.09,1.15.19,1.72.3,2.14.38,4.27.84,6.37,1.4.93.25,1.86.49,2.78.76.52.16,1,.32,1.55.5s.79.3,1.17.48A14.66,14.66,0,0,1,130,73.07a9.49,9.49,0,0,1,3,3.53,16.48,16.48,0,0,1,1.31,4.23,44.5,44.5,0,0,1,.56,8.39c0,3-.17,5.9-.3,8.85-.07,1.51-.17,3-.29,4.53s-.23,3-.37,4.47a93.88,93.88,0,0,1-1.43,9.44,83.43,83.43,0,0,1-2.43,8.75c-.48,1.49-1,3-1.53,4.44s-1.15,3-1.73,4.45a42.35,42.35,0,0,1-1.94,4.29,37.61,37.61,0,0,1-2.55,4,27.94,27.94,0,0,1-3.19,3.6q-1.65,1.62-3.4,3.12a34.06,34.06,0,0,1-7.38,5,22.3,22.3,0,0,1-4.1,1.55c-1.55.39-3.12.68-4.68,1a45.43,45.43,0,0,1-8.07.71ZM76.88,69c-1.63,0-3.25,0-4.88.12l-4.71.18c-3.52.17-7,.43-10.54.78a27.4,27.4,0,0,0-3.26.56,12.5,12.5,0,0,0-1.32.4A27.41,27.41,0,0,0,49,72.55a11.81,11.81,0,0,0-1.27.8l-.44.35a5.49,5.49,0,0,0-.4.43c-.28.39-.54.79-.79,1.2s-.43.7-.63,1h0a39,39,0,0,0-.89,3.85c0,.15-.05.3-.07.45-.32,1.87-.53,3.76-.73,5.64s-.36,3.84-.42,5.77a79.53,79.53,0,0,0,.4,9.51,81.28,81.28,0,0,0,1.82,10v0c.6,2.42,1.33,4.8,2.07,7.18s1.53,4.63,2.4,6.91a64.54,64.54,0,0,0,3.24,7.14,53.88,53.88,0,0,0,3.41,5.27,42.68,42.68,0,0,0,3.05,3.67h0s0,0,0,0h0l0,0a40.34,40.34,0,0,0,3.25,3l.29.23a42.64,42.64,0,0,0,4,3,50.8,50.8,0,0,0,4.79,2.52,2.07,2.07,0,0,0,.34.15l0,0c1.43.62,2.88,1.18,4.37,1.66a48,48,0,0,0,5.57,1.19l.27.05a51.7,51.7,0,0,0,6.33.58c1.19,0,2.37.06,3.56,0s2.44-.15,3.66-.27a59.13,59.13,0,0,0,6.31-1.12h0l.42-.1a19.31,19.31,0,0,0,2.23-.72,25.48,25.48,0,0,0,2.49-1.15,33.8,33.8,0,0,0,3.16-2,62.29,62.29,0,0,0,5.54-4.73,34.48,34.48,0,0,0,2.68-2.86c.73-.95,1.41-1.94,2.05-3a33.45,33.45,0,0,0,1.69-3.19l0,0c.45-1,.86-2.09,1.27-3.14.48-1.21,1-2.41,1.41-3.63.83-2.26,1.56-4.56,2.28-6.86.42-1.41.82-2.82,1.16-4.25s.64-3,.89-4.51c.49-3,.83-6,1.06-9.06.12-1.44.24-2.88.33-4.32s.14-3.06.21-4.59c0-.8.07-1.6.1-2.4a70.18,70.18,0,0,0-.15-8.94v-.11A26.11,26.11,0,0,0,131,80.5c-.16-.62-.34-1.23-.56-1.83a11.84,11.84,0,0,0-.5-1.09,6.65,6.65,0,0,0-.36-.56c-.15-.19-.3-.36-.46-.53s-.47-.46-.72-.67-.67-.49-1-.72-.78-.44-1.19-.63a21.69,21.69,0,0,0-2.21-.82,88.44,88.44,0,0,0-10.15-2.38c-1.47-.24-2.94-.42-4.42-.57s-3.17-.33-4.76-.45-3.23-.28-4.84-.38-3.11-.2-4.66-.3-2.87-.15-4.3-.23-2.69-.15-4-.21h-.68Q82.52,69,79,69Z" fill="#110802"/>
          <path d="M128,59.69a83.13,83.13,0,0,1-.37,8.93c-.08.83-.15,1.66-.29,2.47a1.59,1.59,0,0,1-.1.39,1.53,1.53,0,0,1-1.16,1.07,1,1,0,0,1-.24,0,1.45,1.45,0,0,1-1.36-1,1.5,1.5,0,0,1,0-.89h0s0-.06,0-.09v-.08a1.2,1.2,0,0,0,0-.2l0-.19c0-.21.05-.43.07-.64,0-.38.07-.75.1-1.13v0c0-.24,0-.49.06-.73Q125,65.79,125,64v-.19c0-.47,0-1,0-1.42s0-1,0-1.42,0-1,0-1.44c0-.71,0-1.43-.07-2.15s-.09-1.43-.15-2.15a40.85,40.85,0,0,0-.85-4.8,50.43,50.43,0,0,0-1.85-5.9,48.65,48.65,0,0,0-2.28-4.85c-.45-.79-.92-1.55-1.41-2.3l-.5-.75-.7-1a49.37,49.37,0,0,0-3.36-4l-.34-.34c-.1-.12-.22-.23-.33-.34l-.34-.34c-.57-.55-1.15-1.09-1.76-1.6a40.19,40.19,0,0,0-3.65-2.59l0,0-.06,0-.33-.19a40.19,40.19,0,0,0-3.74-1.95l-.51-.24h0l-.07,0h0c-.73-.32-1.47-.63-2.21-.91l-.91-.33-1.07-.35a36.62,36.62,0,0,0-4.14-1,51.83,51.83,0,0,0-5.43-.44,37.35,37.35,0,0,0-4.49.13,25.8,25.8,0,0,0-2.77.46,30.62,30.62,0,0,0-3.38,1,44.45,44.45,0,0,0-8.43,4.74c-.8.61-1.57,1.25-2.32,1.94h0A46,46,0,0,0,64,33.06c-.66.86-1.29,1.74-1.87,2.65-.25.41-.49.83-.72,1.25-.36.62-.69,1.26-1,1.9s-.63,1.29-.93,2A62.57,62.57,0,0,0,56.9,47.4a57.06,57.06,0,0,0-1.61,7.05h0c-.42,2.55-.74,5.11-.91,7.68,0,.43-.06.86-.08,1.29s0,.86-.06,1.29v0c0,.82,0,1.63,0,2.45,0,0,0,.07,0,.11,0,.27,0,.54,0,.81s0,.34,0,.5A1.83,1.83,0,0,1,54,70a1.56,1.56,0,0,1-1.1.51,1.68,1.68,0,0,1-1.26-.56,2.45,2.45,0,0,1-.42-1.61v-.18c0-.22,0-.44,0-.66a20.15,20.15,0,0,1,0-2.2,73.1,73.1,0,0,1,.58-7.67A80.51,80.51,0,0,1,53.29,49a54.57,54.57,0,0,1,2.92-8.43,43.62,43.62,0,0,1,4.56-8.28,40,40,0,0,1,3.12-3.75,32,32,0,0,1,3.35-3.13,44.39,44.39,0,0,1,8.05-4.9A26.8,26.8,0,0,1,83.91,18a44.23,44.23,0,0,1,8.61,0A33,33,0,0,1,101,19.93c1.31.48,2.59,1,3.84,1.61a38.13,38.13,0,0,1,7.81,4.79,39.16,39.16,0,0,1,6.82,7.21,41.63,41.63,0,0,1,2.41,3.59A39.94,39.94,0,0,1,124,41.34a47.9,47.9,0,0,1,3,9.34A44,44,0,0,1,128,59.69Z" fill="#110802"/>
          <path d="M113.64,69.68a1.62,1.62,0,0,1-1.41-1.31,4,4,0,0,1,0-.85l0-.61,0-1c0-1.07.13-2.13.17-3.19,0-1.66,0-3.32,0-5s0-3.45-.2-5.17v0a13.05,13.05,0,0,0-.3-1.73c-.09-.34-.19-.67-.3-1a16,16,0,0,0-.7-1.44,37.46,37.46,0,0,0-2.45-3.69l.12.16a24.19,24.19,0,0,0-1.89-2.27h0a28.36,28.36,0,0,0-2.71-2.42l.15.12a51.69,51.69,0,0,0-4.38-3.25A19.7,19.7,0,0,0,97.76,36a36,36,0,0,0-3.68-1.36l-.09,0h0c-.92-.27-1.84-.52-2.78-.7a14.57,14.57,0,0,0-1.74-.14h.2a24,24,0,0,0-2.81.06A10,10,0,0,0,85.8,34a24.17,24.17,0,0,0-2.66.84l.19-.07-.34.13.19-.07a40.91,40.91,0,0,0-4,1.94A23.83,23.83,0,0,0,77,38.12a35.15,35.15,0,0,0-3.24,2.75h0a19.9,19.9,0,0,0-1.55,1.63h0c-.32.41-.64.82-.93,1.25-.39.67-.73,1.36-1,2.06a39.4,39.4,0,0,0-1.68,4.47.37.37,0,0,1,0-.09.83.83,0,0,0,0,.15l0,0,0,0a49.24,49.24,0,0,0-1.31,5.59,42.41,42.41,0,0,0-.5,5.51v-.2c0,.19,0,.38,0,.57v-.2l-.06,2.8c0,.69-.07,1.39,0,2.08a1.45,1.45,0,0,1,.12.73.28.28,0,0,0,0-.09,1.38,1.38,0,0,1-.64,1.13,1.42,1.42,0,0,1-1.56,0l-.15-.12a1.59,1.59,0,0,1-.46-.57,2.86,2.86,0,0,1-.19-1.19c0-.67,0-1.35,0-2,0-1.51,0-3,.11-4.53a45,45,0,0,1,1.51-9.13,41.15,41.15,0,0,1,1.82-5.28c.36-.86.75-1.71,1.19-2.53a15.24,15.24,0,0,1,1.6-2.3l-.12.15A24,24,0,0,1,72.57,38a35.8,35.8,0,0,1,2.77-2.29,24.18,24.18,0,0,1,3.25-1.93c1.11-.57,2.21-1.14,3.37-1.6h0l.09,0h0a21.27,21.27,0,0,1,3.38-1,17.38,17.38,0,0,1,4.2-.24h-.2a15.82,15.82,0,0,1,2.75.27c.86.18,1.7.41,2.54.66a38.58,38.58,0,0,1,4.39,1.63l-.1,0a33.54,33.54,0,0,1,6.7,4.43A29.87,29.87,0,0,1,108.39,40a28.63,28.63,0,0,1,2.75,3.18c.78,1.06,1.52,2.15,2.21,3.27A13.47,13.47,0,0,1,115,50.23a35.4,35.4,0,0,1,.63,8.1c0,2.21,0,4.42-.09,6.64,0,.6-.07,1.21-.09,1.82l0,.69a3.12,3.12,0,0,1-.15,1.18,1.61,1.61,0,0,1-1.47,1Z" fill="#110802"/>
          <path d="M82,32.13Z" fill="#110802"/>
          <path d="M82,32.14h0Z" fill="#110802"/>
          <path d="M123.2,95.12a9.24,9.24,0,0,1-2.3-.58,17.92,17.92,0,0,1-2.59-1.21A24.27,24.27,0,0,1,114.68,91a29.42,29.42,0,0,1-3-2.9l.13.14a20.53,20.53,0,0,1-3-3.61,13.18,13.18,0,0,1-1-2c-.14-.39-.25-.78-.37-1.18-.62,0-1.24,0-1.85,0-1.11,0-2.22,0-3.33,0l-4.38-.08c-1.49,0-3,0-4.47,0-.91,0-1.82,0-2.74-.07h.19c-2.33-.08-4.66-.28-7-.37h-.37l-1.63,0h-.13c-2.09-.06-4.17-.14-6.26-.26s-3.93-.25-5.9-.33h0l-2.21,0a7.55,7.55,0,0,1-1,0l-.23,0h.05a1.41,1.41,0,0,1,.11-2.79c.22,0,.45,0,.67,0h2c1.32,0,2.65.1,4,.17,2.93.18,5.86.31,8.79.41h-.19c1.56,0,3.12.08,4.68.19s3.1.19,4.65.24h-.19c3,.07,6,.05,9,.11,2.31.05,4.62.11,6.92,0a5.1,5.1,0,0,1,2.43.22c1.06.55,1.22,1.86,1.59,2.9a12.81,12.81,0,0,0,.57,1.18,9.51,9.51,0,0,0,.59,1,26.46,26.46,0,0,0,2,2.26l0,0a34.63,34.63,0,0,0,2.61,2.53,20.67,20.67,0,0,0,1.74,1.2A28.09,28.09,0,0,0,121,91.25c.94.42,1.92.69,2.88,1a1.46,1.46,0,0,1-.53,2.83Z" fill="#110802"/>
          <path d="M69.63,80.25Z" fill="#110802"/>
          <path d="M69.63,80.25Z" fill="#110802"/>
          <path d="M98.77,143.42a6.26,6.26,0,0,0-.48-1.5q1-.28,2-.66a31.76,31.76,0,0,0,3.19-1.48,36.25,36.25,0,0,0,3.38-2.14,30.7,30.7,0,0,0,2.69-2.29,28.75,28.75,0,0,0,2.11-2.3,34.86,34.86,0,0,0,2.24-3.17,25.66,25.66,0,0,0,1.5-2.84,1.42,1.42,0,0,1-.08.18,54,54,0,0,0,2.27-6l-.06.18a75.4,75.4,0,0,0,1.69-7.58c.25-1.31.47-2.63.73-3.94s.55-2.7.78-4.06h0c.26-1.55.53-3.1.73-4.66.18-1.4.29-2.81.34-4.23v0c0-.61,0-1.23,0-1.84a4.3,4.3,0,0,1,.09-1.29,1.44,1.44,0,0,1,2.73.07,2.25,2.25,0,0,1,.08.58v1c0,.77,0,1.55,0,2.31,0,1.33-.15,2.65-.31,4-.38,3-1,5.9-1.52,8.83s-1,5.64-1.58,8.42a51.31,51.31,0,0,1-2.66,8.29,30.35,30.35,0,0,1-10.85,13.52,32.12,32.12,0,0,1-4.88,2.75,25.65,25.65,0,0,1-2.79,1.1c-.42.13-.84.26-1.26.37A6.83,6.83,0,0,0,98.77,143.42Z" fill="#110802"/>
          <path d="M74.23,143.34c-1.17-.65-2.32-1.35-3.47-2A27.55,27.55,0,0,1,67.34,139a33.74,33.74,0,0,1-6-6.54,53.92,53.92,0,0,1-4.53-8.27,73.85,73.85,0,0,1-3.37-8.49c-.92-2.77-1.69-5.59-2.5-8.4-.4-1.4-.79-2.8-1.13-4.22-.25-1-.46-2.05-.67-3.07a10.68,10.68,0,0,1-.32-2,3.71,3.71,0,0,1,.52-1.87,2.23,2.23,0,0,1,.79-.85,3.56,3.56,0,0,1,1-.4A26.82,26.82,0,0,0,53.9,94a15.85,15.85,0,0,0,1.73-.79c.71-.41,1.4-.86,2.07-1.34a36.89,36.89,0,0,0,3.24-2.76c.43-.43.84-.87,1.23-1.33a7.11,7.11,0,0,0,.5-.72,3.48,3.48,0,0,0,.2-.38,24.56,24.56,0,0,0,.82-2.37l-.06.19a25.16,25.16,0,0,0,.75-3.11,1.77,1.77,0,0,0,0,.2c.08-.49.15-1,.19-1.49a7.41,7.41,0,0,1,.2-1.56,1.54,1.54,0,0,1,2.92.07,7.44,7.44,0,0,1-.05,2.66,22.24,22.24,0,0,1-.69,3.34c-.21.71-.42,1.42-.66,2.13a8.42,8.42,0,0,1-1,2.08A17.79,17.79,0,0,1,62.32,92a28.19,28.19,0,0,1-5.47,4,21.63,21.63,0,0,1-3.26,1.37c-.55.19-1.13.3-1.68.48v0h0V98c.07.52.19,1,.29,1.54.18.94.4,1.88.62,2.82,0-.07,0-.14-.05-.21.33,1.34.71,2.66,1.09,4s.82,2.85,1.24,4.28c.78,2.68,1.65,5.35,2.64,8,.6,1.52,1.26,3,2,4.49s1.43,3.06,2.24,4.55a39,39,0,0,0,2.52,4,32,32,0,0,0,2.33,2.75h0a34,34,0,0,0,2.62,2.47l.16.13-.1-.08a25.38,25.38,0,0,0,2.26,1.58c1,.59,2,1.18,3,1.76.73.43,1.46.84,2.21,1.21a4.69,4.69,0,0,0-.91,2,4.86,4.86,0,0,0-.07,1C75.33,143.92,74.77,143.64,74.23,143.34Z" fill="#110802"/>
          <path d="M120.73,87.76a3.94,3.94,0,0,1-1.84-1,3.76,3.76,0,0,1-.77-1,5.87,5.87,0,0,1-.44-1.07,5.23,5.23,0,0,1,.23-3.4,4.37,4.37,0,0,1,3-2.88,2.5,2.5,0,0,1,.61,0,1.48,1.48,0,0,1,1.27-.32,7,7,0,0,1,1.27.41,6.85,6.85,0,0,1,1,.56,3.92,3.92,0,0,1,1.43,1.62,4.78,4.78,0,0,1,.35,1.11,5.22,5.22,0,0,1,.16,1.62,5,5,0,0,1-2.31,3.77,4.93,4.93,0,0,1-2.65.74A5.63,5.63,0,0,1,120.73,87.76Zm.74-6.49h0l-.16.1-.1.08-.17.19a2.2,2.2,0,0,0-.17.25c-.06.11-.12.22-.17.33l-.15.39c0,.11-.05.22-.08.33s0,.29,0,.44a.76.76,0,0,0,0,.15l.06.35.05.14a2.32,2.32,0,0,0,.18.39l.06.1.06.08s0,0,0,0l.09.07.21.11.16.06.33.08a1.63,1.63,0,0,0,.31,0h.33l.3,0,.28-.09.23-.11.22-.14.14-.12.18-.2a2,2,0,0,0,.17-.23l.13-.23.09-.24c0-.06,0-.13,0-.19s0-.14,0-.2a1.48,1.48,0,0,0,0-.21c0-.14,0-.27-.08-.41a4.3,4.3,0,0,0-.17-.55.54.54,0,0,0,0-.11l0-.06s0,0,0,0l-.08-.07-.31-.21a5.61,5.61,0,0,0-.54-.29L122.3,81a1.52,1.52,0,0,1-.74.21h0Z" fill="#110802"/>
          <path d="M53.31,88.89a4.15,4.15,0,0,1-1-.45,5.12,5.12,0,0,1-1-.77A4.62,4.62,0,0,1,50,85.19a6.12,6.12,0,0,1-.08-1.81,6.6,6.6,0,0,1,.45-1.69,5.85,5.85,0,0,1,2.54-3,4,4,0,0,1,2-.44,1.9,1.9,0,0,1,1.41.84,4.88,4.88,0,0,1,1.18.36A4.79,4.79,0,0,1,59.44,81,3.47,3.47,0,0,1,60,82.47,6.12,6.12,0,0,1,60,83.82a5.8,5.8,0,0,1-1.78,3.73,5.42,5.42,0,0,1-3.73,1.5A5,5,0,0,1,53.31,88.89Zm1-2.82h.3l.57-.09.26-.08.22-.1a1.64,1.64,0,0,1,.22-.14l.23-.2a1.8,1.8,0,0,0,.19-.2,3.9,3.9,0,0,0,.25-.36c.09-.15.17-.31.25-.47s0-.12.07-.19L57,84c0-.15,0-.29.05-.44s0-.15,0-.23-.05-.35-.09-.52,0-.1,0-.15h0l0,0-.08-.09-.09-.09.05,0h0l-.2-.15-.33-.17c-.12-.06-.25-.1-.38-.15L55.58,82h-.34A1.54,1.54,0,0,1,54,81.36l-.07.06-.11.12c-.14.18-.27.36-.39.55s-.19.33-.27.49a4.57,4.57,0,0,0-.22.62,2.5,2.5,0,0,0-.07.26c0,.21,0,.42-.06.62,0,0,0,0,0,.07,0,.22.07.44.11.66s.06.21.1.31l.12.26.06.1s0,0,0,0l.13.11a2.73,2.73,0,0,0,.3.21L54,86l.15,0,.15,0h-.06Z" fill="#110802"/>
          <path d="M99.86,145.52a1.77,1.77,0,0,1-1.21-.81,3.23,3.23,0,0,1-.2-.42c-.22-.49-.42-1-.65-1.46a8.68,8.68,0,0,0-.48-.84c-.17-.24-.36-.47-.55-.69l0,0,0-.05-.08-.1a.34.34,0,0,0,.08.09c-.15-.16-.3-.3-.46-.45a9.42,9.42,0,0,0-.86-.67,10.73,10.73,0,0,0-1.09-.64l.17.09a21.54,21.54,0,0,0-2-.88,6,6,0,0,0-.92-.25,14,14,0,0,0-1.58-.23,20,20,0,0,0-2.32,0,20.81,20.81,0,0,0-2.36.28,21.44,21.44,0,0,0-2.38.65,16.9,16.9,0,0,0-1.71.68c-.36.19-.71.4-1.06.62a18.19,18.19,0,0,0-1.56,1.22,15.56,15.56,0,0,0-1.14,1.16c-.19.22-.38.45-.56.69a1.4,1.4,0,0,0,.1-.16h0s0,0,0,0a1.42,1.42,0,0,1-2.65-.54v0a.76.76,0,0,0,0-.15,1.69,1.69,0,0,1,0-.23v0a2.12,2.12,0,0,1,.45-1,13.17,13.17,0,0,1,1-1.22,15.7,15.7,0,0,1,2.47-2.12,13.16,13.16,0,0,1,3.47-1.75,21,21,0,0,1,4.56-1.06c.35,0,.7-.07,1.06-.09a18.75,18.75,0,0,1,4.1.14,11.54,11.54,0,0,1,2.14.53c.58.21,1.15.46,1.71.72a11.89,11.89,0,0,1,4,3,10.16,10.16,0,0,1,1.3,2.05c.2.42.37.85.58,1.27a.41.41,0,0,0,.05.09,1.81,1.81,0,0,1,.21.59,1.58,1.58,0,0,1-.16,1.12,1.54,1.54,0,0,1-1.35.74Z" fill="#110802"/>
          <path d="M88,152.65a6.88,6.88,0,0,1-1.73-.39,7,7,0,0,1-1.88-1,5.61,5.61,0,0,1-1.5-1.75,4.43,4.43,0,0,1-.35-3.27,6.5,6.5,0,0,1,.68-1.71,4.21,4.21,0,0,1,1.18-1.27,5.83,5.83,0,0,1,1.05-.55,5,5,0,0,1,3.12-.49l.11,0a1.3,1.3,0,0,1,.73-.07,4,4,0,0,1,1.4.49,7.11,7.11,0,0,1,.72.5,10,10,0,0,1,1.37,1.22,5.46,5.46,0,0,1,1.41,3.45,4.64,4.64,0,0,1-.32,1.68,7.41,7.41,0,0,1-.4.86,3.63,3.63,0,0,1-.87,1,5.13,5.13,0,0,1-2.39,1.06,8.91,8.91,0,0,1-1.7.17Zm.41-3h.49l.91-.12.39-.11.36-.14h0l.22-.16.08-.09.08-.13c.07-.15.14-.3.2-.45a1.21,1.21,0,0,1,.05-.18,2.91,2.91,0,0,0,0-.31v-.2c0-.1,0-.2-.08-.3s-.12-.31-.19-.45l-.11-.18a2.92,2.92,0,0,0-.21-.28l-.28-.28c-.35-.3-.72-.58-1.1-.85a1.4,1.4,0,0,1-1.37-.38H87.7l-.19,0-.35.08a8.58,8.58,0,0,0-.83.35l.17-.09-.36.18.17-.08-.24.14-.18.14,0,.05,0,.06-.11.19c-.07.16-.14.31-.2.47a4,4,0,0,0-.12.43l-.06.41v.1a1.49,1.49,0,0,0,0,.21c0,.05,0,.09,0,.14l.06.15.09.16.21.27.25.26v0l.34.26c.11.06.2.12.31.17l.49.22a8.81,8.81,0,0,0,1,.27l-.19,0Z" fill="#110802"/>
          <path d="M89.73,128.24c-1,0-2-.14-3.07-.26-1.34-.16-2.69-.34-4-.58s-3.09-.32-3.92-1.64a4,4,0,0,1-.45-1.92,3.89,3.89,0,0,1,.26-1.55c.74-2.22,1.36-4.48,2-6.73q.6-2.09,1.23-4.17c.43-1.44.91-2.86,1.39-4.27l.29-.87a5.31,5.31,0,0,1-2-1.7,11.93,11.93,0,0,1-1.26-2.07,9.8,9.8,0,0,1-.64-2.25,6.74,6.74,0,0,1-.16-2.41,8.38,8.38,0,0,1,.65-2.26,9.08,9.08,0,0,1,3.29-3.69A13.84,13.84,0,0,1,87.29,90a10.3,10.3,0,0,1,4.24-.38,8.28,8.28,0,0,1,2.43.71,8.93,8.93,0,0,1,2,1.36,9.57,9.57,0,0,1,1.53,1.65,8.38,8.38,0,0,1,1,2,10.67,10.67,0,0,1,.58,2.91,9.5,9.5,0,0,1-.12,2.5,7.16,7.16,0,0,1-2.25,4c.07.45.15.91.23,1.36.29,1.52.53,3,.82,4.56.51,2.54,1.24,5,1.74,7.56v0c.27,1.33.49,2.67.68,4a5.38,5.38,0,0,1,0,2,2.64,2.64,0,0,1-.91,1.36,13.52,13.52,0,0,1-1.4,1,9.22,9.22,0,0,1-1.56.73,11.71,11.71,0,0,1-1.17.28c-.77.15-1.54.31-2.32.42-.53.07-1.06.15-1.59.18q-.39,0-.78,0Z" fill="#110802"/>
          <path d="M89.13,154.35a51.52,51.52,0,0,1-6.33-.58l-.28-.05A48.42,48.42,0,0,1,77,152.53c-1.49-.48-2.94-1-4.37-1.66l0,0-.34-.14a52.15,52.15,0,0,1-4.79-2.53,45.38,45.38,0,0,1-4-3l-.28-.23a38.85,38.85,0,0,1-3.26-3l0,0h0l0,0h0a41.31,41.31,0,0,1-3.06-3.67,53.88,53.88,0,0,1-3.41-5.27,64.54,64.54,0,0,1-3.24-7.14q-1.3-3.42-2.39-6.91c-.74-2.38-1.48-4.76-2.07-7.18l0,0a83.17,83.17,0,0,1-1.81-10,79.45,79.45,0,0,1-.41-9.51c.07-1.93.2-3.84.42-5.77s.42-3.77.73-5.64c0-.15,0-.3.07-.45.24-1.3.53-2.58.89-3.85h0l.63-1c.26-.41.51-.81.8-1.2a4,4,0,0,1,.39-.43l.44-.35c.41-.29.83-.55,1.27-.8a28.23,28.23,0,0,1,3.15-1.48,12.5,12.5,0,0,1,1.32-.4,28.12,28.12,0,0,1,3.26-.56q5.27-.52,10.55-.78c1.56-.07,3.13-.11,4.7-.18S75.26,69,76.89,69c3.07,0,6.14,0,9.21.09h.67c1.35.06,2.7.14,4,.21s2.87.13,4.3.23,3.11.19,4.66.3,3.23.26,4.84.38,3.18.3,4.77.46,2.94.32,4.41.56a88,88,0,0,1,10.15,2.38,22.79,22.79,0,0,1,2.22.82c.4.19.8.4,1.19.63s.69.47,1,.72.48.44.71.67.32.34.47.53.24.37.35.56a9.67,9.67,0,0,1,.5,1.09A16.79,16.79,0,0,1,131,80.5a24,24,0,0,1,.48,2.92v.11a70.18,70.18,0,0,1,.14,8.94c0,.8-.06,1.6-.1,2.4-.07,1.53-.12,3.06-.21,4.59s-.21,2.88-.32,4.32c-.24,3-.58,6-1.06,9.06-.26,1.51-.54,3-.9,4.51s-.74,2.84-1.16,4.25c-.71,2.3-1.44,4.6-2.28,6.86-.45,1.22-.93,2.42-1.4,3.63-.42,1-.83,2.11-1.28,3.14,0,0,0,0,0,0a35,35,0,0,1-1.7,3.2c-.64,1-1.32,2-2.05,2.95a32.87,32.87,0,0,1-2.68,2.86,60.9,60.9,0,0,1-5.54,4.73,33.8,33.8,0,0,1-3.16,2,26.44,26.44,0,0,1-2.48,1.15,20.12,20.12,0,0,1-2.24.72l-.42.1h0a58.69,58.69,0,0,1-6.31,1.12c-1.21.12-2.43.22-3.66.27l-1.44,0C90.54,154.39,89.83,154.37,89.13,154.35Zm-3.7-11.61a5.43,5.43,0,0,0-1,.55,3.91,3.91,0,0,0-1.19,1.27,6.43,6.43,0,0,0-.68,1.7,4.45,4.45,0,0,0,.36,3.28,5.33,5.33,0,0,0,1.5,1.74,7,7,0,0,0,1.87,1,7.37,7.37,0,0,0,1.73.4l.64,0a8.91,8.91,0,0,0,1.7-.17,5.22,5.22,0,0,0,2.38-1,3.52,3.52,0,0,0,.87-1.05,8.48,8.48,0,0,0,.41-.86,4.6,4.6,0,0,0,.32-1.68,5.52,5.52,0,0,0-1.42-3.44,9.88,9.88,0,0,0-1.36-1.23c-.24-.17-.48-.35-.73-.5a4.05,4.05,0,0,0-1.39-.49,1.34,1.34,0,0,0-.74.07l-.11,0a3.08,3.08,0,0,0-.8-.1A5.69,5.69,0,0,0,85.43,142.74Zm4.63-4.49c.53.05,1,.13,1.57.23a8.87,8.87,0,0,1,.92.25c.67.25,1.31.56,2,.87.32.18.64.36,1,.56s.58.44.86.67.31.3.45.46h0a8.75,8.75,0,0,1,.55.69c.18.27.34.56.49.84.22.48.42,1,.64,1.46a2.35,2.35,0,0,0,.21.42,1.7,1.7,0,0,0,1.2.81h.21a1.53,1.53,0,0,0,1.35-.74,1.44,1.44,0,0,0,.2-.71c.44-.18.88-.36,1.31-.56a33.39,33.39,0,0,0,4.88-2.75,30.37,30.37,0,0,0,10.85-13.53,51.51,51.51,0,0,0,2.66-8.28c.63-2.79,1-5.62,1.59-8.42s1.14-5.87,1.51-8.83c.16-1.32.26-2.64.32-4,0-.77,0-1.54,0-2.32v-1a2.31,2.31,0,0,0,0-.37.19.19,0,0,0,0-.07,1.47,1.47,0,0,0-.91-1.7c-1-.36-1.94-.63-2.88-1a30.13,30.13,0,0,1-2.85-1.55,15.82,15.82,0,0,1-1.74-1.2A32.91,32.91,0,0,1,113.77,86a24.19,24.19,0,0,1-2-2.22c-.21-.31-.41-.63-.59-1a13,13,0,0,1-.57-1.19c-.36-1-.53-2.34-1.59-2.9a5,5,0,0,0-2.42-.21c-2.31.06-4.62,0-6.92-.05-3-.06-6,0-9-.11-1.48,0-3-.13-4.46-.23s-3.11-.15-4.67-.19q-4.31-.14-8.6-.39c-1.33-.08-2.65-.16-4-.18-.66,0-1.32,0-2,0a4.87,4.87,0,0,0-.66,0,1.15,1.15,0,0,0-.48.13,1.5,1.5,0,0,0-1.19,1,6.81,6.81,0,0,0-.21,1.56c0,.49-.1,1-.18,1.46a0,0,0,0,1,0,0,23.37,23.37,0,0,1-.65,2.72,24.5,24.5,0,0,1-.81,2.37l-.2.38q-.24.38-.51.72c-.39.46-.8.9-1.23,1.33a36.89,36.89,0,0,1-3.24,2.76c-.67.48-1.36.93-2.07,1.34A15.85,15.85,0,0,1,53.9,94a26.64,26.64,0,0,1-2.75.88,3.62,3.62,0,0,0-1,.4,2.31,2.31,0,0,0-.79.85A3.71,3.71,0,0,0,48.79,98a11.56,11.56,0,0,0,.32,2c.21,1,.43,2,.67,3.08.34,1.41.74,2.81,1.13,4.21.81,2.81,1.58,5.63,2.5,8.4a73.91,73.91,0,0,0,3.38,8.49,53,53,0,0,0,4.52,8.27,33.74,33.74,0,0,0,6,6.54,28.32,28.32,0,0,0,3.42,2.34c1.15.69,2.3,1.39,3.48,2,.19.11.39.22.6.32a1.32,1.32,0,0,0,.81.41l.24.12a.21.21,0,0,1,0-.11,1.43,1.43,0,0,0,1.18-.72v0l-.1.15c.17-.23.36-.47.55-.68a12.48,12.48,0,0,1,1.14-1.16,17,17,0,0,1,1.57-1.23,10.05,10.05,0,0,1,1.06-.61,14.75,14.75,0,0,1,1.7-.69,21.4,21.4,0,0,1,2.38-.64,21,21,0,0,1,2.37-.29c.31,0,.63,0,1,0S89.6,138.22,90.06,138.25ZM52.93,78.65a5.91,5.91,0,0,0-2.53,3A6.21,6.21,0,0,0,50,83.38,5.78,5.78,0,0,0,50,85.19a4.69,4.69,0,0,0,1.22,2.49,5.48,5.48,0,0,0,1,.76,4.47,4.47,0,0,0,1,.46,4.89,4.89,0,0,0,1.21.15,5.46,5.46,0,0,0,3.74-1.5A5.83,5.83,0,0,0,60,83.82,5.57,5.57,0,0,0,60,82.47,3.55,3.55,0,0,0,59.45,81a4.87,4.87,0,0,0-3.09-1.94,1.91,1.91,0,0,0-1.42-.83h-.2A3.93,3.93,0,0,0,52.93,78.65Zm68-.2a4.42,4.42,0,0,0-3,2.88,5.23,5.23,0,0,0-.23,3.4,5.6,5.6,0,0,0,.44,1.07,4.22,4.22,0,0,0,.77,1,4,4,0,0,0,1.84,1,5.62,5.62,0,0,0,1.36.16,4.88,4.88,0,0,0,2.66-.74,5.06,5.06,0,0,0,2.31-3.76,5.51,5.51,0,0,0-.16-1.62,5.42,5.42,0,0,0-.36-1.12,3.84,3.84,0,0,0-1.43-1.61,6.9,6.9,0,0,0-1-.57,7.81,7.81,0,0,0-1.27-.4,1.44,1.44,0,0,0-1.27.31h-.19A2,2,0,0,0,120.93,78.45Z" fill="#ffca11"/>
          <path d="M99.44,139.67a11.89,11.89,0,0,0-4-3c-.56-.26-1.13-.51-1.71-.72a11.54,11.54,0,0,0-2.14-.53,18.75,18.75,0,0,0-4.1-.14c-.36,0-.71.05-1.06.09a21,21,0,0,0-4.56,1.06,13.16,13.16,0,0,0-3.47,1.75,15.7,15.7,0,0,0-2.47,2.12l-.21.24-1-.6c-1-.58-2-1.17-3-1.77a21.81,21.81,0,0,1-2.26-1.58l-.06-.05a33.87,33.87,0,0,1-2.62-2.46h0a30.37,30.37,0,0,1-2.33-2.74,39.1,39.1,0,0,1-2.52-4c-.81-1.48-1.52-3-2.24-4.55s-1.35-3-2-4.48c-1-2.62-1.86-5.28-2.64-8-.42-1.42-.83-2.84-1.24-4.27s-.76-2.64-1.09-4c-.2-.87-.4-1.74-.57-2.62-.1-.5-.22-1-.29-1.53v-.1h0v0c.55-.17,1.13-.28,1.68-.47A21.68,21.68,0,0,0,56.85,96a28.14,28.14,0,0,0,5.47-4,17.79,17.79,0,0,0,2.95-3.24,8.14,8.14,0,0,0,1-2.09c.24-.7.45-1.41.66-2.12a22.77,22.77,0,0,0,.69-3.34q.08-.51.12-1l1.91,0h0c2,.08,3.94.21,5.9.33s4,.19,6.07.26h.33l1.62,0h.37c2.27.09,4.53.28,6.8.36.92,0,1.83.06,2.74.07,1.5,0,3,0,4.47,0l4.38.08c1.11,0,2.22,0,3.33,0,.61,0,1.23,0,1.85,0,.12.4.23.79.37,1.18a13.18,13.18,0,0,0,1,2,18.89,18.89,0,0,0,2.84,3.47,29.42,29.42,0,0,0,3,2.9,25.1,25.1,0,0,0,3.63,2.32,18.43,18.43,0,0,0,2.59,1.21l1,.32a1.62,1.62,0,0,1,0,.22c0,.61,0,1.23,0,1.84v0c0,1.42-.16,2.83-.34,4.23-.2,1.56-.47,3.11-.73,4.66-.23,1.36-.51,2.7-.78,4.06s-.48,2.63-.73,3.94a75.82,75.82,0,0,1-1.69,7.57h0a52.28,52.28,0,0,1-2.13,5.67,25.66,25.66,0,0,1-1.5,2.84,34.86,34.86,0,0,1-2.24,3.17,28.75,28.75,0,0,1-2.11,2.3,30.7,30.7,0,0,1-2.69,2.29,36.25,36.25,0,0,1-3.38,2.14,32.47,32.47,0,0,1-3,1.43A8.8,8.8,0,0,0,99.44,139.67ZM87.29,90a13.84,13.84,0,0,0-3.92,1.86,9.08,9.08,0,0,0-3.29,3.69,8.77,8.77,0,0,0-.66,2.26,7.23,7.23,0,0,0,.16,2.41,9.82,9.82,0,0,0,.65,2.25,11.93,11.93,0,0,0,1.26,2.07,5.31,5.31,0,0,0,2,1.7c-.1.29-.2.58-.29.87-.48,1.41-1,2.83-1.39,4.27s-.83,2.78-1.24,4.17c-.64,2.25-1.26,4.51-2,6.73a3.72,3.72,0,0,0-.26,1.55,4,4,0,0,0,.45,1.92c.83,1.32,2.54,1.39,3.92,1.64s2.68.42,4,.58c1,.12,2,.24,3.06.26l.79,0q.39,0,.78,0c.53,0,1.06-.11,1.59-.18.77-.11,1.54-.27,2.31-.42a11.9,11.9,0,0,0,1.18-.28,9.22,9.22,0,0,0,1.56-.73,13.52,13.52,0,0,0,1.4-1,2.7,2.7,0,0,0,.91-1.36,5.38,5.38,0,0,0,0-2c-.19-1.35-.42-2.69-.68-4v0c-.51-2.54-1.24-5-1.74-7.56-.29-1.51-.53-3-.82-4.56-.09-.45-.16-.91-.23-1.36a7.22,7.22,0,0,0,2.25-4,10,10,0,0,0,.11-2.5,10.29,10.29,0,0,0-.57-2.91,8.38,8.38,0,0,0-1-2,9.57,9.57,0,0,0-1.53-1.65,9,9,0,0,0-2-1.36,8.19,8.19,0,0,0-2.43-.71,9.23,9.23,0,0,0-1.18-.08A11.32,11.32,0,0,0,87.29,90Z" fill="#fead16"/>
          <path d="M121.74,69.75c-2.1-.56-4.23-1-6.37-1.4a6.47,6.47,0,0,0,.06-.87c0-.23,0-.46,0-.69,0-.61,0-1.22.09-1.82.13-2.22.11-4.43.09-6.64a34.44,34.44,0,0,0-.63-8.11,13.51,13.51,0,0,0-1.64-3.78c-.69-1.12-1.43-2.21-2.21-3.27A28.72,28.72,0,0,0,108.39,40a29.87,29.87,0,0,0-2.65-2.24A33.54,33.54,0,0,0,99,33.32a38,38,0,0,0-4.29-1.58h0c-.84-.26-1.68-.49-2.53-.67a15.54,15.54,0,0,0-2.56-.27,17.82,17.82,0,0,0-4.19.23,23.73,23.73,0,0,0-3.39,1.05h0l-.1,0h0c-1.17.46-2.29,1-3.4,1.61a23.47,23.47,0,0,0-3.24,1.93A36,36,0,0,0,72.57,38a23.91,23.91,0,0,0-2.66,2.76,13.68,13.68,0,0,0-1.48,2.15,26.48,26.48,0,0,0-1.19,2.53,41.15,41.15,0,0,0-1.82,5.28,44.3,44.3,0,0,0-1.51,9.13c-.09,1.51-.09,3-.12,4.53,0,.67,0,1.35,0,2v0c-1.79.12-3.58.26-5.36.43-1.37.13-2.74.26-4.1.5a.45.45,0,0,0,0-.11c0-.82-.06-1.63,0-2.45v0a82.19,82.19,0,0,1,1-10.26h0a57,57,0,0,1,1.6-7.05,62.57,62.57,0,0,1,2.53-6.59,51.49,51.49,0,0,1,2.67-5.1c.58-.91,1.21-1.79,1.88-2.65a47.49,47.49,0,0,1,3.51-3.87c.75-.68,1.52-1.33,2.32-1.94a44.45,44.45,0,0,1,8.43-4.74,32.94,32.94,0,0,1,3.38-1A26.19,26.19,0,0,1,84.39,21a37.49,37.49,0,0,1,4.49-.14,51.61,51.61,0,0,1,5.43.44,36.62,36.62,0,0,1,4.14,1,38.08,38.08,0,0,1,4.2,1.59h0l.14.06-.06,0a45.78,45.78,0,0,1,4.3,2.2l.32.2.07,0,0,0a36,36,0,0,1,3.65,2.6,32.51,32.51,0,0,1,2.77,2.61,47.4,47.4,0,0,1,3.36,4,42.66,42.66,0,0,1,2.61,4,46.67,46.67,0,0,1,2.28,4.86A47.91,47.91,0,0,1,124,50.4a41.22,41.22,0,0,1,.85,4.8,72.29,72.29,0,0,1,.19,8.58V64q-.06,1.82-.21,3.63c-.09,1-.15,2-.29,2.91C123.59,70.24,122.66,70,121.74,69.75Z" fill="#fead16"/>
          <path d="M102.8,24h0Z" fill="#fead16"/>
          <path d="M54.19,86.05l-.1,0L54,86l-.26-.14-.3-.21-.13-.12a0,0,0,0,0,0,0l-.06-.11a1.15,1.15,0,0,1-.12-.25c0-.11-.07-.21-.1-.32l-.12-.66v-.06c0-.21,0-.42.06-.62A2.68,2.68,0,0,1,53,83.2a4.44,4.44,0,0,1,.22-.61c.08-.17.17-.33.26-.5s.26-.37.4-.55l.1-.11.08-.06a1.54,1.54,0,0,0,1.21.57h.34l.25.06.38.15.33.17.15.11h0a.38.38,0,0,0,.09.09l.08.1s0,0,0,0h0s0,.1,0,.15.06.35.09.52v.24c0,.14,0,.29,0,.43l-.06.23a1.54,1.54,0,0,1-.08.19,5.21,5.21,0,0,1-.24.47l-.25.35-.19.2a2.05,2.05,0,0,1-.23.2l-.23.14-.21.1-.27.08a5,5,0,0,1-.56.09h-.3Z" fill="#fead16"/>
          <path d="M121.67,85l-.33-.08-.16-.06-.21-.11-.09-.07a.08.08,0,0,0,0,0l-.06-.08-.06-.1a3.52,3.52,0,0,1-.18-.39.74.74,0,0,1,0-.14c0-.11,0-.24-.07-.35v-.15c0-.15,0-.29,0-.44s.06-.22.08-.33l.15-.39c.06-.11.12-.22.17-.33l.17-.25.17-.19.1-.08.16-.1h0l.07,0h0a1.59,1.59,0,0,0,.75-.21l.52.22c.18.09.35.18.53.29l.32.21a.46.46,0,0,0,.07.07s0,0,0,0l0,.06.06.11c.06.19.12.37.16.55a3,3,0,0,1,.08.41,1.48,1.48,0,0,1,0,.21,1.5,1.5,0,0,1,0,.2,1.29,1.29,0,0,1,0,.19,2.34,2.34,0,0,1-.09.24l-.12.23-.17.23-.18.2-.15.12-.21.14-.24.11-.28.09-.29,0H122A1.66,1.66,0,0,1,121.67,85Z" fill="#fead16"/>
          <path d="M88.45,149.65h0l-.43-.07h0a5.77,5.77,0,0,1-.84-.23,3.16,3.16,0,0,1-.5-.22l-.3-.17c-.12-.08-.23-.17-.34-.26h0l-.24-.26c-.08-.09-.14-.19-.21-.28a.83.83,0,0,1-.09-.16,1,1,0,0,0-.07-.15l0-.14,0-.21s0-.07,0-.1,0-.27,0-.4.08-.29.13-.43a4.78,4.78,0,0,1,.19-.48,2,2,0,0,1,.12-.19l0,0,0-.05.18-.15.25-.14h0a8.68,8.68,0,0,1,.84-.34l.34-.09.19,0h.17a1.39,1.39,0,0,0,1.38.38c.38.27.74.55,1.1.86l.27.27c.08.09.15.19.22.28l.1.18c.07.15.14.3.2.46s0,.19.08.29V148c0,.1,0,.2,0,.31a1.54,1.54,0,0,1-.05.17c-.06.15-.13.3-.2.45l-.07.14-.09.08-.21.16h0l-.36.14-.39.1a9.05,9.05,0,0,1-.91.12Z" fill="#fead16"/>
          <path d="M65,67.22a2.92,2.92,0,0,1-.32.28l-.19.13a5.72,5.72,0,0,1-2.18.64c-1.33.17-2.68.27-4,.38-.78.07-1.56.16-2.34.17h-.06a2.49,2.49,0,0,1-1.71-.54c.3-.12.6-.23.9-.32a27.58,27.58,0,0,1,4.31-.84A16.6,16.6,0,0,1,63.7,67,12,12,0,0,1,65,67.22Z" fill="#110802" fill-opacity="0.25"/>
          <path d="M123.15,97.82a36.09,36.09,0,0,1-.22,4.28c-.3,3.14-.84,6.26-1.42,9.37a80.62,80.62,0,0,1-1.93,8.58c-.43,1.4-1,2.76-1.51,4.1-.65,1.52-1.34,3-2.12,4.48s-1.48,2.64-2.3,3.92a28.18,28.18,0,0,1-2.59,3.37c-.87,1-1.72,2-2.68,2.89a31.17,31.17,0,0,1-2.81,2.32,16.44,16.44,0,0,1-1.68,1.07,3.85,3.85,0,0,1-1.81.72H102a1.59,1.59,0,0,1-1.15-.7,1.53,1.53,0,0,1-.22-1,1.73,1.73,0,0,1-.58-.42,1.58,1.58,0,0,1,.2-2.21c.91-.76,1.81-1.54,2.69-2.34,1.15-1,2.34-2,3.48-3.07l0,0a23.92,23.92,0,0,0,1.86-2,16.24,16.24,0,0,0,1-1.34c.64-1.16,1.16-2.39,1.71-3.6.7-1.56,1.37-3.13,2-4.74s1-3.09,1.5-4.65a21,21,0,0,0,.57-2.37c.16-1,.28-2,.43-3s.25-2,.46-3a.14.14,0,0,1,0-.06c0-1.78,0-3.55-.07-5.32-.06-1-.15-2-.25-2.92a13.13,13.13,0,0,1-.09-1.54c-1-.59-1.91-1.19-2.8-1.85a24.38,24.38,0,0,1-3.38-3,31.68,31.68,0,0,1-2-2.46l-.74-.75a14,14,0,0,1-2.79-4,7.74,7.74,0,0,1-.6-2.36,9.5,9.5,0,0,1-.06-1.31l-.1,0-2.39-.44h-.1a33.54,33.54,0,0,0-4.13-.38l-.68,0h-.26a2,2,0,0,1-.43-.06,1.23,1.23,0,0,1-.69-.45h0a1.37,1.37,0,0,1-.24-1.42h0a1.17,1.17,0,0,1,.41-.58,1.27,1.27,0,0,1,.86-.34h.14c.32,0,.63,0,1,0h.22a35.54,35.54,0,0,1,4.48.42c.82.13,1.63.28,2.45.44.56.1,1.13.2,1.69.34a1.89,1.89,0,0,1,1.24.32,2.31,2.31,0,0,1,.53.55l.14.14a11,11,0,0,1,1.25,2,43.3,43.3,0,0,0,2.71,4.14h0A18.88,18.88,0,0,0,112.44,89,20.67,20.67,0,0,0,114,90.4a14.59,14.59,0,0,0,1.31.91c1.33.82,2.73,1.5,4.12,2.2.77.39,1.56.78,2.31,1.23a3,3,0,0,1,1.06,1.12A4.49,4.49,0,0,1,123.15,97.82Z" fill="#110802" fill-opacity="0.25"/>
          <path d="M65,67.22a2.92,2.92,0,0,1-.32.28l-.19.13a5.72,5.72,0,0,1-2.18.64c-1.33.17-2.68.27-4,.38-.78.07-1.56.16-2.34.17h-.06a2.49,2.49,0,0,1-1.71-.54c.3-.12.6-.23.9-.32a27.58,27.58,0,0,1,4.31-.84A16.6,16.6,0,0,1,63.7,67,12,12,0,0,1,65,67.22Z" fill="#110802" fill-opacity="0.25"/>
          <path d="M87.41,153.29a1.45,1.45,0,0,1,.25,2.57,1.44,1.44,0,0,1-.78.23,4.52,4.52,0,0,1-1.89-.7l-1.29-.67a1.51,1.51,0,0,1-1.26.25c-1.09-.3-2.17-.62-3.27-.88-1.44-.36-2.89-.61-4.32-1-.74-.22-1.47-.49-2.2-.75s-1.34-.49-2-.76a28.28,28.28,0,0,1-3.89-2.05c-.68-.41-1.37-.82-2-1.29s-1.09-.82-1.62-1.25A40.74,40.74,0,0,1,59.76,144a38.72,38.72,0,0,1-5.49-6.94,66,66,0,0,1-4-8c-.56-1.25-1.13-2.49-1.65-3.76-.6-1.46-1.16-2.93-1.72-4.41s-1-2.87-1.55-4.3a36.73,36.73,0,0,1-1.4-4.55,18.29,18.29,0,0,1-.42-2.53c0-.36-.07-.72-.07-1.08a4.37,4.37,0,0,1,.34-2.09,2.32,2.32,0,0,1,.39-.54c-.34-1.34-.69-2.66-1-4s-.7-3-1-4.46a40.19,40.19,0,0,1-.7-9.54A31.77,31.77,0,0,1,42,83.49a34.74,34.74,0,0,1,.89-4.17v0a12.63,12.63,0,0,1,2.07-4.15,18.92,18.92,0,0,1,3.33-3.24c1-.78,2.14-1.47,3.23-2.16a16.49,16.49,0,0,1,2.72-1.44,2.49,2.49,0,0,0,1.71.54H56c.78,0,1.56-.1,2.34-.17,1.34-.11,2.69-.21,4-.38a5.72,5.72,0,0,0,2.18-.64l.19-.13a2.92,2.92,0,0,0,.32-.28A12,12,0,0,0,63.7,67a16.6,16.6,0,0,0-4.28.15,27.58,27.58,0,0,0-4.31.84c-.3.09-.6.2-.9.32h0a4.22,4.22,0,0,1-.9-2.85,25.24,25.24,0,0,1,.08-4.68c.11-1.48.26-3,.41-4.42.08-.78.15-1.56.29-2.32s.29-1.48.46-2.21c.36-1.56.8-3.09,1.3-4.62.91-2.8,2-5.52,3.2-8.24.27-.65.54-1.31.87-1.93s.75-1.35,1.17-2,.72-1.11,1.09-1.66a19.23,19.23,0,0,1,1.16-1.57,1.42,1.42,0,0,1,1.29-.45,31.67,31.67,0,0,1,2.62-4.07,25,25,0,0,1,2.17-2.53,19.1,19.1,0,0,1,2.22-1.89l0,0h0l0,0,.37-.29a1.41,1.41,0,0,1,2,.17,1.44,1.44,0,0,1-.17,2,8.7,8.7,0,0,1-.76.6q-.7.54-1.35,1.14a20.28,20.28,0,0,0-1.71,1.88,33.72,33.72,0,0,0-2.2,3.12c-.53.9-1,1.81-1.47,2.75a38.56,38.56,0,0,0-1.81,4.72h0s0,0,0,.06c-.35,1.26-.61,2.52-.84,3.8v.1c-.19,1.14-.36,2.28-.46,3.42s-.16,2.46-.2,3.68a33.81,33.81,0,0,0,.06,4.27,24,24,0,0,0,.47,2.92A12.34,12.34,0,0,0,64,58.32a9.23,9.23,0,0,0,.42.9,8.65,8.65,0,0,1,1.34,2.85,11.32,11.32,0,0,1,.06,1.84c0,.55,0,1.1-.08,1.64a3.87,3.87,0,0,1-.12.68,2.43,2.43,0,0,1-.56,1q.34.07.69.18a4,4,0,0,1,1.73.86,2.35,2.35,0,0,1,.73,1.65,5,5,0,0,1-.26,1.48c-.13.46-.27.93-.41,1.4C66.78,75.18,66,77.56,65.24,80l0,.1h0c-.54,1.82-1,3.69-1.38,5.55s-.75,3.73-1.06,5.6a65.43,65.43,0,0,0-.88,7.51c0,1.12,0,2.25,0,3.38,0,1.31.09,2.63.17,3.94.15,2.47.39,4.94.64,7.41a74,74,0,0,0,1.59,8.73c.38,1.45.79,2.9,1.2,4.35s.86,2.86,1.39,4.26c.32.8.65,1.61,1,2.39s.77,1.53,1.18,2.29a56,56,0,0,0,3.35,5.37,52.12,52.12,0,0,0,3.71,4.41c1.12,1.12,2.28,2.15,3.5,3.15l0,0,0,0a48.41,48.41,0,0,0,4,2.89c1.1.67,2.23,1.31,3.39,1.87A1.15,1.15,0,0,1,87.41,153.29Z" fill="#110802" fill-opacity="0.25"/>
        </g>
      </g>
    </g>
  </g>
</svg>
