<?xml version="1.0" encoding="UTF-8"?>
<svg xmlns="http://www.w3.org/2000/svg" width="350" height="350" viewBox="0 0 350 350">
  <g id="Layer_1" data-name="Layer 1"/>
  <g id="Layer_2" data-name="Layer 2">
    <g id="Layer_1-2" data-name="Layer 1">
      <g>
        <g>
          <path d="M182.76,93.11h-.01s.05,0,.07,0c-.02,0-.04,0-.05,0Z" fill="rgba(17, 8, 2, .25)"/>
          <path d="M256.04,140.15c-3.35-10.2-10.54-18.33-18.88-24.85-.04-.04-.08-.07-.12-.1-.02-.02-.04-.04-.06-.06-.04-.03-.08-.07-.13-.1-1.63-1.4-3.34-2.71-5.1-3.93-3.56-2.69-7.23-5.25-11.28-7.09-6.95-4.23-14.53-6.45-22.32-8.55-5.08-1.36-10.34-2-15.61-2.19-.34-.03-.69-.07-1.03-.11-.21-.03-.43-.05-.64-.09-.15-.02-.31-.03-.46-.07-.38,.02-.75,.05-1.11,.08-.74,.05-1.43,.11-2.02,.13-.3,0-.6,0-.9,.02-.15,0-.3,0-.41-.02-11.62,.16-24.89,4.13-34.21,11.16-7.03,5.82-10.66,14.26-13.93,22.54-.82,2.16-1.65,4.31-2.48,6.46-.11,.18-.21,.36-.26,.57-.52,1.23-.96,2.47-1.38,3.72-.14,.38-.3,.77-.44,1.15,.02-.01,.05-.02,.07-.03-1.42,4.66-2.29,9.47-3.52,14.26-4.68,4.81-9.38,9.62-13.3,15.12-6.79,8.9-13.52,18.39-16.4,29.39-.88,3.77-2.93,9.55,.76,12.25,.16,.16,.35,.29,.57,.37,0,0,.02,.01,.03,.02,.63,.35,1.24,.29,1.71,.01,5.62-.57,10.97-3.04,16.61-3.69,.55-.04,1.1-.08,1.65-.13,.61-.03,1.23-.02,1.86,0,.05,5.82,.28,11.62,.86,17.41,.09,1.76,.26,3.58,.43,5.41,.08,2.17,.23,4.33,.48,6.49,.02,.52,.06,1.05,.07,1.57,.06,1.97,.18,4.16-1.37,5.62-3.96,3.84-9.84,6.34-15.4,5.08-.02-.02-.05-.03-.07-.05-.4-.68-.91-1.33-1.24-1.88-2.9-4.42-6.27-8.6-10.31-12.02-3.93-3.55-8.56-6.37-13.85-7.3-4.11-.79-10.21-2.43-9.09,4.09,.72,8.89,4.38,17.88,10.87,24.17,.09,.08,.18,.16,.26,.24-.69,.18-1.31,.38-1.76,.53-7.73,3.08-14.57,8.8-18.44,16.22-.35,.64-.69,1.33-.47,2.08,1.25,2.86,6.92,3.2,9.7,3.62,10.12,.5,20.42-1.61,29.82-5.29,.02-.01,.04-.02,.06-.04,.58-.16,1.15-.35,1.65-.44,2.83-.6,5.69-1.06,8.58-1.2,6.17-.33,12.73,.68,18.95,1.2,4.73,.53,9.38,.35,14.12,1.13,14.55,3.66,29.16,7.55,44.11,9.11,2.37-.01,4.87,.07,7.14-.63,2.68-1.63,3.79-4.94,4.92-7.72,1.05-2.74,1.7-5.61,2.26-8.49,.06,0,.12,.02,.19,.02,6.31-1.49,12.55-3.63,18.86-5.24,7.77-.43,15.61,.22,23.38-.6,.11-.01,.22-.04,.32-.07,1,.23,2.33-.01,3.26-.03,1.8-.32,2.99-1.37,4.46-2.5,.67-.53,1.38-1.08,1.8-1.84,1.08-2.42,1.55-5.08,2.08-7.66,.36-5.01,8.19-24.1-3.1-20.16-4.38,2.25-8.02,5.72-11.37,9.27-.59,.71-1.44,1.39-1.95,2.21-3.27-1.11-6.63-1.9-10.04-2.45-.21-.04-.45-.08-.7-.12,0-.12-.01-.23-.02-.34-.02-4.78-.1-9.56-.3-14.34-.03-.67-.07-1.34-.11-2.01,3.79,.14,11.8-4.89,13.61-6,6.97-4.31,13.62-9.95,17.78-17.09,.93-2.2,.24-5.19-1.82-6.5-1.95-1.16-4.31-.65-6.45-.43-4.58,.73-9.3,.71-14,.4-4.61-.41-9.56-.59-13.82-2.59-.27-.27-.65-.44-1.05-.49-.24-.66-.48-1.33-.74-1.98-1.79-3.7-3.28-7.64-5.33-11.21,1.73-.41,3.45-.84,5.16-1.31,6.9-1.65,13.54-3.98,19.91-7.08,4.32-1.79,8.61-3.64,12.6-6.09,2.14-1.26,4.48-2.44,6.16-4.28,.86-.39,1.51-1.53,1.86-2.43,2.14-3.72,1.19-8.37-.19-12.21Z" fill="rgba(21, 15, 12, .25)"/>
        </g>
        <rect width="350" height="350" fill="none"/>
      </g>
    </g>
  </g>
</svg>