<svg width="56" height="49" viewBox="0 0 56 49" fill="none" xmlns="http://www.w3.org/2000/svg">
<path d="M55.5304 30.316C55.5219 30.1711 55.5055 30.0268 55.4815 29.8837C55.4613 29.7751 55.4325 29.6683 55.3954 29.5643C55.3363 29.3946 55.2623 29.2303 55.1743 29.0735C55.061 28.8784 54.9192 28.7012 54.7536 28.5477C54.5611 28.38 54.3592 28.2233 54.1489 28.0783C53.9673 27.9342 53.775 27.8039 53.5735 27.6888C53.4067 27.593 53.2349 27.5059 53.0589 27.4278C52.8045 27.3305 52.5462 27.2506 52.2761 27.1766C52.0435 27.1104 51.8078 27.0558 51.5697 27.013C51.2986 26.9767 51.0252 26.9597 50.7517 26.9624C50.5012 26.9624 50.2488 26.9624 49.9983 26.9897C49.7236 27.0114 49.4504 27.0498 49.1803 27.1046C48.924 27.161 48.6735 27.235 48.423 27.3149C48.2329 27.3738 48.0461 27.4427 47.8633 27.5213C47.6794 27.5981 47.5009 27.6872 47.3291 27.7881C46.987 27.9896 46.66 28.2154 46.3507 28.4639C46.1226 28.6429 45.9051 28.8348 45.699 29.0384C45.5038 29.2397 45.3239 29.4552 45.1609 29.6831C44.8155 30.1703 44.523 30.6926 44.2881 31.2411C44.0807 31.7124 43.8967 32.2032 43.701 32.6862C43.5895 32.9685 43.4643 33.2704 43.3762 33.5353L43.2216 34.0046L43.2392 33.9248C43.3155 33.5742 43.386 33.2217 43.4466 32.8673C43.5151 32.468 43.5895 32.0707 43.6639 31.6715C43.8126 30.8743 43.9704 30.0784 44.1374 29.2838C44.2118 28.9216 44.2803 28.5847 44.3644 28.1952C44.4486 27.8057 44.5347 27.4162 44.6149 27.0267C44.7656 26.3022 44.9045 25.5913 45.0513 24.8474C45.1981 24.1034 45.337 23.3556 45.4427 22.6038C45.5441 21.8099 45.5977 21.0107 45.6031 20.2103C45.6031 19.8208 45.6031 19.3924 45.5816 19.0224C45.5601 18.6523 45.5268 18.2959 45.4955 17.9162C45.4642 17.5364 45.3996 17.1605 45.339 16.7827C45.2783 16.4049 45.2078 16.0037 45.1315 15.6142C45.0924 15.4194 45.0513 15.2247 45.0043 15.0124C44.9574 14.8001 44.8987 14.6132 44.836 14.4184C44.7088 14.0094 44.5816 13.6199 44.431 13.2304C44.3566 13.0357 44.2783 12.8409 44.1981 12.6462C44.1179 12.4514 44.0415 12.2567 43.9574 12.0619C43.8041 11.7041 43.6323 11.3544 43.4427 11.0142C43.247 10.6597 43.0514 10.2819 42.8557 9.96444C42.66 9.647 42.4506 9.34513 42.2549 9.03548V9.04911C42.0592 8.7414 41.8459 8.43759 41.6502 8.12988V8.14351C41.4879 7.87527 41.3122 7.61527 41.1238 7.3645C40.9116 7.06949 40.6836 6.78605 40.4409 6.51539C40.206 6.26026 39.9732 6.00319 39.7305 5.75586C39.4879 5.50852 39.2667 5.29429 38.9908 5.02164C38.7149 4.74898 38.4214 4.49191 38.1278 4.24263C37.5809 3.76477 36.9965 3.33105 36.3803 2.94559C36.0848 2.76836 35.7933 2.59503 35.4978 2.4178C35.2023 2.24058 34.8872 2.0731 34.5702 1.92703C33.9189 1.6409 33.248 1.4014 32.5624 1.21035C32.2435 1.12076 31.9264 1.02533 31.6016 0.955222C31.2768 0.885111 30.9245 0.811104 30.584 0.746836C30.2435 0.682568 29.8482 0.606613 29.4803 0.532608C29.115 0.457991 28.7459 0.402733 28.3747 0.367067C27.997 0.33396 27.6076 0.306697 27.2436 0.291117C26.8796 0.275537 26.5293 0.25411 26.1536 0.244373C25.7779 0.234635 25.408 0.219057 25.0284 0.234638C24.6488 0.250218 24.2711 0.265799 23.8934 0.302802C23.1478 0.37486 22.3964 0.411859 21.6567 0.536501C20.9047 0.662421 20.161 0.833466 19.4297 1.0487C19.056 1.15971 18.6822 1.30578 18.33 1.44794C17.9777 1.59011 17.6333 1.73812 17.2772 1.89003C16.921 2.04194 16.5707 2.20747 16.2244 2.37107C15.878 2.53466 15.5355 2.70214 15.2009 2.88521L14.7078 3.15397C14.5375 3.24355 14.3634 3.33509 14.2009 3.43831C13.8565 3.65448 13.5141 3.89597 13.1951 4.12383C12.8761 4.35169 12.5552 4.58539 12.2519 4.82104C11.9486 5.05669 11.6648 5.30792 11.3752 5.565C11.1011 5.81734 10.8398 6.08318 10.5924 6.36153C10.3485 6.63418 10.1169 6.91658 9.89774 7.2087C9.78424 7.35866 9.68443 7.50862 9.57094 7.66637C9.45744 7.82412 9.34589 7.98382 9.24413 8.14936C9.02887 8.48433 8.82928 8.83489 8.6375 9.17181C8.44573 9.50873 8.26178 9.86123 8.0974 10.2001C7.93302 10.539 7.77255 10.8661 7.61209 11.2225C7.45162 11.5789 7.29899 11.9412 7.162 12.3054C7.02502 12.6696 6.89 13.0337 6.77063 13.4077C6.54749 14.143 6.37166 14.8917 6.24422 15.6493C6.1816 16.0388 6.12681 16.4283 6.09354 16.8178C6.06028 17.2073 6.0544 17.6162 6.04266 17.9863C6.03092 18.3563 6.04266 18.701 6.04266 19.0964C6.04266 19.4917 6.05636 19.9046 6.07789 20.2844C6.09941 20.6641 6.12486 21.0322 6.16791 21.4217C6.21096 21.8112 6.27553 22.2007 6.3362 22.5902C6.45948 23.3536 6.55928 24.1268 6.72758 24.8785C6.89587 25.6303 7.14635 26.3626 7.37335 27.0987C7.47706 27.4356 7.58078 27.7414 7.71189 28.0997C7.843 28.4581 7.99955 28.8086 8.16393 29.1514C8.25003 29.3306 8.34201 29.5136 8.42811 29.687C8.47703 29.7863 8.52596 29.8817 8.57684 29.9772C8.48095 29.9304 8.38115 29.8837 8.28526 29.8408C7.74051 29.5849 7.17322 29.3796 6.59059 29.2274C6.28915 29.157 5.98408 29.103 5.67673 29.0657C5.38262 29.0365 5.08632 29.0365 4.79221 29.0657C4.19457 29.1294 3.60467 29.2514 3.03101 29.4299C2.89794 29.4708 2.76487 29.5117 2.63963 29.5643C2.50574 29.6221 2.37509 29.6871 2.24825 29.759C2.00794 29.8952 1.78065 30.0529 1.56922 30.2303C1.46874 30.3122 1.37272 30.3993 1.28155 30.4913C0.861704 30.8994 0.57701 31.4253 0.465529 31.9987C0.445663 32.1458 0.440422 32.2945 0.449877 32.4427C0.455291 32.5844 0.477625 32.725 0.516411 32.8614C0.587715 33.117 0.693009 33.362 0.829508 33.5898C1.04114 33.892 1.31964 34.1419 1.64357 34.3201C1.79693 34.4155 1.9557 34.502 2.1191 34.5791C2.31479 34.6746 2.52417 34.7525 2.7316 34.8284L2.69443 34.8148C2.99318 34.9237 3.28582 35.0485 3.57111 35.1887C3.69957 35.2582 3.82432 35.3343 3.94488 35.4166C4.03226 35.4764 4.1159 35.5414 4.19536 35.6113C4.24624 35.66 4.2932 35.7106 4.34017 35.7632C4.41453 35.8528 4.48498 35.9482 4.54956 36.0437C4.63239 36.1746 4.70816 36.3098 4.77656 36.4488C4.82744 36.5598 4.8744 36.6708 4.91549 36.7876C4.96271 36.9412 5.00125 37.0972 5.03095 37.255C5.06813 37.477 5.08966 37.703 5.10727 37.9269C5.1288 38.2327 5.15424 38.5638 5.17967 38.8403C5.20511 39.1169 5.22077 39.3934 5.24426 39.6719C5.25861 39.8199 5.27426 39.966 5.29122 40.1101C5.30296 40.186 5.31274 40.2659 5.32448 40.3438C5.33144 40.4126 5.34255 40.4809 5.35775 40.5483C5.37036 40.5715 5.3758 40.5979 5.3734 40.6242C5.42976 40.9149 5.50427 41.2017 5.59649 41.4831C5.67868 41.748 5.7687 42.0089 5.87437 42.2621C5.98496 42.54 6.11577 42.8094 6.26575 43.0684C6.40747 43.3008 6.5685 43.521 6.74715 43.7266C6.94025 43.9603 7.15019 44.1796 7.37531 44.383C7.59496 44.5875 7.83875 44.7647 8.10131 44.9107C8.35936 45.0508 8.62833 45.17 8.90559 45.2671C9.1776 45.3626 9.45156 45.4619 9.72944 45.5281C10.2886 45.6688 10.8588 45.7613 11.4339 45.8046C11.7411 45.8339 12.0503 45.8631 12.3595 45.8767L12.5806 45.8864C12.8204 45.8868 13.0599 45.8686 13.2969 45.8319C13.8538 45.7564 14.3997 45.6152 14.923 45.4112C15.1605 45.323 15.387 45.208 15.5982 45.0685C15.7782 45.5755 16.0173 46.0598 16.3105 46.5116C16.4761 46.7693 16.6733 47.0054 16.8975 47.2146C17.1148 47.4152 17.3529 47.5921 17.6079 47.7424C17.7409 47.8242 17.8799 47.8963 18.0169 47.9683C18.1441 48.036 18.2747 48.0971 18.4082 48.1514C18.6702 48.2531 18.9425 48.3262 19.2204 48.3695C19.4963 48.4124 19.7742 48.4435 20.054 48.4688H20.0794L20.3632 48.4922C20.6528 48.5136 20.9502 48.537 21.2399 48.537H21.5021C21.7095 48.5403 21.9169 48.5279 22.1224 48.5C22.4003 48.463 22.6782 48.4143 22.9521 48.35C23.097 48.3169 23.2281 48.2858 23.3827 48.2371C23.5373 48.1884 23.6899 48.13 23.8406 48.0677C24.1184 47.9508 24.4139 47.8242 24.6644 47.6976C24.9149 47.571 25.1673 47.4542 25.4198 47.3218C25.6722 47.1893 25.9149 47.0394 26.1575 46.8875L26.9129 46.4045L26.8777 46.4259L26.9305 46.3928L27.3571 46.0987C27.5058 46.0091 27.6487 45.904 27.7935 45.8183C27.9532 45.7216 28.1178 45.6332 28.2866 45.5534C28.342 45.5275 28.3989 45.5048 28.4569 45.4852C28.5093 45.4768 28.561 45.4645 28.6115 45.4482L28.6741 45.4813C28.7817 45.5515 28.8874 45.6255 28.9872 45.7053C29.3394 45.9955 29.6467 46.3363 30.0048 46.6207C30.4052 46.9241 30.8241 47.2024 31.2591 47.4542C31.3726 47.5243 31.4803 47.5866 31.6035 47.6587C31.7268 47.7307 31.8521 47.7931 31.9793 47.8534C32.2395 47.982 32.5018 48.0988 32.762 48.204C33.0427 48.3205 33.3295 48.422 33.6211 48.5078C33.8951 48.5838 34.1729 48.6441 34.4528 48.7025C34.7484 48.7781 35.0493 48.8315 35.353 48.8622C35.5036 48.8739 35.6524 48.8817 35.8011 48.8817C35.9613 48.8831 36.1214 48.8746 36.2805 48.8564C36.4187 48.8445 36.556 48.8237 36.6915 48.7941C36.8382 48.7629 36.983 48.7181 37.1278 48.6733C37.4001 48.5914 37.6673 48.4938 37.9282 48.3812C38.1787 48.2721 38.4272 48.1572 38.666 48.0268C38.9389 47.8779 39.2006 47.7093 39.4487 47.5224C39.905 47.1676 40.3094 46.7514 40.6502 46.2857C40.7123 46.3163 40.7781 46.3385 40.8459 46.3519L41.1238 46.4356C41.3763 46.5019 41.6326 46.5622 41.887 46.6304C42.1703 46.7095 42.4586 46.7693 42.75 46.8096C43.048 46.8452 43.3481 46.8615 43.6482 46.8582L43.977 46.8875C44.1554 46.8897 44.3338 46.8813 44.5112 46.8621C44.8069 46.8355 45.0977 46.77 45.3761 46.6674C45.654 46.5603 45.926 46.4356 46.1922 46.3013C46.4413 46.1793 46.6819 46.0408 46.9123 45.8864C47.6241 45.3849 48.2376 44.7578 48.7224 44.0363C48.8603 43.806 48.9806 43.5658 49.0825 43.3177C49.1969 43.0668 49.288 42.8061 49.3545 42.5387C49.4834 41.9867 49.5782 41.4273 49.6382 40.8638C49.6715 40.5639 49.693 40.2601 49.6989 39.9621C49.7048 39.6641 49.6989 39.3661 49.6872 39.0682C49.6823 38.9916 49.6823 38.9149 49.6872 38.8384V38.8247C49.6735 38.3242 49.6735 37.851 49.6735 37.3505C49.6735 37.1109 49.6735 36.8538 49.6735 36.6299C49.6735 36.4059 49.7028 36.1839 49.7243 35.9619C49.7427 35.7375 49.7747 35.5144 49.8202 35.2939C49.8398 35.2179 49.8633 35.14 49.8907 35.0641C49.9181 34.9881 49.9416 34.9414 49.969 34.883C49.9984 34.8314 50.0304 34.7813 50.0648 34.733C50.113 34.6655 50.1646 34.6005 50.2194 34.5382C50.2821 34.4701 50.3466 34.4058 50.4151 34.3435C50.4773 34.2903 50.5427 34.2409 50.6108 34.1955C50.6863 34.1466 50.7647 34.1024 50.8456 34.063C50.92 34.0299 50.9944 34.0007 51.0707 33.9735C51.4992 33.8371 51.9376 33.7476 52.374 33.6424L53.1078 33.4593C53.2859 33.4145 53.464 33.3697 53.6381 33.3152C53.8258 33.2536 54.0078 33.1761 54.1821 33.0834C54.3735 32.9964 54.5536 32.8866 54.7183 32.7563C54.9109 32.5986 55.0744 32.4088 55.2017 32.1954C55.2712 32.0778 55.3307 31.9547 55.3798 31.8273C55.4192 31.7164 55.4519 31.6032 55.4776 31.4884C55.5227 31.306 55.5483 31.1193 55.5539 30.9314C55.5588 30.726 55.551 30.5205 55.5304 30.316ZM30.5038 46.2117L30.4431 46.1688L30.5038 46.2117ZM43.4701 46.2234L43.4897 46.2448L43.202 46.235C43.294 46.2311 43.384 46.2292 43.4721 46.2234H43.4701ZM44.1883 25.9263C44.2294 25.6322 44.2685 25.3421 44.3057 25.0558C44.3347 25.0202 44.3608 24.9824 44.384 24.9428C44.3194 25.2719 44.2548 25.5972 44.1903 25.9263H44.1883Z" fill="#110802" fill-opacity="0.25"/>
</svg>
