<?xml version="1.0" encoding="UTF-8"?>
<svg xmlns="http://www.w3.org/2000/svg" width="350" height="350" viewBox="0 0 350 350">
  <g id="Layer_1" data-name="Layer 1"/>
  <g id="Layer_2" data-name="Layer 2">
    <g id="Layer_1-2" data-name="Layer 1">
      <g>
        <path d="M283.12,170.45c-1.01-7.72-5.98-14.04-10.48-20.1-5.37-6.66-11.68-12.71-19.09-17.07-6.37-3.45-13.03-6.46-19.95-8.59-8.53-2.57-17.37-3.89-26.25-4.45-2.59-.11-5.31-.45-7.92-.25-.04-.17-.1-.34-.19-.5-1.4-2.34-3-4.57-4.82-6.6-4.63-5.11-10.25-9.21-15.65-13.46-5.58-3.88-11.61-7.22-17.94-9.71-5.34-2.27-11.16-2.58-10.9,4.89,.31,4.09,2.11,7.85,3.11,11.79,.79,3.08,1.54,6.17,2.23,9.28,.63,3.26,1.33,6.85,.31,10.13-2.01,.79-3.99,1.63-5.94,2.58-8.02,3.22-15.88,6.77-23.11,11.56-4.71,2.82-9.17,6.03-13.2,9.77-1.39,1.31-2.86,2.66-4.02,4.21-.04-.03-.08-.07-.12-.1-1.02-1.21-2.04-2.42-3.12-3.58-5.77-6.4-13.72-10.47-22.14-12.07-2.16-.47-6.07-.64-6.14,2.4,.3,3.77,1.5,7.43,2.65,11.02,2.72,7.74,7.15,15.32,13.85,20.22-.23,.24-.44,.49-.64,.7-4.81,4.59-8.07,10.41-10.16,16.68-1.06,4.05-4.15,11.4-1.08,14.93,1.34,1.05,3.12,.15,4.58-.17,3.77-.96,7.46-2.35,10.77-4.42,5-3.21,8.81-7.75,12.56-12.29,1.35-1.77,2.94-3.56,4.05-5.55,2.04,1.2,4.02,2.5,6.17,3.51,13.2,6.03,26.92,11.75,41.39,13.69,.2,.02,.38,0,.55-.03,.95,3.16,2.18,6.23,3.71,9.17,2.67,4.45,5.21,10.01,10.33,11.99,4.68,.91,6.63-3.78,7.78-7.95,.1,.05,.21,.09,.32,.12,1.4,.32,2.74,.91,4.15,1.15,3.35,.3,4.3-4.76,5.7-7.06,.8-2.14,2.32-4.12,2.83-6.35,7.08-.08,14.15-.69,21.19-1.33,7.17-.73,14.41-1.43,21.34-3.48,6.57-2,12.61-5.48,18.2-9.44,.93-.63,1.93-1.3,2.9-2.04,.23-.17,.47-.36,.71-.56,1.25-.16,2.49-.34,3.74-.52,6.41-1.15,19.38-3.19,17.73-12.14Zm-109.37-70.12c-.14-.11-.29-.21-.43-.31,.2,.12,.39,.25,.59,.37-.05-.02-.1-.04-.15-.06Z" fill="rgba(21, 15, 12, .25)"/>
        <rect width="350" height="350" fill="none"/>
      </g>
    </g>
  </g>
</svg>