<?xml version="1.0" encoding="utf-8"?>
<!-- Generator: Adobe Illustrator 26.1.0, SVG Export Plug-In . SVG Version: 6.00 Build 0)  -->
<svg version="1.1" id="Layer_1" xmlns="http://www.w3.org/2000/svg" xmlns:xlink="http://www.w3.org/1999/xlink" x="0px" y="0px"
	 viewBox="0 0 320 320" style="enable-background:new 0 0 320 320;" xml:space="preserve">
<style type="text/css">
	.st0{fill:none;}
	.st1{fill:#150F0C;fill-opacity:0.25;}
</style>
<g>
	<g>
		<rect class="st0" width="320" height="320"/>
	</g>
	<path class="st1" d="M275.8,209.1c-4.3-6.2-13.2-8.4-20.1-5.4c-13.2,5.7-19.9,19.5-23.1,32.8c-0.3,0.9-0.7,1.8-1.4,2.5
		c-0.2,0.1-0.5,0.3-0.6,0.5c-3.7-0.2-7.5,0.3-10.6,1.3c-0.6,0.2-1.1,0.5-1.7,0.7c-0.1-0.4-0.1-0.8,0-1.2c0.7-6.7,2.3-13.3,3.8-19.9
		c2.2-9.8,4.3-19.7,6.6-29.5c4-17.5,9-35.3,6.7-53.4c-0.5-6.8-1.9-13.5-3.8-20.1c-3.6-14-10-27.9-21.4-37.1
		c-10.4-9.3-24.6-12.4-38.2-13.7c-16.5-1.8-33.2,0.3-49.1,5.5c-17.8,4.8-33.7,15.8-43.8,31.4c-12.2,18.2-12.9,41-11.2,62.2
		c0.8,11.9,2.8,23.7,6.5,35.2c2.9,10.5,7.6,20.4,11.7,30.4c-2.7,1.3-5,3.2-6.8,5.7c-1.2-0.9-2.2-2.2-3.1-3.4
		c-4.2-6.5-4.2-14.9-8.6-21.3c-5.7-8.9-17.6-14.1-27.8-10.6c-6,2.6-10.2,9.6-5.7,15.4c6.3,6.8,13.2,3.8,15.5,15.9
		c1.7,8.2,1.4,16.9,5.3,24.5c5.4,11.8,17.8,19.3,30.5,20.1c1.9,0.2,11.4,0,15.3-1.9c2.1,8.3,9.4,14.8,18.1,15.2
		c6,0.7,12.1-0.1,17.8-1.9c6.3-2.2,11.9-5.8,18.4-7.5c0.1,0,0.2,0,0.3,0c4-0.9,8.1-1,12.1-0.1c7.1,1.5,13.6,5.1,20.9,5.6
		c9.6,0.4,19.8-1.7,27.1-8.2c2.3,0.6,4.7,1.2,7.1,1.3c5.7,0.5,11.7,0.4,17-2c7.3-3.3,13.9-9.2,16.4-17c2.6-7.4,2.4-15.3,2.8-23
		c0.2-7.2,3.5-11.7,10.3-14.2C275.8,221.2,279.5,216.1,275.8,209.1z M51.3,204.1c2.4,0.5,4.7,1.5,6.9,2.9
		C56,205.9,53.6,204.8,51.3,204.1z M254.4,253.8C254.4,253.8,254.5,253.8,254.4,253.8C254.5,253.8,254.4,253.8,254.4,253.8
		C254.4,253.9,254.4,253.9,254.4,253.8z"/>
</g>
</svg>
