<?xml version="1.0" encoding="UTF-8"?>
<svg xmlns="http://www.w3.org/2000/svg" width="350" height="350" xmlns:xlink="http://www.w3.org/1999/xlink" viewBox="0 0 350 350">
  <defs>
    <style>
      .cls-1 {
        fill: none;
      }

      .cls-2 {
        fill: rgba(21, 15, 12, .25);
      }

      .cls-3 {
        fill: rgba(17, 8, 2, .25);
      }

      .cls-4 {
        clip-path: url(#clippath);
      }
    </style>
    <clipPath id="clippath">
      <rect width="350" height="350" fill="none"/>
    </clipPath>
  </defs>
  <g id="Layer_1" data-name="Layer 1"/>
  <g id="Layer_2" data-name="Layer 2">
    <g id="Layer_1-2" data-name="Layer 1">
      <g clip-path="#clippath">
        <g>
          <path d="M284.69,127.5c-6.36-8.95-12.79-18.02-21.29-25.1-.6-.5-1.21-1-1.82-1.49-.53-.68-1.43-1.25-2.02-1.79-2.44-2.22-5.03-4.27-7.72-6.19-4.38-3.21-8.46-6.29-13.38-8.79-6-3.17-11.6-7.16-18.11-9.27-12.91-4.52-26.47-8-40.24-6.48-.26,.03-.49,.11-.68,.22-3.51,.37-6.99,1.03-10.43,1.87h-.02l-.14,.03s-.05,.01-.07,.01c-.02,0-.04,0-.06,0-.07,.01-.14,.02-.21,.04h0s-.1,.02-.15,.02h0l-.52,.08s.02,0,.04,0l-.95,.15s.02,0,.04,0l-.1,.02h-.02s-.02,0-.03,0c0,0,.02,0,.03,0-.51,.09-1.02,.18-1.54,.27,0,0-.02,0-.03,0-.11,.03-.22,.06-.34,.09-.37,.2-.74,.41-1.11,.61-20.32,5.05-35.81,16.02-48.03,33.19-7.19,10.05-11.79,21.61-16.27,33.04-4.29,10.43-8.04,21.09-10.8,32.04-.09,.2-.16,.41-.22,.63-.24,1.21-.65,2.34-1.05,3.49-.65,1.62-1.56,2.97-2.62,4.4-.44,.37-.98,.65-1.33,1.22-4.31,3.5-8.97,6.56-13.11,10.28-4.26,3.54-7.88,7.71-11.58,11.8-3.97,3.91-7.76,7.98-11.22,12.36-7.18,8.68-12.45,18.72-17.62,28.68-3.04,7.05-22.62,43.07-12.84,46.77,.66,.18,1.31,.25,1.96,.25,3.54,0,6.88-2.34,10.04-3.78,5.26-2.67,11.13-4.72,16.93-6,6.73-1.24,14.1-1.13,20.49,1.76-.06,1.02,.01,2.1-.17,2.88-.66,10.19-1.11,20.4-1.36,30.62-.09,7.41-.43,14.84,.02,22.25,.54,6.19,.9,12.14,1.54,18.48,.06,.58,.44,1.05,.94,1.3,0,.06,0,.12,.01,.19,.02,4.46,2.93,3.76,6.25,4.27,1.75,.2,3.52,.28,5.28,.28,2.19,0,4.37-.12,6.54-.24,.93-.13,1.86-.42,2.35-1.29,.19-.34,.28-.69,.32-1.04,2.29-.1,4.56-.2,6.81-.17,11.3-.32,22.61,.18,33.91,.34,18.75,.54,37.5,.86,56.27,.83,13.43,.76,27.04-.01,40.16,3.64,1.49,.21,4.81,.93,6-.34,1.05,.46,2.57-.17,2.54-1.57-.5-12.34,.55-24.69,.22-37.04-.37-10.4-.54-20.72-1-31.06,5.44,.21,20.62-7.8,23.08-8.95,5.52-2.6,10.56-6.03,15.49-9.6,5.47-4.57,11.14-9.19,14.95-15.3,5.17-7.73,6.62-16.75-5.87-14.63-5.36,.75-10.65,1.66-16.12,1.35-7.12-.33-14.23-.58-21.19-2.64-5.71-1.63-11.58-3.57-16.45-7.05-.39-.35-.7-.82-1.09-1.17-1.97-9.36-4.27-18.65-6.81-27.86-1.09-3.21-2.37-6.36-3.5-9.56-.26-.62-.52-1.38-.94-1.95,12.08-.83,24.13-2.11,36.07-4.19,7.77-1.15,15.25-3.16,22.66-5.85,4.53-1.72,9.56-2.41,13.55-5.28,.02,0,.04-.02,.05-.02,3.12-1.8,5.94-4.3,7.79-7.43,9.36-14.51-1.97-34-10.17-46.62Zm-5.59,136.88c.89-1.03,1.77-2.07,2.65-3.1-.84,1.07-1.72,2.1-2.65,3.1Z" fill="rgba(21, 15, 12, .25)"/>
          <path d="M168.09,69.97c.16-.03,.31-.06,.46-.08h-.02c-.44,.07-.87,.14-1.31,.22-.18,.03-.36,.06-.55,.1h-.02c-.06,.05-.11,.08-.17,.11,.36-.08,.72-.15,1.07-.23,.18-.04,.35-.08,.53-.11Z" fill="rgba(17, 8, 2, .25)"/>
        </g>
      </g>
    </g>
  </g>
</svg>