<?xml version="1.0" encoding="UTF-8"?>
<svg xmlns="http://www.w3.org/2000/svg" width="350" height="350" viewBox="0 0 350 350">
  <g id="Layer_1" data-name="Layer 1"/>
  <g id="Layer_2" data-name="Layer 2">
    <g id="Layer_1-2" data-name="Layer 1">
      <g>
        <g>
          <path d="M268.97,137.32c.51-1.33,.43-2.33,.07-2.99-.41-7.88-4.93-15.17-9.58-21.33-3.87-5.43-8.62-10.18-13.61-14.58-7.45-7.07-15.88-13.08-24.86-18.05-10.35-6.26-20.75-9.42-32.95-9.11-4.24,.05-8.46,.33-12.65,1.07l.1-.02-.03-.03c-.1,.03-.21,.05-.32,.07-.1,.02-.19,.05-.29,.07-.88,.19-2.08,.21-3.12,.43-.15-.02-.3-.02-.47,0-24.86,7.6-39.59,32.39-47.59,55.68-1.73,4.69-2.88,9.57-4.38,14.34-.5,1.69-.98,3.39-1.47,5.09-1.13,.75-2.22,2.09-3.05,2.72-2.14,2.12-4.42,4.02-6.67,6.05-8.27,7.41-15.32,16.04-21.02,25.56-3.69,6.03-7.41,12.14-9.3,19.02-.96,4.9-5.1,13.23-.86,17.24,2.9,2.13,6.65,.19,9.61-.87,3.2-1.17,6.37-2.41,9.56-3.58,5.41-1.69,10.8-3.64,16.5-4,.18,0,.36,0,.55,0,0,10.88,.72,21.93,3.08,32.56-.05,.22-.11,.43-.19,.62-1.6,3.73-4.67,6.9-8.24,8.86-1.7,.88-3.32,1.23-5.18,1.9-1.96-2.33-6.61-5.15-8.04-6.2-7.57-3.94-16.37-6.26-24.92-5.72-.25,.02-.47,.12-.66,.24-.64,.12-1.22,.59-1.36,1.5-1,4.83,.94,9.42,3.31,13.55,3.17,6.38,9.17,10.39,15.08,14.04-.46,1.3-.58,2.93-.87,3.95-1.64,8.29-.04,17.36,4.56,24.47,.25,.31,.54,.49,.83,.59,2.33,2.05,7.78-4.01,9.38-5.56,2.45-2.87,4.25-6.32,5.79-9.8,1.52-3.21,2.13-7.5,4.07-10.34,4.81-3.56,11.62-5.48,17.6-4.15,.46,.16,.9,.34,1.35,.53,.16,.15,.35,.27,.59,.35,4.07,2.7,6.66,7.3,7.86,11.97,1.24,6.69-.61,13.68-.3,20.47,0,.11,0,.22,.01,.33,0,.03,0,.06,0,.09,.07,.56,.35,.96,.73,1.19,.21,.42,.56,.7,.97,.82,5.78,5.06,16.87,8.17,23.93,8.82,3.81,.05,11.85,1.6,13.26-3.11,.45-2.05-.38-4.09-1.07-5.98-2.14-5.5-6.13-10.11-10.32-14.13h0s-.03-.02-.05-.04c.15-2.25,.17-4.51,.33-6.76,.93-.21,1.9-.58,2.67-.67,1.43-.36,2.87-.74,4.31-1.14,.18,3.72,.19,7.45,.17,11.18,0,.45,.19,.85,.47,1.17,.78,1.86,2.8,3.05,4.79,3.32,7.89,1.7,16.1,2.52,24.2,2.7,3.16-.09,8.01,.68,7.76-3.92-.43-5.29-6.53-9.97-10.5-12.98-.92-.5-2.12-1.63-3.26-2.01,.02-.22,.03-.44,.04-.66,.21-3.46,.05-6.94,.52-10.38-.02,.11-.04,.21-.08,.31,.04-.11,.05-.22,.07-.33,2.34-2.17,4.44-4.61,6.44-7.14,3.13-3.53,5.67-7.53,7.71-11.78,4.5-9.58,8.09-19.68,9.38-30.23,.16-1.29,.28-2.57,.37-3.86,8.61,.12,16.85-3.19,24.27-7.44,4.38-2.8,8.91-5.51,12.42-9.41,2.59-2.97,6.93-7.2,4.61-11.41-1.21-1.97-3.46-2.7-5.67-2.64-2.91-.22-5.86-.59-8.77-.97-6.16-.92-12.36-2.15-18.39-3.96-3.26-.92-6.67-1.94-9.44-4.07-.25-.27-.54-.51-.86-.66-.7-6.15-1.57-12.32-3.04-18.24,6.54-.97,13.01-2.32,19.37-4.17,6.43-1.87,13.12-3.01,19.2-5.91,5.33-2.44,11.3-4.91,14.31-10.24,.69-.39,1.06-1.32,1.22-2.26Z" fill="rgba(21, 15, 12, .25)"/>
          <path d="M173.85,71.94c-.08,.02-.16,.04-.24,.06,.2-.07,.4-.12,.59-.14-.12,.03-.23,.06-.35,.08Z" fill="rgba(17, 8, 2, .25)"/>
        </g>
        <rect width="350" height="350" fill="none"/>
      </g>
    </g>
  </g>
</svg>