<svg width="64" height="67" viewBox="0 0 64 67" fill="none" xmlns="http://www.w3.org/2000/svg">
<path d="M1.68572 66.9895H55.5004C55.5194 66.9244 55.5405 66.8615 55.5574 66.7943C55.6459 66.4963 55.7008 66.2004 55.7682 65.8877C55.802 65.7345 55.8294 65.5813 55.8589 65.426C55.9116 65.426 55.9622 65.4365 56.015 65.4386C56.2165 65.4393 56.4175 65.4168 56.6138 65.3714C56.9417 65.298 57.2632 65.1991 57.5754 65.0755L57.5354 65.0923L57.6028 65.065L57.7273 65.0294C57.8011 64.9979 57.8749 64.9622 57.9487 64.9265C58.2247 64.7863 58.4772 64.6043 58.6973 64.3872C59.1867 63.9245 59.544 63.3408 59.7327 62.6957C59.8176 62.3792 59.8292 62.0477 59.7664 61.7261C59.6949 61.4198 59.5638 61.1303 59.3805 60.8741C59.2115 60.6064 58.9872 60.3774 58.7226 60.2025C58.4826 60.0364 58.2198 59.9057 57.9423 59.8143L57.9255 59.8038C57.9131 59.8009 57.9011 59.7966 57.8896 59.7912C57.8628 59.7273 57.8153 59.6741 57.7547 59.6401C57.7125 59.6149 57.6682 59.5918 57.626 59.5645L57.6598 59.5855C57.6362 59.5715 57.6115 59.5596 57.586 59.5499C57.586 59.3589 57.5986 59.1679 57.6092 58.9769C57.6281 58.616 57.6387 58.2571 57.6492 57.8961C57.6598 57.5352 57.6766 57.1511 57.6935 56.7776C57.858 56.7629 58.0204 56.744 58.1827 56.7167C58.4922 56.679 58.7987 56.6201 59.1 56.5404C59.3975 56.4543 59.6892 56.3492 59.973 56.2256L60.0637 56.1522C60.5688 55.9687 61.0414 55.7066 61.4639 55.3757C61.7168 55.1657 61.9485 54.9317 62.1556 54.6768C62.3727 54.4064 62.5568 54.1112 62.7038 53.7975C62.8472 53.5056 62.9677 53.2032 63.0644 52.893C63.1466 52.5985 63.2017 52.2971 63.2289 51.9927C63.2654 51.7095 63.2767 51.4237 63.2627 51.1385C63.2412 50.7954 63.1825 50.4555 63.0876 50.1249C63.0053 49.8109 62.8886 49.5069 62.7397 49.2183C62.586 48.9305 62.3953 48.6638 62.1724 48.425C61.9406 48.1835 61.6792 47.972 61.3943 47.7954C61.1113 47.6339 60.8191 47.4889 60.5192 47.361C60.2234 47.2289 59.9207 47.1126 59.6125 47.0126C59.3074 46.9062 58.9953 46.8214 58.6783 46.7587C58.5117 46.7251 58.343 46.6957 58.1743 46.6727C58.1743 46.2844 58.1848 45.8962 58.1954 45.5079V45.5478C58.1954 45.3631 58.2101 45.1784 58.2207 44.9937C58.5677 45.2627 58.9501 45.483 59.3573 45.6485C59.6399 45.7576 59.9245 45.871 60.2155 45.9675C60.4415 46.0331 60.6639 46.1101 60.8819 46.1984C60.9827 46.2552 61.0915 46.2969 61.2045 46.3222L61.2657 46.3348C61.5356 46.3348 61.6874 46.0305 61.7465 45.7933C61.848 45.342 61.8537 44.8745 61.7634 44.4208C61.6989 44.1087 61.6057 43.8031 61.485 43.5079C61.3703 43.1829 61.2052 42.8777 60.9958 42.6034C60.9025 42.4826 60.7965 42.3722 60.6795 42.2739C60.5547 42.1684 60.4237 42.0703 60.2872 41.9801C60.1523 41.8897 60.0114 41.8084 59.8655 41.7367L59.4438 41.5499L59.4838 41.5667C59.1759 41.4282 58.8639 41.2876 58.5433 41.1679C58.3894 41.1112 58.2324 41.0628 58.0731 41.0231C58.208 40.893 58.3388 40.7587 58.4611 40.616C58.8964 40.1222 59.2853 39.5897 59.623 39.0252C59.7938 38.7419 59.9435 38.4586 60.0954 38.1564C60.2472 37.8542 60.399 37.5394 60.5319 37.2456C60.6415 37.0064 60.7427 36.7482 60.8355 36.5069C60.8503 36.53 60.8608 36.5531 60.8756 36.5761C60.9467 36.686 61.0375 36.7821 61.1434 36.8595C61.2474 36.9332 61.372 36.9728 61.4998 36.9728C61.5771 36.9731 61.6536 36.9559 61.7233 36.9224C61.8276 36.868 61.9223 36.7971 62.0037 36.7126C62.0796 36.6363 62.15 36.555 62.2146 36.4691C62.2919 36.3801 62.3624 36.2853 62.4255 36.1858C62.5573 35.9506 62.6579 35.6995 62.7249 35.4387C62.8121 35.1427 62.8825 34.8422 62.9358 34.5384C62.997 34.2299 63.0497 33.9088 63.0897 33.6003C63.1298 33.2918 63.1699 32.9707 63.191 32.658C63.2015 32.5027 63.2015 32.3453 63.2015 32.1879V31.7157C63.1889 31.3841 63.1509 31.0735 63.1108 30.7545C63.0744 30.4332 63.0038 30.1166 62.9 29.8102C62.8004 29.54 62.6806 29.2776 62.5415 29.0253C62.4677 28.8931 62.3939 28.7587 62.3116 28.6307C62.2568 28.5489 62.1978 28.467 62.1429 28.3831C62.1377 28.3663 62.1306 28.3501 62.1218 28.3348C62.1029 28.125 62.0818 27.9256 62.0501 27.722C61.9552 27.0948 61.8035 26.4774 61.5968 25.8773C61.4871 25.573 61.3543 25.2226 61.2341 24.9434C61.1139 24.6643 60.9726 24.3873 60.8355 24.1208C60.6984 23.8543 60.5551 23.5898 60.4138 23.3254C60.2802 23.0707 60.1316 22.824 59.9688 22.5867C59.7875 22.3327 59.5703 22.0914 59.3805 21.8627C59.1907 21.6339 59.0051 21.3968 58.8259 21.1575C58.6467 20.9183 58.5265 20.7378 58.3788 20.5279C58.2861 20.3957 58.1933 20.2614 58.0942 20.1355C58.0235 20.0385 57.9445 19.948 57.858 19.8648C57.8403 19.8509 57.8212 19.839 57.8011 19.8291C57.8011 19.7934 57.8011 19.7598 57.8011 19.7241V19.6234C57.8223 19.5537 57.8155 19.4784 57.7821 19.4136C57.761 19.3723 57.7307 19.3364 57.6935 19.3086C57.7042 19.2472 57.6953 19.1841 57.6681 19.128C57.6409 19.0719 57.5967 19.0257 57.5417 18.9959C57.2612 18.849 57.0082 19.1386 56.8268 19.3107C56.6455 19.4828 56.4051 19.7304 56.1942 19.9403C55.9707 20.1879 55.7598 20.4454 55.5616 20.7126C55.1847 21.2147 54.8362 21.7374 54.5178 22.2782C54.1994 22.8175 53.9147 23.3758 53.6173 23.9235C53.32 24.4712 53.0332 25.0316 52.7739 25.6024C52.6895 25.7871 52.6136 25.976 52.5398 26.1669C52.4027 25.7472 52.2572 25.3464 52.0864 24.9371C51.8502 24.3747 51.5972 23.7892 51.3294 23.2582C51.0616 22.7273 50.7959 22.2278 50.4859 21.6969C50.1759 21.1659 49.8427 20.6056 49.5032 20.1187C49.1637 19.6318 48.8474 19.1995 48.4489 18.7063C48.3181 18.5447 48.1853 18.3915 48.0524 18.2341C48.0729 18.1882 48.0858 18.1393 48.0904 18.0893C48.1098 17.9295 48.0961 17.7673 48.0503 17.6129C48.0057 17.4368 47.9346 17.2684 47.8394 17.1135C47.672 16.8592 47.4572 16.6391 47.2068 16.465C46.9763 16.3096 46.7189 16.1979 46.4477 16.1355C46.2251 16.0834 45.9988 16.049 45.7708 16.0327C45.6696 15.9592 45.5599 15.8921 45.4608 15.8228C45.4742 15.6289 45.4238 15.4359 45.3174 15.273C45.1967 15.0858 45.0277 14.9343 44.8282 14.8343C44.6334 14.7352 44.4253 14.6645 44.2103 14.6245C44.1649 14.5742 44.1077 14.536 44.0437 14.5133C43.8657 14.4755 43.68 14.5008 43.5186 14.5846C43.4912 14.5972 43.4659 14.6119 43.4406 14.6266C41.5428 13.6759 39.4804 13.1219 37.4392 12.6895C36.9879 12.6014 36.5409 12.5342 36.0854 12.4797C36.103 12.4227 36.1164 12.3644 36.1255 12.3055C36.1413 12.1872 36.1497 12.0681 36.1508 11.9487C36.1634 11.6108 36.1676 11.2751 36.1508 10.9372C36.1549 10.8792 36.1549 10.821 36.1508 10.763C36.3827 10.7042 36.6147 10.6413 36.8424 10.5678C37.1608 10.4671 37.475 10.358 37.7808 10.2278C38.0921 10.1136 38.3969 9.98261 38.6939 9.83541C38.9954 9.68221 39.2928 9.51851 39.5817 9.34433C39.8745 9.17324 40.1562 8.98399 40.4251 8.7777C40.6872 8.57808 40.932 8.35695 41.1569 8.11663C41.3931 7.8564 41.6187 7.58358 41.8296 7.30446C42.2679 6.77093 42.5839 6.14851 42.7553 5.48075C42.8266 5.15778 42.8528 4.82659 42.8333 4.49649C42.8059 4.15457 42.7299 3.81825 42.6077 3.49754C42.3415 2.86431 41.9168 2.30945 41.3741 1.8858C41.1187 1.6673 40.8442 1.47204 40.5538 1.30238C40.2557 1.13424 39.9447 0.989686 39.6238 0.870059C38.9944 0.650629 38.3495 0.478066 37.6943 0.353796C37.3548 0.282443 37.0153 0.211089 36.6716 0.169117C36.318 0.129676 35.9625 0.110058 35.6067 0.110355C34.9257 0.109852 34.2458 0.165304 33.5739 0.276147C33.2681 0.326514 32.9813 0.381078 32.6524 0.431445C32.3234 0.481812 32.0092 0.538475 31.6908 0.614026C31.0413 0.769325 30.3792 0.928821 29.7571 1.13658C29.135 1.34435 28.5319 1.59409 27.9309 1.84802C27.6273 1.97604 27.3236 2.11035 27.0284 2.24256C26.7332 2.37478 26.4359 2.50489 26.147 2.6518C25.5304 2.95173 24.9293 3.28233 24.3461 3.64235C23.7894 3.99702 23.2327 4.35588 22.6591 4.69166C22.4293 4.82807 22.191 4.96239 21.9632 5.0925C21.9447 5.07997 21.9249 5.06942 21.9042 5.06102C21.842 5.04408 21.7785 5.03215 21.7144 5.02535C21.4065 4.97288 21.1071 4.92041 20.7887 4.87844C20.4703 4.83647 20.1561 4.81758 19.8376 4.7882C19.5222 4.75938 19.2053 4.74957 18.8887 4.75882C18.5619 4.75882 18.2561 4.7861 17.9103 4.82598C17.5644 4.86585 17.2144 4.91622 16.8791 4.96868C16.5438 5.02115 16.2106 5.08201 15.8817 5.16176C15.22 5.32265 14.5686 5.52308 13.9311 5.76196C13.6232 5.88159 13.3217 6.018 13.0286 6.167C12.7355 6.316 12.3959 6.48389 12.0965 6.64968C11.9194 6.74622 11.7422 6.84696 11.5693 6.94979C11.5463 6.9598 11.525 6.97325 11.5061 6.98966L11.2003 7.17434C10.9135 7.35482 10.633 7.56469 10.3568 7.77455C9.8062 8.16808 9.32699 8.65209 8.93975 9.20582C8.74211 9.50909 8.56934 9.82771 8.42311 10.1586C8.35908 10.3113 8.30622 10.4684 8.26495 10.6287C8.22601 10.7926 8.20271 10.9599 8.19536 11.1282C8.17388 11.4583 8.18093 11.7897 8.21645 12.1187C8.23696 12.4522 8.32217 12.7786 8.46739 13.0799C8.81779 13.6842 9.33925 14.1725 9.9667 14.4839C10.2498 14.6366 10.5471 14.7618 10.8545 14.8574C11.1742 14.954 11.5038 15.0146 11.8371 15.0379C12.0288 15.0516 12.2212 15.0516 12.4128 15.0379H12.8114C12.9758 15.0379 13.1403 15.0253 13.3027 15.0127L13.3364 15.0904C13.4124 15.2834 13.4693 15.4744 13.5326 15.6843C13.6127 15.9466 13.7055 16.2068 13.8025 16.4629C13.8973 16.7327 14.0195 16.9922 14.1673 17.2373C14.0745 17.2918 13.9796 17.3443 13.8889 17.401C13.6169 17.571 13.347 17.743 13.0897 17.9298C13.0138 17.9823 12.9421 18.0389 12.8683 18.0935C12.5028 18.3426 12.1513 18.6091 11.8139 18.8931C11.3922 19.2646 10.9704 19.6192 10.5487 20.0515C10.127 20.4839 9.71575 20.9351 9.31721 21.3947C9.10633 21.636 8.8807 21.9067 8.69935 22.1271C8.518 22.3474 8.33876 22.5783 8.17638 22.8154C7.84644 23.3061 7.54306 23.814 7.26752 24.3369C6.99979 24.8413 6.76455 25.3621 6.56321 25.8962C6.47675 26.1355 6.39241 26.3747 6.31016 26.616C6.23998 26.5979 6.16569 26.6038 6.09929 26.6328L6.00861 26.6853C5.82966 26.8129 5.68485 26.9823 5.58687 27.1785C5.45487 27.458 5.37759 27.76 5.35913 28.0683C5.3447 28.3586 5.34822 28.6494 5.36967 28.9392C5.39076 29.2016 5.39076 29.4639 5.39076 29.7262V29.8018C5.39076 29.8165 5.39076 29.8018 5.39076 29.8416C5.39076 29.8815 5.36967 29.9004 5.35702 29.9277C5.26845 30.1124 5.16512 30.2907 5.07234 30.4733C4.94639 30.7158 4.83445 30.9653 4.73705 31.2204C4.54783 31.7779 4.42469 32.3554 4.37013 32.9413C4.33228 33.2553 4.31748 33.5717 4.32585 33.8878C4.33132 34.0559 4.34822 34.2235 4.37646 34.3894C4.3989 34.5509 4.44213 34.7089 4.50509 34.8595C4.54469 34.9651 4.6143 35.0569 4.70542 35.1239C4.74027 35.1479 4.7787 35.1663 4.81929 35.1785C4.79188 35.5982 4.77079 36.0053 4.77079 36.4166C4.77079 37.084 4.78555 37.7493 4.82351 38.4145C4.7982 38.4838 4.77711 38.551 4.75603 38.6244C4.71717 38.7076 4.69704 38.7982 4.69704 38.8899C4.69704 38.9816 4.71717 39.0722 4.75603 39.1554C4.78293 39.1941 4.81825 39.2264 4.85936 39.2498C4.85936 39.4282 4.87834 39.6087 4.89099 39.7891C4.92051 40.2089 4.9669 40.6118 5.01751 41.021C5.04071 41.3023 5.06179 41.5793 5.07866 41.85C5.11451 42.4376 5.1356 43.0252 5.14825 43.6129C5.17145 44.7713 5.18199 45.9318 5.14825 47.0903C5.12295 47.7996 5.07445 48.5027 5.00697 49.2078C4.95003 49.7912 4.89521 50.3683 4.83406 50.9539C4.7729 51.5394 4.72018 52.1165 4.66324 52.7104C4.60631 53.3043 4.53883 53.8982 4.45237 54.4879C4.37224 55.0357 4.28157 55.5813 4.19089 56.127V56.1123C4.14239 56.4103 4.08545 56.7083 4.03274 57.0042C3.88723 57.3043 3.73962 57.6212 3.61099 57.9171C3.48265 58.2106 3.36934 58.5104 3.27149 58.8153C3.16816 59.1427 3.0817 59.4743 3.01211 59.808C2.94418 60.1399 2.90328 60.4768 2.88981 60.8153C2.88583 61.1076 2.91269 61.3995 2.96994 61.6863C2.89613 61.9129 2.82022 62.1375 2.73376 62.3704C2.60934 62.7041 2.4765 63.0336 2.34575 63.3631C2.08216 64.022 1.83122 64.6852 1.54022 65.3316C1.4158 65.6065 1.2935 65.8625 1.15221 66.1479C1.01093 66.4333 0.865427 66.6873 0.730469 66.9874V67L1.68572 66.9895ZM61.1518 44.7755C61.1659 44.9227 61.1715 45.0705 61.1687 45.2183C61.1687 45.0693 61.1687 44.9245 61.1518 44.7755ZM59.1591 31.4345C59.1739 31.5325 59.2045 31.6275 59.2498 31.7157C59.2043 31.6277 59.1744 31.5326 59.1612 31.4345H59.1591ZM59.4206 32.4293C59.4496 32.4068 59.4824 32.3897 59.5176 32.3789C59.4804 32.3894 59.4454 32.4064 59.4142 32.4293H59.4206ZM59.6314 31.955C59.6029 31.9557 59.5745 31.9522 59.5471 31.9445C59.5096 31.9359 59.4735 31.9225 59.4395 31.9046C59.4721 31.9219 59.5068 31.9346 59.5429 31.9424C59.5696 31.9501 59.5973 31.9543 59.6251 31.955H59.6314ZM59.5344 32.3747L59.5745 32.3642C59.6134 32.3573 59.6533 32.3581 59.6919 32.3666C59.7306 32.3751 59.7671 32.3911 59.7994 32.4138C59.8318 32.4364 59.8593 32.4652 59.8804 32.4985C59.9015 32.5317 59.9158 32.5688 59.9224 32.6076C59.9246 32.6251 59.9246 32.6427 59.9224 32.6601C59.9245 32.642 59.9245 32.6237 59.9224 32.6055C59.9134 32.5544 59.8909 32.5066 59.8571 32.467C59.8177 32.4201 59.765 32.3862 59.7059 32.3697C59.6468 32.3532 59.5841 32.355 59.526 32.3747H59.5344ZM61.1181 35.8584L61.0654 35.8416C61.0928 35.7703 61.1181 35.6968 61.1434 35.6318C61.1202 35.701 61.0949 35.7724 61.0696 35.8416C61.0863 35.8456 61.1025 35.8512 61.1181 35.8584ZM62.3601 34.1019V34.0809C62.3688 34.0618 62.3725 34.0409 62.3707 34.02C62.3686 34.0297 62.3686 34.0397 62.3707 34.0494C62.4614 33.5342 62.5226 33.0143 62.5541 32.4922C62.5664 32.1178 62.5587 31.743 62.5309 31.3694C62.5289 31.3612 62.5289 31.3525 62.5309 31.3443V31.317C62.5021 30.9647 62.4528 30.6143 62.3833 30.2677L62.3201 30.0578C62.3433 30.1334 62.3643 30.2089 62.3854 30.2845C62.4567 30.6308 62.506 30.9813 62.533 31.3338V31.3485C62.5625 31.7276 62.571 32.108 62.5583 32.488V32.5006C62.5269 33.0227 62.4656 33.5426 62.3749 34.0578C62.3728 34.0481 62.3728 34.0381 62.3749 34.0284L62.3622 34.104V34.1166C62.3306 34.3033 62.2926 34.5027 62.2547 34.6706C62.2167 34.8385 62.1809 35.0085 62.1345 35.1764C62.0944 35.3044 62.0544 35.4345 62.0016 35.5583C61.9646 35.6485 61.9201 35.7356 61.8688 35.8185C61.814 35.9004 61.7549 35.978 61.6938 36.0557C61.64 36.1221 61.5823 36.1851 61.5208 36.2446L61.4702 36.2907L61.4407 36.2572C61.3796 36.169 61.329 36.0725 61.2657 35.9843L61.2467 35.9633L61.2615 35.9759C61.3247 36.0641 61.3753 36.1606 61.4365 36.2488L61.466 36.2823L61.5166 36.2383C61.5776 36.1776 61.6353 36.1139 61.6896 36.0473C61.7534 35.9724 61.8119 35.8932 61.8646 35.8101C61.9131 35.7262 61.9574 35.6381 61.9974 35.5499C62.0501 35.424 62.0902 35.296 62.1303 35.168C62.1767 35.0001 62.2062 34.8448 62.2484 34.6622C62.2905 34.4796 62.3285 34.297 62.3665 34.1103L62.3601 34.1019ZM61.7106 33.5499C61.8428 32.9192 61.9393 32.2816 61.9995 31.6402C62.0649 30.9749 62.1303 30.3096 62.1577 29.6402L62.1682 29.6633C62.1408 30.3075 62.0776 30.9539 62.0143 31.5961C61.957 32.2381 61.8634 32.8764 61.7338 33.5079C61.5956 34.1605 61.4217 34.805 61.213 35.4387C61.213 35.4387 61.213 35.4576 61.2024 35.466C61.4058 34.8367 61.5754 34.1971 61.7106 33.5499ZM61.2299 26.9015C61.2762 27.0945 61.3121 27.2855 61.3479 27.4807C61.3079 27.2708 61.2657 27.061 61.2151 26.8511C61.1645 26.6412 61.0928 26.4209 61.0232 26.2089C61.1012 26.444 61.1687 26.6748 61.2299 26.9057V26.9015ZM61.2299 32.6769V32.6622C61.3079 32.1627 61.3522 31.6591 61.3985 31.1554C61.447 30.6202 61.4913 30.0851 61.5124 29.5478V29.5793C61.4913 30.1166 61.447 30.6517 61.3985 31.1869C61.35 31.722 61.3079 32.1963 61.2277 32.6958V32.7105C61.0969 33.4677 60.9223 34.2167 60.7048 34.9539C60.6352 35.1806 60.5551 35.4051 60.4749 35.6255C60.5572 35.3988 60.6373 35.168 60.709 34.935C60.9249 34.1942 61.0981 33.4416 61.2277 32.6811L61.2299 32.6769ZM60.4391 32.5468C60.4942 32.6029 60.5251 32.6782 60.5251 32.7566C60.5251 32.8351 60.4942 32.9104 60.4391 32.9665V32.9833C60.3843 33.0543 60.3197 33.1172 60.2472 33.1701C60.1616 33.231 60.0638 33.2725 59.9604 33.2918C59.9317 33.296 59.9026 33.296 59.8739 33.2918C59.7904 33.2896 59.7086 33.2673 59.6356 33.2267C59.7057 33.2617 59.7829 33.2804 59.8613 33.2813C59.8899 33.2855 59.9191 33.2855 59.9477 33.2813C60.0506 33.2624 60.1479 33.2208 60.2324 33.1596C60.3081 33.1059 60.3756 33.0416 60.4327 32.9686C60.4846 32.9093 60.511 32.8321 60.5063 32.7536C60.5016 32.6751 60.4661 32.6016 60.4074 32.5489C60.3492 32.4982 60.2739 32.4712 60.1966 32.4733C60.2399 32.4685 60.2837 32.4729 60.3252 32.4863C60.3667 32.4997 60.4048 32.5217 60.437 32.551L60.4391 32.5468ZM60.2577 31.4303C60.2944 31.3609 60.3022 31.2799 60.2793 31.2049C60.2564 31.1299 60.2047 31.0668 60.1354 31.0295C60.1702 31.0478 60.201 31.0727 60.226 31.1029C60.2511 31.1331 60.2699 31.1679 60.2815 31.2053C60.2931 31.2427 60.2971 31.282 60.2934 31.321C60.2896 31.36 60.2783 31.3978 60.2598 31.4324C60.1249 31.6591 59.9267 31.9571 59.6399 31.9508H59.6251C59.9224 31.955 60.1207 31.6612 60.2577 31.4303ZM59.7327 30.7168C59.7164 30.6992 59.6979 30.6837 59.6778 30.6706C59.6993 30.6844 59.7191 30.7006 59.7369 30.7189C59.7777 30.7687 59.8014 30.8303 59.8044 30.8945C59.8075 30.9587 59.7897 31.0222 59.7537 31.0756V31.1134V31.0693C59.7878 31.0157 59.804 30.9527 59.7998 30.8893C59.7956 30.8259 59.7714 30.7655 59.7305 30.7168H59.7327ZM58.944 24.4985L58.9651 24.4838C58.9731 24.4788 58.9815 24.4746 58.9904 24.4712L58.9545 24.4943C58.7816 24.6265 58.8554 24.8574 58.9124 25.0085C58.9693 25.1596 59.022 25.3128 59.0747 25.466L59.2139 25.8438C59.2476 25.9424 59.2772 26.0536 59.3172 26.1397C59.3434 26.1918 59.3842 26.2353 59.4348 26.2647C59.4853 26.2942 59.5434 26.3083 59.6019 26.3055C59.6469 26.3057 59.6915 26.2964 59.7327 26.2782C59.8004 26.2458 59.8541 26.1902 59.8839 26.1215C59.9137 26.0529 59.9177 25.9759 59.895 25.9046L59.8634 25.8165C59.8739 25.848 59.8866 25.8794 59.8971 25.9088C59.9192 25.9804 59.9147 26.0574 59.8845 26.1259C59.8543 26.1945 59.8004 26.25 59.7327 26.2824C59.6888 26.3041 59.6403 26.3149 59.5914 26.3138C59.5317 26.3161 59.4726 26.3005 59.4219 26.2691C59.3712 26.2377 59.331 26.1919 59.3067 26.1376C59.2666 26.041 59.2392 25.9403 59.2034 25.8438L59.0663 25.4639C59.0115 25.3107 58.9651 25.1743 58.9039 25.0064C58.8428 24.8385 58.7816 24.6307 58.9419 24.4985H58.944ZM57.3182 64.4481C57.0692 64.5423 56.8151 64.6222 56.5569 64.6873C56.4603 64.7103 56.3624 64.7278 56.2638 64.7398C56.1727 64.7491 56.0812 64.7533 55.9897 64.7523C56.0875 64.7534 56.1854 64.7492 56.2828 64.7398C56.3798 64.7272 56.4789 64.7083 56.5759 64.6873C56.8295 64.6223 57.0793 64.5439 57.3245 64.4522L57.3182 64.4481ZM58.2502 63.3274C58.4483 63.0612 58.5601 62.7413 58.5707 62.4103C58.5624 62.7433 58.4512 63.0657 58.2523 63.3337C58.0586 63.5957 57.8029 63.8062 57.5079 63.9465C57.2194 64.0894 56.9072 64.179 56.5864 64.2109C56.5021 64.2193 56.4177 64.2235 56.3334 64.2235C56.2509 64.2221 56.1686 64.2165 56.0867 64.2067C56.1687 64.2144 56.251 64.2179 56.3334 64.2172C56.4177 64.2172 56.5021 64.213 56.5864 64.2046C56.91 64.1735 57.2251 64.0839 57.5164 63.9402C57.8065 63.7978 58.0576 63.5876 58.2481 63.3274H58.2502ZM57.5923 61.7807C57.6327 61.8226 57.6708 61.8667 57.7062 61.9129C57.7343 61.9517 57.7597 61.9923 57.7821 62.0346C57.8095 62.0871 57.8496 62.1626 57.8601 62.192C57.8743 62.2203 57.8836 62.2509 57.8875 62.2823C57.8959 62.3204 57.9022 62.3589 57.9065 62.3977V62.4502C57.9108 62.4752 57.9108 62.5007 57.9065 62.5257C57.8994 62.5676 57.8896 62.609 57.877 62.6495C57.8622 62.6936 57.8453 62.7398 57.8264 62.7838V62.7587L57.8137 62.7922C57.7884 62.8342 57.7673 62.8762 57.7441 62.9181L57.6703 63.0189C57.6393 63.0577 57.6055 63.0942 57.5691 63.128C57.5332 63.1595 57.4974 63.191 57.4573 63.2204C57.3981 63.2634 57.3361 63.3027 57.2718 63.3379C57.1895 63.3798 57.1052 63.4176 57.0208 63.4512C56.9365 63.4848 56.888 63.4953 56.81 63.5142C56.7039 63.5399 56.5961 63.5575 56.4873 63.5666C56.4171 63.5714 56.3467 63.5714 56.2764 63.5666H56.1942C56.2195 63.3966 56.2469 63.2266 56.2701 63.0546C56.3524 62.425 56.4325 61.7954 56.5189 61.1658H56.5443C56.597 61.1763 56.6476 61.1868 56.6982 61.2015L56.7994 61.2392L56.8542 61.2665C56.8707 61.3039 56.8944 61.3376 56.9241 61.3657C56.9538 61.3938 56.9888 61.4158 57.0272 61.4302L57.0841 61.4512C57.1103 61.4686 57.1397 61.4807 57.1706 61.4869L57.2697 61.5268L57.3646 61.5771L57.4384 61.6275C57.4847 61.6716 57.5375 61.7282 57.5902 61.7807H57.5923ZM57.8179 31.4933C57.8079 31.3731 57.7889 31.2538 57.761 31.1365C57.7273 31.0106 57.6872 30.8847 57.6408 30.7608C57.5822 30.6124 57.5154 30.4674 57.4405 30.3264C57.2675 30.0305 57.0778 29.7409 56.8753 29.4618C56.8366 29.4106 56.795 29.3616 56.7509 29.3149C56.7087 29.2729 56.6645 29.233 56.6202 29.1932L56.5632 29.1533C56.5509 29.1345 56.5368 29.1169 56.5211 29.1008L56.6181 29.1722C56.6642 29.2099 56.7079 29.2506 56.7488 29.2939C56.7931 29.3422 56.8332 29.3904 56.8732 29.4408C57.0841 29.7199 57.2654 30.0095 57.4384 30.3054C57.5132 30.4464 57.5801 30.5914 57.6387 30.7399C57.6851 30.8637 57.7252 30.9898 57.7589 31.1176C57.7842 31.2351 57.8032 31.3548 57.8179 31.4765C57.8284 31.5923 57.8326 31.7086 57.8306 31.8248C57.8239 31.9654 57.8099 32.1055 57.7884 32.2446V32.2593C57.7814 32.2861 57.7765 32.3135 57.7736 32.3411V32.3117V32.2844V32.2698C57.7951 32.1307 57.8092 31.9906 57.8158 31.85C57.8224 31.7312 57.8224 31.6121 57.8158 31.4933H57.8179ZM57.5037 36.6181V36.488C57.5242 36.4363 57.5295 36.3799 57.5191 36.3252C57.5086 36.2706 57.4828 36.2201 57.4447 36.1795C57.3935 36.1239 57.3222 36.0907 57.2465 36.0872C57.2774 36.0877 57.3081 36.0933 57.3371 36.104C57.3741 36.1173 57.408 36.1378 57.437 36.1642C57.4659 36.1907 57.4893 36.2226 57.5058 36.2581C57.5223 36.2937 57.5315 36.3321 57.5329 36.3712C57.5344 36.4103 57.528 36.4493 57.5143 36.4859V36.488C57.5111 36.5299 57.5111 36.572 57.5143 36.6139C57.5244 36.6589 57.5314 36.7044 57.5354 36.7503V36.765V36.7524C57.5204 36.7087 57.5091 36.6637 57.5016 36.6181H57.5037ZM57.2465 33.7598C57.2519 33.7531 57.2568 33.7461 57.2612 33.7388C57.3287 33.6234 57.392 33.5058 57.4489 33.3862C57.392 33.5079 57.3287 33.6234 57.2612 33.7388C57.2573 33.7464 57.2523 33.7535 57.2465 33.7598ZM56.9491 59.5729V59.8311C56.9515 59.8575 56.9572 59.8836 56.966 59.9087C56.9568 59.9648 56.9641 60.0224 56.9869 60.0745C57.0097 60.1266 57.0471 60.171 57.0946 60.2025C57.1548 60.2367 57.2204 60.2601 57.2886 60.2718C57.2073 60.2727 57.1264 60.2585 57.0504 60.2298C57.0066 60.2 56.9721 60.1587 56.9505 60.1106C56.9289 60.0624 56.9211 60.0093 56.928 59.957C56.9134 59.924 56.9062 59.8881 56.907 59.852V59.6044C56.9196 59.2057 56.9428 58.8048 56.9597 58.404C56.9787 58.3054 56.9976 58.2088 57.0166 58.1081C57.0166 58.1459 57.0166 58.1836 57.0166 58.2214C57.0145 58.2082 57.0145 58.1947 57.0166 58.1815C56.9955 58.6474 56.9639 59.1112 56.9491 59.5729ZM57.1895 37.8878C57.207 37.8318 57.2365 37.7802 57.276 37.7367L57.3055 37.7094C57.3321 37.6885 57.3621 37.6722 57.3941 37.6611C57.3641 37.6715 57.3363 37.6872 57.3118 37.7073L57.2844 37.7346C57.2437 37.778 57.2141 37.8306 57.198 37.8878H57.1895ZM56.8648 37.8269L56.831 37.8038H56.8437C56.8526 37.8113 56.8598 37.8206 56.8648 37.8311V37.8269ZM56.791 37.7871C56.7624 37.7774 56.7326 37.7718 56.7024 37.7703C56.7329 37.7722 56.7629 37.7793 56.791 37.7913V37.7871ZM57.6492 44.5027C57.6492 44.6391 57.6197 44.7797 57.6197 44.9224C57.5817 45.4848 57.5691 46.0473 57.5649 46.6013H57.5164C57.5164 46.0473 57.5354 45.4953 57.5691 44.9434C57.5691 44.8049 57.5986 44.6643 57.5986 44.5237V44.4922C57.4414 44.3186 57.3158 44.119 57.2275 43.9025C57.2401 43.8815 57.2486 43.8584 57.2591 43.8374C57.3484 44.0697 57.4808 44.2833 57.6492 44.467V44.5027ZM58.1743 44.0997C58.2861 44.2068 58.4063 44.3096 58.5286 44.4166C58.6844 44.5386 58.8463 44.6528 59.0136 44.7587C59.1423 44.8361 59.2754 44.9061 59.4121 44.9686C59.7745 45.127 60.1447 45.2671 60.5213 45.3883C60.146 45.2645 59.7769 45.1281 59.3889 44.9686C59.2522 44.9061 59.1191 44.8361 58.9904 44.7587L59.0157 44.7734L58.9883 44.7587C58.8173 44.6519 58.6526 44.5356 58.4948 44.4103C58.3734 44.313 58.2579 44.2086 58.149 44.0976C58.092 44.0406 58.0392 43.9795 57.9908 43.9151C57.9508 43.8584 57.8981 43.7744 57.8791 43.7388C57.8601 43.7031 57.8432 43.6653 57.8264 43.6275C57.7862 43.5133 57.7525 43.397 57.7251 43.2792L57.7505 43.2414C57.7505 43.254 57.7505 43.2666 57.7505 43.2771C57.78 43.3946 57.8116 43.51 57.8517 43.6254C57.8653 43.6649 57.883 43.7029 57.9044 43.7388C57.9373 43.7995 57.9746 43.8577 58.0161 43.913C58.0668 43.9759 58.1174 44.0431 58.1743 44.0976V44.0997ZM58.2608 36.7818C58.2096 36.8668 58.1526 36.9482 58.09 37.0252C58.0016 37.1758 57.8769 37.302 57.7273 37.3925C57.6535 37.43 57.5718 37.4494 57.489 37.4492C57.3865 37.4498 57.2867 37.4174 57.2043 37.3568C57.0768 37.254 56.9895 37.1099 56.9576 36.9497V36.9203C56.9864 37.092 57.0762 37.2476 57.2106 37.3589C57.291 37.4145 57.3868 37.4439 57.4847 37.4429C57.5676 37.4431 57.6493 37.4237 57.723 37.3862C57.8761 37.2955 58.0042 37.1686 58.0963 37.0169C58.1525 36.9371 58.2073 36.8553 58.2608 36.7713C58.2841 36.7392 58.3009 36.7028 58.3099 36.6642C58.319 36.6256 58.3202 36.5856 58.3135 36.5465C58.3069 36.5074 58.2924 36.47 58.271 36.4365C58.2497 36.4031 58.2218 36.3742 58.1891 36.3516C58.1571 36.3299 58.1213 36.3143 58.0836 36.3054C58.1252 36.3135 58.1647 36.3299 58.1996 36.3537C58.2323 36.3763 58.2602 36.4052 58.2816 36.4386C58.3029 36.4721 58.3174 36.5095 58.3241 36.5486C58.3307 36.5877 58.3295 36.6277 58.3205 36.6663C58.3114 36.7049 58.2947 36.7413 58.2713 36.7734L58.2608 36.7818ZM58.0499 33.5982C57.9192 33.8905 57.758 34.1683 57.5691 34.4271C57.7555 34.1708 57.9145 33.8958 58.0436 33.6066C58.297 33.0331 58.4401 32.4173 58.4653 31.7913C58.4689 31.4726 58.4256 31.1551 58.3367 30.849C58.2917 30.6941 58.2375 30.542 58.1743 30.3936C58.1121 30.2457 58.0417 30.1014 57.9634 29.9613C57.8137 29.7073 57.6535 29.4597 57.4869 29.2163C57.4 29.0812 57.3012 28.954 57.1916 28.8364C57.0838 28.7276 56.9635 28.6318 56.8332 28.551C56.7736 28.5127 56.7037 28.4936 56.6328 28.4964C56.7073 28.4907 56.7815 28.5099 56.8437 28.551C56.9735 28.6325 57.0938 28.7283 57.2022 28.8364C57.3098 28.9507 57.4078 29.0735 57.4953 29.2037C57.6619 29.4471 57.8221 29.6947 57.9719 29.9487C58.1301 30.2296 58.2561 30.5274 58.3472 30.8364C58.4361 31.1425 58.4795 31.46 58.4758 31.7787C58.448 32.4064 58.3006 33.0231 58.0415 33.5961L58.0499 33.5982ZM58.4168 28.2887C58.1659 28.3327 57.9149 28.3705 57.6619 28.3915C57.4966 28.409 57.3304 28.416 57.1642 28.4125H57.0504C57.089 28.4146 57.1277 28.4146 57.1663 28.4125C57.3329 28.4125 57.4974 28.4125 57.664 28.3915C57.917 28.3684 58.168 28.3306 58.4189 28.2866C58.4766 28.2771 58.5302 28.2508 58.5729 28.211C58.5273 28.2526 58.4698 28.279 58.4084 28.2866L58.4168 28.2887ZM57.5522 27.6738C57.7631 27.6591 57.974 27.6255 58.1848 27.5919C58.2538 27.5747 58.3142 27.5334 58.3552 27.4757C58.3962 27.418 58.4151 27.3475 58.4084 27.2771C58.4104 27.2583 58.4104 27.2393 58.4084 27.2205C58.4084 27.2205 58.4084 27.2205 58.4084 27.2372C58.4185 27.2747 58.4211 27.3138 58.416 27.3523C58.4109 27.3908 58.3982 27.4279 58.3786 27.4615C58.359 27.4951 58.3329 27.5244 58.3018 27.5479C58.2707 27.5714 58.2353 27.5885 58.1975 27.5982C57.9866 27.6318 57.761 27.6654 57.5649 27.6863H57.2929H57.1052C57.1687 27.6867 57.2322 27.6818 57.295 27.6717L57.5522 27.6738ZM57.1916 19.8165C57.0293 19.9676 56.8732 20.125 56.7214 20.2866C56.8838 20.1187 57.0314 19.9676 57.1916 19.8144V19.8165ZM55.6818 27.9025C55.7047 27.8407 55.7478 27.7882 55.8041 27.7535C55.7491 27.7877 55.7074 27.8395 55.686 27.9004C55.6661 27.956 55.6629 28.0162 55.6768 28.0735C55.6906 28.1309 55.7209 28.1831 55.764 28.2236C55.813 28.2696 55.8762 28.2977 55.9433 28.3033L56.1984 28.339C56.4325 28.3726 56.6708 28.4062 56.9091 28.4167C56.6708 28.4167 56.4325 28.3726 56.1984 28.339L55.9433 28.3012C55.8757 28.2968 55.8116 28.2694 55.7619 28.2236C55.7193 28.1827 55.6892 28.1307 55.675 28.0735C55.6609 28.0163 55.6632 27.9563 55.6818 27.9004V27.9025ZM56.4304 28.572L56.3777 28.5615L56.4304 28.572ZM56.1183 37.2477H56.0993C56.0563 37.2383 56.0116 37.2383 55.9686 37.2477C56.0109 37.2383 56.0548 37.2383 56.0972 37.2477H56.1077H56.1183ZM55.5194 34.4167C55.4266 34.276 55.3317 34.1375 55.2326 33.9969C55.336 34.1375 55.4266 34.2739 55.5194 34.4146V34.4167ZM53.1808 42.2152C53.242 41.6485 53.2947 41.0798 53.3453 40.5111C53.3959 39.9423 53.4465 39.361 53.4824 38.7902C53.4824 38.6874 53.4824 38.5803 53.4993 38.4796C53.5182 38.5069 53.5351 38.5363 53.5541 38.5656C53.7227 38.8423 53.9079 39.1086 54.1087 39.3631C54.3081 39.6053 54.5252 39.8326 54.7582 40.0431C54.9838 40.2529 55.2368 40.4628 55.4477 40.6727C55.6586 40.8825 55.8568 41.0756 56.0614 41.2687C55.7321 41.3918 55.4127 41.5399 55.1061 41.7115C54.8273 41.8684 54.5639 42.0511 54.3195 42.2571C54.0781 42.4725 53.8546 42.7069 53.6511 42.9581C53.4516 43.209 53.2698 43.4734 53.107 43.7493C53.0585 43.8332 53.0164 43.9193 52.9742 44.0053C53.0417 43.4135 53.1134 42.8112 53.1808 42.2131V42.2152ZM53.0227 46.0745C53.0016 46.2634 52.9847 46.4544 52.9763 46.6433L53.0501 46.6097L52.9721 46.6454C52.9826 46.4523 52.9995 46.2613 53.0227 46.0724V46.0745ZM52.6853 47.4974V47.3988C52.7666 47.3908 52.8455 47.3665 52.9172 47.3274L53.0712 47.2603H53.0986C53.1705 47.2349 53.2409 47.2055 53.3095 47.1721C53.455 47.1113 53.5899 47.0441 53.7312 46.9791C53.8725 46.914 54.0138 46.8552 54.153 46.7881C54.4286 46.6493 54.693 46.4893 54.9437 46.3096C55.1947 46.1354 55.4309 45.9465 55.667 45.7535C55.9071 45.5694 56.1307 45.3651 56.3355 45.1428C56.4009 45.0672 56.4641 44.9875 56.5295 44.9077C56.5105 45.0357 56.4936 45.1637 56.481 45.3002C56.4367 45.6926 56.3988 46.0871 56.3713 46.4817C56.3713 46.532 56.3713 46.5803 56.3713 46.6286C56.1605 46.6475 55.9496 46.6748 55.7387 46.7146C55.4013 46.7839 55.0871 46.8657 54.7687 46.9644C53.9883 47.218 53.2644 47.6191 52.6368 48.1459C52.6537 47.9276 52.6663 47.7073 52.6853 47.4953V47.4974ZM9.4374 13.2688C9.50699 13.338 9.57869 13.4052 9.64828 13.4786C9.57236 13.4031 9.49012 13.3317 9.4374 13.2688ZM19.3358 6.36427C19.2902 6.37069 19.2456 6.38267 19.2029 6.39995C19.1652 6.41829 19.1318 6.44415 19.1045 6.47592C19.0773 6.50769 19.057 6.54469 19.0448 6.58463C19.0562 6.54297 19.0764 6.50421 19.104 6.47092C19.1316 6.43763 19.1661 6.41058 19.205 6.39155C19.2477 6.37428 19.2923 6.3623 19.3379 6.35588L19.4981 6.3265C19.6013 6.30067 19.7027 6.26843 19.8018 6.22996C20.097 6.11034 20.3838 5.97183 20.6664 5.82702C20.388 5.97393 20.1055 6.11453 19.8229 6.24675C19.7322 6.28033 19.6352 6.31181 19.5382 6.33909C19.4412 6.36637 19.3927 6.35588 19.3294 6.36427H19.3358ZM28.9853 11.913H28.9368C28.8988 11.9148 28.8608 11.9091 28.825 11.8963C28.8538 11.9046 28.8836 11.9088 28.9136 11.9089H28.9621L29.6706 11.7955L28.9853 11.913ZM35.438 10.2635H35.4169C35.0521 10.3468 34.6823 10.4071 34.3098 10.444C33.8459 10.4902 33.3799 10.5322 32.9181 10.5951C32.258 10.6812 31.6065 10.805 30.9527 10.9288C30.2548 11.061 29.561 11.1932 28.8588 11.3065H28.8799C29.5821 11.1911 30.278 11.0589 30.9759 10.9267C31.6296 10.8029 32.2812 10.6812 32.9413 10.593C33.4031 10.5301 33.8691 10.4881 34.333 10.444C34.7019 10.4059 35.068 10.3456 35.4296 10.2635H35.4612L35.5266 10.2488L35.438 10.2635ZM35.206 5.11349C35.2378 5.13649 35.2736 5.15355 35.3115 5.16386H35.3262C35.2806 5.15751 35.2372 5.14022 35.1997 5.11349H35.206ZM35.6426 5.02325C35.6487 5.01412 35.6537 5.00425 35.6573 4.99387C35.6512 5.0043 35.6442 5.01414 35.6362 5.02325H35.6426ZM35.6805 4.90992C35.6815 4.89455 35.6815 4.87912 35.6805 4.86375C35.6796 4.87928 35.6774 4.89471 35.6742 4.90992H35.6805ZM36.2182 6.48809C36.2172 6.49786 36.2172 6.50771 36.2182 6.51747C36.2182 6.51747 36.2182 6.49649 36.2182 6.48809ZM36.5367 5.54161C36.5357 5.54504 36.5357 5.54867 36.5367 5.5521C36.5357 5.54867 36.5357 5.54504 36.5367 5.54161C36.5346 5.52208 36.5346 5.50238 36.5367 5.48285C36.5346 5.50238 36.5346 5.52208 36.5367 5.54161ZM36.2688 5.21842C36.342 5.21606 36.4117 5.18691 36.4646 5.13657C36.5176 5.08623 36.55 5.01823 36.5556 4.9456C36.5556 4.93301 36.5556 4.92251 36.5556 4.90992C36.5577 4.89319 36.5577 4.87628 36.5556 4.85955C36.54 4.79134 36.5008 4.73072 36.445 4.68818C36.3891 4.64565 36.3201 4.62387 36.2499 4.62661C36.1743 4.63034 36.103 4.66258 36.0505 4.71678C35.998 4.77097 35.9683 4.84304 35.9673 4.91832C35.9664 4.92388 35.9664 4.92954 35.9673 4.9351C35.9656 4.85566 35.9954 4.77874 36.0502 4.721C36.1051 4.66326 36.1806 4.62935 36.2604 4.62661C36.3 4.62549 36.3395 4.63215 36.3765 4.64621C36.4135 4.66026 36.4474 4.68144 36.4761 4.70853C36.5049 4.73562 36.5281 4.7681 36.5442 4.80409C36.5604 4.84009 36.5693 4.8789 36.5704 4.91832C36.5704 4.99791 36.5386 5.07424 36.4821 5.13052C36.4255 5.1868 36.3488 5.21842 36.2688 5.21842ZM36.2878 4.39366C36.2077 4.40415 36.1318 4.42304 36.0538 4.43983C35.9314 4.46711 35.8091 4.4881 35.6868 4.50908C35.4001 4.55735 35.1196 4.60772 34.8433 4.67278C34.6936 4.71055 34.546 4.75462 34.4005 4.80709C34.3436 4.83017 34.2888 4.85326 34.236 4.88054L34.2107 4.89733L34.2445 4.87634C34.2972 4.84906 34.352 4.82598 34.4089 4.80289C34.5545 4.75043 34.7021 4.70635 34.8518 4.66858C35.1343 4.60352 35.4148 4.55315 35.6953 4.50489C35.8176 4.4839 35.9399 4.46291 36.0622 4.43563C36.1402 4.41884 36.2161 4.39995 36.2963 4.38946C36.3484 4.39846 36.4019 4.39326 36.4513 4.37442C36.5007 4.35557 36.544 4.32379 36.5767 4.28243C36.5424 4.32372 36.4972 4.35464 36.4461 4.37169C36.3951 4.38875 36.3402 4.39127 36.2878 4.37897V4.39366ZM36.6294 4.18379C36.6473 4.1727 36.663 4.15848 36.6758 4.14182C36.6648 4.15205 36.6528 4.16119 36.64 4.1691L36.6294 4.18379ZM36.8403 5.83961C36.8804 5.83802 36.9198 5.82876 36.9563 5.81233C36.9183 5.82493 36.878 5.82923 36.8382 5.82492L36.8403 5.83961ZM37.2874 6.3181C37.2262 6.38526 37.1672 6.45241 37.1081 6.52796C37.1629 6.45871 37.2178 6.39155 37.2768 6.3181C37.3543 6.23014 37.4633 6.17589 37.5805 6.167C37.4683 6.17394 37.3629 6.22264 37.2853 6.30341L37.2874 6.3181ZM37.4308 2.83018H37.4708C37.4576 2.82309 37.4434 2.81813 37.4286 2.81549L37.4308 2.83018ZM37.5046 5.17435C37.5552 5.17265 37.6045 5.15821 37.648 5.13238C37.6055 5.161 37.5558 5.17702 37.5046 5.17855C37.4349 5.1813 37.3664 5.15974 37.3109 5.11759C37.2555 5.07544 37.2166 5.01535 37.2009 4.9477C37.2201 5.01148 37.2603 5.06701 37.3149 5.10543C37.3696 5.14385 37.4356 5.16294 37.5024 5.15966L37.5046 5.17435ZM37.7492 4.05998V4.03899V4.00961C37.7513 3.99078 37.7513 3.97178 37.7492 3.95295C37.7497 4.02673 37.7229 4.09811 37.6739 4.15347C37.6249 4.20883 37.5571 4.24428 37.4835 4.25305C37.5432 4.24838 37.6001 4.22613 37.6471 4.18913C37.694 4.15212 37.7288 4.10205 37.7471 4.04529L37.7492 4.05998ZM37.7492 3.14707C37.7492 3.14707 37.7492 3.13028 37.7492 3.11979C37.7407 3.11979 37.7386 3.11979 37.7386 3.13238L37.7492 3.14707ZM37.6585 5.13028C37.7001 5.10561 37.7349 5.07098 37.7597 5.02954C37.7802 4.99747 37.7945 4.96189 37.8019 4.92461C37.7913 4.96548 37.7721 5.00364 37.7455 5.03656C37.719 5.06948 37.6857 5.09642 37.648 5.11559L37.6585 5.13028ZM37.8209 5.61506C37.8276 5.68896 37.8614 5.75783 37.9158 5.80853C37.9703 5.85923 38.0415 5.88822 38.1161 5.88998C38.0372 5.89113 37.961 5.86144 37.9038 5.8073C37.8466 5.75315 37.8131 5.67886 37.8103 5.60037L37.8209 5.61506ZM37.8441 4.80709C37.8419 4.74771 37.8581 4.6891 37.8905 4.6392C37.8597 4.68895 37.8443 4.7466 37.8462 4.80499C37.8481 4.85819 37.8649 4.9098 37.8947 4.95399C37.9212 4.99811 37.959 5.03451 38.0041 5.05955C38.0493 5.0846 38.1003 5.09741 38.1519 5.0967C38.111 5.09928 38.0701 5.09349 38.0315 5.07967C37.993 5.06586 37.9577 5.04432 37.9278 5.01639C37.898 4.98845 37.8742 4.95472 37.858 4.91727C37.8418 4.87983 37.8334 4.83947 37.8335 4.79869L37.8441 4.80709ZM38.5273 6.3202C38.5254 6.27968 38.5319 6.23921 38.5465 6.2013C38.561 6.16339 38.5832 6.12886 38.6116 6.09984C38.5585 6.15673 38.5297 6.23203 38.5315 6.30971C38.5303 6.32578 38.5303 6.34191 38.5315 6.35798C38.5459 6.42784 38.5847 6.49033 38.6412 6.53426C38.6044 6.50797 38.5741 6.47373 38.5526 6.43411C38.531 6.39449 38.5188 6.35052 38.5167 6.30551L38.5273 6.3202ZM38.8415 6.60981C38.8816 6.60822 38.9209 6.59895 38.9575 6.58253C38.9167 6.59576 38.8735 6.60005 38.8309 6.59512L38.8415 6.60981ZM38.9195 4.6308C38.9164 4.55406 38.9428 4.47902 38.9933 4.42094C38.9436 4.47933 38.918 4.55434 38.9216 4.6308C38.9234 4.68424 38.9397 4.73621 38.9686 4.78125C38.9975 4.8263 39.0381 4.86277 39.0861 4.88684C39.0337 4.86322 38.9892 4.82519 38.9578 4.77722C38.9264 4.72925 38.9095 4.67335 38.909 4.61611L38.9195 4.6308ZM39.4889 6.80289V6.84906H39.4783V6.73363C39.4615 6.67697 39.4446 6.6203 39.4235 6.56574C39.3396 6.36612 39.2431 6.17197 39.1346 5.98442V5.96763L39.1473 5.99281C39.2506 6.18169 39.3581 6.37476 39.4362 6.57413C39.4551 6.6224 39.4699 6.67277 39.4847 6.72314C39.4847 6.72314 39.4847 6.72314 39.4847 6.73573L39.4889 6.80289ZM39.278 5.06942C39.2427 5.08209 39.2088 5.09826 39.1768 5.11769C39.2095 5.09633 39.245 5.07939 39.2822 5.06732L39.7799 4.84486L39.278 5.06942ZM39.2295 4.92671C39.2905 4.92522 39.3496 4.90466 39.3982 4.86795L39.4193 4.84906L39.4383 4.83227C39.4086 4.85869 39.3739 4.87882 39.3362 4.89145C39.2985 4.90407 39.2586 4.90893 39.219 4.90572L39.2295 4.92671ZM40.1489 4.36428C39.8084 4.26146 39.4619 4.17946 39.1114 4.11874C38.9447 4.10636 38.7807 4.07032 38.6243 4.01171C38.3948 3.8834 38.2046 3.69555 38.0739 3.46816C37.8531 3.09398 37.6531 2.70794 37.475 2.31182C37.4582 2.28454 37.4413 2.25515 37.4223 2.22787C37.4392 2.25306 37.4539 2.27824 37.4687 2.30342C37.6468 2.69955 37.8467 3.08558 38.0676 3.45977C38.1665 3.63131 38.2992 3.78121 38.4577 3.90048C38.5113 3.94072 38.5677 3.97719 38.6264 4.00961C38.7828 4.06822 38.9468 4.10426 39.1135 4.11664C39.4641 4.17736 39.8105 4.25936 40.151 4.36218L40.2796 4.41045L40.1489 4.36428ZM40.4863 4.4818H40.4758H40.4863ZM41.9624 3.7158C42.011 3.8457 42.0525 3.9781 42.0868 4.11244C42.0868 4.12713 42.0868 4.14182 42.0868 4.15651C42.0856 4.14535 42.0856 4.1341 42.0868 4.12294C42.051 3.98652 42.0088 3.85431 41.9624 3.7242C41.9476 3.69062 41.9329 3.65494 41.916 3.61926C41.9245 3.63186 41.9413 3.66333 41.9561 3.69481L41.9624 3.7158ZM41.6798 3.20374C41.7372 3.28324 41.79 3.36591 41.838 3.45137C41.857 3.48705 41.8717 3.52483 41.8886 3.5626C41.8739 3.52732 41.857 3.49298 41.838 3.45977C41.7895 3.37582 41.7347 3.29398 41.6798 3.21213C41.625 3.13028 41.5955 3.1051 41.5533 3.05263C41.5892 3.08201 41.6334 3.13238 41.6735 3.18275L41.6798 3.20374ZM21.8789 5.84801C22.4461 5.51643 23.0239 5.20373 23.5806 4.85746C24.1373 4.51118 24.6919 4.15022 25.2676 3.82493L25.6156 3.63605C25.9192 3.47446 26.2482 3.30657 26.535 3.16176C26.8217 3.01696 27.1296 2.88684 27.4291 2.75463C27.9984 2.50279 28.5678 2.25515 29.1477 2.0264C29.5694 1.8774 30.0038 1.7221 30.4129 1.60668C30.822 1.49125 31.2437 1.38212 31.6655 1.28139C31.8911 1.22892 32.121 1.17856 32.3424 1.14078C32.5638 1.10301 32.7937 1.07363 33.0045 1.03585C33.4389 0.966596 33.8691 0.891045 34.3056 0.842777C34.5608 0.817593 34.8159 0.784015 35.0774 0.784015H35.8176C36.1457 0.795132 36.473 0.823151 36.7981 0.86796C37.1925 0.937215 37.6121 1.03585 37.9748 1.1072C38.3375 1.17856 38.7002 1.28139 39.0587 1.38842C39.3125 1.46569 39.5611 1.55892 39.8031 1.66754C39.9549 1.74099 40.1025 1.81864 40.248 1.90258C40.442 2.02431 40.6297 2.15442 40.811 2.29503C40.9905 2.44217 41.1622 2.59837 41.3256 2.76302L41.4584 2.92462C41.4141 2.87425 41.372 2.82178 41.3256 2.77142C41.1607 2.6081 40.9876 2.4533 40.8068 2.30762C40.6255 2.16911 40.4378 2.039 40.2438 1.91518C40.0983 1.83123 39.9507 1.75358 39.7989 1.68013C39.5528 1.5724 39.3019 1.47796 39.046 1.39681C38.6876 1.28769 38.3544 1.19954 37.9622 1.1135C37.5699 1.02746 37.1798 0.943511 36.7855 0.874256C36.4607 0.830185 36.136 0.802903 35.8091 0.790311C35.5624 0.790311 35.322 0.777719 35.0648 0.790311C34.8075 0.802903 34.5502 0.823889 34.293 0.849073C33.8565 0.897341 33.4263 0.972892 32.9919 1.04425C32.781 1.07992 32.5554 1.1093 32.3297 1.14708C32.1041 1.18485 31.8785 1.23522 31.6528 1.28769C31.2459 1.38842 30.8241 1.49755 30.4024 1.61297C29.9806 1.7284 29.5589 1.8753 29.1371 2.0327C28.5572 2.26145 27.9879 2.50909 27.4185 2.76092C27.1191 2.89314 26.8344 3.01486 26.5244 3.16806C26.2144 3.32126 25.9087 3.48075 25.605 3.64235L25.2571 3.83123C24.6898 4.15651 24.1289 4.52377 23.5701 4.86585C23.0113 5.20793 22.4356 5.52272 21.8789 5.84801C21.4361 6.10614 20.989 6.35168 20.5272 6.57833C20.2959 6.69767 20.0546 6.79668 19.806 6.87424C20.0556 6.79236 20.2976 6.68915 20.5293 6.56574C20.9806 6.34538 21.4276 6.09984 21.8789 5.84801ZM14.1167 6.41254C13.508 6.67417 12.9133 6.96588 12.3327 7.28767C12.3273 7.28978 12.3212 7.28978 12.3158 7.28767C12.1577 7.37581 12.0037 7.47025 11.8498 7.56469L11.8688 7.53111C12.0185 7.43877 12.1661 7.34643 12.32 7.26039H12.3348C12.9154 6.9386 13.5101 6.64689 14.1188 6.38526C14.7524 6.15023 15.3987 5.95055 16.0546 5.78715C16.7077 5.64355 17.3679 5.53427 18.0326 5.45976C18.2564 5.43012 18.4816 5.41191 18.7074 5.4052H19.3484C19.7934 5.42199 20.2362 5.44927 20.679 5.50593L21.1408 5.57309L21.105 5.59407C20.9616 5.57099 20.8203 5.5521 20.6832 5.53321C20.2425 5.47655 19.7997 5.44927 19.3547 5.43248C19.1291 5.43248 18.933 5.41989 18.7074 5.43248C18.4817 5.44507 18.2582 5.46396 18.0326 5.48704C17.3679 5.56155 16.7077 5.67083 16.0546 5.81443C15.3952 5.9754 14.7454 6.17298 14.1082 6.40624L14.1167 6.41254Z" fill="#110802" fill-opacity="0.25"/>
</svg>
