<svg width="28" height="37" viewBox="0 0 28 37" fill="none" xmlns="http://www.w3.org/2000/svg">
<path d="M27.8077 13.1654C27.7212 12.4087 27.5909 11.6575 27.4176 10.9157V10.9283C27.4176 10.8947 27.4028 10.8632 27.3944 10.8275C27.3816 10.7936 27.3724 10.7584 27.367 10.7226C27.3333 10.5862 27.2974 10.4519 27.2594 10.3155C27.0581 9.57185 26.8102 8.84149 26.5172 8.12869C26.3759 7.78661 26.2325 7.46342 26.0701 7.10876C25.9078 6.75409 25.7348 6.40571 25.5387 6.06993C25.3411 5.74065 25.1153 5.42891 24.8639 5.13814C24.6217 4.85368 24.3625 4.58388 24.0879 4.33017C23.818 4.07624 23.5312 3.83909 23.2444 3.60195C22.9576 3.3648 22.6772 3.12976 22.4009 2.89891L22.344 2.85483C22.0374 2.60949 21.714 2.38579 21.3761 2.18537C21.0556 1.9923 20.7203 1.80132 20.3976 1.63763C20.075 1.47393 19.7439 1.32913 19.415 1.18013C19.0744 1.02279 18.726 0.8827 18.3712 0.760402C18.0021 0.64078 17.6289 0.521156 17.2451 0.430915C16.8613 0.340674 16.4754 0.277715 16.0853 0.221052C15.3362 0.113778 14.5792 0.0702498 13.8226 0.0909383C13.4246 0.095446 13.0273 0.126294 12.6333 0.183279C12.2559 0.24204 11.891 0.313394 11.5094 0.393142C11.1277 0.472889 10.7334 0.561032 10.3685 0.649175C10.0037 0.737317 9.64947 0.848546 9.29099 0.972365C8.9325 1.09618 8.57613 1.22839 8.22608 1.3669C7.87603 1.50541 7.53231 1.65232 7.19702 1.82231C6.8625 1.99325 6.5373 2.18169 6.22279 2.38684C5.86852 2.61349 5.5248 2.85274 5.19162 3.10877C4.58098 3.58121 4.01618 4.10957 3.50464 4.68694C3.24527 4.97445 3.00487 5.26616 2.76026 5.57675C2.51565 5.88735 2.27314 6.19375 2.04962 6.51694C1.83896 6.81879 1.64875 7.13429 1.48026 7.46132C1.30116 7.80134 1.14272 8.15174 1.0058 8.51064C0.731777 9.23148 0.520135 9.9743 0.37318 10.731C0.218927 11.4928 0.116073 12.264 0.0653061 13.0395C0.0252403 13.8307 0.0357839 14.6218 0.0653061 15.4151C0.0927195 16.1664 0.158091 16.9157 0.236114 17.6628V17.6187C0.248705 17.6666 0.254384 17.7161 0.252983 17.7656C0.252983 17.8432 0.276179 17.9188 0.276179 17.9964C0.295157 18.158 0.312028 18.3175 0.333115 18.477C0.377399 18.8506 0.425899 19.2074 0.497596 19.5977C0.569292 19.988 0.653641 20.3763 0.744316 20.7645C0.921449 21.5012 1.13654 22.2336 1.37693 22.9408C1.60257 23.6124 1.84718 24.2755 2.08968 24.9408C2.35173 25.655 2.57696 26.3821 2.76448 27.1192V27.0751C2.86784 27.5472 2.94179 28.0252 2.98589 28.5064V28.4812C3.00909 28.733 3.02385 28.987 3.0365 29.2388C3.04916 29.4906 3.0365 29.7425 3.0365 29.9922C3.03439 29.9783 3.03439 29.9642 3.0365 29.9502C3.0365 30.1748 3.01331 30.3993 3.01331 30.6239C2.97564 31.3626 3.01522 32.1032 3.13139 32.8338C3.25537 33.5699 3.46777 34.2886 3.76401 34.9744C3.90391 35.3161 4.0944 35.6352 4.32915 35.9208C4.45691 36.0689 4.60449 36.1989 4.76777 36.307C4.93148 36.4124 5.11183 36.4897 5.30127 36.5357C5.49795 36.584 5.70347 36.584 5.90015 36.5357C6.08307 36.4879 6.25494 36.4052 6.40625 36.2923C6.69729 36.0575 6.92849 35.7577 7.08104 35.4172C7.23992 35.0798 7.36699 34.7286 7.46061 34.3679C7.55904 34.0185 7.63788 33.664 7.69679 33.3059C7.80855 32.5924 7.88025 31.8747 7.99412 31.1632V31.1465C8.0656 30.7151 8.16278 30.2883 8.28512 29.8684C8.31886 29.7572 8.35893 29.648 8.39899 29.541C8.42008 29.6061 8.43695 29.6711 8.45382 29.7362C8.49025 29.8868 8.51701 30.0396 8.53395 30.1937C8.56347 30.5106 8.57613 30.8233 8.57613 31.1507C8.593 31.5074 8.593 31.8663 8.593 32.2252C8.59763 32.8793 8.64978 33.5323 8.74904 34.179C8.79 34.4872 8.86061 34.7908 8.95992 35.0856C9.07433 35.404 9.23412 35.7043 9.43438 35.9775C9.64381 36.2624 9.92045 36.4916 10.2399 36.6449C10.4503 36.7313 10.6766 36.7728 10.9042 36.7666C11.0882 36.7672 11.2695 36.7217 11.4313 36.6344C11.7248 36.4556 11.9582 36.1941 12.1019 35.8831C12.1834 35.7258 12.2539 35.5631 12.3128 35.3962C12.3634 35.2378 12.4049 35.0766 12.4372 34.9135C12.5679 34.2965 12.6312 33.6669 12.7345 33.0373V33.0793C12.7952 32.706 12.8783 32.3367 12.9834 31.9733C13.0776 31.6661 13.1902 31.3647 13.3208 31.0709C13.3882 30.9345 13.4557 30.8002 13.5316 30.6722C13.5717 30.6113 13.6118 30.5525 13.656 30.4938L13.7383 30.4014C13.7573 30.4581 13.772 30.5148 13.7868 30.5735C13.8673 30.9419 13.9258 31.3147 13.9618 31.69V31.6585C14.0525 32.6414 14.082 33.629 14.0504 34.6155C14.031 34.9033 14.0275 35.1919 14.0398 35.4801C14.0442 35.657 14.0843 35.8312 14.1579 35.9922C14.2307 36.1366 14.3352 36.2628 14.4637 36.3615C14.7164 36.5425 15.0171 36.6454 15.3283 36.6575C15.6797 36.68 16.0291 36.5903 16.3257 36.4014C16.5766 36.2291 16.7968 36.0163 16.9773 35.7718C17.1713 35.5095 17.3505 35.2409 17.5171 34.9618C17.8504 34.4229 18.1133 33.8439 18.2995 33.2388V33.2577C18.3459 33.1045 18.3901 32.9513 18.4302 32.796C18.5799 32.2189 18.6938 31.6312 18.8309 31.052C18.8941 30.7897 18.9616 30.5043 19.0143 30.265C19.0291 30.1916 19.0438 30.1181 19.0565 30.0552C19.0966 30.1391 19.1324 30.2252 19.1683 30.3133C19.2525 30.5305 19.3229 30.7526 19.3791 30.9786V30.9912C19.4614 31.3692 19.5206 31.7518 19.5563 32.137V32.0929C19.6276 32.7136 19.6579 33.3382 19.6469 33.9628V33.9187C19.6469 34.1895 19.6174 34.4602 19.6006 34.7309C19.5752 34.9855 19.571 35.2417 19.5879 35.4969C19.5987 35.787 19.6956 36.0674 19.8663 36.3027C20.0371 36.538 20.2741 36.7177 20.5474 36.8191C20.6515 36.8673 20.7624 36.8991 20.8763 36.9135H20.8932C20.9837 36.9107 21.0739 36.9016 21.1631 36.8862C21.8674 36.7603 22.382 36.1937 22.7426 35.6165C22.8332 35.4717 22.9218 35.3248 23.0019 35.1737C23.0399 35.1003 23.0736 35.0247 23.1074 34.9492L23.12 34.924V34.9114L23.1369 34.8736L23.2318 34.6638C23.3077 34.5022 23.3773 34.3511 23.4427 34.179C23.508 34.0069 23.565 33.8306 23.6177 33.6522C23.7168 33.3072 23.7963 32.9568 23.856 32.6029C23.9783 31.8894 24.0436 31.1863 24.1238 30.4476C24.2039 29.7089 24.2714 28.9786 24.3874 28.2399V28.2839C24.4375 28.0006 24.5036 27.7203 24.5856 27.4445C24.7221 27.0248 24.8834 26.6134 25.0685 26.2126L25.0938 26.1559L25.1064 26.1307V26.116C25.3321 25.6187 25.5661 25.1234 25.7918 24.626L25.7749 24.6659C25.8318 24.54 25.8888 24.4162 25.9415 24.2902C26.087 23.9545 26.1988 23.6271 26.3295 23.2703C26.4602 22.9135 26.5762 22.5715 26.7027 22.1979C26.8293 21.8243 26.941 21.4361 27.0401 21.0709C27.1392 20.7058 27.2257 20.3385 27.3143 19.9713C27.4914 19.2199 27.6243 18.4581 27.7487 17.6942C27.8715 16.9565 27.942 16.211 27.9595 15.4634C27.9599 14.6949 27.9092 13.9272 27.8077 13.1654ZM25.6167 7.63551L25.6357 7.68168H25.6062C25.5324 7.52008 25.4544 7.36269 25.3721 7.20739C25.3703 7.15921 25.3632 7.11136 25.351 7.06469C25.4417 7.24517 25.5282 7.43614 25.6167 7.63551ZM23.4131 4.57781L23.3562 4.5904C23.1833 4.42251 23.0083 4.25672 22.8438 4.10562L22.7299 3.99859C22.8185 4.07204 22.9091 4.14339 22.9956 4.20845C23.1369 4.33227 23.274 4.45819 23.4131 4.57781ZM16.486 0.940881H16.4712C16.8437 1.00443 17.2126 1.08779 17.5762 1.19062C17.8461 1.27246 18.116 1.36061 18.3796 1.45295C18.6432 1.54529 18.9005 1.66281 19.1556 1.76565L19.1324 1.75515C19.4846 1.91465 19.8536 2.07834 20.1868 2.25043C19.7376 2.04057 19.2821 1.8433 18.8203 1.66072C18.2344 1.41079 17.6248 1.22025 17.0005 1.09198C16.6715 1.03112 16.3257 0.974458 16.0178 0.907302L15.5961 0.817062C15.9018 0.856936 16.1971 0.890513 16.4902 0.947176L16.486 0.940881ZM11.1235 1.15074L10.8282 1.23679C10.6385 1.29135 10.4487 1.34802 10.2589 1.40888C10.2589 1.39629 10.2589 1.38579 10.2589 1.3732C10.4402 1.32283 10.6237 1.27666 10.8093 1.23259H10.7797L11.1235 1.15074ZM11.0834 36.1055L11.0391 36.1244L10.9969 36.137H10.9822L10.9969 36.1202C11.0589 36.0988 11.1189 36.0721 11.1762 36.0405L11.1635 36.051L11.0834 36.1055ZM13.0993 30.1349C13.1162 30.1034 13.131 30.072 13.15 30.0426C13.1689 30.0132 13.2259 29.9775 13.2638 29.946C13.2324 29.9735 13.2034 30.0037 13.1774 30.0363C13.1542 30.0615 13.1289 30.1013 13.1036 30.1349H13.0993ZM22.5464 34.584V34.5945C22.5396 34.6058 22.5339 34.6177 22.5296 34.6302C22.441 34.8002 22.344 34.966 22.2428 35.1255C22.2343 35.1062 22.2237 35.0879 22.2112 35.0709C22.3082 34.9156 22.403 34.7603 22.4958 34.6029C22.5633 34.4896 22.6245 34.3741 22.6856 34.2566C22.6477 34.3469 22.6097 34.4371 22.5696 34.5274C22.5598 34.5449 22.5534 34.5641 22.5507 34.584H22.5464ZM25.1613 24.3952L25.1781 24.3553C25.0853 24.5652 24.9905 24.7624 24.8956 24.966C24.963 24.7813 25.0347 24.5987 25.1064 24.4141C25.2077 24.2336 25.3025 24.051 25.3974 23.8684C25.3342 24.0216 25.2667 24.1748 25.1992 24.3259L25.2161 24.286C25.1887 24.3196 25.1718 24.3532 25.1613 24.3952Z" fill="#110802" fill-opacity="0.25"/>
</svg>
