<svg width="56" height="56" viewBox="0 0 56 56" fill="none" xmlns="http://www.w3.org/2000/svg">
<path d="M55.1691 44.0757L55.1543 44.1093L55.1691 44.0757Z" fill="#110802" fill-opacity="0.25"/>
<path d="M50.6024 55.9897C50.7015 55.2804 50.7985 54.5731 50.8892 53.8659C50.9335 53.5343 50.9778 53.2027 51.0136 52.8712C51.0494 52.5396 51.0769 52.2185 51.1022 51.8953C51.1528 51.2657 51.2118 50.6487 51.2371 50.0065C51.2624 49.3643 51.2624 48.7348 51.2624 48.1052C51.2624 47.7841 51.2477 47.463 51.2477 47.1419C51.2477 46.9677 51.235 46.7935 51.2308 46.6193C51.551 46.5612 51.8667 46.4805 52.1755 46.378C52.7886 46.1777 53.3691 45.8892 53.8983 45.5217C54.1742 45.3351 54.4281 45.1183 54.6554 44.8754L54.7503 44.7641C54.7642 44.7511 54.7762 44.7363 54.7861 44.7201C54.7924 44.7142 54.7975 44.707 54.8009 44.6991C54.9442 44.5088 55.0658 44.3033 55.1636 44.0863L55.2184 43.9604C55.3351 43.678 55.4234 43.3849 55.482 43.0852C55.5479 42.7842 55.5699 42.4754 55.5474 42.1681C55.5349 41.9899 55.5009 41.8137 55.4461 41.6435C55.3992 41.4924 55.3392 41.3457 55.2669 41.2049C55.1309 40.9331 54.9655 40.6769 54.7735 40.441C54.3997 39.9567 53.9384 39.546 53.4133 39.2301C53.1362 39.0704 52.842 38.9423 52.5361 38.8481C52.2241 38.752 51.9045 38.6818 51.5808 38.6382C51.1709 38.5704 50.7564 38.5339 50.3409 38.5291C50.0527 38.5208 49.7644 38.5419 49.4806 38.5921C49.1706 38.6583 48.8672 38.7517 48.5738 38.8712H48.5422C48.2531 38.9851 47.9713 39.1169 47.6987 39.2657L47.6439 39.2951L47.6228 39.3056C47.0978 39.6127 46.6263 40.0025 46.2268 40.4599C46.0001 40.7011 45.7888 40.9562 45.5942 41.2238C45.4018 41.5031 45.2373 41.8004 45.1028 42.1115C44.8347 42.7238 44.6126 43.3551 44.4386 44.0002C44.3627 44.3234 44.291 44.6298 44.2277 44.953C44.1645 45.2762 44.1202 45.5973 44.0696 45.9205C43.9683 46.5753 43.8756 47.23 43.7701 47.8827C43.7722 47.8688 43.7722 47.8546 43.7701 47.8407C43.7559 47.8943 43.7467 47.9491 43.7427 48.0044C43.6816 48.3486 43.6141 48.6928 43.5571 49.037V48.995C43.5234 49.1881 43.4939 49.379 43.4665 49.5742C43.3695 50.2038 43.283 50.8082 43.1923 51.463C43.1017 52.1177 43.0489 52.7788 42.9435 53.4315C42.9456 53.4176 42.9456 53.4034 42.9435 53.3895C42.9303 53.4433 42.9211 53.498 42.9161 53.5532V53.5091C42.817 54.0863 42.7052 54.6718 42.5808 55.23C42.526 55.4839 42.4712 55.7421 42.4121 56.0002L50.6024 55.9897ZM47.9349 39.8785C47.9358 39.8862 47.9358 39.894 47.9349 39.9016L47.724 40.0128C47.7957 39.9667 47.8632 39.9205 47.9349 39.8785Z" fill="#110802" fill-opacity="0.25"/>
<path d="M0.445313 23.5545C0.445313 23.8693 0.472728 24.1841 0.500141 24.501C0.500141 24.543 0.500141 24.5871 0.500141 24.629C0.533401 25.3186 0.603793 26.0058 0.711014 26.6878C0.799581 27.2523 0.888145 27.8169 0.972494 28.3667C1.05684 28.9165 1.1665 29.4601 1.29513 30.0015C1.39635 30.4108 1.506 30.841 1.61144 31.2418C1.7464 31.8966 1.87503 32.5556 1.98258 33.2103C2.15338 34.2492 2.29256 35.288 2.42541 36.3373C2.53085 37.1411 2.62574 37.9532 2.71852 38.7654C2.71852 38.8452 2.71852 38.927 2.71852 39.0089C2.7375 39.5293 2.75859 40.0729 2.79865 40.5681C2.83872 41.0634 2.90198 41.5461 2.96946 42.0519C3.03694 42.5576 3.11074 43.0634 3.18033 43.5692C3.24148 44.012 3.29842 44.4569 3.35957 44.8997C3.42916 45.9763 3.50719 47.0529 3.5578 48.1295C3.58521 48.7087 3.60418 49.3173 3.62527 49.8693C3.64636 50.4212 3.64214 50.9731 3.62527 51.5272V51.4873C3.59786 52.3268 3.54725 53.1662 3.4629 54.0057C3.42494 54.4023 3.37644 54.7948 3.33849 55.1935C3.31318 55.4621 3.28366 55.7307 3.24992 55.9994H40.0493L39.8975 55.6279C39.6169 54.8857 39.3837 54.1266 39.1995 53.3551C39.0392 52.6751 38.9022 51.991 38.7778 51.3047C38.6449 50.566 38.5353 49.821 38.4551 49.0739V49.1054C38.4108 48.65 38.3792 48.1946 38.3792 47.7371C38.3792 47.3341 38.3792 46.9333 38.394 46.5303V46.5744C38.4129 46.012 38.4509 45.46 38.4741 44.8955C38.4973 44.331 38.5184 43.7581 38.5374 43.2019C38.5563 42.6458 38.5859 42.0917 38.6154 41.5398C38.6449 40.9879 38.6702 40.4485 38.7145 39.8819C38.7588 39.3153 38.822 38.7486 38.8642 38.182C38.9064 37.6154 38.9528 37.1075 39.0013 36.5912C39.0498 36.075 39.0835 35.5881 39.1426 35.0424C39.2016 34.4968 39.2628 33.9218 39.3092 33.4055C39.3555 32.8893 39.3956 32.3562 39.4399 31.8399C39.4842 31.3237 39.5348 30.8158 39.5706 30.2828C39.6065 29.7497 39.6339 29.2334 39.6697 28.6794C39.7056 28.1254 39.7372 27.5713 39.7372 27.0005C39.7372 26.4297 39.7267 25.8442 39.7119 25.2859C39.6972 24.7277 39.674 24.1673 39.6571 23.607C39.6402 23.0467 39.6381 22.4654 39.6233 21.9281C39.6086 21.3909 39.5706 20.8578 39.5158 20.3227V20.2849C39.4294 19.4811 39.3387 18.6815 39.2185 17.8841C39.1531 17.4496 39.0983 17.011 39.0203 16.5766C38.9507 16.1779 38.8642 15.7812 38.7672 15.3888C38.628 14.8096 38.4741 14.2345 38.3012 13.6679C38.2147 13.3804 38.1177 13.074 38.0418 12.8075C37.9659 12.5409 37.8837 12.2618 37.8077 12.0058C37.7318 11.7477 37.6359 11.4958 37.521 11.2524C37.4029 11.0026 37.3101 10.7529 37.192 10.5053C36.9917 10.0749 36.7613 9.659 36.5024 9.26077C36.2262 8.82216 35.9289 8.39614 35.6147 7.98271C35.3005 7.56928 34.982 7.16215 34.632 6.7718C34.4443 6.56194 34.2524 6.35208 34.0542 6.14221C34.0401 6.12164 34.0231 6.10325 34.0036 6.08765C33.8286 5.90926 33.6493 5.73508 33.4638 5.56509C33.0568 5.19573 32.6203 4.82847 32.2133 4.51577C31.8063 4.20308 31.3846 3.88619 30.9481 3.61337C30.4759 3.32001 29.988 3.05239 29.4867 2.81169C29.0228 2.57874 28.5778 2.35838 28.0717 2.14642C27.5657 1.93446 27.0364 1.76657 26.5113 1.59238C25.4745 1.25449 24.4086 1.01281 23.3271 0.870456C23.0804 0.834779 22.8337 0.801202 22.5848 0.780216C22.4625 0.764457 22.3391 0.758136 22.2158 0.761323H21.7751C21.2606 0.752928 20.7439 0.762023 20.2252 0.788606C19.6647 0.811111 19.1058 0.862953 18.5508 0.943909C17.9941 1.02576 17.4121 1.13488 16.8849 1.23562C16.3578 1.33635 15.8306 1.44548 15.3161 1.57559C15.044 1.64275 14.7615 1.7204 14.5042 1.79595C14.2469 1.8715 13.9897 1.94915 13.7366 2.04359C13.2305 2.23876 12.7434 2.44023 12.2352 2.65849C11.727 2.87674 11.242 3.12858 10.7591 3.38671C10.5187 3.51683 10.2867 3.63645 10.04 3.78545C9.7933 3.93445 9.55501 4.08136 9.30829 4.24296C9.06157 4.40455 8.81907 4.57034 8.57445 4.73403C8.32984 4.89773 8.08734 5.06142 7.84905 5.2356C7.39567 5.56509 6.93597 5.89457 6.51423 6.25974C6.30336 6.44022 6.10936 6.63119 5.90481 6.82427C5.70026 7.01734 5.49782 7.20831 5.30593 7.41818C4.93836 7.81139 4.59407 8.22552 4.27476 8.65847C4.11239 8.87883 3.95845 9.09079 3.79608 9.32374C3.63371 9.55669 3.46923 9.78963 3.32372 10.0352C3.04279 10.509 2.79137 10.9996 2.57091 11.5042C2.33895 12.0226 2.12808 12.564 1.95095 13.0908C1.77381 13.6175 1.61355 14.18 1.45961 14.6857C1.30567 15.1915 1.15806 15.6784 1.03786 16.2135C0.917667 16.7487 0.826995 17.2922 0.744755 17.8337C0.582058 18.989 0.489802 20.1531 0.468505 21.3195V21.2775C0.447418 21.8735 0.443204 22.4675 0.451638 23.0677C0.445312 23.223 0.445313 23.3888 0.445313 23.5545ZM33.5397 6.50947C33.5734 6.55145 33.6135 6.58712 33.6493 6.6249L33.7843 6.7697C33.953 6.95228 34.1196 7.13906 34.284 7.32794C34.6004 7.6973 34.8977 8.08554 35.1908 8.47379V8.4591L35.2604 8.55354L35.2456 8.53256C35.6396 9.06085 35.9988 9.61394 36.3211 10.1884C36.3822 10.2996 36.4371 10.3982 36.4898 10.5158C36.0496 9.72429 35.5505 8.96667 34.9968 8.24924C34.4821 7.58333 33.9339 6.94383 33.3541 6.33319L33.5397 6.50947ZM5.70448 7.87778L5.80148 7.77705L5.71713 7.87778L5.28062 8.35417C5.40715 8.18838 5.54421 8.03098 5.69604 7.87988L5.70448 7.87778Z" fill="#110802" fill-opacity="0.25"/>
</svg>
