<svg width="43" height="47" viewBox="0 0 43 47" fill="none" xmlns="http://www.w3.org/2000/svg">
<path d="M41.9215 40.2406C41.8124 40.0806 41.6791 39.9389 41.5263 39.8208C41.2662 39.6344 40.9873 39.4761 40.6943 39.3486C40.2181 39.1073 39.7563 38.8345 39.3008 38.5533L38.9535 38.3434C38.7913 38.2469 38.6311 38.1335 38.471 38.037C38.3732 37.9698 38.263 37.9027 38.1653 37.8271C38.1029 37.7747 38.0446 37.7159 37.9864 37.6571C37.806 37.4612 37.6366 37.2552 37.4789 37.0401C37.3999 36.9289 37.325 36.8156 37.2564 36.6981C37.1555 36.5057 37.0645 36.3082 36.9839 36.1063C36.9033 35.8904 36.8339 35.6704 36.7759 35.4473C36.6869 35.1053 36.6174 34.7585 36.5679 34.4085C36.5433 34.0971 36.5343 33.7847 36.5409 33.4725V32.6015C36.5596 32.1652 36.6013 31.7302 36.6657 31.2983C36.726 30.8576 36.7738 30.4148 36.8446 29.9741C36.8945 29.6845 36.9465 29.3969 37.0026 29.1094C37.0796 28.7464 37.1461 28.3812 37.2106 28.0181C37.2855 27.5984 37.3791 27.2081 37.4519 26.7883C37.5143 26.4463 37.5725 26.1231 37.6307 25.7579C37.689 25.3928 37.741 25.0255 37.8013 24.6603V24.6456C37.847 24.3707 37.8928 24.0832 37.9427 23.823C37.9926 23.5627 38.0405 23.3025 38.08 23.0381C38.1611 22.44 38.2297 21.8377 38.288 21.2354C38.3524 20.5596 38.4128 19.8839 38.4564 19.206C38.4752 18.9017 38.4939 18.5974 38.5105 18.2931C38.5313 17.9093 38.5313 17.5247 38.5105 17.1409C38.4897 16.7464 38.4564 16.3582 38.4065 15.9573C38.3566 15.5565 38.315 15.1556 38.2672 14.7548C38.1881 14.0979 38.0405 13.4557 37.9053 12.8094C37.8491 12.5365 37.7867 12.2637 37.7181 11.993C37.6349 11.6635 37.5434 11.3634 37.4394 11.0171C37.3354 10.6709 37.2106 10.3015 37.0962 9.99511C36.9818 9.68871 36.8674 9.36552 36.7302 9.05912C36.5471 8.66038 36.3392 8.27423 36.1312 7.89228C35.9565 7.57539 35.7838 7.27528 35.5759 6.96049C35.3679 6.64569 35.1599 6.34349 34.9186 6.04549C34.6774 5.74748 34.4278 5.46417 34.172 5.18295C33.6837 4.65725 33.1491 4.17748 32.5746 3.74959C32.3043 3.53972 32.038 3.34665 31.7614 3.13888C31.4841 2.93418 31.1967 2.74366 30.9004 2.56806C30.5926 2.38128 30.2764 2.1882 29.9582 2.035C29.64 1.8818 29.3114 1.76008 28.9828 1.63627C28.6435 1.50619 28.2961 1.39892 27.9428 1.31517C27.3127 1.16652 26.6754 1.05025 26.0336 0.966802L25.7341 0.926928C25.5565 0.895129 25.3774 0.872714 25.1975 0.859772C25.0454 0.857662 24.8933 0.863967 24.742 0.87866C24.7191 0.876574 24.6962 0.876574 24.6733 0.87866L24.2802 0.891252C23.987 0.891252 23.6979 0.910139 23.4026 0.935323C23.1072 0.960506 22.814 1.00248 22.5186 1.04655C22.2233 1.09062 21.9363 1.13469 21.6451 1.18506C21.0419 1.28999 20.4388 1.41171 19.8377 1.54183C19.5174 1.61108 19.1784 1.68034 18.8789 1.76638C18.5794 1.85242 18.3111 1.94476 17.9846 2.05179C17.658 2.15882 17.3419 2.29104 17.0237 2.42325C16.7429 2.54078 16.4829 2.66879 16.1917 2.81569C15.9006 2.9626 15.6052 3.12 15.3328 3.27949C15.0603 3.43899 14.7899 3.59219 14.5175 3.77057C14.245 3.94896 13.9809 4.14623 13.7209 4.3393C13.4609 4.53237 13.1926 4.72125 12.9514 4.93111C12.7101 5.14098 12.4813 5.35084 12.2421 5.5607C12.0029 5.77057 11.7721 6.00771 11.5495 6.23436C11.327 6.46101 11.119 6.69396 10.911 6.9479C10.703 7.20183 10.4951 7.45786 10.2871 7.72439C9.9208 8.24791 9.59669 8.80022 9.31788 9.37601C9.16813 9.66143 9.02462 9.94684 8.88735 10.2385C8.75008 10.5303 8.63569 10.8304 8.52546 11.1326C8.31747 11.7244 8.10949 12.2931 7.9015 12.9227C7.69352 13.5523 7.50633 14.1819 7.34619 14.8115C7.27131 15.1095 7.20268 15.4096 7.15276 15.7118C7.09453 16.0455 7.06333 16.377 7.03629 16.717C7.00925 17.057 6.99053 17.4033 6.98221 17.737C6.9739 18.0706 6.98222 18.4064 6.99469 18.738C7.01757 19.3865 7.06541 20.0098 7.11117 20.6771C7.15692 21.3445 7.19852 22.0349 7.28171 22.675C7.36491 23.3151 7.4481 23.9573 7.57289 24.5869C7.63321 24.8891 7.706 25.2165 7.78087 25.5187C7.85575 25.8209 7.92646 26.121 8.01174 26.4169C8.09701 26.7128 8.18228 26.9982 8.28419 27.2983C8.38611 27.5984 8.49218 27.8943 8.56913 28.2028C8.66232 28.6487 8.72762 29.1001 8.76464 29.5543C8.80415 29.9426 8.83535 30.3224 8.84991 30.7212C8.86447 31.1199 8.86239 31.5187 8.84991 31.9195C8.84783 31.9056 8.84783 31.8914 8.84991 31.8775C8.84163 32.2926 8.80829 32.7068 8.75008 33.1178C8.72928 33.2311 8.70432 33.3424 8.67313 33.4515C8.65441 33.5082 8.63569 33.5648 8.61489 33.6194C8.55665 33.7306 8.49842 33.8397 8.4381 33.9489C8.37779 34.058 8.32787 34.1482 8.29667 34.2007C8.26548 34.2532 8.23012 34.3056 8.20308 34.3581V34.3686L8.13237 34.4798C8.08661 34.5554 8.03877 34.6225 7.98886 34.6897C7.90358 34.7925 7.81415 34.8995 7.71848 34.9856C7.61494 35.0841 7.50592 35.1766 7.39194 35.2626C7.17148 35.4221 6.94062 35.5669 6.71184 35.7117C6.48305 35.8565 6.19396 36.0286 5.92774 36.1776C5.71975 36.2951 5.51177 36.4106 5.28299 36.5155C5.0542 36.6204 4.86702 36.7023 4.65903 36.7862C4.14115 36.9961 3.61911 37.1724 3.08251 37.334C2.83501 37.4116 2.58751 37.4893 2.34001 37.5711C2.10337 37.6418 1.87252 37.7309 1.64951 37.8376C1.39996 37.9535 1.1911 38.143 1.05051 38.3812C0.99536 38.4807 0.96183 38.5909 0.952148 38.7046C0.942465 38.8182 0.956853 38.9326 0.994355 39.0401C1.03211 39.1468 1.08768 39.2462 1.15866 39.334C1.23778 39.424 1.32714 39.5043 1.42488 39.5732C1.65941 39.7295 1.91233 39.8557 2.17778 39.9488C2.4318 40.0472 2.69244 40.1272 2.95772 40.1881C3.26067 40.2524 3.56796 40.2938 3.87701 40.3119C4.0538 40.3245 4.22851 40.3308 4.41153 40.3287C4.79214 40.3287 5.17483 40.3014 5.55129 40.2636C5.97104 40.2189 6.38775 40.1489 6.79919 40.0538C7.04253 40.0034 7.28171 39.9384 7.51881 39.8691L7.40858 39.9384C7.2006 40.0811 6.99261 40.2217 6.76175 40.3455C6.59121 40.4336 6.4061 40.5407 6.25011 40.6414L5.77799 40.9541C5.61368 41.0632 5.45145 41.1744 5.29754 41.2983C5.12678 41.4223 4.97415 41.57 4.84414 41.7369C4.74266 41.8693 4.66456 42.0184 4.61328 42.1776C4.56282 42.3419 4.55142 42.5159 4.58 42.6855C4.6083 42.8499 4.66609 43.0078 4.75055 43.1514C4.84494 43.3042 4.97673 43.43 5.13324 43.5165C5.43823 43.662 5.77372 43.7304 6.11076 43.7159L6.20435 43.7411C6.44104 43.7414 6.67742 43.7239 6.9115 43.6886C7.2006 43.6466 7.48138 43.5837 7.77255 43.5165C8.06373 43.4494 8.33619 43.378 8.64193 43.2962C8.94766 43.2143 9.24716 43.122 9.54874 43.0212C9.81288 42.9331 10.0749 42.8366 10.3391 42.7505C10.8628 42.5749 11.3766 42.3703 11.8782 42.1377C12.1589 42.0097 12.446 41.888 12.7101 41.7537C12.9742 41.6194 13.2342 41.4767 13.4921 41.3339H13.4776C13.6481 41.2374 13.8186 41.1409 13.983 41.0338C13.6543 41.4885 13.3368 41.9502 13.0304 42.4189C12.8869 42.6519 12.7434 42.8869 12.6144 43.1325C12.4764 43.3844 12.3615 43.6485 12.2712 43.9216C12.1381 44.3539 12.0633 44.8554 12.3004 45.2647C12.4226 45.4453 12.5877 45.5922 12.7806 45.6919C12.9735 45.7916 13.1881 45.841 13.4048 45.8355H13.4339C13.7232 45.8236 14.0085 45.7633 14.2783 45.6571C14.4197 45.6047 14.5695 45.5354 14.6943 45.4766C14.8191 45.4179 14.9438 45.3612 15.0645 45.2962C15.3268 45.1521 15.5815 44.9944 15.8278 44.824C16.0774 44.654 16.3165 44.4714 16.5578 44.2888L16.5245 44.314L16.5682 44.2825C16.7491 44.1398 16.9322 43.9992 17.109 43.8628C17.2857 43.7264 17.4605 43.5795 17.6372 43.4431C17.814 43.3067 17.995 43.1681 18.1738 43.0233L18.7021 42.5847C19.1306 42.2259 19.5673 41.8733 19.9833 41.5102C20.2412 41.3004 20.4762 41.0506 20.7445 40.8408C20.8173 40.7904 20.888 40.7421 20.965 40.696C21.007 40.6709 21.0508 40.6492 21.096 40.6309L21.1168 40.6204H21.1314L21.2624 40.6897C21.3347 40.7349 21.4042 40.7847 21.4704 40.8387C21.562 40.9143 21.6488 40.9956 21.7304 41.0821L21.7033 41.0527C21.8635 41.2227 22.0236 41.3927 22.1858 41.5606C22.4437 41.8271 22.6663 42.0874 22.9367 42.4001C23.207 42.7127 23.4774 43.0296 23.7686 43.3193C23.9766 43.5291 24.1846 43.7033 24.3926 43.9027C24.6005 44.102 24.8272 44.293 25.056 44.4756C25.5112 44.8447 25.9884 45.1853 26.4849 45.4955C26.7383 45.6625 27.0031 45.8112 27.2773 45.9404C27.5578 46.062 27.8529 46.146 28.155 46.1902C28.2858 46.2198 28.4186 46.2402 28.5522 46.251C28.7234 46.2529 28.8939 46.2282 29.0576 46.1776L29.1159 46.1629C29.3586 46.0904 29.5629 45.9238 29.6842 45.6996C29.8054 45.4754 29.8336 45.2118 29.7627 44.9667C29.7372 44.8221 29.6946 44.6812 29.6358 44.5469C29.5744 44.4032 29.5049 44.2631 29.4278 44.1272C29.1512 43.6592 28.8663 43.1996 28.5959 42.7274C28.4919 42.5344 28.3879 42.3413 28.2943 42.144C28.5023 42.2489 28.7103 42.3539 28.9287 42.4441C29.4237 42.654 29.927 42.8638 30.4303 43.0569C30.7132 43.166 31.0023 43.2668 31.2914 43.3591C31.5805 43.4515 31.8717 43.5396 32.1649 43.6256C32.4228 43.7033 32.6599 43.7705 32.9449 43.8355L33.7768 44.0223C34.3623 44.1696 34.9594 44.2651 35.5613 44.3077C35.7272 44.309 35.8927 44.3238 36.0563 44.3518H36.3932C36.6654 44.34 36.936 44.3049 37.2023 44.2468C37.3958 44.2108 37.5825 44.1443 37.7555 44.0496C37.9097 43.9572 38.0463 43.8378 38.159 43.697L38.2277 43.6068C38.3294 43.4709 38.3835 43.3048 38.3816 43.1346C38.3643 42.9306 38.2758 42.7395 38.132 42.5952C37.9501 42.4145 37.7391 42.2661 37.508 42.1566H37.7867C37.9386 42.1566 38.0883 42.1398 38.2381 42.1272C38.5022 42.1083 38.7622 42.0895 39.0242 42.0559C39.3674 42.016 39.7043 41.9719 40.0517 41.9048C40.399 41.8376 40.7401 41.7243 41.0812 41.6278C41.2231 41.592 41.3621 41.5457 41.4972 41.4892C41.6156 41.4429 41.7227 41.3713 41.8112 41.2794C41.9256 41.1431 42.0042 40.98 42.04 40.8051C42.0727 40.6086 42.0304 40.4068 41.9215 40.2406Z" fill="#110802" fill-opacity="0.25"/>
</svg>
