<?xml version="1.0" encoding="UTF-8"?>
<svg xmlns="http://www.w3.org/2000/svg" width="350" height="350" xmlns:xlink="http://www.w3.org/1999/xlink" viewBox="0 0 350 350">
  <defs>
    <style>
      .cls-1 {
        fill: none;
      }

      .cls-2 {
        fill: rgba(21, 15, 12, .25);
      }

      .cls-3 {
        clip-path: url(#clippath);
      }
    </style>
    <clipPath id="clippath">
      <rect width="350" height="350" fill="none"/>
    </clipPath>
  </defs>
  <g id="Layer_1" data-name="Layer 1"/>
  <g id="Layer_2" data-name="Layer 2">
    <g id="Layer_1-2" data-name="Layer 1">
      <g clip-path="#clippath">
        <path d="M313.38,226.67c-.59-1.1-1.55-2-2.75-2.4-5.77-1.53-11.2,2.33-16.66,3.69-8.74,2.82-18.06,3.8-27.2,4.25-6.4,.13-12.83,.4-19.12-1.14-.07-.06-.13-.1-.2-.16-2.83-8.59-5.26-17.31-9.18-25.49,9.99-1.85,19.96-4.03,29.57-7.39,5.12-1.64,9.52-4.74,14.13-7.4,4.75-2.83,9.38-5.97,13.05-10.14,.61-.83,2.34-2.72,3.63-4.65,.9-1.02,1.57-2.55,1.9-3.48,.54-1.89,.52-3.9,.41-5.85-.77-7.61-2.76-15.3-6.54-21.98-2.43-3.99-4.9-7.97-7.71-11.71-4-5.44-8.86-10.18-13.34-15.21-7.71-8-15.75-15.77-24.88-22.14-3.84-2.98-7.9-5.63-12.13-8.02-5.59-3.66-11.38-7.01-17.52-9.68-6.23-3.03-12.44-6.16-19.13-8.04-13.12-3.58-26.69-6.73-40.38-5.64-5.88,.58-11.61,2.12-17.24,3.95-.43-.02-.85,.12-1.19,.4-2.85,.95-5.68,1.95-8.5,2.93-6.1,2.44-11.8,5.8-17.43,9.16-1.81,1.34-3.57,2.77-5.31,4.21-.61,.09-1.14,.5-1.57,.96-1.05,.96-2.08,1.96-3.09,2.97-.24,.2-.48,.41-.72,.61-.13,.18-.24,.36-.37,.53-2.32,2.42-4.5,4.96-6.45,7.69-5.47,7.91-10.38,16.32-14.1,25.26-2.94,7.29-5.46,14.74-8.41,22.02-2.61,6.78-4.93,13.66-7.02,20.61-2.06,.67-4.09,3.87-5.58,5.07-22.67,22.39-40.32,49.72-51.76,79.44-1.83,5.16-3.32,10.45-4.63,15.77-1.24,5.56-6.26,19.25,.67,22.29,4.18,.99,8.31-1.11,12.39-1.78,6.45-1.12,12.82-2.89,19.38-3.48,2.63-.1,5.22-.48,7.83-.02-.02,.74-.05,1.47-.08,2.21-.16,1.21-.32,2.41-.48,3.62-1.34,14.75-1.98,29.57-2.46,44.38,.25,13.68-.12,27.44,1.39,41.06,.14,.83,.83,1.45,1.65,1.49,1.94,2.63,12.2,4.46,15.22,4.99,5.94,1.19,11.93,.07,17.9,.2,.79-.02,1.57,.36,2.34,.14,1.43-.41,1.51-2.04,1.08-3.21h0c1.28,.06,2.57,.13,3.85,.2,14.38,.7,28.75,1.04,43.14,1.15,18.93,.6,37.86-.45,56.75-1.38,14.38-.29,28.78-.05,43.14-.79,7.25-.46,14.45-1.38,21.66-2.18,3.4-.47,9.73-1.07,14.02-3.2,.41,1.95,3.42,1.77,3.45-.38-.03-.75-.05-1.49-.09-2.24,.11-.14,.2-.29,.29-.45,.7,.71,2.04,.76,2.68-.13,.62-.83,.23-1.9,.22-2.86-.8-12.32-1.55-24.78-3.31-37.12-1.31-9.5-2.56-18.99-4.02-28.44,.57-.12,1.14-.46,1.6-.86,4.26-2.87,7.8-6.39,11.77-9.78,13.24-12.51,25.08-26.94,32.89-43.49,2.58-5.81,6.04-12.84,2.54-18.97Zm-58.63-28.38c.31-.09,.63-.18,.94-.27,3.81-1.27,7.71-2.31,11.56-3.48-.17,.06-.34,.13-.51,.18-3.92,1.4-7.94,2.55-11.99,3.57Z" fill="rgba(21, 15, 12, .25)"/>
      </g>
    </g>
  </g>
</svg>