<svg xmlns="http://www.w3.org/2000/svg" xmlns:xlink="http://www.w3.org/1999/xlink" width="175.28" height="181.18" viewBox="0 0 175.28 181.18">
  <defs>
    <clipPath id="clip-path">
      <circle cx="87.64" cy="87.64" r="87.64" fill="none"/>
    </clipPath>
  </defs>
  <g id="Layer_2" data-name="Layer 2">
    <g id="Vector_layer" data-name="Vector layer">
      <g>
        <circle cx="87.64" cy="87.64" r="87.64" fill="#98d7c3"/>
        <g clip-path="url(#clip-path)">
          <g>
            <path d="M61.09,72c-.15.22-.3.45-.44.68-.63,1-1.2,2.14-1.77,3.22s-1.18,2.15-1.69,3.26c-.42.94-.77,1.9-1.14,2.87s-.94,2.18-1.44,3.26c-.67,1.48-1.32,3-2,4.47A38.06,38.06,0,0,0,51,93.93c-.2.74-.33,1.5-.46,2.26a.09.09,0,0,1,0,0v0a34.48,34.48,0,0,0-.35,3.78c-.06,1.92.11,3.85.19,5.77s-.06,4.12-.13,6.19v.08a19.15,19.15,0,0,0,0,2.14c.06.57.14,1.14.25,1.71,1.18.46,1.23,2.12,1.28,3.19a2,2,0,0,1-1,2,1.64,1.64,0,0,1-.68.15,1.69,1.69,0,0,1-1-.29,2,2,0,0,1-.43-.43,1.36,1.36,0,0,1-.64.18h0a1.45,1.45,0,0,1-1.45-1.4V119c0-1.5,0-3,0-4.49s-.17-2.75-.24-4.12c-.15-2.84-.36-5.67-.58-8.51s-.31-5.95-.61-8.91c-.15-1.43-.29-2.85-.47-4.28a41.05,41.05,0,0,1-.32-4.44c0-1.48.07-3,.18-4.44s.26-2.93.5-4.39c.06-.42.14-.84.22-1.27a2.33,2.33,0,0,0,.64.56,5.35,5.35,0,0,0,.81.35,8,8,0,0,0,2.56.39,14.38,14.38,0,0,0,2.26-.2,29,29,0,0,0,4-1A27.89,27.89,0,0,0,59.23,73C59.86,72.68,60.48,72.36,61.09,72Z" fill="#98d7c3"/>
            <path d="M102,97.35c0,1.33,0,2.67,0,4a84.49,84.49,0,0,1-.68,8.7l-.51,4c-.12.92-.26,1.83-.43,2.74,0,.19-.09.38-.15.58a1.65,1.65,0,0,1-1.51,1.18h0a1.78,1.78,0,0,1-1.49-.86,8.83,8.83,0,0,1-.5-.91c-.15-.27-.32-.53-.5-.79-.77-1-1.53-2-2.27-3.09s-1.47-2-2.13-3.1c-.56-.91-1.11-1.82-1.65-2.74a2.57,2.57,0,0,1-.37-.87,1.8,1.8,0,0,1,.42-1.52,3.74,3.74,0,0,1,1.78-.85l.61-.29a2.61,2.61,0,0,0,.28-.17l.5-.42q.34-.34.66-.72a5.92,5.92,0,0,0,.35-.48l.1-.18a1.55,1.55,0,0,0,.08-.23,5,5,0,0,0,.16-.67c0-.31.08-.62.1-.94s0-.73,0-1.09-.06-.44-.11-.66,0-.17-.08-.25-.14-.3-.22-.44a3.34,3.34,0,0,0-.25-.4,8.69,8.69,0,0,0-.68-.82L93,95.68c-.13-.1-.27-.21-.41-.3l-.37-.2a6.62,6.62,0,0,0-.62-.24c-.3-.08-.61-.15-.92-.21a15.13,15.13,0,0,0-1.51-.14h-.33c-1.16,0-2.32,0-3.48-.08a11.3,11.3,0,0,1-1.16-.08l-.67-.08c-.23,0-.45,0-.67,0a2.76,2.76,0,0,1-.7,0,2.21,2.21,0,0,1-1-.37,2.6,2.6,0,0,1-.73-.85,9,9,0,0,1-.51-1,42.05,42.05,0,0,1-1.31-4.31v0l-.06,0a1.53,1.53,0,0,1-1.92-.55A5.16,5.16,0,0,1,76,85.73c-.19-.66-.34-1.33-.5-2l.05.21c-.38-1.56-.72-3.12-1.08-4.67-.31-1.22-.68-2.41-1.08-3.59-.22-.68-.44-1.34-.62-2A6.19,6.19,0,0,1,72.6,73c-.08-.24-.15-.48-.23-.71l-.12-.25a2.33,2.33,0,0,0-.17-.26,2.75,2.75,0,0,0-.22-.26,5.11,5.11,0,0,0-.48-.45,5.62,5.62,0,0,0-.5-.35l-.22-.12a8.29,8.29,0,0,0-.83-.31c-.46-.12-.91-.22-1.38-.3-.72-.11-1.43-.18-2.15-.22h-.12c-.54,0-1.07-.07-1.61-.1.29-.23.57-.47.85-.71a11.26,11.26,0,0,0,1.48-1.53,14.71,14.71,0,0,0,1.23-1.87,17.57,17.57,0,0,0,.9-1.91,9.26,9.26,0,0,0,.49-1.93,10.44,10.44,0,0,0,0-3.82c0-.06,0-.11,0-.17.3,0,.6-.08.9-.13a2.45,2.45,0,0,0,.08,1.17,13.76,13.76,0,0,0,2.43,4.66,19.41,19.41,0,0,0,3.33,3.2,19.9,19.9,0,0,0,3.63,2.41,20.63,20.63,0,0,0,4.4,1.45c.67.15,1.35.3,2,.43a13.38,13.38,0,0,0,2.09.24l1,0a23.34,23.34,0,0,0,5.95-.7,11.16,11.16,0,0,0,3.48-1.38L99,69c.08.42.16.84.22,1.27,0,.25.08.5.13.76.36,2.37.69,4.74.94,7.13,0,.17,0,.34.05.51l0,.28c.23,2.19.39,4.38.61,6.56a2.3,2.3,0,0,0,0,.26c.17,1.65.39,3.29.57,5,.11.93.2,1.87.27,2.81C102,94.78,102,96.06,102,97.35Z" fill="#98d7c3"/>
            <path d="M47.76,103.14a2.87,2.87,0,0,1-2-1.89,9.47,9.47,0,0,1-.65-2.3,41.23,41.23,0,0,1-.44-4.71c-.08-1.53-.14-3-.23-4.57s-.22-2.8-.26-4.21c0-.61,0-1.21,0-1.81v.19a4,4,0,0,1,.26-1.7,1.37,1.37,0,0,1-.26-.77,1.44,1.44,0,0,1,.37-1,1.46,1.46,0,0,1,1-.46l-.21,0-.17,0h0L45,80a3.18,3.18,0,0,1,2.84.4,9,9,0,0,1,1.7,1.25,13.6,13.6,0,0,1,1.18,1.22A11.11,11.11,0,0,1,53.53,89a1.5,1.5,0,0,1,0-.2,6.19,6.19,0,0,1,0,1.36,11.7,11.7,0,0,1-.41,1.65s0,0,0-.06c-.06.23-.13.46-.2.68l0-.18c-.66,2.21-1.31,4.43-2.12,6.59-.27.7-.51,1.41-.77,2.11-.11.29-.2.59-.33.88A2,2,0,0,1,48,103.15Z" fill="#6dbda9"/>
            <path d="M53.65,82.1A3.08,3.08,0,0,1,53.37,81a3.65,3.65,0,0,1,.33-1.92,3.8,3.8,0,0,1,1.09-1.36,2.53,2.53,0,0,1,2.06-.63,1.7,1.7,0,0,1,1.32,1.74,1.49,1.49,0,0,1-.65,1.06,1.47,1.47,0,0,1-1,.2l0,0-.08.11-.06.11,0,.07v0a.28.28,0,0,1,0,.09c0,.09,0,.18,0,.28s0,.08,0,.12l0,.08a1.47,1.47,0,0,1-.77,1.75,1.44,1.44,0,0,1-.6.13A1.47,1.47,0,0,1,53.65,82.1Z" fill="#6dbda9"/>
            <path d="M100.17,91.55A1.46,1.46,0,0,1,98.88,90c0-.35.05-.71.07-1.06,0-.57,0-1.14,0-1.71,0-1.22,0-2.45,0-3.67,0-2.81-.08-5.63-.34-8.43a1.36,1.36,0,0,0,0,.2c-.1-.89-.25-1.77-.4-2.65A1.45,1.45,0,0,1,99.39,71a1.47,1.47,0,0,1,1.66,1.17c.1.58.21,1.16.29,1.74.12.81.19,1.62.25,2.43.11,1.49.16,3,.2,4.48.06,2.39.08,4.77.08,7.16a14.59,14.59,0,0,1-.13,2.29,1.46,1.46,0,0,1-1.42,1.29Z" fill="#98d7c3"/>
            <path d="M99.65,65.69a3.13,3.13,0,0,1,.34,1.94A2.4,2.4,0,0,1,99,69l-.23.16a11.16,11.16,0,0,1-3.48,1.38,23.34,23.34,0,0,1-5.95.7l-1,0A13.38,13.38,0,0,1,86.25,71c-.68-.13-1.36-.28-2-.43a20.63,20.63,0,0,1-4.4-1.45,19.9,19.9,0,0,1-3.63-2.41,19.41,19.41,0,0,1-3.33-3.2,13.76,13.76,0,0,1-2.43-4.66,2.45,2.45,0,0,1-.08-1.17l.06-.22a1.47,1.47,0,0,1,1.51-1,1.36,1.36,0,0,1,.46.12,1.87,1.87,0,0,1,.53-.2,4,4,0,0,1,1.14,0,4.7,4.7,0,0,0,.53,0c.24,0,.47-.07.71-.12a16.9,16.9,0,0,0,1.9-.63,16.29,16.29,0,0,0,1.74-.83A13.91,13.91,0,0,0,80.25,54c.36-.27.7-.55,1-.84a4.91,4.91,0,0,1,1.24-.93,2.15,2.15,0,0,1,1.74,0l.65.28c.83.37,1.65.74,2.49,1.09.59.25,1.18.5,1.76.78a16.17,16.17,0,0,1,1.44.83l.2.12a18,18,0,0,1,2,1.38c.52.44,1,.91,1.54,1.38A19.94,19.94,0,0,1,96,59.81a21.85,21.85,0,0,1,1.47,2A27.66,27.66,0,0,1,99.65,65.69Z" fill="#6dbda9"/>
            <path d="M69.49,57.94a10.44,10.44,0,0,1,0,3.82A9.26,9.26,0,0,1,69,63.69a17.57,17.57,0,0,1-.9,1.91,14.71,14.71,0,0,1-1.23,1.87A11.26,11.26,0,0,1,65.42,69c-.28.24-.56.48-.85.71A24.43,24.43,0,0,1,61.09,72c-.61.34-1.23.66-1.86,1a27.89,27.89,0,0,1-3.65,1.32,29,29,0,0,1-4,1,14.38,14.38,0,0,1-2.26.2,8,8,0,0,1-2.56-.39,5.35,5.35,0,0,1-.81-.35,2.33,2.33,0,0,1-.64-.56,2.07,2.07,0,0,1-.43-1.6,9.27,9.27,0,0,1,.57-2.06c.23-.63.48-1.25.74-1.87s.55-1.31.88-1.93.73-1.27,1.12-1.88a35.46,35.46,0,0,1,2.21-3.19c.78-1,1.63-1.92,2.5-2.83.46-.48.92-1,1.4-1.42a3.83,3.83,0,0,1,.79-.58,2.84,2.84,0,0,1,1.8-.12c1,.17,2.06.41,3.1.58a36.75,36.75,0,0,0,4.42.53h0a10.11,10.11,0,0,0,1.1,0h0l.16,0h-.11l.93-.11a1.41,1.41,0,0,1,.62-.94,1.47,1.47,0,0,1,1.62,0,1.77,1.77,0,0,1,.65,1.05C69.46,57.83,69.48,57.88,69.49,57.94Z" fill="#6dbda9"/>
            <path d="M101.68,120.51a3.22,3.22,0,0,1-1.3-.27,2,2,0,0,1-.88-.91,3.28,3.28,0,0,1-.26-1.39c0-1.15,0-2.3.05-3.45a36.71,36.71,0,0,1,.43-4.19c.23-1.5.47-3,.73-4.52.13-.73.25-1.46.44-2.17s.42-1.48.66-2.21c.44-1.41,1-2.78,1.51-4.17a12.39,12.39,0,0,1,2.78-4.8,2,2,0,0,1,2.12-.57,1.86,1.86,0,0,1,1.11,1.28v0a6.48,6.48,0,0,1,1.78-.9,32.78,32.78,0,0,1,4.19-1.21,4.81,4.81,0,0,1,.65-.08,1.31,1.31,0,0,1,1.06.43,3.11,3.11,0,0,1,1-1.67,2,2,0,0,1,2,.07,6.65,6.65,0,0,1,1.59,1.2A6.88,6.88,0,0,1,123,93.46a6.24,6.24,0,0,1,.35,2.31v-.09a.86.86,0,0,1,0,.16v0a7.66,7.66,0,0,1-3,5.71,10.8,10.8,0,0,1-4,1.54,12.33,12.33,0,0,1-4,.07,3.72,3.72,0,0,1,.06,1c0,.36-.06.72-.09,1.08-.07.63-.11,1.26-.16,1.9-.11,1.46-.23,2.91-.32,4.37s-.26,3-.36,4.45a4.89,4.89,0,0,0,0,.54v0c0,.1,0,.21,0,.31,0,1.23.15,3.07-1.33,3.47a5,5,0,0,1-1.64,0h-.13c-.79,0-1.57,0-2.36.1s-1.31.11-2,.14l-.82,0C102.65,120.56,102.17,120.54,101.68,120.51Z" fill="#98d7c3"/>
            <path d="M97.2,111.85c-.08-.66-.16-1.32-.21-2a1.25,1.25,0,0,1-.17-.49,6.13,6.13,0,0,1,.08-1.48c0-.18,0-.36,0-.55,0-.8.09-1.6.17-2.39,0-.33.06-.66.11-1a6.49,6.49,0,0,1,.3-1.58,1.35,1.35,0,0,1,.4-.57v0c.14-.81.5-1.75,1.44-1.89a1.64,1.64,0,0,1,1.76.94c.1.18.19.36.28.54a1.44,1.44,0,0,1-.69,1.9l0,0c-.11.9-.19,1.79-.32,2.68-.08.61-.16,1.21-.25,1.81,0,.3-.08.6-.13.9,0,0,0,.1,0,.15,0,.91.07,1.82.15,2.72a1.45,1.45,0,0,1-1.2,1.48.93.93,0,0,1-.23,0A1.45,1.45,0,0,1,97.2,111.85Z" fill="#98d7c3"/>
            <path d="M105.58,170.64a3.61,3.61,0,0,1,.45,1.9,4.09,4.09,0,0,1-1.3,2.38,14.22,14.22,0,0,1-3.29,2.41,24,24,0,0,1-4,1.74,26.74,26.74,0,0,1-4.5,1,15.12,15.12,0,0,1-2,.13,18.5,18.5,0,0,1-2.78-.22,12.78,12.78,0,0,1-2.35-.57,3.41,3.41,0,0,1-1.21-.66,3.15,3.15,0,0,1-.62-.84,5.29,5.29,0,0,1-.43-1.21L83.15,175s0,0,0,.05c-.43-1.8-.8-3.61-1.2-5.41-.2-.93-.41-1.85-.58-2.77s-.33-1.8-.54-2.69-.51-2.07-.74-3.11c-.13-.57-.24-1.13-.34-1.69a7.14,7.14,0,0,1-.12-2.21A3,3,0,0,1,80.92,155a2.49,2.49,0,0,1,1.24-.4,2,2,0,0,1,1.33.41,1.69,1.69,0,0,1,1.29.4l.38.32c-.27-1-.56-1.95-.82-2.93s-.46-1.73-.71-2.59l-.42-1.5a2.65,2.65,0,0,1-.14-1.75,1.62,1.62,0,0,1,1.62-1,2.05,2.05,0,0,1,1,.42,3,3,0,0,0,.4.21l.34.13.38.08a2.85,2.85,0,0,0,.4,0,8.44,8.44,0,0,0,1-.05c.52-.06,1-.15,1.54-.26a6.13,6.13,0,0,0,.61-.18l.43-.2a12.7,12.7,0,0,0,1.25-.81c.4-.31.8-.63,1.18-1a10.41,10.41,0,0,0,.71-.78c.12-.16.22-.32.33-.48.32-.61.55-1.34,1.23-1.66a1.57,1.57,0,0,1,1.84.41,2.74,2.74,0,0,1,.45,1.82c0,.58,0,1.16,0,1.74,0,1.71,0,3.45.09,5.16a2.64,2.64,0,0,1,0,.29,27.79,27.79,0,0,0,.57,3.26,1.05,1.05,0,0,0,.05.19l.08-.05a1.6,1.6,0,0,1,1.57-.07,1.87,1.87,0,0,1,.85,1.19c.06.25.13.5.17.75.11.58.2,1.17.34,1.74.2.77.44,1.54.67,2.31.27.94.52,1.9.79,2.84a60.16,60.16,0,0,0,1.84,5.9C105.05,169.47,105.32,170.05,105.58,170.64Z" fill="#e76d49"/>
            <path d="M86.31,148.08a20.86,20.86,0,0,1-4-.81c-1.42-.41-2.82-.84-4.22-1.28s-3-.9-4.45-1.39a41.49,41.49,0,0,1-4.49-1.84,35.72,35.72,0,0,1-3.73-2.07,29.32,29.32,0,0,1-7-6.12,41.54,41.54,0,0,1-2.88-3.95,32.59,32.59,0,0,1-3.85-8.07,38,38,0,0,1-1-4.44,83.23,83.23,0,0,1-1-8.62v.2c-.18-2.37-.27-4.75-.27-7.12,0-1.21,0-2.43.09-3.63A30.21,30.21,0,0,1,50,95.38a51.34,51.34,0,0,1,2.49-8.23c.47-1.27.94-2.54,1.4-3.82s1-2.77,1.56-4.11C56,78,56.6,76.88,57.19,75.73s1.25-2.37,1.93-3.53a24.27,24.27,0,0,1,1.62-2.5,6.25,6.25,0,0,1,2-1.82A5.3,5.3,0,0,1,66,67.62a29.69,29.69,0,0,1,4.13,1.13h0l-.07,0a7,7,0,0,1,2.57,1.32A4.75,4.75,0,0,1,73.88,72c.31.85.5,1.74.77,2.6.42,1.37.88,2.72,1.34,4.07s1,2.87,1.43,4.31.82,2.79,1.29,4.17a37.88,37.88,0,0,0,1.77,4A32.84,32.84,0,0,0,82.4,94.3a77.18,77.18,0,0,0,5.84,7.4l-.13-.14c.71.79,1.45,1.54,2.19,2.29a21.22,21.22,0,0,1,1.88,2,39.76,39.76,0,0,1,2.94,4.8,59.85,59.85,0,0,1,4.18,8.55c.53,1.49,1,3,1.37,4.56.21.76.42,1.52.6,2.29a7.4,7.4,0,0,1,.23,2.48,26.55,26.55,0,0,1-.8,4.14,30.45,30.45,0,0,1-1.58,4.44,38.39,38.39,0,0,1-2.24,4.32,10.36,10.36,0,0,1-.78,1.13,1.65,1.65,0,0,1,.19.73,1.68,1.68,0,0,1-.46,1.12l-.24.26a7.53,7.53,0,0,1-2.34,1.74c-.5.22-1,.38-1.54.55s-1.12.4-1.68.56a11.3,11.3,0,0,1-3.19.55Zm-25-14.9h0a29.69,29.69,0,0,0,2.38,2.38,30.74,30.74,0,0,0,2.49,1.89,35.35,35.35,0,0,0,3.6,2.16,41.39,41.39,0,0,0,4.39,1.88c1.88.63,3.78,1.22,5.68,1.8l2.74.82c.77.23,1.55.46,2.34.63a15.21,15.21,0,0,0,1.63.23h.5a7.32,7.32,0,0,0,.8-.11,19,19,0,0,0,2.08-.6l-.19.07.53-.19-.06,0,1.32-.45-.19.06a5.18,5.18,0,0,0,.65-.26,2.88,2.88,0,0,0,.38-.22c.13-.09.27-.2.4-.31h0a1.43,1.43,0,0,1,.57-1.77l.21-.16.21-.22a4,4,0,0,0,.35-.46,28.58,28.58,0,0,0,1.62-2.92.89.89,0,0,1-.08.17,37.85,37.85,0,0,0,1.64-3.82,31.34,31.34,0,0,0,.92-3.32s0,0,0,0l0-.12v0h0c.14-.75.27-1.51.34-2.27v-.22q0-.39-.12-.78c-.25-1.1-.55-2.18-.85-3.27s-.63-2.21-1-3.3a38.65,38.65,0,0,0-1.75-4.07c-.74-1.44-1.52-2.86-2.31-4.27s-1.41-2.57-2.22-3.79a9.5,9.5,0,0,0-.78-1c-.69-.78-1.44-1.5-2.17-2.24-.89-.92-1.74-1.87-2.57-2.85A68,68,0,0,1,79.32,95c-.38-.58-.76-1.15-1.09-1.76s-.62-1.2-.91-1.81A33.18,33.18,0,0,1,76,88.23c-.52-1.44-.92-2.91-1.37-4.37s-.93-2.89-1.43-4.32-.92-2.73-1.35-4.1c-.25-.77-.43-1.56-.68-2.33L71,72.74l-.15-.24-.15-.2-.08-.08-.23-.17a1.71,1.71,0,0,0-.23-.13,7.77,7.77,0,0,0-.8-.31l-.5-.17a26.64,26.64,0,0,0-3.18-.86,8,8,0,0,0-1-.13h-.29l-.14,0-.07,0-.07,0a.41.41,0,0,0-.11.07,1.3,1.3,0,0,0-.23.18,4.17,4.17,0,0,0-.37.36c-.28.34-.54.7-.79,1.06C62,73.09,61.46,74,61,75c-.69,1.3-1.37,2.6-2,3.91l0-.06c-.45.93-.87,1.86-1.23,2.82s-.81,2.2-1.2,3.31c-.72,2-1.5,4-2.21,6.09h0a45.34,45.34,0,0,0-1.39,5.39c-.17.92-.3,1.84-.38,2.77-.1,1.78-.08,3.58-.05,5.37s.11,3.32.22,5h0s0,.1,0,.16h0a76,76,0,0,0,1.17,9.13c0-.07,0-.13-.05-.2a31,31,0,0,0,1,3.55h0l0,.09v0h0c.2.56.41,1.14.64,1.69s.5,1.13.78,1.69a40.22,40.22,0,0,0,2.51,4.18,33.73,33.73,0,0,0,2.42,3.18l.06.07-.08-.08Z" fill="#110802"/>
            <path d="M95.17,142.32a1.43,1.43,0,0,1-.43-1.68h0a1,1,0,0,1,.07-.15,3.08,3.08,0,0,1,.56-.73,4.84,4.84,0,0,1,2-.92c.65-.19,1.31-.35,2-.54s1.14-.35,1.71-.54c.73-.27,1.46-.56,2.16-.9a9.85,9.85,0,0,0,.89-.52,16.78,16.78,0,0,0,1.53-1.26,15.47,15.47,0,0,0,1.12-1.17c.49-.54,1-1.06,1.49-1.61a23.54,23.54,0,0,0,1.7-2.27,35.15,35.15,0,0,0,2-3.78c.42-.84.87-1.66,1.3-2.49.13-.27.25-.55.37-.82a1.48,1.48,0,0,1,2.73,1.14c-.29.73-.66,1.41-1,2.11s-.8,1.58-1.2,2.37a30.41,30.41,0,0,1-1.71,3.12,25.89,25.89,0,0,1-2.26,3c-.45.5-.94,1-1.39,1.5a16.77,16.77,0,0,1-1.26,1.27,17.55,17.55,0,0,1-2.05,1.59,18.65,18.65,0,0,1-3.86,1.68c-1.37.46-2.79.75-4.15,1.21l-.15.06,0,0-.21.23h0a1.45,1.45,0,0,1-1.88.12Z" fill="#110802"/>
            <path d="M99.91,122.82a2.47,2.47,0,0,1-1.61-.39l0,0a1.43,1.43,0,0,1,.09-2.37,1.49,1.49,0,0,1,.74-.2c.48,0,1,0,1.45,0,1.11,0,2.2-.07,3.31,0s2.34,0,3.5,0a7.89,7.89,0,0,0,4.4.72,9.34,9.34,0,0,0,4.48.35,8,8,0,0,0,2.5-.85,6.55,6.55,0,0,0,2.13,1.06,9.94,9.94,0,0,0,2.62.38h.34c.13.12.26.24.4.35-1.6.09-3.2.18-4.8.29-2.84.19-5.68.32-8.52.49-1.29.07-2.59.16-3.88.2-.6,0-1.2,0-1.8,0s-1.46,0-2.19-.06c-1,0-1.94.07-2.92.07Z" fill="#110802"/>
            <path d="M51.11,122.48c-.49,0-1,0-1.48-.07-1.23,0-2.45-.09-3.69-.09s-2.46,0-3.69,0c.1-1,.18-1.93.19-2.9l2.44,0c2,0,3.93,0,5.9.17.28,0,.57,0,.85,0l.13,0h0a1.22,1.22,0,0,1,.43.2,1.55,1.55,0,0,1,.47.55l0,.07h0a1.47,1.47,0,0,1,.12.55,1.58,1.58,0,0,1,0,.38h0v0a1.43,1.43,0,0,1-1,1h0s0,0,0,0a2,2,0,0,1-.57.1Z" fill="#110802"/>
            <path d="M114.48,124.13a1.44,1.44,0,0,1-.27-2,6.52,6.52,0,0,1,1-1.15,10.37,10.37,0,0,0,1.09-.12,1.7,1.7,0,0,0,.31-.06,1.45,1.45,0,0,1,.88,1.3,1.47,1.47,0,0,1-.52,1.11c-.17.21-.34.44-.52.65a1.54,1.54,0,0,1-1.15.55A1.39,1.39,0,0,1,114.48,124.13Z" fill="#110802"/>
            <path d="M97.6,156.54a1.44,1.44,0,0,1-1-1.57q.08-.5.12-1c0-.91,0-1.83,0-2.74s0-2,0-3c0-2,.09-4.07,0-6.1a2.66,2.66,0,0,0,0-.28,1.44,1.44,0,0,1-.13-.58A1.38,1.38,0,0,1,97.2,140l-.08,0a1.47,1.47,0,0,1,.34-.15,1.49,1.49,0,0,1,1.31.25,1.78,1.78,0,0,1,.62,1.26,19.76,19.76,0,0,1,.14,2.17c0,1.5,0,3,0,4.52s0,2.76.06,4.14a10.31,10.31,0,0,1-.25,3.28A1.48,1.48,0,0,1,98,156.59,1.64,1.64,0,0,1,97.6,156.54Z" fill="#110802"/>
            <path d="M84.14,157.25c-.15-.46-.24-.93-.36-1.4l-.6-2.44c-.25-1-.5-2-.77-3-.22-.81-.43-1.63-.69-2.43v0h0a1.4,1.4,0,0,1-.57-1.1,1.44,1.44,0,0,1,.24-.79,1.84,1.84,0,0,1,.57-.54,1.49,1.49,0,0,1,1.18-.18,1.79,1.79,0,0,1,1.11,1.06,15,15,0,0,1,.68,2.09c.19.69.39,1.38.57,2.07.34,1.25.66,2.51,1,3.77a16.35,16.35,0,0,1,.48,2.29,1.47,1.47,0,0,1-1.22,1.63l-.21,0A1.51,1.51,0,0,1,84.14,157.25Z" fill="#110802"/>
            <path d="M82.34,158.76a1.43,1.43,0,0,1,.92-2.7c.51.15,1,.29,1.52.4a21.32,21.32,0,0,0,2.25.3,19.46,19.46,0,0,0,2.16,0c.73-.06,1.45-.14,2.17-.27s1.34-.26,2-.4h0c.61-.14,1.23-.27,1.83-.43s1.14-.26,1.69-.45l.37-.15a1.41,1.41,0,0,1,2.55,1h0v-.18a2,2,0,0,1-1.1,1.64,7.63,7.63,0,0,1-2,.72,41.61,41.61,0,0,1-7.65,1.44c-.43,0-.86,0-1.29,0A15.49,15.49,0,0,1,82.34,158.76Z" fill="#110802"/>
            <path d="M82.48,171.77c-.85-2.26-1.41-4.61-2.18-6.9-.18-.49-.38-1-.6-1.45-.35-.67-.75-1.3-1.1-2a7.23,7.23,0,0,1-1-4.22,5.26,5.26,0,0,1,1.49-3.14,5,5,0,0,1,3.46-1.44A6.25,6.25,0,0,1,85,153h0a1.28,1.28,0,0,1,.24.11,1.43,1.43,0,0,1,.15,2.34,1.48,1.48,0,0,1-1.29.25c-.1,0-.19-.06-.29-.09l-.36,0a6.76,6.76,0,0,0-.9,0l-.38.05-.24.07-.18.08-.31.17-.2.16-.17.17-.12.15a2,2,0,0,0-.14.25l-.15.35a2.34,2.34,0,0,0-.09.38,2.87,2.87,0,0,0,0,.31,2.17,2.17,0,0,0,0,.26c0,.21,0,.42.08.62s.1.35.16.53.22.5.35.75v0h0l0,0c.38.73.82,1.44,1.2,2.18h0v0l0,.06a26.68,26.68,0,0,1,1.53,4.29c.43,1.45.86,2.89,1.33,4.32a1.47,1.47,0,0,1-1,1.8,1.57,1.57,0,0,1-.37.05A1.45,1.45,0,0,1,82.48,171.77Z" fill="#110802"/>
            <path d="M103.73,171.08a16.88,16.88,0,0,1-.67-3.06c-.17-1.06-.33-2.12-.5-3.17-.32-2-.57-4-1-6l0-.07a.24.24,0,0,0,0-.08s0,0,0,0a2,2,0,0,1,0-.24h0c-.15-.65-.31-1.3-.51-1.93-.12-.33-.25-.65-.4-1-.09-.15-.17-.3-.27-.44l-.12-.16-.27-.26-.14-.12-.12-.06-.36-.15-.47-.13-.17,0h-.45a1.74,1.74,0,0,1-.39-.05h0l-.06,0h0l-.2-.08a1.17,1.17,0,0,1-.51-.4,1.41,1.41,0,0,1,.85-2.26,3.57,3.57,0,0,1,1.08,0,5.18,5.18,0,0,1,2.91,1.23,8.6,8.6,0,0,1,2.26,4.43c.33,1.4.62,2.83.83,4.25s.45,3,.69,4.51c.22,1.34.38,2.69.65,4l.09.34a1.43,1.43,0,0,1-1,1.75,1.15,1.15,0,0,1-.37.06A1.42,1.42,0,0,1,103.73,171.08Z" fill="#110802"/>
            <path d="M83.86,178.12a3.47,3.47,0,0,1-.59-1.28c-.13-.5-.23-1-.33-1.5-.24-1.21-.44-2.43-.68-3.64a39.42,39.42,0,0,0-1.33-4.63l.06.18a2.41,2.41,0,0,1-.25-1.2,1.41,1.41,0,0,1,2.76-.21,0,0,0,0,0,0,0,35.71,35.71,0,0,1,1.6,5.25c.33,1.52.57,3.07.89,4.6a6.66,6.66,0,0,0,.19.77l0,0A1.41,1.41,0,0,1,85,178.66,1.55,1.55,0,0,1,83.86,178.12Z" fill="#110802"/>
            <path d="M89.92,135.32a1.42,1.42,0,1,1,1.43,1.41A1.43,1.43,0,0,1,89.92,135.32Z" fill="#110802"/>
            <path d="M87.1,141a1.42,1.42,0,1,1,1.43,1.4A1.42,1.42,0,0,1,87.1,141Z" fill="#110802"/>
            <path d="M82.93,133.13a1.42,1.42,0,1,1,1.44,1.4A1.43,1.43,0,0,1,82.93,133.13Z" fill="#110802"/>
            <path d="M78.68,138.15a1.45,1.45,0,0,1,1.41-1.43,1.42,1.42,0,1,1-1.41,1.43Z" fill="#110802"/>
            <path d="M68.6,134.37a1.42,1.42,0,1,1,1.44,1.4A1.43,1.43,0,0,1,68.6,134.37Z" fill="#110802"/>
            <path d="M60.67,124.78a1.41,1.41,0,0,1,1.39-1.42,1.41,1.41,0,1,1-1.39,1.42Z" fill="#110802"/>
            <path d="M56.54,115.48a1.43,1.43,0,1,1,1.44,1.4A1.44,1.44,0,0,1,56.54,115.48Z" fill="#110802"/>
            <path d="M64.24,130a1.42,1.42,0,1,1,1.43,1.4A1.42,1.42,0,0,1,64.24,130Z" fill="#110802"/>
            <path d="M75.93,133.55a1.42,1.42,0,1,1,1.43,1.4A1.44,1.44,0,0,1,75.93,133.55Z" fill="#110802"/>
            <path d="M92.12,129.89a1.42,1.42,0,1,1,1.44,1.41A1.43,1.43,0,0,1,92.12,129.89Z" fill="#110802"/>
            <path d="M91.24,120.06a1.43,1.43,0,0,1,2.85,0,1.43,1.43,0,0,1-2.85,0Z" fill="#110802"/>
            <path d="M112.32,121.29a1.44,1.44,0,0,1-1.23-.72q.38,0,.75-.06a8.43,8.43,0,0,0,1.5.37,1.5,1.5,0,0,1-1,.41Z" fill="#110802"/>
            <path d="M111.18,121.55h-.34a10,10,0,0,1-2.6-.5,6.63,6.63,0,0,1-2.08-1.16,8.11,8.11,0,0,1-2.54.75,9.37,9.37,0,0,1-4.46-.55,7.85,7.85,0,0,1-2.85-.29q-.12-.31-.27-.63c1,0,2,0,3.06,0,2.89,0,5.77-.06,8.67-.13,1.39,0,2.78,0,4.18-.06s2.65,0,4,0h0l1.25-.05h.19l1.48,0h0c3.22-.11,6.43-.14,9.65-.24h.4v-.85c0-.64,0-1.28.05-1.93.05-1.25.16-2.51.29-3.76h0c.17-1.7.37-3.41.55-5.11,0-.23,0-.45.07-.68q.36-3.51.48-7c.1-2.88.12-5.77.17-8.66.05-3,.07-6.11.08-9.16,0-6.13,0-12.27,0-18.41,0-3,.06-6.06.1-9.09s0-6-.07-8.94h0v0h0c-.05-1.42-.1-2.85-.2-4.27a19.42,19.42,0,0,0,2.75,0l.22,0c0,.45.06.9.09,1.35.05,1,.11,2,.14,3v-.2q.12,4,.09,8c0,3-.11,6.06-.11,9.08s0,6.25,0,9.38c0,6.07,0,12.15-.07,18.23q-.06,4.32-.16,8.66c-.07,3-.29,6.07-.61,9.11a1.23,1.23,0,0,1,0-.2c-.19,1.8-.4,3.59-.59,5.39-.12,1.25-.22,2.49-.26,3.74,0,1.07,0,2.15-.06,3.23a2.28,2.28,0,0,1-.63,1.42,2.26,2.26,0,0,1-1.33.57,18,18,0,0,1-2.08.09c-2.06.06-4.13,0-6.19.11h0l-4.07.13h-.39l-2.16.06-3.47,0C111.43,121.81,111.3,121.68,111.18,121.55Z" fill="#110802"/>
            <path d="M129.25,111.86a.78.78,0,0,0,0,.16A.78.78,0,0,1,129.25,111.86Z" fill="#110802"/>
            <path d="M103.58,120.47a2.53,2.53,0,0,1,.36.12l-.32,0a10.09,10.09,0,0,1-1.09.06A1.31,1.31,0,0,1,103.58,120.47Z" fill="#110802"/>
            <path d="M114.38,104.25c-.36,0-.72,0-1.07-.09a11.79,11.79,0,0,1-4.11-1.4,7,7,0,0,1-3.31-3.37A6.37,6.37,0,0,1,106,95a9.88,9.88,0,0,1,.47-1,7.15,7.15,0,0,1,.72-1.07,6.3,6.3,0,0,1,1.64-1.36,7.42,7.42,0,0,1,2.85-1.1,10.69,10.69,0,0,1,2.88-.05,7.52,7.52,0,0,1,2.9.84,2,2,0,0,1,1.11,1.54,1.42,1.42,0,0,1-2.55,1l-.15-.07-.69-.22a8.52,8.52,0,0,0-.88-.16c-.36,0-.71-.06-1.06-.07a8.26,8.26,0,0,0-1,.09c-.19,0-.39.07-.58.12s-.42.15-.63.24-.39.19-.59.3-.33.22-.48.34-.31.27-.46.41a2.09,2.09,0,0,0-.14.17c-.1.13-.19.27-.28.4s-.17.36-.25.55-.11.3-.15.46-.09.45-.13.67,0,.29,0,.44a3.91,3.91,0,0,0,0,.49c0,.08,0,.16,0,.23s.09.27.15.4v0l.21.32c.17.2.36.39.54.58l.42.34.49.31c.44.24.9.46,1.37.66s.67.24,1,.35.81.16,1.22.22a8.77,8.77,0,0,0,1,0c.57,0,1.13-.09,1.7-.16s1.29-.28,1.92-.46c.31-.09.61-.19.91-.31a6.19,6.19,0,0,0,.57-.3l.47-.32c.11-.09.22-.18.32-.28l.33-.41c.1-.14.19-.29.28-.44.2-.38.38-.77.55-1.16.08-.21.15-.41.21-.63,0-.07,0-.15,0-.24a5.63,5.63,0,0,0,0-.58c0-.35,0-.7-.08-1a1.46,1.46,0,0,1,1.32-1.56,1.47,1.47,0,0,1,1.57,1.32,8.12,8.12,0,0,1,0,2.36,9.55,9.55,0,0,1-.72,2.13,7.3,7.3,0,0,1-2.61,3.2,12,12,0,0,1-4,1.49,13.82,13.82,0,0,1-3,.34Z" fill="#110802"/>
            <path d="M115.21,91.12c-.07-1.07-.15-2.13-.31-3.18a10.4,10.4,0,0,0-.25-1.26l-.12-.38a.05.05,0,0,1,0,0,.1.1,0,0,1,0-.05l0,0h0l0,0h0l-.1,0-.19,0h-.28l-.34,0c-.13,0-.27.05-.39.09a.85.85,0,0,0-.17.06l-.12.06,0,0a.46.46,0,0,1-.07.07l-.07.08,0,.09a.91.91,0,0,0-.07.14c0,.11-.07.22-.1.32a8,8,0,0,0-.19,1.09v0a1.49,1.49,0,0,0,0,.21,12.56,12.56,0,0,0-.08,1.62v.42a.36.36,0,0,1,0,.11,1.53,1.53,0,0,1,.09.56,4.75,4.75,0,0,1-.14.54,1.38,1.38,0,0,1-1.34.81h-.06a1.59,1.59,0,0,1-1.14-.64,2.51,2.51,0,0,1-.34-1.52,13.86,13.86,0,0,1,.43-4.06,3.84,3.84,0,0,1,1.87-2.42,5.3,5.3,0,0,1,2.66-.53,3.54,3.54,0,0,1,2.48,1.12,6.27,6.27,0,0,1,1.16,3.31s0,0,0,0a20.77,20.77,0,0,1,.31,3.53,1.45,1.45,0,0,1-1.32,1.36h-.11A1.46,1.46,0,0,1,115.21,91.12Z" fill="#110802"/>
            <path d="M112.17,88.1s0,0,0,0S112.17,88.11,112.17,88.1Z" fill="#110802"/>
            <path d="M113.17,84.94h0a1.42,1.42,0,0,1-1.33-1.48v.17a20.23,20.23,0,0,1,.17-2c0-.41.08-.83.12-1.23,0-.09,0-.19,0-.28L112,80c-.51-.32-1-.67-1.53-1h0a14.42,14.42,0,0,1-1.69-1,5.7,5.7,0,0,1-1.6-1.82,7.93,7.93,0,0,1-.73-2c-.19-.79-.28-1.61-.39-2.41a42.42,42.42,0,0,1-.39-6.47c0-.72,0-1.45.07-2.18,0-.28,0-.56,0-.84a2.55,2.55,0,0,1,.7-1.63,2.51,2.51,0,0,1,1.56-.59,13.67,13.67,0,0,1,1.81,0c1.26.09,2.51.27,3.76.33.57,0,1.14.06,1.72,0s1.25,0,1.89-.06c1.58,0,3.61.14,4.18,1.93a8.19,8.19,0,0,1,.28,1.84q.08.91.09,1.83c0,1.4,0,2.8,0,4.2v0a.09.09,0,0,0,0,0v.13h0v.12a24.26,24.26,0,0,1-.13,4.34,4.41,4.41,0,0,1-.64,1.75,5.14,5.14,0,0,1-1,1,16.42,16.42,0,0,1-1.7,1.28,15.72,15.72,0,0,1-1.83.93,5.2,5.2,0,0,1-1.6.53c-.07.91-.16,1.83-.27,2.73a.25.25,0,0,1,0-.08c0,.25-.06.5-.1.74v-.1a1.42,1.42,0,0,1-1.39,1.25Zm-1.94-8.85c.51.28,1,.56,1.5.87s.76.52,1.16.76a1.49,1.49,0,0,1,.43-.17h.06a10.86,10.86,0,0,0,1.06-.45h0a14.54,14.54,0,0,0,1.37-.68c.46-.3.9-.63,1.33-1l0,0s0,0,0,0l0,0,.37-.32.14-.16a.05.05,0,0,1,0,0s0,0,0,0a.66.66,0,0,1,0-.15c0-.22.08-.44.11-.66v0s0,0,0,0a.59.59,0,0,1,0-.14.29.29,0,0,0,0,.09,17.14,17.14,0,0,0,.07-2v-.14c0-.43,0-.86,0-1.3,0-1.29,0-2.58,0-3.88a1.93,1.93,0,0,1,0-.24,28.41,28.41,0,0,0-.18-2.91l0-.07h0l-.36-.07c-.3,0-.61,0-.92,0h-.21c-1.14,0-2.27.08-3.41,0-1.68-.08-3.36-.34-5-.36,0,.41,0,.81,0,1.21,0,.78,0,1.54,0,2.31a45.25,45.25,0,0,0,.5,5.8c.08.51.17,1,.3,1.52a7.58,7.58,0,0,0,.28.8,1.59,1.59,0,0,0,.15.29l.24.34a2.5,2.5,0,0,0,.22.24l.11.1c.21.14.41.28.63.41l.07,0,.07,0h0A0,0,0,0,1,111.23,76.09Z" fill="#110802"/>
            <path d="M115.47,77.08h0Z" fill="#110802"/>
            <path d="M111.21,76.07Z" fill="#110802"/>
            <path d="M121.86,70.41v0Z" fill="#110802"/>
            <path d="M117.27,60.41h0Z" fill="#110802"/>
            <path d="M117.16,60.41h0Z" fill="#110802"/>
            <path d="M110.89,71.9a1.44,1.44,0,0,1-1.35-1.29,15.41,15.41,0,0,1,0-4.07A1.44,1.44,0,0,1,111,65.39a1.36,1.36,0,0,1,1,.47,1.42,1.42,0,0,1,.37,1c0-.39,0,0,0,.1a1.73,1.73,0,0,1,0,.32c0,.33-.05.66-.05,1,0,.7.08,1.39.14,2.08a1.42,1.42,0,0,1-1.29,1.52Z" fill="#110802"/>
            <path d="M114.36,75.1h0a1.44,1.44,0,0,1-1-.46,1.53,1.53,0,0,1-.37-1V73a71,71,0,0,1,0-7.72,1.41,1.41,0,0,1,1.48-1.33,1.43,1.43,0,0,1,1.34,1.48,39.76,39.76,0,0,0-.12,4.23c0,1.1.06,2.22.08,3.33v.12s0,.07,0,.1a.34.34,0,0,1,0-.1v.66a1.41,1.41,0,0,1-1.41,1.34Z" fill="#110802"/>
            <path d="M115.82,73v0Z" fill="#110802"/>
            <path d="M115.82,73v0Z" fill="#110802"/>
            <path d="M117,71a1.42,1.42,0,0,1-1.37-1.3,10.54,10.54,0,0,1,.09-1.86s0,0,0,.08a1.41,1.41,0,0,1,2.8.26,14.65,14.65,0,0,0-.06,1.48A1.42,1.42,0,0,1,117.14,71H117Z" fill="#110802"/>
            <path d="M124,96.94a1.45,1.45,0,0,1-1.35-1.3c0-.27-.06-.52-.1-.77a6,6,0,0,0-.13-.61c-.06-.17-.12-.35-.19-.51s-.11-.22-.17-.33-.32-.46-.49-.69a6.42,6.42,0,0,0-.55-.62,3.22,3.22,0,0,0-.28-.24,9.74,9.74,0,0,0-1-.6c-.26-.14-.53-.27-.8-.39l-.29-.1c-.18,0-.35-.09-.53-.12h0l-.55,0h0l-.16,0h0a1.41,1.41,0,0,1,.1-2.79l-.15,0,.21,0h0a4.09,4.09,0,0,1,1.35,0,9.41,9.41,0,0,1,.91.25,7.19,7.19,0,0,1,1.38.64l0,0a8.47,8.47,0,0,1,2.06,1.49,9.45,9.45,0,0,1,1.27,1.62,6.94,6.94,0,0,1,1,3.71,1.43,1.43,0,0,1-1.31,1.34H124Z" fill="#110802"/>
            <path d="M121.13,88.8l.08,0Z" fill="#110802"/>
            <path d="M99.16,120.09a6.26,6.26,0,0,1-.75,0,1.47,1.47,0,0,1-.17-.56,10.44,10.44,0,0,1,0-1.25c0-.48,0-1,.08-1.46l.18-3.72c.14-2.8.41-5.6.79-8.37a35.8,35.8,0,0,1,2.05-8.49,15.44,15.44,0,0,1,2.22-4,10,10,0,0,1,3.21-2.71,12.64,12.64,0,0,1,1.42-.61c.16-.06.32-.1.48-.15a1,1,0,0,1,.24-.17l-.06,0a1.42,1.42,0,0,1,2,.56,1.56,1.56,0,0,1-.77,2.09,5.21,5.21,0,0,1-.66.24c-.36.13-.72.28-1.07.43l-.52.27a7,7,0,0,0-.65.46c-.29.24-.56.5-.83.77h0l0,0h0l-.06,0,0,0c-.2.23-.39.45-.57.68s-.47.69-.68,1a18.91,18.91,0,0,0-1,2,29.85,29.85,0,0,0-1,3.17v0l0,.13s0,0,0-.07a46,46,0,0,0-.93,5.09c-.3,2.64-.55,5.28-.66,7.93-.06,1.21-.09,2.42-.15,3.63a24.28,24.28,0,0,1-.21,2.57,1.42,1.42,0,0,1-.47.82A9.43,9.43,0,0,1,99.16,120.09Z" fill="#110802"/>
            <path d="M103.08,100.4h0Z" fill="#110802"/>
            <path d="M103.08,100.4h0Z" fill="#110802"/>
            <path d="M103.08,100.39h0Z" fill="#110802"/>
            <path d="M106.31,93.52l0,0Z" fill="#110802"/>
            <path d="M111,121.43c-1.47-.09-1.49-1.73-1.33-2.84.17-2.3.38-4.59.66-6.88,0,0,0,.05,0,.07.31-2.59.77-5.15,1.24-7.71a1.55,1.55,0,0,1,1.56-1.6c1.57.12,1.46,1.77,1.14,2.92-.36,2.07-.7,4.17-1,6.25h0a.09.09,0,0,0,0,0v0h0v0h0v0h0v0a.07.07,0,0,0,0,0h0c-.25,2.27-.45,4.56-.6,6.85,0,1.1-.19,2.73-1.6,2.73Z" fill="#110802"/>
            <path d="M113.32,111.64Z" fill="#110802"/>
            <path d="M113.33,111.63h0Z" fill="#110802"/>
            <path d="M132.25,44.08A1.53,1.53,0,0,1,130.83,43a5.81,5.81,0,0,1-.18-1.17c-.06-.6-.07-1.21-.07-1.82s0-1,0-1.52c0-.27-.05-.54-.07-.81-.05-.53-.09-1.07-.1-1.6v-.84a1.26,1.26,0,0,1-.08-.43s0,0,0-.11V34.6a0,0,0,0,0,0,0,1.74,1.74,0,0,1,.07-.29h0l0-.05a1.47,1.47,0,0,1,.32-.46,1.38,1.38,0,0,1,.54-.34,1.4,1.4,0,0,1,.57-.21,1.43,1.43,0,0,1,1.59,1.24,33.29,33.29,0,0,1,.06,3.87c0,.43.09.85.12,1.28.06.78.09,1.55.1,2.32a3,3,0,0,1-.07,1.07,1.49,1.49,0,0,1-1.35,1.09Z" fill="#110802"/>
            <path d="M130.9,35l-.07,0c-.23,0-.47,0-.71-.07l.2,0c-2.92-.2-5.85-.28-8.77-.47-1.45-.09-2.9-.21-4.35-.26s-2.93-.09-4.39-.14c-2.93-.1-5.85,0-8.78-.12s-5.86-.25-8.79-.26c-1.56,0-3.12,0-4.67,0s-3,0-4.58,0c-3,0-6,.06-9,.08l-4.25.05H68.56c-1.33,0-2.65.05-4,0s-2.69,0-4,0c-1.91.14-3.79.38-5.69.5s-3.73.1-5.59.2c-2.18.14-4.36.31-6.54.44-.32,0-.64,0-1,0a1.44,1.44,0,0,1-1.42-1.27,1.46,1.46,0,0,1,1.25-1.62c.67-.1,1.35-.13,2-.18,1-.06,1.91-.13,2.88-.18h-.21c1.33-.08,2.65-.19,4-.24s2.68-.05,4-.12,2.8-.22,4.2-.36a44,44,0,0,1,4.44-.23h8.71c1.52,0,3,0,4.56-.05s3,0,4.51,0,3,0,4.54,0,3.05,0,4.58,0,3.07,0,4.61,0,2.91,0,4.37.09c3,.11,6,.22,9,.23s5.83.11,8.74.19c1.49.05,3,.16,4.46.26s2.91.17,4.36.25c1.65.08,3.3.15,4.94.27h0c1,.08,2.16.17,2.59,1.21l-.08-.17,0,0a1.73,1.73,0,0,1,.16.37,1.41,1.41,0,0,1-.5,1.49,1.49,1.49,0,0,1-.89.3A1.21,1.21,0,0,1,130.9,35Z" fill="#110802"/>
            <path d="M42.83,35h0Z" fill="#110802"/>
            <path d="M130.29,32h0Z" fill="#110802"/>
            <path d="M42.45,122.8a4.25,4.25,0,0,1-2.38-.46,4.05,4.05,0,0,1-1-.9,4.63,4.63,0,0,1-.66-1,6.4,6.4,0,0,1-.47-2.12c-.13-1.3-.18-2.6-.24-3.9s-.08-2.86-.06-4.29c0-2.88.14-5.76.16-8.64,0-1.51,0-3,0-4.55s0-3.13,0-4.7,0-3.19,0-4.79-.05-3-.09-4.52c0-1.92-.07-3.84-.18-5.76-.09-1.51-.21-3-.29-4.51s-.12-3.06-.17-4.59-.12-3-.09-4.56.1-3,.14-4.47.06-2.86.1-4.29.08-2.91,0-4.37-.09-3.05-.12-4.57-.09-2.8,0-4.2c.13-2.28.36-4.55.56-6.82a3.62,3.62,0,0,1,.7-2.24A2.4,2.4,0,0,1,40.47,32h.33a3.83,3.83,0,0,1,2,.35,1.83,1.83,0,0,1,.74.84,1.41,1.41,0,0,1,.06,1,1.44,1.44,0,0,1-1.56,1h0a1.39,1.39,0,0,1-.35-.09,1.82,1.82,0,0,1-.26-.15H40.8c0,.36-.06.73-.09,1.09-.1,1-.19,2.1-.28,3.15l0-.19c-.11,1.35-.2,2.71-.21,4.07,0,.7,0,1.4,0,2.1s0,1.51,0,2.27c0,1.45.12,2.9.12,4.35s0,2.94-.07,4.41,0,2.7-.09,4.06-.12,2.76-.11,4.14.06,2.85.12,4.27.1,2.81.17,4.21.22,3.1.31,4.66v-.22c0,.08,0,.16,0,.24h0v0h0v.06c.09,1.48.11,3,.14,4.44s.11,3.06.12,4.58c0,3.12,0,6.23,0,9.34S41,102,41,105c-.05,2.84-.18,5.67-.06,8.5,0,1,.07,1.89.13,2.84,0-.07,0-.15,0-.22a22.66,22.66,0,0,0,.26,2.6c0,.11.05.22.09.33l0,.07a.41.41,0,0,0,0,.09,3.25,3.25,0,0,0,.23.29l.08.09h0c.43,0,.86,0,1.29,0h0a2.5,2.5,0,0,1,.9.15,1.47,1.47,0,0,1,.89,1.57h0a1.55,1.55,0,0,1-.31.72,2,2,0,0,1-1.18.66,4.73,4.73,0,0,1-.75,0Z" fill="#110802"/>
            <path d="M72.37,50.74a1.46,1.46,0,0,1,1.24-1.61c1.19-.18,2.38-.36,3.56-.58a21.55,21.55,0,0,0,2.1-.54q.86-.32,1.68-.69c.44-.23.86-.47,1.28-.73l.5-.38a12.52,12.52,0,0,0,1-1c.13-.15.25-.31.37-.47a3.26,3.26,0,0,0,.24-.4l.06-.14c.07-.2.12-.38.17-.57l0-.22v-.09a4.43,4.43,0,0,0-.06-.51c0-.06,0-.13,0-.19l-.07-.18-.15-.25a3.68,3.68,0,0,0-.3-.39,6.77,6.77,0,0,0-.59-.61l-.08-.07L83,40.83c-.2-.12-.4-.24-.61-.34A10.93,10.93,0,0,0,81.26,40c-.33-.1-.66-.19-1-.26A18.68,18.68,0,0,0,78,39.44h0a24.71,24.71,0,0,0-2.72,0,11.26,11.26,0,0,0-1.3.16c-.5.1-1,.24-1.48.39h-.07l-.1,0-.07,0,0,0a21.68,21.68,0,0,0-2.21,1l.17-.08A37.93,37.93,0,0,0,66.54,43l-.05,0-.07.06a1.43,1.43,0,0,1-2.1-.42,1.46,1.46,0,0,1,0-1.46,2,2,0,0,1,.74-.68c.55-.37,1.11-.73,1.68-1.06a32.41,32.41,0,0,1,3.81-1.93,14.91,14.91,0,0,1,4.1-1,24.2,24.2,0,0,1,4.34,0,12.84,12.84,0,0,1,4.63,1.24,8.46,8.46,0,0,1,2.08,1.43A6.48,6.48,0,0,1,87.08,41a4.94,4.94,0,0,1,.54,2.7,5.8,5.8,0,0,1-.94,2.63,11.09,11.09,0,0,1-1.54,1.81,9.75,9.75,0,0,1-2,1.47,15.86,15.86,0,0,1-4.42,1.72A42.78,42.78,0,0,1,74,52h-.16A1.44,1.44,0,0,1,72.37,50.74Z" fill="#110802"/>
            <path d="M72.48,40l0,0Z" fill="#110802"/>
            <path d="M52.5,55.34a7.3,7.3,0,0,1-2.09-1.13,7.57,7.57,0,0,1-.88-.82A5.73,5.73,0,0,1,48.48,52a3.48,3.48,0,0,1-.31-2.15,4.68,4.68,0,0,1,.34-1.16,17.26,17.26,0,0,1,1-1.92,14.78,14.78,0,0,1,3.21-3.83,18.85,18.85,0,0,1,7-3.67,13.88,13.88,0,0,1,4.15-.49,15.88,15.88,0,0,1,1.95.18,2.71,2.71,0,0,1,.65.18,1.33,1.33,0,0,1,.55.35h0a1.4,1.4,0,0,1-.86,2.4h-.31l-.22,0c-.28,0-.56-.07-.85-.1h-.06a16.89,16.89,0,0,0-1.74,0c-.57,0-1.12.11-1.68.2a17.12,17.12,0,0,0-1.74.46,20,20,0,0,0-1.85.77c-.6.3-1.17.63-1.74,1s-.93.67-1.37,1-.86.81-1.27,1.25-.53.66-.78,1a17.84,17.84,0,0,0-1,1.63c-.14.3-.28.59-.4.9,0,.1-.06.19-.08.28a1.05,1.05,0,0,0,0,.24v0h0v0l0,.09a1,1,0,0,1,.1.17l.24.3q.3.33.63.63a3.92,3.92,0,0,0,.32.25l.6.35.33.13.69.19h0c.4.08.81.13,1.22.18a12.56,12.56,0,0,0,1.37,0h.17c.72-.06,1.43-.14,2.14-.22l2.16-.22a1.46,1.46,0,0,1,.56,2.85c-.77.17-1.55.28-2.33.39s-1.56.2-2.35.25c-.31,0-.61,0-.92,0A11.48,11.48,0,0,1,52.5,55.34Z" fill="#110802"/>
            <path d="M64.71,41.69h0Z" fill="#110802"/>
            <path d="M56.61,52.77h0Z" fill="#110802"/>
            <path d="M54,52.59Z" fill="#110802"/>
            <path d="M62.73,58.8a36.26,36.26,0,0,1-4.16-.34A5.55,5.55,0,0,1,56.92,58a2,2,0,0,1-1-1.57,3.15,3.15,0,0,1,.81-2.63,1.49,1.49,0,0,1,1.33-.28,1.41,1.41,0,0,1,1.18,1.59,1.44,1.44,0,0,1-.13.43c.74.1,1.49.15,2.23.21h-.06a28.5,28.5,0,0,0,3.33.1A43.4,43.4,0,0,0,70,55.06h.06c1.63-.32,3.25-.71,4.83-1.18.58-.18,1.16-.37,1.74-.53.43-.12.85-.22,1.27-.36a11.46,11.46,0,0,0,1.3-.54l0,0c0-.21.06-.43.08-.64h0a1.53,1.53,0,0,1,1.32-1.47,1.51,1.51,0,0,1,1.68,1.3,5.22,5.22,0,0,1-.27,2,2.64,2.64,0,0,1-1.45,1.41,16.59,16.59,0,0,1-1.75.73l.19-.07c-.68.24-1.38.39-2.06.6-.93.28-1.84.58-2.77.82a62.53,62.53,0,0,1-7.43,1.46,23.28,23.28,0,0,1-3.23.23C63.28,58.82,63,58.82,62.73,58.8Z" fill="#110802"/>
            <path d="M70.06,55.05h0Z" fill="#110802"/>
            <path d="M70.06,55.05Z" fill="#110802"/>
            <path d="M46.15,120.61A1.47,1.47,0,0,1,44.91,119c.05-.48.12-1,.15-1.43v.2a52.65,52.65,0,0,0,0-6.88c-.17-3-.45-5.89-.75-8.82s-.72-6-1-9c-.14-1.42-.29-2.83-.4-4.26s-.24-3-.26-4.5,0-2.87.12-4.3.19-2.93.34-4.39a36.22,36.22,0,0,1,2-8.83A40.47,40.47,0,0,1,47,62.48c.35-.68.71-1.37,1.09-2a9.53,9.53,0,0,1,1.39-1.94,16.06,16.06,0,0,1,2.38-1.89,23,23,0,0,1,2.63-1.52h0a1.4,1.4,0,0,1,2.32.48s0,0,0,0a1.64,1.64,0,0,1-.92,2.06c-.79.41-1.56.84-2.31,1.32s-1.22.89-1.81,1.38l-.33.33c-.11.13-.21.26-.31.4-.52.79-1,1.64-1.41,2.48l-.19.4v0l0,0a43.42,43.42,0,0,0-1.84,4.34,39.34,39.34,0,0,0-1.14,4.26A44.86,44.86,0,0,0,45.8,78a1.21,1.21,0,0,1,0-.19c-.1,1.4-.18,2.8-.23,4.2s0,2.68.06,4c.19,2.91.48,5.79.8,8.67.18,1.51.39,3,.56,4.54s.32,3,.48,4.55c.3,3,.55,5.94.65,8.92,0,1.3,0,2.6,0,3.91a17.33,17.33,0,0,1-.35,3,1.46,1.46,0,0,1-1.43,1.07Z" fill="#110802"/>
            <path d="M49.5,63.89h0Z" fill="#110802"/>
            <path d="M49.52,63.86l0,0Z" fill="#110802"/>
            <path d="M54.47,55.09h0Z" fill="#110802"/>
            <path d="M100.16,104.29a1.44,1.44,0,0,1-1.2-1.61c.11-1,.34-2.06.55-3.07v0L99.87,98h0s0,0,0,0a.19.19,0,0,1,0-.08h0v0h0a0,0,0,0,1,0,0h0v0h0v0h0l0,0s0,0,0,0a.44.44,0,0,1,0-.1v0a46.79,46.79,0,0,0,.84-5.28v0a.76.76,0,0,0,0-.15v0c.13-2,0-4.09,0-6.13,0-2.22-.05-4.44-.17-6.65a64.77,64.77,0,0,0-1-7.85l0,.14A38.67,38.67,0,0,0,98.39,67s0,0,0,0l0-.07,0-.07v0c-.26-.73-.52-1.45-.85-2.15a21.32,21.32,0,0,0-1.34-2.31,19.27,19.27,0,0,0-1.34-1.75l.12.13a41.87,41.87,0,0,0-3.48-3.31l0,0,0,0h0a23,23,0,0,0-2-1.57,14.31,14.31,0,0,0-1.37-.79l.16.08a18.54,18.54,0,0,0-1.82-.83,16.66,16.66,0,0,0-1.71-.48,12.92,12.92,0,0,0-1.39-.2,6.06,6.06,0,0,1-1.71-.14,1.28,1.28,0,0,1-.57-.34h0a1.45,1.45,0,0,1-.4-1.2,1.42,1.42,0,0,1,1.25-1.2h0a1.26,1.26,0,0,1,.61,0l.66,0a12.7,12.7,0,0,1,1.5.15A15.63,15.63,0,0,1,87,51.5a16.61,16.61,0,0,1,2.26,1,15.87,15.87,0,0,1,3,1.87c.82.67,1.6,1.39,2.39,2.09A31.17,31.17,0,0,1,97.17,59l-.12-.14a22.47,22.47,0,0,1,2.32,3.24,20.81,20.81,0,0,1,1.77,4,37.77,37.77,0,0,1,1.09,3.77c.31,1.32.52,2.67.73,4a58.66,58.66,0,0,1,.67,8c0,1.33.07,2.67.08,4s.08,2.81.07,4.22c0,.92,0,1.83-.1,2.74-.05.68-.14,1.36-.24,2-.18,1.18-.4,2.35-.64,3.52a.19.19,0,0,0,0,.07h0c-.15.73-.32,1.46-.48,2.18-.12.56-.25,1.13-.37,1.7-.06.27-.1.55-.15.82a1.45,1.45,0,0,1-1.41,1.22Z" fill="#110802"/>
            <path d="M99.92,97.74v0Z" fill="#110802"/>
            <path d="M100.8,92.17h0Z" fill="#110802"/>
            <path d="M99.9,97.84v0A0,0,0,0,1,99.9,97.84Z" fill="#110802"/>
            <path d="M99.9,97.83h0Z" fill="#110802"/>
            <path d="M99.9,97.83Z" fill="#110802"/>
            <path d="M99.92,97.75a0,0,0,0,1,0,0h0S99.91,97.75,99.92,97.75Z" fill="#110802"/>
            <path d="M100,97.6h0Z" fill="#110802"/>
            <path d="M100,97.59h0Z" fill="#110802"/>
            <path d="M100,97.59Z" fill="#110802"/>
            <path d="M100.8,92.18a.09.09,0,0,1,0,0S100.8,92.2,100.8,92.18Z" fill="#110802"/>
            <path d="M78.11,83.6l-.48-.21-.18,0-.34,0c-.33,0-.66,0-1,0s-.46.06-.69.07a1.42,1.42,0,0,1-.35-2.78l.16,0a7.59,7.59,0,0,1,1.84-.11,4.87,4.87,0,0,1,2.32.64A1.44,1.44,0,0,1,80,82.85a1.48,1.48,0,0,1-1.33.87A1.37,1.37,0,0,1,78.11,83.6Z" fill="#110802"/>
            <path d="M96,83.7c-.18-.19-.34-.4-.51-.6a4.26,4.26,0,0,0-.43-.42,4.78,4.78,0,0,0-.5-.39,7,7,0,0,0-.75-.44,10.93,10.93,0,0,0-1.11-.48l.09,0-.17,0h0a13.92,13.92,0,0,0-1.39-.43l-.38,0a5,5,0,0,0-.55,0q-.64.06-1.29.18a11.57,11.57,0,0,0-1.16.29c-.37.13-.74.27-1.1.43-.2.11-.4.22-.59.34l-.16.12a.94.94,0,0,1-.1.1,1.39,1.39,0,0,1-.46.64,1.42,1.42,0,0,1-1.58.1,1.54,1.54,0,0,1-.67-.89,1.72,1.72,0,0,1,.28-1.39,4.45,4.45,0,0,1,1.77-1.48A13.57,13.57,0,0,1,89.49,78a7.71,7.71,0,0,1,2,0,8.69,8.69,0,0,1,1.67.42A12.49,12.49,0,0,1,96,79.67a7.09,7.09,0,0,1,2.32,2.27A1.48,1.48,0,0,1,98,83.83a1.53,1.53,0,0,1-.9.29A1.4,1.4,0,0,1,96,83.7Z" fill="#110802"/>
            <path d="M92.65,81.34Z" fill="#110802"/>
            <path d="M87.7,104.27a1.44,1.44,0,0,1,1-1.77,5,5,0,0,0,.78-.22h.07a17.61,17.61,0,0,0,1.69-.69c.24-.12.47-.26.71-.4s.33-.25.49-.38l.27-.27.27-.35,0,0,.27-.59c.07-.22.13-.43.19-.65,0,0,0-.1,0-.14s0-.3,0-.44c0-.36-.07-.71-.13-1.06a4.27,4.27,0,0,0-.13-.48,4.73,4.73,0,0,0-.2-.47,2.15,2.15,0,0,0-.14-.26l0,0-.14-.08-.21-.09-.08,0-.14,0a3.68,3.68,0,0,0-.47,0c-.48,0-.95.12-1.42.19-.78.14-1.56.26-2.35.33s-1.86.13-2.78.18a16.69,16.69,0,0,1-2,0h.2a1.87,1.87,0,0,1-1.66-.94l0,.08a1.14,1.14,0,0,1-.15-.36,1.43,1.43,0,0,1,1-1.73,1.48,1.48,0,0,1,1,.08c.67,0,1.33,0,2-.07h0c1.17-.07,2.33-.15,3.49-.32.8-.12,1.61-.3,2.42-.36a6.22,6.22,0,0,1,1.22,0,4.05,4.05,0,0,1,1.4.46,4.58,4.58,0,0,1,2.09,3.37,1.77,1.77,0,0,0,0-.2,7.84,7.84,0,0,1,.17,2.77,6.5,6.5,0,0,1-.56,1.75,5.71,5.71,0,0,1-1.18,1.66,8.71,8.71,0,0,1-1.36,1.06,8.84,8.84,0,0,1-1.37.7,9.78,9.78,0,0,1-2.63.81l-.17,0A1.44,1.44,0,0,1,87.7,104.27Z" fill="#110802"/>
            <path d="M61.33,55.74h-.06c-.64-.05-1.28-.1-1.91-.18.76-.1,1.52-.21,2.28-.38a1.46,1.46,0,0,0-.57-2.85l-2.15.22c-.71.08-1.42.16-2.14.22h-.15a10.75,10.75,0,0,1-1.39,0c-.41,0-.81-.1-1.22-.18-.23,0-.45-.11-.68-.18L53,52.27l-.6-.35-.32-.25q-.33-.3-.63-.63l-.24-.3-.1-.17,0-.09v-.06a2.4,2.4,0,0,1,0-.24c0-.09.05-.18.08-.28.12-.31.26-.6.41-.9a17.64,17.64,0,0,1,.94-1.63c.26-.35.52-.68.79-1s.83-.86,1.27-1.25.89-.71,1.36-1,1.15-.68,1.74-1,1.23-.54,1.86-.77a17.12,17.12,0,0,1,1.74-.46,15.53,15.53,0,0,1,1.67-.2c.4,0,.79,0,1.18,0a1.5,1.5,0,0,0,.16,1.05,1.43,1.43,0,0,0,2.1.41l.07,0a.1.1,0,0,1,.05,0A34.37,34.37,0,0,1,70.17,41l.09,0a18.44,18.44,0,0,1,2-.88h0l.06,0,0,0h0l.06,0a15.22,15.22,0,0,1,1.47-.4,11.41,11.41,0,0,1,1.31-.15,24.7,24.7,0,0,1,2.72,0h0c.75.07,1.49.17,2.23.31.34.08.67.17,1,.27a10.86,10.86,0,0,1,1.11.47l.61.34.35.27.07.06c.21.19.4.4.59.6s.21.26.3.39l.15.26c0,.06,0,.12.07.17l0,.2a4.43,4.43,0,0,1,.06.51v.09l0,.21c0,.19-.11.38-.17.57l-.06.14c-.08.14-.16.28-.24.4s-.24.32-.37.48a14.28,14.28,0,0,1-1,1l-.5.38c-.42.26-.84.5-1.28.73s-1.11.48-1.68.68a21.6,21.6,0,0,1-2.1.55c-1.18.22-2.37.4-3.56.58A1.44,1.44,0,0,0,73.8,52H74a45.6,45.6,0,0,0,4.79-.67l.74-.19a1.61,1.61,0,0,0-.17.65c0,.22,0,.44-.08.65h0a13.31,13.31,0,0,1-1.3.55l-1.28.36c-.58.16-1.15.35-1.73.52A49.17,49.17,0,0,1,70.13,55l-.08,0h0a44.79,44.79,0,0,1-5.42.79c-.26,0-.53,0-.79,0C63,55.86,62.15,55.8,61.33,55.74Z" fill="#fefefe"/>
            <path d="M42.16,119.62h-.42l-.08-.09a3.4,3.4,0,0,1-.23-.3l-.06-.09a.19.19,0,0,0,0-.07,2,2,0,0,1-.09-.33,17.13,17.13,0,0,1-.24-2.38l0-.21c0-.88-.08-1.75-.11-2.62-.12-2.84,0-5.67.06-8.51,0-3,0-6.06.07-9.09s.06-6.22,0-9.33c0-1.53-.09-3.06-.12-4.59s-.06-3-.14-4.43v-.06a.13.13,0,0,1,0-.06,1.7,1.7,0,0,0,0-.22c-.09-1.48-.21-3-.3-4.44s-.12-2.81-.17-4.22-.12-2.84-.12-4.26.06-2.77.11-4.15.07-2.71.09-4.06.08-2.94.07-4.41-.08-2.9-.13-4.35c0-.76,0-1.51,0-2.27s-.05-1.4-.05-2.1c0-1.36.11-2.72.22-4.07l0,.19c.09-1.05.18-2.1.28-3.15,0-.36,0-.72.09-1.09h.36a1.47,1.47,0,0,0,.52.13l0,0a2.12,2.12,0,0,0,.36.1h.08a1.58,1.58,0,0,0,.81-.18c2.09-.12,4.2-.28,6.31-.41,1.86-.1,3.72-.09,5.59-.21s3.78-.36,5.69-.5c1.34-.06,2.68,0,4,0s2.65,0,4,0h4.17c1.42,0,2.84-.05,4.25-.05,3,0,6-.09,9-.08,1.53,0,3.05,0,4.58,0s3.11,0,4.67,0c2.93,0,5.86.2,8.79.26s5.85,0,8.78.12c1.46.05,2.92.08,4.39.14s2.9.17,4.35.26c2.92.19,5.85.27,8.77.47h0a1.91,1.91,0,0,0,.06.33c0,.27,0,.55,0,.83,0,.54.05,1.07.1,1.6,0,.27,0,.55.07.82,0,.5,0,1,0,1.52,0,.23,0,.45,0,.68h-.17c.1,1.42.14,2.85.2,4.28h0v0c.08,3,.1,6,.07,8.94s-.1,6.06-.1,9.09c0,6.14,0,12.28,0,18.41,0,3,0,6.11-.08,9.16-.05,2.89-.07,5.78-.17,8.66q-.12,3.53-.48,7c0,.23,0,.45-.07.68-.18,1.7-.38,3.4-.55,5.1-.13,1.25-.24,2.51-.29,3.76,0,.65,0,1.29-.05,1.93v.85h-.4c-3.22.1-6.43.13-9.65.24h0l-1.48,0h-.18l-1.26.05h-.07c-1.06,0-2.12,0-3.17,0v-.23c.16-2.29.35-4.58.6-6.85a.07.07,0,0,1,0,0v0h0s0,0,0,0h0v0c.25-2.08.59-4.19,1-6.26a4.77,4.77,0,0,0,.19-1.14,13.06,13.06,0,0,0,3.47-.33,11.71,11.71,0,0,0,4-1.49,7.24,7.24,0,0,0,2.61-3.2,8.92,8.92,0,0,0,.72-2.13,5.82,5.82,0,0,0,.07-.93,1.26,1.26,0,0,0,.14-.57,7,7,0,0,0-1-3.71,11.05,11.05,0,0,0-1.27-1.62,8.74,8.74,0,0,0-2.11-1.51,7.26,7.26,0,0,0-1.3-.6,6.75,6.75,0,0,0-.91-.24,3.47,3.47,0,0,0-1-.07c0-.08,0-.17,0-.26a6.35,6.35,0,0,0-1.16-3.31,3.42,3.42,0,0,0-1.93-1s0-.06,0-.1c.11-.9.2-1.82.27-2.73a5.48,5.48,0,0,0,1.6-.53,15,15,0,0,0,1.83-.93,18,18,0,0,0,1.7-1.28,5.41,5.41,0,0,0,1-1,4.39,4.39,0,0,0,.64-1.76,26.1,26.1,0,0,0,.13-4.51v-.06a0,0,0,0,1,0,0v0c0-1.4,0-2.8,0-4.2,0-.61,0-1.22-.09-1.83a8.19,8.19,0,0,0-.28-1.84c-.56-1.73-2.46-2-4-1.93h-.2c-.62,0-1.23.05-1.86.06s-1.14,0-1.71,0c-1.25-.06-2.5-.24-3.76-.33a13.67,13.67,0,0,0-1.81,0,2.45,2.45,0,0,0-1.56.59,2.62,2.62,0,0,0-.7,1.63c0,.28,0,.56,0,.84,0,.72-.06,1.46-.07,2.18a42.42,42.42,0,0,0,.39,6.47,22,22,0,0,0,.4,2.41,7.54,7.54,0,0,0,.72,2,5.7,5.7,0,0,0,1.6,1.82,14.42,14.42,0,0,0,1.69,1h0c.52.3,1,.65,1.53,1l.11.07a2.64,2.64,0,0,0,0,.28c0,.4-.08.82-.12,1.23,0,.65-.17,1.31-.17,2h0l-.34.15a3.89,3.89,0,0,0-1.87,2.42,11.73,11.73,0,0,0-.39,2.43,1.17,1.17,0,0,0-.35.14l.06,0a.78.78,0,0,0-.24.16c-.16,0-.32.09-.48.15a12.64,12.64,0,0,0-1.42.61,10,10,0,0,0-3.07,2.54c0-.69,0-1.37,0-2.07,0-1.41,0-2.81-.07-4.21s0-2.67-.08-4a59,59,0,0,0-.67-8c-.21-1.35-.42-2.69-.73-4a38.56,38.56,0,0,0-1.09-3.77,20.81,20.81,0,0,0-1.77-4A24.06,24.06,0,0,0,97.18,59a0,0,0,0,1,0,0,30.69,30.69,0,0,0-2.58-2.52c-.79-.71-1.56-1.43-2.39-2.09A18.14,18.14,0,0,0,87,51.5,15.32,15.32,0,0,0,84.63,51a10.75,10.75,0,0,0-1.49-.15l-.67,0a1.24,1.24,0,0,0-.54-.07,1.65,1.65,0,0,0-.46-.32,14.33,14.33,0,0,0,1.71-.85,10,10,0,0,0,2-1.47,11.09,11.09,0,0,0,1.54-1.81,5.91,5.91,0,0,0,.94-2.63,4.86,4.86,0,0,0-.55-2.7,6.25,6.25,0,0,0-1.36-1.75,8.65,8.65,0,0,0-2.08-1.43A12.84,12.84,0,0,0,79,36.56a24.3,24.3,0,0,0-4.35,0,14.93,14.93,0,0,0-4.09,1A30.15,30.15,0,0,0,67,39.39a1.36,1.36,0,0,0-.49-.29,2.67,2.67,0,0,0-.66-.19,14,14,0,0,0-1.94-.17,13.19,13.19,0,0,0-4.15.49,18.61,18.61,0,0,0-7,3.66,15,15,0,0,0-3.21,3.83,16.45,16.45,0,0,0-1,1.92,4.78,4.78,0,0,0-.35,1.17A3.58,3.58,0,0,0,48.47,52a5.76,5.76,0,0,0,1.06,1.44,6.2,6.2,0,0,0,.88.82,7.3,7.3,0,0,0,2.09,1.13,8.64,8.64,0,0,0,1,.26c-.57.31-1.13.65-1.66,1a15.64,15.64,0,0,0-2.39,1.89,9.53,9.53,0,0,0-1.39,1.94c-.38.67-.74,1.36-1.09,2.05a40.31,40.31,0,0,0-1.86,4.2,36.67,36.67,0,0,0-2,8.83c-.16,1.46-.25,2.93-.34,4.4s-.15,2.86-.12,4.29.14,3,.26,4.5.25,2.85.4,4.27c.31,3,.71,6,1,9s.58,5.87.75,8.82a55.15,55.15,0,0,1,0,6.68c0,.48-.1,1-.16,1.43a1.41,1.41,0,0,0,0,.46h0l-2.44,0a2,2,0,0,1,0,.25Z" fill="#ffca11"/>
            <path d="M114.52,90.35a11,11,0,0,0-2.43,0v0c0-.14,0-.28,0-.42a14.35,14.35,0,0,1,.07-1.61,1.1,1.1,0,0,0,0-.18,10.41,10.41,0,0,1,.2-1.09c0-.1.06-.21.1-.32a.91.91,0,0,1,.07-.14l.06-.09.07-.08.06-.06.06,0,.11-.06.17-.06.39-.09.35,0,.27,0,.19,0,.1,0h0s0,0,0,0l0,0,0,0,0,.06s0,0,0,0l.12.38c.11.42.19.83.26,1.26.11.83.19,1.66.25,2.5Z" fill="#952845"/>
            <path d="M112.17,88a.19.19,0,0,1,0,.08V88Z" fill="#952845"/>
            <path d="M112.18,87.93v0Z" fill="#952845"/>
            <path d="M112.74,77c-.49-.32-1-.6-1.5-.88h0l-.07,0-.07,0-.62-.41-.12-.1-.21-.24c-.09-.11-.17-.23-.25-.34l-.15-.29a7.58,7.58,0,0,1-.28-.8c-.13-.5-.21-1-.3-1.53a46.79,46.79,0,0,1-.5-5.79c0-.77,0-1.54,0-2.31,0-.4,0-.81,0-1.21,1.69,0,3.36.28,5,.36,1.14.06,2.28,0,3.42,0h.2a7.23,7.23,0,0,1,.93,0,2.14,2.14,0,0,1,.35.06h0a.2.2,0,0,1,0,.07,28.61,28.61,0,0,1,.19,2.91v.25c0,1.3,0,2.59,0,3.88l0,1.3V72a17.31,17.31,0,0,1-.08,2,.3.3,0,0,0,0-.1s0,.1,0,.15v0q0,.33-.12.66a1.42,1.42,0,0,1,0,.16s0,0,0,0l0,0a1.15,1.15,0,0,1-.14.17l-.36.31h0l-.09.07c-.42.33-.84.64-1.28.93a13.59,13.59,0,0,1-1.38.68l-.13.06c-.3.13-.6.27-.9.38h-.07a1.49,1.49,0,0,0-.43.17C113.49,77.48,113.12,77.21,112.74,77Zm.3-11.69A71,71,0,0,0,113,73v.39a1.69,1.69,0,0,0,0,.23,1.48,1.48,0,0,0,.36,1,1.43,1.43,0,0,0,1,.45h0a1.4,1.4,0,0,0,1.47-1.32V73.2a.34.34,0,0,0,0-.1V73c0-.93,0-1.86-.06-2.78A1.48,1.48,0,0,0,117,71h.16a1.41,1.41,0,0,0,1.3-1.33c0-.49,0-1,0-1.49a1.4,1.4,0,0,0-2.75-.46c0-.75.05-1.51.12-2.26a1.44,1.44,0,0,0-1.34-1.49h-.07A1.43,1.43,0,0,0,113,65.27Zm-3.54,1.27a15.84,15.84,0,0,0,0,4.07,1.44,1.44,0,0,0,1.35,1.29h.18a1.42,1.42,0,0,0,1.28-1.52c-.06-.69-.12-1.38-.13-2.08,0-.33,0-.67,0-1l0-.32v-.12a1.46,1.46,0,0,0-.37-1,1.41,1.41,0,0,0-1-.47h-.07A1.43,1.43,0,0,0,109.5,66.54Z" fill="#d1c9b6"/>
            <path d="M88.22,101.68C86.76,100,85.35,98.32,84,96.56l1.24,0c.92-.05,1.85-.1,2.78-.18s1.57-.19,2.34-.33c.48-.07,1-.15,1.43-.19a3.68,3.68,0,0,1,.47,0l.14,0,.08,0,.21.09.15.08a0,0,0,0,0,0,0c0,.08.09.17.14.26a4.73,4.73,0,0,1,.2.47c0,.16.09.32.13.48.06.35.1.7.13,1.06,0,.14,0,.29,0,.44a.59.59,0,0,0,0,.14,5.38,5.38,0,0,1-.2.65c-.08.2-.17.4-.26.59l0,0c-.09.12-.18.24-.28.35l-.26.27c-.16.13-.32.26-.49.38s-.47.28-.71.4a16.42,16.42,0,0,1-1.63.67l-.09,0-.1,0a4,4,0,0,1-.49.15Z" fill="#26706d"/>
            <path d="M86.57,145a15.21,15.21,0,0,1-1.63-.23c-.79-.18-1.57-.41-2.34-.64l-2.74-.82c-1.9-.58-3.8-1.17-5.68-1.79a43.64,43.64,0,0,1-4.39-1.89,33.62,33.62,0,0,1-3.6-2.16,27.15,27.15,0,0,1-2.49-1.89,31.31,31.31,0,0,1-2.38-2.37h0l-.11-.12a33.86,33.86,0,0,1-2.42-3.19,40.22,40.22,0,0,1-2.51-4.18c-.28-.55-.55-1.11-.78-1.68s-.44-1.13-.64-1.7h0v0a.16.16,0,0,1,0-.08h0v0a27.58,27.58,0,0,1-.9-3.35,75.48,75.48,0,0,1-1.18-9.13h0a.81.81,0,0,0,0-.16c-.11-1.66-.2-3.32-.22-5s0-3.58.05-5.37c.08-.93.21-1.85.38-2.76A43.65,43.65,0,0,1,54.33,91v0C55,89,55.81,87,56.53,85c.39-1.1.79-2.2,1.2-3.31A29.16,29.16,0,0,1,59,78.83c.65-1.3,1.32-2.58,2-3.85.5-1,1.06-1.89,1.65-2.79.25-.36.51-.72.79-1,.11-.13.24-.25.36-.37l.24-.18.1-.07.07,0,.08,0,.14,0h.29c.33,0,.66.08,1,.14a26.6,26.6,0,0,1,3.18.85l.49.17a7.14,7.14,0,0,1,.81.31,1.71,1.71,0,0,1,.23.13,2,2,0,0,1,.23.18l.08.07.15.2.15.24.15.37c.25.77.43,1.57.68,2.33.43,1.38.89,2.74,1.35,4.1.31.9.62,1.79.91,2.69a.88.88,0,0,0,.05.15c.16.49.32,1,.47,1.49.45,1.45.85,2.93,1.37,4.36a31.19,31.19,0,0,0,1.36,3.21c.29.61.59,1.22.91,1.81s.71,1.19,1.09,1.76a66,66,0,0,0,5.5,7.27c.83,1,1.67,1.94,2.57,2.85.73.74,1.48,1.47,2.17,2.24a9.5,9.5,0,0,1,.78,1c.81,1.22,1.51,2.51,2.22,3.79s1.57,2.83,2.31,4.27c.44.89.86,1.8,1.23,2.73H96c.1.2.19.41.27.62h0c.09.23.18.47.26.71.37,1.09.69,2.19,1,3.3s.6,2.18.85,3.28c0,.25.09.51.12.77v.23c-.07.75-.2,1.51-.34,2.26h0s0,0,0,0l0,.11s0,0,0,0a31.34,31.34,0,0,1-.92,3.32,37.93,37.93,0,0,1-1.56,3.66,30.88,30.88,0,0,1-1.62,2.92l-.35.46-.21.21-.22.16a1.44,1.44,0,0,0-.56,1.77h0l-.4.31c-.13.07-.25.15-.38.21s-.43.19-.65.27c-.38.13-.76.25-1.13.39l-.28.09h0a19.63,19.63,0,0,1-2.08.6c-.27,0-.53.09-.8.12h-.5Zm.53-4a1.42,1.42,0,1,0,1.4-1.43A1.43,1.43,0,0,0,87.1,141Zm-8.42-2.87a1.42,1.42,0,1,0,1.4-1.43A1.43,1.43,0,0,0,78.68,138.15Zm11.24-2.83a1.42,1.42,0,1,0,1.4-1.43A1.43,1.43,0,0,0,89.92,135.32Zm-21.32-.95A1.42,1.42,0,1,0,70,132.94,1.44,1.44,0,0,0,68.6,134.37Zm7.33-.81a1.42,1.42,0,1,0,1.4-1.43A1.44,1.44,0,0,0,75.93,133.56Zm7-.43a1.42,1.42,0,1,0,1.4-1.43A1.43,1.43,0,0,0,82.93,133.13ZM64.24,130a1.42,1.42,0,1,0,1.4-1.43A1.42,1.42,0,0,0,64.24,130Zm27.88-.11a1.42,1.42,0,1,0,1.41-1.43A1.43,1.43,0,0,0,92.12,129.89Zm-31.45-5.11a1.41,1.41,0,0,0,1.42,1.4,1.41,1.41,0,1,0,0-2.82A1.41,1.41,0,0,0,60.67,124.78Zm30.57-4.72a1.43,1.43,0,1,0,1.42-1.41A1.36,1.36,0,0,0,91.24,120.06Zm-34.7-4.58a1.43,1.43,0,0,0,1.44,1.4,1.45,1.45,0,0,0,1.41-1.44,1.43,1.43,0,0,0-2.85,0Z" fill="#e76d49"/>
            <path d="M99.12,137.14a30.45,30.45,0,0,0,1.58-4.44,26.55,26.55,0,0,0,.8-4.14,7.4,7.4,0,0,0-.23-2.48c-.18-.77-.39-1.53-.6-2.29-.09-.33-.17-.65-.26-1,.91,0,1.81-.08,2.71-.07.74,0,1.47.06,2.2.06s1.2,0,1.79,0c1.3,0,2.59-.13,3.88-.2l3-.17a1.66,1.66,0,0,0-.38.52c-.12.27-.24.54-.37.81-.43.84-.88,1.66-1.3,2.49a36.28,36.28,0,0,1-2,3.79,26.72,26.72,0,0,1-1.69,2.27l-1.5,1.61a15.47,15.47,0,0,1-1.12,1.17,16.26,16.26,0,0,1-1.52,1.25c-.29.19-.59.36-.9.53a20.41,20.41,0,0,1-2.16.89c-.57.2-1.14.38-1.71.55l-.85.23C98.7,138.07,98.91,137.6,99.12,137.14Z" fill="#e76d49"/>
            <path d="M52.34,92l.13-.07c-.21.92-.41,1.84-.61,2.76-.12.57-.23,1.13-.35,1.7,0-.4,0-.8,0-1.2,0-.17,0-.35,0-.52v-.36a2.79,2.79,0,0,1,.69-2.17.6.6,0,0,1,.13-.09l.06,0Z" fill="#110802" fill-opacity="0.25"/>
            <path d="M52.34,92l.13-.07c-.21.92-.41,1.84-.61,2.76-.12.57-.23,1.13-.35,1.7,0-.4,0-.8,0-1.2,0-.17,0-.35,0-.52v-.36a2.79,2.79,0,0,1,.69-2.17.6.6,0,0,1,.13-.09l.06,0Z" fill="#110802" fill-opacity="0.25"/>
            <path d="M100.66,128a2.3,2.3,0,0,1-.18,1.88c-.14.36-.28.73-.41,1.11a2.91,2.91,0,0,1,0,.59,8,8,0,0,1-.2,1.11c-.14.58-.3,1.14-.47,1.71h0a1.47,1.47,0,0,1-1.31-2.16,13.18,13.18,0,0,1,1.09-1.9,12.18,12.18,0,0,1,1.16-1.42l.08-.08a1.73,1.73,0,0,1-.4-1.55A1.57,1.57,0,0,1,100.66,128Z" fill="#110802" fill-opacity="0.25"/>
            <path d="M98.37,134a1.5,1.5,0,0,1-.3-1.78,13.63,13.63,0,0,1,1.09-1.89,12.18,12.18,0,0,1,1.16-1.42l.08-.08a1.76,1.76,0,0,1-.27-.4,2.08,2.08,0,0,1,.16-1.92,3.33,3.33,0,0,1,.68-.81,1.7,1.7,0,0,1-.39,0h0a1.37,1.37,0,0,1-1-.5,1.46,1.46,0,0,1,.5-2.24,5,5,0,0,1,1.08-.27q.6-.14,1.2-.21a18.65,18.65,0,0,1,2.79-.16h.29c.31-.06.62-.12.92-.16a43.41,43.41,0,0,1,4.54-.48c.74,0,1.48-.08,2.22-.09a5.75,5.75,0,0,1,.83,0,1.61,1.61,0,0,1,1.3.9,1.54,1.54,0,0,1-.4,1.82,2.12,2.12,0,0,1-.87.36,2,2,0,0,1,0,.42,1.64,1.64,0,0,1-1.11,1.17c-.18.06-.37.08-.54.12a5.9,5.9,0,0,1-.83.11,9.14,9.14,0,0,1-1.17,0l-.49.11a25.28,25.28,0,0,0-2.51.81l.2-.07a9.19,9.19,0,0,0-1,.46c-.35.2-.7.41-1,.63s-.8.65-1.18,1l.15-.14-.21.2c-.73.72-1.46,1.45-2.12,2.23-.17.22-.33.43-.48.66a4.38,4.38,0,0,1-1.63,1.9,1.37,1.37,0,0,1-.62.14A1.52,1.52,0,0,1,98.37,134Z" fill="#110802" fill-opacity="0.25"/>
            <path d="M53.67,84A4.42,4.42,0,0,1,54,85.8,9.09,9.09,0,0,1,53.51,88c-.21.72-.43,1.43-.62,2.15s-.29,1.17-.42,1.75a1.15,1.15,0,0,0-.33.21,2.79,2.79,0,0,0-.69,2.17c0,.7,0,1.39.06,2.08-.2.95-.38,1.91-.57,2.87-.29,1.5-.59,3-.85,4.51a43.46,43.46,0,0,0-.53,5.35v0c0,.75,0,1.49.09,2.24a24.93,24.93,0,0,0,.57,3s0,0,0,.06c.19.78.4,1.55.62,2.32.16.57.3,1.15.44,1.73a2.71,2.71,0,0,1,0,1.8,2,2,0,0,1-1,1.07,4.46,4.46,0,0,1-1.54.23c-1.46,0-2.93.14-4.4.2l-2.1.08h-.29a5.51,5.51,0,0,1-1.28-.13,2.5,2.5,0,0,1-1.53-1,4.29,4.29,0,0,1-.31-2.56c0-.15,0-.3,0-.45.09-3.12.1-6.25.13-9.37S39,102.13,39,99s-.12-6.14-.09-9.21,0-6.2,0-9.29-.07-6.34-.08-9.52,0-6.16-.06-9.24c0-1.44-.09-2.88-.11-4.32s.05-3,.11-4.44,0-3,.07-4.47S39,45.49,39,44V44a2.17,2.17,0,0,1,0-.26,1.85,1.85,0,0,1,0-.24v-.07h0c0-1.18.09-2.36.17-3.53.06-.94.16-1.88.19-2.83a6.61,6.61,0,0,1,.08-1,2.55,2.55,0,0,1,1.23-1.59,4.54,4.54,0,0,1,2.74-.73,1.3,1.3,0,0,1,.34.08,1.61,1.61,0,0,1,.84-1.18,1.44,1.44,0,0,1,1.81.53,1.41,1.41,0,0,1,.22.92V34a1.2,1.2,0,0,1,0,.38c-.21,1.42-.29,2.86-.38,4.29s-.18,3-.24,4.56v0a107.73,107.73,0,0,0,.53,13.56c.3,2.58.68,5.14,1.11,7.7s.94,5.24,1.55,7.83a50,50,0,0,0,2,6.34.43.43,0,0,1,0,0h0a2.44,2.44,0,0,0,.1.24c.23.58.46,1.16.71,1.74s.53,1.06.82,1.59A12.51,12.51,0,0,1,53.67,84Z" fill="#110802" fill-opacity="0.25"/>
            <path d="M100.4,128.79l-.08.08a12.18,12.18,0,0,0-1.16,1.42,13.18,13.18,0,0,0-1.09,1.9,1.47,1.47,0,0,0,1.31,2.16h0c-.08.26-.15.52-.23.78a13,13,0,0,0-.32,1.34c-.06.42-.06.84-.12,1.26s-.19,1-.28,1.43v0l-.06.33a.59.59,0,0,1,0,.13.06.06,0,0,1,0,0c-.07.54-.12,1.07-.15,1.61a22.15,22.15,0,0,1-.23,3.82,3.41,3.41,0,0,1-.31.88,2.25,2.25,0,0,1-1.33,1c-.83.25-1.65.48-2.46.79-.56.23-1.11.47-1.64.75a7.66,7.66,0,0,0-.68.41l-.15.12v0l0,0,0,0c0,.1-.07.19-.1.29a2.29,2.29,0,0,0-.07.28,2.66,2.66,0,0,0,0,.28c0,1.6.19,3.2.23,4.8a14.28,14.28,0,0,1,0,1.85,3.66,3.66,0,0,1-.31,1.12,2.86,2.86,0,0,1-.67.8l-.08.09-.06.08-.13.25,0,.13c-.06.28-.12.56-.17.84a27.58,27.58,0,0,0-.27,3v0s0,0,0,.07v0a77.56,77.56,0,0,0,.54,9.39c.16,1.34.42,2.66.6,4,.08.55.14,1.1.19,1.65a3.44,3.44,0,0,1,0,1.28,2.38,2.38,0,0,1-1.29,1.55,3.43,3.43,0,0,1-1.38.27h-.15a5.51,5.51,0,0,1-2.41-.46,2.15,2.15,0,0,1-.88-.73,3.85,3.85,0,0,1-.53-1.72c-.1-.76-.17-1.52-.27-2.28-.21-1.48-.52-3-.86-4.41s-.74-2.69-1.09-4-.73-2.55-1.14-3.82c-.36-1.1-.68-2.22-1.06-3.32a8,8,0,0,1-.6-2.64v-.06h0a.09.09,0,0,1,0-.05,3,3,0,0,1,.54-1.59,4.19,4.19,0,0,1,1.27-1.1c.72-.42,1.52-.68,2.26-1.07l.18-.11a.39.39,0,0,1,.1-.08s0,0,0,0v-.3c-.06-.4-.13-.79-.22-1.18-.31-1.23-.66-2.45-1-3.68a9.59,9.59,0,0,0-.4-1.39,1.73,1.73,0,0,0-.1-.24l0-.05-.15-.17a8.8,8.8,0,0,0-.72-.65,7.17,7.17,0,0,0-.79-.57,4,4,0,0,0-.46-.23c-.21-.09-.43-.18-.65-.25-1.2-.33-2.41-.56-3.58-1-.64-.23-1.25-.55-1.87-.83l-1.7-.79-.24-.11c-1.11-.48-2.25-.89-3.35-1.38a21.63,21.63,0,0,1-4-2.4c-.61-.46-1.19-1-1.76-1.46s-1.1-1-1.61-1.5a24.83,24.83,0,0,1-2.92-3.63A23.58,23.58,0,0,1,56,127.9c-.6-1.4-1.21-2.8-1.71-4.23s-.91-2.74-1.3-4.13-.71-2.7-1-4.09-.44-2.69-.58-4c-.08-.8-.12-1.6-.2-2.41-.06-.59-.15-1.16-.24-1.75,0-.3-.09-.61-.13-.91a5.14,5.14,0,0,1,.07-1.66,1.52,1.52,0,0,1,1.18-1.16c-.09-.58-.18-1.16-.23-1.75a1.37,1.37,0,0,0,0,.19c-.18-1.72-.31-3.44-.4-5.17,0-.13,0-.25,0-.38.12-.57.23-1.13.35-1.7.2-.92.4-1.84.61-2.76a1.45,1.45,0,0,1,1.66.39,1.42,1.42,0,0,1,.21,1.46c0,.12,0,.24,0,.36,0,1.09.07,2.2.14,3.29s.15,2.27.26,3.41v0a.2.2,0,0,0,0,.07c.11,1,.23,1.91.42,2.85s.41,2,.65,3a65.71,65.71,0,0,0,2.31,7.91,20.61,20.61,0,0,0,1,2.25l.17.31c.41.68.85,1.33,1.32,2l0,0h0a36.34,36.34,0,0,0,2.51,3c.54.54,1.11,1,1.69,1.53,1,.76,2,1.47,3,2.2s1.85,1.34,2.83,2c.55.31,1.1.6,1.66.86,1.76.75,3.56,1.41,5.37,2a41.68,41.68,0,0,0,4.17.87l.18,0h0a28.89,28.89,0,0,0,3.34.36A35.21,35.21,0,0,0,89.5,132c.5-.06,1-.13,1.5-.24s.72-.21,1.07-.34a25.52,25.52,0,0,0,2.58-1.24,13.16,13.16,0,0,0,1.42-.91l0,.05.1-.08h0l.05,0c.41-.31.8-.62,1.19-1a9.2,9.2,0,0,1,.72-.67,2,2,0,0,1,.89-.43,1.45,1.45,0,0,1,1,.16,1.73,1.73,0,0,0,.4,1.55Z" fill="#110802" fill-opacity="0.25"/>
          </g>
        </g>
      </g>
    </g>
  </g>
</svg>
