<svg xmlns="http://www.w3.org/2000/svg" width="389.99" height="538.56"><g data-name="Layer 2"><path d="M122.66 381.3c-3.92-1.44 1.8-15.71 2.31-19.07 1.91-6.29 3.63-12.64 5.53-18.93 3.49-9.14 7.85-17.9 11.8-26.84 8.59-18.17 19.07-35.33 29.1-52.72 9-14.73 17.52-29.82 26.72-44.33 8.5-14.75 18.29-28.64 27.39-43 7.21-11.41 14.43-22.8 21.84-34.07a249.8 249.8 0 0 1 16.28-23.26c7-9.18 13.86-18.43 21.22-27.3 5.6-6 10.83-12.38 16.3-18.53 8-9.16 15.41-18.85 23.88-27.61 8.82-9.29 18.5-17.2 27.52-26.09a8.13 8.13 0 0 1 1.37-1.19 1 1 0 0 1 1.69.72.94.94 0 0 1-.77 1q-6.31 6.31-13.08 12.15-9.61 8.72-18.52 18.18c-8.89 9.94-17.13 20.37-26 30.31-4.24 5.28-9.13 10.14-13.46 15.35-4.75 6.1-9.43 12.26-14.21 18.34-19 24.08-34.09 50.8-51 76.32-15.28 22.6-28.8 46.41-42.93 69.71-10.52 17.93-21.25 35.75-30.44 54.4-4.61 10.46-9.9 20.59-13.6 31.3-2.56 10.54-6.71 20.68-8.31 31.39 2.78-7.29 5.71-14.51 8.11-21.94 3.1-6.74 5.74-13.64 8.86-20.36 3.59-7.92 7.69-15.58 11.88-23.19 3.84-7.13 7.43-14.38 11.73-21.25 7.67-12.35 15.07-24.91 24-36.45 2.93-4 5-8.4 7.69-12.51 3.83-6.11 8-12 12.11-18 16.86-24 29.72-50.56 47.93-73.63 17.85-21.92 33.32-45.64 51.49-67.31 6-7 11.64-14.34 18-21 10.68-11 21.13-22.32 32-33.15 6.53-6.48 13.5-12.48 20.34-18.63 3.57-3.4 7.14-6.79 11-9.89a1 1 0 0 1 1.23 1.47c-2.42 2.05-4.77 4.2-7.08 6.38-7.19 6.92-15 13.26-22.13 20.25-8.38 8-16.25 16.55-24.3 24.9a365.91 365.91 0 0 0-25.57 28.67c-17 20-31.65 41.7-47.68 62.42a354.4 354.4 0 0 0-26.33 37c-8.44 14.29-16.85 28.65-26.33 42.29-4.14 6.06-8.44 12-12.34 18.22-3.09 4.61-5.43 9.64-8.76 14.09-8.3 10.69-15.14 22.36-22.32 33.8-5.6 8.9-10.21 18.34-15.26 27.55-7.44 13.3-13.5 27.43-19.19 41.52-2 6.52-4.76 12.74-7.11 19.12a10.81 10.81 0 0 1-1.4 2.95 1.23 1.23 0 0 1-1.2.45Z" fill="#110802"/><path d="M64.76 538.5c-2.11-1-1.35-13.65-1.44-16.34.46-17.39 4.35-34.39 7.82-51.36a380.33 380.33 0 0 1 10.29-38.64c3.85-11.28 7.78-22.89 14.34-32.89 7-10.92 14.44-22.87 26.84-28.21 1.18-1.51 2.74.92 1 1.67a39.34 39.34 0 0 0-11.25 7.68c-3.85 3.47-6.67 7.81-9.68 12-5.51 8-10.56 16.1-13.91 25.16a359.35 359.35 0 0 0-17.4 62.03c-3.89 17.84-7.1 36-5.91 54.36a86 86 0 0 1 3.54-11.9c1.87-4.28 3.92-8.48 5.63-12.82 8.39-22.13 19-43.28 29.75-64.33 7.68-15.6 16.36-30.8 21.77-47.38 2.35-7.59 5.56-15.27 4.79-23.33-.13-1.52-2.7-3.73-.8-4.75a1.12 1.12 0 0 1 1.37.94c.76 1.51 1.65 3 1.64 4.75a51.27 51.27 0 0 1-3.69 18.54 126.91 126.91 0 0 1-4.46 12.71c-3.72 9.95-8.59 19.36-13.51 28.76-4 7.88-7.86 15.82-12 23.63-5.27 11-11 21.83-15.64 33.16-2.85 6.49-5.5 13.06-8.1 19.66-2 4.95-4.68 9.74-6.27 14.78-1 3.17-1.61 6.44-2.58 9.61-.37 1.01-.67 2.93-2.14 2.51Z" fill="#110802"/><path d="M130.39 372.66c-1-.41-4-1.69-3.15-3.07.88-1.15 2.06.43 2.87.82.53.47 1.35.31 1.83.81.76 1.11-.54 1.92-1.55 1.44Z" fill="#110802"/><path d="M139.34 501.77c-1.16-2.77-.44-5.82-.22-8.69.44-3.13.8-6.28 1.26-9.4 1.07-7.23 1.8-14.67 3.07-21.83a286.46 286.46 0 0 0 1.89-36.7c-.05-7.53-1.15-15.19-1.82-22.61a129.7 129.7 0 0 0-5.52-26.66c-2.48-7.42-7.16-14.38-6-22.53.05-.67.29-1.56 1.11-1.54 1.65-3.13 5.72-2.77 8.35-1.12 2.2 1.11 3.66 3.17 5.25 5 6.87 8.67 7 20.18 8.91 30.61 2 12.33 1.51 24.89.8 37.31-.57 13-1.67 26.07-4.33 38.86-1.59 8.74-2.13 17.57-4.22 26.2a65.63 65.63 0 0 1-3.55 10.45c-.75 2.34-2.69 6.88-4.98 2.65Zm1.94-.56a76.75 76.75 0 0 0 4.44-12.14c1.73-6.34 2.25-13.1 3.21-19.53 1.35-9.1 3.31-17.91 4.2-27 1.13-15.52 2.44-31.12 1.58-46.69-.55-6.84-1.85-13.54-2.85-20.31-1-6.42-2.48-13.07-6.57-18.25-2.21-2.76-5.55-6.86-9.48-5.38-.84.5-1 1.75-1.94 2.08-.48 5.11 1.13 10 3.34 14.5a91 91 0 0 1 4.45 12.77c3.45 13.07 4.61 26.66 5.53 40.08a223.15 223.15 0 0 1-.32 23.42 162.18 162.18 0 0 1-2 20.65q-1.75 12.64-3.43 25.31a65.07 65.07 0 0 0-.73 7 6.39 6.39 0 0 0 .57 3.49ZM31.49 476.32c-7.11-2.45 2.43-25.51 4.28-30.73a230.68 230.68 0 0 1 22.47-42.8c9.43-14.5 18.53-29.56 31.83-40.9a55.16 55.16 0 0 1 24.64-12c4.55-.39 9.33-1.17 13.81-.12a1 1 0 0 1 1.58 1c-.1.53 0 1.17-.41 1.61-.74 3.29-3.23 5.91-5.58 8.2-2.42 1.76-5.13 3.09-7.67 4.67a143.16 143.16 0 0 0-23 15.7 136.12 136.12 0 0 0-21.4 21.32c-4.28 5.19-7.43 11.12-10.9 16.83a357.75 357.75 0 0 0-17.24 31.82c-2.83 6.4-5.78 12.74-8.25 19.29-.97 1.7-1.92 6.42-4.16 6.11Zm.12-2.1c2.69-5 4.36-10.66 6.79-15.79a306.12 306.12 0 0 1 16.76-33c4.2-7 8.1-14.17 12.68-20.92a119 119 0 0 1 12.68-14.68 172.6 172.6 0 0 1 29.22-23.09c3.64-2 7.2-4.15 10.8-6.27a14.23 14.23 0 0 0 5.25-4.82 8.64 8.64 0 0 0 2-4.11c-29.62-3.65-49.43 23-63.35 45.39-11.65 17.25-22.18 35.44-29 55.19-1.75 5.5-6.3 16.93-3.83 22.1Z" fill="#110802"/><path d="M16.24 419.84c-2.29-1.46 1.69-8 2.56-9.95 6.79-12.34 16.33-22.82 26-33a203.58 203.58 0 0 1 54.93-41c7.39-4.4 31.12-13.9 37.91-7 2.24.57-.16 3.74-1 4.67-3.08 3.51-7.9 4.66-12.09 6.33-4.79 1.51-9.49 3.28-14.28 4.78-14.76 5.09-27.58 14.3-40.32 23.11A220.23 220.23 0 0 0 46.74 387a138.7 138.7 0 0 0-13.49 13.94c-3.19 3.78-5.89 7.74-9.06 11.47-1.78 1.88-5.33 8.17-7.95 7.43Zm1.44-2.62c7-7.79 12.67-16.8 20.06-24.29 16.06-16.35 34.48-30.09 54.11-41.86 8.8-5.29 18.55-8.54 28.25-11.71 2.44-.78 4.89-1.57 7.27-2.52 3.44-1.37 7.39-2.81 9-6.4-4.14-4.13-15.56-.72-20.63.7-7.2 2.07-13.65 5.72-20.21 9.2A204.94 204.94 0 0 0 41 383.8c-9.07 10.09-18.47 20.59-23.32 33.42ZM169.57 459.29a7.38 7.38 0 0 1-.92-2.51c-.22-5.31-.5-10.61-.38-15.92 0-17.15.53-34.69-4.34-51.3-3-10.78-6.62-21.54-12.17-31.29-3-5.55-7.21-10.53-9-16.69-.58-2.28-1.64-4.7-1.17-7.07.92-4.09 4.26-4.59 7.94-4 2.85-.11 5.13 1.84 7.43 3.27 1.87 1.4 3 3.52 4.32 5.4a75.52 75.52 0 0 1 6.92 11.66c3.16 7.27 4.31 15.17 6.09 22.83 2.81 11.88 3.3 24.16 3.54 36.31a192.15 192.15 0 0 1-1 23.13 66.38 66.38 0 0 1-2.23 15.09c-.85 2.26-1.78 13.03-5.03 11.09Zm.05-48.37c1.27 15 .13 30.15 1 45.2 1.36-4.9 2.41-9.91 3.44-14.88a253.6 253.6 0 0 0 1.75-29.67c-.16-12.58-.6-25.34-3.49-37.63-1.68-7.09-2.72-14.28-5.42-21a65 65 0 0 0-7.32-12.67 15.4 15.4 0 0 0-6.62-6.6 5.28 5.28 0 0 0-2.79-1.08c-2 0-4.9-.92-6.1 1.19-.32.6-.18 1.42-.66 1.92 1 9.35 7.6 16.43 11.69 24.53 3.55 6.63 6 13.76 8.41 20.85a119.69 119.69 0 0 1 6.11 29.84ZM.45 376.25c-1.85-1.95 2.55-7 3.39-9 3.25-5.24 7.39-9.84 11.5-14.41a55.55 55.55 0 0 1 10-9.52 229.8 229.8 0 0 1 27.47-18.48 250.34 250.34 0 0 1 25.83-12.05c10.24-4 21-6.33 31.64-9.08a103.62 103.62 0 0 1 23.2-2.81c4.58.08 9.31-.28 13.72 1.19a10.41 10.41 0 0 1 1.59.65 1 1 0 0 1 .9.64c.84.76.79 2.41-.68 2.08-5.74 8.26-17.07 8.33-26 10.31-8.27 1.62-16.54 3.32-24.7 5.42a187.51 187.51 0 0 0-37.12 14.76c-16.21 9.62-32 19.95-47.47 30.72a123.43 123.43 0 0 0-9.88 8.4c-.97.72-2.21 2.16-3.39 1.18Zm3.14-4.78c-.44.73-.88 1.48-1.26 2.25 8.36-8 18.15-14.3 27.82-20.63 13-8.26 25.62-17.25 39.64-23.7 12.54-5.35 25.42-10.1 38.85-12.67 5.88-1.28 11.75-2.6 17.7-3.59 7.27-1.57 16.65-2.07 21-8.93-5.09-1.9-10.66-1.27-16-1.36-10.24.24-20.15 2.4-30 5.1a184.52 184.52 0 0 0-63.26 28.4c-5.81 4.11-11.71 8.17-17 13-6.3 6.93-12.98 13.78-17.49 22.13ZM10.89 321.36c-4.66-3.23 14.94-14.12 17.43-16.12 12.29-7.73 25.66-13.72 39.21-18.9 18.27-6.5 37.4-11.52 56.9-11.69 8 .16 16.11 0 24 1.46a106.49 106.49 0 0 1 13.18 3.36c.79.31 1.76.71 1.88 1.65a.94.94 0 0 1-.94 1c-3.79 3-8.86 3.43-13.45 4.44-5.82 1.09-11.6 2.38-17.43 3.39-12.19 2-24.37 4.1-36.56 6.07-10.23 1.53-20.52 2.91-30.55 5.43s-20 5-29.37 9.13q-8.3 3.74-16.43 7.79c-1.93.91-3.79 2-5.76 2.79a2.45 2.45 0 0 1-2.11.2Zm1.66-2.12c8.48-4.12 16.88-8.39 25.56-12.09 7-2.36 14-4.71 21.13-6.42 19.29-5 39.26-6.85 58.84-10.53 8.84-1.38 17.66-2.9 26.42-4.73 5.35-1.34 11.27-1.41 16.07-4.33a91.18 91.18 0 0 0-28.29-4.4c-22.88-1.15-45.55 4.57-66.84 12.48-18.74 7.65-37.67 16.45-52.89 30.02ZM32.21 276.19a1.17 1.17 0 0 1-1-2 20.89 20.89 0 0 1 5.17-4.44c8.6-4.88 18.13-7.84 27.68-10.22a266.65 266.65 0 0 1 35.55-6.69 249.66 249.66 0 0 1 36.49-.57c7.65.56 15.33.95 23 1.82 5.18.56 10.58 1.28 15.07 4.11a1 1 0 0 1 1.47 1 3.79 3.79 0 0 1-.76 1.8c-4.71 5.13-12.33 5.38-18.83 5.79-7.26.31-14.52.6-21.78.28-13-.61-26-1.72-39.07-1.44-14.47.43-28.55 3.49-42.66 6.42-4.08.82-8.14 1.72-12.19 2.64-2.71.51-5.35 1.51-8.14 1.5Zm1.85-2.13c23.35-5 46.88-11.42 71-10.36 16 .22 32 2.27 48.05 1.2 6.83-.47 14.8 0 20-5.07-5.25-3.24-11.6-3.43-17.54-4.18-9.3-.69-18.6-1.51-27.92-1.77a215.62 215.62 0 0 0-57.86 6.25 170.44 170.44 0 0 0-22.51 6.64c-4.59 1.98-9.64 3.71-13.22 7.29ZM63.54 249.91h-7c-1.21.09-3.67-.05-2.77-1.86 5-2.78 10.65-4.61 16-6.76 16.72-6.56 33.57-13.24 51.2-16.93 16-2.67 32.55-5.06 48.76-2.54a192.18 192.18 0 0 1 22.09 6.12 1 1 0 0 1 1.53 1.22 1.06 1.06 0 0 1-1.06 1.41c-8 10-25.49 6.62-36.94 7.56a174.62 174.62 0 0 0-32 2.81c-12 2-24 4.36-36 6.09-8.02.84-15.78 2.53-23.81 2.88ZM61.6 248c7.52.16 14.83-1.76 22.27-2.44 18.9-2.49 37.5-6.89 56.48-8.89 7.92-.53 15.88-.49 23.82-.66 8.58-.2 20.41.75 26.43-6.43-7.29-2.21-14.5-4.64-22-5.95-9.61-1.43-19.46-1-29.09 0-9.67 1.16-19.4 2.44-28.78 5.17A527 527 0 0 0 58.47 248ZM70.47 220.91c-5.82-2.08 15.29-9.92 17-10.68a206.25 206.25 0 0 1 20.53-6.15c22.68-4.71 45.8-10.72 69.11-7.62 7.34.62 14.71 1.6 21.4 4.87 2.84 1.35 6.09 2.69 7.81 5.47.86-.36 1.74.84 1.1 1.52-4.26 5.94-12.57 4.72-19 4.87-6.2-.15-12.41-.42-18.59-.67-12.59-.46-25.31-1.75-37.87-.36-8.89 1-17.8 2.12-26.67 3.22-7.91 1.19-15.71 3.25-23.67 4.05-3.69.35-7.41 1.38-11.15 1.48Zm9.53-5.44c-2.06.91-4.06 2-6 3.06 4.21-.73 8.48-1.12 12.67-1.79 6.1-1 12.12-2.38 18.22-3.32 13.34-1.46 26.51-3.82 39.94-3.95 11.13.28 22.21 1.07 33.34 1.36 6.54-.11 22.45 2.26 26.75-2.64-2.1-3.95-11.27-6.83-15.54-8.07-11.33-2-22.92-3.12-34.41-2.2-10.42.7-20.67 2.72-30.87 4.85C109 205.72 94 209 80 215.47ZM208.2 189.06c-4.62.11-9.06-1.22-13.57-2-9.8-1.72-19.57-3.52-29.43-4.81-22.49-2.93-46.06-3.71-67.82 3.51-6.12 2.31-6.42-2.43-1.4-4.89 6.64-3.41 14.14-4.53 21.22-6.51 6-1 11.74-1.61 17.68-2.45 16.56-1.43 33.25-2.13 49.82-.31a76.6 76.6 0 0 1 27.86 7.44 33.62 33.62 0 0 1 6.76 4.39 3.28 3.28 0 0 1 1.38 1.92c1.52.42.79 1.91-.34 2.33-3.78 1.8-8.1 1.32-12.16 1.38Zm3.23-2a19.62 19.62 0 0 0 7.44-.93 1.36 1.36 0 0 0-.71-1.14 41.72 41.72 0 0 0-11.32-6.33c-8.41-3.51-17.44-4.76-26.45-5.41a219.9 219.9 0 0 0-28.7-.52c-7.66.71-15.4.75-23 2-5.36.84-10.79 1.12-16 2.84a84 84 0 0 0-9.3 2.44c-3 1.13-6.49 1.93-8.81 4.31 23.94-7.91 49.74-7.26 74.43-3.62 8.77 1.15 17.45 2.88 26.16 4.36 5.4 1.17 10.75 2.29 16.26 2.01ZM225.6 166.49c-12.08-1.86-23.87-5.85-35.73-8.59-9.15-1.82-18.44-2-27.74-1.93-7-.06-14.11.15-21.15-.19-5.86-.66-11.78-.53-17.65-1-7-.6-14-1.75-21.08-2.07-2.31-.33-11.84 2.83-8.9-2a8.74 8.74 0 0 1 3.85-2.6 73.22 73.22 0 0 1 10.14-3c10.28-2.68 20.92-3.55 31.46-4.57 9-.91 18-2.06 27-1.62 21.31 1.6 45.82 2.65 63.36 16.21 2.67 2.29 6.16 4.48 6.58 8.27a.94.94 0 0 1-.57.9c-2.05 3.02-6.35 2.41-9.57 2.19Zm5-1.86a5.65 5.65 0 0 0 3.15-1.53c-.6-2.87-3.49-4.4-5.49-6.25a57.23 57.23 0 0 0-22.49-10.62c-10.51-2.86-21.34-4-32.16-4.82a118.64 118.64 0 0 0-25.76.19c-12.86 1.4-25.77 2-38.36 5-4.78 1.33-9.86 2-14 4.77 11.42-1.86 22.77 1.65 34.22 1.78 4.49 0 9.1.52 13.57.77 11.22.24 22.46-.12 33.68.29 11.25.59 22 4 32.79 6.79 6.79 1.62 13.74 3.9 20.81 3.63ZM238.94 146.46c-18.9-1.28-36.34-9.37-54.5-14-11.2-3.42-22.77-4.75-34.34-6.13-11.62-1.56-23.28-2.88-35-3.77a30.5 30.5 0 0 0-6.76.38c-1.16.17-2.46.63-3.55 0a1.48 1.48 0 0 1-.55-1.61c.43-2 2.62-2.81 4.31-3.52 12.61-4.43 26.12-5.21 39.38-5.71a194.07 194.07 0 0 1 27.27 1.21c12.36 1.68 24.46 4.93 36.36 8.6 9.7 3.52 33.25 9.58 38.16 18.35 1.79 1.69-1.9 2.61-2.94 3.29s-1.65 1.15-2.55 1.76a8.72 8.72 0 0 1-5.29 1.15Zm1.51-2.06c2.88-.13 4.67-2.79 7.32-3.65-6.15-8.12-28.61-13.94-38.62-17.47a222.92 222.92 0 0 0-34.06-7.94 196.64 196.64 0 0 0-33-1c-8.16.54-16.23 1-24.11 2.88-3.85 1.12-8.15 1.58-11.45 3.94 6.85-1.43 13.86-.25 20.72.53 5.82.39 11.62 1.19 17.42 1.85 13.31 1.89 26.8 2.84 39.72 6.82 18.67 4.59 36.62 13.43 56.08 14ZM253.23 118.88c-7.33-.64-14.29-3.12-21.19-5.52-5.55-2-11.18-3.66-16.72-5.66q-24.72-8.57-50.16-14.78c-8.4-2.06-16.9-3.81-25.41-5.29a113.72 113.72 0 0 0-17.61-2.16c-1.69-.09-3.54-1.62-2.39-3.39 2.24-4 19.64-3.23 24.31-3.26 30.67 0 60.41 8.63 89.56 17.34 12.27 3.68 25 6.66 32.27 18.3.27.59.62 1.17.84 1.78a1 1 0 0 1-1.47 1c-.42.86-1.64.81-2.45 1.11a32.75 32.75 0 0 1-9.58.53Zm5.57-2a33.15 33.15 0 0 0 5.62-1c-5.31-9.07-15.62-13.33-25.32-15.94-6.77-2-13.43-4.25-20.26-6-22.8-6.38-46-12.43-69.82-13-6.32-.11-12.69-.44-19 .09-2.32.29-4.65.59-7 1.08a2.2 2.2 0 0 0-1.64 1.08c2.34.86 5.46.32 8 .74 7 1.06 14 2.27 20.93 3.69a486.61 486.61 0 0 1 55.91 15c8.49 2.77 16.93 5.71 25.4 8.53 8.77 3 17.87 6.52 27.28 5.79ZM279.24 92.7c-8.71-1-16.76-4.8-24.91-7.8-9.22-3.19-18.23-6.91-27.4-10.22a227 227 0 0 0-27.15-8.27c-8.95-1.8-18-2.22-27.06-2.83-8.42-.89-16.88-1.42-25.31-2.21-5.51-.1-28.13-2.27-11.85-8.12 14.34-4.56 29.78-3.67 44.61-2.76 23.86.58 47.08 6.74 69.64 14.13C259.32 67.9 269 71 277.49 76.44c4.23 2.81 11.35 6.88 11.72 12.38 1 1.79-2.16 2.54-3.34 3.07a13.05 13.05 0 0 1-6.63.81Zm2.51-2a16.09 16.09 0 0 0 5.55-1.8c-.71-4.65-6.48-7.78-10-10.31-11.52-7.27-24.84-11-37.72-15.12-19.82-6.28-40.3-10.61-61.12-11.15-13.74-.77-33.92-1.93-46.17 4.59 6.28 2.44 13 2.06 19.56 2.79 8.25.65 16.49 1.45 24.75 2.1 11 .49 22.15 1.64 32.73 4.89 15.44 4.36 30.18 10.7 45.27 16.08 8.81 3.14 17.63 7.72 27.15 7.97Z" fill="#110802"/><path d="M194.86 462.94c-.86-.75-.57-2.08-.7-3.1-.19-5.66 0-11.34-.2-17-1.93-18.14-3.06-36.41-7.42-54.18C183.09 374 177.5 360 171 346.49c-2.66-5.83-5.6-11.6-8.55-17.27-2.38-4.32-4.94-8.63-6.47-13.33a16 16 0 0 1-.7-8.07 7.17 7.17 0 0 0 .34-1.51 1 1 0 0 1 1.48-.67c5.91 1.18 9.9 6.39 13.7 10.68a82.33 82.33 0 0 1 14.34 23.94c4 9.47 6.41 19.49 9.05 29.4 4.61 17.71 7.63 36 7.5 54.33.06 6.85.08 13.72-1.12 20.48a71.22 71.22 0 0 1-3.3 16.09c-.33 1.11-.9 3.22-2.41 2.38Zm.48-26.7c1.11 7.05.53 14.21.8 21.32 3.18-11.83 3.73-24.08 3.51-36.26-.18-18.47-3.55-36.86-8.37-54.64-4.45-17.32-9.87-35.13-21.92-48.79-3.43-4-6.94-8.39-12-10.12-1.63 8 4.71 15.73 8 22.61 5.34 10.31 10.3 20.81 14.7 31.55a190.93 190.93 0 0 1 11.37 40.21c1.9 11.28 2.57 22.78 3.91 34.12Z" fill="#110802"/><path d="M211.05 422.35a2.23 2.23 0 0 1-1.38-1.47 39.38 39.38 0 0 1-1.13-5.62c-1.12-5.79-1.43-11.6-2.19-17.4-1.4-10.05-2.42-20.14-4.57-30.06-1.4-5.89-3.45-11.6-5.4-17.32C194.2 344 191 338 187.82 332c-2.63-5.6-5.85-11.08-8.85-16.44-4.81-9.37-12.67-18.42-12.28-29.47-.07-1.79 2.37-1.1 3.51-1.19a23.6 23.6 0 0 1 11.68 4.19c22 14.14 31.09 56.91 33.48 81.65.87 8.37 1 16.78 1.18 25.18a69.15 69.15 0 0 1-.09 12.21 53.91 53.91 0 0 1-1.9 8.3c-.7 1.86-1.06 6.04-3.5 5.92Zm.35-2.7c1.59-4.79 3.08-9.94 3.27-14.94 0-5.6-.41-11.18-.41-16.78a200 200 0 0 0-10-60.09c-5-15.82-16.5-40.43-35.65-40.82.16 8.58 5.52 15.84 9.56 23 6.83 12.17 13.83 24.22 19.16 37.08 3.54 9.59 6.74 19.32 8.17 29.48 1.32 7.53 2 15.15 3.08 22.72a204.43 204.43 0 0 0 2.82 20.35Z" fill="#110802"/><path d="M238 384c-2.81-1.31-2.53-7.61-3.14-10.38a150.83 150.83 0 0 0-4-19.89c-4.46-16.91-12.54-32.56-22.46-46.89-5.4-7.6-11.3-14.8-16.87-22.26-4.82-5.43-10.82-10.82-11.52-18.43-.23-.87.1-2.06 1.17-2.05 6.07-3.76 12.54 4.64 16.92 8 16.28 12 27.21 30 34.4 48.59 4.32 11.11 6.37 22.9 7.59 34.71.58 5.24 1.74 10.47 1.56 15.77-.25 2.83.2 12.9-3.65 12.83Zm.3-2.5c3-9.76.29-19.91-.72-29.76a122.8 122.8 0 0 0-27.09-65.33c-4.4-5.34-9.85-9.66-15.18-13.95-3.41-2.77-8.67-9.29-13.33-6.44.94 8.07 8 13.11 12.63 19.12 7.53 10.26 15.89 19.9 22.22 31A141.67 141.67 0 0 1 234 357.28c1.14 4.93 2 9.91 2.74 14.91.52 3.08.56 6.34 1.6 9.29ZM249.1 354.37c-2-6-2.62-12.42-4-18.61-2.87-12.54-6.42-25-11.79-36.72a172.91 172.91 0 0 0-17.75-32c-3-4.17-5.86-8.36-8.58-12.68-3.59-5.22-6.87-11.15-7.06-17.62a2.71 2.71 0 0 1 .32-1.62 1 1 0 0 1 1.64 1.1c0 8.66 6 15.58 10.29 22.58 6.24 8.73 12.31 17.6 17.18 27.18a183.87 183.87 0 0 1 14.39 36.43c3.19 10 4.36 20.44 7 30.57a54.14 54.14 0 0 0 2-18.42c-1.36-8.76-3.24-17.48-5.26-26.11a.3.3 0 0 0 0 .1c-2.37-11-6.92-21.34-11.4-31.64s-9.1-20.81-15.82-29.91c-4-5.66-9.46-10.66-16.28-12.38a5.87 5.87 0 0 0-1.51-.06 1 1 0 0 1-.58-1.87c1.59-.71 3.48.05 5 .62 16.88 6.3 26.52 32.62 33.33 48.19 7.52 15.63 10.81 32.68 14 49.59a47.06 47.06 0 0 1 .13 14.07c-.41 2.33-1.8 14.61-5.25 9.21ZM263.16 321.19c-1.61-1.32-2.23-3.46-2.94-5.35a112.78 112.78 0 0 1-3-11.94 195.17 195.17 0 0 0-6-19.27c-6.08-14.66-14.95-27.89-21.8-42.17-2.8-5-6-9.77-8.59-14.89-1.09-2.33-8.57-13.25-5.22-14.64 1-1.73 4.55.19 6 .63 7.21 3 12.31 9.21 17.42 14.88 13.89 15.89 21.29 36.15 26.31 56.35 1.56 6.74 3 13.62 2.93 20.57-.06 3.41-.47 6.81-.72 10.22-.13 2.42-1 7.95-4.39 5.61Zm1.4-1.46c1.16-2.42.9-5.19 1.24-7.8 1.13-8.61-.24-17.2-2.22-25.58a167.37 167.37 0 0 0-14.88-40.47 99.29 99.29 0 0 0-14.3-19.36c-4.77-5.32-10.34-10.8-17.59-12.17a.66.66 0 0 1-.12.17c1.6 6.11 5.69 11.18 8.41 16.81 4.56 7.18 8.43 14.69 12.29 22.27 5.34 9.49 10.84 19 15.18 29a183.68 183.68 0 0 1 8.29 28.4s0 0 0-.06c1 3.06 1.39 6.55 3.7 8.79Z" fill="#110802"/><path d="M279.07 299.78c-3.37-1.29-3.26-10.48-4-13.75-.78-5.67-1.91-11.4-3.24-16.93-2-7.56-4.5-15.08-8.57-21.79-2.44-4.23-4.43-8.72-7.12-12.8-4.92-7.69-10.1-15.23-15.74-22.36-2.72-3.65-5.77-7.06-8.06-11-1.64-2.53-3.3-5.34-3.28-8.44.8-5.91 12.09 3.36 14.07 5.17 9.09 7.91 16.3 17.8 22.17 28.26 3.07 6.07 5.4 12.48 8.41 18.58 4 8.69 7.29 17.85 8.36 27.35.48 6.19 1.48 12.48-.13 18.59-.45 2-.83 4.06-1.19 6.1-.25 1.09-.13 3.03-1.68 3.02Zm-.24-3.4c.61-4.17 1.94-8.32 2.05-12.53 0-4-.52-8.19-.82-12.14a88 88 0 0 0-4.61-17.85c-3.57-8.4-7.37-16.7-11.07-25.05-3-6.13-7.09-11.7-11.08-17.18a84.8 84.8 0 0 0-10.49-11.27c-3.5-3.15-7.06-6.12-11.56-7.56a.85.85 0 0 1-.21.45c.83 4.81 4.35 8.85 7.07 12.73 3.64 4.51 7.2 9.34 10.67 13.88a203 203 0 0 1 15.56 25.26l-.06-.1c5.86 9.66 9.18 20.63 11.25 31.68 1.54 6.48 1.6 13.3 3.3 19.68Z" fill="#110802"/><path d="M296.27 304.24c-1.57.08-1.41-5.67-1.56-6.92a168.71 168.71 0 0 0-2.18-22.69 103.29 103.29 0 0 0-7.79-26 152.77 152.77 0 0 0-13.23-25.4c-5-7-10-14-14.84-21.1-5.65-8-11.3-16.33-13.61-26-.36-1.79-2.66-7.22.11-7.11 6.23-5.36 20.44 11.37 24.48 15.82A110.07 110.07 0 0 1 280 203.33a138.55 138.55 0 0 1 13 31.14 160 160 0 0 1 8.33 39.7c.17 6.72 1.32 13.62-.28 20.23a53.58 53.58 0 0 1-3.54 8.85c-.19.51-.6 1.06-1.24.99Zm.59-4.11a39.62 39.62 0 0 0 2.68-7.74c.65-4 .29-8.09.16-12.14a140.93 140.93 0 0 0-2.51-22.15c-1.34-8.44-4-16.53-6.6-24.64A142.12 142.12 0 0 0 269.07 190c-3.35-4.45-20-24.16-25.3-18.93a61.6 61.6 0 0 0 6.23 17.32c2.77 5 6.18 9.49 9.31 14.22 4.36 6.2 8.64 12.46 13.14 18.57a162.28 162.28 0 0 1 19.7 42.3c3.23 11.81 4.12 24.12 4.63 36.27.05.13.06.25.08.38ZM312 258.26c-3.49-1.36-4.22-5.77-5.53-8.8-3.31-8.11-4.81-16.82-8.06-25v.06c-5.53-15.12-13.52-29.19-22.51-42.51-3.91-5.65-7.68-11.4-11.85-16.85-3.19-4-6.25-8.52-6.45-13.83.13-1.29-.11-3.05 1-3.92-.38-2.36 3-1.15 4.23-.72 3.79 1.38 7.74 2.66 10.92 5.22 6.09 5.1 10.49 11.81 14.86 18.36 6.07 10 11 20.67 15.68 31.37a172.11 172.11 0 0 1 10.23 31.75 64.77 64.77 0 0 1 1.47 6.71c.37 3.49 1.01 19-3.99 18.16Zm.46-1.91c1.76-2.88 1.47-6.53 1.74-9.77.41-4.92-.84-9.77-2.05-14.39-3.32-15.45-9.52-29.88-16.3-44.07a148 148 0 0 0-15.5-26c-2.84-3.56-5.8-7.19-9.64-9.68a45.86 45.86 0 0 0-10.49-4.21 1 1 0 0 1-.4.78c-1.56 8.89 6.78 15.06 10.83 22a326.9 326.9 0 0 1 19 29.58 180.82 180.82 0 0 1 12.87 29.76c1.86 6 3.3 12.21 5.63 18.07 1.28 2.66 1.65 6.25 4.31 7.93ZM322.27 242.78a1.24 1.24 0 0 1-.43-.67c-.44-1.94-.85-3.87-1.27-5.81-1.06-4.45-1.85-9-2.84-13.43-3.16-12.27-6.33-24.63-11.55-36.22-3.31-7.75-7.68-15.16-11.61-22.5-6.07-10.83-15-20.56-17.53-33a25.69 25.69 0 0 1-.34-6c.09-.93-.13-2.24.79-2.77-.53-3.1 4.14-.36 5.45 0a29.47 29.47 0 0 1 7.35 5.14 91.92 91.92 0 0 1 18.41 24.18c4.63 9.43 8.87 19.23 11.49 29.43 4.32 15.83 7.46 32.29 5.64 48.76-.36 1.86-.69 14.69-3.56 12.89Zm-1.12-13c.51 2.48 1.1 4.93 1.63 7.4 0 .19.08.38.13.57a115 115 0 0 0-.45-38.11 234.7 234.7 0 0 0-6.26-24.89c-5.07-14.56-11.46-29.13-22.12-40.47-4.4-4.6-8.69-9.34-14.92-11.25a1 1 0 0 1-.47.85c-1.06 10.71 5.45 20.2 11 28.78a172.44 172.44 0 0 1 11 18.51c10.37 18.1 16.31 38.32 20.46 58.63ZM343 219.25c-1-.12-1.22-1.11-1.37-1.92-.53-2.27-1-4.54-1.41-6.83a191.46 191.46 0 0 0-5.57-23.7c-4.27-15.66-11.84-30.07-18.68-44.7-2.81-5.56-5.88-10.88-8.74-16.4-2.85-5-6.44-9.53-9-14.67-2-3.58-4.75-8-2.92-12.12 0-1.7 2.08-2.75 3.59-2.94 5.22-.28 10.71 4.79 14.48 8 5.24 5.06 9.24 11.35 12.78 17.68 6.83 14 10.87 29.06 15.54 43.82 1.52 4.73 2.3 9.67 3.42 14.48a73.63 73.63 0 0 1 2.3 20.16c-.08 4.44.9 18.11-4.42 19.14Zm-3.23-20.88c1.42 6.07 2.41 12.22 3.73 18.31 2.55-4.81 1.75-10.42 1.89-15.66a74 74 0 0 0-2.35-21c-2.41-12.86-6.82-25.21-10.82-37.64-4.63-14.27-10.92-29-22.53-38.92-3.18-2-8.56-7.51-12.34-4.64v.12a1 1 0 0 1-.55 1.16c-.94 3.89 1.7 7.43 3.43 10.65 2.6 5.1 6.29 9.54 9 14.58 4.3 8.1 8.8 16.06 12.53 24.46 7.66 15.52 14.46 31.59 18.02 48.58ZM364.55 195.92c-3-.39-3.37-14.62-4.12-17.71a143.51 143.51 0 0 0-9.15-36.13c-5-12.74-11.88-24.61-19-36.28-2.45-3.57-5-7.33-7.51-10.79a52.23 52.23 0 0 1-5-7.6c-1.15-2.17-7.76-16-2.43-14.81 4.16-2.79 7.16-2.35 11.64-.49 6.73 2.6 10.45 9.17 14 15.07 5.68 9.28 11.14 18.64 16.1 28.31 5.23 8.93 6.7 19.15 8.59 29.14 1.71 9.16 3 18.42 2.42 27.75.15 3.47-1.93 23.86-5.54 23.54Zm.17-2.81a71.38 71.38 0 0 0 3.39-21.93c.53-9.47-1-18.83-2.8-28.09-1.35-6.31-2.1-12.88-4.45-18.91a138.53 138.53 0 0 0-6.86-13.87c-4.69-8.72-9.81-17.16-14.93-25.62-2.73-4.3-5.89-8.76-10.79-10.65-2.27-.89-4.68-1.81-7.09-1.18-1.29.71-2.6 1.41-3.9 2.1 1.6 9.86 8.35 17.58 13.78 25.58 5.3 7.33 9.41 15.44 13.94 23.22a155.3 155.3 0 0 1 14.53 38.16c2.88 10.19 2.81 20.94 5.18 31.19ZM379.31 155.06c-.73-.43-.76-1.4-.94-2.14-.75-4.29-1.18-8.68-1.62-13a90 90 0 0 0-7.3-26.2c-5.57-11.41-12.61-21.91-19.08-32.79-5.16-7.64-11.68-14.47-14.66-23.35-.68-1.43-1.52-7.46 1-6.3a4.91 4.91 0 0 1 2.44-1.6c1.85-.72 3.87-1.24 5.77-.42 6.36 2 11.1 6.9 15.56 11.62 5.74 6.5 9.43 14.45 12 22.6 2.37 7.44 4.18 15.11 6.23 22.63a244.5 244.5 0 0 1 4.68 32.89 42.19 42.19 0 0 1-1.66 13c-.4 1.19-.67 3.72-2.42 3.06Zm.37-6.64c.11.82.2 1.65.32 2.47 2.83-9.66.68-19.51-.53-29.2s-3.7-19.27-6.28-28.74c-2.05-7.76-4.44-15.67-8.49-22.63v.11a47.64 47.64 0 0 0-9.66-12.17 27.45 27.45 0 0 0-10.66-7c-1.94-.83-4.37 0-6 1.14a1.14 1.14 0 0 1-1.41.45c0 9.92 11.1 20.3 16 28.6 6.14 10.75 13.32 20.95 18.51 32.21a93.27 93.27 0 0 1 6.84 23.48c.55 3.86.81 7.48 1.36 11.28Z" fill="#110802"/><path d="M336.87 36.71h12.35c-8.12 8.29-16.08 16.82-24.16 25.18-6.34 6.71-11.95 14.06-18 21-10.28 12.25-19.69 25.16-29.16 38a.75.75 0 0 0-.45.61c-7.13 9.69-14.29 19.34-21.89 28.67-18.2 23.07-31.06 49.66-47.93 73.63-4.12 5.93-8.28 11.84-12.11 18-2.7 4.11-4.75 8.53-7.69 12.51-2.48 3.21-4.84 6.51-7.13 9.85a1.36 1.36 0 0 0-.67 1c-4.38 6.47-8.48 13.13-12.58 19.79a1 1 0 0 0-.79 1.14v.14q-1.4 2.26-2.8 4.53c-4.3 6.87-7.89 14.12-11.73 21.25-4.19 7.61-8.29 15.27-11.88 23.19-2.54 5.47-4.76 11.06-7.17 16.58-.79 0-1 .88-1.07 1.54-.06.4-.1.8-.13 1.19l-.48 1c-2.4 7.43-5.33 14.65-8.11 21.94 1.6-10.71 5.75-20.85 8.31-31.39 1.47-4.26 3.19-8.43 5-12.56.72-.78 2.32-2.89 1.81-4 2.25-4.91 4.59-9.78 6.77-14.74 5.5-11.16 11.55-22 17.78-32.79a1 1 0 0 0 .51-.88c4-6.93 8.09-13.82 12.15-20.73 10.23-16.86 20.13-34 30.62-50.74a10 10 0 0 0 1.18-1.38.81.81 0 0 0 .19-.79q5.39-8.45 10.98-16.73c.71-1.06 1.41-2.12 2.1-3.19a1.61 1.61 0 0 0 .87-1.32c15.72-24.14 30.17-49.13 48-71.8 4.78-6.08 9.46-12.24 14.21-18.35 1.47-1.76 3-3.49 4.54-5.21a2 2 0 0 0 1.07-1.19c2.67-3 5.36-5.91 7.86-9 8.85-9.94 17.1-20.37 26-30.31q6.61-7.01 13.63-13.64Z" fill="#308d8a"/><path d="M379.47 121.69c1.21 9.69 3.36 19.54.53 29.2-.12-.83-.22-1.65-.32-2.47-.55-3.8-.81-7.48-1.31-11.33a93.27 93.27 0 0 0-6.84-23.48c-5.19-11.26-12.37-21.46-18.53-32.21-4.91-8.3-16-18.68-16-28.6a1.12 1.12 0 0 0 1.4-.45c1.65-1.11 4.08-2 6-1.14a27.45 27.45 0 0 1 10.66 7 47.41 47.41 0 0 1 9.63 12.11c4 6.95 6.42 14.84 8.46 22.59 2.62 9.51 5.17 19 6.32 28.78ZM365.3 143.08c1.79 9.27 3.34 18.63 2.81 28.09a71.4 71.4 0 0 1-3.39 21.94c-2.37-10.25-2.3-21-5.19-31.19A155.3 155.3 0 0 0 345 123.76c-4.54-7.78-8.64-15.89-13.94-23.23-5.44-8-12.19-15.72-13.78-25.57 1.31-.69 2.61-1.39 3.9-2.09 2.41-.64 4.82.28 7.09 1.17 4.91 1.89 8.06 6.35 10.78 10.65 5.13 8.46 10.25 16.9 14.94 25.62a140.71 140.71 0 0 1 6.87 13.87c2.35 6.03 3.14 12.6 4.44 18.9ZM343.05 180a74.08 74.08 0 0 1 2.35 21c-.14 5.23.66 10.84-1.89 15.65-1.32-6.09-2.31-12.24-3.73-18.31-3.55-17-10.36-33.06-18-48.6-3.73-8.4-8.22-16.36-12.52-24.46-2.71-5-6.4-9.48-9-14.58-1.73-3.22-4.37-6.76-3.43-10.65a1 1 0 0 0 .55-1.16.83.83 0 0 0 0-.12c3.78-2.86 9.16 2.6 12.34 4.64 11.61 10 17.9 24.65 22.53 38.92 3.98 12.47 8.39 24.81 10.8 37.67ZM322.46 199.66a115 115 0 0 1 .45 38.11c0-.19-.09-.38-.13-.57-.53-2.47-1.12-4.92-1.63-7.4-4.12-20.31-10.1-40.53-20.51-58.58a171.64 171.64 0 0 0-11-18.5c-5.54-8.58-12.05-18.07-11-28.78a1 1 0 0 0 .47-.85c6.23 1.91 10.52 6.65 14.91 11.25 10.67 11.34 17.06 25.91 22.14 40.46a235.44 235.44 0 0 1 6.3 24.86ZM312.16 232.19c1.2 4.62 2.44 9.48 2 14.39-.27 3.24 0 6.89-1.74 9.77-2.66-1.68-3-5.27-4.28-7.94-2.33-5.86-3.77-12-5.63-18.07a180.82 180.82 0 0 0-12.87-29.76 329 329 0 0 0-19-29.58c-4.06-7-12.39-13.13-10.84-22a1 1 0 0 0 .4-.78 46.32 46.32 0 0 1 10.49 4.21c3.84 2.49 6.8 6.12 9.64 9.68a148 148 0 0 1 15.5 26c6.8 14.2 13 28.63 16.33 44.08ZM299.7 280.25c.13 4.05.49 8.12-.16 12.14a39 39 0 0 1-2.69 7.74v-.38c-.51-12.15-1.4-24.46-4.63-36.27a162.11 162.11 0 0 0-19.7-42.3c-4.5-6.11-8.78-12.37-13.14-18.57-3.13-4.72-6.54-9.27-9.31-14.22a61.6 61.6 0 0 1-6.3-17.39c5.32-5.23 21.94 14.48 25.3 18.93a142.12 142.12 0 0 1 21.52 43.49c2.6 8.11 5.26 16.2 6.6 24.64a139.75 139.75 0 0 1 2.51 22.19ZM280.06 271.71c.3 4 .8 8.13.82 12.14-.11 4.21-1.44 8.36-2.06 12.53-1.69-6.43-1.75-13.2-3.29-19.68-2.07-11-5.38-22-11.24-31.66a201.42 201.42 0 0 0-15.5-25.16c-3.47-4.55-7-9.37-10.68-13.88-2.71-3.88-6.23-7.92-7.06-12.73a.85.85 0 0 0 .21-.45c4.5 1.44 8.06 4.41 11.56 7.56a84.26 84.26 0 0 1 10.49 11.28c4 5.48 8.1 11 11.08 17.17 3.7 8.34 7.51 16.65 11.07 25.05a87.37 87.37 0 0 1 4.6 17.83ZM263.59 286.35c2 8.38 3.34 17 2.21 25.59-.34 2.6-.07 5.37-1.24 7.79-2.3-2.23-2.71-5.72-3.71-8.76a184.37 184.37 0 0 0-8.28-28.35c-4.34-10-9.84-19.5-15.18-29-3.86-7.58-7.73-15.09-12.29-22.27-2.72-5.63-6.81-10.69-8.41-16.81a1.09 1.09 0 0 0 .13-.17c7.24 1.37 12.81 6.86 17.59 12.18a99 99 0 0 1 14.29 19.36c6.83 12.67 11.53 26.43 14.89 40.44ZM252.64 334.56a54.17 54.17 0 0 1-2 18.43c-2.62-10.12-3.79-20.55-7-30.57A183.87 183.87 0 0 0 229.31 286c-4.87-9.59-10.94-18.45-17.18-27.18-4.29-7-10.32-13.92-10.29-22.59a.94.94 0 0 0 .18-.67c.22-.34.44-.67.67-1a5.44 5.44 0 0 1 1.21.08c6.82 1.72 12.3 6.72 16.28 12.38 6.72 9.1 11.4 19.52 15.82 29.91s9 20.54 11.38 31.54c2.02 8.64 3.9 17.35 5.26 26.09ZM237.62 351.72c1 9.85 3.68 20 .72 29.76-1-3-1.07-6.21-1.6-9.29-.74-5-1.6-10-2.74-14.91a141.67 141.67 0 0 0-17.13-41.17c-6.33-11.1-14.69-20.73-22.22-31C190 279.11 183 274.07 182 266c4.66-2.85 9.92 3.67 13.33 6.44 5.33 4.29 10.78 8.61 15.18 13.95a122.84 122.84 0 0 1 27.11 65.33ZM214.26 387.93c0 5.6.45 11.19.41 16.78-.19 5-1.68 10.15-3.27 14.94-1.44-6.71-2.05-13.53-2.82-20.35-1.05-7.57-1.76-15.19-3.08-22.72-1.43-10.16-4.63-19.89-8.17-29.48-5.33-12.86-12.33-24.91-19.18-37.05-4-7.19-9.4-14.45-9.56-23 19.15.4 30.62 25 35.66 40.83a200.33 200.33 0 0 1 10.01 60.05ZM199.65 421.3c.22 12.18-.33 24.43-3.51 36.26-.27-7.11.31-14.26-.8-21.32-1.39-11.34-2-22.84-4-34.12A190.93 190.93 0 0 0 180 361.91c-4.4-10.74-9.36-21.24-14.7-31.55-3.27-6.88-9.61-14.6-8-22.61 5.1 1.73 8.61 6.14 12 10.12 12 13.66 17.47 31.47 21.92 48.79 4.88 17.78 8.25 36.17 8.43 54.64ZM175.79 411.57a255.79 255.79 0 0 1-1.79 29.67c-1 5-2.08 10-3.44 14.88-.85-15.05.29-30.16-1-45.2a120.12 120.12 0 0 0-6.12-29.86c-2.41-7.09-4.87-14.22-8.42-20.85-4.09-8.09-10.66-15.18-11.69-24.53.48-.51.34-1.31.66-1.92 1.2-2.11 4.11-1.22 6.11-1.19a5.28 5.28 0 0 1 2.78 1.08 15.67 15.67 0 0 1 6.63 6.59 65.85 65.85 0 0 1 7.31 12.68c2.7 6.73 3.74 13.93 5.42 21 2.95 12.31 3.39 25.08 3.55 37.65Z" fill="#308d8a"/><path d="M154.72 395.83c.87 15.57-.45 31.17-1.58 46.7-.89 9.1-2.84 17.91-4.2 27-1 6.43-1.48 13.19-3.21 19.53a77.11 77.11 0 0 1-4.44 12.14 6.49 6.49 0 0 1-.57-3.54c.08-2.34.42-4.66.73-7 1.14-8.44 2.27-16.88 3.44-25.31a162.18 162.18 0 0 0 2-20.65 223.15 223.15 0 0 0 .32-23.42c-.92-13.42-2.08-27-5.53-40.08a89.81 89.81 0 0 0-4.46-12.77c-2-4.14-3.53-8.57-3.41-13.2.24-.6.49-1.2.74-1.8.42-.51.69-1.23 1.28-1.58 3.93-1.48 7.27 2.62 9.48 5.38 4.09 5.18 5.61 11.83 6.57 18.25.99 6.82 2.29 13.52 2.84 20.35ZM130.92 374.2c.77 8.06-2.44 15.74-4.79 23.33-5.41 16.58-14.09 31.78-21.78 47.38C93.59 466 83 487.11 74.61 509.24c-1.71 4.34-3.76 8.54-5.63 12.82A86 86 0 0 0 65.46 534c-1.19-18.32 2-36.52 5.91-54.36a359 359 0 0 1 17.36-62.05c3.35-9.07 8.4-17.22 13.91-25.16 3-4.17 5.84-8.51 9.68-12a39.9 39.9 0 0 1 9.6-6.9c-.83 3.77-1.06 7.13.74 7.79a1.23 1.23 0 0 0 1.19-.42 10.81 10.81 0 0 0 1.4-2.95c.82-2.23 1.7-4.44 2.57-6.65a10.72 10.72 0 0 0 2.47 1.34 4.38 4.38 0 0 1 .63 1.56ZM127.78 351.53a8.57 8.57 0 0 1-2 4.11 14.15 14.15 0 0 1-5.25 4.82c-3.59 2.12-7.15 4.23-10.79 6.27a172.6 172.6 0 0 0-29.22 23.09 118.31 118.31 0 0 0-12.68 14.68c-4.57 6.74-8.49 13.93-12.68 20.92a306.12 306.12 0 0 0-16.76 33c-2.44 5.13-4.1 10.76-6.79 15.79-2.47-5.17 2.08-16.6 3.84-22.1 6.8-19.75 17.33-37.95 29-55.2 13.9-22.34 33.71-49.02 63.33-45.38Z" fill="#308d8a"/><path d="M136.08 330.14c-.36.8-.72 1.59-1.07 2.39-2 2.14-5 3.24-7.64 4.3-2.38 1-4.83 1.75-7.27 2.53-9.7 3.17-19.45 6.42-28.25 11.7-19.63 11.78-38 25.52-54.11 41.87-7.39 7.49-13 16.5-20.06 24.29 4.85-12.83 14.25-23.33 23.32-33.42a204.94 204.94 0 0 1 54.6-43.46c6.56-3.48 13-7.13 20.21-9.2 4.92-1.39 15.88-4.65 20.27-1ZM131.35 302.84c5.33.09 10.9-.54 16 1.35-4.34 6.87-13.73 7.37-21 8.94-6 1-11.82 2.31-17.7 3.59-13.43 2.57-26.3 7.32-38.85 12.67-14 6.45-26.66 15.44-39.64 23.7-9.67 6.33-19.46 12.6-27.82 20.63.38-.77.82-1.52 1.26-2.25 4.51-8.35 11.19-15.2 17.53-22.17 5.28-4.79 11.18-8.85 17-13a184.68 184.68 0 0 1 63.26-28.39c9.8-2.67 19.72-4.83 29.96-5.07ZM160.57 281.14c-4.8 2.92-10.72 3-16.07 4.33-8.76 1.83-17.57 3.34-26.42 4.74-19.58 3.68-39.55 5.51-58.84 10.52-7.16 1.71-14.16 4.06-21.13 6.42-8.68 3.7-17.08 8-25.56 12.09 15.22-13.57 34.15-22.37 52.89-30 21.29-7.91 44-13.63 66.84-12.48a91.48 91.48 0 0 1 28.29 4.38ZM155.55 255.65c5.95.75 12.3 1 17.55 4.18-5.23 5.07-13.2 4.6-20 5.07-16 1.07-32-1-48-1.2-24.08-1.06-47.61 5.36-71 10.36 3.58-3.58 8.63-5.31 13.22-7.29a169.86 169.86 0 0 1 22.5-6.64 215.62 215.62 0 0 1 57.86-6.25c9.32.26 18.58 1.12 27.87 1.77ZM168.61 223.59c7.49 1.31 14.7 3.74 22 5.94-6 7.19-17.85 6.24-26.43 6.44-7.94.17-15.9.13-23.82.66-19 2-37.58 6.4-56.48 8.89-7.44.68-14.75 2.6-22.27 2.44h-3.14a527 527 0 0 1 52.27-19.15c9.38-2.73 19.11-4 28.78-5.17 9.63-1 19.48-1.48 29.09-.05ZM204.87 208.19c-4.3 4.9-20.21 2.53-26.75 2.64-11.13-.29-22.21-1.08-33.34-1.36-13.43.13-26.6 2.49-39.94 3.95-6.1.94-12.12 2.37-18.22 3.32-4.19.67-8.46 1.06-12.67 1.79 2-1.08 4-2.15 6-3.06 14-6.42 29.05-9.75 44.07-12.7 10.2-2.13 20.45-4.15 30.87-4.85 11.49-.92 23.08.25 34.41 2.2 4.3 1.24 13.47 4.12 15.57 8.07ZM218.16 185a1.36 1.36 0 0 1 .71 1.14 19.62 19.62 0 0 1-7.44.93c-5.5.28-10.86-.84-16.22-1.95-8.71-1.48-17.39-3.21-26.16-4.36-24.69-3.64-50.49-4.29-74.43 3.62 2.32-2.39 5.77-3.18 8.81-4.31a81.86 81.86 0 0 1 9.3-2.43c5.19-1.73 10.62-2 16-2.85 7.58-1.3 15.32-1.34 23-2a219.9 219.9 0 0 1 28.7.52c9 .64 18 1.89 26.45 5.41a41.72 41.72 0 0 1 11.28 6.28ZM233.71 163.1a5.71 5.71 0 0 1-3.15 1.53c-7.06.27-14-2-20.87-3.65-10.82-2.75-21.54-6.2-32.79-6.79-11.22-.41-22.46-.05-33.68-.29-4.47-.25-9.08-.75-13.57-.77-11.45-.13-22.8-3.64-34.22-1.78 4.16-2.78 9.24-3.44 14-4.77 12.58-3 25.51-3.58 38.36-5a118.63 118.63 0 0 1 25.76-.19c10.82.84 21.65 2 32.16 4.81a57.28 57.28 0 0 1 22.48 10.63c2.03 1.87 4.92 3.4 5.52 6.27ZM247.77 140.75c-2.64.86-4.43 3.51-7.3 3.65-19.45-.61-37.4-9.44-56.06-14-12.92-4-26.41-4.93-39.72-6.82-5.8-.66-11.6-1.46-17.42-1.85-6.86-.78-13.86-2-20.72-.53 3.3-2.36 7.6-2.82 11.45-3.94 7.88-1.9 16-2.34 24.11-2.88a196.61 196.61 0 0 1 33 1 222.92 222.92 0 0 1 34.06 7.94c9.99 3.49 32.45 9.31 38.6 17.43ZM264.43 115.85a32.5 32.5 0 0 1-5.63 1.06h.13c-9.41.74-18.51-2.78-27.28-5.79-8.47-2.83-16.91-5.76-25.4-8.53a486.61 486.61 0 0 0-55.91-15c-6.94-1.42-13.92-2.63-20.93-3.69-2.52-.42-5.64.12-8-.74a2.16 2.16 0 0 1 1.64-1.08c2.3-.49 4.63-.79 7-1.08 6.31-.54 12.68-.2 19-.09 23.78.54 47 6.59 69.82 13 6.83 1.78 13.49 4 20.26 6 9.67 2.62 19.98 6.88 25.3 15.94ZM287.3 88.94a16.09 16.09 0 0 1-5.55 1.8c-9.52-.25-18.34-4.83-27.19-7.93-15.09-5.37-29.83-11.72-45.27-16.08-10.58-3.25-21.71-4.4-32.74-4.88-8.25-.66-16.49-1.46-24.75-2.11-6.56-.73-13.27-.35-19.55-2.79 12.25-6.51 32.43-5.36 46.17-4.59 20.82.54 41.3 4.87 61.12 11.15 12.88 4.1 26.2 7.85 37.72 15.12 3.56 2.53 9.33 5.67 10.04 10.31Z" fill="#308d8a"/><path d="M340.82 101.55c-3.45-3.91-4.92-9.1-8.07-13.16-.66-1.08-3.58-3.55-1.92-4.63a1 1 0 0 1 1.25.45c.67 1.46 1.84 2.47 2.72 3.79 2.21 3 3.53 6.51 5.47 9.67a30.73 30.73 0 0 0 2 2.67.94.94 0 0 1-1.43 1.21ZM355.91 133.06c-.91-2.68-1.78-5.4-2.78-8s-2.66-5.17-3.41-8a.94.94 0 0 1 1.79-.57c1.4 4.2 3.74 7.92 4.91 12.16l1.29 3.81a.94.94 0 0 1-1.8.57ZM360.1 75.8c-.94-2.12-2-4.19-3-6.28a1 1 0 0 1 .46-1.25.94.94 0 0 1 1.25.45c1 2.1 2 4.15 2.94 6.28a.94.94 0 0 1-1.65.8ZM326.67 139.6c-1.87-4.39-4.07-8.6-6-13-2.74-4.24-5-8.91-8.46-12.6-.57-.71-1.93-1.26-1.28-2.3a.94.94 0 0 1 1.31-.22c3.14 2.56 5.05 6.14 7.16 9.51 2.55 3.5 4.21 7.44 5.92 11.39a60.5 60.5 0 0 1 3.1 6.63.94.94 0 0 1-1.79.57ZM335.13 166.33c-.17-1.11-1.6-3.92 0-4.32a1 1 0 0 1 1.09.77 17.51 17.51 0 0 0 .69 3 .94.94 0 0 1-1.78.55ZM340.58 189.29a84.28 84.28 0 0 0-1.69-9.21 15.49 15.49 0 0 0-.65-2 .94.94 0 0 1 .62-1.18c1.34-.32 1.45 1.57 1.77 2.43a83.57 83.57 0 0 1 1.81 9.67.94.94 0 0 1-1.86.32ZM294.93 151c-2.17-3.63-4.13-7.56-6.88-10.78-.89-.82.38-2.22 1.27-1.38 2.95 3.3 4.93 7.36 7.19 11.14a.94.94 0 0 1-1.58 1.02ZM319.64 205.88c-1.65-5.69-2.44-11.53-4.05-17.21-.11-1.17-1.83-4.2-.13-4.57a.94.94 0 0 1 1.08.76c1.5 5.33 2.64 10.81 3.8 16.21.35 1.42.72 2.83 1.09 4.24a1 1 0 0 1-.61 1.18.94.94 0 0 1-1.18-.61ZM280 170.49a36.71 36.71 0 0 0-3.13-4.23c-.53-.57-1.62-1.07-1-2 1.68-1.82 4.74 4.06 5.72 5.19a.94.94 0 0 1-1.59 1.04ZM303.91 218.1c-1.61-3.86-2.81-8-4.24-11.92a39.42 39.42 0 0 1-2.4-7.19.94.94 0 0 1 1.85-.32 39 39 0 0 0 2.23 6.67c1.51 4 2.69 8.21 4.35 12.2a.94.94 0 0 1-1.79.56ZM247.8 176.76c-.14-.79-.3-1.58-.47-2.35-.08-.32-.16-.63-.26-.94-1.13-1.11.74-2.41 1.55-1.14a18.3 18.3 0 0 1 1 4.12 1 1 0 0 1-.77 1.08 1 1 0 0 1-1.05-.77ZM253.63 179.78a18.82 18.82 0 0 0-.52-3.76 1.07 1.07 0 0 1-.7-1.58c.59-.79 1.48-.21 2.06.23 1.05 1.45.8 3.39 1.05 5.05a1 1 0 0 1-.91 1 1 1 0 0 1-.98-.94ZM258 182.93c-.08-1.1-.19-2.21-.16-3.3.19-1-.21-3 1.24-3a.94.94 0 0 1 .84 1 20.33 20.33 0 0 0 0 5.17 1 1 0 0 1-1.92.13ZM269.27 203.87A27 27 0 0 0 266 200a1 1 0 0 1 .12-1.33c.57-.49 1.25-.07 1.62.44a25.4 25.4 0 0 1 3.07 3.72.94.94 0 0 1-1.54 1.04ZM287.85 241.05a99.11 99.11 0 0 0-6.4-15.11.94.94 0 0 1 1.7-.8 98.81 98.81 0 0 1 6.49 15.34.94.94 0 0 1-1.79.57ZM271 119.76a1 1 0 0 1-.22-1.31c2.06-3 4.39-6 6.69-8.73s3.83-5.57 5.86-8.29c1.51-2.26 3.75-4.17 4.59-6.8a1 1 0 0 1 1.13-.7c3.11 1-5.5 9.62-6.28 11.59-2.36 3.81-5.34 7.06-8 10.6-.84 1.12-1.64 2.27-2.45 3.42a1 1 0 0 1-1.32.22ZM260 78.47c-5.63-3-11.29-6.08-17.26-8.24a.94.94 0 0 1 .43-1.83c6.16 2.16 11.92 5.4 17.71 8.41a.94.94 0 0 1-.88 1.66ZM179.68 89.6c-3.05-.85-6-2.08-9.13-2.13a1 1 0 0 1-1-.91c0-1.08 1.19-1 2-1 3 .3 5.89 1.39 8.77 2.23a.94.94 0 0 1-.64 1.81ZM240.37 109.57c-8.46-3.69-17.4-6-26.2-8.68-3.91-1.41-7.9-2.52-11.89-3.65-2-.73-3.85-1.82-5.95-2.18a.94.94 0 0 1 .43-1.83c2.53.42 4.74 1.85 7.18 2.58 5.71 1.33 11.13 3.61 16.78 5 6.83 2.16 13.74 4.07 20.31 7a.94.94 0 0 1-.66 1.76ZM193.54 125.47a109.16 109.16 0 0 1-12.91-2.69c-1.76-.4-3.42-1.36-5.22-1.46a1 1 0 0 1-1-.91c0-1.13 1.3-1 2.1-.88a104.3 104.3 0 0 0 10.17 2.81c2.41.52 4.84.89 7.27 1.3a1 1 0 0 1 .7 1.13 1 1 0 0 1-1.11.7ZM231.62 138.74a66.93 66.93 0 0 0-18.13-7.1.94.94 0 0 1-.06-1.88c2.89.3 5.61 1.59 8.37 2.44a50.67 50.67 0 0 1 10.7 4.88.94.94 0 0 1-.88 1.66ZM233 144.59c-1.54-1.35-3-2.78-4.65-4a.93.93 0 0 1-.74-.88c.51-3.27 5.49 2.76 6.67 3.49a1 1 0 0 1-1.28 1.39ZM238.87 143.2a61 61 0 0 1-4-4.88c-.56-.81-1.89-2.41-.46-3 1.23-.31 1.36 1.37 2.06 2 1.22 1.61 2.52 3.18 3.87 4.68a.94.94 0 1 1-1.44 1.21ZM243.64 140.22c-1-1.12-2-2.21-3-3.34a1 1 0 0 1 .11-1.33 1 1 0 0 1 1.33.11c1 1.13 2 2.22 3 3.34a1 1 0 0 1-1.44 1.22ZM215.48 162.78c-1.08-1.39-2-2.76-3.06-4.1a.94.94 0 0 1 1.44-1.21c.9 1.15 1.64 2.18 2.45 3.29.46.61 1.29 1.43.5 2.13a1 1 0 0 1-1.33-.11ZM222 164.66c-1.5-2-2.92-4.1-4.39-6.13-.49-1-2.25-2.33-1-3.32a.94.94 0 0 1 1.29.28c.83 1.37 1.8 2.64 2.73 3.94s1.82 2.61 2.7 3.8a1 1 0 0 1 0 1.54 1 1 0 0 1-1.33-.11ZM227.82 164.7c-1.61-2.34-3.24-4.66-4.86-7a.94.94 0 0 1 .28-1.3 1 1 0 0 1 1.31.28c1.62 2.32 3.26 4.64 4.86 7a.94.94 0 0 1-1.59 1.02ZM149.6 148.14c0-1 1.09-1 1.84-1a30 30 0 0 0 3.4-.66 1 1 0 0 1 1.09.77c.07 1.5-2.1 1.22-3.1 1.6-1.02.01-3.01.81-3.23-.71ZM200.14 152.47c-4.76-1.47-9.71-1.77-14.57-2.77-1.1-.41-4.86-.51-4.51-2.08a1 1 0 0 1 1.13-.71c6 1.83 12.39 1.89 18.38 3.73a.94.94 0 0 1-.43 1.83ZM199.18 181.66c-1.64-.26-3.29-.47-4.92-.79a.93.93 0 0 1-.7-1.12c.34-1.22 1.79-.51 2.64-.43 1.05.16 2.11.3 3.16.47a.94.94 0 0 1-.18 1.87ZM150.79 201.45a1 1 0 0 1 .91-1c1.59-.12 3.2-.14 4.8-.16 1.76 0 3.53 0 5.29.12a.94.94 0 0 1-.18 1.87q-3-.17-6.09-.09c-1.27 0-2.55.05-3.81.14a1 1 0 0 1-.92-.88ZM194.61 207.35a110.89 110.89 0 0 0-15.56-4c-.63 0-1.39-.17-1.41-.95a1 1 0 0 1 .9-1 97.39 97.39 0 0 1 16.73 4.14.94.94 0 0 1-.66 1.81ZM238.58 240a43.18 43.18 0 0 0-3.92-6.79c-.45-.87-2.08-1.85-1.07-2.85 1.19-.83 1.9 1 2.56 1.69a44.33 44.33 0 0 1 4.14 7.14 1 1 0 0 1-1.71.81ZM256.8 279.63c-.16-1-1.46-2.69-.07-3.3a1 1 0 0 1 1.18.62c.17 1 1.46 2.69.07 3.29a1 1 0 0 1-1.18-.61ZM256.77 226.88c-1.75-3.28-3.91-6.32-5.87-9.46a.94.94 0 1 1 1.59-1c.95 1.53 1.94 3 2.94 4.55s2 3.24 2.93 4.91a.94.94 0 0 1-1.59 1ZM218.94 257.32c-1.37-2.17-2.78-4.32-4.22-6.28-.05-.07-.11-.14-.11-.15a35.71 35.71 0 0 0-3.87-4.54c-.89-.82.39-2.22 1.27-1.38 3.41 3.33 6 7.35 8.51 11.34a.94.94 0 0 1-1.58 1.01ZM224.13 268.2c-.7-1.33-1.4-2.66-2.06-4a.94.94 0 0 1 1.7-.8c.66 1.36 1.36 2.69 2.06 4a.94.94 0 0 1-1.7.8ZM213.2 300.91a72.81 72.81 0 0 0-8.49-11.84 38.16 38.16 0 0 0-7.54-7.74.94.94 0 0 1 1.09-1.54 37.07 37.07 0 0 1 7.46 7.55c2 2.49 4.22 4.76 5.87 7.49 1.1 1.67 2.15 3.37 3.19 5.07a1 1 0 0 1-.29 1.3.94.94 0 0 1-1.29-.29ZM192.29 322.29a80.38 80.38 0 0 0-4.06-7.25.94.94 0 0 1 1.59-1 81.17 81.17 0 0 1 4.17 7.46.94.94 0 1 1-1.7.8ZM226 324c-1.5-3.43-3.35-6.75-4.16-10.32a.94.94 0 0 1 1.87-.06 47.52 47.52 0 0 0 2 5.24c.62 1.46 1.29 2.91 2 4.34a.94.94 0 0 1-1.7.8ZM171.19 290.64c0-1.1-.95-3.27.67-3.54 1.52.13.85 2.19 1.19 3.22a.94.94 0 0 1-1.86.32ZM175.41 292.31c-.25-1.13-1.41-4.49.35-4.72a.94.94 0 0 1 1 .91 10.24 10.24 0 0 0 .48 3.25.94.94 0 0 1-1.83.56ZM179.79 297.09a32.44 32.44 0 0 1-.59-6.74 1 1 0 0 1 1-1 1 1 0 0 1 .85.91c0 1.21 0 2.41.14 3.62-.12 1.14 1.2 3.57-.35 3.95a1 1 0 0 1-1.05-.74ZM176.83 342.34c-1.87-4-3.72-8.06-5.48-12.13a42.68 42.68 0 0 1-2.2-5.59.94.94 0 1 1 1.8-.56c2.05 6 5 11.67 7.58 17.48a.94.94 0 0 1-1.7.8ZM159.8 354.06c-.44-1.63-5.26-8.92-3.07-9.55a1 1 0 0 1 1.18.61 24.78 24.78 0 0 0 2 4.76c.33 1.13 2.63 3.92 1.16 4.63a.94.94 0 0 1-1.27-.45ZM147.67 385.2c-.46-5.79-2.28-11.37-3-17.1a.94.94 0 0 1 1.88-.06c.77 5.63 2.49 11.14 3 16.84a.94.94 0 0 1-1.88.32ZM92 438.54a1 1 0 0 1-.39-1.27c2-3.95 3.81-8 5.77-11.95 2.43-4.78 5.45-9.29 7.5-14.24 2-4.25 3.58-8.66 5.81-12.8 1-1.42 4.92-9.85 6.64-8.54a1 1 0 0 1 .22 1.31c-7.65 9.68-10.32 22-17 32.29-2.06 3.71-3.76 7.62-5.62 11.44-.55 1.13-1.11 2.25-1.67 3.37a1 1 0 0 1-1.26.39ZM80.24 472.94c-1.58-.46 0-3.37.14-4.52.91-3.7 2.33-7.33 2.73-11.13a1 1 0 0 1 .9-.85c2.25.07-.09 5.46-.25 6.81-.81 3-1.71 6-2.39 9a1 1 0 0 1-1.13.69ZM124.89 390a20.49 20.49 0 0 0-.92-4.42c-.85-1.12.55-2.44 1.46-1.3a16.09 16.09 0 0 1 1.32 5.4 1 1 0 0 1-.77 1.08.94.94 0 0 1-1.09-.76ZM127.8 386c-.55-2.43-1-4.87-1.53-7.18 0-.16-.07-.31-.11-.46-.92-.85.29-2.5 1.31-1.6 1.28 2.59 1.36 6.09 2.18 8.92a.94.94 0 0 1-1.85.32ZM128.48 375.19a13.55 13.55 0 0 1-.44-1.63 1 1 0 0 1 1.27-.92c.76.32.69 1.32 1 2a1 1 0 0 1-1.83.55ZM96.5 368.91a.94.94 0 0 1 .11-1.32 87.91 87.91 0 0 1 10.69-7.48c1.17-.52 4-3.36 4.89-1.5a1 1 0 0 1-.56 1.16c-2.73 1.37-5.23 3.18-7.83 4.77-2.08 1.38-4 2.94-6 4.48a.94.94 0 0 1-1.3-.11ZM109.2 308.81a1 1 0 0 1 .77-1.08 48.83 48.83 0 0 1 10.76-1.47.94.94 0 0 1 .07 1.88 51.64 51.64 0 0 0-6.73.64c-1.34.21-2.64.57-4 .82a1 1 0 0 1-.87-.79ZM74.27 319.55a1 1 0 0 1 .45-1.25c2-.9 4-1.81 6-2.8 1.28-.46 6.89-4 7.4-2.07a1 1 0 0 1-.61 1.18c-4.17 1.36-7.92 3.75-12 5.39a1 1 0 0 1-1.24-.45ZM64.06 292a.94.94 0 0 1 .77-1.08c2.66-.5 5.24-1.37 7.88-2a.94.94 0 0 1 .32 1.85c-2.64.61-5.22 1.5-7.88 2a1 1 0 0 1-1.09-.77ZM90 287a.94.94 0 0 1-.16-1.86 63.73 63.73 0 0 1 12.5-2.38c9.75-1 19.59-.81 29.32-2a.94.94 0 0 1 .32 1.86c-13.91 1.75-28.34.38-41.98 4.38ZM106.64 257.63a.94.94 0 0 1 .61-1.18 27.22 27.22 0 0 1 6.48-.9.94.94 0 0 1 .06 1.88c-.57 0-1.13 0-1.64.08a28.42 28.42 0 0 0-4.46.76.94.94 0 0 1-1.05-.64ZM145.7 259.92c-2.89-.21-5.78-.52-8.68-.65-1.25 0-2.5 0-3.74.08a1 1 0 0 1-1-.91 1 1 0 0 1 .91-1 42.5 42.5 0 0 1 6 0l6.7.53a.94.94 0 1 1-.19 1.88ZM89.06 239.22c-.1-1.52 5.19-2.1 6.45-2.5 6.35-1.19 12.7-2.38 19-3.71 5.65-.69 11.2-2.07 16.88-2.56a.94.94 0 0 1 .06 1.87c-12.61 1.59-25.21 4.27-37.66 6.69-1.29.26-2.54.73-3.79 1.11a.93.93 0 0 1-.94-.9ZM165.3 229.86a119.26 119.26 0 0 0-16.37-.25.94.94 0 0 1-1.39-.79c0-.74.73-1.07 1.37-1.1a124 124 0 0 1 16.58.27.94.94 0 0 1-.19 1.87ZM273.47 81.45c-.36-1.17-2.78-3.65-.59-4.17a1 1 0 0 1 1 .88c.49.8.91 1.64 1.33 2.49a.94.94 0 0 1-1.74.8ZM279.16 86.67a45.9 45.9 0 0 1-2.42-6.55.94.94 0 0 1 1.26-1.38 2.51 2.51 0 0 1 .74 1.34 36.82 36.82 0 0 0 2.13 5.79.94.94 0 0 1-1.71.8ZM282.6 89.17c-.35-1.19-2.34-4.62-.5-5.14 1.41-.17 1.1 1.78 1.54 2.58.23.94 1.43 2.33.23 3a1 1 0 0 1-1.27-.44ZM211.28 209.1a1 1 0 0 1-.39-1.27 66.16 66.16 0 0 1 5-7.82c.54-1.95 3-.24 1.46 1.18a47.69 47.69 0 0 0-2.95 4.41c-.83.9-1.68 4.21-3.12 3.5ZM110.29 429.08c-.13-2.05-.37-3.84-.52-5.82a.94.94 0 0 1 1.88-.07c0 .78.14 1.53.2 2.18.13 1.21.23 2.43.32 3.65a.94.94 0 1 1-1.88.06ZM113.44 419.42c-.17-2.59-.41-5.18-.47-7.77a.94.94 0 1 1 1.88-.07c0 1.27.12 2.53.2 3.79s.17 2.66.28 4a.94.94 0 0 1-.91 1 1 1 0 0 1-.98-.95ZM117.28 414.93c-.19-2.75-.54-5.5-1-8.22a.94.94 0 0 1 1.87-.2c.2 1.32.46 2.64.6 4s.29 2.92.4 4.39a1 1 0 0 1-.91 1 1 1 0 0 1-.96-.97ZM146 340.07a40.27 40.27 0 0 0-.44-5.51 1.12 1.12 0 0 1 .36-1c2.49-1.52 1.63 5.15 2 6.45a.94.94 0 0 1-1.92.06ZM150 337.6c-.19-1.56-.25-2.87-.5-4.36-.83-.83.4-2.08 1.31-1.43a2 2 0 0 1 .61 1.45c.2 1.46.31 2.78.45 4.15a.94.94 0 0 1-1.87.19ZM154.37 340.9a37.84 37.84 0 0 0-.92-6.34.94.94 0 0 1 .87-1c1.78-.08 1.47 4.48 1.78 5.7.05.83.52 2.16-.64 2.39a1 1 0 0 1-1.09-.75Z" fill="#110802"/><path d="M142.85 327.48c0-1.29.87-2.46 1.35-3.64 2.07-4.4 4.46-8.64 6.66-13a165 165 0 0 1 9.14-16.43c3.26-5.84 6.92-11.29 10.18-17.06 3.14-5 6.14-10 9.18-15.08 4.45-5.75 7.54-12.23 10.92-18.61 1.89-2.9 4.25-5.74 5.92-8.75 2.05-3.67 4.12-7.32 6.3-10.91 9.28-14.3 18.13-28.84 27.45-43.08 4.05-6.64 8.8-12.82 13.18-19.26 5.31-6.91 11-13.47 15.92-20.64 5.14-7.7 10.75-15.08 16-22.68 6-7.24 11.86-14.67 17.62-22.1 6.62-8.85 13.19-17.75 20-26.45 3.44-4.09 7.25-7.85 10.8-11.85 4.26-5 8.82-9.81 13.51-14.47 1.85-2 4.08-3.62 5.84-5.72a.94.94 0 0 1 1-.25c.89-.94 3.87-5.86 4.81-2.86 1.39-.19 1.52 1.48.69 2.24-2.25 2.69-5 4.89-7.35 7.46a1.07 1.07 0 0 1-.33.57c-4.15 3.77-7.38 8.38-11.41 12.27a10.35 10.35 0 0 1-3.46 3.35c-3.38 3.35-6.59 6.87-9.84 10.33q-8.13 10.52-16.9 20.49c.92 1.15-1.32 2.68-1.87 3.64-1 1.28-2 2.58-3.06 3.84-.51 1.79-2.31 3.1-3.38 4.61-2.18 2.64-4.28 5.39-6.43 8-3.16 3.53-5.1 7.87-8.05 11.48-4.67 5-8.31 10.9-12.78 16.11-3.32 4.38-6.82 8.63-10 13.1-2 3-3.61 6.3-6 9.08-3.45 4.06-5.93 8.75-8.58 13.33-7.16 10.62-13.41 21.81-19.72 32.92-3 4.52-6.48 8.64-9.65 13-1 1.56-1.49 3.64-3 4.77-2 3.81-4.81 7.4-7.11 11-3.42 6.13-7.38 11.94-10.93 17.95-4.67 6.47-9.7 12.67-13.58 19.63-3.7 5.72-7.9 11.09-11.09 17.12-3.15 5.5-6.82 10.43-9.26 16.28-3.13 6.4-7.25 12.17-10.16 18.66-.47.79-.58 1.94-1.47 2.37a1 1 0 0 1-1.06-.76Zm96.64-157 .79-1.29-.06.11c.1-.17.2-.34.31-.51-.38.56-.76 1.11-1.13 1.67ZM337 46.33c-.54.52-1.06 1.05-1.58 1.58l1.67-1.39.26-.24-.17-.13Z" fill="#110802" fill-opacity=".25"/><path d="m216.72 212.53-1.22 1.6a1.21 1.21 0 0 1 1.22-1.6ZM202.67 233.11c-.59.86-1.17 1.72-1.73 2.57.06-1.79.76-2.49 1.73-2.57ZM288.46 89.33c-.16 2.14-4.93 1.77-6.52 1.83-3.55.28-6.82-1.2-10.25-1.84a55.24 55.24 0 0 1-8.69-2.63c-.81-.3-2.14-.41-2.27-1.47-1.52-.43-3.56.17-4.69-1.1a.94.94 0 0 1 1.43-1.19c5.13.44 11.62 2.33 15.61-1.89 1.08-1.29.12-2.82.2-4.28.33-2.44 3-.42 4.18.18 5.09 2.39 9.86 6.71 11 12.39ZM264.48 114.46a2.39 2.39 0 0 1 .4 1.29c0 2-8.79 1.72-10.52 1.92a90.81 90.81 0 0 1-13.63-1.78c-2-.57-4.41-.7-5.9-2.21-.56-.86.23-1.73 1.13-1.76 3.71-.92 14.39-1.36 11.39-7.43-.4-.34-.5-1.09-.85-1.41s-.77-1.2-1.42-1.18a1 1 0 0 1-.08-1.9c1.71-.3 2.91 1.67 3.73 2.91a36.43 36.43 0 0 1 11 5.39 28.14 28.14 0 0 1 4.75 6.16ZM370.9 78.57c1.86 4.31 3.68 9 3.66 13.69a10.4 10.4 0 0 0-.34 1.85 1 1 0 0 1-1.88.31 73.12 73.12 0 0 0-12.66-21.92c-2.23-2.93-4.91-5.74-8.59-6.7-1.81-.52-3.72-1.47-5.62-.87-1.64 1.08.06 4.35-2 4.93a1.34 1.34 0 0 1-1.29-.65 32.82 32.82 0 0 1-1.76-3.38c-2.24-1.77-2.71-5-3.91-7.52-2.75-5.41 1.09-7 5.93-7.16.23-1.92 2.87-.59 4-.35 1 .48 3.16.52 3.23 1.92 2.61 1.32 4.52 3.75 7 5.21 7.93 4.07 11.19 12.86 14.23 20.64ZM359.12 117.53c.4 1.07 1.92 2.45.91 3.52a1 1 0 0 1-1.4-.08c-.79-1-1.61-2.15-2.31-3.27a30.44 30.44 0 0 1-3.52-4.89 50.23 50.23 0 0 1-5.86-8 45.8 45.8 0 0 0-7-10.94 23.7 23.7 0 0 0-3.4-4.84h-.05c-2.48-2.42-5.26-5.21-8.84-5.65-4.32.47-3.94 4.28-3.29 7.53 1 1.1-.66 2.33-1.55 1.17a7.5 7.5 0 0 1-.68-3 1 1 0 0 1-1-.73c-.31-1.11-.91-2.11-1.33-3.19-1.19-3.5-3.87-6.84-3.74-10.62.77-1.81 3.08-2.27 4.81-2.69a9.88 9.88 0 0 1 8 1.51A25.65 25.65 0 0 1 339 83.57c3.1 4.84 5.95 9.81 9 14.67 3.95 5.55 7.08 11.81 10.33 17.7ZM319.69 116.65l-.36-.53c.09.17.18.34.26.51Zm16.56 35.28a1.88 1.88 0 0 1-2.89.72c-.49-1.48-.86-3-1.26-4.49-.17-.67-.35-1.35-.53-2-1.82-2.74-2.22-6.33-3.55-9.33-3.12-4.81-5.24-10.14-8.67-14.76-2.08-3.22-4.6-6.46-8.14-8.12-1.47-.55-3.55-1.33-5-.37a14.66 14.66 0 0 0 .87 7.9 1 1 0 0 1-.35 1.2c-1.85.76-2.11-2.54-2.34-3.74-.92.13-1.2-.92-1.55-1.56q-1.67-2.75-3.16-5.59c-1.61.24-1.59-2.07-2.1-3.11-.79-2.34-2.41-5.15-1.31-7.6-.48-3.31 1.63-5.12 4.83-4.81 2.48.41 4.4 2.18 6.36 3.61.82.63 2.41 1.61 1.37 2.73 4.08 3.94 8.49 7.71 12 12.17a86 86 0 0 1 10.68 19.67 74.42 74.42 0 0 1 2.94 8.34c.56 2 1.23 4 1.74 6a1.19 1.19 0 0 1-.49 1.61 10.53 10.53 0 0 1 .55 1.53ZM313.39 164c.8 1.86 7 16.39 3 15.5-1.49-1.25-2.12-3.47-3.14-5.06-4.14-6.71-7.22-14-11.8-20.34-2.05-2.82-3.82-5.82-6.08-8.49-1.56-2.16-3.34-4.31-6-5.09-1-.24-1.66-.65-1.75.76-.4 2.61.19 5.25.57 7.81a.94.94 0 0 1-.76 1.72 1.88 1.88 0 0 1-1.11-1.28c-2.2 1.51-4-7.28-5-8.75a80.32 80.32 0 0 1-2.56-11c-.11-1.46-1.58-5.65-.93-7.46.17-.22.34-.44.5-.67a2 2 0 0 1 1.85.08 54 54 0 0 1 10.47 7.87 54.22 54.22 0 0 1 11 12.58c2.18 3.43 4.66 6.66 6.52 10.28s3.45 7.73 5.22 11.54ZM301.42 197.89c.31 1.17 1.9 3.82-.32 3.76-.66-.16-.91-1-1.33-1.46a43 43 0 0 1-3.57-5.59c-2.15-3.66-4.22-7.36-6.08-11.17-4-8.06-8.93-15.89-15.69-21.86-1.15-.81-4.51-3.33-5.35-1.31-.32 4.48 1.38 8.8 3.27 12.77.33.66 1.24 1.34.55 2.08a1 1 0 0 1-1.33.06c-1.36-1.52-2-3.58-2.72-5.45a1.09 1.09 0 0 1-1.55-.23 38.07 38.07 0 0 1-3.45-4.07c-1.2-1.73-1.68-3.88-2.9-5.57a1 1 0 0 1-.17-1c-.57-2.36-5.4-11.8-.56-11.47a13.31 13.31 0 0 1 6.37 2.1 35.08 35.08 0 0 1 14 10.64 155.57 155.57 0 0 1 13.64 21.64c2.64 5.3 5.49 10.47 7.19 16.13ZM288.64 226.09a1 1 0 0 1-1.73.67c-2.35-5.12-5.71-9.6-8.47-14.48-2.91-4.93-6.82-9.16-10.39-13.6-2.64-2.44-5.11-5.24-8.34-6.92-1.41-.53-4.47-1.75-5.28 0a13.19 13.19 0 0 0 1.27 4.83c2.35 1.24-1.38 4.14-2.58-1.43a1.15 1.15 0 0 1-.87-.56 43.41 43.41 0 0 1-2.81-5c-1.58-3.71-3.55-7.29-4.39-11.28-.77-2.28-1.8-4.48-1.72-6.94a1 1 0 0 1 .59-.92c.63-2.44 3.17-.71 4.53.06a32.61 32.61 0 0 1 6.23 4.46 52.71 52.71 0 0 1 13.43 12.4 77.64 77.64 0 0 1 10 14.89 114.91 114.91 0 0 1 9.07 19.12c.48 1.61 1.12 3.12 1.46 4.7ZM231.56 158c6.12 5.4 3 7.47-3.78 7.62a78.74 78.74 0 0 1-12.41-2.62c-1.51-.47-3.18-.48-4.56-1.31a29.34 29.34 0 0 1-4.87-.16c-.91-.05-2-.09-2.63-.87-.85-1.08.72-2.37 1.52-1.2 5.12.75 10.66.45 14.95-2.67a1.35 1.35 0 0 0 .31-.59c.33-2.09-1-3.81-2.68-4.84-.5-.3-1.15-.66-1.06-1.34.29-1.31 1.49-1 2.25-.24a5.76 5.76 0 0 1 2.13 1.65c3.27 2.72 7.46 4.03 10.83 6.57ZM225.1 128.06v-.07c0-.02 0 0 0 0Zm16.41 6.34c1.81 1 7 3.54 7 5.75-.57 1.51-2.68 1.95-3.88 2.72-1.64 1-3.41 1.94-5.38 1.75-6.67-.65-13.59-.8-20-3-1.62-.55-3.92-.45-4.88-2.08-.3-1.94 2.08-1 3.18-1.19 3.22-.76 6.7-.76 9.68-2.28 4.16-2 1.66-5.51-1.14-7.32a.92.92 0 0 1-.93-.6s0 0 0 .06a1 1 0 0 1 1-1.4c1.65.41 2.88 1.9 3.95 3.15.55-.13 1 .29 1.43.62 1.18.93 3 1 4.31 1.54a29.33 29.33 0 0 1 5.66 2.28ZM217.81 183c.86 1 2.61 2 2.28 3.53a1.57 1.57 0 0 1-1.15.82 73.41 73.41 0 0 1-8.07 1.48c-3.67-.16-7.24-1.34-10.87-1.84-1.56-.28-8.06-.05-6.06-3 3.9-1.81 11.52-.34 8.82-7.27a1 1 0 0 1 .08-1.67c1.14-.45 1.8.91 2 1.81 4.47 1.79 9.47 2.78 12.97 6.14ZM256.6 257.89c.49 1.38 2.54 6-.4 5.35a2.27 2.27 0 0 1-.79-.89c-2-3.49-4.1-7-6.37-10.29-2.5-4-5.49-7.69-8-11.67a86.1 86.1 0 0 0-7.1-7.69c-1.57-1.23-3.84-2.58-5.86-1.74a4.93 4.93 0 0 0-.14 2c.3.65-.07 1.41.13 2.12a1 1 0 0 1-.49 1.24c-1.59.54-1.44-1.61-1.52-2.62-1.28-2-2-4.37-3.13-6.45-2.63-4-5.33-7.93-7.15-12.36a3.75 3.75 0 0 1-.23-.79l1.22-1.6a5.43 5.43 0 0 1 2.15.39c3 1 5.36 3.11 8 4.75a227.53 227.53 0 0 1 16.53 16 45.5 45.5 0 0 1 7.28 11c2.16 4.36 4.04 8.8 5.87 13.25ZM259.22 218.71c.79 1.43 8.06 9.31 4.39 9.65-.69-.07-1-.76-1.4-1.28-.89-1.29-1.73-2.68-2.66-3.9-2.75-3.58-5.31-7.21-8-10.78-2.42-3.14-5.2-6.38-9.08-7.66-3.21-.77-3.61.19-2.38 3 .24.27.59.47.57.9 0 1-1.32 1.27-1.89.53a5.05 5.05 0 0 1-.9-1.9c-2.85-2.13-4.11-5.67-5.66-8.76-.51-1.35-3.77-6.59-.48-6.18 2.9 1.47 6.18 2.62 8.58 4.9a18.08 18.08 0 0 1 3.15 2.77.94.94 0 0 1 .07.89 69.11 69.11 0 0 1 9.71 10.45c2.09 2.47 4.3 4.66 5.98 7.37ZM203.65 205.51c1.14.8 3.62 2.81 1.72 4a1.08 1.08 0 0 1-.74.77 26.91 26.91 0 0 1-11.39 1.62c-3.64-.16-7.27.69-10.92.34a2.68 2.68 0 0 1-1.33-.48c-.91.12-2.07.5-2.83-.2A1 1 0 0 1 179 210c2.95.23 5.76-1.79 8.13-3.3a15.26 15.26 0 0 0 4-3.93c.89-1.11 1-3.73 2.91-2.93 2.28 1.51 5 2.14 7.32 3.54.82.62 1.46 1.46 2.29 2.13Z" fill="#110802" fill-opacity=".25"/><path d="M239.84 284.58c.34 1 1.34 3.26-.47 3.32-.66-.07-.92-.69-1.18-1.23-.95-2.05-1.74-4.18-2.88-6.15-1.59-3.35-3.86-6.34-5.63-9.51a142.48 142.48 0 0 0-8.17-13.61c-2.75-3.76-11.37-10-10-.67a1 1 0 0 1-.68 1.56c-.75.06-1.14-.65-1.21-1.3-.52-.05-.82-.77-1-1.12-1.42-2.75-2.85-5.44-4.17-8.21-1.66-3.79-4-7.71-3.55-12 .56-.85 1.14-1.71 1.73-2.57a5.86 5.86 0 0 1 3 .91c6.8 3.38 13.16 8.08 17 14.75a138.16 138.16 0 0 1 12.75 24.78c1.7 3.62 3.14 7.32 4.46 11.05ZM192.31 229.63c.55 1.79-2.28 2.64-3.46 3.4a34.43 34.43 0 0 1-12.1 3.66c-3.65.12-7.28.34-10.92.54a4.58 4.58 0 0 1-1.87-.32 1.05 1.05 0 0 1 .34-2c2.12-.81 4.84-1.67 5.82-3.89a6.44 6.44 0 0 0-1.57-6 1 1 0 0 1-.75-.43 1.09 1.09 0 0 1-.14-.38 7.72 7.72 0 0 0-1.18-.77 1 1 0 0 1-.67-1.81c1.2-.58 2.37.67 3.31 1.3 4.66.32 9.12 2.22 13.68 3.22 2.91.6 5.65 1.78 8.48 2.66a1.6 1.6 0 0 1 1.03.82ZM172.27 258c1 .18 1.78 1.47.87 2.26-.41.3-.83.61-1.25.9a48.45 48.45 0 0 1-6.58 3.16c-1.88.38-3.79.6-5.68.89a134 134 0 0 1-16.35 2c-1.13.09-2-1-1.13-2 .54-.55 1.41-.58 2.12-.81 2.4-.38 12.12-3.79 8.89-7.16-.63 0-1.3-.45-1.2-1.15-.91-.92-3-.39-3.25-1.89a1 1 0 0 1 1.5-.79 6.76 6.76 0 0 1 3.77 1.89 84.46 84.46 0 0 0 10.53 1 42.09 42.09 0 0 1 7.76 1.7ZM159.32 280.24c.93 0 2.19.67 1.64 1.75-.57.9-1.8.92-2.69 1.34-4 .77-7.7 2.77-11.84 2.94-2.81.55-5.58 1.39-8.34 2.14-2 .48-4.07 1.33-6.1.87-2.71-1.53 2-3.47 3.29-4 3-1.29 9.07-3.3 6.33-7.55a.94.94 0 0 1 .11-1.85 2.65 2.65 0 0 1 1.91.57c2.37 1.47 5.21 1.46 7.84 1.95a15.52 15.52 0 0 1 4.4 1.42 25.09 25.09 0 0 0 3.45.42ZM147.23 302.33c3.85 1.59-2.54 5.68-4.18 6.64-2.78 1.72-5.68 3.36-9 3.72-4 1.27-8 2.59-12.22 2.86a1 1 0 1 1-.37-2c5.73-.71 11.35-4.65 9.72-11a.3.3 0 0 0 0 .1 1 1 0 1 1 1.86-.31c4.73-.29 9.55-.69 14.19-.01ZM210.66 351c.22.83-.33 1.94-1.32 1.58-.5-.18-.7-.71-.89-1.16a38.5 38.5 0 0 1-1.83-6.24c-1-4-2.44-7.83-3.73-11.72-2.49-5.2-4.1-10.79-7.2-15.69-3.16-6.29-7.15-12.72-13.73-15.81-1.9-1-5.71-1.32-5.49 1.72.31.78 1 1.9.12 2.54 1 1.31-1.06 2.37-1.69.88a3.13 3.13 0 0 1-.29-1.17c.18-2.52-1.73-4.63-2.55-6.81-1.24-3.17-2.91-6.07-4-9.28-.26-.92-.8-1.93-.43-2.88.74-1.12 2.75-.86 3.95-.85 7.33.14 15.54 7.9 20.34 13 4.8 6.64 7.63 14.48 10.52 22.08 2.74 8.17 5.76 16.28 7.43 24.76.3 1.64.59 3.35.79 5.05ZM189.14 354.48a8.77 8.77 0 0 1 .41 2.49c-.16 1.39-1.76 1.33-2.25.11-1.13-2.58-1.39-5.49-2.44-8.11a77.54 77.54 0 0 0-4.25-9c-3.52-5-9.75-17.42-16.51-17a29.56 29.56 0 0 0 .1 5.41.94.94 0 0 1-.77 1.09c-1.26.15-1.18-1.39-1.23-2.25-1.49-.35-1.77-2.53-2.47-3.7a26.86 26.86 0 0 1-2.19-6.93v-.06c-.44-1.92-2.43-9.9.46-9.89 1.61.62 2.57 2.46 4 3.42a83.82 83.82 0 0 1 17.7 21.1c4.4 7.23 6.98 15.32 9.44 23.32ZM176.85 389.76a1 1 0 0 1-1.89.32c-.92-5.27-2.87-10.26-4.14-15.44a76.23 76.23 0 0 0-5.93-17.11c-1.07-2.31-2.41-4.53-3.57-6.79a14.26 14.26 0 0 0-4.84-5.73c-1.39-.94-3.94-1.21-4.45.81s-.89 4.46.28 6.35a1 1 0 0 1-.13 1c.6 1.12-.92 1.88-1.7 1a3.74 3.74 0 0 1-.72-2.51c-.64-1-1.26-2.07-1.95-3.08a36.31 36.31 0 0 1-4.29-8.56c-2.81-6.69.23-9.41 7-8.65 2.5.21 4.32 2.05 6.26 3.43 5.06 4.14 8.55 10 11.26 15.86 4 9.17 5.65 19.3 7.2 29.12a95.34 95.34 0 0 0 1.61 9.98ZM153.74 379.06a106.31 106.31 0 0 1 2.15 25.59 52.74 52.74 0 0 1-1 9.63 1 1 0 0 1-1.78-.16 118.2 118.2 0 0 0-1.75-21.66c-.44-2.75-1-5.51-1.71-8.2a69.88 69.88 0 0 0-3.71-12.82c-1.06-2.68-2.64-5.89-5.77-6.4a1.12 1.12 0 0 0-.95.59 8.79 8.79 0 0 0-.55 3.29c.17.51.45 1.13.14 1.62 1 1-.24 2.49-1.28 1.46a3.38 3.38 0 0 1-.78-2.38c-.41-1.23-.64-2.53-1.07-3.74-1.28-3.2-2.56-6.56-2.67-10-.21-5.21 3.12-6.17 7.28-3.91 3.67 1.91 6.17 5.64 8.19 9.11 3.12 5.48 4.11 11.82 5.26 17.98ZM129.14 350.52c1.19 1.22-.47 2.69-1.21 3.68a23.9 23.9 0 0 1-6.19 5.32c-2.5 1.9-4.94 3.87-7.4 5.83-1.77 1.33-3.77 2.12-5.18 3.73a1.31 1.31 0 0 1-1.55.5c-1.53-1.07.74-2.29 1.3-3.17 3.31-3.86 7.3-8.46 5.86-13.87a2 2 0 0 1-.29-1.69.94.94 0 0 1 1.74-.06c2.33-.05 4.85-.4 7.13-.58 1.88-.12 4.06-.63 5.79.31ZM136.25 329.63a6.41 6.41 0 0 1-3.06 5 59.45 59.45 0 0 1-13.09 6.63c-2.11.65-4.07 2.07-6.27 2.28-1.6-.65-.32-2 .62-2.57a18.39 18.39 0 0 0 3.46-3.36 6.82 6.82 0 0 0 .91-7.29 1 1 0 0 1 .89-1.64 2.32 2.32 0 0 1 1.09 1.32 30.24 30.24 0 0 1 10.79-2.11c1.51.11 4.62-.49 4.66 1.74ZM129.52 371.52c3.39 1.61 2.79 5.69 2.25 8.7-.72 3.88-1.81 7.67-2.75 11.49-.71 3-1.33 6-2.19 8.89-1.35 3.7-3.13 7.23-4.66 10.8-2.17 5.77-5.22 11.11-8 16.59-2.24 4.62-4.53 9.22-7.07 13.69-4.32 7.87-8 16.08-11.87 24.15-.49 1.05-.92 2.13-1.34 3.21-.14.87-1.06 1.77-1.88 1a1 1 0 0 1-.17-1.25 17.19 17.19 0 0 0 .7-2.19c1.29-4.07 2.15-8.24 3.69-12.21 1-2.84 2.47-5.71 3.43-8.52 3.56-13.47 8.44-26.42 13.67-39.3 2.23-6.07 4.1-12.28 6-18.44 1-2.69.36-6.45 3.39-7.87a1 1 0 0 1 .38-.76 7.13 7.13 0 0 0 1.52-2.12c1.07-1.95.94-4.9 3-6.12a.94.94 0 0 1 1.9.26ZM220.6 299.92c.33.72 1 1.47.75 2.3a1 1 0 0 1-1.48.46c-2.93-3.76-5.52-8-9.09-11.19-2.76-3.07-5.58-6.07-9.16-8.18-1.74-1-10.07-5.66-8.69-.71a1 1 0 0 1-.49 1.73c-1.07.05-1.42-1.17-1.57-2a1.83 1.83 0 0 1-.88-.62c-1.53 1.45-3.9-3.7-4.6-4.76-1.42-2.74-3.85-5-4.43-8.15s1.91-4.31 4.59-3.71c2.68-.95 4.76 2 6.67 3.41a29.49 29.49 0 0 1 3.48 3.5 1.39 1.39 0 0 1 .42 1.06c5.38 3.6 10 8.18 14.52 12.77a137.43 137.43 0 0 1 9.96 14.09Z" fill="#110802" fill-opacity=".25"/></g></svg>