<svg xmlns="http://www.w3.org/2000/svg" viewBox="0 0 241.7 183.9" xmlns:v="https://vecta.io/nano"><style><![CDATA[.K{fill:#110802}.L{fill-opacity:.25}]]></style><path d="M62.8 183.7c-6.3-.3-9.8-6.2-14.5-9.4-3.1-1.7-6.8-1.2-10.2-1.7-10.9-.1-22.6 2.3-32.6-3.3-1.8-1.2-3.4-2.7-4.7-4.4-2-3.8-.2-9.1 3.1-11.7 2.3-1.6 4.8-2.9 7.5-4 2.5-1.2 5.4-1.7 7.5-3.5 1.8-1.9 1.4-4.7 1.4-7 .1-5-.6-11 3.3-14.8 3.1-2.7 4.4-6.3 7-9.2 3.9-3.3 8.5-5.9 13.4-7.6 2-.6 3.7-1.7 5.8-1.8 3.3-.9 12.3-1.5 12.3-1.5 9.5-.8 19.1-1.1 28.6-.8 5.3.2 10.6-1 15.8-1.2 5.9-.2 11.8-.2 17.7-.7 10.6-1.1 21.3-1.5 32-1.2 7.5.1 14.9-.4 22.4.4 8.2 1 16.6.3 24.6 2.3 7.2 2.4 14.9 4.1 20.6 9.4 3.7 2.8 2.8 8.1.8 11.7-2.5 3.9-4.1 6.3-.5 10.2 4.8 4.4 10.5 7.9 14.4 13.1 5.7 9.8 3.9 14.4-6.3 19.1-3.9 1.5-7.9 2.4-11.9 3.5l-20.4 5.9c-4.5 1.3-9.2 1.6-13.7 2.5-12 2.7-24.3 4.5-36.5 5.5-7.1.6-13.8-2.2-20.6-3.6-3.7-.6-7.2-.3-10.9-.2-7.5.3-15-.1-22.4.5-7.5 1.1-15 1.9-22.5 2.8-3.5.6-7 1.2-10.5.7zm4-2c5.8-.5 11.6-1.5 17.5-2 4.8-.5 9.5-1.5 14.3-1.8s9.4-.1 14-.2 9.4-.5 14.2-.2c5.6.6 11 2.7 16.5 3.6 6.4.8 12.7-.4 19-1.2 5-.8 10-1.3 15-2.2 9.4-2.2 19.1-3 28.2-6.1l16.9-4.9c5.7-1.6 12-3 16.1-7.5 2.3-2.5.6-5.9-.4-8.6-1.2-3.2-3.9-5.5-6.4-7.7-4.1-4.5-12.6-7.5-11.8-14.8 1-4.1 4.8-7.2 4.3-11.6-.5-3-3.7-4.5-5.9-6.1-2.6-1.8-5.6-2.6-8.5-3.6-4.2-1.5-8.5-3-13-3.4l-21.5-1.4c-11-.3-22.1-.3-33.1 0-9.1.1-18 1.3-27.1 1.6-3.8.1-7.8 0-11.6.5-4.7.7-9.4 1.1-14.1 1-7.6-.3-15.2-.1-22.8.4-6.6.6-13.3.8-19.7 2.7-5.7 1.8-11.5 4.4-15.6 8.8-2 3.4-4.4 6.5-7.1 9.3-.4.5-.7 1.1-.9 1.8-1.2 4.5-.8 9-.9 13.5.1 5-3.2 7.1-7.5 8.4-4 1.8-8.9 3.2-11.6 6.9-1.2 1.9-1.5 4.2-1 6.3 1.1 1.7 2.6 3.2 4.3 4.2 6.5 3.6 14 3.5 21.2 3.3 6.9-.2 14.2-1 20.8 1.2 6.9 4.2 8.6 10.7 18.2 9.8h0zm147.3-20.4c-3.8.1-6.3-2.4-2.7-5.4 1.3-.8 2.8-1.3 4.3-1.6 1.2-.2 2.3-.8 2.4-2.1.5-5.3 4.7-5.8 8.8-3.6 4.4.9 6 4.4 3.7 8.3-2.4 4.3-12 4.2-16.5 4.4zm3.3-2.1c2.5-.2 5-.5 7.4-1 1.3-.4 2.7-.6 3.6-1.6 1.1-1.4 2.1-4.2 0-5.1-.7.8-2.3.4-2-.8-.6-.1-1.2-.1-1.4-.7-7.8-2.7-1.6 5.9-9.6 6.6-1.4.4-3.1.7-3.6 2.2h0c1.6.8 3.7.4 5.6.4z" class="K"/><path d="M230.6 156.9c2.3-3.9.7-7.4-3.7-8.3-4-2.2-8.3-1.7-8.8 3.6-.1 1.3-1.2 1.9-2.4 2.1-1.5.2-3 .8-4.3 1.6-3.6 2.9-1.1 5.4 2.7 5.4 4.5-.2 14.1-.1 16.5-4.4zm7.5-6.1c1 2.7 2.7 6.1.4 8.6-4.1 4.6-10.3 6.1-16.1 7.5s-11.3 3.2-16.9 4.9c-9.1 3.1-18.9 3.8-28.2 6.1-5 .9-10 1.5-15 2.2-6.3.9-12.6 2-19 1.2-5.6-1-10.9-3.1-16.5-3.6-4.7-.3-9.4.2-14.2.2s-9.4 0-14 .2-9.5 1.2-14.3 1.8c-5.8.4-11.6 1.5-17.5 2-9.6.8-11.3-5.6-18.2-9.8-6.6-2.2-13.9-1.4-20.8-1.2-7.2.2-14.7.4-21.2-3.3-1.7-1.1-3.2-2.5-4.3-4.2-.5-2.1-.1-4.4 1-6.3 2.7-3.7 7.5-5.1 11.6-6.9 4.3-1.3 7.6-3.4 7.5-8.4.1-4.5-.4-9 .9-13.5.2-.6.5-1.2.9-1.8 2.8-2.8 5.1-5.9 7.1-9.3 4.2-4.4 10-6.9 15.7-8.8 6.4-2 13.1-2.1 19.7-2.7 7.6-.5 15.2-.7 22.8-.4 4.7.1 9.4-.3 14.1-1 3.8-.4 7.8-.3 11.6-.5 9-.3 18-1.5 27.1-1.6a608.78 608.78 0 0 1 33.1 0c7.1.6 14.3 1 21.5 1.4 4.5.3 8.7 1.9 13 3.4 3 1 5.9 1.8 8.6 3.6 2.2 1.6 5.4 3.1 5.9 6.1.5 4.5-3.3 7.6-4.3 11.6-.8 7.2 7.7 10.2 11.8 14.8 2.4 2.1 5 4.4 6.2 7.7h0z" fill="#e6f4e3"/><path d="M36.7 116c-1.4-.5-.5-1.8 0-2.7 1-2.5 3-4.2 4.6-6.3 4.9-5.1 11.6-8 18-10.7 4.7-1.9 9.8-2.2 14.8-3.1 8.2-.9 16.4-2.7 24.5-3.3 1.4-.2 2.8-.3 4.3-.3.5.1.9.6.8 1.2v.1c0 .1-.1.2-.2.3-.7.8-2 .3-2.9.6-8.1.7-16.2 2.3-24.2 3.4-5.1.7-10.5 1.2-15.4 2.9-6 2.5-12.1 5.2-17.1 9.5l.1-.1h0c-1.7 1.7-3.2 3.5-4.7 5.4-.3.9-.8 1.8-1.3 2.6-.2.3-.8.6-1.3.5z" class="K"/><path d="M99 91.9a.9.9 0 0 0 .1.5c-5 1.1-10.2 1.7-15.3 1.6 5-.8 10-1.6 15.2-2.1z" fill="#f5cd35"/><g class="K"><path d="M99.8 92.1v.2.1.1.1s0 .1-.1.1l-.1.1c-.2.2-.5.3-.8.3s-.6-.1-.9-.3l-.8-.5c-2.2-1.3-4.3-2.9-6.3-4.6l-1.9-1.8v-.1H90c.5 0 .9-.1 1.3-.1h.1l1.6 1.5h.1l.4.3c.4.4.9.7 1.4 1.1l.4.2 1.5 1 .6.4c.5.4 1.1.7 1.6 1.1.5 0 .8.3.8.8zM87.4 69.4c.7.6 1.1 1.5 1 2.5 0 .1-.1.2-.1.3 0 0 0 .1-.1.1l-.1.1h0l-.1.1-.2.1c-.1.1-.3.2-.5.2-.5.1-.9.2-1.4.2-1.2 0-2.4-.3-2.1-1.5.3-.8.9-.6 1.5-.5.3.1.6.1.9.1-1.2-1.7-4.1-1.1-5.6-.1.4.8 1.1 1.5 2 1.9.7.4 1.8.5 2 1.4.1 2.5-5 .3-5.9 2.3 1.1 1 2.9.9 4.2 1H84h1 .4.2.4c.7.1 1.3.7 1.5 1.3.2.5.3 1 .5 1.4v.1c-.1.3-.1.5-.1.8v.3c0 .2-.1.3-.1.5s-.1.3-.2.5l-.1.2-.1.2-.1.2h0l-.7-1.3c-.3-.5-.3-.7-.5-1.1-.1-.2-.2-.5-.3-.8s-.2-.4-.2-.7h0-1.4c-2.4 0-4.9.1-6.8-1.5-1.9-1.9.7-4.3 2.8-4.3-2.2-1.7-1.8-3.4-.3-4.4 1.9-1.2 4.3-1.4 6.4-.6.1 0 .2.1.3.1l.1.1.2.2.3.2h0c0 .2.1.3.2.4z"/><path d="M87.8 82.2h0 0zM81.9 70c-.2-.1-.4-.2-.5-.3-1.2 0-2.3-.9-2.5-2.2-.5-3.7 4.6-4.4 7.2-3.7 1.1.3 1.5 1.6 1.7 2.7.1 1-.5 1.9-1.5 2-1 .7-2.2 1.1-3.4 1.3-.3.3-.7.3-1 .2zm.5-2.2c1.2-.2 2.3-.6 3.4-1.2l-.3-.9c-1.3-.3-4.4-.3-4.8 1.2v-.1c0 .2 0 .5.2.7h0c.4.4 1 .2 1.5.3h0z"/><path d="M114 88.6c2.2 6.2-8.5 6.3-12.4 6.4-1.6-.2-4.1 0-4.9-1.7-.1-.4 0-.9.4-1.1h0a.95.95 0 0 1 1.3.2c.4.1.8.3 1.2.3l.5.1h.2.4.2.3.5c2.4-.1 10.7 0 10.6-3.2-2.9-1.8-5.6-3.8-8.2-6-2.7-2.8-4.9-5.9-6.5-9.4-.7-1.5-1.5-2.8-2.2-4.3-1-1.9-1.3-4.4-3.2-5.7-.6-.2-1.2-.2-1.9-.1H90c-.4.1-.8.2-1.1.4l-.1.1c-.2.1-.3.2-.4.3l-.1.1h-.1l-.1.1a.76.76 0 0 0-.2.4v.1c0 .1-.1.3-.1.4h0v.3h.1c.1 0 .1 0 .2.1l.2.1.1.1.1.1c.5.7-.2 1.7-1.4 1.4H87l-.1-.1c-.6-.4-.9-1.1-.9-1.8h0v-.6c0-.3.1-.7.2-1s.3-.6.5-.9c.1-.1.2-.2.2-.3.3-.3.7-.5 1.1-.7.5-.3 1-.5 1.6-.6l.4-.1c4.6-1 5.8 3.9 7.3 7.3 2.2 4.2 4.3 8.7 7.6 12.1 2.6 3.2 6.2 4.9 9.1 7.2z"/><path d="M91.5 81.5c.1.2.1.5 0 .8h0s0 .1-.1.1l-.1.1c0 .1-.1.1-.1.1l-.1.1c-.2.1-.3.1-.5.2-.3 0-.6-.2-.8-.4-.2-.4-.3-.8-.3-1.2v-.6-.5-.5l-.3-2.3c-.1-.5-.1-1.1-.2-1.6l-.2-2.3c-.1-.8-.1-1.6-.1-2.3l-.1-2.3v-1.6h0c.1.1.2.1.3.2.4.2.8.3 1.3.4h.4v1.8 1.1 1.1c0 1.8.1 3.6.3 5.4l.1 1 .1.4c0 .2 0 .4.1.7l.1 1.1c0 .1.1.5.2 1zm-3.4-1.3s0 .1 0 0v.2c-.1.3-.1.6-.2.9v.3c0 .2-.1.3-.1.5l-.2.5c0 .2-.1.3-.2.4 0 .1-.1.2-.1.2h0l-.1.2-.1.2c-.2.2-.4.2-.6.2s-.3 0-.4-.1c-.5-.3-.6-.8-.4-1.3l.1-.2c0-.1.1-.1.1-.2.2-.4.3-.8.3-1.2V80l-.1-2.1v-.4-2.7-.3-.4-.5-.1-.4c0-.2 0-.4-.1-.5.1-.5.4-.8.9-.9.5.1.9.5 1 1 .1.1.1.3.1.5v.2.2.2c0 .9-.1 2 0 2.6-.1 1.3 0 2.6.1 3.8z"/><path d="M87.3 83.2h0zm.6-1.8h0zm5.4-1c2.2 0 4.5 1.9 3.8 4.2-.4.9-1.3 1.6-2.2 1.9l-1.8.5-2.3.6c-.6.1-1.2.2-1.8.2h-.6c-3.6-.1-12 .7-8-5.3 1.3-1.4 3.3-1.9 5.1-2.3h.4.3c.3 0 .5.1.7.2.4.4.5 1 .1 1.4-.1.1-.2.2-.3.2h-.2-.7-.4-.3l-.4.1-.3.1c-.1 0-.2.1-.3.1H84l-.2.1-.3.1c-.1 0-.2.1-.3.2-.1 0-.2.1-.3.2-.1 0-.2.1-.2.2l-.1.1-.2.2h0c-.1 0-.1.1-.2.1l-.1.1c-.1.2-.3.3-.4.5-.3.6-.3 1.1.4 1.3 1.3.2 2.8.3 4.2.4h2.1.9c.3 0 .6 0 .9-.1h.1c.5 0 .9 0 1.3-.1h.1c.3-.1.5-.1.7-.2.2 0 .3-.1.4-.2 1.4-.3 3-.7 2.5-1.8-.1-.1-.2-.2-.3-.2l-.1-.1-.1-.1-.1-.1h-.1l-.1-.1h-.1l-.1-.1-.2-.1-.1-.1c-.2-.1-.5-.1-.7-.1h-.1c-.4 0-.8 0-1.2-.1h-.1-.2-.1 0l-.3-.1c-.5-.2-.8-.7-.7-1.3.1-.3.3-.6.7-.7h.3c.6.1 1.1.2 1.7.2zM85.8 65c-.9-.1-.9-1-1-1.7-.7-4.3-4.8-6.5-7.3-9.7-2-2.4-4.2-4.6-6.1-7.1-.8-.8.5-2.1 1.4-1.3 3.2 3.6 6.2 7.4 9.7 10.7 1.5 1.6 3.2 3.2 3.8 5.4.2 1.2 1.4 3.6-.5 3.7zm2.8-.7c-.7-.3-.7-1-.6-1.7-.4-3.6 2.2-6.2 4.1-8.9l6.7-8.4c.1-.3.4-.6.8-.6.5 0 .9.3 1 .8.1.6-.5 1.1-.8 1.5-1.4 2-3.2 3.9-4.6 5.8l-3 3.9s-2 2.5-2.2 4c-.2 1.4.5 4-1.4 3.6z"/><path d="M84.7 47.3L74 46.7c-1.1 0-3.1.3-2.9-1.3-.3-2.1 3.2-2 4.5-2.2 2.3-.4 4.7-.6 7.1-.7 3.3-.1 6.5 0 9.8.2 2.7 0 5.6.2 7.9 1.7.9 1.4-1.1 2.1-2.2 2.1-4.6.5-9 .9-13.5.8zm2.9-1.9c2.8-.2 5.6-.2 8.3-.7-6.4-.5-13.1-.8-19.5.2 3.8.2 7.5.6 11.2.5zM85 57.7c-2.4-2-4.1-4.6-6.3-6.9-.4-.3-.7-.8-.7-1.3s.4-.9.9-1c.4 0 .8.2.9.6 1 1 1.9 2.1 2.8 3.2 1.1 1.4 2.3 2.7 3.7 3.8.3.5.1 1.1-.4 1.4-.3.3-.6.3-.9.2h0z"/><path d="M86.4 58.1c-.6-.1-1.5-.3-1.5-1.1s1-1.2 1.7-.8c1.3-.3 2-1.9 2.9-2.8l2.7-3.4c.6-.6 1.2-1.9 2.2-1.3s.1 1.5-.4 2-.9 1.2-1.3 1.8c-2 2-3.3 5.4-6.3 5.6z"/><path d="M82.4 51.8c-1.5.1-3-.5-4-1.6-.5-.6-.4-1.4.2-1.8.2-.1.3-.2.5-.3 3-.4 5.9-.4 8.9-.1 1.7.1 3.5 0 5.2-.1 1 0 1.6 1.2.7 1.8-4.2.6-8.6-.3-12.8 0 1.8.2 3.5.2 5.3.2.5 0 1 .4 1 .9s-.4 1-.9 1h-4.1z"/></g><path d="M86.2 71.1c-.3 0-.6 0-.9-.1-.6-.1-1.2-.2-1.5.5-.3 1.2.9 1.6 2.1 1.5l.1 4.4c-.7-.1-1.3-.2-2-.1h-1.1c-1.4-.1-3.1 0-4.2-1 .9-2 6 .2 5.9-2.3-.2-.9-1.3-1-2-1.4-.9-.4-1.6-1-2-1.9 1.5-.7 4.4-1.3 5.6.4zm-.4-4.5h0c-1 .6-2.2 1-3.4 1.2-.5-.1-1.1.2-1.6-.3h0c-.1-.2-.2-.4-.2-.7.4-1.5 3.5-1.4 4.8-1.1a2.47 2.47 0 0 1 .4.9zm26.5 23.2c.1 3.2-8.2 3.1-10.6 3.2h-.5-.3-.2-.4-.3l-.5-.1.1-.1.1-.1v-.1-.1-.1-.1-.1c0-.4-.3-.8-.8-.9-.6-.3-1.1-.7-1.6-1.1l-.6-.4c-.5-.3-1-.6-1.5-1l-.2-.3a7.55 7.55 0 0 1-1.4-1.1l-.4-.3h-.1l1.8-.5c1-.2 1.8-.9 2.2-1.9.7-2.3-1.6-4.2-3.8-4.2-.6 0-1.2-.1-1.8-.2h-.3l-.1-1.1c0-.2 0-.4-.1-.7l.1-.5-.1-1c-.2-1.8-.4-3.6-.4-5.4v-1.1-1.1-1.1-.7h-.4c-.4 0-.9-.2-1.3-.4-.1-.1-.2-.1-.3-.2h0v1.3c-.2 0-.4 0-.6-.1.5-.2.7-.7.5-1.1 0-.1-.1-.2-.1-.3l-.1-.1-.1-.1-.2.1-.2-.1v-.1-.2h0c0-.1 0-.3.1-.4v-.1c.1-.2.1-.3.2-.4l.1-.1.1-.1.1-.1c.1-.1.3-.2.4-.3l.1-.1h0c.3-.2.7-.3 1.1-.4h.3c.6-.1 1.3-.1 1.9.1 1.9 1.2 2.2 3.8 3.2 5.7.7 1.5 1.5 2.9 2.2 4.3 1.7 3.5 3.9 6.6 6.5 9.4 2.5 2.2 5.3 4.2 8.2 6z" fill="#e9e1d3"/><path d="M89.3 68.4c-3.3.3-4.5-2.1-2.1-4.5.1-.4.5-.7.9-.7a.94.94 0 0 1 1 1c0 .2-.1.4-.2.6-.3.6-1 .8-1.1 1.5.9.1 1.8.2 2.7.1.5.1.9.6.8 1.2-.1.3-.3.6-.6.7-.4.1-.9.1-1.4.1z" class="K"/><path d="M95.2 83.3c.5 1.1-1.2 1.5-2.5 1.8a.76.76 0 0 1-.4.2c-.2.1-.5.1-.7.2h-.1c-.4.1-.9.1-1.3.1H89l.1.1h-.9-2.1l-4.2-.4c-.7-.1-.7-.7-.4-1.3.1-.2.2-.3.4-.5l.1-.1.1-.1.1-.1h0l.2-.2.1-.1c.1-.1.2-.1.2-.2.1-.1.2-.1.3-.2s.2-.1.3-.2l.3-.1.2-.1h.2c.1 0 .2-.1.3-.1l.3-.1.4-.1h.3.4c0 .1-.1.1-.1.2l-.1.2c-.2.5-.1 1 .4 1.3.1.1.3.1.4.1.2 0 .5-.1.6-.2l.1-.2.1-.2h0 0l.1-.2c.1-.1.1-.3.2-.4s.1-.3.2-.5.1-.3.1-.5v-.3c0-.3.1-.5.1-.8v-.1-.1c0-1.3-.2-2.6-.1-3.9-.1-.6 0-1.7 0-2.6v-.2-.2-.2c0-.2-.1-.3-.1-.5l.2-.1.1-.1h0l.1-.1s0-.1.1-.1c.1-.1.1-.2.1-.3.1-.9-.3-1.9-1-2.5-.1-.1-.1-.2-.2-.2h0l-.3-.2-.1.1-.1-.1c-.1-.1-.2-.1-.3-.1l.1-.1.4-.1.1.1h.1c.3.1.7 0 1-.1.2 0 .4.1.6.1v.2l.1 2.3c.1.7 0 1.6.1 2.3s.1 1.5.2 2.3c0 .5.1 1.1.2 1.6l.3 2.3v.5.5.6c0 .4.2.8.3 1.2.2.3.5.4.8.4.2 0 .4-.1.5-.2l.1-.1.1-.1.1-.1.1-.1h0 .1.2.1c.4 0 .8.1 1.2.1h.1c.2 0 .5.1.7.1l.2.1.2.1s.1 0 .1.1h.1l.1.1h.1l.1.1.1.1h.3s0 .1.1.2zM94 50.7c.5-.5 1.2-1.4.4-2l-.1-.1c-.2-.5-.6-.8-1.1-.7L88 48c-3-.3-6-.3-8.9.1-.5.1-.9.4-1 .9-.1.2-.2.4-.2.5.1.5.3.9.7 1.3 2.1 2.2 3.9 4.9 6.3 6.9.2.1.4.2.6.2h0c.3.1.6.2.9.2 3-.2 4.3-3.7 6.2-5.6.5-.5.9-1.2 1.4-1.8zm4-4.3h0l-5.9 7.4c-1.9 2.7-4.5 5.3-4.1 8.9v.3c-.4.2-.8.5-1.2.9-.1-.9-.3-1.7-.6-2.5-.6-2.1-2.2-3.8-3.8-5.3-3-3-5.8-6.1-8.5-9.3h0l10.7.6c4.5 0 9-.3 13.4-1zm-2-1.7c-2.7.4-5.5.5-8.3.7-3.7.1-7.4-.3-11.2-.5 6.3-1 13-.6 19.5-.2z" fill="#fff"/><path d="M92.2 49.9v.1l-2.7 3.4c-.9.9-1.6 2.6-3 2.8-.2-.1-.3-.1-.5-.1-1.2-1.1-2.4-2.4-3.4-3.7l-.6-.6h.4 4c.5 0 .9-.5.9-1s-.5-.9-1-.9c-1.8.1-3.5 0-5.3-.2 3.8-.2 7.6.4 11.2.2z" fill="#df4f5f"/><g class="K"><path d="M212.5 28.7c.5.3.6 1 .2 1.5-.2.2-.4.4-.7.4 7.5 1.6-4.5 6.5-6.6 7.8.2.3.3.7.3 1.1v.2c0 .2-.1.3-.1.5 0 .1 0 .1-.1.2h0l-.1.2-.1.2-.1.2h0l-.1.2-.1.1c0 .1-.1.1-.2.2l-.5.5-.3.3-.3.2-.5.4h0c-.7.5-1.4 1-2.2 1.4-1.5.9-3.1 1.6-4.7 2.3.2 1.9-2.4 2.3-3.8 2.7-1.1.1-3 1-3.4-.5-.1-.4.1-.8.4-1 .1-.1.2-.1.3-.1h.2c.6-.1 1.1-.2 1.6-.3-.3-1.6 2.5-1.9 3.6-2.5l1.3-.5c.2-.1.4-.1.6-.2l.4-.2.9-.4.6-.3.6-.3.6-.3.5-.3.5-.3.3-.2.4-.3c.1-.1.3-.2.4-.3.2-.2.4-.3.6-.5-1.1.4-3.1.4-2.9-1.2.2-.7.9-1 1.5-1.3 3.4-1.7 6.9-3.1 10-5.2-1.9-.4-3.8-.8-5.7-1.3-1.1-.1-2.3-1.3-1.2-2.2-4.2-.5-8.4-.3-12.5.8-.6.2-1.2.5-1.7.8a.97.97 0 0 1-1.4-.1.97.97 0 0 1 .1-1.4c.7-.7 1.5-1.3 2.3-1.8-3.2.9-6.1 2.4-8.6 4.4-.7.8-1.9 1.9-2.6.6-.7 1.2-3.1 7.7-4.8 5.8-.2-.2-.3-.5-.2-.7 0-.2.1-.5.2-.7.3-.4.5-.8.8-1.2l.1-.2c.1-.2.2-.3.3-.5 1.2-2.1 2.1-4.3 3.2-6.5l.2-.9c.2-.5.5-.9.7-1.4.3-.6.7-1.5 1.5-1.5 1.9.2.9 2.7.8 4 1.5-1.4 13.4-6.6 14.2-4 .3 1-.8 1.5-1.4 2 5-.6 10-.2 14.8 1.2.5.2 1.3 0 1.9.4z"/><path d="M194.7 68.6c-.1 1.1.7 2.8-.6 3.3-1.2.3-1.4-1.1-1.9-1.8.9 3.1 1.5 6.2 1.9 9.3-.1 1.3 1.1 4.7-.7 4.9.2 1 .3 2.1.4 3.2l.2 2.4v.1c.1 1.4.1 2.9 0 4.3-.2.5-.8.8-1.4.6-.2-.1-.4-.2-.5-.4-.1 1.6.1 4 0 6.1v1c0 .6-.1 1.3-.2 1.9-.1.2-.3.3-.5.4h0-.1-.1a1.1 1.1 0 0 1-1.2-.8l-.5-4.6c-.1-.8-.6-2 .4-2.5.1-.7-.1-2.6 0-4.3v-.3-.4-.2c0-.4.1-.8.2-1.1 0 0 0-.1.1-.1 0-.1.1-.2.1-.2v-.1l.1-.1.1-.1.1-.1a.91.91 0 0 1 1 0c0-.5 0-1-.1-1.5l-.1-.7c0-.2 0-.4-.1-.6l-1-6c-.2-1.2-.9-3.7 1-3.7-.4-2.4-1-4.8-1.7-7.2-.5-1.3-.6-2.7-.3-4 .2-.6.7-.9 1.3-.9.9.1 1.2 1 1.6 1.7-.5-3.7-1.8-7.1-2.9-10.7-.2-1.2-1.4-3-.1-3.8-.1-.3-.3-.6-.4-.9s-.3-.7-.5-1.1c-.5-.4-.7-1.1-.3-1.6.1-.2.3-.3.5-.4l.2-.1h.3 0 .1a1.44 1.44 0 0 1 .9 1.1c1.1 2.7 2.8 5 3.9 7.6.5 1.2 0 3-1.6 2.2 1.5 3.3 2.2 6.7 2.4 10.2zm-9.7 49.2c3 2.8 8.6 11.6 6.2 15.6-1.1 2-4.2 1.6-5.1 3.8.4.7.8.9 1.1.9h.2c.1 0 .2 0 .2-.1h.1.1l.1-.1c.1-.1.3-.2.5-.3l.2-.2.4-.2h0 0 0l.1-.1c.2-.1.4-.1.6-.1.1 0 .1 0 .2.1h0c.5.2.8.8.6 1.3v.1c0 .1-.1.1-.1.2-.4.4-.8.8-1.2 1.1l-.2.1c-.1.1-.2.1-.2.1l-.2.1c-.1 0-.2.1-.2.1l-.2.1h-.1-.2-.2-.3c-.5 0-.9-.1-1.3-.4-3.1-1.8-2-4.5.6-6.1 1.3-.7 3.5-1 3.2-2.9-.1-.5-.2-1-.4-1.6l-.1-.5c-.1-.2-.1-.3-.1-.5v-.1l-.1-.4c-.1-.3-.2-.5-.3-.8s-.1-.2-.1-.4-.1-.4-.2-.5c-.5-1.1-1-2.1-1.6-3.1-.1-.2-.2-.3-.3-.5s-.1-.2-.2-.3l-.3-.4-.4-.5c-.1-.2-.3-.3-.4-.5l-.3-.3-.6-.6c-.1-.2-.3-.3-.4-.4l-.4-.4-.6-.5-.3-.2-.4-.3-.2-.2c-.1-.1-.3-.2-.5-.3l-.3-.2-.4-.3-.3-.2-.5-.3c-.5-.3-1-.5-1.6-.7-.3.1-.7 0-1-.2h0c-.1-.1-.1-.2-.2-.3h0c0-.1-.1-.2-.1-.3-.1-.5.1-.9.5-1.1l.2-.1c2.4-.4 4.9 2.1 7 3.9z"/><path d="M195.1 136.9c.2-.6.7-.9 1.3-.7s.9.7.7 1.3c-.1.2-.1.4-.2.6 0 .1 0 .2-.1.2l-.3.8-.3.6-.1.2-.1.1h0c-.4.8-.9 1.5-1.5 2.1h0l-.2.2c-.2.2-.4.4-.7.5l-.2.1c-.1 0-.1.1-.2.1-.2.1-.3.2-.5.2l-.2.1h0l-.2.1h0c-.1 0-.2 0-.2.1h0-.2l-.4.1h-.2c-.4 0-.7 0-1.1-.1-1.1-.1-2.3-1-1.8-2.1.2-.4.5-.8.6-1.2l.1-.2c0-.1 0-.1.1-.2m0-.1c0-.1 0-.2.1-.2h0v-.7c-.5-.2-.8-.8-.6-1.3.1-.2.2-.3.4-.5h0 0 0 .1c.3-.1.6-.1.9 0h0l.2.1c.1 0 .1 0 .1.1h0l.1.1.1.1.1.1c.1.1.2.2.2.3l.1.1v.1.1l.1.1v.1.2.2c.1.8 0 1.7-.3 2.5-.1.2-.2.3-.3.5 2.8.2 3.9-2.7 4.6-4.8l-5.9 2.8z"/><path d="M200.4 135.9v.3.2c0 .1 0 0 0 0l-.1.4v.1h0v.2c-.2 1.5-.9 2.9-1.9 4.1h0l-.4.4c-.2.2-.4.3-.6.4l-.1.1c-.2.1-.3.1-.5.2h-.2l-.2.1h-.4-.2c-.3 0-.7-.1-1-.2h0a1.38 1.38 0 0 1-.9-1.8c.2-.6.8-.9 1.4-.6.2.1.5.3.6.5.2 0 .3-.1.4-.1h0c.1 0 .2-.1.3-.2l.1-.1a1.38 1.38 0 0 1 .4-.3l.1-.1.1-.1c.1-.2.3-.4.4-.6l.1-.2c.1-.2.2-.4.2-.7 0-.1.1-.3.1-.4s.1-.2.1-.3c.1-.6.3-1.2.6-1.8.3-.4.8-.6 1.3-.3.1.1.2.1.2.2l.1.1c0 .1.1.1.1.2 0-.1 0 .1-.1.3z"/><path d="M204 119.6c.4 1.1 1.5 3.2-.2 3.7.1 1.4 1.6 5.6-.6 5.9.1 3.4.3 7.1-1.9 9.9-.7.9-1.7 2-3 2.1h-.1c-.6 0-1-.5-1-1 0-.6.5-1 1-1 .9-.5 1.5-1.3 2-2.2h0 0c0-.1.1-.1.1-.2.1-.2.2-.4.2-.6 0-.1.1-.2.1-.2l.1-.3c.1-.2.1-.4.1-.6s.1-.3.1-.5c0-.1 0-.2.1-.3 0-.3.1-.5.1-.8V132v-2.9c-.2-1.2-1.3-3.8 1-3.5-.1-1.2-.5-2.4-1-3.6-.6-.8-.4-2.2.8-2.1-.6-1.7-1.4-3.3-2.2-4.9-.3-.5-.7-1-.4-1.6-1.7-1.8-2.9-4.1-4.9-5.6-.8-.9-3-1.6-2.4-3.1l-.6-.7c-.3-.4-.7-.7-1.1-1-1-.9.4-2.5 1.4-1.6l.3.3.2.2.2.2.5.5c.2.2.2.3.4.4l.4.5.2.2a1.38 1.38 0 0 0 .3.4l.1.2c.3.4.5.8.7 1.3a65.2 65.2 0 0 1 4 3.4c.2.3.3.7.2 1 .9 1.4 4.4 4.2 3.3 5.9.5 1.2 1.1 2.4 1.5 3.7zm-26.9-83.1c.2.6 0 1.2-.6 1.4-.5.2-1 0-1.3-.4l-.1-.1-.6-.3-.3-.2c-.2-.1-.4-.2-.6-.4s-.2-.1-.3-.2c-.2-.1-.4-.3-.6-.4-.4.7-1.3.5-1.9.2l-4.6-1.7c-.5 1.6-2.4.5-3.6.3-2.3-.5-4.6-.9-7-1.1 2 .5 2.7 2.5.3 3.1-4.2.6-8.4.8-12.5 2.1 1.3-.3 2.5.9 1.3 1.9l-1 .5-.7.4-.6.3-.7.4h0l-.9.5c-1.2.8-2.5 1.5-3.7 2.3-9 5.8-17.9 11.9-27.4 16.8-2.1 1.2-4.1 2.6-6.2 3.7l-.2.1-.1.1-.1.1c-1 .7-2 1.9-3.1.9-.7-.8.2-1.6.9-2 .6-.5 1.3-.9 2-1.3 3.3-2 6.6-4 10-5.8 6.2-3 11.5-7.2 17.3-10.6 1.3-.8 2.6-1.6 3.9-2.5a5.45 5.45 0 0 1 2.7-1.7l2.1-1.3.8-.5c-.8 0-1.5.3-2.1-.1-.5-.3-.6-1-.3-1.5 1.1-1.5 3-1.9 4.7-2.4l3.5-.9 2.9-.6 1.1-.2c.3 0 .6-.1.9-.1h.4.1c.3 0 .6-.1.9-.1l1.1-.1c-1.9-.3-3.8-.4-5.7-.4h0c-.8 0-1.9 0-2.3-.8v-.3-.3h0c.1-.3.2-.5.4-.7h0l.2-.2.1-.1.3-.2.2-.1.3-.1 1.2-.3h.2.1l.4-.1c.5-.1 1-.1 1.5-.1h.5.5 1.9.5c.6 0 1.3.1 1.9.1h.5.5.4l.7.1 1.2.1c-.6-1.2.6-1.8 1.6-1.6.1 0 .3.1.4.1 3 .8 5.9 1.7 8.8 2.8l-.2-.2c-.1-.1-.1-.2-.2-.2-.1-.1-.1-.2-.2-.3-.3-.5-.5-1.1-.4-1.7v-.2-.1-.1-.1s0-.1.1-.1l.1-.1h0l.1-.1s.1-.1.2-.1h0c.1 0 .3-.1.4-.1.2 0 .4 0 .6.2l.1.1.2.1c.2.2.4.3.5.5 1.1 1.2 2.2 2.5 3.4 3.6.1.1.3.3.5.4l.2.1c.4.3.9.5 1.3.7.4.5.8.8 1.2 1.2z"/><path d="M97.4 76.9c-2.4-.3-4.4-1.9-5.1-4.2-.5-4.1 3.1-8.4 7.3-8 7.9.2 4.3 12.8-2.2 12.2zm-1.4-5c1.9-.7 3.1-2.5 3.2-4.5-.6-.2-1.3 0-1.9-.2-1.7.9-2.8 2.7-2.9 4.6.6-.1 1.1-.1 1.6.1h0z"/><path d="M107.7 82.5c-2.8-1.2-4.7-4.2-7-6.2-.6-.1-.9-.7-.8-1.3.1-.3.2-.5.5-.7.6-.4 1.2 0 1.7.4l4.4 4.3c.9.6 2.5 1.3 2.4 2.6-.1.6-.6 1-1.2.9z"/><path d="M149 93.1c-6.3-.5-12.6-1.7-18.8-2.6-3.7-.9-7.1-2.6-10.8-3.6-7.3-2-15-4.6-20-10.3-.4-.3-.6-.9-.2-1.4.8-1 2.2 0 2.7.9 4.6 5.2 11.8 6.9 18.2 8.8 3.1.9 6.2 2.1 9.2 3.2 3.1.7 6.3 1.2 9.5 1.6 3.4.4 6.8 1.1 10.2 1.4.6 0 1.1.5 1 1.1.1.4-.4.9-1 .9zm39-49.6c-1.3-.2-3.1.3-4-.9-.7-1.2.9-1.9 1.6-2.5-1 .2-2 .6-2.9 1.1a1.36 1.36 0 0 1-1.5 0c-1.1-.8-.1-2 .6-2.7 1.6-1.3 5.8-6 7.9-4.1.4.4.4 1 0 1.4-.3.3-.8.4-1.2.1-1.1.6-2.1 1.3-3.1 2.1 2.6-.8 4.2 1.4 1.9 3.3.8 0 1.9.2 1.8 1.2 0 .6-.5 1.1-1.1 1 .1.1 0 .1 0 0zm-20.2 15.2c-2-.3-10.2-.3-9.8-3.1-.1-.6.3-1 .9-1.1s1 .3 1.1.9c3.4 1.1 6.9 1.4 10.4 1.1.5-.1 1.1.2 1.2.8v.1c.1 1.7-2.6 1.2-3.8 1.3zm-18.9-3.4c-4.2-.4-8.6-.8-12.4-2.7-.6-.5-1.7-.8-1.8-1.7a.94.94 0 0 1 1-1h.1c.2 0 .5.1.7.2 1 .7 2.1 1.3 3.3 1.6 3.1.8 6.4 1.4 9.6 1.6.5.1.9.7.7 1.2-.2.6-.7.9-1.2.8zm27.5-3.4c-1.1-.4-3.5 0-3.6-1.6l-4.3-.7c-.7-.1-1.8-.2-1.9-1.1-1.4 0-2.8.1-4.1.4-.4 0-.8-.2-.9-.6-.6-1.6 1.6-1.6 2.6-1.7 1.5 0 7-.9 6.8 1.3 1.4.4 4.2 0 4.6 1.7.9.1 2.4.2 2.1 1.5-.2.5-.7.9-1.3.8zm-29-5.8c-2-.4-4-1-6-1.7-.5-.2-.8-.8-.6-1.3.7-1.4 2.4-.1 3.4.1-.1-1.3 1.4-1.2 2.3-.9 1.4.5 2.9.7 4 1.7 1.3 1 0 3-1.2 1.7-.6.4-1.3.6-1.9.4zm9.6-14.6c0-.3.1-.7.4-.9.4-.6.6-1.2.8-1.9.3-.8.2-1.8 1.2-1.9 2.3.2.3 3.8-.3 4.9s-2 1-2.1-.2z"/><path d="M188.7 18.3c.4.4.3 1.1-.1 1.5s-1.1.3-1.5-.1l-.9-1.2c-.1-.1-.2-.3-.3-.4-.4-.6-.8-1.2-1.1-1.9a.76.76 0 0 1-.2-.4l-.2-.3-.3-.4c-.1-.1-.2-.2-.3-.4 0-.1-.1-.1-.2-.2s-.1-.2-.2-.3c-.2-.2-.4-.5-.6-.7l-.4-.3-.9-.9-.9-.8c-.3-.3-.6-.5-.9-.8s-.6-.5-.9-.8l-.9-.7h0l-.9-.7-.1-.1-.9-.6-1-.7-.9-.6-.2-.1-.7-.4h0l-1-.5-1-.5-.3-.1-.9-.4h-.1c-.4-.2-.7-.3-1-.4l-.9-.3h0l-.4-.1-.8-.3-.3-.1-.9-.3c-6.1-1.3-19.1-1.1-20.7 6.5-.8 6.1 3.2 11.5 8.2 14.5 5.9 3.6 12.9 3.9 19.6 4.4 1 .2 2.7-.2 2.8 1.2 0 .9-.9 1.2-1.7 1l-4-.3-1-.1-2.8-.3-.8-.1-.8-.1c-1-.1-2-.3-3-.5l-.9-.2h-.1c-.7-.1-1.4-.3-2.1-.5l-.3-.1-.3-.1-.3-.1-.3-.1-.6-.2c-.4-.1-.8-.3-1.2-.4a.76.76 0 0 1-.4-.2c-.4-.1-.7-.3-1.1-.5l-.3-.1-.5-.3-.5-.3-.8-.4c-.2-.1-.4-.2-.6-.4-.1 0-.1-.1-.2-.1l-.4-.3-.3-.2-.5-.4-.5-.4-.6-.5c-.2-.2-.5-.4-.7-.6l-.1-.1-.4-.4c-.1-.1-.3-.3-.4-.5h0c-.1-.1-.3-.3-.4-.5l-.4-.5c-.7-.9-1.4-1.9-1.9-3-1-2-1.6-4.2-1.7-6.5C142.1.7 155.5-.7 163.3 0c6.9.9 13.1 5 18.4 9.2.7.6 1.4 1.2 2 1.9.6.6 1.2 1.3 1.7 1.9 1.1 1.3 2 2.8 2.8 4.4.2.4.4.6.5.9z"/><path d="M226.1 23.1c2.3 3.9 3.4 9.3 1.5 13.5-3.5 6.4-11.3 10-18.4 9.7-1.2 0-6.1-.7-8.3-2-.9-.5-1.3-1.1-1-1.8 0-.1.1-.1.1-.2h0 0 0l.1-.1.1-.1h.1.1 0c.7-.2 1.8.5 2.6.9h0l.4.1c.1 0 .2.1.3.1 2.6.9 5.4 1.2 8.2 1 5.9-.8 12.5-4.1 14.3-10.1.8-6.7-2.2-12-8.3-14.8-6.8-3.1-14.1-4.5-21.4-5.3-3.3-.5-6.7-.8-10-.8h-1c-.4 0-.8 0-1.2.1-.3 0-.6.1-.9.1a.76.76 0 0 1-.4.2h-.1-.1-.1a.94.94 0 0 1-1-1v-.1-.1-.1c.2-.6 1-.9 2.1-1.1 3.3-.6 9.6.3 11.1.4 10.4 1.4 24.4 2.6 31.2 11.5zm-79.6 14.4c-.2-.2-.3-.5-.2-.8-1.2-.9-7.3-2.8-4-4.7-1.4-1.2-3.9-1.4-4.8-3.1-.4-1.9 2.1-1.8 3.4-1.9-3.1-2.2-3.4-6.1 1.4-4.6-.4-1.4-1.4-2.3-2.3-3.3-1.1-1.1-.6-3.1 1.1-2.7 1.9.6 3.7 1.5 5.4 2.6.5.3.6.9.2 1.4-.3.5-.9.6-1.4.2h0l-2.4-1.2c2 2.7 2.5 6.2-2.1 4.8.8 1 2 1.6 2.9 2.5 1.1 1.7-1.3 2.4-2.6 2.4 1.3.8 5.6 2.5 3.4 4.4 1.4.9 3.6 1.3 4.2 3 0 .8-.6 1.4-1.4 1.4-.2 0-.5-.1-.8-.4zm31.6 77.4c1.2-.6 2.2.7 1.6 1.5-.1.1-.2.2-.3.2h-.1c-.1.1-.2.1-.4.1l-1 .5-.6.3-1.1.5-1.2.6c-.4.2-.9.4-1.4.6l-1.2.5-4.4 1.7-2.9 1-1.4.4h-.1l-.8.2-1.1.3-1.3.4h-.1l-.8.2-.9.2-.8.2h-.1l-.2.1-1.4.3h0l-1.6.4-1.4.3-1.5.3-.5.1-1.2.2-1.5.3-1.1.2-5.9 1h-.1l-2.1.3-1.7.2-1.7.2c-.4 0-.8.1-1.2.1-.7.1-1.5.2-2.2.2h-.2l-2.2.2-2 .2-7.2.4-1.8.1-1.8.1-3.2.1h-10.4-1.4l-.7-.1-3.3-.3-.7-.1-.7-.1-.8-.1-.8-.1-1-.2-.1-.1h0c-.5-.3-.6-1-.3-1.5.2-.3.5-.5.8-.5h.1l1 .1 2 .2 1.1.1c.6.1 1.2.1 1.8.2l1.1.1c.4 0 .7 0 1.1.1l2.2.1h.2 1.1.2c5.7.2 11.5 0 17.2-.4 15.5-1.1 31-3.3 45.7-8.7.7-.2 1.4-.4 2-.7.3-.1.6-.2.8-.3l1.2-.5c.3-.1.6-.2.9-.4l.9-.4.3-.2.7-.3.9-.5h0c.4.2.7.1 1-.1z"/><path d="M94.8 126.8c1.2.6.7 2.4-.6 2h0c-.1 0-.2-.1-.3-.1-4.1.9-8.2 2.2-11.1 5.4-2 1.8-3.8 4-5.1 6.4-.6 1.5-1.3 3.1-1.9 4.5-.7 1.6-2.7 1.8-4.1 2.2-2.6.6-5.2 1.6-7.8 1.8-.1 0-.1 0-.2-.1l-.2-.1h-.1l-.1-.1c-.1 0-.1-.1-.2-.1l-.1-.1c-.1 0-.1-.1-.2-.1l-.1-.1s-.1-.1-.1-.2a3.02 3.02 0 0 1-.2-2.1c0-.1 0-.2.1-.2 0-.1 0-.2.1-.3l.1-.2c0-.1.1-.1.1-.2h0c0-.1.1-.1.1-.2l.1-.2c.1-.1.2-.3.3-.4.6-.7 1.3-2.1 2.4-1.4 1.4 1.2-.9 2.4-1.2 3.6v.3c3.2-.6 6.3-1.4 9.3-2.6.7-1.4 1.2-2.8 1.8-4.3 1.2-2.8 3.5-5.1 5.6-7.3 2.6-2.7 6-4.6 9.7-5.3 1.2-.2 2.4-.9 3.6-.6l.3.1h0z"/><path d="M63.4 146.7c.2.5.1 1.1-.4 1.3-.1.1-.3.1-.4.1h-.3c-.2 0-.3 0-.5-.1l-.2-.1-.2-.1-.6-.3-.2-.1a1.38 1.38 0 0 1-.4-.3l-.2-.2c-.2-.1-.3-.3-.4-.5l-.1-.2-.1-.1-.1-.2-.1-.2c-.1-.1-.1-.3-.2-.4-.2-.7-.2-1.4.2-2.1l.1-.2c.8-1 2.2-3.8 3.6-2.5.4.5.3 1.2-.2 1.6l-.1.1-1.5 1.9c-.4.6.4 1.2.8 1.4.1.1.3.1.4.2.5.4.9.5 1.1 1z"/><path d="M57.4 144.3c-1.5-3.7 1.3-6 4.4-7.3.7-.4 1.5-1.1 2.2-.3 1.2 1.9-3.3 2.7-4.2 4-.7.8-.8 1.9-.4 2.8.4.1.7.5.7.9-.2 1.7-2.3 1.1-2.7-.1z"/><path d="M77.1 118.2c.6-.1 1 .3 1.1.9s-.3 1-.9 1.1l-2.5.6c1 .5.5 1.8-.4 2.2l-6.2 3.6c1.6 1-.3 2.7-1.1 3.6 2.1 1.1-1.2 3.6-1.7 5l-.1.1-.1.1c-.4.6-.6 1.4-1 2a1.3 1.3 0 0 1-1.2.8c-.5 0-.9-.4-.9-1 0-.1 0-.3.1-.4h0v-.2c.2-.4.4-.9.7-1.3.1-.1.1-.2.2-.3.1-.2.3-.4.4-.7-3.3-.4.6-4.2 1.7-5.1-.5.2-1.1.1-1.5-.3-1.6-2.2 5.4-4.9 6.8-6-.6-.1-1-.7-.9-1.4v-.1c.4-.7 1-1.2 1.7-1.4l1.6-.6h.1a15.83 15.83 0 0 1 3.1-.9l1-.3z"/><path d="M76.1 118.4c.3.5.1 1.1-.4 1.4-.1.1-.3.1-.4.1l-2.2-.6h0-.2l-.9-.3c-.4-.1-.8-.2-1.1-.4l-.5-.2h0l-.4-.2-.6-.2-.4-.2-.5-.3-.3-.2c-.2-.1-.3-.2-.4-.3-7.6-3-14.6 3.5-20 8.2-1.4 1.4-3 2.6-4.5 3.8l-.2.1-.2.1-.2.1-.5.1H42h-1.9l-.9-.1-1.2-.2-.4-.1-.6-.1c-.2 0-.3 0-.4-.1l-.4-.1c-.7-.2-1.4-.4-2-.7-.9-.4-1.6-1.2-2-2.2-.1-.4-.1-.7 0-1.1.2-1.1 1.2-1.8 2.4-2.3.3-.1.5-.2.8-.3l.4-.2.3-.1.3-.1h0c.1 0 .2-.1.3-.1l.2-.1c.5-.3 1.1-.1 1.4.4v.1c.8 2-3.7 1.9-3.8 3.4 2.1 1.7 5.2 1.8 7.7 1.8 1.4-.9 2.7-1.9 3.9-3.1 3.6-3.6 7.8-6.6 12.4-8.8 1.6-.8 3.4-1.2 5.3-1.2 2 0 4.2.2 5.8 1.4 1.8 1.3 4.4 1.5 6.4 2.4.1 0 .2.1.2.2v.1.1c-.2 0-.2 0-.1.1z"/><path d="M32.7 125.1c-1.6-.6-2.4-2.4-1.8-3.9l.3-.6c.7-1 4.5-2.7 4.9-.9.2.9-.7 1.2-1.4 1.3-.9.2-2.5.6-1.7 1.8.3-.5.9-.7 1.4-.4.4.2.6.7.5 1.2-.4.8-1.3 1.5-2.2 1.5z"/><path d="M31.8 119.8c-.7-2.3 2.6-3 3.9-4 3-4.4 7.3-7.9 12.3-9.8.2-2.6 4.7-3 6.7-3.6-.2-2.8 6.6-1 8.2-.9 1.5-.6 3.2 0 4.8 0 .6 0 1 .5.9 1.1v.1c-.3 1.6-2.3.7-3.4.7-.2.2-.5.4-.8.4-2.1-.1-4.1-.7-6.2-.9 0 .3-.2.6-.5.7-2.3.9-4.9.9-7.1 2 .7 1.7-2.1 2-3.1 2.8-2.1 1-4.1 2.2-5.9 3.6-1.8 1.5-3.1 3.5-4.6 5.3-1 .8-2.4 1.3-3.4 2.1.1.5-.2 1.1-.8 1.2-.3.1-.9-.3-1-.8h0zM69 102.2c-2.5-2.2 3-3.4 4.4-4.2-.8-2.3 3.9-2.9 5.4-3.1.1-1 1.2-1 2-1 6.1.2 12.2-.3 18.2-1.6-1.4-3.5 10.8-3.2 12.9-3.5-1 .1-1.8-1-1.1-1.8.6-.4 1.4-.6 2.1-.5 2.8-.1 5.6 0 8.3.4 1.3.2 2.7.2 4 .3.6 0 1 .5 1 1a1.08 1.08 0 0 1-1 1c-2.6-.1-5.2-.5-7.8-.7 1.4 3.1-7.2 2-8.9 2.5.7 0 1.2.7 1.2 1.4v.1c-.6 2.2-6.6 1.2-8.6 1.7-3.2.4-6.3 1.2-9.4 1.6-3.1 0-6.2.4-9.3.3-.4.9-1.4.9-2.1.9 0 1.1-1.3 1.2-2.2 1.6-2.4.8-4.8 1.7-7.2 2.8 0 .7-.5 1.2-1.2 1.2-.2-.1-.5-.2-.7-.4zm147.4 14c.4 10-4.2 19.9-11.5 26.7-3.3 2.6-7.1 4.4-10.6 6.7-14.1 8-29.9 12.9-45.8 16-12.4 2.6-25 3.9-37.7 3.8-17.2-.5-42.1-1.4-57.1-9.8-3.2-1.9-6.5-3.7-9.5-5.8-2.3-2-4.4-4.3-6-6.8-4.2-5.2-5.1-12.1-4.2-18.5v-.5c.1-.5.2-1 .8-1.2s1.1.1 1.3.7v.2c-.1.3-.1.7-.2 1 0 .2 0 .4-.1.6v.3.6.8.8 1.5.7.6.4.2a.9.9 0 0 0 .1.5c0 .2 0 .3.1.4s0 .2 0 .4 0 .2.1.4v.1c0 .2.1.3.1.5s.1.4.1.6.1.4.2.6h0c.4 1.5 1 3 1.8 4.4.1.2.2.3.3.5.2.3.4.6.5.9l.3.5.2.3c.1.1.2.2.2.4l.2.2c.1.1.2.3.3.4.2.3.4.6.7.9.1.1.2.3.3.4l.5.6c.6.7 1.2 1.3 1.8 2 2.5 2.8 6 4 9 6.1 4.5 2.9 9.5 4.9 14.8 6 7.2 1.8 14.6 3 22.1 3.6l2.1.2.8.1 2.1.2 2.5.2c.8.1 1.7.1 2.5.1l2.2.1 1.6.1 1.9.1 3 .1c3.5.1 7 .1 10.5 0 11.8-.7 23.6-2.3 35.1-4.8l1.2-.3 1.2-.3 1.3-.3 1.4-.4c.6-.1 1.1-.3 1.7-.4l1.6-.4h.1l1.6-.4.7-.2 2.4-.7h.1l1.7-.5 1.8-.6 1.2-.4 1-.4.9-.3.9-.3.4-.2c.4-.1.8-.3 1.2-.4l1-.4c1.1-.4 2.3-.9 3.4-1.4.8-.3 1.6-.6 2.4-1 1-.5 2.1-.9 3.1-1.4l1.2-.6 1.5-.7 1.1-.6c.4-.2.9-.4 1.3-.7 5-3.4 11.2-5.7 15.1-10.4 6.4-7.8 10.4-18.9 7-28.7-1.6-5.6-4.6-10.8-9.3-14.3-2-1.8-4.3-3.3-6.7-4.5l-.3-.2-.3-.1c-.6-.3-1.2-.5-1.8-.7l-.4-.1-.4-.1c-.2-.1-.5-.1-.7-.2-.7-.2-2-.1-2.4-.8-.1-.2-.1-.3-.1-.5v-.2h0c0-.1.1-.2.1-.3h0l.1-.1h0l.1-.1h0 0l.1-.1h0l.2-.1h.2c.7-.1 1.4 0 2.1.1 1.9.5 3.8 1.2 5.5 2.1 5.6 3.3 10.9 7.8 13.7 13.7 1.7 4 3.6 8.3 3.4 12.8z"/><path d="M182.7 149.9v2.5.5c-.1 1.6-.5 3-2 2.4-.5-.3-.4-.9-.4-1.4v-.2-.2c.2-2.5.2-4.9-.1-7.4 0-.3-.1-.5-.1-.8-.1-.9-.3-1.9-.5-2.8 0-.1-.1-.3-.1-.4-.1-.3-.1-.7-.2-1l-.1-.4c0-.2-.1-.4-.1-.5s-.1-.6-.2-.9l-.9-2.9c0-.1-.1-.2-.1-.3s-.1-.2-.1-.4l-.1-.4c-.1-.4-.3-.7-.4-1s-.2-.5-.3-.7l-.2-.4-.2-.4c-.4-.8-.8-1.5-1.3-2.2-.1-.1-.1-.2-.2-.3l-1.4-1.9-.3-.4c-.1-.1-.1-.2-.2-.2l-.3-.3-.3-.3-.3-.3-.2-.2-.3-.3-.2-.2-.3-.3-.2-.1-.3-.3c-.1-.1-.4-.4-.7-.5l-.2-.2c-.1-.1-.2-.2-.4-.3l-.3-.2-.5-.3-.3-.2c-.7-.4-1.4-.7-2.1-1l-.4-.2-.4-.2-.3-.1c-.6 0-1-.5-1-1a1.08 1.08 0 0 1 1-1 18.77 18.77 0 0 1 3 1.2l.5.2.4.2 1 .6.4.3 2.1 1.5.2.2.3.2c.1.1.2.2.3.2l.4.3.3.3c.9.9 1.6 1.8 2.4 2.8.1.1.2.3.3.4s.2.3.3.4l.3.4c.1.1.2.3.3.4l.3.6.2.4.2.5c.5.9 1 1.9 1.4 2.9l.2.4 1.4 4.1c0 .1.1.3.1.4l.5 2 .1.6.5 2.9c0 .2.1.4.1.6v.4c0 .1 0 .3.1.5s.1.5.1.8v.5c0 .4.1.8.1 1.2s-.3.9-.3 1.2zm-79.6-21.1c.5.1.9.6.8 1.2 0 .1 0 .3-.1.4 0 0 0 .1-.1.1v.1l-.2.3c-4.2 9.5-5.5 20-3.9 30.2.4 2 1.4 3.3 1.7 5.2.1.2.2.4.2.6 0 .6-.5 1-1.1 1-.2 0-.4-.1-.5-.2-.3-.2-.5-.6-.6-.9 0-.1-.1-.1-.1-.2v-.2c0-.2-.1-.3-.1-.5-1.7-3.8-2.5-8-2.2-12.2 0-1 0-2.1.1-3.1v-.5c0-.4 0-.8.1-1.2 0-.2 0-.4.1-.6 0-.5.1-1 .1-1.5 0-.2 0-.5.1-.8.2-2 .6-4.1 1-6.1 0-.2.1-.5.2-.8l.2-.8c0-.1.1-.3.1-.4s.1-.4.1-.6l.6-2c.1-.2.2-.5.2-.7s.2-.5.2-.7.1-.4.2-.6.2-.6.3-.9.2-.5.3-.7.2-.5.3-.7l.3-.6v-.1l.3-.7.2-.3c.2-.3.7-.7 1.2-.5h0 0zm-62.9-.6c1.1-1 2.4.3 1.7 1.2h0v.1c-.1.1-.2.2-.4.3-3.2 2.8-3 7.6-3 11.6v1.2.1.1.1c0 .1-.1.2-.2.2-.1.1-.3.2-.5.3a1.1 1.1 0 0 1-1.2-.8c-.1-1.2-.1-2.6-.1-3.9h0v-1-.6c0-.5.1-1.1.2-1.6v-.2c.1-.4.2-.9.2-1.3 0-.1 0-.2.1-.3 0-.1 0-.2.1-.3s.1-.2.1-.4 0-.1.1-.2.1-.4.2-.6l.1-.2c0-.1.1-.1.1-.2.1-.2.1-.3.2-.5s.1-.2.1-.3c.1-.1.1-.2.2-.3l.3-.5.2-.2c.1-.1.1-.2.2-.2l.2-.3c.1-.1.1-.2.2-.2.1-.4.5-.8.9-1.1z"/></g><path d="M177.6 51.1c.2-1.3-1.2-1.3-2.1-1.5-.4-1.7-3.3-1.3-4.6-1.7.1-2.2-5.4-1.2-6.8-1.3-1.1.1-3.2.1-2.6 1.7.2.4.5.6.9.6l4.1-.4c.2.9 1.2 1 1.9 1l4.3.7c.1 1.6 2.5 1.2 3.6 1.6.7.2 1.2-.2 1.3-.7h0zm10.9-15c.5.2 1.1 0 1.3-.5.2-.4.1-.8-.1-1.1-2-1.9-6.3 2.8-7.9 4.1-.7.7-1.7 1.9-.6 2.7.5.3 1.1.3 1.5 0 .9-.5 1.9-.8 2.9-1.1-.7.6-2.4 1.3-1.6 2.5.9 1.2 2.7.7 4 .9.5.1 1-.3 1.1-.9v-.1c.1-1-1-1.2-1.8-1.2 2.2-1.9.7-4.1-1.9-3.3l3.1-2h0zm17.1-4.8l5.7 1.3c-3.1 2.2-6.6 3.6-10 5.2-.6.3-1.3.6-1.5 1.3-.3 1.7 1.8 1.6 2.9 1.2-.7.6-1.5 1.2-2.3 1.7-.2 0-.3.1-.5.3-1.6.9-3.3 1.7-5 2.4-1.1.6-3.9.9-3.6 2.5-.6.1-1.1.2-1.6.3-.2 0-.3.1-.4.2-.6-.1-1.2.3-1.4.9-.1.5.1.9.5 1.2.2.4.3.7.5 1.1s.3.6.4.9c-1.3.8-.1 2.6.1 3.8 1 3.5 2.4 7 2.9 10.7-.4-.7-.8-1.6-1.6-1.7-.6 0-1.1.3-1.3.9-.4 1.3 0 2.7.3 4 .6 2.4 1.2 4.7 1.7 7.2-1.9 0-1.2 2.5-1 3.7.4 2.4.9 4.8 1.2 7.2-.6 0-1 .5-1 1.1a.9.9 0 0 0 .1.5c-1.4.9-.6 5.8-.8 7.1-1 .4-.5 1.7-.4 2.5.2 1.5.3 2.9.5 4.6.1.5.6.9 1.1.9h.1.2c.2.2.4.5.6.7-.6 1.5 1.6 2.2 2.4 3.1 2 1.5 3.2 3.8 4.9 5.6-.3.6 0 1.1.4 1.6.9 1.6 1.6 3.2 2.2 4.9-1.2-.1-1.4 1.3-.8 2.1.5 1.1.9 2.3 1 3.6-2.3-.3-1.2 2.3-1 3.5.1 2.5.3 5.5-.9 7.8.1-.7.4-1.5-.4-1.9-.5-.2-1-.1-1.3.3-.7 1.6-.7 4-2.5 4.8.4-.8.8-1.7 1-2.6.2-.6-.2-1.1-.7-1.3s-1.1.2-1.3.7c-.7 2.1-1.8 4.9-4.5 4.7.9-1.3 1-4.3-.7-4.7-.3-.1-.6-.1-.8 0l-.1.1h.1c-.7.4-1.2 1-1.8 1-.3 0-.7-.2-1.1-.9.9-2.2 4-1.8 5.1-3.9 2.4-4-3.2-12.8-6.2-15.6-2.1-1.8-4.5-4.3-7.5-4.1a1.08 1.08 0 0 0-.7 1.4c.1.2.1.3.3.4-2.5 1.3-5.1 2.4-7.7 3.2-14.7 5.3-30.2 7.5-45.7 8.7-9.6.8-19.3.6-28.9-.5h0l-.2-.1c-1.2-.3-2.4.4-3.6.6-3.7.7-7.1 2.6-9.7 5.3-2.2 2.2-4.4 4.4-5.6 7.3l-1.8 4.2c-3 1.1-6.2 2-9.3 2.6v-.3c.2-1.2 2.6-2.4 1.2-3.6-1.1-.7-1.8.7-2.4 1.4a3.1 3.1 0 0 0-.9 1.8c-.1-.1-.3-.1-.4-.2-.4-.3-1.2-.9-.8-1.4.4-.7.9-1.3 1.5-1.9.5-.3.7-1 .5-1.5l-.1-.1c-1.5-1.3-2.8 1.5-3.6 2.5l-.1.2a2.63 2.63 0 0 1 .4-2.7c.8-1.1 4.4-1.9 4.5-3.3.3-.8.7-1.5 1.2-2.3.5-1.4 3.9-3.9 1.7-5 .8-.9 2.7-2.6 1.1-3.6 2-1.3 4.1-2.4 6.2-3.6.9-.3 1.4-1.6.4-2.2.8-.3 1.6-.5 2.5-.6.6-.1 1-.6.9-1.1-.1-.6-.6-1-1.1-.9h0c-.3.1-.7.1-1 .2a.78.78 0 0 0-.4-.4c-2-.9-4.6-1.1-6.4-2.4-1.6-1.2-3.8-1.4-5.8-1.4-1.8-.1-3.6.3-5.2 1.2-4.6 2.2-8.8 5.2-12.4 8.8-1.2 1.1-2.5 2.1-4 3-2.6 0-5.6-.2-7.7-1.8.1-1.5 4.6-1.4 3.8-3.4-.2-.5-.8-.7-1.3-.5-.7.3-1.5.6-2.2 1-.5-.3-1.1-.2-1.4.3h0c-.8-1.2.9-1.6 1.7-1.8.7-.1 1.5-.4 1.4-1.3s-.9-.9-1.7-.8c.9-.6 1.9-1 2.8-1.6 1.5-1.8 2.8-3.8 4.6-5.3 1.8-1.4 3.8-2.6 5.9-3.6 1-.7 3.8-1 3.1-2.8 2.2-1.2 4.8-1.1 7.1-2 .3-.2.4-.4.5-.7 2.1.1 4.1.7 6.2.9.3 0 .6-.2.8-.4 1-.1 2.7.7 3.2-.3.1-.1.1-.3.1-.4.1-.5-.3-1-.9-1.1h-.5c0-.1.1-.2.2-.3.3-.3.7-.6 1.1-.7h0c-.4.5-.3 1.1.4 1.8.2.2.6.3.9.3.6 0 1.1-.4 1.1-1v-.2l.2-.1c2.3-1 4.6-1.9 7-2.7.8-.3 2.1-.5 2.2-1.6.7 0 1.7.1 2-.8 3.1 0 6.2-.3 9.3-.3 3.2-.4 6.3-1.2 9.4-1.6 2-.5 8 .6 8.6-1.6.1-.7-.4-1.3-1.1-1.4h-.1c1.7-.5 10.3.7 8.9-2.5 2.6.2 5.2.6 7.8.7a1.08 1.08 0 0 0 .7-.3c1.4.5 2.9 1 4.4 1.4 6.2.9 12.5 2 18.8 2.6.6-.1 1-.6 1-1.2 0-.5-.4-.9-.9-1-3.4-.3-6.8-1-10.2-1.4-3.2-.4-6.5-.9-9.6-1.6l-9.2-3.2c-3.9-1.1-7.7-2.4-11.4-4-.4-.8-1.5-1.3-2.2-1.7-1.6-1.3-2.9-2.9-4.4-4.3h0c2.2-2.5 2.8-6.6.9-8.7.2-.1.3-.2.5-.3 2.1-1.1 4.1-2.5 6.2-3.7 9.6-4.9 18.4-11 27.4-16.8 1.2-.8 2.4-1.5 3.7-2.3l-.1.1c-.2.5.1 1.1.6 1.3 2 .7 4 1.3 6 1.7.6.2 1.3 0 1.9-.4 1.2 1.3 2.6-.7 1.2-1.7-1.1-1-2.6-1.2-4-1.7-.9-.4-2.4-.5-2.3.9-.8-.3-1.6-.6-2.4-.7 1-.6 2-1.1 3-1.6 1.2-1 0-2.2-1.3-1.9 4.1-1.3 8.2-1.4 12.5-2.1 2.4-.6 1.7-2.6-.3-3.1 2.4.2 4.7.6 7 1.1 1.1.1 3.1 1.2 3.6-.3 1.5.6 3.1 1.2 4.6 1.7.6.3 1.5.4 1.9-.2.7.6 1.5 1.1 2.4 1.5 0 .3.1.5.2.7 1.7 1.9 4.1-4.7 4.8-5.8.7 1.4 2 .2 2.6-.6 2.5-2.1 5.5-3.6 8.6-4.4-.8.5-1.6 1.1-2.3 1.8a1.08 1.08 0 0 0 .2 1.4h.1c.3.2.7.2 1 .1.6-.3 1.1-.6 1.7-.8 4.1-1.1 8.3-1.3 12.5-.8-1.6.4-.4 1.5.7 1.7h0zm-47.2-3c0 .1-.1.3-.1.4-.2.7-.5 1.3-.8 1.9-.3.2-.4.5-.4.9 0 .1 0 .2.1.3-3.2-.4-10.1-.9-11.9.9.3-1.5-2.9-2.9-4-3.5 1.3 0 3.7-.7 2.6-2.4-.9-.9-2.1-1.4-2.9-2.5 4.6 1.4 4.1-2.1 2.1-4.8.8.4 1.6.7 2.4 1.2.2.2.6.2.8.1 1.1 1.4 2.3 2.5 3.8 3.5 2.3 1.8 5.2 3.2 8.3 4zm-5.6 6.8l-4.5.5c-.4-.4-.8-.7-1.2-.9h0c1.9 0 3.8.2 5.7.4z" fill="#e9e1d3"/><path d="M168.8 30c-1.4.5-.5 2.5.2 3.3-2.8-1.1-5.7-2.1-8.7-2.8-.1-.1-.3-.1-.4-.1.2-.5.4-1 .5-1.5l8.4 1.1z" fill="#fff"/><path d="M67.7 102.9c-.5-.3-.7-1.1-.3-1.6 0-.1.1-.1.1-.2.3-.3.7-.6 1.1-.7.5-.3 1.1-.6 1.7-.8a.94.94 0 0 1 1 1v.3c-.2.4-.5.8-.9 1.1-.6.4-1.2 1.2-2 .9-.2.1-.5.1-.7 0z" class="K"/><path d="M180.4 146.1c.3 2.5.3 4.9.1 7.4l-.1.4c-8.7 3.5-17.6 6.4-26.8 8.4-11.6 2.5-23.3 4.1-35.1 4.8a239.25 239.25 0 0 1-16.9-.3c0-.2-.1-.4-.2-.6-.3-1.9-1.4-3.3-1.7-5.2-1.6-10.2-.2-20.7 3.9-30.1a1.69 1.69 0 0 0 .3-1c18.9.4 42.1-1.3 61.4-7.5 9.5 3.5 14 14.2 15.1 23.7zM39.1 129.3l-.2.2c-.1.1-.1.2-.2.2l-.2.2-.2.3c-.1.2-.2.3-.3.5l-.2.3-.1.3c0 .1-.2.3-.2.5 0 .1-.1.1-.1.2s-.1.1-.1.2l-.2.6c0 .1 0 .2-.1.2 0 .1-.1.2-.1.4l-.1.3c0 .1 0 .2-.1.3-.1.4-.2.9-.2 1.3v.3c-.1.5-.1 1.1-.2 1.6v.6.9l-.2-.5-.1-.6c0-.2-.1-.3-.1-.5v-.1c0-.1 0-.3-.1-.4l-.1-.4v-.4c0-.1 0-.4-.1-.5v-.2-.4-.6-.7-1.5-.8-.8c0-.3 0-.4.1-.7v-.3c0-.2 0-.4.1-.6.3.1.6.1.9.2l.6.1 1.8.3zm39.8-34.5c0 .1 0 .1-.1.2-1.6.2-6.2.8-5.4 3.1-1 .6-4 1.3-4.8 2.4h0c-.4.1-.8.4-1.1.7-.1.1-.1.2-.2.3-1.4-.1-3-.5-4.3 0-1.6-.2-8.5-2-8.2.9-2 .6-6.5 1-6.7 3.6-2 .8-3.9 1.9-5.6 3.1l1.4-1.5h0c4.9-4.3 11-7 17.1-9.5 4.9-1.6 10.3-2.2 15.4-2.9.8-.2 1.6-.3 2.5-.4z" fill="#e76e4a"/><path d="M101.8 129.9l-.3.7v.1l-.3.6c-.1.2-.2.5-.3.7l-.3.7c-.1.2-.2.6-.3.9s-.1.4-.2.6-.2.5-.2.7-.2.5-.2.7l-.6 2c0 .2-.1.4-.1.6s-.1.3-.1.4-.1.5-.2.7-.1.5-.2.8l-1 6.1c0 .2-.1.5-.1.8-.1.5-.1 1-.1 1.5v.6c0 .4 0 .8-.1 1.2v.5c-.1 1-.1 2.1-.1 3.1-.3 4.2.5 8.4 2.2 12.2 0 .2.1.3.1.5v.2l.1.2c-.8 0-1.7-.1-2.5-.1l-2.5-.2-2.1-.2-.8-.1-2.1-.2c-7.5-.6-14.8-1.8-22.1-3.6-5.3-1.1-10.3-3.1-14.8-6-3-2.1-6.5-3.3-9-6.1-.6-.7-1.2-1.3-1.8-2l-.5-.6-.3-.4c-.2-.3-.4-.6-.7-.9l-.3-.4c-.1-.1-.1-.2-.2-.2 0-.1-.2-.2-.2-.4l-.2-.3-.3-.5c-.2-.3-.4-.6-.5-.9l-.3-.5.2-.2s0-.1.1-.1v-.1-.1-.2-.9c0-3.9-.3-8.7 3-11.6.1-.1.3-.2.4-.3v-.1h0 0 .2c.2 0 .4 0 .5-.1l.2-.1c.1 0 .2 0 .2-.1l.2-.1c1.5-1.2 3.1-2.4 4.5-3.8 5.4-4.7 12.3-11.1 20-8.2.1.1.3.2.4.3l.3.2.5.3.4.2.6.2.4.2h0l.5.2c.4.1.8.2 1.1.4l.9.2h.2-.1c-.5.2-1.1.4-1.6.6-.7.2-1.4.7-1.7 1.4-.2.6.1 1.3.7 1.4h.1c-1.4 1.1-8.5 3.9-6.8 6 .4.4.9.5 1.5.3-1.1 1-5 4.8-1.7 5.1-.1.2-.2.5-.4.7-.1.1-.1.2-.2.3-.3.4-.5.8-.7 1.3v.2h0l-.3.2c-3.1 1.3-5.8 3.6-4.4 7.3.3.7 1 1.2 1.7 1.2a.76.76 0 0 0 .2.4c0 .1.1.1.1.2l.1.2.1.1.1.2c.1.2.3.3.4.5l.2.2c.1.1.3.2.4.3l.2.1.6.3.2.1c.1 0 .2.1.2.1.2 0 .3 0 .5.1h.3l.1.1s0 .1.1.1c0 .1.1.1.2.2l.1.1.2.1.1.1h.1c.1 0 .1.1.2.1s.1 0 .2.1c2.7-.1 5.2-1.1 7.8-1.8 1.5-.5 3.4-.6 4.1-2.2.7-1.4 1.3-3 1.9-4.5 1.4-2.4 3.2-4.5 5.3-6.3 2.9-3.2 7-4.5 11-5.4.1.1.2.1.3.1h0l.1.1 1 .2.8.1.8.1.7.1.7.1c.9-.2 2.1-.1 3.2 0zm111.3-20c3.4 9.9-.6 20.9-7 28.7-4 4.8-10.1 7-15.1 10.4l-1.3.7-1.1.6-1.6.7-1.2.6-3.1 1.4v-.5-2.5-1c0-.3 0-.8-.1-1.2v-.5c0-.2-.1-.5-.1-.8 0-.2 0-.3-.1-.5v-.4c0-.1 0-.4-.1-.6-.1-.9-.3-1.9-.5-2.9l-.1-.6c-.1-.7-.3-1.3-.5-2 0-.1-.1-.3-.1-.4-.4-1.4-.9-2.8-1.4-4.1l-.2-.4c-.4-1-.9-1.9-1.4-2.9l-.2-.5-.2-.4-.3-.6-.3-.4c-.1-.1-.2-.3-.3-.4l-.3-.4c-.1-.1-.2-.3-.3-.4-.7-1-1.5-1.9-2.4-2.8l-.3-.3-.4-.3c-.1-.1-.2-.2-.3-.2l-.3-.3-.2-.2c-.7-.6-1.3-1.1-2.1-1.5l-.4-.3c-.3-.2-.6-.4-1-.6l-.4-.2-.5-.2c1.5-.5 3-1.1 4.4-1.7.4-.2.8-.3 1.2-.5l1.4-.6 1.2-.6c.4-.2.8-.3 1.1-.5l.6-.3 1-.5c.1 0 .2-.1.3-.1h.1c.1-.1.2-.2.3-.2l.5.3.3.2c.1.1.3.2.4.3s.2.1.3.2l.4.3c.1.1.2.1.2.2.1.1.3.2.4.3l.3.3.6.5.4.4.4.4.6.6.3.3.4.5c.1.2.3.3.4.5a1.38 1.38 0 0 0 .3.4l.2.3.3.5a47.53 47.53 0 0 1 1.7 3.1l.2.5c.1.2.1.2.1.4s.2.5.3.8.1.3.1.4v.1l.1.5c0 .2.1.3.1.5.1.5.3 1.1.4 1.6.3 1.9-2 2.2-3.2 2.9-2.6 1.6-3.6 4.3-.6 6.1.4.2.8.4 1.3.4h.3.2.2.1l.2-.1c.1 0 .2 0 .2-.1l.2-.1c.1 0 .2-.1.2-.1l.1-.1.1-.1h0c0 .1 0 .2-.1.2v.1l-.1.2c0 .1 0 .1-.1.2l-.6 1.2c-.4 1.2.7 2.1 1.8 2.1.4.1.7.1 1.1.1h.2l.4-.1h.2 0l.2-.1h0l.2-.1h0l.2-.1c.2-.1.3-.2.5-.2.1 0 .2-.1.2-.1l.2-.1c.2-.2.5-.3.7-.5l.2-.2h0 .1c.3.1.7.2 1 .2h.2.2l.2-.1h.2c.2-.1.3-.1.5-.2.1 0 .1 0 .1-.1.2-.1.4-.2.6-.4a.78.78 0 0 0 .4-.4h.1c1.3 0 2.2-1.1 3-2.1 2.2-2.8 2-6.5 1.9-9.9 2.2-.3.7-4.5.6-5.9 1.7-.5.6-2.6.2-3.7-.4-1.3-1-2.6-1.6-3.8 1.1-1.7-2.4-4.5-3.3-5.9.1-.3 0-.7-.2-1a65.2 65.2 0 0 0-4-3.4c-.2-.4-.4-.9-.7-1.3l-.1-.2-.3-.4-.2-.2c-.1-.2-.3-.3-.4-.5l-.4-.4c-.1-.2-.3-.3-.5-.5l-.2-.2-.2-.2v-1c0-2.1-.1-4.6 0-6.1.3.5 1 .7 1.5.4.2-.1.3-.3.4-.5.1-1.4.1-2.9 0-4.3v-.1l.4.1.4.1c.6.2 1.2.4 1.8.7l.3.2.3.2c2.4 1.2 4.6 2.7 6.7 4.5 5.8 2.9 8.7 8.2 10.4 13.8z" fill="#f5cd35"/><path d="M97.3 67.2c.6.2 1.3 0 1.9.2-.1 2-1.3 3.8-3.2 4.5-.5-.2-1.1-.2-1.6-.1.1-1.9 1.2-3.7 2.9-4.6zm120.6-48.1c6.1 2.8 9.1 8.1 8.3 14.8-1.8 6-8.4 9.2-14.3 10.1-2.8.2-5.5-.1-8.2-1-.1 0-.2 0-.3-.1-.1 0-.2-.1-.4-.1h0c.2-.1.4-.3.5-.4s.2-.1.3-.2l.3-.3.5-.5.2-.2.1-.1.1-.2h0l.1-.2.1-.2.1-.2h0c0-.1.1-.1.1-.2.1-.2.1-.3.1-.5v-.2c0-.4-.1-.8-.3-1.1 2.2-1.2 14.1-6.1 6.6-7.8.6-.1 1-.6.9-1.2 0-.3-.2-.5-.4-.7-.6-.4-1.4-.2-2-.5-4.8-1.4-9.8-1.9-14.8-1.2.7-.5 1.8-1 1.4-2-.8-2.5-12.8 2.7-14.2 4 .2-1.2 1.2-3.8-.7-4-.8 0-1.2.9-1.5 1.5-.2.4-.5.9-.7 1.4-.1.2-.2.4-.3.5-1.1 2.2-2 4.4-3.2 6.5-.1.2-.2.3-.3.5l-.1.2c-.4-.3-.9-.5-1.3-.7l-.2-.1c-.2-.1-.3-.2-.5-.4-1.2-1.1-2.3-2.4-3.4-3.6-.2-.2-.3-.4-.5-.5l-.2-.1-.1-.1 4 .3c.8.2 1.7-.1 1.7-1-.1-1.4-1.9-1-2.8-1.2-6.7-.6-13.7-.9-19.6-4.4-5-3-9-8.4-8.2-14.5 1.6-7.6 14.6-7.9 20.7-6.6l.9.3.3.1.8.3.4.1h.1l.9.3 1 .4h.1l.8.4.2.5 1 .5 1 .5h0l.9.5.2.1.9.6c.3.2.7.4 1 .7l.9.6.1.1c.3.2.6.4.9.7h0c.3.2.6.5.9.7l.9.8c.3.3.6.5.9.8s.6.6.9.8v.1.2a.94.94 0 0 0 1 1h.1.1.1c.2.2.4.4.6.7l.2.3.2.2.3.3.3.4c.1.1.1.2.2.2s.2.3.2.4c.4.6.7 1.2 1.1 1.9.1.1.2.3.3.4l.9 1.2c.4.4 1 .5 1.5.1.4-.4.5-1 .1-1.5-.1-.2-.4-.5-.5-.7-.7-1.6-1.6-3.1-2.7-4.4h1c3.3 0 6.7.2 10 .8 7.4.7 14.7 2 21.4 5.1z" fill="#fff"/><g class="K"><path d="M161.8 28.7c-.5-.1-.9-.7-.7-1.2s.7-.9 1.2-.7c1.2-.5 4.9-3.9 5.9-2.1.2.5 0 1.1-.4 1.3-1.7.7-3.2 1.9-4.8 2.8-.6.1-.9.1-1.2-.1zm5.6-.5c-1.3-2.1 4-3.3 5.3-3.8.5-.2 1.1.1 1.3.6.3 1.7-2.3 1.5-3.3 2.1-1.1.4-2.2 2.2-3.3 1.1zm17.5 35.7c-.9 0-1.4-.9-1.7-1.6-.2-.5 0-1.1.5-1.3.2-.1.5-.1.8 0 0-1.2-1.3-4.8.6-5 .6 0 1 .4 1 .9v.1c-.3 1.9 1.8 6.5-1.2 6.9zm12.9-21.6c-1.6-1.5 2.1-3.2 2.9-4.2.4-.3 1.1-.3 1.4.2.3.4.3 1.1-.2 1.4-.9.9-2 1.5-2.8 2.5-.2.3-.8.4-1.3.1zM147 151.6c-.4-.4-.5-1-.1-1.4a82.42 82.42 0 0 1 6.2-5.6.97.97 0 0 1 1.4.1c.3.4.3 1.1-.1 1.4l-4.9 4.3c-.7.7-1.5 2.1-2.5 1.2zm4.1 1.9c-1.7-1.5 2.6-3.7 3.6-4.7a.992.992 0 1 1 1.3 1.5l-3.5 2.9c-.4.5-1 .6-1.4.3zm-25.8-56c-2-.6-4.4-.8-6-2.2-.9-1.4.9-2.2 2-2.3 1.6-.5 8.5-1.2 8 1.7-.2.5-.8.8-1.3.5-1.6-.7-3.5-.9-5.2-.4 1.1.6 4 .3 3.7 2-.1.4-.7.8-1.2.7zm-13.6 2.4c-2.7 0-5.5-.3-8.1-1-1.1-.2-2-1.5-.9-2.3 1.4-.8 3.3-.8 4.9-1 1-.1 2-.1 3-.1.5.2.7.8.5 1.3-.1.2-.2.4-.4.5-1 .2-2 .3-3 .3a28.28 28.28 0 0 0 4.1.3c.6 0 1 .4 1.1.9 0 .6-.4 1-.9 1.1h-.3 0zm8.2 1.5c-1.6.2-4-1.2-2.2-2.8 1.1-.7 4.2-1.1 4.5.7.9 0 2.2-.4 2.4.8.2 1.9-3.5 1.1-4.7 1.3z"/><path d="M191.5 92.7c.1.7 0 1.3-.3 1.9-.1 1.3.4 2.7-.4 3.8l.7 3.5v.1c0 .2-.1.3-.1.5v.1h0s0 .1-.1.1c-.9-2.6-.6-8.3.2-11.4v1.4zm-5.1 43.8h0 0 0 0z" class="L"/><path d="M148.1 35.9c-2.7.1-3-2.2-3.6-4.2-.9-1.1-2.6-1.2-3.5-2.5-.5-.5-.5-1.3 0-1.8l.1-.1c-.2-.3-.3-.7-.2-1 0-.2.1-.4.2-.5-.6-.4-1.4-.3-1.9-.9-.4-.5-.3-1.2.2-1.6l.1-.1c.9-.6 1.7.3 2.6.4l.1-.2a2.5 2.5 0 0 1 1.4-2.9c-.3-.8 0-1.8 1-1.9 1.6.2 2.5 2 3.9 2.7 1.8 1.6 4.8 2.1 5.9 4.4l1.8.7.4.2c1.2 0 2.2.9 2.3 2.1-.1 1.5-1.7 2.1-2.8 2.8 0 1.5-2 1.8-3 2.5-1 .3-1.8 1.4-2.9 1.2-.5.6-1.3.8-2.1.7zm-.8-2.8l.4-.4h-.6c.1.2.2.3.2.4h0zm19 123.1c1.2-.9 2.2-2.2 3.2-3.2 3.4-3.3 6-7.5 7.3-12.1 2-6.8 3.8-13.8 2.4-20.8-1.8.2-1.4-2.1-1.4-3.2-.1-.5-.1-.9.1-1.3-.1-.5.2-.9.7-1.1.1-.3.3-.6.6-.6 2.3-.3 2 3.3 4.1 3.9 3 1.5 4.8 4.6 6 7.6 1 1.7 1.3 3.7.6 5.6-.4 1.6-1.7 2.7-2.8 3.9-.3.4-.5.8-.7 1.2h0c-.2.2-.3.4-.3.6v.3c-.1.3-.1.7.1 1s.4.6.8.6c.3.1.7.2 1 .1 0 .2 0 .4-.1.6.4-.5 1.2-.6 1.7-.2.3.3.5.6.4 1-.1.6-.1 1.3.1 1.9.7-.1 1.3-.1 2 0 .6.1 1.2.1 1.8.1 1.8-.9 4.1-1.4 5.5-2.9 2.8-5.1 3.8-12.9 1.8-18.3-.9-3.4-1.3-7.2-3.8-9.9-1.6-2.6-2.9-5.6-5.7-7.2-.3-.3-.5-.6-.6-1l.1-.1h0v-.1c.1-.1.1-.3.1-.5v-.1c-.1-1.2-.4-2.4-.7-3.5.8-1 .3-2.5.4-3.8.4-.5.3-1.3.3-1.9 0-.4-.1-.9-.1-1.3.1-.5.3-1 .6-1.5 1-1.5 2.7-.7 3.9 0 1.1.5 2.2 1 3.4 1.4 1.2.5 2.4 1.2 3.4 2 1.5.7 2.9 1.6 4.2 2.7 3.6 3.4 6.8 7.5 8.4 12.2 3.1 8.7-.7 17.8-4.9 25.4-2.1 4.5-6.1 7.7-9.8 11-3 3.2-6.6 5.7-10.6 7.4-1.7 1-3.4 1.9-5.2 2.6-.5.2-1.1.3-1.7.3-2.7 1.7-5.8 2.8-9.1 3.2-3.8.6-7.2 2.2-10.8 3-2.9-1.2 2.1-4.2 3.3-5z" class="L"/><path d="M211.2 33c.1.7-.5 1.1-1 1.4-2.9 1.8-5.8 4-8.8 5.6.1.3 0 .5-.1.8 0 .1-.1.1-.1.2 2.7 2.2-3.5 3.2-4.8 3.9-1.6.5-4.2 3.9-5.7 2.3-1 1.6-1.4 3.5-1.2 5.3.6.7 1.1 1.6 1.3 2.5 1 2.6 1.6 5.4 1.7 8.2 0 1.2.8 4-1.3 3.8-.1.1-.2.3-.3.3l-.2.1c.2 6.5.1 13 .5 19.5.1 1.4.1 2.9.2 4.3 0 .4 0 .9.1 1.3.1.7 0 1.3-.3 1.9-.1 1.3.4 2.7-.4 3.8.3 1.2.5 2.3.7 3.5v.1c0 .2-.1.3-.1.5v.1h0s0 .1-.1.1c-.3.4-.9.7-2.1.8-1.6-.3-1.8-2.2-2.2-3.4-.9-.2-1-1.2-.9-2-1.3 0-1.9-4.6-1.4-5.5-.1-6.6-1.3-13-2.2-19.5-.2-.9.2-2.4 1.4-2.1.3 0 .5.2.7.4.6 1.2 1.1 2.4 1.5 3.7.2-5.4 0-10.7 0-16.1 0-.4 0-.8-.1-1.2a1.11 1.11 0 0 1 1.1-1.1c.2 0 .4 0 .5.1-.2-3.2-1.1-6.8.8-9.7-2.1-2.1 2.8-3.2 4.1-4-.2-.6 0-1.4.7-1.7 4.7-4.1 10.1-7.4 15.9-9.8 1.1-.4 2 .3 2.1 1.6z" class="L"/><path d="M210.1 44.7c-1.6-.2-7.9.2-6.2-2.8 1-.9 1.6-2.2 1.5-3.6 0-.7.5-1.2 1.2-1.3h.2c1.9 0 3.8-.1 5.7-.4 5.4-1.6 12.4-4.4 12.5-10.9.1-.6.6-1 1.2-.9.3 0 .6.2.8.5.1 1.1-.1 2.1-.4 3.1 1.1.2.9 1.4.9 2.3-.1 2.7-1 5.3-2.4 7.5-2.8 5.5-9.5 6.6-15 6.5zm-2.8-2.5c0-.2 0-.3.1-.5-.2 0-.4-.1-.5-.2-.1.2-.2.4-.4.6h0l.8.1zM68.4 147.4c-.3-.1-.6-.3-.8-.5-.8.2-2 .9-2.7 0-.4-.5-.3-1.2.1-1.6.1-.1.1-.1.2-.1 2.1-.6 4.2-1.3 6.2-2.2.7-2.3 1.8-4.4 3.2-6.3 1-1.8 2.1-3.5 3.5-5 1.1-1 2.5-1.8 3.9-2.2 3.7-1.4 7.7-2.9 11.6-2 1.9.3 3.1 1.7 1.6 3.3-1.3 1.3-3.4 1.1-5 1.8-3.1 1.6-5.9 3.6-8.4 5.9-.6.5-1 1.2-1.3 2-.5.8-1.2 1.5-2 2-1.2.5-1.7 2.3-3.1 2-1.4.6-2.3 1.9-3.6 2.6-.9.3-2.2.4-3.4.3zm8.1-6.3l.2-.1.5-.6h-.1l-.1-.1-.2.4.1-.1-.4.5h0zm-38.7-9c-.5-.1-.9-.4-1.1-.8-1 0-2.7-.4-2.2-1.8.2-.5.8-.8 1.3-.7 1.1 0 2.2 0 3.2-.2-.2-.1-.4-.3-.5-.5 0-.1-.1-.2-.1-.3-1.5 0-4-.3-4.1-2.2.1-.6.6-1.1 1.3-1 .1 0 .2 0 .3.1 1.4.2 2.9.3 4.3.1 3.2-4.1 7.3-8.1 12.1-10.2 2.9-1.1 12.2-5.6 13.6-1.2 0 .7-.5 1.3-1.2 1.4-2.7.9-5.4 1.7-8.2 2.2-1.7.7-3.3 1.5-4.8 2.5.4 0 .8.2 1.1.6l.1.1c2.3-1 4.5-2.1 6.6-3.4.8-.4 2-1.4 2.8-.3 1.4-.6 2.8-1.4 4.4-1.3.6 0 1.1.5 1.1 1 0 .6-.5 1.1-1 1.1-.1 0-.3 0-.4-.1l-.3.1-.9.3c0 1.1-1.3 1.3-2.2 1.5-2.5.4-4.9 1.5-7 3a54.22 54.22 0 0 0-9 6c.1.9-.8 1.4-1.6 1.6-2.5 1.3-4.9 2.8-7.6 2.4z" class="L"/></g><path d="M126.2 145.9c13 4.5 27.3-2.4 31.8-15.5s-2.4-27.3-15.5-31.8c-13-4.5-27.2 2.4-31.8 15.3h0c-4.5 13.2 2.4 27.4 15.5 32h0z" fill="#c8ece1" stroke="#000" stroke-width="1.86"/><g fill="#308d8a"><path d="M121.7 111.5c-.2-.4.2-.6.5-.7l1.2-.6c1.7-.9 3.4-1.6 5.2-2.2.4-.6 1.1.3.6.7-2.3.8-4.5 1.8-6.6 2.9h0c-.3.1-.7.3-.9-.1zm24 8.9c-.1-.2 0-.4.1-.5l.1-.1 6.6-3.5a.47.47 0 0 1 .6.1l.1.1c0 .3-.1.5-.4.6-.5.3-1.1.5-1.6.8l-3.9 2.2c-.5.2-1.2 1-1.6.3z"/><path d="M128.9 108.7c-.1 0-.2-.1-.2-.2v-.3c0-.1 0-.1.1-.2l.1-.1h.2.2c.5.1 1 .2 1.5.4 7.4 2.1 14.8 4.7 21.9 7.7a.55.55 0 0 1 .3.5c-.2.6-.8.1-1.2 0-7.5-3.1-15.2-5.7-22.9-7.8zm16.2 11.9c-.1 0-.2-.1-.3-.1-4.1-1.7-8.4-3.2-12.6-4.6-3-1-6-2.1-9-3.2-.1-.1-.2-.2-.3-.2-.2-.1-.3-.2-.5-.3l-.2-.1-.1-.1c-.1-.1-.2-.1-.3-.2h0l-.2-.1.1-.1s.1-.1.2-.1a.96.96 0 0 1 .9.2c1.2.6 2.4 1 3.7 1.4.8.2 1.5.5 2.3.8l5.2 1.8c2.2.7 4.4 1.5 6.5 2.3 1 .3 1.9.7 2.9 1.1s1.7.7 2.6 1h.2l.1.1s.1.1.1.2v.2c-.1.4-.5.4-.9.2l-.4-.2z"/><path d="M122.7 112.4h0zm-.7-.5c-.1-.1-.2-.1-.3-.2h0c-.1-.1-.2-.1-.3-.2h0c0-.2.1-.4.2-.4.2-.1.4-.4.7-.3.2.1.3.3.3.6 0 .1-.1.2-.3.3 0 .1 0 .1-.1.1l-.1.1h-.1z"/><path d="M123.4 112.9c-.4-.1-.8-.3-1.1-.4-.4-.1-.8-.3-1.1-.5-.4-.6.8-1.3 1.3-1.1.2.1.3.4.1.6 0 .1-.1.1-.2.2l1.3.5c.2.1.3.3.2.5 0 .2-.3.3-.5.2zm20.7 10.2c-7.5-2.9-15.2-5.3-22.7-8-.2-.1-.3-.3-.2-.5s.3-.3.5-.2c7.7 2.8 15.6 5.2 23.3 8.2a.55.55 0 0 1 .3.5.55.55 0 0 1-.5.3c-.3-.1-.5-.2-.7-.3zm2.9 7.3c-4.5-1.8-9.1-3.3-13.6-4.9-1.7-.6-3.4-1.3-5.2-1.9-1.2-.4-2.6-.6-3.8-1.1-.2-.1-.2-.4-.1-.6s.3-.2.5-.2c2.6.7 5.1 1.5 7.5 2.5l9.9 3.6c1.7.6 3.4 1.1 5 1.9.3.1.9.2.8.7s-.6.2-1 0h0z"/><path d="M124.2 122.3h0 0 0c-1.3-2.3-2.5-4.7-3.4-7.3a.47.47 0 0 1 .1-.6c.2-.1.4-.1.5.1 1 2 1.6 4.2 2.7 6.2l.7 1.3c.1.2 0 .5-.2.6s-.3 0-.4-.3h0 0zm23.4 8.3c-.1 0-.1-.1-.1-.1-.1-.1-.1-.3 0-.4 0-.1.1-.1.1-.1-.8-2.3-1.8-4.4-3-6.5-.7-.5.4-1.2.7-.4a36.38 36.38 0 0 1 3 6.3l.3.9c0 .4-.7.6-1 .3zm-24.3-5.3c-.2-.1-.2-.4-.1-.5a.47.47 0 0 1 .6-.1c.3.1.7.1 1 .2 7.4 2.1 14.7 5 22 7.5a.55.55 0 0 1 .3.5c-.1.2-.3.3-.5.2-7.8-2.5-15.4-5.7-23.3-7.8zm-6.7 3.8c-.2 0-.4-.3-.3-.5 0-.2.2-.4.5-.3h0c.8.3 1.7.6 2.6.8 7.1 2.3 14 4.9 21 7.4.2.1.3.4.2.6s-.4.3-.6.2h0l-23.4-8.2h0z"/><path d="M140 136.9c-.3-.5.3-.7.7-.9h0l5.9-3.3c.1-.2.4-.2.6-.1.1.1.2.2.2.4 0 .1-.1.2-.2.3s-.2.1-.3.2l-4.7 2.6-1.6.9h-.3c-.1 0-.2 0-.3-.1h0zm-23.7-8.2c-.6-.5.3-.9.7-1.1 1.2-.7 2.4-1.3 3.7-1.9l2.4-1.1c.2-.1.3-.1.5-.1a.55.55 0 0 1 .3.5c-.1.2-.2.3-.4.3-2.2.9-4.4 2-6.5 3.2-.3.2-.5.4-.7.2z"/><path d="M123.4 125.4c7.6 2 15 5.1 22.6 7.6-1.9 1-3.6 2.1-5.4 3.1h0l-.6.3-20.7-7.3c-.8-.2-1.5-.4-2.2-.7 2.1-1.1 4.2-2.1 6.3-3zm24.1 4.4l-.2-.1-5-1.9-9.9-3.5c-2.5-1-5-1.8-7.5-2.5l-.6-1.1c-.9-1.7-1.7-3.5-2.4-5.4l22.2 7.8.3.1c0 .1.1.1.1.2 1.2 2 2.2 4.2 3 6.4zm4.2-13.2l.2.1-6 3.2s-.1 0-.1.1l-2.6-1c-.9-.4-1.9-.8-2.9-1.1l-6.5-2.3-5.2-1.8c-.7-.3-1.5-.5-2.2-.8-1.3-.4-2.5-.8-3.7-1.4h-.1 0a51.71 51.71 0 0 1 6.4-2.8c7.7 2 15.3 4.6 22.7 7.8z"/></g><path d="M174.6 128c3.4 4.2 8.5 12.9 5.6 18.3-1.7 2.1-3.1 4.6-5.2 6.4-6.3 4.5-14.1 6.2-21.7 7.2-12.6 2.2-25.3 4.3-38.1 4.2-4.2-.2-8.3-.2-12.3-1.7-.5-.2-1.1-.4-1.6-.7l-.6.1c-4.3-.5-2.5-20.1-.3-22.6.7-3.2 1.6-6.4 2.8-9.5a.94.94 0 0 1 1-1 .94.94 0 0 1 1 1c4-.8 8.2-.2 12.2-.5 4.4 0 8.3-1.7 12.7-1.4l4.1-.3c.6 0 1.2-.2 1.7.2 4.8-.4 9.6-1.3 14.3-2.8 3.5-.8 6.9-1.5 10.3-2.5 1-.3 2.1-.7 3.1-1 .5-.4 1.2-.4 1.8 0v-.1c2.1-2.2 7.8 5.3 9.2 6.7z" fill="#e76e4a"/><g class="K"><path d="M104.8 130.2l-6.2-.1c-.6 0-1.1-.5-1.2-1.1 0-.3.1-.5.2-.7.3-.3.7-.4 1.1-.3l4.7.1c3.9.2 7.8-.1 11.6-.2 8.6-.2 17.2-1 25.7-2.3 7.8-.4 15.6-1.9 23-4.4 1.6-.3 3.4-2.4 5-1.2.4.4.3 1-.1 1.4-.3.2-.6.3-.9.2-3.7 1.8-7.6 3.1-11.6 3.8-5 1.3-10.2 2-15.4 2.3-11.8 1.7-23.9 2.5-35.9 2.5h0z"/><path d="M97.2 157.3c-1.3-5.4-.2-11.1 1.2-16.4 1-3.4 2.2-6.7 3.6-9.9.5-.9.6-2.3 1.9-2.2.5.1.9.5.9 1.1 0 .3-.2.5-.4.7-2.7 6.3-5.1 12.9-5.5 19.8 0 2.1-.3 4.2.3 6.3.1.5-.2 1.1-.7 1.2h-.1c-.5.1-1-.2-1.2-.6zm83.4-9.2c-.2-2.6-.7-5.2-1-7.8l-2.1-6.5c-2.3-5.2-6.4-9.4-11.6-11.8-1.5-.8-.6-2.9.9-1.9 1.9 1.3 4.2 2.1 6 3.7 3 2.7 5.3 6 6.9 9.7.6 2.4 1.6 4.6 2.1 7 .2 2.6.8 5 .9 7.5a.94.94 0 0 1-1 1c-.6 0-1.1-.3-1.1-.9h0 0zm-12.2-89.3c-1.7-1.5-4.2-2.3-6.3-1.2-.5-.1-.9-.6-.9-1.1 0-.3.2-.6.5-.7h0-.1-.1c2.6-1.6 6.1-.3 8.2 1.6a1.07 1.07 0 0 1 .1 1.4c-.3.3-.9.3-1.4 0zm-23.8-5.5c-1.5-1.8-4.1-1.6-6.1-1.3-.3.1-.5.1-.8.1-.5-.2-.8-.7-.6-1.3a.9.9 0 0 1 .6-.6c2.8-.6 6.2-.7 8.2 1.6.3.5.2 1.1-.3 1.4-.3.3-.7.3-1 .1z"/><path d="M168.5 59.3c-1.6-1.5-4.2-2.3-6.3-1.2-.5-.1-.9-.6-.9-1.1 0-.3.2-.6.5-.7h0-.1-.1c2.6-1.6 6.1-.3 8.2 1.6a1.07 1.07 0 0 1 .1 1.4c-.3.3-1 .4-1.4 0zm-23.9-5.4c-1.5-1.8-4-1.6-6.1-1.3-.3.1-.5.1-.8.1-.5-.2-.8-.7-.6-1.3a.9.9 0 0 1 .6-.6c2.8-.6 6.2-.7 8.2 1.6.3.5.2 1.1-.3 1.4-.2.2-.6.3-1 .1z"/></g></svg>