<?xml version="1.0" encoding="utf-8"?>
<!-- Generator: Adobe Illustrator 26.1.0, SVG Export Plug-In . SVG Version: 6.00 Build 0)  -->
<svg version="1.1" id="Layer_1" xmlns="http://www.w3.org/2000/svg" xmlns:xlink="http://www.w3.org/1999/xlink" x="0px" y="0px"
	 viewBox="0 0 300.9 177.3" style="enable-background:new 0 0 300.9 177.3;" xml:space="preserve">
<style type="text/css">
	.st0{fill:#110802;fill-opacity:0.25;}
	.st1{fill:#110802;}
	.st2{fill:#F0CAA1;}
	.st3{fill:#CC4F32;}
	.st4{fill:#FEFEFE;}
	.st5{fill:#E76D49;}
</style>
<g id="Layer_1_00000109738874046704339850000003765935764200937115_">
</g>
<path class="st0" d="M104.8,157c0.3,0.8,0.1,1.6-0.3,2.3c-0.6,0.9-1.8,1.2-2.8,1.6c-1.4,0.5-2.9,0.9-4.4,1.2c-1.5,0.4-3,0.7-4.5,0.9
	c-3.1,0.5-6.3,0.7-9.4,0.7c-0.6,0-1.2,0-1.8,0c-2.6,0-5.1-0.1-7.6-0.2c-3.1-0.2-6.1-0.5-9.2-0.7s-6.2-0.4-9.3-0.6s-6.2-0.3-9.3-0.6
	c-3-0.2-6-0.4-9-0.7c-3.1-0.3-6.2-0.8-9.3-1.5c-1.5-0.3-3-0.7-4.5-1.3c-0.8-0.3-1.6-0.6-2.2-1.1c-0.6-0.4-1.3-1-1.7-1.7
	c-0.2-0.4-0.3-0.8-0.3-1.2s0.1-0.9,0.3-1.3c0.4-0.8,0.9-1.4,1.6-1.9c0.5-0.5,1.1-0.9,1.7-1.3c1.2-0.8,2.6-1.4,3.9-1.9l0,0
	c0,0,0.1,0,0.1-0.1c0.8-0.3,1.6-0.6,2.5-0.7c0.6-0.1,1.3-0.2,2,0c1-0.3,2.1-0.5,3.1-0.7c2.9-0.6,5.8-1,8.7-1.4
	c3.1-0.4,6.1-0.7,9.2-0.9c3-0.2,6.1-0.2,9.2-0.2c3.2,0,6.3,0.3,9.5,0.6c3.1,0.3,6.3,0.6,9.4,1.2c3.1,0.5,6.2,1.3,9.2,2.4
	c1.6,0.6,3.1,1.2,4.7,1.8c1.4,0.6,2.8,1.2,4.1,1.9c1.8,1,3.6,1.9,5.1,3.3C104,155.5,104.5,156.2,104.8,157L104.8,157z"/>
<path class="st0" d="M88.6,140.8C88.6,140.8,88.6,140.7,88.6,140.8L88.6,140.8C88.6,140.7,88.6,140.8,88.6,140.8z M88.8,141.4
	C88.8,141.4,88.8,141.3,88.8,141.4L88.8,141.4c0-0.1-0.1-0.1-0.1-0.1C88.8,141.2,88.8,141.3,88.8,141.4L88.8,141.4L88.8,141.4
	L88.8,141.4z M240.9,154.4c0.9,1.2,1.2,2.9,0.4,4.2c-0.7,1.2-1.9,2-3.2,2.5c-0.1,0-0.2,0.1-0.3,0.1s-0.1,0.1-0.2,0.1l0,0
	c-1.5,0.6-3,0.8-4.6,1c-1.1,0.1-2.3,0.2-3.4,0.2c-0.5,0-1.1,0-1.6,0c-3.2-0.1-6.3-1.1-9.4-1.9c-6.3-1.7-12.6-3.2-18.9-4.8
	c-3-0.8-6-1.6-9-2.4c-1.6-0.4-3.2-0.9-4.7-1.3c-1.5-0.4-3.1-0.9-4.6-1.3c-3.2-0.9-6.5-1.6-9.9-2.2c-1.5-0.2-3.1-0.5-4.6-0.6
	c-1.6-0.2-3.2-0.3-4.8-0.4c-3.2-0.2-6.5-0.4-9.7-0.5c-0.4,0-0.7,0-1.1,0c-3.2-0.1-6.4-0.1-9.6-0.2c-3.3,0-6.6,0-9.8,0.2
	c-3.3,0.2-6.7,0.5-10,0.7s-6.6,0.5-9.9,0.6s-6.7,0.3-10-0.1c-3.3-0.3-6.6-1-9.8-1.9c-2.1-0.6-4.4-1.4-5.7-3.2
	c-0.6-0.8-0.8-1.6-0.9-2.6s0.3-2,0.8-2.9c0.7-1.1,1.6-2,2.7-2.8c1.3-1,2.8-1.7,4.3-2.2s3.1-0.8,4.7-1.1c2.8-0.4,5.6-0.8,8.4-0.8
	c0.2,0,0.4,0,0.6,0.1c1-0.1,1.9-0.1,2.9-0.1c3.2-0.1,6.4-0.2,9.6-0.2c1.4,0,2.9,0,4.3,0c1.9,0,3.8,0,5.8,0c3.2-0.1,6.4-0.3,9.6-0.4
	c2.8-0.1,5.6-0.2,8.5-0.2c1.6,0,3.2,0.1,4.8,0.2c1.7,0.1,3.4,0.2,5.1,0.3c3.2,0.2,6.4,0.4,9.7,0.6c3.3,0.2,6.6,0.6,9.9,1.2
	c3.2,0.5,6.3,1.1,9.4,1.9c3.1,0.8,6.2,1.6,9.3,2.4c3,0.8,6,1.5,8.9,2.2c1.6,0.4,3.1,0.8,4.6,1.2c1.6,0.4,3.1,0.8,4.7,1.2
	c1.6,0.4,3.1,0.8,4.7,1.2c0.4,0.1,0.8,0.2,1.2,0.3c0.2,0.1,0.4,0.1,0.5,0.2l0,0c0.1,0,0.2,0.1,0.2,0.1c0.1,0,0.1,0,0.1,0.1l0,0l0,0
	c3.1,0.9,6.1,2.1,8.9,3.6c2.7,1.4,5.2,3,7.7,4.8C238.7,152.4,239.9,153.3,240.9,154.4L240.9,154.4z"/>
<path class="st1" d="M63.8,163.8c-12.4-1.9-25.4-4.3-35.7-11.9c-5-3.7-9.3-8.2-13-13.3c-4.4-4.8-6.5-11-7.1-17.4
	c-3.1-16.6,2.6-37.4,18.9-45.1c8.9-4.5,19.2-6.9,29.1-5.6c7.1,0.7,14.7,2.8,18.7,9.3l0,0c1.2,1.6,2.5,3.1,3.7,4.7
	c1.7-3.4,4.2-6.2,6.6-9.1c6.2-8.1,13.9-15.2,22.3-20.8c7-3.8,14.3-7.6,22.2-9.3c0-0.1-0.1-0.2-0.1-0.3c-0.1-0.3-0.2-0.7-0.2-1
	c-3.6-0.7-7-3.6-7.5-7.4c-0.3-4.1,3-7.4,6.1-9.7c5.3-2.9,11.7-3.4,17.5-2.4c1.7,0.4,3.8,0.3,5.1,1.7c6.7-4.3,13.6-10.7,22.2-9.2
	c7.5,1.7,10.6,9.6,6.8,16c-2.9,4-7.9,5.9-12.5,7.3c0.1,0.4,0.2,0.9,0.2,1.3c11.1,2.6,21.1,9.1,29.2,16.8c6.7,6.7,11.5,15,15.3,23.5
	c2.9,1.5,5.9,3.2,9.3,3.1c0.5-0.4,1.3-0.5,1.9-0.1c4.6-0.7,7,4.2,7.7,8c0.8,4.3-2.7,6-6.4,6.4c1.2,1.5,1.7,3.5,1.4,5.4
	c-1.2,6.3-9.4,6.3-14.5,7.1c-2.8,0.8-5.2,2.5-7.9,3.5c-7.1,3-14.3,5.8-21.6,8.4c-8.3,2.6-16.9,4.1-25.4,5
	c-6.8,0.4-13.5-0.9-20.2-1.5c-5.1-0.7-10.3-1.3-15.4-2.5c-3.4-1-6.7-2.2-10-3.4c0.6,1.7,1.2,3.4,1.9,5c3.1,1.4,6.4,1.9,9.8,2.3
	c1.2,0.2,2.7-0.1,3.6,0.7c0.9,0.2,1.7,1.1,2.2,1.8c4.7,5.8,1.7,14.3-2.4,19.6c-7.5,9-17.7,12.5-29,13.5c-4.1,0.7-8.2,1-12.4,1
	C77.3,165.1,70.5,164.4,63.8,163.8L63.8,163.8z M25.9,80.2C13,88.1,8.6,105.7,11,119.9c0.5,4.2,1.3,8.5,3.3,12.3
	c2.4,3.7,5.3,7.1,8.1,10.4c8,8.8,19,13.9,30.5,16c7.1,1.7,14.3,2.4,21.6,2.9c12,1,24.5,0.1,35.9-3.8c8-3.6,16.1-10.3,16.8-19.7
	c0.1-2.4-0.9-4.9-2.8-6.4c-3.5,0-7.2-0.5-10.6-1.5c-5-1.6-9.3-4.6-13.8-7.2c0.1,0,0.1,0.1,0.2,0.1c-5.3-3.2-8.9-8.6-12.2-13.7
	c-3.3-5.4-5.3-11.4-8.3-16.9c-2.1-3.9-4.8-7.2-7.5-10.7c-1.3-1.9-2.8-3.7-4.8-4.9c-5.1-2.6-10.6-3.7-16.3-3.7
	C42.4,73.3,33.4,76,25.9,80.2L25.9,80.2z M154.8,125.7c11.6-1.3,23.3-3.3,34.1-8.1c4.8-1.7,9.5-3.6,14.1-5.6
	c3.8-1.9,7.4-3.8,11.7-3.8c2.7-0.4,8-1.2,8-4.7c0.1-3.3-2.6-3.9-5.3-4.3c-1.9-0.6-4.1-0.6-5.7-1c-5.5,1.1-10,4.8-14.9,7.4
	c-3.8,2.3-8,3.9-12.2,5.5c-11.3,4.4-23.6,5.2-35.5,5.3c-8.4,0.1-16.6-1.7-24.7-3.6c-3.7-0.9-7.3-1.9-10.9-3
	c-2.7-1.1-5.4-2.4-8.2-3.4c2,3.4,2.7,7.3,3.9,11.1c7.1,3,14.5,5.2,22.2,6.1c0,0,0,0-0.1,0C139.1,124.3,146.9,125.6,154.8,125.7
	L154.8,125.7z M107.2,123.6c0.3,0.2,0.6,0.4,0.9,0.6c-1.6-4.5-2.7-9.2-4.2-13.7c-3.7-9.4-12.1-16-21.4-19.4c2.8,5,4.6,10.5,7.4,15.5
	c2.6,4.7,5.9,9,9.9,12.7l0,0C102.1,120.9,104.8,122,107.2,123.6z M98.5,97.3c1.3,1.1,2.4,2.3,3.4,3.6c10.1,5.6,21.5,8.6,32.8,10.8
	c9.9,2.1,20,1.6,30,0.7c3.8-0.3,7.4-0.9,11.1-1.8c6.6-1.8,13.2-4.1,19.2-7.4c4.3-2.3,8.4-5.3,13-7c-3.9-1.8-7.9-3.6-11-6.6
	c0.4,16.1-21.5,25.7-33.8,15.9c-13.4-9.3-3.7-29.7,10.5-31.6c-5.1-2-10.4-3.7-15.9-3.7h0.1C150.4,70,143,72,136,74.4
	c4.5,0.2,8.9,2.5,12,5.6c1.7,1.9,3,4.3,3.9,6.7c1.7,7,0,15.3-6.1,19.7c-5.5,3.4-14.6,4.2-20.6,1.7c-7.6-3-12.4-11.9-10-19.9
	C110.2,92.3,104.4,95.2,98.5,97.3L98.5,97.3z M117.8,90.7c-1,6.6,3.5,13.2,9.8,15.1c2.6,0.9,5.4,0.8,8.1,0.5c4.1-0.4,8.4-1.5,10.9-5
	c0.1-0.2,0.2-0.3,0.3-0.5c-7.5,5.5-18.8,3.6-24.2-3.9c-2.6-4-2.7-9.5-0.9-13.8C120.2,85.4,118.3,87.8,117.8,90.7z M172.9,106.2
	c8,0.9,16.6-3.4,19.8-11c0-0.1,0.1-0.2,0.1-0.3c-4.4,6.7-13.2,8.8-20.6,6.4c-8.1-2.4-11.9-8.4-9.7-16.7
	C155.9,94.6,161.7,104.3,172.9,106.2z M179.2,73c5.9,4.1,12,8,17.7,12.4c2.9,2.2,5.4,4.8,8.9,6.1c3.6,2.2,7.8,2.9,11.8,4.2
	c1.7,0.8,10.1,0.9,10-1.7c0-1.9-1.3-5.9-3.4-6.4c-2.7,0.2-5.5,0.4-8.1-0.4c-1.9-0.5-3.5-1.5-5.2-2.4c-0.1,0-0.1,0-0.2,0
	c-0.5,0-1-0.3-1.3-0.8c-5.5-2.8-9.9-7.4-14.8-11.1c-5.3-4.2-11.1-7.7-16.6-11.6c-9.5-5.1-20.6-4.8-31-4.2h0.1
	c-14.4,1.3-27.1,9-38.4,17.4c-6.9,5.2-13.3,11.2-20.8,15.6c2.8,1.3,5.5,2.9,7.9,4.9c5.4-1.8,10.8-4.1,15.4-7.5c0,0,0,0-0.1,0
	c0.1-0.1,0.1-0.1,0.2-0.1c5.7-4,10.3-9.4,16.6-12.3c7.8-4.7,17-6.9,26.1-7.9c1-0.1,1.9-0.1,2.9-0.1C164.6,67,172.4,69.3,179.2,73
	L179.2,73z M116.9,52.8c-5.9,2.4-11.3,5.9-16.1,10.2c-5,4.2-9.6,8.8-13.6,14.1c-2.6,3.1-5.3,6.3-7,10.1l0,0c1.3,0.3,2.6,0.8,3.8,1.3
	c8.5-4.3,15.3-11.2,23-16.8c7.6-5.7,15.8-10.7,24.5-14.4c7.8-2.6,16-3.9,24.3-3.6c6.4-0.3,12.7,0.6,18.7,2.8
	c4.6,1.3,8.2,4.5,12.1,7.1c7.4,4.4,13.7,10.3,20.5,15.5c-2.3-4.4-4.8-8.8-7.8-12.8c0,0,0,0,0,0.1c-4.8-6.5-11.1-11.6-18.1-15.7l0,0
	c-4.3-2.9-9.1-5-14.1-6.3c-1.8,4.2-18.5,4.4-23,4.4c-2.6,0-5.2,0-7.8,0c-0.5,0-1.1,0-1.6,0c-1.5,0.1-3.1,0.1-4.2-0.9
	C125.8,48.9,121.2,50.7,116.9,52.8L116.9,52.8z M171.7,79.5c-1,0.7-2.2,1.3-2.6,2.5c2.4,2.7,9.5,1.6,10.2-2.2c0-0.8-0.8-1.2-1.1-1.9
	c-0.2,0-0.5,0-0.7,0C175.5,77.7,173.5,78.5,171.7,79.5L171.7,79.5z M134.3,77.2c-0.1,1.4-2.2,2-1.9,3.5c0.6,1.5,2.5,1.6,3.9,1.7
	c2.4,0.2,4.5-1.3,6-3l0,0c-2.4-1.5-5-2.1-7.8-2.1C134.4,77.2,134.4,77.2,134.3,77.2z M132.1,44.1c0.1,0.6,0.3,1.1,0.5,1.7
	c5.5,0.1,11,0.1,16.4-0.1c5.1-0.3,10.4-0.4,15.2-2.4c-0.1-0.9-0.2-1.7-0.3-2.6c-3.2,0.6-6.4,0.6-9.7,0.3c-0.8-0.1-1.4-0.8-1.3-1.6
	c0.1-0.8,0.8-1.3,1.6-1.3c1.8,0.1,3.7,0.2,5.5,0c6.2-0.7,18.1-3.4,17.9-11.3c0.3-3.1-2-5.8-4.8-6.9h0.1
	c-10.1-2.9-17.3,7.7-26.1,10.7c-1.8,0.5-4.1,2-5.9,1c-1.4-1-0.3-3.2,1.3-2.6c1.6-0.4,3.1-0.9,4.5-1.6c-6.9-1.4-16.3-1.6-20.9,4.6
	c-2.7,3.1-1.5,6.5,2.1,8.1c2.6,1,5.4,0.7,8.1,0.7c0.8,0,1.5,0.6,1.5,1.4c0,1.7-2.2,1.7-4.1,1.7c-0.1,0-0.3,0-0.4,0
	C132.8,44,132.4,44,132.1,44.1L132.1,44.1z"/>
<path class="st1" d="M111.3,87.3L111.3,87.3l-0.2,0.1L111.3,87.3L111.3,87.3z"/>
<path class="st1" d="M225.2,9.3L225.2,9.3L225.2,9.3z"/>
<path class="st1" d="M226.6,157c-0.7-0.4-1.1-1.1-1.5-1.8c-0.4-0.6-0.6-1.3-0.8-2c-0.2-0.5-0.4-0.9-0.5-1.4c0,0.1,0.1,0.1,0.1,0.2
	c-1.2-3-2.5-5.9-4.1-8.7l0,0l-0.1-0.1l0,0v-0.1c-0.1-0.1-0.1-0.2-0.1-0.2c0,0.1,0.1,0.1,0.1,0.2l0,0V143l0,0
	c-0.6-1.1-1.3-2.3-1.9-3.4v0.1v-0.1l-0.1-0.1l0,0c-1-1.8-2.1-3.6-3.4-5.3l0,0l-0.1-0.1V134l0,0c-0.6-0.9-1.3-1.7-1.9-2.6
	c-0.5-0.8-1.1-1.6-1.6-2.3v0.1c-1.2-1.7-2.6-3.3-4-4.8c-0.7-0.7-1.4-1.4-2.1-2.1c-0.7-0.7-1.4-1.4-2.1-2.1c-0.6-0.6-1.2-1.1-1.8-1.6
	c-0.5-0.5-1.1-0.9-1.6-1.4c0.1,0,0.1,0.1,0.2,0.1c-0.3-0.3-0.7-0.5-1-0.8c-0.6-0.5-0.8-1.3-0.5-1.9c0.4-0.7,1.2-1,1.9-0.7
	c0.5,0.2,1,0.4,1.4,0.8c0.4,0.3,0.8,0.7,1.2,1c0.8,0.8,1.7,1.5,2.5,2.3c1,1,2,2,3,3c1.1,1,2.1,2.1,3,3.2c1,1.1,1.9,2.3,2.8,3.5
	c0.8,1.1,1.6,2.3,2.4,3.4c1.1,1.6,2.3,3.1,3.3,4.7c1.1,1.7,2,3.6,3,5.3c0-0.1-0.1-0.1-0.1-0.2c0.6,1,1.1,2,1.6,3.1s1,2.1,1.5,3.2
	c0.4,1,0.9,2,1.3,3c0.4,0.9,0.7,1.9,1,2.8c0.1,0.4,0.3,0.8,0.5,1.1c0-0.1-0.1-0.1-0.1-0.2c0,0.1,0.1,0.1,0.1,0.2
	c0.1,0,0.1,0,0.2-0.1c0.1,0,0.1-0.1,0.2-0.1c0.2-0.1,0.4-0.2,0.5-0.3c0.2-0.2,0.4-0.4,0.6-0.6c0,0,0,0-0.1,0.1
	c0.1-0.1,0.2-0.2,0.3-0.4c0.1-0.1,0.2-0.2,0.3-0.4c0.2-0.4,0.4-0.7,0.6-1.1c0.2-0.5,0.4-1,0.5-1.4c0.1-0.5,0.3-1,0.3-1.4
	c0.1-0.4,0.1-0.7,0.1-1.1c0-1.7-0.1-3.5-0.3-5.2c0,0.1,0,0.1,0,0.2c0-0.2,0-0.3-0.1-0.5c0,0.1,0,0.1,0,0.2c-0.2-1.7-0.5-3.3-0.9-5
	l0,0c-0.3-1.2-0.6-2.4-1-3.5c-0.4-1.2-0.8-2.4-1.2-3.6v0.1l-0.1-0.2l0,0c-0.9-2.2-1.8-4.3-2.9-6.4l0.1,0.2c-1.1-2-2.4-3.9-3.7-5.8
	c0,0.1,0.1,0.1,0.1,0.2c-1.3-1.8-2.7-3.4-4.2-5c-0.5-0.5-1-1-1.6-1.5c-0.1-0.1-0.3-0.2-0.4-0.3c-0.1,0-0.3,0-0.4-0.1
	c-0.7-0.2-1.1-0.8-1.1-1.4c0-0.5,0.2-1.1,0.7-1.3c0.9-0.6,1.9,0,2.7,0.6c0.6,0.4,1.2,1,1.7,1.5c0.6,0.6,1.1,1.1,1.6,1.7
	c1.1,1.2,2.1,2.4,3.1,3.7c0.9,1.2,1.8,2.5,2.6,3.9c0.8,1.3,1.6,2.6,2.3,3.9c0.7,1.4,1.3,2.8,1.9,4.3c0.6,1.4,1.1,2.9,1.6,4.3
	c0.5,1.6,0.9,3.1,1.3,4.7c0.4,1.5,0.6,3,0.8,4.6v-0.2c0.2,1.6,0.3,3.2,0.3,4.7c0.1,1.4-0.1,2.7-0.4,4.1c-0.5,1.7-1.1,3.5-2.3,4.9
	c-0.8,0.9-1.9,1.7-3,2c-0.4,0.1-0.7,0.1-1.1,0.1C227.5,157.4,227,157.3,226.6,157L226.6,157z"/>
<path class="st1" d="M205,150.5c-0.4-0.5-0.5-1.1-0.6-1.7c-0.2-1.4-0.5-2.7-0.8-4c0,0.1,0,0.1,0.1,0.2c0-0.1-0.1-0.3-0.1-0.4
	l0.1,0.2c-0.6-2.4-1.4-4.8-2.2-7.1c-0.8-1.9-1.6-3.7-2.6-5.5c-1.1-1.9-2.2-3.7-3.4-5.5c-0.8-1.1-1.6-2.1-2.5-3
	c-0.6-0.6-1.2-1.1-1.8-1.6c-0.8-0.6-1.6-1.2-2.4-1.8c-0.9-0.7-0.8-2.1,0.2-2.6c0.6-0.3,1.3-0.1,1.7,0.4c0.1,0.1,0.1,0.2,0.2,0.2
	c0.9,0.7,1.9,1.4,2.9,2.2c1.1,1,2.1,2.1,3.1,3.2c1.8,2.2,3.3,4.6,4.7,7.1v-0.1c0.8,1.4,1.5,2.8,2.1,4.2s1.1,2.8,1.6,4.2
	c0.9,2.6,1.6,5.2,2,7.8c0.1,0.3,0.1,0.6,0.2,0.9c0.1-0.1,0.2-0.1,0.3-0.1c0.2-0.1,0.5-0.3,0.7-0.4c0.1-0.1,0.3-0.2,0.4-0.3
	c0.1-0.1,0.1-0.1,0.1-0.2v-0.1c0.1-0.1,0.1-0.2,0.2-0.4c0.1-0.3,0.3-0.7,0.4-1c0.3-1.1,0.6-2.1,0.8-3.2c0.3-2,0.5-4,0.5-6v-0.2
	c0,0.1,0,0.1,0,0.2c0-1.3,0.1-2.6,0.1-4c0-0.8-0.1-1.6-0.1-2.4c0.1-0.7,0.7-1.3,1.4-1.3c0.8,0,1.4,0.5,1.5,1.2v0.1v-0.1
	c0.2,0.8,0.3,1.6,0.3,2.5c0,1.4,0,2.8-0.1,4.2c0-0.1,0-0.1,0-0.2c-0.1,2-0.2,4-0.5,6c-0.2,1.4-0.6,2.8-1,4.2
	c-0.2,0.6-0.5,1.3-0.8,1.9c-0.2,0.4-0.6,0.8-0.9,1.1c-0.4,0.4-0.9,0.7-1.5,1s-1.2,0.6-1.9,0.8c-0.2,0-0.3,0.1-0.5,0.1
	C206.1,151.2,205.4,151,205,150.5L205,150.5z"/>
<path class="st1" d="M186.5,141.3c-0.8,0-1.6-0.4-2.2-0.9c-0.7-0.6-1.1-1.5-1.3-2.4c-0.3-1.3-0.6-2.6-0.9-3.9
	c-0.5-1.9-0.9-3.7-1.6-5.5c-0.3-0.7-0.6-1.4-1-2.1c-0.4-0.7-0.9-1.4-1.3-2c-0.1-0.1-0.2-0.3-0.4-0.4c-0.3-0.3-0.6-0.6-0.6-1
	c-0.1-0.4,0.1-0.9,0.4-1.2c0.3-0.4,0.9-0.6,1.4-0.4c0.6,0.2,1.1,0.7,1.4,1.2c0.5,0.6,0.9,1.2,1.3,1.9c0.8,1.3,1.4,2.8,1.9,4.2
	c0.9,2.6,1.5,5.4,2.1,8.1c0,0.2,0.1,0.3,0.1,0.5c0.1,0.2,0.1,0.5,0.2,0.7c0,0,0,0.1,0.1,0.1c0,0,0,0.1,0.1,0.1c0,0,0,0,0.1,0.1l0,0
	l0,0c0,0,0.1,0,0.1,0.1h0.1c0.1,0,0.1,0,0.2,0h0.1h0.1c0,0,0,0,0.1,0s0.2-0.1,0.3-0.1c0.6-0.2,1.1-0.5,1.6-0.8
	c0.1-0.1,0.2-0.1,0.2-0.2l0.1-0.1c0.1-0.1,0.1-0.2,0.1-0.3c0.1-0.1,0.1-0.3,0.2-0.4c0.2-0.6,0.3-1.2,0.4-1.8
	c0.2-1.4,0.3-2.9,0.4-4.3c0,0.1,0,0.1,0,0.2v-0.4c0,0.1,0,0.1,0,0.2c0-1.2,0.1-2.5,0.1-3.7c0-0.9,0-1.9,0-2.8
	c-0.1-0.5-0.1-1.1-0.2-1.6c-0.1-0.8,0.4-1.5,1.2-1.7c0.8-0.1,1.5,0.4,1.7,1.2c0,0.1,0,0.2,0.1,0.3c0.1,0.5,0.3,1,0.4,1.6
	c0.1,0.5,0.1,1,0.1,1.6c0,1.3,0,2.7-0.1,4c0,1.5-0.1,3-0.2,4.4c-0.1,1.5-0.4,3-1,4.3c-0.2,0.4-0.4,0.9-0.8,1.2
	c-0.2,0.2-0.4,0.3-0.5,0.5c-0.6,0.4-1.2,0.7-1.9,1c-0.4,0.2-0.8,0.3-1.1,0.5c-0.4,0.1-0.7,0.1-1.1,0.1
	C186.7,141.3,186.6,141.3,186.5,141.3L186.5,141.3z"/>
<path class="st1" d="M115.6,121.8c0-0.8,0.6-1.5,1.4-1.5s1.4,0.6,1.5,1.4c0,0.8-0.6,1.5-1.4,1.5S115.7,122.6,115.6,121.8z"/>
<path class="st1" d="M114.5,129.5c-0.7-0.1-1.2-0.7-1.3-1.4c0-0.4,0.1-0.9,0.2-1.3c0.1-0.5,0.2-1,0.3-1.4c0.1-0.9,0.4-1.7,0.7-2.6
	c0.4-0.9,0.9-2,2-2.2c0.8-0.1,1.6,0.4,1.7,1.2c0,0.2,0,0.4,0,0.6c0-0.1,0-0.1,0-0.2c0,0.6-0.4,1.2-0.9,1.4c-0.1,0.2-0.2,0.5-0.2,0.7
	c-0.1,0.4-0.2,0.9-0.3,1.4c0,0.1,0,0.1,0,0.2l0,0c-0.1,0.5-0.2,1-0.2,1.4c-0.1,0.4-0.2,0.7-0.2,1c-0.1,0.7-0.8,1.1-1.4,1.1
	C114.6,129.6,114.5,129.6,114.5,129.5L114.5,129.5z"/>
<path class="st2" d="M227.5,94c0.1,2.7-8.3,2.6-10,1.7c-4-1.2-8.2-1.9-11.8-4.2c-3.5-1.2-6-3.9-8.9-6.1C191.1,81,185.1,77,179.1,73
	c-6.8-3.7-14.6-6-22.4-6c-1,0-1.9,0-2.9,0.1c-9,1-18.2,3.2-26.1,7.9c-6.4,2.9-11,8.3-16.6,12.3c-0.1,0.1-0.1,0.1-0.2,0.1
	c0,0,0,0,0.1,0c-4.6,3.4-10,5.7-15.4,7.5c-2.4-1.9-5.1-3.5-7.9-4.9c7.5-4.4,13.9-10.4,20.8-15.6c11.4-8.4,24-16.2,38.4-17.4h-0.1
	c10.4-0.6,21.5-0.8,31,4.2c5.5,4,11.2,7.5,16.6,11.6c4.9,3.7,9.3,8.2,14.8,11.1c0.3,0.5,0.8,0.8,1.3,0.8c0.1,0,0.1,0,0.2,0
	c1.7,0.9,3.4,1.8,5.2,2.4c2.6,0.8,5.5,0.6,8.1,0.4C226.2,88.1,227.6,92.1,227.5,94L227.5,94z"/>
<path class="st2" d="M222.7,103.5c0.1,3.5-5.3,4.3-8,4.7c-4.3-0.1-8,1.9-11.7,3.8c-4.6,2-9.2,3.8-13.9,5.6H189c0,0,0,0-0.1,0
	c-3.4,1.5-6.8,2.7-10.3,3.7c-0.2,0-0.5,0.1-0.7,0.2c-7.6,2.1-15.4,3.3-23.1,4.2c-7.9,0-15.7-1.3-23.5-2.3c-7.7-0.9-15-3.1-22.1-6.1
	c-1.2-3.7-1.9-7.6-3.9-11.1c2.8,0.9,5.4,2.3,8.2,3.4c3.6,1.2,7.3,2.1,10.9,3c8.1,2,16.4,3.7,24.7,3.6c12-0.1,24.3-0.8,35.5-5.3
	c4.2-1.6,8.4-3.2,12.2-5.5c4.9-2.6,9.3-6.3,14.9-7.4c1.6,0.5,3.7,0.4,5.7,1C220,99.6,222.7,100.2,222.7,103.5L222.7,103.5z"/>
<path class="st3" d="M196.9,89.5c3.1,3.1,7.1,4.8,11,6.6c-4.6,1.7-8.7,4.6-13,7c-6,3.3-12.6,5.7-19.2,7.4c-3.6,0.9-7.4,1.5-11.1,1.8
	c-10,0.9-20.1,1.4-30-0.7c-11.3-2.2-22.8-5.1-32.8-10.8c-1-1.3-2.2-2.5-3.4-3.6c6-2.1,11.7-5,16.7-9c-2.4,7.9,2.4,16.9,10,19.9
	c6,2.5,15.1,1.7,20.6-1.7c6.1-4.3,7.8-12.7,6.1-19.7c-0.9-2.4-2.2-4.8-3.9-6.7c-3.1-3.2-7.5-5.4-12-5.6c7-2.4,14.4-4.4,21.9-4.2
	h-0.1c5.5,0,10.8,1.6,15.9,3.7c-14.2,1.8-23.9,22.2-10.5,31.6C175.5,115.2,197.4,105.6,196.9,89.5L196.9,89.5z"/>
<path class="st4" d="M178.2,77.8c0.3,0.7,1.1,1.1,1.1,1.9c-0.7,3.9-7.8,4.9-10.2,2.2c0.4-1.2,1.7-1.8,2.6-2.5
	c1.8-0.9,3.7-1.7,5.8-1.7C177.8,77.7,178,77.7,178.2,77.8L178.2,77.8z"/>
<path class="st4" d="M192.9,94.9c0,0.1-0.1,0.2-0.1,0.3c-3.2,7.5-11.9,11.9-19.8,11c-11.2-1.9-17-11.6-10.4-21.6
	c-2.1,8.3,1.6,14.3,9.7,16.7C179.6,103.7,188.4,101.6,192.9,94.9z"/>
<path class="st4" d="M147.1,100.8c-0.1,0.2-0.2,0.3-0.3,0.5c-2.5,3.5-6.8,4.6-10.9,5c-2.7,0.3-5.5,0.4-8.1-0.5
	c-6.3-1.9-10.8-8.5-9.8-15.1c0.5-2.9,2.4-5.2,4.1-7.5c-1.7,4.3-1.6,9.8,0.9,13.8C128.3,104.4,139.6,106.3,147.1,100.8z"/>
<path class="st4" d="M142.3,79.4C142.3,79.4,142.2,79.4,142.3,79.4c-1.5,1.8-3.6,3.3-6,3.1c-1.4-0.1-3.3-0.2-3.9-1.7
	c-0.2-1.5,1.8-2.1,1.9-3.5h0.2C137.2,77.2,139.9,77.9,142.3,79.4z"/>
<path class="st5" d="M124.5,131.8c1.8,1.5,2.9,4,2.8,6.4c-0.7,9.4-8.7,16.1-16.8,19.7c-11.4,3.9-23.9,4.7-35.9,3.8
	c-7.2-0.5-14.5-1.2-21.6-2.9c-11.6-2.1-22.6-7.2-30.5-16c-2.9-3.4-5.8-6.7-8.1-10.4c-2.1-3.8-2.9-8.1-3.4-12.3
	c-2.5-14.2,2-31.8,14.9-39.7c7.5-4.2,16.5-6.9,25.3-6.9c5.6,0,11.2,1.1,16.3,3.7c2.1,1.2,3.5,3,4.8,4.9c2.7,3.5,5.4,6.8,7.5,10.7
	c3,5.5,4.9,11.6,8.3,16.9c3.3,5,6.9,10.4,12.1,13.6c4.5,2.6,8.8,5.6,13.8,7.2C117.4,131.3,121,131.7,124.5,131.8L124.5,131.8z"/>
<path class="st5" d="M108.1,124.1c-0.3-0.2-0.6-0.4-0.9-0.6c-2.4-1.6-5-2.8-7.3-4.5l0,0c-3.9-3.6-7.3-8-9.9-12.6
	c-2.8-5-4.7-10.5-7.4-15.5c9.2,3.5,17.7,10,21.4,19.4C105.4,115,106.5,119.6,108.1,124.1z"/>
<path class="st5" d="M199.3,66.2c3,4,5.4,8.4,7.8,12.8c-6.8-5.2-13.1-11.1-20.5-15.5c-3.9-2.5-7.5-5.8-12.1-7.1
	c-6-2.2-12.4-3-18.7-2.8c-8.2-0.3-16.4,1-24.3,3.6c-8.8,3.7-16.9,8.7-24.5,14.4c-7.6,5.6-14.5,12.5-23,16.8c-1.2-0.5-2.5-1-3.8-1.3
	l0,0c1.7-3.8,4.4-7,7-10.1c3.9-5.2,8.6-9.9,13.6-14.1c4.8-4.2,10.2-7.7,16.1-10.2c4.4-2.2,8.9-4,13.7-5c1.1,1.1,2.7,1,4.2,0.9
	c0.5,0,1.1,0,1.6,0c2.6,0,5.2,0,7.8,0c4.5,0,21.2-0.2,23-4.4c5,1.3,9.8,3.4,14.1,6.3l0,0C188.2,54.7,194.5,59.8,199.3,66.2
	L199.3,66.2L199.3,66.2z"/>
<path class="st5" d="M114.4,122.6c0,0.1-0.1,0.2-0.1,0.3c-0.3,0.8-0.5,1.7-0.7,2.6c-0.1,0.4-0.2,0.9-0.2,1.3
	c-0.4-0.1-0.8-0.3-1.1-0.5c-0.7-1.6-1.3-3.3-1.9-5C111.7,121.7,113.1,122.1,114.4,122.6L114.4,122.6z"/>
<path class="st5" d="M190.3,123.9c0.1,0.9,0,1.9,0,2.8c0,1.2,0,2.4-0.1,3.7l0,0c-0.1,1.4-0.1,2.9-0.4,4.3c-0.1,0.6-0.2,1.2-0.4,1.8
	c-0.1,0.1-0.1,0.3-0.2,0.4c-0.1,0.1-0.1,0.2-0.1,0.3l-0.1,0.1c-0.1,0.1-0.2,0.1-0.2,0.2c-0.5,0.3-1.1,0.5-1.6,0.8
	c-0.1,0-0.2,0.1-0.3,0.1c0,0,0,0-0.1,0h-0.1h-0.1c-0.1,0-0.1,0-0.2,0h-0.1c0,0-0.1,0-0.1-0.1l0,0l0,0c0,0,0,0-0.1-0.1
	c0,0,0-0.1-0.1-0.1c0,0,0-0.1-0.1-0.1c-0.1-0.2-0.1-0.5-0.2-0.7c0-0.2-0.1-0.3-0.1-0.5c-0.6-2.7-1.2-5.4-2.1-8.1
	c-0.5-1.5-1.1-2.9-1.9-4.2c-0.2-0.2-0.3-0.5-0.5-0.7c0.1,0,0.2-0.1,0.3-0.1c2.6-0.9,5.1-1.9,7.7-2.8c0.3,0.2,0.7,0.5,1,0.8
	c-0.1,0.3-0.2,0.6-0.1,0.9C190.1,122.9,190.2,123.4,190.3,123.9L190.3,123.9z"/>
<path class="st5" d="M210.8,129.3l0.1,0.1c-0.1,0.1-0.1,0.3-0.1,0.4c-0.1,0.8,0,1.6,0.1,2.4c0,1.2,0,2.5,0,3.8c0,0.1,0,0.1,0,0.2
	l0,0l0,0c-0.1,2-0.2,4-0.5,5.9c-0.2,1.1-0.5,2.1-0.8,3.2c-0.1,0.4-0.2,0.7-0.4,1c-0.1,0.1-0.1,0.2-0.2,0.4c0,0,0,0,0,0.1
	c-0.1,0.1-0.1,0.1-0.1,0.2c-0.1,0.1-0.2,0.2-0.4,0.3c-0.2,0.2-0.5,0.3-0.7,0.4c-0.1,0.1-0.2,0.1-0.3,0.1c-0.1-0.3-0.1-0.6-0.2-0.9
	c-0.5-2.6-1.2-5.3-2-7.8c-0.5-1.4-1-2.9-1.6-4.2c-0.6-1.4-1.3-2.8-2.1-4.1v-0.1c-1.4-2.5-2.9-4.9-4.7-7.1c-1-1.2-2-2.3-3.1-3.2
	c-0.4-0.3-0.8-0.6-1.2-1c2.1-0.8,4.3-1.7,6.4-2.5c0.1,0.1,0.3,0.2,0.4,0.3l0,0c0.5,0.4,1.1,0.9,1.6,1.4c0.6,0.5,1.2,1.1,1.8,1.6
	c0.7,0.7,1.4,1.4,2.1,2.1c0.7,0.7,1.4,1.4,2.1,2.1C208.2,126.1,209.5,127.6,210.8,129.3C210.7,129.3,210.8,129.3,210.8,129.3
	L210.8,129.3z"/>
<path class="st5" d="M231.4,142.2c0.2,1.7,0.3,3.5,0.3,5.2c0,0.4-0.1,0.7-0.1,1.1c-0.1,0.5-0.2,1-0.3,1.4c-0.1,0.5-0.3,1-0.5,1.4
	s-0.4,0.8-0.6,1.1c-0.1,0.1-0.2,0.2-0.3,0.4c-0.1,0.1-0.2,0.2-0.3,0.3l0,0l0,0c-0.2,0.2-0.4,0.4-0.6,0.5c-0.2,0.1-0.4,0.2-0.5,0.3
	l-0.2,0.1l-0.2,0.1c0-0.1-0.1-0.1-0.1-0.2c0,0.1,0.1,0.1,0.1,0.2c-0.2-0.4-0.4-0.7-0.5-1.1c-0.4-0.9-0.7-1.9-1-2.8
	c-0.4-1-0.8-2-1.3-3c-0.5-1.1-1-2.1-1.5-3.2c-0.5-1-1.1-2-1.6-3c0,0,0,0,0-0.1c-0.9-1.7-1.9-3.5-2.9-5.2c-1-1.6-2.1-3.2-3.3-4.7
	c-0.8-1.1-1.6-2.3-2.4-3.4c-0.9-1.2-1.8-2.4-2.8-3.5s-2-2.2-3-3.2s-2-2-3-3c-0.8-0.8-1.6-1.5-2.5-2.3c-0.1-0.1-0.1-0.1-0.2-0.2
	c0.3-0.1,0.6-0.3,1-0.4c2.7-1,5.1-2.7,7.9-3.5c1.1-0.2,2.4-0.3,3.8-0.5c0.1,0.1,0.3,0.2,0.5,0.2c0.1,0,0.3,0.1,0.4,0.1
	c0.1,0.1,0.3,0.2,0.4,0.3c0.5,0.5,1.1,0.9,1.6,1.5c1.5,1.6,2.9,3.2,4.2,5s2.5,3.7,3.6,5.6l0,0c1.1,2,1.9,4.1,2.8,6.2l0,0v0.1
	c0.4,1.2,0.9,2.4,1.2,3.6c0.4,1.2,0.7,2.3,1,3.5c0.4,1.6,0.7,3.1,0.9,4.8C231.4,142.1,231.4,142.1,231.4,142.2L231.4,142.2
	L231.4,142.2z"/>
<path class="st4" d="M173.1,20c2.8,1.1,5.1,3.8,4.8,6.9c0.2,7.8-11.7,10.6-17.9,11.3c-1.8,0.2-3.7,0.1-5.5,0c-0.8,0-1.5,0.5-1.6,1.3
	s0.5,1.5,1.3,1.6c3.2,0.3,6.5,0.3,9.7-0.3c0.1,0.8,0.2,1.7,0.3,2.6c-4.8,2-10.1,2.1-15.2,2.4c-5.5,0.2-11,0.2-16.4,0.1
	c-0.2-0.5-0.4-1.1-0.5-1.7c0.3-0.1,0.7-0.1,1.2-0.1h0.4c1.8,0,4.1,0,4.1-1.7c0-0.8-0.7-1.4-1.5-1.4c-2.7,0-5.5,0.4-8.1-0.7
	c-3.6-1.6-4.8-5-2.1-8.1c4.7-6.2,14-6.1,20.9-4.6c-1.5,0.7-3,1.2-4.5,1.6c-1.7-0.6-2.8,1.5-1.3,2.6c1.8,1,4.1-0.5,5.9-1
	C155.8,27.7,163,17.2,173.1,20C173.1,20.1,173.1,20,173.1,20L173.1,20z"/>
<path class="st1" d="M85.2,84c0-0.8,0.6-1.5,1.4-1.5s1.4,0.6,1.5,1.4c0,0.8-0.6,1.5-1.4,1.5S85.3,84.8,85.2,84z"/>
<path class="st1" d="M92,74.2c0-0.8,0.6-1.5,1.4-1.5s1.4,0.6,1.5,1.4c0,0.8-0.6,1.5-1.4,1.5S92,75,92,74.2z"/>
<path class="st1" d="M89.3,79.1c0-0.7,0.6-1.5,1.4-1.5s1.4,0.6,1.5,1.4c0,0.8-0.6,1.5-1.4,1.5S89.3,79.9,89.3,79.1z"/>
<path class="st1" d="M95.6,77.3c0-0.8,0.6-1.5,1.4-1.5s1.4,0.6,1.5,1.4c0,0.8-0.6,1.5-1.4,1.5S95.6,78.1,95.6,77.3z"/>
<path class="st1" d="M103.3,69.3c0-0.8,0.6-1.5,1.4-1.5s1.4,0.6,1.5,1.4c0,0.8-0.6,1.5-1.4,1.5S103.4,70.1,103.3,69.3z"/>
<path class="st1" d="M111.5,64.6c0-0.8,0.6-1.5,1.4-1.5s1.4,0.6,1.5,1.4c0,0.8-0.6,1.5-1.4,1.5S111.5,65.4,111.5,64.6z"/>
<path class="st1" d="M98.8,69.1c0-0.8,0.6-1.5,1.4-1.5s1.4,0.6,1.5,1.4c0,0.8-0.6,1.5-1.4,1.5S98.8,69.9,98.8,69.1z"/>
<path class="st1" d="M106.8,62.1c0-0.8,0.6-1.5,1.4-1.5s1.4,0.6,1.5,1.4c0,0.8-0.6,1.5-1.4,1.5S106.8,62.9,106.8,62.1z"/>
<path class="st1" d="M118,59.6c0-0.8,0.6-1.5,1.4-1.5s1.4,0.6,1.5,1.4c0,0.8-0.6,1.5-1.4,1.5S118,60.4,118,59.6z"/>
<path class="st1" d="M199.2,71.7c0-0.8,0.6-1.5,1.4-1.5s1.4,0.6,1.5,1.4c0,0.8-0.6,1.5-1.4,1.5S199.2,72.5,199.2,71.7z"/>
<path class="st1" d="M192,65.5c0-0.8,0.6-1.5,1.4-1.5s1.4,0.6,1.5,1.4c0,0.8-0.6,1.5-1.4,1.5S192,66.3,192,65.5z"/>
<path class="st1" d="M180.1,57.5c0-0.8,0.6-1.5,1.4-1.5s1.4,0.6,1.5,1.4c0,0.8-0.6,1.5-1.4,1.5S180.2,58.3,180.1,57.5z"/>
<path class="st1" d="M186.3,60.5c0-0.8,0.6-1.5,1.4-1.5s1.4,0.6,1.5,1.4c0,0.8-0.6,1.5-1.4,1.5S186.3,61.3,186.3,60.5z"/>
<path class="st1" d="M190.1,59.1c0-0.8,0.6-1.5,1.4-1.5s1.4,0.6,1.5,1.4c0,0.8-0.6,1.5-1.4,1.5S190.1,59.9,190.1,59.1z"/>
<path class="st1" d="M19,90.3c0-0.8,0.6-1.5,1.4-1.5s1.4,0.6,1.5,1.4c0,0.8-0.6,1.5-1.4,1.5C19.6,91.7,19,91.1,19,90.3z"/>
<path class="st1" d="M14.1,105.1c0-0.8,0.6-1.5,1.4-1.5s1.4,0.6,1.5,1.4c0,0.8-0.6,1.5-1.4,1.5C14.8,106.5,14.1,105.9,14.1,105.1z"
	/>
<path class="st1" d="M15.6,124.4c0-0.8,0.6-1.5,1.4-1.5s1.4,0.6,1.5,1.4c0,0.8-0.6,1.5-1.4,1.5C16.3,125.8,15.7,125.2,15.6,124.4z"
	/>
<path class="st1" d="M16.3,98c0-0.8,0.6-1.5,1.4-1.5s1.4,0.6,1.5,1.4c0,0.8-0.6,1.5-1.4,1.5S16.3,98.8,16.3,98z"/>
<path class="st1" d="M12.5,114.9c0-0.8,0.6-1.5,1.4-1.5c0.8,0,1.4,0.6,1.5,1.4c0,0.8-0.6,1.5-1.4,1.5
	C13.1,116.3,12.5,115.7,12.5,114.9z"/>
<path class="st1" d="M20,115.2c0-0.8,0.6-1.5,1.4-1.5s1.5,0.6,1.5,1.4c0,0.8-0.6,1.5-1.4,1.5C20.7,116.6,20,116,20,115.2z"/>
<path class="st1" d="M16.2,131.4c0-0.8,0.6-1.5,1.4-1.5s1.4,0.6,1.5,1.4c0,0.8-0.6,1.5-1.4,1.5C16.9,132.7,16.2,132.2,16.2,131.4z"
	/>
<path class="st1" d="M26.1,140.3c0-0.8,0.6-1.5,1.4-1.5s1.4,0.6,1.5,1.4c0,0.8-0.6,1.5-1.4,1.5S26.2,141.1,26.1,140.3z"/>
<path class="st1" d="M37.8,151.3c0-0.8,0.6-1.5,1.4-1.5s1.4,0.6,1.5,1.4c0,0.8-0.6,1.5-1.4,1.5S37.8,152.1,37.8,151.3z"/>
<path class="st1" d="M50.6,154.7c0-0.8,0.6-1.5,1.4-1.5s1.4,0.6,1.5,1.4c0,0.8-0.6,1.5-1.4,1.5S50.7,155.5,50.6,154.7z"/>
<path class="st1" d="M63.4,157.6c0-0.8,0.6-1.5,1.4-1.5s1.4,0.6,1.5,1.4c0,0.8-0.6,1.5-1.4,1.5S63.4,158.4,63.4,157.6z"/>
<path class="st1" d="M83.5,159.3c0-0.8,0.6-1.5,1.4-1.5s1.4,0.6,1.5,1.4c0,0.8-0.6,1.5-1.4,1.5S83.5,160.1,83.5,159.3z"/>
<path class="st1" d="M97.7,157c0-0.8,0.6-1.5,1.4-1.5s1.4,0.6,1.5,1.4c0,0.8-0.6,1.5-1.4,1.5S97.8,157.8,97.7,157z"/>
<path class="st1" d="M114.5,150.7c0-0.8,0.6-1.5,1.4-1.5s1.4,0.6,1.5,1.4c0,0.8-0.6,1.5-1.4,1.5S114.6,151.5,114.5,150.7z"/>
<path class="st1" d="M104.8,152.7c0-0.8,0.6-1.5,1.4-1.5s1.4,0.6,1.5,1.4c0,0.8-0.6,1.5-1.4,1.5S104.8,153.5,104.8,152.7z"/>
<path class="st1" d="M88.8,154.4c0-0.8,0.6-1.5,1.4-1.5s1.4,0.6,1.5,1.4c0,0.8-0.6,1.5-1.4,1.5S88.8,155.1,88.8,154.4z"/>
<path class="st1" d="M70.5,155.5c0-0.8,0.6-1.5,1.4-1.5s1.4,0.6,1.5,1.4c0,0.8-0.6,1.5-1.4,1.5S70.5,156.3,70.5,155.5z"/>
<path class="st1" d="M44.7,145.2c0-0.8,0.6-1.5,1.4-1.5s1.5,0.6,1.5,1.4c0,0.8-0.6,1.5-1.4,1.5S44.8,146,44.7,145.2z"/>
<path class="st1" d="M34.1,136.3c0-0.8,0.6-1.5,1.4-1.5c0.8,0,1.4,0.6,1.5,1.4c0,0.8-0.6,1.5-1.4,1.5
	C34.8,137.6,34.2,137.1,34.1,136.3z"/>
<path class="st1" d="M24.6,126.6c0-0.8,0.6-1.5,1.4-1.5s1.4,0.6,1.5,1.4c0,0.8-0.6,1.5-1.4,1.5S24.7,127.4,24.6,126.6z"/>
<path class="st1" d="M27.2,85.5c0-0.8,0.6-1.5,1.4-1.5s1.4,0.6,1.5,1.4c0,0.8-0.6,1.5-1.4,1.5S27.2,86.3,27.2,85.5z"/>
<path class="st1" d="M23.9,104.2c0-0.8,0.6-1.5,1.4-1.5s1.4,0.6,1.5,1.4c0,0.8-0.6,1.5-1.4,1.5S23.9,105,23.9,104.2z"/>
<path class="st1" d="M23.4,136.9c0-0.8,0.6-1.5,1.4-1.5s1.5,0.6,1.5,1.4c0,0.8-0.6,1.5-1.4,1.5S23.4,137.7,23.4,136.9z"/>
<path class="st1" d="M30.8,148.1c0-0.8,0.6-1.5,1.4-1.5c0.8,0,1.5,0.6,1.5,1.4c0,0.8-0.6,1.5-1.4,1.5S30.9,148.9,30.8,148.1z"/>
<path class="st1" d="M45.5,153.3c0-0.8,0.6-1.5,1.4-1.5s1.4,0.6,1.5,1.4c0,0.8-0.6,1.5-1.4,1.5S45.6,154.1,45.5,153.3z"/>
<path class="st1" d="M57.8,155.5c0-0.8,0.6-1.5,1.4-1.5s1.5,0.6,1.5,1.4c0,0.8-0.6,1.5-1.4,1.5S57.8,156.3,57.8,155.5z"/>
<path class="st1" d="M79.3,158.9c0-0.8,0.6-1.5,1.4-1.5s1.4,0.6,1.5,1.4c0,0.8-0.6,1.5-1.4,1.5S79.3,159.7,79.3,158.9z"/>
<path class="st1" d="M59.7,147.8c0-0.8,0.6-1.5,1.4-1.5s1.5,0.6,1.5,1.4c0,0.8-0.6,1.5-1.4,1.5S59.7,148.6,59.7,147.8z"/>
<path class="st1" d="M36.2,144.1l-0.1-0.3c-0.3-0.7,0-1.6,0.7-1.9c0.7-0.3,1.6,0,1.9,0.7c0,0.1,0.1,0.2,0.1,0.2
	c0.3,0.7,0,1.6-0.7,1.9c-0.2,0.1-0.4,0.1-0.6,0.1C37,144.9,36.5,144.6,36.2,144.1z"/>
<path class="st1" d="M46.6,130.7c-0.1-0.8,0.4-1.5,1.2-1.6H48c0.8-0.1,1.5,0.4,1.6,1.1c0.1,0.8-0.4,1.5-1.2,1.6c0,0-0.1,0-0.2,0
	c-0.1,0-0.2,0-0.2,0C47.3,131.8,46.7,131.3,46.6,130.7L46.6,130.7z"/>
<path class="st1" d="M32.4,117.4c0-0.8,0.6-1.5,1.4-1.5s1.4,0.6,1.5,1.4c0,0.8-0.6,1.5-1.4,1.5S32.4,118.2,32.4,117.4z"/>
<path class="st1" d="M33.9,83c0-0.8,0.6-1.5,1.4-1.5s1.4,0.6,1.5,1.4c0,0.8-0.6,1.5-1.4,1.5S33.9,83.8,33.9,83z"/>
<path class="st1" d="M78.8,150.6c0-0.8,0.6-1.5,1.4-1.5s1.4,0.6,1.5,1.4c0,0.8-0.6,1.5-1.4,1.5S78.8,151.4,78.8,150.6z"/>
<path class="st1" d="M14.4,110.1c0-0.8,0.6-1.5,1.4-1.5s1.4,0.6,1.5,1.4c0,0.8-0.6,1.5-1.4,1.5C15,111.5,14.4,110.9,14.4,110.1z"/>
<path class="st0" d="M109.9,106.7c-0.4-0.3-0.8-0.6-1.2-1c-1-0.4-2-0.8-3-1.3c-1.4-0.7-2.8-1.4-4-2.4c-0.4-0.3-0.7-0.6-1.1-0.9
	c-0.2-0.2-0.4-0.4-0.6-0.6c-0.1,0-0.3,0-0.4,0c-0.4,0-0.8,0-1.1-0.2c-0.7-0.2-1.1-0.8-1.3-1.5c-0.3-1.4,1.1-2.4,2.2-3
	s2.2-0.9,3.3-1.4c0.1,0,0.1,0,0.2-0.1h0.1l0,0c0.1,0,0.1-0.1,0.2-0.1h-0.1c1.6-0.6,3.1-1.4,4.6-2.2h-0.1l0.1-0.1c0,0,0,0,0.1,0l0,0
	c2.6-1.4,5-3,7.6-4.6c2.1-1.8,4.3-3.6,6.6-5.2c2.6-1.9,5.2-3.8,7.8-5.6c2.5-1.7,5.2-3.1,8.1-4.3c2.8-1.1,5.7-1.8,8.7-2.3
	c3.1-0.6,6.2-1,9.4-1.2c2.2-0.1,4.4-0.1,6.6,0c1.1,0.1,2.2,0.2,3.3,0.4c0.5,0.1,1,0.2,1.5,0.3c0.2,0.1,0.4,0.1,0.7,0.2
	c0.5,0.1,0.8,0.3,1.1,0.7c0.1,0.2,0.2,0.4,0.2,0.6c0.9,0.1,1.9,0.2,2.8,0.3c1.6,0.2,3.1,0.5,4.7,0.9c0.8,0.2,1.5,0.4,2.2,0.6
	c0.8,0.2,1.6,0.5,2.3,1c0.3,0.2,0.5,0.4,0.8,0.6h0.1l0,0l0,0c0.5,0.2,0.8,0.7,0.8,1.2c0,0.8-0.6,1.5-1.4,1.5l0,0
	c-0.4,0-0.8-0.1-1.2-0.4c-0.2-0.1-0.4-0.3-0.5-0.4s-0.3-0.2-0.4-0.2c-0.4-0.2-0.7-0.3-1.1-0.4c-1.6-0.5-3.3-0.8-4.9-1.1l0,0h-0.3
	c-3-0.4-6-0.7-9-0.8h0.1c-3.1-0.1-6.3,0-9.4,0.3c0,0,0,0,0.1,0c-0.7,0.1-1.5,0.2-2.2,0.3c-0.8,0.1-1.5,0.3-2.3,0.5
	c-1.5,0.3-3.1,0.6-4.6,1c-1.9,0.5-3.9,1.1-5.7,1.8l0,0c-1.1,0.4-2.3,0.9-3.4,1.5c-1.2,0.6-2.3,1.2-3.5,1.9l0.2-0.1
	c-0.2,0.1-0.3,0.2-0.5,0.3c-1.3,0.7-2.6,1.5-3.9,2.3c-1.3,0.8-2.6,1.6-3.8,2.4c-1.2,0.8-2.4,1.7-3.6,2.6c-1.2,0.8-2.4,1.6-3.6,2.4
	l-0.4,0.3c0,0,0,0-0.1,0.1c-0.2,0.2-0.5,0.4-0.8,0.5s-0.5,0.3-0.8,0.5c-0.7,0.5-1.3,1.1-1.9,1.6c-0.8,0.7-1.4,1.5-2.1,2.3
	c-0.3,0.4-0.7,0.9-1,1.4c-0.2,0.2-0.3,0.5-0.4,0.8c-0.2,0.3-0.3,0.6-0.4,0.9c-0.2,0.6-0.4,1.3-0.4,1.9c0,0.3,0,0.7,0.1,1
	c0.1,0.2,0.1,0.4,0.2,0.7c0.3,0.8,0.6,1.6,1.1,2.3c0.7,0.9,1.5,1.7,2.2,2.5c0.4,0.5,0.9,0.9,1.3,1.3l0,0
	C113,108.6,111.3,107.8,109.9,106.7L109.9,106.7z"/>
<path d="M103.1,94.4L103.1,94.4z"/>
<path d="M173.2,74.7L173.2,74.7z"/>
<path d="M154.8,74.2L154.8,74.2L154.8,74.2z"/>
<path class="st0" d="M135.6,42.9l0.1-0.1l-0.2-0.1C135.5,42.8,135.5,42.9,135.6,42.9C135.5,42.9,135.5,42.9,135.6,42.9L135.6,42.9z
	 M141.3,45.7c0.1,0.8-0.2,1.7-0.9,2.2c-0.4,0.2-0.9,0.4-1.4,0.6c-0.8,0.2-1.5,0.5-2.3,0.8c-2.4,1-4.8,2.1-7.1,3.2
	c-1.1,0.6-2.3,1.1-3.5,1.6c-1.1,0.5-2.3,1-3.4,1.6c-0.1,0.1-0.2,0.1-0.3,0.2c-1.3,0.7-2.6,1.5-3.8,2.3c-1.1,0.7-2.2,1.5-3.3,2.2l0,0
	c-0.5,0.4-1.1,0.8-1.6,1.3c-0.6,0.6-1.2,1.3-1.8,2c-0.4,0.5-0.8,1.1-1.1,1.6c-0.3,0.5-0.5,0.9-0.8,1.4c-0.1,0.3-0.3,0.7-0.4,1
	s-0.1,0.6-0.2,0.9c-0.1,0.4-0.1,0.8-0.1,1.2c0,0.3,0,0.6,0,0.8c0.1,0.6,0.1,1.2-0.3,1.7c-0.5,0.8-1.2,1.4-1.9,2l0,0
	c-1.1,1-2.1,2.2-3.1,3.3c-0.5,0.7-1,1.4-1.4,2.1c-0.7,1.2-1.3,2.4-1.8,3.6c-0.2,0.4-0.4,0.9-0.5,1.3c-0.3,1-0.5,1.9-0.7,2.9
	c0,0.1,0,0.2-0.1,0.3c-0.3,1.6-0.4,3.3-0.5,5c0,1.4-0.1,3.3-1.8,3.6c-0.1,0-0.2,0-0.3,0c-0.7,0-1.4-0.4-2-0.7
	c-0.8-0.4-1.6-0.9-2.4-1.2c-1.6-0.7-3.2-1.2-4.8-2c-0.5-0.2-1-0.5-1.5-0.8c-0.6-0.4-1.1-0.7-1.7-1.1c-0.3-0.2-0.6-0.3-0.9-0.5
	c-0.3-0.1-0.6-0.2-0.9-0.3c-0.7-0.2-1.5-0.3-2.1-0.8c-0.4-0.4-0.6-0.9-0.6-1.5c0-0.5,0.2-1,0.4-1.4c0.3-0.6,0.6-1.3,1-1.9
	c0.8-1.4,1.6-2.7,2.5-4s1.9-2.5,2.8-3.7c1.8-2.4,3.6-4.9,5.8-7.1c2.2-2.2,4.3-4.5,6.7-6.4c2.5-2,5.2-3.7,7.8-5.5
	c1.2-0.8,2.5-1.6,3.7-2.4c1.3-0.8,2.7-1.5,4.1-2.2c1.3-0.7,2.7-1.2,4-1.8c1.3-0.6,2.6-1.1,3.9-1.6c2.5-1,5.1-2.1,7.6-3.2
	c0.5-0.2,0.9-0.4,1.4-0.6c0-0.2,0-0.4,0-0.7c0-0.3-0.1-0.6-0.1-0.8c0-0.2-0.1-0.3-0.1-0.4v-0.1l0,0l0,0c0,0,0,0-0.1-0.1
	c0,0-0.1,0-0.1-0.1c0,0-0.1,0-0.1-0.1c-0.3-0.1-0.7-0.2-1-0.3c-0.6-0.2-1.1-0.4-1.7-0.7c-0.5-0.2-1.1-0.5-1.6-0.8
	c-0.6-0.4-1.1-0.9-1.6-1.4c-0.5-0.6-0.8-1.3-1-2c-0.2-0.8-0.4-1.5-0.4-2.3s0.2-1.5,0.4-2.2c0.2-0.6,0.4-1.2,0.8-1.8
	c0.3-0.5,0.6-1,0.9-1.4c0.4-0.5,0.8-1.1,1.4-1.2c0.2-0.6,0.7-1.2,1.2-1.5c0.4-0.2,0.7-0.2,1.1-0.2h-0.1c0.1,0,0.2,0,0.4,0.1
	c0.5,0.2,0.9,0.7,0.9,1.3c0,0.3-0.1,0.6-0.3,0.9c-0.1,0.2-0.3,0.3-0.5,0.4c0,0,0,0.1-0.1,0.1c0,0.1-0.1,0.2-0.1,0.3
	c-0.1,0.2-0.1,0.4-0.2,0.6c-0.1,0.3-0.1,0.7-0.1,1c0,0.2,0,0.3,0,0.5s0.1,0.4,0.1,0.6c0.1,0.4,0.2,0.8,0.3,1.1
	c0.2,0.6,0.5,1.1,0.8,1.6c0.2,0.3,0.3,0.6,0.5,0.8c0.2,0.2,0.3,0.4,0.5,0.6s0.4,0.3,0.6,0.5c0.3,0.2,0.5,0.4,0.8,0.6
	c0.6,0.3,1.1,0.6,1.7,0.9c0.1,0,0.1,0.1,0.2,0.1c0.5,0.2,1,0.4,1.5,0.6c0.3,0.1,0.7,0.2,1,0.2c0.4,0.1,0.7,0.1,1.1,0.2
	c0.7,0.2,1.2,0.7,1.6,1.3c0.2,0.4,0.4,0.9,0.5,1.4s0.2,1,0.4,1.4C141.1,44.9,141.3,45.3,141.3,45.7L141.3,45.7z"/>
<path class="st0" d="M220.1,113.5c0,0.4-0.1,0.7-0.4,1c-0.4,0.5-1.2,0.5-1.8,0.5c-1.1,0.1-2.2,0.4-3.3,0.6c-0.4,0.1-0.9,0.3-1.3,0.4
	c-1.1,0.4-2.1,0.9-3.1,1.4c-0.8,0.5-1.6,1-2.3,1.5l0,0h-0.1c-0.2,0.2-0.5,0.4-0.7,0.6c0.2,0.2,0.3,0.4,0.5,0.6
	c0.4,0.5,0.8,1.1,1.2,1.6s0.9,1.1,1.2,1.7c0.3,0.4,0.5,0.9,0.8,1.3c0.3,0.6,0.6,1.1,0.8,1.8c0.2,0.6,0.3,1.1,0.4,1.7
	c0.1,0.7,0.3,1.4,0.4,2.1c0-0.1,0-0.1-0.1-0.2c0.2,0.7,0.3,1.4-0.2,1.9c-0.4,0.5-1,0.7-1.6,0.7c-0.2,0-0.4,0-0.6-0.1
	c-0.9-0.2-1.8-0.6-2.6-1c-1-0.6-2-1.1-3-1.6c-0.9-0.4-1.9-0.9-2.9-1.4c-0.5-0.2-0.9-0.5-1.4-0.7c-0.2-0.1-0.5-0.2-0.7-0.3
	c-0.6-0.2-1.2-0.2-1.8-0.6c-0.6-0.3-1.2-0.9-1.7-1.4c-0.3-0.2-0.6-0.5-0.9-0.7c-0.2-0.1-0.4-0.2-0.7-0.4c-0.2-0.1-0.4-0.1-0.5-0.2
	c-0.2-0.1-0.5-0.1-0.7-0.2c-0.2,0-0.5-0.1-0.7-0.1l0,0c-0.5,0.1-1,0.3-1.4,0.5c-1.1,0.4-2.3,0.9-3.4,1.3c-1,0.4-2,0.7-3,0.9
	c-0.5,0.1-1,0.1-1.5,0.2c-0.4,0-0.7,0.1-1.1,0.1c-0.5,0-1-0.1-1.5-0.3c-0.6-0.3-1-1-1.1-1.6c-0.1-0.5,0-0.9,0.2-1.4
	c0.3-0.6,0.9-1,1.6-1.2c0.9-0.4,1.7-0.8,2.6-1.1c1.8-0.8,3.5-1.6,5.3-2.3c0.7-0.3,1.4-0.5,2.1-0.8c0.7-0.4,1.4-0.8,2.1-1.1
	c1.3-0.6,2.6-1.1,3.9-1.7c1.4-0.6,2.7-1.1,4.1-1.6c0.1,0,0.1-0.1,0.2-0.1c0.3-0.2,0.7-0.3,1-0.4c0.4-0.1,0.7-0.3,1.1-0.4
	c0.7-0.2,1.4-0.4,2-0.6c1.3-0.4,2.6-0.8,3.9-1.1c1.2-0.3,2.4-0.6,3.7-0.7c0.8-0.1,1.7-0.1,2.5-0.1c0.3,0,0.7,0,1,0
	c0.6,0,1-0.1,1.5,0.3c0.4,0.3,0.6,0.8,0.6,1.2c0.3,0.1,0.5,0.2,0.8,0.5C219.9,112.8,220,113.2,220.1,113.5L220.1,113.5z"/>
<path class="st0" d="M112.5,128.4c-0.7-0.3-0.9-1.1-1.1-1.7c-0.2-0.6-0.3-1.2-0.4-1.9s-0.2-1.4-0.3-2.1c0-0.3-0.1-0.7-0.1-1
	c0-0.4,0-0.9,0.2-1.3c0.3-0.5,0.8-0.8,1.4-0.8c0.6,0.1,1.1,0.5,1.2,1c0.1,0.2,0.1,0.3,0.1,0.5c0.2,0,0.5,0.1,0.7,0.3
	c0.6,0.4,0.7,1.1,0.6,1.8c0,0.5-0.1,0.9-0.1,1.4c0,0.4,0,0.7-0.1,1.1v0.1c0,0.8,0.1,1.8-0.6,2.4c-0.3,0.2-0.6,0.3-0.9,0.3
	C113,128.6,112.7,128.5,112.5,128.4L112.5,128.4z"/>
<path class="st0" d="M106.5,124.4c-1.1-0.5-2.1-1.2-3.1-2c-0.1-0.1-0.2-0.1-0.3-0.2c-0.8-0.5-1.7-1.1-2.5-1.7
	c-1-0.7-1.9-1.4-2.8-2.2c-1-0.9-2-1.9-3-2.9c-1.1-1.1-2.2-2.1-3.2-3.2c-1.9-2.1-3.8-4.4-5-7c-0.6-1.3-1.1-2.6-1.5-4
	s-0.7-2.9-0.9-4.4v-0.1c-0.4-0.8-0.9-1.6-1.4-2.4c-0.3-0.4-0.6-0.8-0.8-1.2c-0.3-0.4-0.6-0.9-0.9-1.4c-0.4-0.8-0.1-1.8,0.7-2.2
	c0.6-0.3,1.1-0.1,1.7,0.1c0.6,0.3,1.3,0.7,1.9,1c0.6,0.2,1.2,0.4,1.7,0.9c0.4,0.4,0.6,0.9,0.8,1.3c0.4,0.9,0.7,1.9,1,2.9
	c0.4,1.3,0.8,2.7,1.3,4c0.6,1.4,1.3,2.8,2,4.2s1.2,2.8,2,4.2c0.5,0.9,1.1,1.8,1.7,2.7c1,1.3,2.1,2.4,3.2,3.6
	c-0.1-0.1-0.1-0.1-0.1-0.1c1.9,1.9,4,3.7,6.1,5.4l0,0c0.2,0.2,0.4,0.3,0.6,0.5c1,0.5,1.9,1,2.9,1.5c0.3,0.1,0.5,0.3,0.7,0.6
	c0.4,0.5,0.5,1.2,0.2,1.8c-0.2,0.4-0.7,0.8-1.2,0.9c-0.1,0-0.2,0-0.3,0C107.4,124.8,106.9,124.6,106.5,124.4L106.5,124.4z"/>
<path class="st0" d="M120.4,152.7c0.4,0.5,0.5,1.2,0.2,1.7c-0.2,0.4-0.7,0.7-1.1,0.9s-0.7,0.4-1.1,0.5c-0.2,0.1-0.3,0.1-0.5,0.2
	c-0.5,0.2-1,0.4-1.4,0.5c-0.3,0.1-0.6,0.3-0.9,0.4c-1,0.4-2,0.7-3.1,1c-1,0.3-1.9,0.6-2.9,0.8c-0.4,0.4-1,0.4-1.6,0.5
	s-1.2,0.2-1.8,0.3c-0.6,0.1-1.1,0.2-1.7,0.3c-0.2,0-0.3,0.1-0.5,0.1c-0.9,0.2-1.9,0.5-2.8,0.7c-1.6,0.4-3.3,0.6-5,0.8h0.1
	c-1.5,0.2-3,0.3-4.5,0.4c-1.6,0.1-3.2,0.2-4.8,0.3c-1.5,0.1-3.1,0.2-4.6,0.3c-1.4,0.1-2.9,0.2-4.3,0.2c-0.2,0-0.3,0-0.4,0
	c-3.1,0-6.3-0.1-9.4-0.4c-3.1-0.3-6.1-0.8-9.2-1.1c-1.5-0.1-3.1-0.3-4.6-0.5s-3.1-0.4-4.6-0.7c-2.2-0.4-4.3-1.1-6.4-1.7
	c-0.8-0.3-1.7-0.7-2.4-1.1c-0.5-0.3-1-0.7-1.5-1c-0.4-0.2-0.8-0.5-1.2-0.7c-0.7-0.4-1.4-0.9-2.1-1.4c-1.2-0.8-2.5-1.5-3.7-2.2
	c-1.1-0.7-2.2-1.6-3.3-2.4c-1.1-0.8-2.4-1.5-3.5-2.3c-1.3-0.9-2.4-1.9-3.6-2.9c-1.1-0.9-2.3-1.8-3.3-2.9c-0.5-0.6-1.1-1.2-1.6-1.8
	s-0.9-1.2-1.4-1.8c-0.9-1.2-1.6-2.5-2.2-3.9c-0.3-0.7-0.6-1.4-0.9-2.1c-0.1-0.2-0.2-0.5-0.3-0.8c0-0.1-0.1-0.1-0.1-0.2l0,0l0,0l0,0
	c-0.5-1.4-1-2.8-1.4-4.3c-0.3-1.4-0.6-2.9-0.8-4.4c-0.2-1.4-0.4-2.8-0.4-4.3c-0.1-1.5-0.2-2.9-0.2-4.4c-0.1-3.1,0.3-6.2,0.8-9.3
	c0.2-1.3,0.4-2.6,0.7-3.9c0.3-1.2,0.6-2.5,0.9-3.7c0.3-1.2,0.6-2.5,1.1-3.7c0.4-1,1-2,1.4-3c0.4-0.8,0.7-1.6,1.2-2.3
	c0.3-0.4,0.7-0.6,1.2-0.6c0.1-0.9,0.3-1.8,0.6-2.7c0.2-0.7,1-1,1.6-0.9c0.7,0.2,1.3,1,1.1,1.7c-0.2,0.8-0.4,1.6-0.5,2.5
	c-0.3,1.7-0.5,3.3-0.7,5s-0.4,3.4-0.5,5.1c0,0.8,0,1.7,0,2.5c0.4,3.3,1.2,6.6,2,9.9c0.5,2,1.1,4,1.8,6c0.6,1.9,1.3,3.9,2.1,5.8
	c1.1,2.6,2.3,5.1,3.7,7.6c0,0.1,0.1,0.1,0.1,0.2l0,0c0.7,1.3,1.5,2.6,2.4,3.9c1.1,1.5,2.4,2.9,3.7,4.3l0,0c0,0,0,0,0,0.1
	c0.7,0.8,1.5,1.5,2.3,2.2c1,0.7,1.9,1.4,2.9,2.1c1,0.7,2,1.4,3.1,2.1c1.1,0.7,2.3,1.3,3.5,1.9c1.2,0.6,2.3,1.2,3.5,1.7
	c2.2,1,4.5,1.9,6.8,2.6c1.2,0.4,2.5,0.7,3.8,1c1.4,0.3,2.8,0.7,4.2,1c2.9,0.7,5.8,1.4,8.7,1.9H73c1.6,0.2,3.1,0.4,4.7,0.7
	c1.5,0.2,3,0.4,4.5,0.6c3.2,0.4,6.4,0.6,9.6,0.8h0.7c2.2,0.1,4.3,0.1,6.5-0.1c1.1-0.1,2.2-0.2,3.3-0.3c1.1-0.1,2.3-0.1,3.4-0.3
	c2.2-0.2,4.3-0.6,6.4-1.1l0,0c1-0.2,1.9-0.5,2.9-0.8c0.4-0.2,0.8-0.3,1.2-0.5c0.3-0.1,0.7-0.2,1-0.3l0,0c0.2-0.1,0.4-0.2,0.6-0.3
	s0.3-0.2,0.5-0.2C119.2,152.1,120,152.2,120.4,152.7L120.4,152.7z"/>
<path class="st0" d="M204.4,163c1.5-1.4,3.3-2.4,5.1-3.3c1.3-0.7,2.7-1.3,4.1-1.9c1.5-0.7,3.1-1.3,4.7-1.8c3-1.1,6.1-1.8,9.2-2.4
	c3.1-0.5,6.2-0.9,9.4-1.2c3.1-0.3,6.3-0.6,9.5-0.6c3.1,0,6.1,0,9.2,0.2s6.2,0.5,9.2,0.9c2.9,0.4,5.8,0.8,8.7,1.4
	c1,0.2,2.1,0.5,3.1,0.7c0.6-0.2,1.4-0.1,2,0c0.9,0.2,1.7,0.4,2.5,0.7h0.1l0,0c1.4,0.5,2.7,1.1,3.9,1.9c0.6,0.4,1.2,0.8,1.7,1.3
	c0.6,0.5,1.2,1.2,1.5,1.9c0.2,0.4,0.3,0.8,0.3,1.3c0,0.4-0.1,0.8-0.3,1.2c-0.3,0.7-1,1.2-1.7,1.7c-0.7,0.4-1.5,0.8-2.2,1.1
	c-1.5,0.5-3,0.9-4.5,1.3c-3,0.7-6.1,1.2-9.2,1.5c-3,0.3-6,0.5-9,0.7c-3.1,0.2-6.2,0.5-9.3,0.6s-6.2,0.3-9.3,0.6
	c-3.1,0.2-6.1,0.6-9.2,0.7c-2.5,0.1-5.1,0.2-7.6,0.2c-0.6,0-1.2,0-1.8,0c-3.1,0-6.3-0.2-9.4-0.7c-1.5-0.2-3-0.5-4.5-0.9
	s-3-0.7-4.4-1.2c-1-0.3-2.2-0.7-2.8-1.6c-0.4-0.6-0.6-1.5-0.4-2.3C203.3,164.3,203.8,163.6,204.4,163L204.4,163z"/>
<g>
	<path class="st1" d="M280.6,85.6c-0.4-0.3-0.9-0.6-1.3-0.9c-4.9-3.4-10-6.8-16-8.3c-2.9-1-5.9-1-8.9-0.9c-0.7,0-1.3,0-2,0l0,0
		c-4.7-0.3-9.8,0.5-15.4,2.5c-6.5,2.4-12,7.5-17.2,16c-1.2-0.3-3.4-0.1-7,2c-7.9,4.6-12.9,7.9-15.4,17.3c-0.4,1.1-0.8,2.1-1.2,3.2
		c-1.7,4.6-3.4,9.3-5.6,13.8l0,0c-0.1,0.2-0.1,0.5-0.1,0.7c-2.8,1.3-5.7,2.7-8.8,3.1c-0.3-0.2-0.6-0.4-0.9-0.4l0,0
		c-0.3,0-0.6,0.1-0.9,0.3c-1.7-0.1-3.7-0.1-5,1.3c-0.6,0.5-0.9,1.4-1.1,2.1l-0.1,0.2c-0.1,0.2-0.1,0.4-0.2,0.6
		c-0.5,1.5-1,3.1-0.8,4.6c0,3.3,1.9,6,3.8,8.7c0.6,0.9,1.2,1.7,1.8,2.6c2.1,2.3,4.5,4.9,7.5,6.8c2.2,1,4.5,1.8,6.7,2.6l0.6,0.2
		c9.6,3.4,20.4,5.1,33.1,5.1c0.6,0,1.3,0,1.9,0c1.2-0.1,2.4-0.2,3.5-0.2c5.7-0.4,11.6-0.8,17.2-2.3c14-3.9,26.2-11.1,35.3-20.7
		c6.3-6.9,9.5-17,9.4-29.8C294.3,101.6,292.6,93.8,280.6,85.6L280.6,85.6z M218.1,97.2c-1,2.1-1.9,4.4-2.7,6.6
		c-1.8,4.7-3.7,9.6-6.9,13.7c-2.4,3.6-5.2,6.6-8.5,8.9c-1.4,0.9-2.8,1.6-4.2,2.2c-0.5,0.2-1,0.5-1.5,0.7c1-2.3,1.9-4.8,2.8-7.1
		c0.5-1.4,1-2.8,1.6-4.1c0.4-1,0.8-2.1,1.1-3.1c1.4-4.1,2.9-8.4,6.4-11.2c1.3-1.1,2.8-2,4.2-2.9c0.5-0.3,0.9-0.6,1.4-0.9
		c0.3-0.2,0.6-0.4,0.9-0.6c1.7-1.1,3.4-2.2,5.4-2.5C218.2,97,218.2,97.1,218.1,97.2L218.1,97.2z M208.1,122.7
		c2.3-2.9,4.5-6.1,6.4-9.6c1.3-2.6,2.3-5.3,3.3-7.9c0.9-2.5,1.9-5.1,3.1-7.6c6.2-10.8,12.8-16.5,20.8-18.1c4.2-1.3,8.4-1.3,12.3-1.2
		c3.9-0.3,7.9,0.3,11.8,1.8c3.8,1.5,7.2,3.8,10.5,6c0.7,0.4,1.3,0.9,2,1.3c3.1,2.3,6.5,4.9,9,8.1c4.2,6.5,3.8,14.3,3.5,21.9
		c-0.1,1.6-0.2,3.4-0.2,5c-0.6,7.1-2.7,13.5-6.2,18.6c-3.2,4.4-7.6,7.8-11.8,11.1l-1.1,0.9c-7.4,5.1-16.1,8.9-25.9,11.3
		c-8,1.4-15.8,1.9-23,1.8c-10.8-0.4-19.3-1.8-26.6-4.3c-0.6-0.2-1.3-0.4-1.9-0.6c-2.5-0.8-5.1-1.6-7.4-2.9l-0.2-0.2
		c-2.3-2-4.8-4-6.5-6.5c-0.4-0.7-0.9-1.4-1.4-2.1c-1.6-2.4-3.1-4.6-2.8-7.5c0.2-1.5,0.7-3,1.3-4.4c0.6-0.6,1.5-0.6,2.4-0.5h0.2
		c0.4,0.3,1,0.2,1.4,0.1c0.1,0,0.2,0,0.2,0c1.4,0,2.6-0.2,3.5-0.6c3.9-1.2,7.7-3.1,11.3-4.9l0.1-0.1
		C200.8,129.6,204.9,126.6,208.1,122.7L208.1,122.7z"/>
	<path class="st5" d="M289.5,121.5c0-0.7-0.6-1.2-1.2-1.2s-1.2,0.6-1.2,1.2c0,0.7,0.6,1.2,1.2,1.2S289.5,122.2,289.5,121.5z
		 M288.7,111.1c0-0.7-0.6-1.2-1.2-1.2s-1.2,0.6-1.2,1.2c0,0.7,0.6,1.2,1.2,1.2S288.7,111.7,288.7,111.1z M288.6,116.3
		c0-0.7-0.6-1.2-1.2-1.2s-1.2,0.6-1.2,1.2c0,0.7,0.6,1.2,1.2,1.2S288.6,116.9,288.6,116.3z M287,104.5c0-0.7-0.6-1.2-1.2-1.2
		s-1.2,0.6-1.2,1.2c0,0.7,0.6,1.2,1.2,1.2S287,105.1,287,104.5z M286.3,130.1c0-0.7-0.6-1.2-1.2-1.2s-1.2,0.6-1.2,1.2
		c0,0.7,0.6,1.2,1.2,1.2S286.3,130.8,286.3,130.1z M283.2,109.9c0-0.7-0.6-1.2-1.2-1.2s-1.2,0.6-1.2,1.2c0,0.7,0.6,1.2,1.2,1.2
		S283.2,110.6,283.2,109.9z M283.1,95.5c0-0.7-0.6-1.2-1.2-1.2s-1.2,0.6-1.2,1.2c0,0.7,0.6,1.2,1.2,1.2S283.1,96.1,283.1,95.5z
		 M281.5,135.4c0-0.7-0.6-1.2-1.2-1.2s-1.2,0.6-1.2,1.2c0,0.7,0.6,1.2,1.2,1.2S281.5,136.1,281.5,135.4z M280,129.6
		c0-0.7-0.6-1.2-1.2-1.2s-1.2,0.6-1.2,1.2s0.6,1.2,1.2,1.2S280,130.2,280,129.6z M279.3,145.5c0-0.7-0.6-1.2-1.2-1.2
		s-1.2,0.6-1.2,1.2s0.6,1.3,1.2,1.3S279.3,146.2,279.3,145.5L279.3,145.5z M279.2,118c0-0.7-0.6-1.2-1.2-1.2s-1.2,0.6-1.2,1.2
		c0,0.7,0.6,1.2,1.2,1.2S279.2,118.6,279.2,118z M277.6,104.2c0-0.7-0.6-1.2-1.2-1.2s-1.2,0.6-1.2,1.2c0,0.7,0.6,1.2,1.2,1.2
		S277.6,104.9,277.6,104.2z M276.7,139.6c0-0.7-0.6-1.2-1.2-1.2s-1.2,0.6-1.2,1.2c0,0.7,0.6,1.2,1.2,1.2S276.7,140.3,276.7,139.6z
		 M275.5,91.9c0-0.7-0.6-1.2-1.2-1.2s-1.2,0.6-1.2,1.2c0,0.7,0.6,1.2,1.2,1.2S275.5,92.5,275.5,91.9z M269.9,145.6
		c0-0.7-0.6-1.2-1.2-1.2s-1.2,0.6-1.2,1.2c0,0.7,0.6,1.2,1.2,1.2S269.9,146.2,269.9,145.6z M269.3,153.3c0-0.7-0.6-1.2-1.2-1.2
		s-1.2,0.6-1.2,1.2c0,0.7,0.6,1.2,1.2,1.2S269.3,153.9,269.3,153.3z M268.9,124.4c0-0.7-0.6-1.2-1.2-1.2s-1.2,0.6-1.2,1.2
		c0,0.7,0.6,1.2,1.2,1.2S268.9,125,268.9,124.4z M267.7,140.3c0-0.7-0.6-1.2-1.2-1.2s-1.2,0.6-1.2,1.2c0,0.7,0.6,1.2,1.2,1.2
		S267.7,140.9,267.7,140.3z M260.5,156.3c0-0.7-0.6-1.2-1.2-1.2c-0.7,0-1.2,0.6-1.2,1.2c0,0.7,0.6,1.2,1.2,1.2
		C260,157.6,260.5,157,260.5,156.3z M258.1,150.8c0-0.7-0.6-1.2-1.2-1.2c-0.7,0-1.3,0.6-1.3,1.2c0,0.7,0.6,1.2,1.2,1.2
		C257.6,152,258.1,151.5,258.1,150.8z M256,136.4c0-0.7-0.6-1.2-1.2-1.2s-1.2,0.6-1.2,1.2c0,0.7,0.6,1.2,1.2,1.2
		S256,137.1,256,136.4z M251.9,157.4c0-0.7-0.6-1.2-1.2-1.2s-1.2,0.6-1.2,1.2c0,0.7,0.6,1.2,1.2,1.2S251.9,158,251.9,157.4z
		 M250.5,160.6c0-0.7-0.6-1.2-1.2-1.2s-1.2,0.6-1.2,1.2c0,0.7,0.6,1.2,1.2,1.2S250.5,161.3,250.5,160.6z M243.1,146.8
		c-1.4,0.8-0.2,2.9,1.2,2.2C245.8,148.2,244.5,145.9,243.1,146.8z M242.9,161.7c0-0.7-0.6-1.2-1.2-1.2s-1.2,0.6-1.2,1.2
		c0,0.7,0.6,1.2,1.2,1.2S242.9,162.4,242.9,161.7z M236,153.6c0-0.7-0.6-1.2-1.2-1.2s-1.2,0.6-1.2,1.2c0,0.7,0.6,1.2,1.2,1.2
		S236,154.3,236,153.6z M235.6,162.3c0-0.7-0.6-1.2-1.2-1.2s-1.2,0.6-1.2,1.2c0,0.7,0.6,1.2,1.2,1.2S235.6,163,235.6,162.3z
		 M230.2,158.9c0-0.7-0.6-1.2-1.2-1.2s-1.2,0.6-1.2,1.2c0,0.7,0.6,1.2,1.2,1.2S230.2,159.5,230.2,158.9z M221,163.8
		c0-0.7-0.6-1.2-1.2-1.2s-1.2,0.6-1.2,1.2c0,0.7,0.6,1.2,1.2,1.2S221,164.5,221,163.8z M216.5,154.5c0-0.7-0.6-1.2-1.2-1.2
		s-1.2,0.6-1.2,1.2c0,0.7,0.6,1.2,1.2,1.2S216.5,155.2,216.5,154.5z M213.7,162c0-0.7-0.6-1.2-1.2-1.2s-1.2,0.6-1.2,1.2
		c0,0.7,0.6,1.2,1.2,1.2S213.7,162.7,213.7,162z M205.9,161.1c0-0.7-0.6-1.2-1.2-1.2s-1.2,0.6-1.2,1.2c0,0.7,0.6,1.2,1.2,1.2
		S205.9,161.8,205.9,161.1z M196.1,158.1c0-0.7-0.6-1.2-1.2-1.2s-1.2,0.6-1.2,1.2c0,0.7,0.6,1.2,1.2,1.2S196.1,158.8,196.1,158.1z
		 M176.8,137.3c0.7-0.7,1.8-0.6,2.8-0.6c0.4,0.3,1.2,0.1,1.6,0.1c1.2,0,2.4-0.1,3.5-0.6c3.9-1.2,7.8-3.1,11.4-4.9
		c4.6-1.9,8.7-4.9,11.8-8.7c2.4-3,4.5-6.2,6.4-9.5c2.6-5,4-10.5,6.5-15.5c4.7-8.1,11.2-16.2,20.8-18.2c4.1-1.2,8.2-1.3,12.4-1.2
		c4.1-0.3,8,0.3,11.8,1.8c4.5,1.8,8.5,4.7,12.5,7.3c3.2,2.4,6.6,5,9,8.2c5.2,8,3.5,18,3.3,27c-0.5,6.6-2.5,13.2-6.2,18.7
		c-3.5,4.9-8.3,8.4-13,12c-7.8,5.4-16.7,9.1-25.9,11.3c-7.6,1.3-15.4,2-23.1,1.8c-9.1-0.3-18.1-1.3-26.7-4.3
		c-3.2-1.1-6.5-1.9-9.4-3.6c-2.4-2.1-4.9-4.2-6.7-6.8c-1.9-3.1-4.6-5.9-4.2-9.8C175.8,140.3,176.2,138.7,176.8,137.3L176.8,137.3z"
		/>
	<path class="st5" d="M206.2,103.6c1.8-1.5,3.7-2.6,5.7-3.8c2.1-1.3,4.2-2.9,6.7-3.1l-0.3,0.6c-3.1,6.8-5,14.3-9.6,20.3
		c-2.3,3.5-5.1,6.5-8.5,8.9c-2,1.3-4,2.1-6,3.1c1.7-3.8,3-7.7,4.6-11.6C200.6,112.9,201.7,107.2,206.2,103.6L206.2,103.6z"/>
	<path class="st0" d="M199.3,158c6.2,0.7,12.4,0.5,18.6,0.6c7.7-0.1,15.4-0.7,23-2.6c5.4-0.8,10.8-2.4,15.7-4.8
		c5.2-3.2,10-7.1,13.8-11.9c3.4-4.6,6.3-9.6,8-15.1c3.7-9.3,4.2-19.6,2.7-29.5c-0.2-1.9-1.5-3.6-1.8-5.5c0-1.3,1.9-1.7,2.4-0.5
		c3,0.1,4.9,3.8,6.4,6c0.6,0.2,0.8,0.9,0.9,1.5c0.7,1.1,1.3,2.1,1.9,3.2c0.4,0.7,0.8,1.6,0.5,2.4c2.4,6.4,1.6,13.6,1.5,20.3
		c-0.3,5-1.5,10-3.8,14.5c-1.6,3.3-4.1,6.1-6.1,9.3c-4.5,6-10.8,10.6-17.8,13.4c-9.2,4.4-19.2,6.3-29.2,7.9c-6.3,0.5-12.6-0.8-19-1
		c-6.8-0.4-13.8-1-20.3-3.4c-3.1-0.9-6.3-1.3-9.2-2.4c-1.7-0.9-3.7-1.7-4.6-3.5c-1-4.6,8.3,0.2,10.6-0.1
		C195.4,156.9,197.5,157.5,199.3,158L199.3,158z"/>
	<g>
		<path class="st1" d="M275.6,91.9c0-0.4-0.1-0.7-0.4-1s-0.6-0.4-0.9-0.4c-0.7,0-1.4,0.6-1.4,1.3c0,0.4,0.1,0.7,0.4,1
			s0.6,0.4,0.9,0.4C275,93.2,275.6,92.6,275.6,91.9z"/>
		<path class="st1" d="M281.8,96.8c0.7,0,1.4-0.6,1.4-1.3c0-0.4-0.1-0.7-0.4-1s-0.6-0.4-0.9-0.4c-0.7,0-1.4,0.6-1.4,1.3
			c0,0.4,0.1,0.7,0.4,1C281.2,96.7,281.5,96.8,281.8,96.8z"/>
		<path class="st1" d="M285.7,105.8c0.7,0,1.4-0.6,1.4-1.3c0-0.4-0.1-0.7-0.4-1s-0.6-0.4-0.9-0.4c-0.7,0-1.4,0.6-1.4,1.3
			c0,0.4,0.1,0.7,0.4,1C285,105.7,285.4,105.8,285.7,105.8z"/>
		<path class="st1" d="M275,104.2c0,0.4,0.1,0.7,0.4,1s0.6,0.4,0.9,0.4c0.7,0,1.4-0.6,1.4-1.3c0-0.4-0.1-0.7-0.4-1s-0.6-0.4-0.9-0.4
			C275.7,102.9,275,103.5,275,104.2z"/>
		<path class="st1" d="M282,108.6c-0.7,0-1.4,0.6-1.4,1.3c0,0.4,0.1,0.7,0.4,1s0.6,0.4,0.9,0.4c0.7,0,1.4-0.6,1.4-1.3
			c0-0.4-0.1-0.7-0.4-1C282.7,108.7,282.3,108.6,282,108.6z"/>
		<path class="st1" d="M286.1,111c0,0.4,0.1,0.7,0.4,1s0.6,0.4,0.9,0.4c0.7,0,1.4-0.6,1.4-1.3c0-0.4-0.1-0.7-0.4-1s-0.6-0.4-0.9-0.4
			C286.7,109.7,286.1,110.3,286.1,111z"/>
		<path class="st1" d="M287.3,114.9c-0.7,0-1.4,0.6-1.4,1.3c0,0.4,0.1,0.7,0.4,1s0.6,0.4,0.9,0.4c0.7,0,1.4-0.6,1.4-1.3
			c0-0.4-0.1-0.7-0.4-1C288,115.1,287.7,114.9,287.3,114.9z"/>
		<path class="st1" d="M289.2,120.6c-0.3-0.3-0.6-0.4-0.9-0.4c-0.7,0-1.4,0.6-1.4,1.3c0,0.4,0.1,0.7,0.4,1s0.6,0.4,0.9,0.4
			c0.7,0,1.4-0.6,1.4-1.3C289.6,121.2,289.4,120.8,289.2,120.6z"/>
		<path class="st1" d="M276.6,118c0,0.4,0.1,0.7,0.4,1s0.6,0.4,0.9,0.4c0.7,0,1.4-0.6,1.4-1.3c0-0.4-0.1-0.7-0.4-1s-0.6-0.4-0.9-0.4
			C277.2,116.6,276.6,117.2,276.6,118z"/>
		<path class="st1" d="M277.4,129.5c0,0.4,0.1,0.7,0.4,1c0.2,0.3,0.6,0.4,0.9,0.4c0.7,0,1.4-0.6,1.4-1.3c0-0.4-0.1-0.7-0.4-1
			c-0.2-0.3-0.6-0.4-0.9-0.4C278,128.2,277.4,128.8,277.4,129.5z"/>
		<path class="st1" d="M280.2,134.1c-0.7,0-1.4,0.6-1.4,1.3c0,0.4,0.1,0.7,0.4,1s0.6,0.4,0.9,0.4c0.7,0,1.4-0.6,1.4-1.3
			c0-0.4-0.1-0.7-0.4-1C280.9,134.2,280.6,134.1,280.2,134.1z"/>
		<path class="st1" d="M267.7,125.7c0.7,0,1.4-0.6,1.4-1.3c0-0.4-0.1-0.7-0.4-1s-0.6-0.4-0.9-0.4c-0.7,0-1.4,0.6-1.4,1.3
			c0,0.4,0.1,0.7,0.4,1C267,125.6,267.3,125.7,267.7,125.7z"/>
		<path class="st1" d="M285.1,128.7c-0.7,0-1.4,0.6-1.4,1.3c0,0.4,0.1,0.7,0.4,1s0.6,0.4,0.9,0.4c0.7,0,1.4-0.6,1.4-1.3
			c0-0.4-0.1-0.7-0.4-1C285.8,128.9,285.4,128.7,285.1,128.7z"/>
		<path class="st1" d="M278,144.2c-0.7,0-1.4,0.6-1.4,1.3c0,0.4,0.1,0.7,0.4,1c0.2,0.3,0.6,0.4,0.9,0.4c0.7,0,1.4-0.6,1.4-1.3
			c0-0.4-0.1-0.7-0.4-1C278.7,144.3,278.4,144.2,278,144.2z"/>
		<path class="st1" d="M268,151.9c-0.7,0-1.4,0.6-1.4,1.3c0,0.4,0.1,0.7,0.4,1s0.6,0.4,0.9,0.4c0.7,0,1.4-0.6,1.4-1.3
			c0-0.4-0.1-0.7-0.4-1C268.7,152.1,268.4,151.9,268,151.9z"/>
		<path class="st1" d="M259.3,155c-0.7,0-1.4,0.6-1.4,1.3c0,0.4,0.1,0.7,0.4,1s0.6,0.4,0.9,0.4c0.7,0,1.4-0.6,1.4-1.3
			c0-0.4-0.1-0.7-0.4-1C260,155.1,259.6,155,259.3,155z"/>
		<path class="st1" d="M268.6,144.2c-0.7,0-1.4,0.6-1.4,1.3c0,0.4,0.1,0.7,0.4,1s0.6,0.4,0.9,0.4c0.7,0,1.4-0.6,1.4-1.3
			c0-0.4-0.1-0.7-0.4-1C269.3,144.4,269,144.2,268.6,144.2z"/>
		<path class="st1" d="M276.4,138.7c-0.3-0.3-0.6-0.4-0.9-0.4c-0.7,0-1.4,0.6-1.4,1.3c0,0.4,0.1,0.7,0.4,1s0.6,0.4,0.9,0.4
			c0.7,0,1.4-0.6,1.4-1.3C276.8,139.3,276.7,138.9,276.4,138.7z"/>
		<path class="st1" d="M267.8,140.3c0-0.4-0.1-0.7-0.4-1s-0.6-0.4-0.9-0.4c-0.7,0-1.4,0.6-1.4,1.3c0,0.4,0.1,0.7,0.4,1
			s0.6,0.4,0.9,0.4C267.2,141.6,267.8,141,267.8,140.3z"/>
		<path class="st1" d="M256.1,136.4c0-0.4-0.1-0.7-0.4-1c-0.3-0.3-0.6-0.4-0.9-0.4c-0.7,0-1.4,0.6-1.4,1.3c0,0.4,0.1,0.7,0.4,1
			c0.3,0.3,0.6,0.4,0.9,0.4C255.5,137.7,256.1,137.1,256.1,136.4z"/>
		<path class="st1" d="M257.9,149.8c-0.3-0.3-0.6-0.4-0.9-0.4c-0.7,0-1.4,0.6-1.4,1.3c0,0.4,0.1,0.7,0.4,1s0.6,0.4,0.9,0.4
			c0.7,0,1.4-0.6,1.4-1.3C258.3,150.4,258.1,150.1,257.9,149.8z"/>
		<path class="st1" d="M250.7,156c-0.7,0-1.4,0.6-1.4,1.3c0,0.4,0.1,0.7,0.4,1c0.3,0.3,0.6,0.4,0.9,0.4c0.7,0,1.4-0.6,1.4-1.3
			c0-0.4-0.1-0.7-0.4-1C251.4,156.1,251,156,250.7,156z"/>
		<path class="st1" d="M241.7,160.3c-0.7,0-1.4,0.6-1.4,1.3c0,0.4,0.1,0.7,0.4,1c0.3,0.3,0.6,0.4,0.9,0.4c0.7,0,1.4-0.6,1.4-1.3
			c0-0.4-0.1-0.7-0.4-1C242.4,160.5,242.1,160.3,241.7,160.3z"/>
		<path class="st1" d="M249.3,159.3c-0.7,0-1.4,0.6-1.4,1.3c0,0.4,0.1,0.7,0.4,1c0.3,0.3,0.6,0.4,0.9,0.4c0.7,0,1.4-0.6,1.4-1.3
			c0-0.4-0.1-0.7-0.4-1C250,159.4,249.6,159.3,249.3,159.3z"/>
		<path class="st1" d="M234.3,161c-0.7,0-1.4,0.6-1.4,1.3c0,0.4,0.1,0.7,0.4,1c0.3,0.3,0.6,0.4,0.9,0.4c0.7,0,1.4-0.6,1.4-1.3
			c0-0.4-0.1-0.7-0.4-1C235,161.1,234.7,161,234.3,161z"/>
		<path class="st1" d="M219.8,162.4c-0.7,0-1.4,0.6-1.4,1.3c0,0.4,0.1,0.7,0.4,1c0.3,0.3,0.6,0.4,0.9,0.4c0.7,0,1.4-0.6,1.4-1.3
			c0-0.4-0.1-0.7-0.4-1C220.5,162.6,220.1,162.4,219.8,162.4z"/>
		<path class="st1" d="M228.9,157.5c-0.7,0-1.4,0.6-1.4,1.3c0,0.4,0.1,0.7,0.4,1c0.3,0.3,0.6,0.4,0.9,0.4c0.7,0,1.4-0.6,1.4-1.3
			c0-0.4-0.1-0.7-0.4-1C229.6,157.7,229.3,157.5,228.9,157.5z"/>
		<path class="st1" d="M212.5,160.7c-0.7,0-1.4,0.6-1.4,1.3c0,0.4,0.1,0.7,0.4,1c0.3,0.3,0.6,0.4,0.9,0.4c0.7,0,1.4-0.6,1.4-1.3
			c0-0.4-0.1-0.7-0.4-1C213.2,160.8,212.8,160.7,212.5,160.7z"/>
		<path class="st1" d="M204.7,159.8c-0.7,0-1.4,0.6-1.4,1.3c0,0.4,0.1,0.7,0.4,1c0.3,0.3,0.6,0.4,0.9,0.4c0.7,0,1.4-0.6,1.4-1.3
			c0-0.4-0.1-0.7-0.4-1C205.4,159.9,205,159.8,204.7,159.8z"/>
		<path class="st1" d="M194.8,156.8c-0.7,0-1.4,0.6-1.4,1.3c0,0.4,0.1,0.7,0.4,1c0.3,0.3,0.6,0.4,0.9,0.4c0.7,0,1.4-0.6,1.4-1.3
			c0-0.4-0.1-0.7-0.4-1C195.5,156.9,195.2,156.8,194.8,156.8z"/>
		<path class="st1" d="M215.2,153.1c-0.7,0-1.4,0.6-1.4,1.3c0,0.4,0.1,0.7,0.4,1c0.3,0.3,0.6,0.4,0.9,0.4c0.7,0,1.4-0.6,1.4-1.3
			c0-0.4-0.1-0.7-0.4-1C215.9,153.3,215.6,153.1,215.2,153.1z"/>
		<path class="st1" d="M234.7,152.3c-0.7,0-1.4,0.6-1.4,1.3c0,0.4,0.1,0.7,0.4,1c0.3,0.3,0.6,0.4,0.9,0.4c0.7,0,1.4-0.6,1.4-1.3
			c0-0.4-0.1-0.7-0.4-1C235.4,152.4,235.1,152.3,234.7,152.3z"/>
		<path class="st1" d="M244.4,146.6c-0.4-0.2-0.9-0.2-1.4,0.1c-0.8,0.5-0.8,1.3-0.5,1.8c0.2,0.4,0.7,0.7,1.1,0.7
			c0.2,0,0.4-0.1,0.7-0.2c0.5-0.2,0.7-0.6,0.8-1.1C245.1,147.4,244.8,146.9,244.4,146.6L244.4,146.6z"/>
	</g>
</g>
</svg>
