<svg xmlns="http://www.w3.org/2000/svg" width="175.28" height="175.28" viewBox="0 0 175.28 175.28">
  <g id="Layer_2" data-name="Layer 2">
    <g id="Vector_layer" data-name="Vector layer">
      <g>
        <circle cx="87.64" cy="87.64" r="87.64" fill="#98d7c3"/>
        <g>
          <path d="M107.55,83.28l-.14-.08a4.6,4.6,0,0,1-1.43-.59,1.52,1.52,0,0,1-.11-2.37,1.47,1.47,0,0,1,.92-.36,2.15,2.15,0,0,1,.44-.81,7.6,7.6,0,0,1,1.6-1.33,11.19,11.19,0,0,1,2.08-1.1,5.09,5.09,0,0,1,3.46-.44,5.75,5.75,0,0,1,1.32.64,3,3,0,0,1,1.5,2.14,3.76,3.76,0,0,1-.14,1.45,3.85,3.85,0,0,1-.53,1.44,2.54,2.54,0,0,1-1.16.91,5.18,5.18,0,0,1-.56.17c-.57.14-1.13.25-1.7.34a15.76,15.76,0,0,1-3.63.22,3.71,3.71,0,0,1-.67.06A2.61,2.61,0,0,1,107.55,83.28Z" fill="#98d7c3"/>
          <path d="M101.84,81.16a2.27,2.27,0,0,1,0,.69,1.74,1.74,0,0,1-.8,1.29,5.14,5.14,0,0,1-2.13.4,54.74,54.74,0,0,1-5.87-.06c-1.45,0-2.91-.08-4.35,0l-4.56.2c-3.1.12-6.2.3-9.3.46-2.75.14-5.49.14-8.24.14-1.12,0-2.22,0-3.34.08l-.67,0a2.75,2.75,0,0,1-2-.65,4.69,4.69,0,0,1-.75-1.07c-.28-.51-.58-1-.84-1.54a10.71,10.71,0,0,1-1-3.57l-.18-1.61c-.07-.53-.14-1.07-.16-1.61A8,8,0,0,1,58.33,71a34.29,34.29,0,0,1,2.24-3.79c.26-.42.48-.85.74-1.27a7.9,7.9,0,0,1,.61-.79,1.41,1.41,0,0,1,.56-1.21l-.06,0,.12-.08a1.18,1.18,0,0,1,.19-.11l-.07,0a3.29,3.29,0,0,1,1.62-.23c.79,0,1.56,0,2.34-.09,1.21-.14,2.4-.42,3.59-.68s2.27-.43,3.39-.69,2.11-.6,3.16-.91c1.22-.35,2.45-.7,3.69-1,1.45-.35,2.91-.67,4.36-1,1-.26,2-.56,3-.89.81-.26,1.62-.5,2.41-.81.22-.09.43-.2.65-.31a12.38,12.38,0,0,1,1.36-.69,2.61,2.61,0,0,1,2.2-.09A4.78,4.78,0,0,1,96.28,59c.39.91.8,1.8,1.14,2.73s.6,1.78.93,2.65c.26.65.55,1.29.79,1.94a18.21,18.21,0,0,1,.69,2.25c.29,1.31.44,2.64.68,4s.56,2.62.77,3.94c.16,1,.18,1.9.27,2.84a18,18,0,0,0,.28,1.79A0,0,0,0,0,101.84,81.16Z" fill="#98d7c3"/>
          <path d="M59.43,77.41a2,2,0,0,1-1.8-1.06,4.48,4.48,0,0,1-.19-2.41,17.17,17.17,0,0,1,.36-2,20,20,0,0,1,.53-2,8.19,8.19,0,0,1,.79-1.79c.28-.46.59-.92.87-1.39a13.19,13.19,0,0,1,1.56-2.47,3.47,3.47,0,0,1,1-.71,4.47,4.47,0,0,1,1.81-.36c1.16-.07,2.33-.09,3.49-.19h.06c1-.11,2-.25,3-.35.73-.07,1.47-.09,2.2-.16h0c.18,0,.35,0,.53-.06h.23v0h0a1.41,1.41,0,0,1,2.78.22,5.62,5.62,0,0,1,0,.71,8.19,8.19,0,0,1-.38,2.45,10.13,10.13,0,0,1-.78,1.87,15.13,15.13,0,0,1-1.18,1.77A18.53,18.53,0,0,1,71,72.65a23.18,23.18,0,0,1-4.15,2.54,29,29,0,0,1-3.95,1.51c-.52.16-1,.3-1.57.43l.07,0a8.1,8.1,0,0,1-1.89.3Z" fill="#6dbda9"/>
          <path d="M64.19,83.39l-.59-.06a1.3,1.3,0,0,1-.68.1c-.58-.08-1.15-.09-1.73-.13a2.36,2.36,0,0,1-1.38-.49,1.55,1.55,0,0,1-.47-1.4,1.52,1.52,0,0,1,0-1.72,2.32,2.32,0,0,1,2-.73,13.26,13.26,0,0,1,2.09.13,4,4,0,0,1,2.68,1.46,1.87,1.87,0,0,1,.35,2.06,1.59,1.59,0,0,1-1.19.83l-.27,0A6.71,6.71,0,0,1,64.19,83.39Z" fill="#6dbda9"/>
          <path d="M88.09,68.11a16.53,16.53,0,0,1-3.24-1A14.13,14.13,0,0,1,81.36,65,6.32,6.32,0,0,1,80,63.17,1.71,1.71,0,0,1,79.74,62a1.48,1.48,0,0,1,1.17-1.1,1.5,1.5,0,0,1,1.26.38,2.51,2.51,0,0,1,.83-.68,6.38,6.38,0,0,1,.9-.38c1.17-.45,2.36-.82,3.56-1.18,1.42-.43,2.84-.89,4.28-1.28a6.25,6.25,0,0,1,2.93-.39,2.81,2.81,0,0,1,1.56,1.32A35.74,35.74,0,0,1,98.35,62a12.29,12.29,0,0,1,1,2.14,2.71,2.71,0,0,1,.11,1.71A2.55,2.55,0,0,1,98.34,67a6.55,6.55,0,0,1-.78.44,8.35,8.35,0,0,1-2.07.67c-.5.09-1,.14-1.53.19-.68.08-1.35.14-2,.17H91.5A15.58,15.58,0,0,1,88.09,68.11Z" fill="#6dbda9"/>
          <path d="M79.82,71.87a1.9,1.9,0,0,1-1.48-.94,2,2,0,0,1,0-2,2.7,2.7,0,0,1,1.76-1.27,2,2,0,0,1,2,.56,1.85,1.85,0,0,1,.23,1.87l-.06.13a.56.56,0,0,1,0,.12,2.32,2.32,0,0,1-.82,1.06,2.4,2.4,0,0,1-1.5.48Z" fill="#6dbda9"/>
          <rect x="121.36" y="78.1" width="5.46" height="5.46" fill="#cc4f32"/>
          <path d="M26.47,119.83A1.48,1.48,0,0,1,25,118.36c0-2.74.13-5.47.08-8.2-.05-2.94-.16-5.88-.17-8.81s0-6,.06-8.94.11-6,.19-8.93a13.61,13.61,0,0,1,.11-2,1.58,1.58,0,0,1,.58-1,1.44,1.44,0,0,1,1.6-.1,1.46,1.46,0,0,1,.7,1.05,1.6,1.6,0,0,1-.05.57v0C28,83.35,28,84.74,28,86.12s-.1,3-.12,4.48,0,3,0,4.5-.05,3,0,4.45,0,3,0,4.45.08,3,.11,4.46c.07,2.77.05,5.52,0,8.28l0,1.65a1.48,1.48,0,0,1-1.47,1.44Z" fill="#110802"/>
          <path d="M46,142.84a2.81,2.81,0,0,1-.48-.35c-1.71-1.5-3.26-3.17-4.82-4.83l-3-3.19c-1-1.08-2.08-2.12-3.12-3.17a76.74,76.74,0,0,1-5.85-6.51,39.33,39.33,0,0,1-2.5-3.52,7.64,7.64,0,0,1-.69-1.37c-.08-.24-.17-.46-.23-.71v0a1.43,1.43,0,0,1,1-1.73,1.4,1.4,0,0,1,1.5.53v0a4.28,4.28,0,0,1,.49,1.09c.25.47.54.91.83,1.35a48.33,48.33,0,0,0,3.4,4.38l.27.3-.13-.14.35.4-.12-.14c2,2.27,4.18,4.35,6.31,6.49s3.89,4.11,5.86,6.14l1.57,1.59c.36.36.75.69,1.08,1.06l0,0,.05.05,0,0s0,0,0,.05,0,0,0,0a1.51,1.51,0,0,1,.07,1.89,1.53,1.53,0,0,1-1.18.57A1.35,1.35,0,0,1,46,142.84Z" fill="#110802"/>
          <path d="M57.67,143.35c-1.42,0-2.84,0-4.26,0s-2.8,0-4.2,0c-.61,0-1.21,0-1.82,0a8.43,8.43,0,0,1-.87,0,1.41,1.41,0,0,1,.22-2.81c.85,0,1.7,0,2.56,0,1.41,0,2.82,0,4.23,0s2.81,0,4.22,0,2.92-.05,4.37-.11c2.84-.12,5.68-.11,8.52-.08,1.52,0,3,.06,4.57.06s2.81-.05,4.21-.12l.61,0,.34,0,4-.26c.37,0,.74,0,1.1-.06,3-.19,6.11-.31,9.17-.46s6.06-.32,9.09-.44,6-.3,9-.4,6-.21,9-.36c1.45-.07,2.9-.14,4.36-.19s2.86-.07,4.28-.13c3-.11,5.9-.25,8.84-.36l3.12-.12c.8,0,1.6-.08,2.4-.09a1.46,1.46,0,0,1,.16,2.9c-.49,0-1,0-1.5.07l-1.92.07-4.36.16c-2.92.11-5.83.27-8.75.35-1.43,0-2.86.07-4.29.14l-4.56.21c-3,.13-5.91.22-8.87.34s-6,.28-9,.4-6.14.31-9.22.46l-6.84.34h-.16l-.36,0h-.5l-.15,0,.2,0-4.2.26h0l-.6,0,.19,0c-1.59.1-3.17.16-4.77.16s-3-.05-4.49-.06c-2.9,0-5.8-.06-8.7.08-1.27.06-2.53.11-3.8.11Z" fill="#110802"/>
          <path d="M85.38,142.73h0Z" fill="#110802"/>
          <path d="M145.8,139.73a1.43,1.43,0,0,1-1.29-.88v0a1.89,1.89,0,0,1-.09-.34.14.14,0,0,1,0,.06.77.77,0,0,1,0-.15v.08s0-.09,0-.14a4,4,0,0,1,0-.84c.09-.81.17-1.61.24-2.43v0c.22-3,.27-5.93.59-8.87s.62-5.9,1-8.84c.26-2.07.45-4.14.61-6.22v.2l0-.35v.19c.11-1.44.19-2.88.26-4.32s.08-2.81.08-4.22,0-2.77,0-4.16c0-1.18.06-2.36.05-3.55a22.59,22.59,0,0,1,.07-3.08,1.47,1.47,0,0,1,2.91,0c0,.6,0,1.2,0,1.8,0,.88,0,1.77,0,2.66,0,1.3-.07,2.62-.1,3.93s0,2.8,0,4.21-.1,2.86-.19,4.29-.21,3-.35,4.51-.27,2.91-.46,4.36-.39,3-.55,4.43c-.22,2.09-.49,4.19-.65,6.3v-.19c-.13,1.84-.2,3.68-.33,5.52,0,1-.12,1.91-.23,2.85-.05.55-.14,1.09-.19,1.63a1.77,1.77,0,0,1-.11.6h0a1.45,1.45,0,0,1-1.32.91Z" fill="#110802"/>
          <path d="M60.34,94.71c-1.33,0-2.65,0-4-.14a30.36,30.36,0,0,1-4-.52l-.1,0h0A1.43,1.43,0,0,1,51.9,94l0,0a1.41,1.41,0,0,1-1-1.37,1.36,1.36,0,0,1,.61-1.14l-.06,0a1.22,1.22,0,0,1,.42-.22l.07,0,0,0a2.46,2.46,0,0,1,1.23,0h0A23.14,23.14,0,0,0,56,91.7c1.5.1,3,.16,4.49.16s3,0,4.5,0,2.94,0,4.41-.08,3-.13,4.53-.18c2.93-.11,5.85-.2,8.79-.23s5.67-.1,8.5-.17,5.93-.19,8.89-.21h4.36c1.4,0,2.79-.07,4.18-.11,3-.08,5.93-.2,8.9-.17,1.48,0,3,.07,4.46,0s2.81-.06,4.21-.07,2.89,0,4.33,0,2.8,0,4.21,0c2.71-.06,5.42-.07,8.13-.21l.48,0a45.06,45.06,0,0,1,4.64-.24,1.43,1.43,0,0,1,.17,2.84l-.52,0c-.52,0-1,0-1.56.08-1,.07-2,.15-3,.2-1.31.07-2.61.11-3.92.13s-2.78,0-4.18.08-2.79,0-4.19,0c-2.81,0-5.61,0-8.42.06-1.37,0-2.73,0-4.1,0-1.63,0-3.25,0-4.88,0-2.88.08-5.76.18-8.64.25-1,0-2,0-2.94,0h-1.47c-1.46,0-2.91,0-4.37.08-2.9.06-5.79.15-8.68.2-1.41,0-2.82.08-4.23.09l-4.49.07c-3,.07-5.94.21-8.92.32s-5.91.12-8.86.15Z" fill="#110802"/>
          <path d="M46.84,142.56a1.47,1.47,0,0,1-1.42-1.26,8,8,0,0,1-.07-1.1c0-.55,0-1.1,0-1.65,0-1.28,0-2.56.07-3.83.09-2.67.19-5.34.22-8s.14-5.58.21-8.36c0-1.45.09-2.91.12-4.36s0-2.87,0-4.32,0-2.73,0-4.09,0-2.67,0-4,.12-2.87.19-4.31c0-.66.07-1.32.11-2,0-.45.06-.9.07-1.35a1.38,1.38,0,0,1,.28-1.58l.15-.13,0,0,.07,0h0l.08,0h0a1.46,1.46,0,0,1,2.12.68,3.91,3.91,0,0,1,.13,1.8c-.07,1.41-.15,2.82-.22,4.22s-.12,2.79-.13,4.19,0,2.8,0,4.2c0,2.87,0,5.73-.09,8.6s-.15,5.65-.21,8.48-.08,5.42-.17,8.13c-.09,2.51-.14,5-.13,7.53a7.82,7.82,0,0,1,0,1.37,1.46,1.46,0,0,1-1.43,1.24Z" fill="#110802"/>
          <path d="M47.4,93.63a1.41,1.41,0,0,1,1-2.26h-.08l-.16,0a11.68,11.68,0,0,1,1.67-.3,18,18,0,0,1,2.31-.17,1.42,1.42,0,0,1,1.4,1.43,1.45,1.45,0,0,1-1.43,1.41h-.4a24.34,24.34,0,0,0-2.69.31l-.32.07a.75.75,0,0,1-.21,0A1.45,1.45,0,0,1,47.4,93.63Z" fill="#110802"/>
          <path d="M48.33,95c-.56-.43-1.08-.89-1.64-1.32-1-.79-2-1.58-3.1-2.34-2.34-1.7-4.61-3.5-6.91-5.25-1.42-1.08-2.8-2.21-4.22-3.3-.71-.53-1.42-1.07-2.11-1.62a3,3,0,0,1-1.24-1.63s0,0,0,.06a.29.29,0,0,1,0-.09.29.29,0,0,1,0-.09s0,0,0,.06a1.42,1.42,0,0,1,2.62-1l0,0,0,0c1.1,1,2.3,1.79,3.44,2.68s2.39,1.9,3.61,2.82c2.27,1.72,4.52,3.45,6.83,5.12,1,.72,2,1.46,3,2.2a14.85,14.85,0,0,1,1.68,1.38,1.5,1.5,0,0,1,.12,2,1.48,1.48,0,0,1-1.17.56A1.5,1.5,0,0,1,48.33,95Z" fill="#110802"/>
          <path d="M26.71,83.26a1.43,1.43,0,0,1-1.4-1.43c0-1,.06-2,.1-2.93,0-.37,0-.75.05-1.12a2.79,2.79,0,0,1,.07-.58,1.41,1.41,0,0,1,2.73.06v0a.29.29,0,0,0,0,.09s0,.07,0,.1a.06.06,0,0,0,0,0,2.16,2.16,0,0,1,0,.44c0,.37,0,.75-.05,1.12,0,1-.08,1.95-.11,2.93a1.43,1.43,0,0,1-1.42,1.4Z" fill="#110802"/>
          <path d="M29,80.36c-.21-.17-.41-.35-.61-.53l-.2-.18,0,0c-.22-.19-.43-.36-.66-.54a1.39,1.39,0,0,1-.84.28A1.41,1.41,0,0,1,25.31,78a3.78,3.78,0,0,1,.21-1.16,1.71,1.71,0,0,1,.9-.93A1.78,1.78,0,0,1,27.9,76,13.62,13.62,0,0,1,31,78.35a1.42,1.42,0,1,1-2,2Z" fill="#110802"/>
          <path d="M51.07,85.33q-1,0-2-.09a5.7,5.7,0,0,1-1.42-.18,2.63,2.63,0,0,1-.93-.57c-.14-.13-.27-.28-.4-.41-.29-.23-.59-.46-.9-.67a1.58,1.58,0,0,0-.24-.15,1.4,1.4,0,0,1-.93-1.15,1.44,1.44,0,0,1,.86-1.49,1.53,1.53,0,0,1,1.17,0,5.27,5.27,0,0,1,1,.61l.69.53a5.69,5.69,0,0,1,.63.57l.25,0h-.12c2,.15,4.09.21,6.13.19,2.26,0,4.51-.07,6.76-.2,1.3-.08,2.58-.14,3.87-.17s2.73,0,4.09,0,2.72,0,4.09,0l3.77,0c1.42,0,2.84,0,4.26,0s2.83.06,4.25.07,2.87,0,4.3-.06,3,0,4.49,0c2.9,0,5.8,0,8.7,0,1.41,0,2.81,0,4.22,0s3-.1,4.49-.16c2.79-.1,5.59-.24,8.38-.3,1.3,0,2.6,0,3.91,0h.23a1.51,1.51,0,0,1,.42-.89,1.5,1.5,0,0,1,2.08,0c.19.18.37.37.55.56a6.59,6.59,0,0,1,.63.67,1.69,1.69,0,0,1,.28,1.36,1.48,1.48,0,0,1-.9,1,3.73,3.73,0,0,1-1.29.13q-3.51,0-7,.06c-2.82.08-5.63.22-8.45.33-1.48,0-3,.12-4.44.12l-4.27,0c-2.88,0-5.77,0-8.65,0s-5.89.15-8.84.09C82,85,79.26,85,76.5,85H74.68c-.68,0-1.36,0-2,0l-4.23,0c-1.71,0-3.42,0-5.13.11h.19c-2.78.17-5.56.3-8.35.31H54.5C53.36,85.41,52.21,85.39,51.07,85.33Z" fill="#110802"/>
          <path d="M50,84.48A1.48,1.48,0,0,1,48.59,83c-.05-1.08-.09-2.16-.15-3.25,0-.1,0-.2,0-.31-.17-2.74-.45-5.48-.59-8.22-.16-3.06-.16-6.12-.22-9.18,0-1.48-.09-3-.08-4.44s.06-2.94.07-4.41c0-3.08-.05-6.16,0-9.24q0-2.46.09-4.92c0-.77,0-1.54.06-2.31a9.29,9.29,0,0,1,.09-1.28h0v-.06a1.42,1.42,0,0,1,1.6-1.2,1.49,1.49,0,0,1,.92.54,1.5,1.5,0,0,1,.28,1v-.07s0,0,0,0c0,.3,0,.59,0,.88,0,.75,0,1.51-.07,2.27,0,1.52-.07,3-.09,4.57,0,3.06,0,6.12,0,9.18,0,1.48,0,2.94-.06,4.41s0,3,.06,4.44c.08,3.07.07,6.13.22,9.2l0,.71c.12,2,.3,4.07.49,6.1.1,1.12.15,2.26.22,3.39,0,.76.09,1.52.07,2.28a1.5,1.5,0,0,1-1.47,1.45Z" fill="#110802"/>
          <path d="M121.65,83a1.46,1.46,0,0,1-1.42-1.26c-.06-.68-.06-1.36-.09-2-.06-1.2-.13-2.39-.18-3.6-.06-1.5-.13-3-.22-4.51v-.09a.22.22,0,0,0,0-.08v-.2L119.54,68l0-.45c-.09-1.42-.18-2.85-.24-4.27s-.11-3-.17-4.56c-.11-3.05-.14-6.1-.12-9.16,0-2.5.07-5,.09-7.51,0-1.3,0-2.6,0-3.9a23.22,23.22,0,0,1,0-2.36,1.41,1.41,0,0,1,2.82,0c0,.29,0,.58,0,.86,0,.7,0,1.39,0,2.09,0,1.52,0,3,0,4.57,0,3-.09,6.08-.08,9.12,0,2.16.08,4.33.16,6.5s.16,4.3.29,6.44c0,1,.12,1.93.17,2.9,0,.11,0,.22,0,.32v-.2l0,.49c0,.13,0,.26,0,.39s0,.14,0,.21,0,.33,0,.5c0,.35,0,.71.06,1.06,0,.08,0,.15,0,.23h0a1.24,1.24,0,0,1,0,.18v.14c.16,2.75.26,5.51.41,8.27,0,.08,0,.17,0,.25a8.88,8.88,0,0,1,0,1.63A1.45,1.45,0,0,1,121.66,83Z" fill="#110802"/>
          <path d="M48.44,36.37a1.43,1.43,0,0,1-.74-1.85c.46-1.05,1.84-1.08,2.82-1.17,1.24-.13,2.5-.17,3.75-.22s2.51,0,3.77-.05,2.43-.08,3.64-.14H61.6c1.5-.09,3-.2,4.5-.28l4.56-.18c3-.13,6.11-.27,9.17-.3s6.24-.15,9.35-.2,6.07-.07,9.1,0c5.8.18,11.58.53,17.36.94l.62.05-.19,0a29,29,0,0,1,5,.65,1.44,1.44,0,1,1-.78,2.78l-.53-.13a28.75,28.75,0,0,0-3.6-.42h0l-.24,0h-.13c-2.75-.2-5.5-.39-8.26-.53-2.91-.16-5.83-.33-8.74-.4s-6-.1-9.07,0-6.18.17-9.27.2c-2.62,0-5.23.1-7.85.21-2.47.11-5,.19-7.42.32-2.12.13-4.24.29-6.36.34s-4.34.05-6.51.15c-.86.06-1.73.11-2.57.25l-.12,0a1.44,1.44,0,0,1-.64.16A1.37,1.37,0,0,1,48.44,36.37Z" fill="#110802"/>
          <path d="M116.17,35.85Z" fill="#110802"/>
          <path d="M89.77,51.62a1.44,1.44,0,0,1,.77-1.87c1.27-.48,2.54-1,3.77-1.55.53-.27,1-.55,1.54-.85.21-.16.42-.32.62-.49a6.25,6.25,0,0,0,.44-.45c.15-.18.29-.35.43-.54l.1-.17c0-.09.08-.18.11-.27s.06-.2.08-.3.06-.35.08-.54,0-.46,0-.69c0-.08,0-.16,0-.25s0-.21-.08-.31-.13-.35-.21-.53-.12-.22-.19-.33-.16-.23-.25-.34l-.41-.41c-.26-.22-.52-.43-.79-.63a2.48,2.48,0,0,0-.31-.18c-.24-.12-.48-.22-.73-.32l-1.1-.31A12.46,12.46,0,0,0,92,40.1c-.69,0-1.4,0-2.09,0-.24,0-.48,0-.71.08-.49.12-1,.26-1.45.42a16.12,16.12,0,0,0-1.77.74l.12-.06-.14.07h0a53,53,0,0,0-4.78,2.82h0l0,0h0C79.91,45,78.7,46,77.44,46.79a15.72,15.72,0,0,1-2.22,1.27,11.79,11.79,0,0,1-1.63.6h0a1.86,1.86,0,0,1-.72.31,1.42,1.42,0,0,1-1.58-1.23,1.4,1.4,0,0,1,1-1.51l-.11,0h0l-.17.09-.14.09h0l-.13.12a2.77,2.77,0,0,1,.72-.51,6.5,6.5,0,0,1,.85-.28c.38-.14.74-.31,1.1-.48l-.06,0,.09,0,0,0h0a14.8,14.8,0,0,0,1.42-.85l-.16.11C76.8,43.76,77.87,43,79,42.19s2.41-1.57,3.65-2.29A22.71,22.71,0,0,1,86.4,38c.69-.24,1.38-.46,2.1-.64a9.61,9.61,0,0,1,2.39-.19c.49,0,1,0,1.48.05h0a11.61,11.61,0,0,1,3.82.82,8.14,8.14,0,0,1,3.41,2.68,6.3,6.3,0,0,1,.89,1.89,6.17,6.17,0,0,1,.19,2.18,5.92,5.92,0,0,1-.73,2.53,8.07,8.07,0,0,1-1.9,2.1,13.25,13.25,0,0,1-3,1.7c-1.09.49-2.23.89-3.37,1.28a1.49,1.49,0,0,1-.55.1A1.39,1.39,0,0,1,89.77,51.62Z" fill="#110802"/>
          <path d="M81.16,44.17h0Z" fill="#110802"/>
          <path d="M60.05,61.29a14.34,14.34,0,0,1-4.2-1.45,10.2,10.2,0,0,1-2-1.24,6.25,6.25,0,0,1-1.07-1.11A5.45,5.45,0,0,1,52,55.9a7.81,7.81,0,0,1,.36-5,11.23,11.23,0,0,1,1-1.86,15.28,15.28,0,0,1,1.28-1.79,11.13,11.13,0,0,1,3.65-2.69,27.79,27.79,0,0,1,4-1.5,18.17,18.17,0,0,1,4.14-.74,46,46,0,0,1,6.32.08,27.45,27.45,0,0,1,3.27.34,2.78,2.78,0,0,1,1.3.51,1.62,1.62,0,0,1,.59.86l0-.06a1.38,1.38,0,0,1-.47,1.55,1.46,1.46,0,0,1-1.68.05h0a22.63,22.63,0,0,0-2.46-.3,53,53,0,0,0-6.3-.15c-.11,0-.23,0-.35,0a19.72,19.72,0,0,0-2.18.31c-.87.2-1.71.45-2.55.73-.63.24-1.27.48-1.88.77l-.39.19c-.39.2-.78.43-1.16.67s-.69.52-1,.8l-.42.42c-.23.28-.45.56-.66.85s-.51.81-.74,1.23-.32.68-.45,1h0c-.08.25-.15.5-.22.75s0,.37-.07.54a8.42,8.42,0,0,0,0,.87c0,.12,0,.23,0,.35s.07.23.1.34a1.08,1.08,0,0,1,.08.19c.1.17.2.34.31.5l.09.12c.08.08.16.17.25.25l.43.34a12.1,12.1,0,0,0,1.1.64,18.92,18.92,0,0,0,1.91.82,10.42,10.42,0,0,0,1.21.35,9.83,9.83,0,0,0,1.07.15c.33,0,.67,0,1,0,.71,0,1.41-.11,2.12-.18a1.44,1.44,0,0,1,.36,2.86l-2.25.27c-.32,0-.63,0-.94,0A9.84,9.84,0,0,1,60.05,61.29Z" fill="#110802"/>
          <path d="M64.34,64.51A7,7,0,0,1,61.6,64a2.62,2.62,0,0,1-1.2-1.58c-.13-.38-.19-.78-.29-1.18a1.42,1.42,0,0,1-.23-1.48h0a1.45,1.45,0,0,1,1.36-.87A1.63,1.63,0,0,1,62.7,60a11.74,11.74,0,0,1,.43,1.51l.83.09h0a28.69,28.69,0,0,0,3.21,0A89,89,0,0,0,77.79,60h0l.17,0h0a46,46,0,0,0,5.51-1.44h0l.13,0,0,0h0l.08,0a59.56,59.56,0,0,0,7.26-3l0,0c.42-.21.85-.42,1.25-.67-.13-.52-.31-1-.48-1.53-.25-.76-.5-1.51-.74-2.27a1.46,1.46,0,0,1,.85-1.73,1.47,1.47,0,0,1,1.91.79c.42,1.07.8,2.16,1.14,3.26.28.89.64,2,.07,2.85a7.47,7.47,0,0,1-3.09,2.1h0a59.59,59.59,0,0,1-7.32,3h0l-.06,0h0c-1.37.47-2.77.85-4.17,1.18s-2.93.61-4.39.88a65.62,65.62,0,0,1-9,1.2l-.86,0C65.44,64.57,64.88,64.54,64.34,64.51Z" fill="#110802"/>
          <path d="M58.6,82.62a9.89,9.89,0,0,1-1.14-2.36,18.31,18.31,0,0,1-1-3.83,19,19,0,0,1,0-3.62,15.51,15.51,0,0,1,.81-3.63A18,18,0,0,1,60,64a7.07,7.07,0,0,1,1-1.11,1.68,1.68,0,0,1,1.77-.36A1.48,1.48,0,0,1,63.16,65a1.88,1.88,0,0,1-.45.22c-.27.31-.52.64-.76,1a20.07,20.07,0,0,0-1.17,2c-.25.52-.47,1.06-.67,1.6a17.75,17.75,0,0,0-.55,1.89,13.29,13.29,0,0,0-.2,1.39,21.67,21.67,0,0,0,0,2.28c0,.41.06.83.13,1.24.19.84.46,1.65.73,2.46,0-.06,0-.12-.07-.19.27.79.63,1.54.93,2.31a1.44,1.44,0,0,1-.61,1.8,1.4,1.4,0,0,1-.73.19A1.38,1.38,0,0,1,58.6,82.62Z" fill="#110802"/>
          <path d="M102.16,83.57a1.47,1.47,0,0,1-1.44-1.28c-.09-1.22,0-2.44,0-3.65s-.06-2.65-.13-4a31.75,31.75,0,0,0-.48-3.62c-.21-1-.46-2-.71-3s-.56-2.23-.91-3.33a20,20,0,0,0-.83-2c-.06-.13-.12-.26-.19-.38h0A26.26,26.26,0,0,0,96,60a16.77,16.77,0,0,0-1.29-1.72,4.59,4.59,0,0,0-.37-.39,1.84,1.84,0,0,0-.22-.17l0,0-.36-.15a1.41,1.41,0,0,1,.75-2.7,3.38,3.38,0,0,1,1.67.8,9.9,9.9,0,0,1,1.47,1.63c.44.58.87,1.18,1.25,1.8a25.66,25.66,0,0,1,2,3.87,35.83,35.83,0,0,1,1.33,4.43c.32,1.26.65,2.51.88,3.79.12.65.23,1.29.31,1.95s.11,1.39.15,2.09c.06,1.26.1,2.53.14,3.79a17.93,17.93,0,0,1-.08,3.36,1.47,1.47,0,0,1-1.45,1.26Z" fill="#110802"/>
          <path d="M71.25,80.77a1.42,1.42,0,0,1-.55-1.14,4.11,4.11,0,0,1,1.48-2.35A8.06,8.06,0,0,1,73.8,76a7,7,0,0,1,1.87-.72,11.1,11.1,0,0,1,6.65.29,1.45,1.45,0,0,1,.82,1.72,1.43,1.43,0,0,1-1.76,1A10.12,10.12,0,0,0,80.3,78h0a11.35,11.35,0,0,0-1.15-.16q-.43,0-.87,0a16,16,0,0,0-1.71.22l-.48.13c-.25.09-.5.19-.74.3l-.16.09c-.22.16-.43.33-.63.5a8.41,8.41,0,0,0-.79.79l-.19.24c-.27.41-.51.83-1,.94a2.46,2.46,0,0,1-.37,0A1.42,1.42,0,0,1,71.25,80.77Z" fill="#110802"/>
          <path d="M80.3,78h0Z" fill="#110802"/>
          <path d="M87.67,76.58a2.34,2.34,0,0,1-.72-.9c-.47-1.12.3-2.34,1.1-3.09a7,7,0,0,1,3.18-1.78,5.56,5.56,0,0,1,3,.22,8.8,8.8,0,0,1,2.11,1.09l0,0,1.28.89a1.45,1.45,0,0,1-1.28,2.54,7.37,7.37,0,0,1-1.93-1.09c-.2-.14-.41-.26-.62-.38a4.32,4.32,0,0,0-.45-.19,3.64,3.64,0,0,0-.47-.14l-.37,0h-.33l-.24,0a2.25,2.25,0,0,0-.35.09l-.33.13c-.16.08-.31.17-.46.26s-.4.31-.6.48-.21.2-.31.3a1.48,1.48,0,0,1-.34,1.5,1.43,1.43,0,0,1-1,.41A1.36,1.36,0,0,1,87.67,76.58Z" fill="#110802"/>
          <path d="M104.34,83.91a3.22,3.22,0,0,1-.39-1.75,5.83,5.83,0,0,1,.28-1.66,6.76,6.76,0,0,1,1.11-2.17,4.53,4.53,0,0,1,1.22-1,7,7,0,0,1,1.22-.54h0l.08,0,.07,0h0a8.83,8.83,0,0,1,1.67-.4,7.73,7.73,0,0,1,1.36,0c.54,0,1.06.1,1.59.15a1.41,1.41,0,0,1-.21,2.81l-.55,0h0c-.15,0-.3,0-.45,0h-.23c-.31,0-.62,0-.94,0l-.4,0c-.3.07-.61.15-.92.25l-.56.23a3.38,3.38,0,0,0-.41.24l0,0-.07.07-.25.33-.17.28c-.07.15-.13.3-.19.46s-.14.45-.19.68,0,.25-.06.37a1.41,1.41,0,0,0,0,.2l0,.28,0,.13,0,0v0h0a1.45,1.45,0,0,1-.65,1.66,1.43,1.43,0,0,1-.71.19A1.54,1.54,0,0,1,104.34,83.91Z" fill="#110802"/>
          <path d="M108,78.73a1.42,1.42,0,0,1-1.4-1.42,1.45,1.45,0,0,1,.33-.89c0-.22,0-.44,0-.66,0-.4,0-.8-.06-1.2a5.39,5.39,0,0,1-.5-.33,6.38,6.38,0,0,1-1-.91A7,7,0,0,1,103.9,70a40.79,40.79,0,0,1-.57-7.24c0-1.11,0-2.23,0-3.34a2.79,2.79,0,0,1,.32-1.2,2.16,2.16,0,0,1,1.31-1,9.55,9.55,0,0,1,2.39-.31h-.2c1.24-.07,2.48-.12,3.73-.09.92,0,1.83.1,2.75.12h1.74a2.07,2.07,0,0,1,1.71.69,3.69,3.69,0,0,1,.57,1.84,35.87,35.87,0,0,1,.31,4.14,33.66,33.66,0,0,1,0,3.48,7.15,7.15,0,0,1-1.36,3.42,8.89,8.89,0,0,1-2.62,2.3,10.56,10.56,0,0,1-1.15.63l-.86.42h0c0,.55.08,1.11.12,1.67a8.77,8.77,0,0,1,0,1.45,1.46,1.46,0,0,1-1.45,1.23,1.31,1.31,0,0,1-1-.5,1.71,1.71,0,0,1-1.55,1Zm-.2-19c-.5,0-1,0-1.52.11,0,.74,0,1.48,0,2.21,0,1.37,0,2.74.11,4.11a31.86,31.86,0,0,0,.43,3.38,7.94,7.94,0,0,0,.22.8,4.77,4.77,0,0,0,.22.52,2.28,2.28,0,0,0,.17.3l.2.26a2.67,2.67,0,0,0,.34.33,2.11,2.11,0,0,0,.23.19l.66.43a3.14,3.14,0,0,1,.32.31,2.08,2.08,0,0,1,1.24-1.27c.39-.2.79-.38,1.18-.57l.23-.12-.17.08a9.22,9.22,0,0,0,1.07-.6,12.52,12.52,0,0,0,1-.76,3.76,3.76,0,0,0,.35-.34c.12-.14.23-.29.34-.44s.24-.39.34-.59.14-.31.21-.47l.12-.44a2.76,2.76,0,0,0,.06-.4.13.13,0,0,1,0-.06h0c0-.66,0-1.31,0-2s0-1.6,0-2.4-.11-1.72-.25-2.57h-.42q-.85,0-1.71,0a43.6,43.6,0,0,0-4.85,0h-.06Z" fill="#110802"/>
          <path d="M117.79,84.06a1.48,1.48,0,0,1-1.43-1.47c0-.5,0-1,0-1.5a1.21,1.21,0,0,0,0,.19,11.5,11.5,0,0,0-.15-1.3,4.94,4.94,0,0,0-.13-.52l-.15-.35a5.64,5.64,0,0,0-.31-.53l.1.16a8.58,8.58,0,0,0-.72-1l.12.13-.18-.2.11.14a5.22,5.22,0,0,0-.46-.48c-.2-.17-.4-.33-.61-.48a2,2,0,0,0-.25-.14l-.17-.08-.35-.1-.37,0h-.39a1.37,1.37,0,0,1-.72.2,1.31,1.31,0,0,1-.68-.19.58.58,0,0,1-.17-.11,1.42,1.42,0,0,1-.36-.41,2,2,0,0,1-.15-.37,1.5,1.5,0,0,1,.53-1.54,2.59,2.59,0,0,1,1.41-.42,5.63,5.63,0,0,1,2.37.38,6.72,6.72,0,0,1,2.21,1.57,9.8,9.8,0,0,1,1.46,1.93,6.67,6.67,0,0,1,.77,2.33,12.31,12.31,0,0,1,.13,1.49c0,.41,0,.84,0,1.25a1.48,1.48,0,0,1-1.45,1.44Z" fill="#110802"/>
          <path d="M102.39,83a7.09,7.09,0,0,1,.15-2.34,18,18,0,0,1,1-2.69A8.66,8.66,0,0,1,105,75.5a4.15,4.15,0,0,1,.75-.7,3.37,3.37,0,0,1,.66-.39l.22-.12a1.35,1.35,0,0,1,.93-.05,1.49,1.49,0,0,1,1,.94.43.43,0,0,1,0,0,1.24,1.24,0,0,1,0,.38,1.45,1.45,0,0,1-.19.71,1.56,1.56,0,0,1-.41.44,4.66,4.66,0,0,1-.53.32l-.06,0-.31.32a2.11,2.11,0,0,0-.19.23,5.86,5.86,0,0,0-.3.55,23.13,23.13,0,0,0-1,2.24v0s0,0,0,.07a1,1,0,0,1,0,.1l0,0c-.11.32-.21.64-.29,1a4.61,4.61,0,0,0-.07.5c0,.28,0,.56,0,.84a1.44,1.44,0,0,1-1.25,1.4h-.16A1.44,1.44,0,0,1,102.39,83Z" fill="#110802"/>
          <path d="M108.24,68.52a1.43,1.43,0,0,1-1.39-1.42c0-.86,0-1.72,0-2.57,0-.35,0-.71,0-1.07a.25.25,0,0,1,0-.08v0a1.38,1.38,0,0,1,0-.2l0,.13h0a1.41,1.41,0,0,1,2.8.09,8.38,8.38,0,0,1,0,1.12c0,.86,0,1.71,0,2.56a1.43,1.43,0,0,1-1.41,1.4Z" fill="#110802"/>
          <path d="M110.82,68.81a1.44,1.44,0,0,1-1.4-1.43c0-.89,0-1.78-.06-2.67a1.34,1.34,0,0,0,0,.2c0-.62-.12-1.23-.2-1.84a2.67,2.67,0,0,1,0-.56,1.76,1.76,0,0,1,.07-.41h0a1.43,1.43,0,0,1,1-1h0a1.58,1.58,0,0,1,.38-.05,1.43,1.43,0,0,1,1.2.69l0,.06a.25.25,0,0,0,0,.07s0,0,0,.05a1.44,1.44,0,0,1,.1.37,1.31,1.31,0,0,1,0,.2h0a.49.49,0,0,0,0,.12c.06.54.15,1.09.19,1.64.07,1,.08,2.09.09,3.13a1.43,1.43,0,0,1-1.41,1.4Z" fill="#110802"/>
          <path d="M111.88,65.68c0-.35,0-.71-.07-1.06a3.79,3.79,0,0,1,0-.58,1.41,1.41,0,0,1,2.82,0c0,.33.06.66.08,1v0s0,0,0,.06v0a.13.13,0,0,0,0,.06h0v.14a1.42,1.42,0,0,1-1.22,1.57h-.17A1.42,1.42,0,0,1,111.88,65.68Z" fill="#110802"/>
          <path d="M147.38,93.31c-.51-.38-1-.76-1.53-1.12-.94-.63-1.89-1.23-2.84-1.84-1.21-.79-2.42-1.56-3.65-2.31s-2.28-1.45-3.43-2.16-2.28-1.32-3.42-2c-1.31-.74-2.64-1.46-3.93-2.23S126,80,124.66,79.26l0,0a1.49,1.49,0,0,1-.85-.66,1.41,1.41,0,0,1,0-1.43,1.57,1.57,0,0,1,2.11-.48c.67.34,1.3.77,1.93,1.16,1.22.77,2.44,1.54,3.7,2.24,2.32,1.3,4.68,2.51,6.91,4,1.11.72,2.23,1.4,3.36,2.08s2.25,1.42,3.37,2.15c.91.6,1.85,1.18,2.75,1.8a12,12,0,0,1,1.39,1.07,1.48,1.48,0,0,1,.12,1.92,1.46,1.46,0,0,1-2,.26Z" fill="#110802"/>
          <path d="M33.26,78.82,30,78.69l-1.43-.06a4.21,4.21,0,0,1-1-.1,1.41,1.41,0,0,1,0-2.71l-.15.06a3.46,3.46,0,0,1,1.33-.08l2.08.07c1.43.06,2.86.14,4.29.15S38,76,39.45,76s2.72,0,4.08,0h2.7c.6,0,1.2,0,1.8,0a1.42,1.42,0,0,1,0,2.84c-.82,0-1.66,0-2.48,0-1.28,0-2.56,0-3.84,0-2.05,0-4.1.08-6.15.08C34.77,78.86,34,78.85,33.26,78.82Z" fill="#110802"/>
          <path d="M121.17,77.76s0,0,0,.08a2.22,2.22,0,0,1-.09-.37,1.51,1.51,0,0,1,.1-.73,1.33,1.33,0,0,1,.6-.68,2.63,2.63,0,0,1,1.21-.22,1.45,1.45,0,0,1,1.41,1.44,1.43,1.43,0,0,1-1.44,1.4h-.28l-.19,0A1.44,1.44,0,0,1,121.17,77.76Z" fill="#110802"/>
          <path d="M94.26,103.53c-2.9,0-5.78-.25-8.67-.44s-5.61-.29-8.42-.36-5.84-.13-8.75-.06l-2,.07-1.08.06a8.72,8.72,0,0,1-1,.06h-.25c-1.39.09-2.78.2-4.16.28s-2.81.08-4.21.06l-4.08-.11c-.85,0-1.72,0-2.57-.08a1.41,1.41,0,0,1,.21-2.8c1.51,0,3,.07,4.52.11,2.11,0,4.21.09,6.31,0h-.19l.51,0c1.26-.08,2.53-.19,3.79-.26h.19c2.79-.16,5.58-.24,8.38-.2s5.72.1,8.58.22,5.62.33,8.42.49,5.84.18,8.76.19h4.67a1.41,1.41,0,0,1,1.39,1.42,1.43,1.43,0,0,1-1.42,1.4c-1.77,0-3.55,0-5.33,0Q96,103.56,94.26,103.53Z" fill="#110802"/>
          <path d="M108.57,102.83a1.41,1.41,0,1,1,0-2.82c1.23,0,2.46-.06,3.7-.09,1.46,0,2.93-.07,4.4-.09,2.9,0,5.8-.06,8.7-.11,1.32,0,2.64,0,3.95,0,1.51,0,3,0,4.52,0,1.36,0,2.73-.11,4.1-.18s2.71-.11,4.07-.19c1.66-.11,3.31-.34,5-.43a1.41,1.41,0,0,1,.17,2.81c-.72.06-1.44.14-2.15.22-1.3.14-2.6.23-3.91.3-2.69.13-5.39.27-8.09.31-1.44,0-2.88,0-4.32,0s-2.79,0-4.19,0c-2.93,0-5.87.07-8.8.11-1.31,0-2.63.06-3.93.09-.91,0-1.82.08-2.72.08Z" fill="#110802"/>
          <path d="M25.48,87a1.42,1.42,0,1,1,1.4,1.42A1.43,1.43,0,0,1,25.48,87Z" fill="#110802"/>
          <path d="M46.47,102.31c-.67-.44-1.36-.84-2-1.28-1-.65-2-1.24-3-1.9a38.68,38.68,0,0,1-3.19-2.51,42.49,42.49,0,0,0-3.53-2.87l-.26-.18c-.93-.63-1.88-1.22-2.8-1.85s-1.89-1.33-2.78-2.07-1.6-1.43-2.39-2.16a1.31,1.31,0,0,1-.72-.74,1.43,1.43,0,0,1,.31-1.58A1.51,1.51,0,0,1,27.93,85a7.22,7.22,0,0,1,1.06.92c.36.34.72.66,1.08,1a36.75,36.75,0,0,0,3.37,2.59l-.15-.1c.85.57,1.73,1.12,2.58,1.69a29.38,29.38,0,0,1,2.62,2c.76.66,1.53,1.33,2.32,2s1.47,1.23,2.26,1.76l-.15-.1.28.19-.14-.1C44,97.39,45,98,45.89,98.56c.72.47,1.47.91,2.17,1.41a1.42,1.42,0,0,1,.35,1.84,1.48,1.48,0,0,1-1.25.71A1.17,1.17,0,0,1,46.47,102.31Z" fill="#110802"/>
          <path d="M69.07,137.41,68,137.28c-1.24-.17-2.44-.47-3.68-.59h0c-1.34-.09-2.68-.1-4-.14-.37,0-.74,0-1.11-.07a2,2,0,0,1-1.26-.75,3.56,3.56,0,0,1-.54-1.15c-.34-1.08-.68-2.17-.94-3.27-.32-1.33-.53-2.67-.77-4s-.48-2.62-.65-3.94-.29-2.65-.47-4-.38-2.53-.55-3.79-.37-2.48-.61-3.71a.43.43,0,0,0,0,.05L53,110.05l-.09-.43a1.48,1.48,0,0,1-.54-.65,1.45,1.45,0,0,1,.61-1.81,7.81,7.81,0,0,1,2.19-.54,28.07,28.07,0,0,1,3.15-.44c1.06-.08,2.11-.11,3.17-.12s2.11-.14,2.86.6a2.65,2.65,0,0,1,.64,1.82c0,.4,0,.81,0,1.21v0c.06.92.14,1.84.23,2.76.12,1.26.34,2.51.5,3.76a.13.13,0,0,1,0,.06c.34-1.09.72-2.18,1-3.27.37-1.26.68-2.53,1-3.79a6.78,6.78,0,0,1,.58-1.73,1.77,1.77,0,0,1,1.81-.78,7.06,7.06,0,0,1,.89.19l1.32.31,2.35.48,1.82.4c.43.11.87.2,1.29.34a2,2,0,0,1,1.35,1.36,2.9,2.9,0,0,1-.09,1.46c-.25.92-.61,1.81-.87,2.72-.38,1.27-.71,2.55-1.09,3.81s-.83,2.71-1.27,4.06S75,124.59,74.64,126s-.72,2.78-1,4.18-.63,2.75-1,4.13a11.4,11.4,0,0,1-.61,2,2,2,0,0,1-1.62,1.23l-.36,0C69.71,137.48,69.38,137.44,69.07,137.41ZM56.9,116c.19,1.37.43,2.73.59,4.1s.33,2.9.57,4.34.49,2.76.74,4.14l.15.76c.18.9.41,1.78.67,2.66.16.53.31,1.07.48,1.59a43.72,43.72,0,0,1,6.37.45c1,.2,2,.39,3.06.49.38-1.22.63-2.49.92-3.73.32-1.39.64-2.78,1-4.17.71-2.76,1.64-5.45,2.5-8.17.49-1.58.92-3.17,1.38-4.76.19-.7.42-1.4.65-2.09.07-.19.13-.39.19-.58l-.29-.07-1.68-.37.18,0-.25,0-.15,0h0l-.12,0h0l-2.23-.46-1-.23c-.1.36-.19.71-.28,1.06-.16.62-.33,1.24-.49,1.86-.36,1.37-.81,2.7-1.24,4s-.75,2.7-1.13,4c-.28,1-.54,2-.76,3,0,.14-.07.29-.11.43a1.57,1.57,0,0,1-1.27,1.14,1.49,1.49,0,0,1-1.46-.72,4.15,4.15,0,0,1-.31-1.75c0-.67-.09-1.35-.17-2-.17-1.45-.41-2.9-.6-4.36s-.39-2.65-.51-4c-.1-1-.18-2.09-.24-3.13,0-.14,0-.28,0-.42h-.75c-.58,0-1.15,0-1.73,0h0a27.64,27.64,0,0,0-3.28.36h.05l-.62.11q.26,1.2.48,2.4l0-.19C56.49,113.14,56.69,114.58,56.9,116Z" fill="#110802"/>
          <path d="M64.25,136.68h0Z" fill="#110802"/>
          <path d="M74,110.55h0Z" fill="#110802"/>
          <path d="M84.15,134.27a13.52,13.52,0,0,1-2-.67,9.42,9.42,0,0,1-1.87-1.09A13,13,0,0,1,78.51,131a6.8,6.8,0,0,1-1.33-2.1,11.56,11.56,0,0,1-.61-1.89,9.44,9.44,0,0,1-.18-2.19,24.93,24.93,0,0,1,1.68-8.57c.36-1,.79-2,1.19-2.91s.8-2,1.32-3l.11-.19a1.45,1.45,0,0,1,.4-1.24c.54-.56,1.1-1.11,1.68-1.63a6.38,6.38,0,0,1,4.33-1.71,13.26,13.26,0,0,1,4.09.8,10,10,0,0,1,3.86,2.48,18.17,18.17,0,0,1,2.76,3.77,19.8,19.8,0,0,1,1,1.9,16.18,16.18,0,0,1,.74,2.23,11.82,11.82,0,0,1,.49,4.5c-.09.73-.23,1.46-.39,2.18a17.27,17.27,0,0,1-.62,2.24,11,11,0,0,1-1,2,15.82,15.82,0,0,1-1.31,2,12,12,0,0,1-1.7,1.71,22.74,22.74,0,0,1-1.91,1.35,12.52,12.52,0,0,1-4.45,1.75,7.58,7.58,0,0,1-1.51.14A12.7,12.7,0,0,1,84.15,134.27Zm2.54-25.59-.27,0-.39.11c-.17.06-.33.14-.5.21l-.49.27c-.19.14-.38.28-.56.43s-.5.62-.73.94-.55.89-.8,1.36c-.42.86-.76,1.77-1.13,2.65s-.82,1.95-1.18,2.95a28.31,28.31,0,0,0-.92,3.27,20.39,20.39,0,0,0-.35,2.47,19.46,19.46,0,0,0,0,2.16c0,.23,0,.46.07.69s.14.54.22.8.28.76.45,1.13l.23.39.12.15c.22.25.45.48.68.7a13,13,0,0,0,1.12.83,3.77,3.77,0,0,0,.54.34,9.75,9.75,0,0,0,1,.45.2.2,0,0,1,.08,0c.48.14,1,.27,1.43.38s.93.14,1.4.18c.26,0,.52,0,.79,0s.57-.07.85-.12.6-.15.9-.24.83-.33,1.23-.52.9-.51,1.34-.8l-.16.12c.57-.39,1.13-.79,1.66-1.23.22-.22.45-.45.66-.68s.51-.64.75-1c.34-.53.67-1.08,1-1.64a1.42,1.42,0,0,0-.08.18c.18-.37.35-.75.5-1.15.24-.76.42-1.54.59-2.32a.5.5,0,0,0,0,.12c.11-.58.21-1.16.28-1.76,0-.22,0-.45,0-.67,0-.39-.09-.77-.16-1.14-.17-.79-.37-1.57-.61-2.34-.2-.53-.42-1-.66-1.55a1.51,1.51,0,0,0,.09.18,20.82,20.82,0,0,0-1.16-2c-.39-.56-.79-1.1-1.22-1.61h0a0,0,0,0,1,0,0h0q-.37-.42-.78-.81c-.27-.22-.55-.44-.83-.64s-.4-.24-.61-.35a7.76,7.76,0,0,0-.84-.34,13.38,13.38,0,0,0-1.41-.4,13.13,13.13,0,0,0-1.4-.21l-.48,0Z" fill="#110802"/>
          <path d="M85.45,125.62a5.88,5.88,0,0,1-1.2-.78,3.13,3.13,0,0,1-1-1.55,5.68,5.68,0,0,1-.15-1.88,11.92,11.92,0,0,1,.61-3.4,7.23,7.23,0,0,1,2-3.14,2.84,2.84,0,0,1,2.14-.9,2.22,2.22,0,0,1,.37.09,1.52,1.52,0,0,1,1.56-.29,5.91,5.91,0,0,1,2.63,2.44,5.54,5.54,0,0,1,.66,4.4,9.76,9.76,0,0,1-.73,2,8.19,8.19,0,0,1-1.32,1.92,6.61,6.61,0,0,1-.8.69,4.43,4.43,0,0,1-2,.93,4.55,4.55,0,0,1-.53,0A5,5,0,0,1,85.45,125.62Zm2-2.41.23,0h.09l.1,0,.27-.11a.76.76,0,0,0,.19-.12c.18-.12.34-.25.5-.38l.28-.28.23-.3c.13-.21.25-.42.37-.63s.24-.56.34-.84.13-.42.18-.63.06-.41.08-.62,0-.25,0-.38a2.36,2.36,0,0,1,0-.28l-.06-.22c0-.08-.07-.17-.11-.25s-.18-.32-.28-.48-.32-.43-.49-.63l-.39-.4a1.48,1.48,0,0,1-1.17.28l-.07,0c-.15.15-.3.29-.45.45l-.09.11c-.14.22-.28.45-.4.68l-.17.39,0,.09h0v0a.36.36,0,0,0,0,.09.14.14,0,0,0,0-.06c-.12.38-.21.76-.3,1.15s-.13.75-.17,1.12a8.68,8.68,0,0,0,0,1c0,.15,0,.3.05.44h0l0,0h0l0,0a3.06,3.06,0,0,0,.29.21l-.16-.11.45.26-.06,0,.08,0h0a.05.05,0,0,0,0,0l.39.15-.19-.07Z" fill="#110802"/>
          <path d="M134,133l-1.43,0c-.91,0-1.8-.11-2.71-.18h-.06c-1.31-.09-2.63-.2-3.95-.26-1.11-.05-2.48.07-3.33-.8a3.69,3.69,0,0,1-.68-2.59c0-1,0-1.95,0-2.92.08-1.41.25-2.83.4-4.23s.43-2.88.68-4.32c.13-.73.24-1.46.35-2.19s.26-1.4.4-2.1c.27-1.42.47-2.84.62-4.27.08-.75.12-1.51.24-2.26a1.9,1.9,0,0,1,.69-1.29,2,2,0,0,1,1-.39c.9-.11,1.83-.1,2.73-.12,1.3,0,2.6,0,3.91,0s2.68.1,4,.16,2.8.09,4.2.2h.14a5.9,5.9,0,0,1,.72.09l-.09,0,.09,0,.09,0-.09,0a2.14,2.14,0,0,1,.91.47l-.24-.18-.09,0a1.38,1.38,0,0,1,.77,1.45,1.43,1.43,0,0,1-1.6,1.2h.12a1.88,1.88,0,0,1-.48-.12l-.25,0h.19c-1.19-.09-2.38-.12-3.56-.16l-3.71-.15c-1.21,0-2.42,0-3.63,0-1,0-2,0-3,.08h-.06c0,.43-.06.85-.11,1.27-.07.7-.14,1.39-.23,2.09-.19,1.5-.53,3-.78,4.46-.12.72-.22,1.45-.34,2.18s-.25,1.48-.37,2.23c-.23,1.39-.37,2.78-.5,4.18,0,.47-.09,1-.13,1.43a0,0,0,0,1,0,0s0,0,0,.05v.21a.28.28,0,0,1,0,.09.25.25,0,0,0,0-.08,29.82,29.82,0,0,0,0,3.41l3.2.19c1.13.07,2.27.17,3.4.27h.12c.79.06,1.57.07,2.36.07.57,0,1.14,0,1.71,0a21.22,21.22,0,0,0,2.12-.31,1.47,1.47,0,0,1,.57,2.88c-.67.13-1.34.25-2,.33s-1.22.07-1.83.08Z" fill="#110802"/>
          <path d="M139.43,132.35h-.13a1.48,1.48,0,0,1-1.24-1.67,1.31,1.31,0,0,1,.09-.34c0-.37,0-.75,0-1.13,0-.7.09-1.39.18-2.08a1.48,1.48,0,1,1,2.92.43c0,.31-.07.63-.09,1v0a0,0,0,0,1,0,0v0h0v0a.43.43,0,0,0,0,.05h0c0,.69-.05,1.37-.1,2a2,2,0,0,1-.49,1.26,1.44,1.44,0,0,1-1.11.44Z" fill="#110802"/>
          <path d="M139.76,129.08a1.49,1.49,0,0,1-1.44-1.28,7.09,7.09,0,0,1,.18-2.34h-.78c-.69,0-1.38,0-2.07.07s-1.65.13-2.47.19a8,8,0,0,1-1.1.06,2,2,0,0,1-1.82-1.18,4.87,4.87,0,0,1-.29-2.08,1.76,1.76,0,0,1,1.23-1.85,1.83,1.83,0,0,1,1,0l.4.11h0l.53.07a16.36,16.36,0,0,0,2,0l-.2,0a10.61,10.61,0,0,0,1.12-.11h0c0-.36.06-.73.09-1.09,0,.06,0,.13,0,.19,0-.45.06-.9.07-1.35l-.68-.08c-.64,0-1.29,0-1.94,0-.39,0-.78,0-1.17-.07a2,2,0,0,1-1.55-.89,2.54,2.54,0,0,1-.25-1.42,6.38,6.38,0,0,1,.1-1,2.56,2.56,0,0,1,.51-1.34,2.11,2.11,0,0,1,1.6-.74,27.71,27.71,0,0,1,3.41,0l2,.12c.64,0,1.28.09,1.93.07l.15,0c.07-.16.13-.33.2-.5a4.84,4.84,0,0,0,.14-.51q.06-.33.09-.66c0-.58.06-1.17.08-1.76s.09-1.27.07-1.91a1.46,1.46,0,0,1,.19-1,1.41,1.41,0,0,1,1.62-.65,1.54,1.54,0,0,1,.93.82,1.69,1.69,0,0,1,.13.66c0,.36,0,.72,0,1.07,0,.74,0,1.48-.07,2.22a11.74,11.74,0,0,1-.14,1.55,9,9,0,0,1-.41,1.46,3.92,3.92,0,0,1-.76,1.37,2.6,2.6,0,0,1-1.43.71,8.89,8.89,0,0,1-2.06.08l-.59,0a2.43,2.43,0,0,1,.25.2,2.3,2.3,0,0,1,.64,1.44,13.47,13.47,0,0,1,0,2.2,12.24,12.24,0,0,1-.21,1.81,2.29,2.29,0,0,1-.28.71l.48,0c.36,0,.72,0,1.08.08a1.75,1.75,0,0,1,1.6,1.47,4,4,0,0,1-.19,1.4c-.08.4-.15.8-.21,1.19s-.12.92-.23,1.38a1.48,1.48,0,0,1-1.42,1.07Z" fill="#110802"/>
          <path d="M112.4,132.13l-2.93-.1c-.56,0-1.13,0-1.7-.07a2.41,2.41,0,0,1-1.67-.57,2,2,0,0,1-.49-1.64c0-.2,0-.41.07-.61v0h0v0a.28.28,0,0,0,0-.09v0c0-.71,0-1.42,0-2.12,0-1.39-.08-2.77-.07-4.15s0-2.75.13-4.12.17-2.48.18-3.72c-.82,0-1.65,0-2.47,0s-1.36,0-2,0a6.34,6.34,0,0,1-1.84-.25,2.14,2.14,0,0,1-1.42-1.44A4.47,4.47,0,0,1,98,112c0-.94,0-1.88,0-2.82,0-.7-.06-1.41,0-2.1a1.14,1.14,0,0,1,.07-.32,0,0,0,0,0,0,0,1.46,1.46,0,0,1,1-1.56,8.53,8.53,0,0,1,1.94-.25c1-.08,2-.13,3-.12l3.76,0c1.22,0,2.43.07,3.65.08s2.35,0,3.52-.07,2.57,0,3.84-.12c.62,0,1.23-.09,1.85-.11a3.66,3.66,0,0,1,1.32.12,2,2,0,0,1,1.08.75,2.73,2.73,0,0,1,.44,1.2,11.91,11.91,0,0,1,0,1.58c0,.75-.06,1.5-.11,2.25v-.07c-.07,1.07-.16,2.13-.19,3.2a5.61,5.61,0,0,1-.12,1.24,1.78,1.78,0,0,1-1.43,1.24h0a1,1,0,0,0-.23.06l.09,0-.16,0h0a6.09,6.09,0,0,1-1.21.28,10.88,10.88,0,0,1-1.14.06l-2.08.06c0,.31,0,.62,0,.94,0,1.09-.05,2.19-.08,3.29-.08,2.8-.25,5.6-.55,8.39a5,5,0,0,1-.48,2,2.1,2.1,0,0,1-1.85,1h-.23C113.35,132.19,112.87,132.15,112.4,132.13Zm-9.17-24.3-.73,0-1.65.12q0,.74,0,1.47c0,.8,0,1.61,0,2.41l.16,0c1.33.08,2.67,0,4,.07a8.29,8.29,0,0,1,2.68.27,1.68,1.68,0,0,1,1,.92,3.35,3.35,0,0,1,.19,1.13c0,.7,0,1.39,0,2.09-.06,1.36-.19,2.73-.22,4.1,0,2.08,0,4.17,0,6.25a18.87,18.87,0,0,1,0,2c0,.11,0,.21,0,.32l3.23.12,1.15,0,.38,0c.06-.41.09-.83.12-1.24.06-.68.12-1.35.17-2v.19c.13-1.8.22-3.6.28-5.4,0-.76,0-1.51,0-2.27,0-.54,0-1.08,0-1.62a5.56,5.56,0,0,0-.07-.69,3.24,3.24,0,0,1-.11-.76,1.69,1.69,0,0,1,1-1.49,4.06,4.06,0,0,1,1.67-.23h.29c.89,0,1.8,0,2.69,0,.22,0,.43,0,.64-.08l.12,0c0-.38,0-.77,0-1.15,0-.76.1-1.52.15-2.28s.1-1.65.08-2.47h-.31l-1.68.11h0c-1.4.08-2.79.09-4.19.15s-2.54.08-3.81.06-2.45-.1-3.67-.09H105c-.48,0-1,0-1.44,0Z" fill="#110802"/>
          <path d="M63.94,61.57c-.27,0-.54,0-.81-.08l-.05-.19c.57-.06,1.13-.13,1.69-.21a1.44,1.44,0,1,0-.36-2.85c-.71.06-1.41.13-2.12.17-.33,0-.67,0-1,0s-.71-.09-1.07-.15-.81-.22-1.21-.36c-.65-.24-1.29-.51-1.91-.81-.38-.2-.74-.41-1.1-.64l-.43-.35a3,3,0,0,1-.25-.25l-.09-.12c-.11-.16-.21-.33-.31-.5a1.54,1.54,0,0,0-.08-.19c0-.11-.07-.22-.1-.34s0-.23,0-.34a8.36,8.36,0,0,1,0-.87c0-.18,0-.36.07-.54L55,52.2c.13-.35.29-.69.45-1s.48-.82.74-1.22.43-.58.66-.86l.42-.42c.33-.28.66-.55,1-.8s.77-.46,1.16-.67l.39-.19c.61-.29,1.25-.53,1.88-.77.84-.28,1.68-.53,2.55-.73a19.72,19.72,0,0,1,2.18-.31l.35,0a50.77,50.77,0,0,1,6.29.15l1,.09a8.58,8.58,0,0,1-.83.35,6.5,6.5,0,0,0-.85.28,2.33,2.33,0,0,0-.59.39l0,0,0,0,.14-.09.17-.09.11,0A1.41,1.41,0,0,0,72.87,49a1.75,1.75,0,0,0,.71-.31h0a11.79,11.79,0,0,0,1.63-.6,16.7,16.7,0,0,0,2.22-1.26C78.7,46,79.91,45,81.16,44.17h0A51.93,51.93,0,0,1,86,41.33h0c.58-.28,1.16-.52,1.76-.74s1-.3,1.46-.42c.23,0,.46-.06.7-.08.7,0,1.41,0,2.1,0a10.63,10.63,0,0,1,1.59.2q.57.14,1.11.3c.25.1.49.2.73.32a2.38,2.38,0,0,1,.3.18c.28.2.54.41.8.63s.27.27.4.41l.26.34c.07.11.13.22.19.33l.21.53c0,.1.06.21.08.31a2.42,2.42,0,0,1,0,.25c0,.23,0,.46,0,.69s0,.37-.08.54,0,.2-.08.3-.07.18-.11.27l-.1.17c-.14.19-.28.36-.43.54s-.29.31-.44.45-.41.33-.63.49c-.5.3-1,.58-1.53.85-1.23.56-2.5,1.07-3.77,1.55a1.43,1.43,0,0,0-.77,1.87,1.39,1.39,0,0,0,1.32.87l.3,0c.1.28.19.57.28.85.17.51.35,1,.48,1.54-.4.25-.83.45-1.25.66a58.19,58.19,0,0,1-7.22,3l-.07,0h0l-.13.05A45.66,45.66,0,0,1,77.94,60h0a1,1,0,0,1-.17,0,88,88,0,0,1-10.6,1.6l-1.11,0C65.34,61.65,64.65,61.62,63.94,61.57Z" fill="#fefefe"/>
          <path d="M56,91.69a25.18,25.18,0,0,1-2.88-.36h0a1.35,1.35,0,0,0-.94-.38,18,18,0,0,0-2.31.17,13.36,13.36,0,0,0-1.41.23c-.94-.7-1.86-1.41-2.81-2.1-2.31-1.66-4.56-3.39-6.83-5.12-1.22-.92-2.41-1.88-3.62-2.82S33,79.65,31.92,78.76l1.34.06c.75,0,1.51,0,2.26,0,2,0,4.1-.08,6.15-.08h3.84c.82,0,1.66,0,2.48,0a1.58,1.58,0,0,0,.38,0c0,.23,0,.46.05.69a3,3,0,0,0,0,.31c0,.85.08,1.69.11,2.53a5.68,5.68,0,0,0-.57-.52l-.69-.52a4.4,4.4,0,0,0-1-.61,1.53,1.53,0,0,0-1.17,0,1.45,1.45,0,0,0-.87,1.49,1.4,1.4,0,0,0,.93,1.14l.25.15c.3.22.61.44.89.68l.41.4a2.52,2.52,0,0,0,.93.58,5.69,5.69,0,0,0,1.42.17c.66,0,1.31.07,2,.1,1.14.06,2.28.07,3.43.07h.63c2.72,0,5.44-.14,8.16-.3C65,85,66.71,85,68.42,85c1.41,0,2.82,0,4.23,0H76.5c2.76,0,5.52,0,8.28.06,3,.07,5.89-.07,8.84-.08s5.77,0,8.65,0l4.27,0c1.49,0,3-.06,4.44-.12,2.82-.1,5.63-.25,8.45-.32q3.51-.09,7-.06a3.74,3.74,0,0,0,1.29-.14,1.49,1.49,0,0,0,.9-1,1.65,1.65,0,0,0-.29-1.36,7.81,7.81,0,0,0-.62-.67l-.43-.45c.42.28.85.55,1.28.81,1.29.78,2.62,1.49,3.93,2.24,1.14.64,2.3,1.26,3.41,2s2.28,1.46,3.44,2.17,2.44,1.52,3.65,2.31l.09.05h-.17c-2.71.15-5.42.16-8.13.22-1.41,0-2.81,0-4.21,0s-2.88,0-4.33,0-2.81,0-4.21.07-3,0-4.46,0c-3,0-5.93.08-8.9.17-1.39,0-2.78.09-4.18.11h-2.29c-.69,0-1.38,0-2.07,0-3,0-5.92.14-8.89.21s-5.67.15-8.5.18-5.86.12-8.79.23c-1.51,0-3,.12-4.53.18s-2.94.07-4.41.08-3,0-4.5,0S57.54,91.8,56,91.69Z" fill="#cc4f32"/>
          <path d="M45.9,98.56C45,98,44,97.4,43.08,96.78h0l-.13-.09c-.74-.51-1.42-1.1-2.12-1.66s-1.55-1.31-2.32-2a29.24,29.24,0,0,0-2.61-2c-.84-.56-1.71-1.1-2.55-1.66l0,0a35.27,35.27,0,0,1-3.21-2.49c-.37-.33-.73-.65-1.08-1a8.77,8.77,0,0,0-1-.86c0-1,0-2,.1-3v0a1.58,1.58,0,0,0,.05-.57s0-.07,0-.1l.06-1.59.15.12.6.54a1.53,1.53,0,0,0,.88.41,5.34,5.34,0,0,0,.5.43c.7.55,1.41,1.08,2.11,1.62,1.42,1.09,2.8,2.21,4.22,3.3,2.3,1.75,4.57,3.55,6.91,5.25.92.67,1.83,1.36,2.74,2.06a1.46,1.46,0,0,0,.12.5c0,.45-.05.91-.07,1.35,0,.67-.07,1.33-.11,2,0,.49-.05,1-.07,1.47A3,3,0,0,1,45.9,98.56Z" fill="#cc4f32"/>
          <path d="M57.75,140.46c-1.41,0-2.81,0-4.22,0s-2.82,0-4.23,0h-1V140c0-2.51,0-5,.12-7.53.09-2.71.12-5.42.18-8.13s.14-5.65.21-8.48.06-5.73.09-8.6c0-1.4,0-2.8,0-4.2h0l.1,0c.85.09,1.71.06,2.57.08,1.35,0,2.72.08,4.08.1s2.8,0,4.2,0,2.78-.19,4.17-.28l.25,0c.33,0,.69,0,1,0l1.09-.06,2-.07c2.91-.07,5.83,0,8.74,0s5.62.18,8.43.37,5.77.39,8.66.44c1.2,0,2.39,0,3.58,0l5.33,0a1.43,1.43,0,0,0,1.42-1.4,1.41,1.41,0,0,0-1.4-1.42H98.52c-2.93,0-5.84,0-8.76-.19s-5.61-.37-8.42-.49-5.72-.18-8.58-.22-5.59,0-8.38.2h-.19c-1.26.07-2.53.17-3.8.25l-.5,0c-2,.1-4.08.06-6.12,0-1.5,0-3,0-4.52-.11l-.24,0q0-.7.06-1.41c0-1.16.12-2.32.18-3.49a1.45,1.45,0,0,0,1.14-.56,1.43,1.43,0,0,0,.31-.9l.83-.07a1.2,1.2,0,0,0,.4.18l0,0,.38.07h.06a28.68,28.68,0,0,0,4,.53c1.32.09,2.65.13,4,.13h.54c3,0,5.92,0,8.87-.14s5.94-.25,8.91-.32c1.5,0,3,0,4.5-.07s2.82-.06,4.23-.09l8.68-.21c1.45,0,2.91-.07,4.37-.07h1.47c1,0,2,0,2.93,0,2.89-.06,5.77-.16,8.65-.24,1.63-.05,3.25,0,4.88,0,1.36,0,2.73,0,4.09,0,2.81,0,5.62-.09,8.43-.07,1.4,0,2.79.06,4.19,0s2.78-.06,4.18-.08,2.61-.06,3.92-.13l3-.2.9,0,.28.22c0,.57,0,1.14,0,1.7,0,1.18,0,2.37-.06,3.55v.39a.74.74,0,0,0-.26,0c-1.67.09-3.32.32-5,.43-1.36.08-2.72.14-4.08.19s-2.73.14-4.1.18-3,0-4.51,0c-1.31,0-2.64,0-4,0-2.89,0-5.79.06-8.69.11q-2.2,0-4.41.09c-1.23,0-2.47.13-3.7.09a1.41,1.41,0,1,0,0,2.82h.5c.91,0,1.81-.06,2.72-.08q2-.06,3.93-.09c2.94,0,5.87-.06,8.81-.11,1.4,0,2.79,0,4.19,0s2.88,0,4.32,0c2.69,0,5.4-.18,8.09-.31,1.31-.07,2.6-.16,3.91-.3.71-.08,1.43-.16,2.14-.22h.07c0,.33,0,.66,0,1,0,1.41,0,2.81-.08,4.22s-.15,2.75-.25,4.13v.15c-.16,2.08-.35,4.15-.62,6.22-.38,2.94-.69,5.89-1,8.84s-.37,5.91-.59,8.87v0c-.05.74-.13,1.48-.22,2.21-.71,0-1.42.06-2.12.09l-3.12.12c-2.95.11-5.9.24-8.84.36-1.43.06-2.86.09-4.28.13s-2.91.12-4.37.19c-3,.14-6,.25-9,.35s-6,.29-9,.41-6,.28-9.08.43-6.12.27-9.17.47l-1.1.06-4,.26-.35,0-.6,0c-1.4.07-2.81.13-4.22.12s-3-.05-4.56-.07c-2.84,0-5.68,0-8.52.09-1.33.05-2.67.11-4,.11ZM68,137.28c.36.05.72.09,1.09.12a7.61,7.61,0,0,0,1,.07h.36A2,2,0,0,0,72,136.22a11.13,11.13,0,0,0,.61-2c.34-1.37.65-2.75,1-4.13s.66-2.79,1-4.17.82-2.74,1.26-4.1.87-2.69,1.27-4,.71-2.54,1.08-3.81c.27-.92.63-1.81.88-2.72a2.94,2.94,0,0,0,.09-1.47,1.93,1.93,0,0,0-1.35-1.35,11.27,11.27,0,0,0-1.3-.34l-1.81-.41h0l-2.35-.49-1.32-.31a7.06,7.06,0,0,0-.89-.19,1.8,1.8,0,0,0-1.81.78,7,7,0,0,0-.58,1.73c-.33,1.27-.64,2.54-1,3.79-.32,1.1-.7,2.18-1,3.28,0,0,0,0,0-.06-.16-1.26-.38-2.51-.5-3.76-.09-.92-.17-1.84-.23-2.76v-.24c0-.34,0-.68-.05-1a2.64,2.64,0,0,0-.64-1.82c-.74-.73-1.89-.59-2.85-.59s-2.11,0-3.17.11a27.77,27.77,0,0,0-3.15.45,7.8,7.8,0,0,0-2.19.53,1.46,1.46,0,0,0-.61,1.82,1.48,1.48,0,0,0,.54.65c0,.14.06.28.09.42l.37,1.89c.23,1.21.43,2.43.6,3.65s.37,2.53.55,3.8.3,2.65.47,4,.42,2.63.65,3.94.45,2.68.77,4c.26,1.1.6,2.2.94,3.28a3.56,3.56,0,0,0,.54,1.15,2,2,0,0,0,1.26.74,10.34,10.34,0,0,0,1.11.07c1.34.05,2.68.05,4,.15h0C65.54,136.8,66.74,137.11,68,137.28Zm14.79-29.95c-.59.52-1.14,1.06-1.68,1.62a1.46,1.46,0,0,0-.4,1.24,2,2,0,0,0-.11.2,31.37,31.37,0,0,0-1.32,3c-.4,1-.83,1.93-1.19,2.91a25.23,25.23,0,0,0-1.69,8.58,9.45,9.45,0,0,0,.19,2.19,11.45,11.45,0,0,0,.61,1.88A6.49,6.49,0,0,0,78.5,131a12.84,12.84,0,0,0,1.73,1.49,9.79,9.79,0,0,0,1.88,1.09,13.2,13.2,0,0,0,2,.68,12.69,12.69,0,0,0,2.95.38,8.47,8.47,0,0,0,1.51-.13,12.35,12.35,0,0,0,4.45-1.76c.65-.42,1.3-.86,1.91-1.34a11.52,11.52,0,0,0,1.7-1.72A18.31,18.31,0,0,0,98,127.76a12.14,12.14,0,0,0,1-2.05,15.78,15.78,0,0,0,.61-2.24,19.91,19.91,0,0,0,.4-2.18,11.77,11.77,0,0,0-.49-4.49,16.36,16.36,0,0,0-.75-2.24,19.55,19.55,0,0,0-.94-1.89,18.27,18.27,0,0,0-2.76-3.77,9.75,9.75,0,0,0-3.87-2.48,13.2,13.2,0,0,0-4.08-.8H87A6.41,6.41,0,0,0,82.77,107.33ZM129,105.08c-.91,0-1.84,0-2.73.12a2,2,0,0,0-1,.39,2,2,0,0,0-.7,1.29c-.12.75-.16,1.51-.23,2.26-.16,1.43-.35,2.85-.62,4.27-.14.7-.28,1.4-.4,2.1s-.22,1.46-.35,2.19c-.25,1.43-.52,2.86-.68,4.32s-.32,2.82-.4,4.23c-.05,1-.06,1.95,0,2.92a3.69,3.69,0,0,0,.68,2.59c.85.87,2.22.75,3.33.8,1.31.06,2.62.16,3.93.26h.08c.9.07,1.8.17,2.71.18l1.43,0h.47c.62,0,1.23,0,1.84-.08s1.34-.2,2-.33a1.28,1.28,0,0,0,.64-.36,1.3,1.3,0,0,0,.34.08h.18a1.48,1.48,0,0,0,1.11-.44,2,2,0,0,0,.5-1.26c0-.68,0-1.35.09-2a.11.11,0,0,1,0-.05v0h0v0c0-.32.06-.64.1-1,0,0,0-.09,0-.14,0-.26.07-.52.11-.78s.14-.8.22-1.19a4,4,0,0,0,.19-1.41,1.73,1.73,0,0,0-1.6-1.46c-.36,0-.72-.08-1.08-.09h-.48a2.51,2.51,0,0,0,.28-.72,13.59,13.59,0,0,0,.21-1.8,12.44,12.44,0,0,0,0-2.2,2.21,2.21,0,0,0-.63-1.44,1.64,1.64,0,0,0-.25-.21c.19,0,.39,0,.58,0a8.87,8.87,0,0,0,2.06-.09,2.56,2.56,0,0,0,1.44-.71,3.79,3.79,0,0,0,.75-1.36,9.16,9.16,0,0,0,.42-1.47,11.43,11.43,0,0,0,.13-1.54c0-.75.06-1.49.08-2.22,0-.36,0-.71,0-1.07a1.49,1.49,0,0,0-.12-.66,1.59,1.59,0,0,0-.37-.5,1.39,1.39,0,0,0-.69-.76l.09,0a2.23,2.23,0,0,0-.67-.29h0a5.51,5.51,0,0,0-.71-.09h0l-.13,0h0c-1.39-.11-2.79-.15-4.19-.2s-2.68-.16-4-.16S130.32,105.05,129,105.08Zm-25.11,9.81c.67,0,1.35,0,2,0,0,1.24-.11,2.48-.18,3.72s-.12,2.74-.13,4.12,0,2.76.06,4.14c0,.71,0,1.42,0,2.13v.07h0v0c0,.21-.05.42-.07.62a1.91,1.91,0,0,0,.49,1.63,2.37,2.37,0,0,0,1.67.58c.57,0,1.14,0,1.7.07l2.92.1c.48,0,1,.06,1.43.06h.23a2.07,2.07,0,0,0,1.84-1,4.89,4.89,0,0,0,.49-2c.3-2.79.47-5.59.55-8.39,0-1.1.08-2.2.07-3.29,0-.32,0-.63,0-1l2.08,0c.38,0,.76,0,1.14-.06a6.25,6.25,0,0,0,1.21-.28h0l.07,0,.23-.07a1.76,1.76,0,0,0,1.4-1.23,5.61,5.61,0,0,0,.12-1.24c0-1.05.11-2.08.19-3.13,0-.75.1-1.5.11-2.25a11.92,11.92,0,0,0,0-1.58,2.6,2.6,0,0,0-.43-1.2,2.07,2.07,0,0,0-1.08-.75,3.66,3.66,0,0,0-1.32-.12c-.62,0-1.23.07-1.85.11-1.28.07-2.56.08-3.84.12s-2.35.07-3.52.07-2.44,0-3.65-.08l-3.76,0c-1,0-2,0-3,.12a8.46,8.46,0,0,0-1.94.25,1.46,1.46,0,0,0-1,1.56,0,0,0,0,1,0,0,1.14,1.14,0,0,0-.07.32c-.06.69,0,1.4,0,2.1,0,.94,0,1.88,0,2.82a4.47,4.47,0,0,0,.14,1.15,2.14,2.14,0,0,0,1.41,1.44,6.45,6.45,0,0,0,1.85.25c.68,0,1.36,0,2,0Z" fill="#e76d49"/>
          <path d="M87.68,123.24l-.23,0-.37-.11-.21-.08,0,0h0l0,0-.45-.26-.13-.09,0-.06h0l0-.06h0c0-.14,0-.28-.05-.43a8.68,8.68,0,0,1,0-1,10.6,10.6,0,0,1,.16-1.13,11.11,11.11,0,0,1,.31-1.13h0a74924413363.6,74924413363.6,0,0,1,0-.06h0s0-.07,0-.09.1-.26.16-.4.26-.45.41-.67l.09-.12.44-.45.07,0a1.45,1.45,0,0,0,1.17-.28l.39.4c.17.21.34.42.49.63s.2.32.28.48l.11.26.06.22c0,.09,0,.18,0,.27s0,.25,0,.38a6.17,6.17,0,0,1-.08.62c0,.21-.11.42-.17.63s-.22.57-.35.84-.24.42-.37.63l-.23.3-.27.28c-.17.13-.33.27-.5.39l-.2.11a2.18,2.18,0,0,1-.27.11l-.1,0h-.09Z" fill="#e76d49"/>
          <path d="M51.51,82.49c0-.58,0-1.16-.07-1.74-.06-1.13-.11-2.27-.21-3.39-.19-2-.37-4.06-.5-6.1l0-.71c-.15-3.07-.15-6.13-.22-9.2,0-1.48-.08-3-.06-4.44s0-2.93.06-4.41c0-3.06-.07-6.12,0-9.18,0-1.52,0-3,.09-4.57,0-.76,0-1.52.07-2.27a2.81,2.81,0,0,1,0-.29c.56-.06,1.13-.09,1.69-.13,2.18-.11,4.35-.1,6.52-.16s4.24-.2,6.36-.34c2.47-.12,5-.2,7.42-.31,2.62-.11,5.23-.19,7.85-.22,3.09,0,6.18-.14,9.27-.2s6,0,9.07.06,5.83.24,8.74.39c2.76.14,5.51.34,8.26.53h.13l.24,0h0c1,.07,1.93.15,2.88.29,0,.67,0,1.35,0,2,0,1.3,0,2.6,0,3.9,0,2.51-.08,5-.09,7.51,0,3.06,0,6.11.12,9.16.05,1.52.11,3,.17,4.56s.15,2.85.24,4.27l0,.45.18,3.24v.2a.22.22,0,0,1,0,.08v.09c.09,1.51.16,3,.22,4.51.05,1.21.12,2.4.18,3.6,0,.65,0,1.29.08,1.93l-1,0c0-.12,0-.23,0-.34a12.32,12.32,0,0,0-.13-1.48,6.6,6.6,0,0,0-.77-2.33,9.25,9.25,0,0,0-1.46-1.93,6.72,6.72,0,0,0-2.21-1.57,5.6,5.6,0,0,0-2.21-.38l.43-.21a11.43,11.43,0,0,0,1.14-.63,8.89,8.89,0,0,0,2.62-2.3A7.15,7.15,0,0,0,118,67.11a33.66,33.66,0,0,0,0-3.48,35.87,35.87,0,0,0-.31-4.14,3.59,3.59,0,0,0-.57-1.84,2.07,2.07,0,0,0-1.71-.69h-1.74c-.92,0-1.83-.09-2.75-.12-1.25,0-2.49,0-3.73.09a8.51,8.51,0,0,0-2.19.3,2.16,2.16,0,0,0-1.31,1,2.79,2.79,0,0,0-.32,1.2c-.08,1.11-.06,2.23,0,3.34A40.79,40.79,0,0,0,103.9,70a7,7,0,0,0,1.46,3.33,6,6,0,0,0,1,.92l.17.12-.12.06a3.69,3.69,0,0,0-.66.39,4.94,4.94,0,0,0-.75.7,8.12,8.12,0,0,0-1.3,2.15c0-.83-.06-1.66-.1-2.5s-.07-1.39-.15-2.09-.19-1.29-.31-1.94c-.23-1.28-.56-2.53-.88-3.79a35.83,35.83,0,0,0-1.33-4.43,25.66,25.66,0,0,0-2-3.87c-.38-.62-.81-1.22-1.25-1.8a9.9,9.9,0,0,0-1.47-1.63,3.72,3.72,0,0,0-1-.61,6.78,6.78,0,0,0-.37-1.63c-.2-.64-.41-1.28-.63-1.91.27-.11.54-.22.81-.35a12.54,12.54,0,0,0,3-1.7,7.77,7.77,0,0,0,1.9-2.1,5.88,5.88,0,0,0,.73-2.53,6,6,0,0,0-1.09-4.06A8.08,8.08,0,0,0,96.18,38a12.2,12.2,0,0,0-3.82-.82h0c-.5,0-1-.06-1.48-.06a10.12,10.12,0,0,0-2.39.2,18.86,18.86,0,0,0-2.1.64,23.45,23.45,0,0,0-3.78,1.9c-1.24.73-2.47,1.47-3.65,2.3-.55.38-1.08.77-1.63,1.16a.81.81,0,0,0-.14-.12,2.78,2.78,0,0,0-1.3-.51,27.5,27.5,0,0,0-3.26-.34,46.14,46.14,0,0,0-6.33-.08,18.17,18.17,0,0,0-4.14.74,27.79,27.79,0,0,0-4,1.5,11.24,11.24,0,0,0-3.65,2.69A15.28,15.28,0,0,0,53.28,49a11.23,11.23,0,0,0-1,1.86,7.74,7.74,0,0,0-.35,5,5.2,5.2,0,0,0,.81,1.59,6.25,6.25,0,0,0,1.07,1.11,10.2,10.2,0,0,0,2,1.24,14.34,14.34,0,0,0,4.2,1.45h.07c.1.37.16.75.28,1.13a3.64,3.64,0,0,0,.31.7c-.25.26-.48.54-.7.82a18.22,18.22,0,0,0-2.78,5.22,15.6,15.6,0,0,0-.81,3.64,18.93,18.93,0,0,0,0,3.61,18.24,18.24,0,0,0,1,3.84,10.25,10.25,0,0,0,1,2.22c-1.21,0-2.42,0-3.64.06h-.64C53.33,82.54,52.42,82.53,51.51,82.49Z" fill="#ffca11"/>
          <path d="M116.16,35.85Z" fill="#ffca11"/>
          <path d="M108.83,72.42c-.21-.15-.44-.29-.66-.43a2.11,2.11,0,0,1-.23-.19c-.12-.1-.23-.22-.34-.33l-.2-.26c-.06-.1-.12-.2-.17-.3a4.77,4.77,0,0,1-.22-.52c-.08-.27-.15-.53-.21-.8a27.39,27.39,0,0,1-.43-3.38c-.08-1.37-.13-2.74-.12-4.11,0-.73,0-1.47,0-2.21.5-.07,1-.09,1.52-.11h0a43.6,43.6,0,0,1,4.85,0q.85,0,1.71,0h.43c.13.85.18,1.72.24,2.57s0,1.6.06,2.4,0,1.31,0,2h0v.06l-.06.4c0,.15-.08.29-.13.44s-.13.32-.2.47-.23.4-.35.59-.22.3-.33.44-.23.23-.35.34a12.52,12.52,0,0,1-1,.76,11.24,11.24,0,0,1-1.07.6l-.07,0c-.39.19-.79.37-1.18.57a2.1,2.1,0,0,0-1.24,1.27A2.36,2.36,0,0,0,108.83,72.42Zm2-3.61h0a1.43,1.43,0,0,0,1.41-1.4c0-.32,0-.65,0-1a1.47,1.47,0,0,0,1.06.47h.17a1.42,1.42,0,0,0,1.22-1.57v-.14h0a.13.13,0,0,0,0-.06h0v0s0,0,0,0v0c0-.34,0-.67-.08-1a1.43,1.43,0,0,0-1.4-1.39,1.37,1.37,0,0,0-1.15.6c0-.2,0-.41-.07-.6a.49.49,0,0,1,0-.12h0a1.46,1.46,0,0,0,0-.21,1.44,1.44,0,0,0-.1-.37s0,0,0-.05a.25.25,0,0,1,0-.07l0-.06a1.43,1.43,0,0,0-1.2-.69,1.58,1.58,0,0,0-.38.05h0a1.43,1.43,0,0,0-1,1h0a1.45,1.45,0,0,0-.06.3,1.37,1.37,0,0,0-.82-.28,1.44,1.44,0,0,0-1.41,1.23l0-.13,0,.19v0a.19.19,0,0,0,0,.08c0,.36,0,.72,0,1.07,0,.85,0,1.71,0,2.56a1.41,1.41,0,0,0,1.4,1.42h0a1.43,1.43,0,0,0,1.23-.71A1.42,1.42,0,0,0,110.82,68.81Z" fill="#d1c9b6"/>
          <path d="M66.48,134.05a44,44,0,0,0-6.38-.45c-.16-.52-.31-1.06-.47-1.59-.27-.88-.49-1.76-.68-2.66-.05-.26-.1-.51-.14-.76-.26-1.38-.51-2.76-.74-4.14s-.4-2.89-.57-4.34-.41-2.73-.6-4.1-.39-2.74-.65-4.1a1.29,1.29,0,0,0,0-.19c-.14-.74-.29-1.47-.44-2.21l.61-.11h-.05a27.64,27.64,0,0,1,3.28-.36c.58,0,1.15,0,1.72,0h.75c0,.14,0,.28,0,.42.06,1,.13,2.09.23,3.13.12,1.34.34,2.66.52,4s.43,2.91.6,4.36c.08.68.11,1.36.17,2a4,4,0,0,0,.3,1.75,1.51,1.51,0,0,0,1.46.72,1.56,1.56,0,0,0,1.27-1.14,3.39,3.39,0,0,0,.11-.43c.22-1,.48-2,.77-3,.37-1.34.7-2.71,1.12-4s.89-2.67,1.24-4c.17-.62.33-1.24.5-1.86.09-.35.18-.7.28-1.06l1,.23,2.22.46h0l.11,0h0l.15,0,.07,0,1.69.37.29.07-.19.58c-.23.69-.46,1.39-.66,2.09-.45,1.59-.89,3.18-1.38,4.76-.85,2.72-1.79,5.41-2.5,8.17-.35,1.39-.67,2.78-1,4.17-.29,1.24-.55,2.51-.92,3.73C68.51,134.44,67.49,134.25,66.48,134.05Z" fill="#fefefe"/>
          <path d="M86.72,131.61c-.47,0-.93-.1-1.4-.18s-.95-.24-1.42-.38l-.09,0a9.75,9.75,0,0,1-1-.45,4.42,4.42,0,0,1-.54-.34c-.38-.26-.75-.53-1.11-.83a9.13,9.13,0,0,1-.69-.7l-.12-.15-.23-.39c-.16-.37-.31-.75-.44-1.13a7.27,7.27,0,0,1-.22-.8c0-.23-.06-.46-.08-.69,0-.72,0-1.44,0-2.16a22.59,22.59,0,0,1,.35-2.47,30.47,30.47,0,0,1,.92-3.27c.36-1,.77-2,1.18-2.95s.72-1.79,1.13-2.65c.25-.47.52-.92.8-1.36s.48-.64.73-.94.37-.29.56-.43l.5-.27c.16-.07.32-.15.49-.21l.39-.11.28,0h.2l.48,0a11.36,11.36,0,0,1,2.8.61,7.76,7.76,0,0,1,.84.34c.21.11.41.22.61.35s.56.42.83.64.53.53.78.81h0c.44.52.83,1.05,1.22,1.61a19.29,19.29,0,0,1,1.07,1.82v0c.24.5.46,1,.65,1.53.24.77.44,1.55.61,2.34a10.43,10.43,0,0,1,.16,1.14c0,.22,0,.45,0,.67-.07.6-.16,1.17-.28,1.76h0c-.17.74-.34,1.48-.57,2.2a10.5,10.5,0,0,1-.42,1h0c-.29.56-.62,1.1-1,1.63-.24.33-.49.65-.75,1s-.43.46-.66.68a18.15,18.15,0,0,1-1.5,1.11c-.43.29-.88.55-1.33.8s-.82.36-1.23.52-.61.17-.91.24-.57.09-.85.12h-.79Zm-1-16.74a7.21,7.21,0,0,0-2,3.15,11.85,11.85,0,0,0-.61,3.39,5.91,5.91,0,0,0,.15,1.88,3.27,3.27,0,0,0,1,1.56,6.86,6.86,0,0,0,1.2.78,5.08,5.08,0,0,0,2.25.58,3.27,3.27,0,0,0,.54,0,4.29,4.29,0,0,0,2-.93,6.53,6.53,0,0,0,.8-.68,8,8,0,0,0,1.32-1.93,9.67,9.67,0,0,0,.73-2,5.59,5.59,0,0,0-.65-4.41,5.91,5.91,0,0,0-2.64-2.43,1.5,1.5,0,0,0-1.56.28,2.22,2.22,0,0,0-.37-.09l-.24,0A3.14,3.14,0,0,0,85.76,114.87Z" fill="#fefefe"/>
          <path d="M113,129.2l-1.15,0c-1.07-.05-2.15-.07-3.23-.12,0-.11,0-.21,0-.32a18.87,18.87,0,0,0,0-2c-.07-2.08-.07-4.17,0-6.25,0-1.37.15-2.74.21-4.1,0-.7.05-1.39,0-2.09a3.35,3.35,0,0,0-.19-1.13,1.68,1.68,0,0,0-1-.92,8.26,8.26,0,0,0-2.67-.27c-1.33,0-2.67,0-4-.07l-.16,0c0-.8,0-1.61,0-2.41,0-.49,0-1,0-1.47l1.65-.12.73,0h.34c.48,0,1,0,1.44,0h1.89c1.22,0,2.45.07,3.67.09s2.54,0,3.81-.06,2.79-.07,4.19-.15h0l1.68-.11h.32c0,.82,0,1.65-.09,2.47s-.11,1.52-.15,2.28c0,.38,0,.77,0,1.15l-.12,0c-.21,0-.42.06-.64.08-.89,0-1.79,0-2.69,0h-.29a4.08,4.08,0,0,0-1.67.23,1.69,1.69,0,0,0-1,1.49,3.24,3.24,0,0,0,.11.76,5.38,5.38,0,0,1,.07.69c0,.54,0,1.08,0,1.62,0,.76,0,1.51,0,2.27,0,1.74-.14,3.48-.27,5.21,0,.67-.11,1.34-.16,2,0,.41-.07.83-.13,1.24Z" fill="#fefefe"/>
          <path d="M133.92,130.06c-.79,0-1.58,0-2.36-.06h-.12l-3.4-.27-3.2-.19a29.84,29.84,0,0,1,0-3.41h0v-.21s0,0,0-.05a0,0,0,0,1,0,0c0-.47.09-1,.13-1.43.13-1.39.26-2.79.49-4.18.13-.74.26-1.48.38-2.23s.22-1.45.34-2.18c.25-1.48.59-3,.78-4.46.09-.69.16-1.39.23-2.09,0-.42.07-.84.11-1.27h0c1-.06,2-.07,3-.07,1.22,0,2.43,0,3.64,0l3.71.15c1,0,2.08.07,3.13.13,0,.5,0,1-.07,1.47s0,1.18-.08,1.76c0,.22,0,.44-.1.66a3.23,3.23,0,0,1-.14.51c-.06.17-.13.34-.2.5l-.14,0c-.65,0-1.3,0-1.93-.07l-2-.12a27.55,27.55,0,0,0-3.4,0,2.08,2.08,0,0,0-1.6.74,2.66,2.66,0,0,0-.52,1.34,8,8,0,0,0-.1,1,2.63,2.63,0,0,0,.25,1.42,2,2,0,0,0,1.56.89c.39,0,.78.06,1.17.07.65,0,1.29,0,1.94,0l.68.08c0,.38,0,.77-.06,1.16s-.05.73-.1,1.09h0c-.31,0-.62.07-.93.09a16.16,16.16,0,0,1-2,0l-.53-.07h0l-.4-.11a1.82,1.82,0,0,0-1,0,1.76,1.76,0,0,0-1.22,1.85,4.87,4.87,0,0,0,.28,2.08,2,2,0,0,0,1.83,1.18,8.11,8.11,0,0,0,1.1-.06c.82-.06,1.64-.14,2.47-.19s1.37-.07,2.07-.07h.78a6.7,6.7,0,0,0-.19,2.18q-.09.78-.12,1.56l0,.54a1.41,1.41,0,0,0-.41,0,19,19,0,0,1-2.12.31h-1.71Z" fill="#fefefe"/>
          <path d="M46.08,102.06c0,1.17,0,2.34,0,3.52,0,1.37,0,2.73,0,4.09s0,2.89,0,4.32-.07,2.91-.11,4.35c-.08,2.79-.18,5.57-.21,8.36s-.14,5.35-.22,8c0,1.15-.06,2.3-.07,3.44l-.3-.3c-2-2-3.87-4.13-5.87-6.14s-4.31-4.22-6.31-6.49l-.22-.26-.15-.16a48.33,48.33,0,0,1-3.4-4.38,15.51,15.51,0,0,1-.82-1.34c-.13-.28-.2-.6-.35-.87l0-1.48c0-2.76.06-5.51,0-8.28,0-1.48-.09-3-.12-4.46s0-3,0-4.45,0-3,0-4.45,0-3,0-4.5c0-.6,0-1.21,0-1.82.33.3.65.59,1,.87.89.74,1.82,1.42,2.77,2.07s1.88,1.22,2.8,1.84a2.11,2.11,0,0,0,.27.18,43.92,43.92,0,0,1,3.53,2.88,40.28,40.28,0,0,0,3.18,2.51c1,.66,2,1.25,3,1.89C45,101.38,45.53,101.7,46.08,102.06Z" fill="#cc4f32"/>
          <path d="M78.07,82.86a1.68,1.68,0,0,1-.55,1.55,2,2,0,0,1-1,.48,8.91,8.91,0,0,1-1.71.15l-1.07,0c-1,0-2.09,0-3.13,0C69,85,67.49,85,66,84.88h-.34c-1.72-.05-3.45,0-5.18,0-1.23,0-2.46,0-3.68,0a20.76,20.76,0,0,1-3.61-.28A3.3,3.3,0,0,1,51,83.34a6.53,6.53,0,0,1-.85-2c-.19-.6-.34-1.21-.49-1.82a1.55,1.55,0,0,0-.22-1.07l.12.59c0,.16.07.32.1.48a1.25,1.25,0,0,1-.35.72l-.1.09a1.48,1.48,0,0,1,.33.69,1.44,1.44,0,0,1-.77,1.52,1.38,1.38,0,0,1-.58.15,1.32,1.32,0,0,1-.65-.14l-.55,0a12.09,12.09,0,0,0-1.59.07,17.56,17.56,0,0,0-2.17.37c-.34.09-.67.19-1,.31h0c-.31.12-.61.27-.91.42l-.71.44c-.16.13-.31.25-.46.39l-.14.15-.08.1v0h0V85a4,4,0,0,1-.07.84,8.36,8.36,0,0,1-.25.81c-.18.5-.39,1-.55,1.51a4.83,4.83,0,0,0-.17.68,24.31,24.31,0,0,0-.19,2.83c0-.07,0-.13,0-.2-.07,2.31-.16,4.62-.29,6.94s-.29,4.6-.36,6.91a1.85,1.85,0,0,0,0,.23c0,1.41,0,2.81.06,4.22.09,1.62.19,3.25.33,4.86a44.21,44.21,0,0,0,.92,5.22,30.63,30.63,0,0,0,1,3.34,47.24,47.24,0,0,0,2.18,4.61c.38.72.77,1.44,1.14,2.18.27.57.55,1.14.85,1.7s.82,1.34,1.23,2a6.47,6.47,0,0,1,1,2.12,2.65,2.65,0,0,1-1.4,2.72,1.84,1.84,0,0,1-.85.21c-1.35,0-2.44-1.58-3.25-2.52-1.59-1.85-3.26-3.63-4.94-5.4l-.07-.06h0c-1-1-2-2-3-3s-2.07-1.84-3.06-2.82a23.37,23.37,0,0,1-2.67-3.13,14.91,14.91,0,0,1-1-1.71,8,8,0,0,1-.73-2.17,28.51,28.51,0,0,1-.4-4.61c-.06-1.58-.11-3.16-.15-4.75s-.09-3,0-4.56.13-3,.33-4.51c.22-1.65.65-3.28.94-4.93,0,0,0,.06,0,.09a.5.5,0,0,1,0-.12v0c.23-1.46.43-2.93.62-4.39s.3-2.85.35-4.28c0-.21,0-.42,0-.63A17.79,17.79,0,0,1,27.63,81a4.63,4.63,0,0,1,.83-1.93,3.64,3.64,0,0,1,2.36-1c.59-.08,1.17-.14,1.76-.2l.34,0h0l.2,0h-.07c1.25-.13,2.51-.25,3.77-.29s2.69-.07,4-.06c1.95,0,3.87.25,5.81.33a11,11,0,0,0,1.52,0,1.35,1.35,0,0,1,1.27.68,41.17,41.17,0,0,1-.56-4.14c-.14-1.41-.23-2.83-.33-4.24-.12-1.56-.19-3.13-.19-4.69,0-2.7,0-5.39.11-8.09v.2c.07-2.14.1-4.28.19-6.43s.22-4,.29-6a2.26,2.26,0,0,0,0-.26,19.8,19.8,0,0,0-.06-2.31c-.11-1.06-.36-2.09-.56-3.14a6.33,6.33,0,0,1-.17-2.29c.26-1.51,2.09-1.92,3.35-2.19A6.32,6.32,0,0,1,54,34.75l.2.06a1.41,1.41,0,0,1,1.3-1A1.44,1.44,0,0,1,57,35.15v.09c.12,1,.25,2.07.31,3.12s.1,2.18.14,3.27c.1,2.18.29,4.36.52,6.54v0a45.06,45.06,0,0,0,.84,5.43,58.09,58.09,0,0,0,1.85,6.2v0A60.36,60.36,0,0,0,67.23,72a36,36,0,0,0,2.56,3l0,0,.08.09h0a74.64,74.64,0,0,0,6.28,5.78l0,0c.26.21.53.41.8.6A2.26,2.26,0,0,1,78.07,82.86Z" fill="#110802" fill-opacity="0.25"/>
        </g>
      </g>
    </g>
  </g>
</svg>
