<svg xmlns="http://www.w3.org/2000/svg" xmlns:xlink="http://www.w3.org/1999/xlink" width="177.9" height="175.28" viewBox="0 0 177.9 175.28">
  <defs>
    <clipPath id="clip-path" transform="translate(2.62)">
      <circle cx="87.64" cy="87.64" r="87.64" fill="none"/>
    </clipPath>
    <linearGradient id="linear-gradient" x1="59.41" y1="1531.22" x2="115.81" y2="1596.48" gradientTransform="matrix(1, 0, 0, -1, 0, 1646.2)" gradientUnits="userSpaceOnUse">
      <stop offset="0.08" stop-color="#9945ff"/>
      <stop offset="0.3" stop-color="#8752f3"/>
      <stop offset="0.5" stop-color="#5497d5"/>
      <stop offset="0.6" stop-color="#43b4ca"/>
      <stop offset="0.72" stop-color="#28e0b9"/>
      <stop offset="0.97" stop-color="#19fb9b"/>
    </linearGradient>
  </defs>
  <g id="Layer_2" data-name="Layer 2">
    <g id="Vector_layer" data-name="Vector layer">
      <g>
        <circle cx="90.26" cy="87.64" r="87.64" fill="#98d7c3"/>
        <g clip-path="url(#clip-path)">
          <g>
            <rect x="53.93" y="47.23" width="75.84" height="71.71" fill="#282828"/>
            <path d="M118.42,130.7a2.94,2.94,0,0,1-.44,2.19,7.05,7.05,0,0,1-1.71,1.78c-1,.84-2.21,1.54-3.3,2.31s-2.2,1.42-3.31,2.12c-1.31.82-2.63,1.61-4,2.38l-1.05.59-.08,0-.12.07-.18.1q-2,1.08-4,2c-1.35.66-2.67,1.39-4,2.06-2.62,1.32-5.36,2.36-8.07,3.45-1.49.6-3,1.24-4.45,1.87s-3,1.18-4.5,1.75c-.32.13-.64.27-.95.42v.07a1.87,1.87,0,0,1-.35,1.21,2.63,2.63,0,0,1-1.43.91,39.61,39.61,0,0,1-3.87.93c-1.22.27-2.45.49-3.69.68-1.41.21-2.81.35-4.21.6-3.06.54-6.1,1.18-9.17,1.69-1.56.26-3.12.51-4.68.8s-3.07.54-4.61.77c-3.08.46-6.17.86-9.28,1.12-1.55.14-3.12.21-4.68.29-1.26.06-2.52.11-3.77.11h-1a48.81,48.81,0,0,1-5-.34c-1.66-.19-3.3-.46-4.95-.74l-.12,0-.2,0a23.26,23.26,0,0,1-2.35-.47,16.31,16.31,0,0,1-2.15-.8,18,18,0,0,1-4-2.33,16,16,0,0,1-3.3-3.37,28.92,28.92,0,0,1-2.32-4,46.78,46.78,0,0,1-1.94-4.41c-.52-1.41-.92-2.86-1.34-4.31S-1,139-1.33,137.42A40.94,40.94,0,0,1-2,132.48c-.05-.54-.1-1.09-.16-1.64l-.09-.85v0c0-.34-.07-.67-.1-1l0,.2c-.16-1.53-.31-3.06-.32-4.6,0-.83,0-1.66.11-2.49,0-.62.21-1.25.22-1.88v.17s0-.08,0-.12a1.43,1.43,0,0,1,1-1.28,1.45,1.45,0,0,1,1.72.75,1.37,1.37,0,0,1,.13.51,16.89,16.89,0,0,1,1.89.29c1,.21,1.92.56,2.91.74,1.49.23,3,.3,4.5.41.81.06,1.62.12,2.44.21s1.41.15,2.12.18c1.17,0,2.34,0,3.5-.11l1.61-.09,1-.05a4,4,0,0,1,1.29.06,1.66,1.66,0,0,1,1,.69,1.53,1.53,0,0,1,.25.92l.3.1c.72.2,1.45.35,2.19.48h0a34.37,34.37,0,0,0,3.8.33q1.92,0,3.84,0l2.07,0,.83,0a4.29,4.29,0,0,1,1.24,0,1.57,1.57,0,0,1,1.11,1l2-.33c1.28-.21,2.57-.35,3.83-.65h.11c1-.26,2-.58,3-.9a4.13,4.13,0,0,1,2.14-.24,7.1,7.1,0,0,1,1,.32A13.14,13.14,0,0,1,53,124.81a31.84,31.84,0,0,1,2.56,2.08c.41.32.82.64,1.26.92.12.07.24.14.37.2l.23.09.15,0,.25,0h.28l.35-.07c1.13-.29,2.22-.73,3.33-1.11,1.36-.46,2.73-.88,4.07-1.39q4-1.58,7.85-3.42c1.33-.63,2.65-1.31,4-1.86a15.28,15.28,0,0,1,4.62-1.23,7.59,7.59,0,0,1,2.23.23A5,5,0,0,1,87,120.5,7.73,7.73,0,0,1,89,125a6.67,6.67,0,0,1-.11,2.09,9.28,9.28,0,0,1-.6,1.7,26.26,26.26,0,0,1-1.6,3,10.17,10.17,0,0,1-2.29,2.56,13.72,13.72,0,0,1-2,1.29l.4.08a67,67,0,0,0,7.88.7h0a21.57,21.57,0,0,0,2.41-.09c1.34-.14,2.68-.32,4-.57s2.68-.54,4-.85l.08,0h0a78.58,78.58,0,0,0,9.14-2.84c.92-.37,1.83-.77,2.72-1.18s1.66-.81,2.51-1.19a2.23,2.23,0,0,1,1.75-.18A1.78,1.78,0,0,1,118.42,130.7Z" transform="translate(2.62)" fill="#d1a173"/>
            <path d="M82.9,131.93a1.51,1.51,0,0,1,.18-2.1,20.28,20.28,0,0,0,2-1.63c.25-.26.5-.52.73-.8s.37-.51.54-.77.24-.43.35-.66l0-.3a4.61,4.61,0,0,0,0-.53c0-.23-.07-.44-.11-.66s-.11-.35-.17-.52-.2-.49-.31-.73-.32-.5-.49-.74c-.07-.08-.13-.17-.21-.25s-.24-.24-.37-.35a2.2,2.2,0,0,0-.25-.17l-.12-.07a3.66,3.66,0,0,1-.43-.15,1.75,1.75,0,0,1-.35-.2l-.31,0a17.82,17.82,0,0,0-2.05.32l-.36.11-.11.11a1.43,1.43,0,0,1-1.74.07,1.5,1.5,0,0,1-.51-1.72,2.58,2.58,0,0,1,1.9-1.33,14.92,14.92,0,0,1,3-.47,5.81,5.81,0,0,1,1.38.06,5.09,5.09,0,0,1,2,.87,5.9,5.9,0,0,1,.7.38,4.86,4.86,0,0,1,1.73,1.84,5.86,5.86,0,0,1,.65,2.75,7.44,7.44,0,0,1-.73,4.48,12.46,12.46,0,0,1-1.2,1.85,9.15,9.15,0,0,1-.77.88,3,3,0,0,1-1.11.79,1.49,1.49,0,0,1-1.3-.19l-.16.1a1.46,1.46,0,0,1-.8.23A1.51,1.51,0,0,1,82.9,131.93Z" transform="translate(2.62)" fill="#d1a173"/>
            <path d="M71.36,139.51a1.48,1.48,0,0,1,1-1.8,49.32,49.32,0,0,0,4.8-1.16c1.19-.42,2.35-.94,3.49-1.46l.16-.09a12.47,12.47,0,0,0,1.18-.68l0,0,.07,0h0a.1.1,0,0,0,.05,0h0a48.75,48.75,0,0,0,4.7-3.52c.3-.27.59-.55.86-.84s.35-.45.52-.68c.27-.41.53-.83.77-1.27.1-.21.19-.43.27-.64s.14-.44.2-.67c.07-.4.13-.81.16-1.22a8.68,8.68,0,0,0,0-1.14,3.44,3.44,0,0,0,0-.45c-.08-.35-.18-.7-.29-1s-.24-.61-.37-.91-.42-.75-.65-1.1-.29-.4-.44-.59-.17-.18-.26-.26l-.44-.35-.25-.15-.4-.17-.13,0-.61-.08a8.26,8.26,0,0,0-.86,0c-.45,0-.89.1-1.33.18h0a21.14,21.14,0,0,0-2.71.7,45.92,45.92,0,0,0-4.69,2c-1.15.6-2.23,1.3-3.36,1.91l-3.58,1.92a78,78,0,0,1-7.63,3.74c-1.8.75-3.61,1.47-5.46,2.11h0l0,0-.13,0,0,0c-1.35.45-2.73.79-4.1,1.18s-2.65.61-4,.87h0a9.87,9.87,0,0,1-2.76.25,1.41,1.41,0,0,1,.09-2.82h.51c.34,0,.67-.08,1-.14l-.08,0,2.11-.42h0l.09,0h0c1-.21,2-.5,3-.77s2.06-.57,3.07-.9a80.63,80.63,0,0,0,8.7-3.63c2.47-1.24,4.89-2.58,7.33-3.9.57-.3,1.14-.62,1.7-1s1.19-.73,1.82-1c1.28-.66,2.6-1.24,3.94-1.77a25.44,25.44,0,0,1,4.09-1.26,11.91,11.91,0,0,1,3.76-.27A6.12,6.12,0,0,1,90.11,118a11.29,11.29,0,0,1,2.31,4.16,8.16,8.16,0,0,1,.4,2.45,12.69,12.69,0,0,1-.2,2.3,10.53,10.53,0,0,1-1.93,4.25,14.51,14.51,0,0,1-3.09,3c-1.12.89-2.28,1.71-3.46,2.5a15.46,15.46,0,0,1-1.79,1.08c-.74.37-1.49.7-2.25,1a22.39,22.39,0,0,1-2.11.81,38.81,38.81,0,0,1-5,1h-.2A1.49,1.49,0,0,1,71.36,139.51Z" transform="translate(2.62)" fill="#110802"/>
            <path d="M82.06,134.3h0l0,0Z" transform="translate(2.62)" fill="#110802"/>
            <path d="M48.86,130.62h0Z" transform="translate(2.62)" fill="#110802"/>
            <path d="M57.32,64.67h0Z" transform="translate(2.62)" fill="#110802"/>
            <path d="M57.31,64.67h0Z" transform="translate(2.62)" fill="#110802"/>
            <path d="M57.69,72.78h0Z" transform="translate(2.62)" fill="#110802"/>
            <path d="M62.19,78.7h0Z" transform="translate(2.62)" fill="#110802"/>
            <path d="M62.2,78.7Z" transform="translate(2.62)" fill="#110802"/>
            <path d="M59.2,74.86h0Z" transform="translate(2.62)" fill="#110802"/>
            <path d="M62.19,78.7h0Z" transform="translate(2.62)" fill="#110802"/>
            <path d="M62.19,78.69h0Z" transform="translate(2.62)" fill="#110802"/>
            <path d="M56.91,76.59h0Z" transform="translate(2.62)" fill="#110802"/>
            <path d="M56.91,76.59h0Z" transform="translate(2.62)" fill="#110802"/>
            <path d="M56,75h0Z" transform="translate(2.62)" fill="#110802"/>
            <path d="M56,75h0Z" transform="translate(2.62)" fill="#110802"/>
            <path d="M59.25,74.93h0Z" transform="translate(2.62)" fill="#110802"/>
            <path d="M59.21,74.88Z" transform="translate(2.62)" fill="#110802"/>
            <path d="M59.21,74.87h0Z" transform="translate(2.62)" fill="#110802"/>
            <path d="M62.19,78.7Z" transform="translate(2.62)" fill="#110802"/>
            <path d="M56,75h0Z" transform="translate(2.62)" fill="#110802"/>
            <path d="M56,75h0Z" transform="translate(2.62)" fill="#110802"/>
            <path d="M59.24,74.92h0Z" transform="translate(2.62)" fill="#110802"/>
            <path d="M59.24,74.92Z" transform="translate(2.62)" fill="#110802"/>
            <path d="M59.24,74.92Z" transform="translate(2.62)" fill="#110802"/>
            <path d="M59.24,74.91h0Z" transform="translate(2.62)" fill="#110802"/>
            <path d="M59.22,74.89v0Z" transform="translate(2.62)" fill="#110802"/>
            <path d="M85.39,137.61c-.44,0-.88,0-1.32-.08a6.33,6.33,0,0,1-1.23-.12,1.46,1.46,0,0,1,.21-2.85,8.71,8.71,0,0,1,1.25,0c.67.05,1.34.09,2,.11,1.71.06,3.42,0,5.12-.05.71,0,1.42-.11,2.13-.19s1.45-.23,2.18-.35c1.16-.18,2.33-.32,3.48-.54h0l1.44-.28h0l.54-.1-.2,0a48.8,48.8,0,0,0,6.11-1.55,41.89,41.89,0,0,0,4.85-2c1.17-.59,2.31-1.23,3.45-1.85s2.35-1.32,3.47-2.06a64,64,0,0,0,6.21-4.93l.18-.16-.14.12a61.6,61.6,0,0,0,5.46-5.26l-.12.14.22-.25,0,0a58,58,0,0,0,3.77-4.94,72.58,72.58,0,0,0,4.45-7.75,50.52,50.52,0,0,0,2.24-5.33,56.88,56.88,0,0,0,1.75-6.12,38.72,38.72,0,0,0,.64-4.41,55.35,55.35,0,0,0,0-6.31c-.07-1.19-.16-2.39-.29-3.57s-.36-2.52-.6-3.76c-.44-2.19-1-4.35-1.55-6.52s-1.21-4.59-2-6.83c0,.06,0,.11.06.18a33.94,33.94,0,0,0-1.54-3.75l0,.07a41.9,41.9,0,0,0-2.38-4.17s0,0,0,0v0h0v0l0-.07,0,0c-.81-1.18-1.67-2.33-2.53-3.48s-1.8-2.33-2.75-3.45l0,0-.09-.1h0A14,14,0,0,0,128.64,44l-.15-.13h0l-.08-.06,0,0c-.18-.16-.37-.33-.54-.51a2.59,2.59,0,0,1-.62-.84,1.41,1.41,0,0,1,2.51-1.27l.5.48.07.06h0a21.13,21.13,0,0,1,1.58,1.56c.89,1,1.74,2.07,2.56,3.14s1.55,2.08,2.3,3.13A35.9,35.9,0,0,1,139,52.91c.56,1,1.1,2,1.59,3a32.69,32.69,0,0,1,1.31,3.32h0c.92,2.68,1.63,5.42,2.31,8.18.33,1.34.69,2.68,1,4s.56,2.79.77,4.2.3,2.73.4,4.1.14,3,.14,4.5-.06,2.8-.2,4.2a34.46,34.46,0,0,1-.73,4.18,54.22,54.22,0,0,1-2.63,8.25,65.26,65.26,0,0,1-3.88,7.7,50.88,50.88,0,0,1-3,4.74,53.32,53.32,0,0,1-3.29,4.2,1.49,1.49,0,0,1,.12-.14A61.85,61.85,0,0,1,127,123l.14-.12a67.66,67.66,0,0,1-6.57,5.24c-1.16.78-2.37,1.49-3.61,2.16s-2.44,1.36-3.69,2a42.11,42.11,0,0,1-6.41,2.54c-1,.32-2.09.55-3.14.8s-2,.44-3,.64h0l-.18,0h0l-.65.13h0l-.18,0,0,0c-1,.19-2,.32-3,.48s-2.25.39-3.39.51a46.11,46.11,0,0,1-4.86.24C87.48,137.69,86.43,137.67,85.39,137.61Z" transform="translate(2.62)" fill="#110802"/>
            <path d="M100.65,133.3h0Z" transform="translate(2.62)" fill="#110802"/>
            <path d="M33.72,72a1.45,1.45,0,0,1-1.23-1.65,27.87,27.87,0,0,1,1.15-4.42c.4-1.13.85-2.24,1.31-3.35s1-2.5,1.61-3.72,1.32-2.47,2-3.68a52.68,52.68,0,0,1,3.16-5,56.18,56.18,0,0,1,3.93-4.9.86.86,0,0,0-.13.14,68.78,68.78,0,0,1,5.84-6.11,72.49,72.49,0,0,1,6.42-5,61.37,61.37,0,0,1,7.92-4.63h0a45.8,45.8,0,0,1,8.14-3.18c1.3-.36,2.63-.63,3.94-.91s2.74-.59,4.13-.76a35.13,35.13,0,0,1,4.35-.24c1.3,0,2.6,0,3.9.07a52.54,52.54,0,0,1,7.39.82,54.75,54.75,0,0,1,6.19,1.51c.94.28,1.87.58,2.8.9s2,.66,3,1h0a53.67,53.67,0,0,1,7.88,3.37,66.47,66.47,0,0,1,7,4.39c1.37,1,2.72,1.93,4.1,2.88a3.53,3.53,0,0,1,1.64,2,1.28,1.28,0,0,1,0,.39,1.41,1.41,0,0,1-2.57.56.64.64,0,0,1-.1-.13c-.06,0-.11-.11-.17-.17s-.37-.28-.57-.42l0,0c-1.74-1.17-3.42-2.4-5.15-3.58,0,0,0,0,0,0l0,0h0l-.15-.11a64.39,64.39,0,0,0-6.45-3.83h0c-1-.48-2-.91-3-1.32s-2.16-.84-3.25-1.23l0,0-.17-.06,0,0c-.91-.31-1.84-.59-2.74-.9s-1.67-.57-2.51-.82c-1.82-.55-3.65-1-5.5-1.4a51.16,51.16,0,0,0-6.28-.83h0c-1.19-.09-2.36-.12-3.55-.13-1.39,0-2.78,0-4.17,0h0a31.44,31.44,0,0,0-3.62.47l-3.81.8a40.6,40.6,0,0,0-4,1.09h0l-.14.05.07,0a48.08,48.08,0,0,0-5.68,2.4,61.42,61.42,0,0,0-6.64,3.82,68,68,0,0,0-6.73,5.22,67.55,67.55,0,0,0-5.55,5.8h0a.12.12,0,0,0-.05,0h0l0,.06a56.8,56.8,0,0,0-4.07,5.2,75,75,0,0,0-4.45,7.67c0-.06.06-.12.09-.17-.6,1.23-1.12,2.5-1.64,3.77-.45,1.1-.89,2.19-1.29,3.31l0,.1,0,.08,0,0a33.53,33.53,0,0,0-1,3.7A1.44,1.44,0,0,1,33.9,72Z" transform="translate(2.62)" fill="#110802"/>
            <path d="M114.9,34.16h0Z" transform="translate(2.62)" fill="#110802"/>
            <path d="M47.76,47.23l0,0s0,0,0,0Z" transform="translate(2.62)" fill="#110802"/>
            <path d="M114.91,34.17Z" transform="translate(2.62)" fill="#110802"/>
            <path d="M65.73,29.56l0,0Z" transform="translate(2.62)" fill="#110802"/>
            <path d="M58,129c-.53-.19-1-.44-1.57-.67s-1.23-.6-1.84-.9a37.61,37.61,0,0,1-4.34-2.66l.16.11c-1-.67-2-1.34-2.93-2.11A23.63,23.63,0,0,1,45,120.42l0,0-.69-.79s0,0,0,.06l-1.18-1.32.13.14c-.63-.72-1.25-1.44-1.81-2.22s-1.12-1.64-1.66-2.48a58.07,58.07,0,0,1-3-5.28.89.89,0,0,1,.08.17,38.65,38.65,0,0,1-1.66-4c-.51-1.37-1-2.74-1.48-4.12,0,.06,0,.13.06.18a38.9,38.9,0,0,1-1.79-7.91c-.15-1.34-.27-2.69-.4-4-.13-1.51-.27-3-.32-4.53a63.74,63.74,0,0,1,.26-6.77v.19a47.71,47.71,0,0,1,1-6.61h0c.25-1.18.55-2.35.87-3.51.2-.69.45-1.36.61-2.06a.43.43,0,0,1,0,0v0a.76.76,0,0,1,0-.21.92.92,0,0,1,.08-.27,1.46,1.46,0,0,1,1.32-.86,1.42,1.42,0,0,1,1.29.89v0s0,0,0,.06a1.47,1.47,0,0,1,.08.3.29.29,0,0,1,0-.09,5.17,5.17,0,0,1-.43,2.28c-.38,1.33-.72,2.67-1,4,0,0,0,0,0,.07h0a0,0,0,0,1,0,0h0c-.21,1-.42,2.07-.58,3.12s-.29,2.19-.38,3.3a.28.28,0,0,1,0-.09,58.1,58.1,0,0,0-.19,7.34c.12,1.7.28,3.4.45,5.09s.37,3.48.69,5.2l0-.19a32.75,32.75,0,0,0,1.18,4.34s0-.06,0-.09a.69.69,0,0,1,0,.1v0l0,.14,0,0h0c.41,1.17.84,2.35,1.28,3.53a41,41,0,0,0,1.56,3.83c.55,1.09,1.12,2.17,1.73,3.22s1.25,2,1.9,3l-.11-.15.21.31v0a23.74,23.74,0,0,0,1.83,2.4l-.13-.14.42.47-.13-.14a44.61,44.61,0,0,0,3.51,3.76A29.69,29.69,0,0,0,51.59,122l0,0a36.08,36.08,0,0,0,3.92,2.44c.65.32,1.29.65,1.94,1a11.79,11.79,0,0,1,1.75.85,1.53,1.53,0,0,1,.63,1.9,1.58,1.58,0,0,1-1.4.94A1.18,1.18,0,0,1,58,129Z" transform="translate(2.62)" fill="#110802"/>
            <path d="M36.66,99.86Z" transform="translate(2.62)" fill="#110802"/>
            <path d="M32.65,71.06h0Z" transform="translate(2.62)" fill="#110802"/>
            <path d="M31.44,126.45H31.3l-.5,0h-.39c-1.37-.11-2.73-.28-4.1-.48-.71-.1-1.42-.24-2.14-.38l-1.05-.22a4.2,4.2,0,0,1-.78-.26,1.7,1.7,0,0,1-.72-.66,1.21,1.21,0,0,1-.19-.66c-.65,0-1.3,0-1.95,0-3,0-6-.25-9-.48l.19,0-.22,0H10.3a49.37,49.37,0,0,1-5.14-.62,42.84,42.84,0,0,1-4.74-1.1,1.41,1.41,0,0,1,.77-2.72c.85.25,1.71.44,2.58.63l.54.12h0l.08,0,.09,0h0a53.08,53.08,0,0,0,5.89.8h.36l.3,0-.19,0,.81.06h0c1.35.1,2.69.17,4.05.25s2.76.15,4.14.15,2.83-.06,4.25-.12l2-.07.88,0a3.65,3.65,0,0,1,1.14.1,1.48,1.48,0,0,1,1,1.2,1.4,1.4,0,0,1-.4,1.23l-.11.08c.69.09,1.37.16,2,.21h0l.66,0h.31a38.86,38.86,0,0,0,4.18,0c1.46-.11,2.91-.27,4.37-.41s2.74-.32,4.1-.58h0l.17,0h0c.81-.16,1.63-.33,2.44-.51.64-.14,1.27-.33,1.89-.5a1.44,1.44,0,0,1,.93,2.72A19.65,19.65,0,0,1,47,125c-1.28.26-2.56.54-3.86.74s-2.87.35-4.31.49-3.05.27-4.59.32h-.58C32.89,126.54,32.16,126.5,31.44,126.45Z" transform="translate(2.62)" fill="#110802"/>
            <path d="M4.31,119.55Z" transform="translate(2.62)" fill="#110802"/>
            <path d="M44.2,122.57h0Z" transform="translate(2.62)" fill="#110802"/>
            <path d="M10.55,120.39h0Z" transform="translate(2.62)" fill="#110802"/>
            <path d="M10.55,120.39Z" transform="translate(2.62)" fill="#110802"/>
            <path d="M10.43,120.38h0Z" transform="translate(2.62)" fill="#110802"/>
            <path d="M10.33,120.38h0Z" transform="translate(2.62)" fill="#110802"/>
            <path d="M4.33,119.55s0,0,0,0S4.33,119.56,4.33,119.55Z" transform="translate(2.62)" fill="#110802"/>
            <path d="M24.61,163.64c-1.57-.06-3.14-.23-4.7-.39s-3-.33-4.53-.53a1.44,1.44,0,1,1,.41-2.85c2.53.26,5.07.5,7.61.7h0c1.31.09,2.62.17,3.94.16s2.85,0,4.28-.11c3.15-.19,6.29-.52,9.42-.86s6.18-.69,9.25-1.16l.63-.1.12,0a4.17,4.17,0,0,1,1.41-.4c.66-.11,1.33-.18,2-.26,1.47-.17,2.93-.34,4.4-.49,3-.31,6.09-.58,9.11-1,1.06-.15,2.11-.32,3.16-.5,1.39-.29,2.78-.63,4.15-1l1.56-.47a1.56,1.56,0,0,1-.76-1.15,1.68,1.68,0,0,1,.76-1.6,4.15,4.15,0,0,1,1.14-.44c.69-.21,1.4-.36,2.09-.53,3-.71,5.92-1.35,8.84-2.18,1.6-.45,3.19-.93,4.76-1.46a66.67,66.67,0,0,0,6.49-2.69h0a59.24,59.24,0,0,0,6.09-3.5l.19-.13.26-.18h0l0,0h0l.18-.12-.16.11c1.77-1.23,3.46-2.55,5.1-4a41.7,41.7,0,0,0,3.09-3c.43-.51.83-1,1.22-1.56a32.05,32.05,0,0,0,1.59-2.8l-.08.16a16.69,16.69,0,0,0,.73-1.54s0,0,0-.06v-.22h0v0h0s0-.09,0-.14v0h0v0a1.41,1.41,0,0,1,2.81.2v0a3.24,3.24,0,0,1-.11,1.12,12.71,12.71,0,0,1-.93,2,23.8,23.8,0,0,1-2.43,4A27.34,27.34,0,0,1,114.5,138q-1.74,1.58-3.6,3c-.82.64-1.66,1.25-2.53,1.84a1.88,1.88,0,0,0-.23.16,58.58,58.58,0,0,1-8.1,4.56,67.11,67.11,0,0,1-9,3.3c-2.13.64-4.3,1.18-6.47,1.69l-2.23.52a1.44,1.44,0,0,1,.18.25,1.71,1.71,0,0,1-.38,2.08,3.68,3.68,0,0,1-1.34.71l-1.25.43c-.77.26-1.56.51-2.34.75a51.25,51.25,0,0,1-9,2q-4.08.53-8.18.91c-1.32.13-2.64.27-4,.43s-2.38.22-3.56.43a2.8,2.8,0,0,1-.92.33c-.41.09-.83.15-1.25.22l-2.43.34c-1.51.2-3,.37-4.54.56-3.17.38-6.36.71-9.54,1-1.55.13-3.09.2-4.64.24l-1.18,0C26.85,163.72,25.73,163.68,24.61,163.64Z" transform="translate(2.62)" fill="#110802"/>
            <path d="M23.39,160.57h0Z" transform="translate(2.62)" fill="#110802"/>
            <path d="M23.38,160.57h0Z" transform="translate(2.62)" fill="#110802"/>
            <path d="M87,134.72l.65-.5a14.75,14.75,0,0,0,3.09-3,10.51,10.51,0,0,0,1.93-4.26,12.58,12.58,0,0,0,.2-2.29,8.16,8.16,0,0,0-.4-2.45A11.21,11.21,0,0,0,90.11,118a6,6,0,0,0-3.74-1.94,11.91,11.91,0,0,0-3.76.27,25.44,25.44,0,0,0-4.09,1.26c-1.34.53-2.66,1.11-3.94,1.76-.63.33-1.22.69-1.82,1s-1.13.64-1.7,1c-2.44,1.32-4.87,2.67-7.36,3.9h0c-1.28.63-2.58,1.22-3.89,1.77a1.68,1.68,0,0,0-.67-.83,12.82,12.82,0,0,0-1.75-.84c-.65-.3-1.29-.63-1.94-1A37.7,37.7,0,0,1,51.55,122l0,0a27.12,27.12,0,0,1-2.86-2.12,41.23,41.23,0,0,1-3.38-3.61l-.42-.48.13.15a25.7,25.7,0,0,1-1.9-2.5l0,0c-.65-1-1.3-2-1.9-3s-1.18-2.14-1.73-3.22a41.15,41.15,0,0,1-1.56-3.84c-.44-1.17-.87-2.35-1.28-3.54,0,0,0,0,0,0a.36.36,0,0,1,0-.11h0a.79.79,0,0,0,0-.09,34.76,34.76,0,0,1-1.14-4.23v0c-.31-1.66-.5-3.33-.66-5s-.33-3.38-.45-5.08a58,58,0,0,1,.19-7.34c.08-1.08.19-2.15.36-3.22s.38-2.07.59-3.11a.44.44,0,0,0,0-.1c.3-1.35.64-2.7,1-4a5.92,5.92,0,0,0,.45-2c.22-.56.45-1.13.68-1.68.52-1.26,1-2.53,1.63-3.75a73.2,73.2,0,0,1,4.37-7.52,55.11,55.11,0,0,1,4.07-5.2l.11-.12a66,66,0,0,1,5.54-5.8,68,68,0,0,1,6.73-5.22,62.25,62.25,0,0,1,6.63-3.82,49.68,49.68,0,0,1,5.69-2.4l.07,0h0a40.6,40.6,0,0,1,4-1.09l3.81-.8a30.93,30.93,0,0,1,3.59-.47c1.39-.08,2.78,0,4.17,0,1.18,0,2.35,0,3.53.13a51.07,51.07,0,0,1,6.29.83c1.85.4,3.68.85,5.5,1.4.84.25,1.68.54,2.51.82s1.83.59,2.74.9l.12,0c1.07.38,2.14.8,3.2,1.21s2,.84,3,1.33A64.63,64.63,0,0,1,121.38,38l.14.1,0,0s0,0,0,0c1.71,1.17,3.39,2.39,5.11,3.56a4.37,4.37,0,0,1,.44.31,1.19,1.19,0,0,0,.09.36,2.66,2.66,0,0,0,.62.84l.52.49,0,0,0,0,.07.07s0,0,0,0a.93.93,0,0,0,.15.13c.39.36.76.75,1.12,1.15h0a.1.1,0,0,0,0,0c1,1.13,1.89,2.28,2.77,3.47s1.7,2.28,2.51,3.45l.06.1v0h0l0,0a39.07,39.07,0,0,1,2.33,4.08,30.32,30.32,0,0,1,1.54,3.74c.74,2.19,1.37,4.41,1.92,6.65s1.1,4.28,1.53,6.45a.3.3,0,0,1,0,.1c.24,1.23.45,2.48.6,3.73s.22,2.38.29,3.58a53,53,0,0,1,0,6.3,34.6,34.6,0,0,1-.64,4.42,53.86,53.86,0,0,1-1.74,6.11,50.31,50.31,0,0,1-2.23,5.3,72.11,72.11,0,0,1-4.46,7.78,60.34,60.34,0,0,1-3.75,4.93.57.57,0,0,1-.11.11,60,60,0,0,1-5.45,5.25l0,0a64.14,64.14,0,0,1-6.2,4.93c-1.12.74-2.29,1.41-3.47,2.06s-2.28,1.26-3.45,1.85a44.54,44.54,0,0,1-4.85,2,48.8,48.8,0,0,1-6.11,1.55l.2,0-.54.11h0l-1.47.29h0c-1.14.22-2.32.36-3.47.54-.73.12-1.45.26-2.18.35s-1.42.14-2.13.18c-1,.06-2.08.08-3.12.08ZM67.5,96a27.11,27.11,0,0,0-2.1,2c-1,1-1.94,2.09-2.92,3.12s-1.84,1.93-2.75,2.9-1.62,1.79-2.47,2.65a10.58,10.58,0,0,0-1.81,2.09,1.43,1.43,0,0,0,.15,1.65,1.13,1.13,0,0,0,0,.41A1.45,1.45,0,0,0,57,112.16l.21,0a1.69,1.69,0,0,0,.45-.14l-.08,0a1.59,1.59,0,0,0,.26-.14l.25,0c1.11-.05,2.22,0,3.33,0,2.85.06,5.71.1,8.56,0s5.83-.26,8.76-.27,5.84,0,8.76-.14c1.43-.06,2.86-.16,4.29-.2s2.73,0,4.09-.08q3.8-.09,7.57,0c2.29,0,4.58,0,6.87.06a1.44,1.44,0,0,0,1.23-.68,1.63,1.63,0,0,0,.62-.36,10.07,10.07,0,0,0,.92-1.13c.39-.5.79-1,1.18-1.46s.94-1.23,1.42-1.83,1-1.19,1.5-1.77h0l0,0c.62-.7,1.26-1.37,1.89-2.06s1.41-1.65,2.07-2.52c.3-.39.59-.79.86-1.21a6.77,6.77,0,0,0,.52-.9,1.65,1.65,0,0,0,0-1.5,1.47,1.47,0,0,0-1.29-.75h0a1.66,1.66,0,0,0-.67.17,1.35,1.35,0,0,0-.89-.34l-1.69,0c-1.12,0-2.24,0-3.35,0-1.33,0-2.65-.05-4-.09-2.76-.1-5.53-.17-8.3-.17-1.34,0-2.67,0-4,0H93.88c-2.81,0-5.62,0-8.43,0-1.34,0-2.69,0-4,.06s-2.92.11-4.38.11-2.93,0-4.39,0l-2.17,0c-.25,0-.5,0-.74,0h-.08a1,1,0,0,0-.34.09l-.17.08h0a1.22,1.22,0,0,0-.37.3l-.15,0h0A4.1,4.1,0,0,0,67.5,96ZM57.34,72.82h0a2.41,2.41,0,0,0-1.4,1.42A1.41,1.41,0,0,0,56,75h0a0,0,0,0,0,0,0l.06.13a12.25,12.25,0,0,0,.78,1.36l0,0h0a45.68,45.68,0,0,0,4.69,5.7l2.27,2.41c.7.72,1.39,1.44,2.06,2.19.53.6,1,1.24,1.5,1.88a1.33,1.33,0,0,0,.62.46,1.4,1.4,0,0,0,1.14.95l.16,0h.26l.63,0,2-.07c1.41,0,2.82-.09,4.23-.09H81L85.43,90c1.47,0,2.94-.1,4.42-.12.77,0,1.54,0,2.32,0H94.3l4.33-.07c2.83,0,5.65-.13,8.48-.27,2.63-.13,5.26-.24,7.9-.2,1.82,0,3.64.09,5.47,0a1.45,1.45,0,0,0,1.39-1,1.43,1.43,0,0,0,.52-1.74,13.1,13.1,0,0,0-1-1.57c-.53-.82-1.1-1.59-1.68-2.37a65.67,65.67,0,0,0-5.28-5.92c-1-1-1.94-2-3-2.94a4.33,4.33,0,0,0-1.67-1.11,1.81,1.81,0,0,0-1.35.12h-.58q-3.42,0-6.84,0c-1.36,0-2.73,0-4.09,0s-2.91,0-4.36,0-2.78-.07-4.17-.08-3,0-4.52,0-2.88.06-4.32.12-3,.09-4.49.1-2.92,0-4.39,0-2.95-.08-4.43-.09-3,0-4.44,0c-.75,0-1.5,0-2.25.05-.54,0-1.09.06-1.63,0H57.7A2.2,2.2,0,0,0,57.34,72.82Zm42.8-5.27c1.4,0,2.81.17,4.21.27,1.23.07,2.47.14,3.7.23.31,0,.63.06.94.06a2.36,2.36,0,0,0,.38,0,3.23,3.23,0,0,0,1-.31,11.25,11.25,0,0,0,1.85-1.12,8.14,8.14,0,0,0,1.25-1.17c1.48-1.63,3-3.24,4.45-4.92,1-1.09,1.9-2.19,2.82-3.32.47-.58.94-1.15,1.35-1.77a11.62,11.62,0,0,0,.71-1.11,3.2,3.2,0,0,0,.45-1.14,2,2,0,0,0-.72-1.78,2.46,2.46,0,0,0-1.31-.52c-.86-.1-1.74-.1-2.6-.14-2.73-.11-5.45-.23-8.18-.25s-5.5,0-8.25,0c-2.93,0-5.85,0-8.78,0-1.5,0-3,0-4.5,0l-4.53.09c-1.47,0-2.95.07-4.43.09s-2.81,0-4.22,0-2.74,0-4.1,0c-.66,0-1.33,0-2,.09a1.73,1.73,0,0,0-1.25.61l-.06.1a10.88,10.88,0,0,0-1.58,1.45c-1,1-2.1,2.12-3.11,3.21s-1.94,2.1-2.94,3.13S58.9,61.08,58,62a28.57,28.57,0,0,0-2.14,2.26,1.32,1.32,0,0,0-.3.89,1.4,1.4,0,0,0-.32.72,1.48,1.48,0,0,0,1.23,1.63,12.94,12.94,0,0,0,2.07.17c5.49.23,11,.08,16.49.06,2.81,0,5.61-.09,8.42-.17,1.4,0,2.8-.07,4.19,0s2.7.07,4,.07c1.16,0,2.31,0,3.47,0l2.81,0Z" transform="translate(2.62)" fill="#282828"/>
            <path d="M63.73,125.29h0Z" transform="translate(2.62)" fill="#98d7c3"/>
            <path d="M72.18,121.08a2.09,2.09,0,0,1-.13,1.57,2.62,2.62,0,0,1-.76.83,22.33,22.33,0,0,1-3,1.76c-1.2.63-2.41,1.25-3.64,1.82a26.71,26.71,0,0,1-3.55,1.35c-.65.21-1.29.46-2,.63a3.5,3.5,0,0,1-.64.08H58.3a4.2,4.2,0,0,1-.59-.14,5.53,5.53,0,0,1-.94-.4c-.73-.39-1.43-.82-2.13-1.25q-1.94-1.2-3.78-2.56c-.84-.63-1.65-1.29-2.43-2-.44-.39-.87-.8-1.29-1.22C46,120.43,45,119.23,44,118c-.43-.5-.83-1-1.22-1.55-1-1.31-1.82-2.7-2.67-4.09s-1.56-2.63-2.26-4a58.87,58.87,0,0,1-3.48-9,53.32,53.32,0,0,1-2-9.35c-.2-1.59-.32-3.2-.4-4.81a39,39,0,0,1,0-4.59c.1-1.6.34-3.19.58-4.76a45.35,45.35,0,0,1,.87-4.74,15,15,0,0,1,.84-2.19c.29-.66.55-1.34.81-2,.52-1.32,1-2.66,1.46-4s1-2.88,1.59-4.27c.32-.73.71-1.42,1.09-2.12s.67-1.25,1-1.86a39.4,39.4,0,0,1,2.67-3.89c.87-1.13,1.83-2.18,2.76-3.26.47-.55.94-1.08,1.43-1.62a9.19,9.19,0,0,1,1.11-1.14h0a3.6,3.6,0,0,1,.58-.32l.19-.07c.15-.63.31-1.25.49-1.88a12.66,12.66,0,0,1,.59-1.9,1.53,1.53,0,0,1,1.13-1,1.46,1.46,0,0,1,1.47.64l.09.16c.07.63.19.81,0,1.23l-.12.38a66.75,66.75,0,0,0-1.67,7.28c-.35,2.25-.63,4.49-.85,6.75s-.31,4.67-.39,7-.09,4.4,0,6.59.18,4.64.39,7c.16,1.4.36,2.79.6,4.18s.61,2.89.94,4.33A110.9,110.9,0,0,0,55,96a68.28,68.28,0,0,0,3.55,7.55,66.79,66.79,0,0,0,4,6,71.79,71.79,0,0,0,5.42,6.75c.58.6,1.16,1.2,1.76,1.77s1.06,1,1.57,1.51A4.06,4.06,0,0,1,72.18,121.08Z" transform="translate(2.62)" fill="#110802" fill-opacity="0.25"/>
            <path d="M57.55,127.68a1.51,1.51,0,0,1,.16,1.29,1,1,0,0,1-.09.24.71.71,0,0,1-.11.17,1.13,1.13,0,0,1,0,.18A1.5,1.5,0,0,1,56,130.71h-.08a7.83,7.83,0,0,1-2.42-.61c-.4-.17-.8-.34-1.19-.53a12,12,0,0,1-3.35-1.16,4.82,4.82,0,0,1-1.11-.85,3.77,3.77,0,0,1-1-1.5,2.87,2.87,0,0,1,.13-2,2.61,2.61,0,0,1,.94-1,3.16,3.16,0,0,1,.52-.26,1.91,1.91,0,0,1,1.62,0,1.81,1.81,0,0,1,.93,1.55l.13.07c1.29.72,2.64,1.34,4,1.95.36.17.73.33,1.11.47A2.31,2.31,0,0,1,57.55,127.68Z" transform="translate(2.62)" fill="#110802" fill-opacity="0.25"/>
            <path d="M118,129.73a3.86,3.86,0,0,1-.77,2.85,15.2,15.2,0,0,1-3.15,3.59,36.15,36.15,0,0,1-3.49,2.79l-1.18.8a.61.61,0,0,1-.07.14,2.82,2.82,0,0,1-.84.88l-1,.77,0,0-.12.08,0,0a28.76,28.76,0,0,1-3.17,2,1.62,1.62,0,0,1-.23.56,1.45,1.45,0,0,1-.88.57h0c-.6.26-1.18.61-1.77.9s-1.41.66-2.12,1a47.11,47.11,0,0,1-4.46,1.71A90.41,90.41,0,0,1,85.35,151c-1.51.33-3,.62-4.55.92l-1.28.5-.49.32-.15.13a4.6,4.6,0,0,1-.52.47,5.66,5.66,0,0,1-1.24.72,26.68,26.68,0,0,1-4.05,1.23c-3,.78-6.11,1.4-9.19,1.94-1.5.27-3,.52-4.5.78s-2.8.51-4.2.74-3.11.47-4.67.62-2.9.23-4.34.37c-3.12.34-6.19.94-9.3,1.36-1.57.21-3.15.42-4.74.56-1.32.12-2.64.14-4,.14h-.73a76.22,76.22,0,0,1-9.32-.39,30.08,30.08,0,0,1-4.78-1.09l-1.71-.52c-.21,0-.41-.09-.62-.15a11.09,11.09,0,0,1-2-.86,8,8,0,0,1-1.79-1.3c-.16-.16-.31-.33-.45-.49L6,156.28c-.92-.84-1.86-1.67-2.71-2.59a17.13,17.13,0,0,1-1.14-1.41,3.2,3.2,0,0,1-1-2.43,1.62,1.62,0,0,1,1.11-1.21,2.13,2.13,0,0,1,1.36.11c.48.17,1,.34,1.45.49,1.58.48,3.19.86,4.78,1.24s3.44.72,5.17,1l.07,0a93.53,93.53,0,0,0,11,1.08h.11l.8,0c3.12.09,6.24.08,9.36,0s6.33,0,9.49-.21c2.51-.13,5-.31,7.52-.4,1.22,0,2.44-.08,3.66-.14,1,0,2-.13,2.94-.22s1.71-.37,2.56-.57h0a52.87,52.87,0,0,0,5.72-1.84,31.69,31.69,0,0,0,3.61-1.64c.45-.27.88-.56,1.31-.86a16.61,16.61,0,0,0,1.43-1.21c1.17-1.15,2.28-2.38,3.33-3.63v-.27l-.06-.34-.07-.22,0,0a2.88,2.88,0,0,1-.66-.15l.14,0a1.62,1.62,0,0,1-.49-.25h-.24a8,8,0,0,1-1.1-.06,1.43,1.43,0,0,1-.52-.23,1.5,1.5,0,0,1-.6-1.31,1.41,1.41,0,0,1,1-1.22,3.11,3.11,0,0,1,.44-.08h0a3.9,3.9,0,0,1,1.23-.64q.54-.21,1.08-.45c.76-.33,1.53-.67,2.29-1,1.36-.63,2.7-1.29,4-2l.46-.25a42,42,0,0,0,3.64-2.21,1.47,1.47,0,0,1,.59-1.71h0c.22-.17.44-.37.65-.56l.12-.12a1.33,1.33,0,0,1-.21-.68,1.49,1.49,0,0,1,.38-1l.08-.09a1.57,1.57,0,0,1,.53-.31,2.8,2.8,0,0,1,1.29-.07l.28,0,.22-.1A1.62,1.62,0,0,1,94,127a.94.94,0,0,1,.1.1,67.47,67.47,0,0,0,7.65.66c1.81.06,3.61.06,5.42,0s3.67-.27,5.49-.46c1-.11,2-.26,3.07-.45a2.25,2.25,0,0,1,.69-.07,1.51,1.51,0,0,1,1.11,2.32A1.73,1.73,0,0,1,118,129.73Z" transform="translate(2.62)" fill="#110802" fill-opacity="0.25"/>
            <path d="M121.53,100.36l-11.38,11.89a2.58,2.58,0,0,1-.88.61,2.7,2.7,0,0,1-1,.21H54.27a1.35,1.35,0,0,1-.73-.21,1.3,1.3,0,0,1-.48-.56,1.26,1.26,0,0,1-.1-.74,1.44,1.44,0,0,1,.34-.66L64.69,99a2.81,2.81,0,0,1,.88-.6,2.7,2.7,0,0,1,1.05-.21h53.95a1.32,1.32,0,0,1,.72.21,1.21,1.21,0,0,1,.49.56,1.3,1.3,0,0,1,.09.73A1.2,1.2,0,0,1,121.53,100.36Zm-10.27-25a2.64,2.64,0,0,0-1.93-.82h-54a1.34,1.34,0,0,0-.72.21,1.26,1.26,0,0,0-.58,1.3,1.35,1.35,0,0,0,.34.66L65.8,88.55a2.65,2.65,0,0,0,.87.6,2.75,2.75,0,0,0,1.06.21h53.94a1.35,1.35,0,0,0,.73-.21,1.33,1.33,0,0,0,.49-.56,1.3,1.3,0,0,0,.09-.73,1.27,1.27,0,0,0-.34-.66ZM55.37,65.66h54a2.64,2.64,0,0,0,1.93-.82L122.64,53a1.27,1.27,0,0,0,.34-.66,1.3,1.3,0,0,0-.09-.73,1.33,1.33,0,0,0-.49-.56,1.35,1.35,0,0,0-.73-.21H67.73a2.75,2.75,0,0,0-1.06.21,2.65,2.65,0,0,0-.87.6L54.41,63.49a1.33,1.33,0,0,0-.33.66,1.15,1.15,0,0,0,.09.73,1.29,1.29,0,0,0,1.2.78Z" transform="translate(2.62)" fill="url(#linear-gradient)"/>
          </g>
        </g>
      </g>
    </g>
  </g>
</svg>
