<svg xmlns="http://www.w3.org/2000/svg" xmlns:xlink="http://www.w3.org/1999/xlink" width="175.28" height="176.46" viewBox="0 0 175.28 176.46">
  <defs>
    <clipPath id="clip-path">
      <circle cx="87.64" cy="87.64" r="87.64" fill="none"/>
    </clipPath>
  </defs>
  <g id="Layer_2" data-name="Layer 2">
    <g id="Vector_layer" data-name="Vector layer">
      <g>
        <circle cx="87.64" cy="87.64" r="87.64" fill="#98d7c3"/>
        <g clip-path="url(#clip-path)">
          <g>
            <path d="M63.1,115.78a2.69,2.69,0,0,1-.36,1.79,7.67,7.67,0,0,1-1.37,1.79,15.76,15.76,0,0,1-3.09,2.37,25.67,25.67,0,0,1-3.6,1.79,33.84,33.84,0,0,1-3.88,1.39,13.51,13.51,0,0,1-2.28.44c-.56.06-1.11.08-1.67.09-.85,0-1.71.07-2.56.15l-.48.08s0,.1,0,.15a1.52,1.52,0,0,1,.28.33,2.65,2.65,0,0,1,.32,1.2c0,.36.06.7.08,1.06.06.87.13,1.73.18,2.6,0,.06,0,.11,0,.16.3,2.29.63,4.57.93,6.86l.81,6.28c0,.24.09.48.13.72.28,1.48.47,3,.66,4.47s.45,3,.7,4.44.46,3,.67,4.54.47,2.91.67,4.38a29.59,29.59,0,0,1,.25,4.31,3.13,3.13,0,0,1-.77,2.57,1.86,1.86,0,0,1-1.07.42A4.28,4.28,0,0,1,46,171a15,15,0,0,1-2.32.42l-.25,0h-.37a12.9,12.9,0,0,1-1.75-.14,13.09,13.09,0,0,1-4.57-1.42,15.1,15.1,0,0,1-3.56-2.69,12.21,12.21,0,0,1-2.71-3.86,18.6,18.6,0,0,1-1.16-4,26.13,26.13,0,0,1-.26-3.95c0-.12,0-.24,0-.36a1.56,1.56,0,0,1,.13-.68c-.06-.85-.07-1.71-.1-2.56-.05-1.41-.15-2.82-.22-4.24s-.15-3-.28-4.54c-.1-1.24-.23-2.48-.28-3.72s-.1-2.55-.17-3.83c-.13-2.47-.4-4.95-.65-7.41l0-.21c-.16-1.47-.35-2.93-.53-4.39a43,43,0,0,1-.29-4.39,25.63,25.63,0,0,1,.24-4.38,8.5,8.5,0,0,1,.42-1.65,1.6,1.6,0,0,1-.21-.54A1.54,1.54,0,0,1,28,110.8c.3-.13.61-.23.91-.35.8-.32,1.58-.67,2.37-1a15.64,15.64,0,0,1,1.73-.64c.62-.19,1.26-.32,1.89-.47a26.53,26.53,0,0,0,2.75-.86l0,0a39.08,39.08,0,0,0,3.83-1.78,5.25,5.25,0,0,1,2.51-1,5,5,0,0,1,2,.56l.64.3c.88.4,1.73.86,2.6,1.26,1.67.72,3.4,1.25,5.06,2a26.3,26.3,0,0,1,5.91,3.4,11.33,11.33,0,0,1,2.35,2.39A4.11,4.11,0,0,1,63.1,115.78Z" fill="#98d7c3"/>
            <path d="M91.81,132.44a13,13,0,0,0-.5,1.95c-.1.5-.17,1-.27,1.48s-.27,1.07-.4,1.61c-.26,1.11-.49,2.23-.71,3.35q-.44,2.19-.72,4.41c-.19,1.47-.26,2.95-.41,4.42l0,.26c-.11.63-.22,1.27-.32,1.91,0-.05,0-.09,0-.14a2.68,2.68,0,0,1,0,.3l0-.05a37.15,37.15,0,0,0-.48,4.21l0,1.16c0,.31,0,.63-.06.94,0,.66-.06,1.32-.07,2-.13,2-.31,4-.43,6-.06.95-.07,1.9-.16,2.85a1,1,0,0,0-.35.19,2.19,2.19,0,0,0-.9,2.05,6.48,6.48,0,0,0,.21,1.52h0l-.16.26c-.17.24-.36.46-.54.69A7.88,7.88,0,0,1,83,176a6.94,6.94,0,0,1-3.39.31c-1.25,0-2.5,0-3.75,0s-2.55.14-3.83.14h-.63a1.87,1.87,0,0,1-1.87-1.77,8.56,8.56,0,0,1,.06-1.13c.11-1.26.24-2.52.38-3.77.16-1.53.34-3.06.54-4.58s.42-3,.64-4.44c.44-3,.61-6.07.9-9.1.19-2,.44-4,.53-6a18.9,18.9,0,0,0-.06-2c0-.15,0-.29-.08-.44a1.68,1.68,0,0,1-.5,0,1.7,1.7,0,0,1-1.47-1.69,5.11,5.11,0,0,1,.15-1.29c.13-.65.31-1.29.47-1.94.35-1.37.69-2.74,1-4.11.17-.67.34-1.34.52-2s.35-1.2.5-1.81a1.11,1.11,0,0,1,.15-.43h0a.41.41,0,0,1,0-.09,1.41,1.41,0,0,1,.82-.62,1.27,1.27,0,0,1,.34,0,1.53,1.53,0,0,1,.69.17l.29,0c.43.08.86.14,1.29.2h0c.73.22,1.42.55,2.14.78l.55.13c.61.09,1.23.13,1.84.19l2,.22c.65.08,1.3.15,1.94.24s1.17.18,1.76.23c1,.09,2.06.06,3.08.15A2.08,2.08,0,0,1,91.81,132.44Z" fill="#d1a173"/>
            <path d="M149.62,141.42a9.31,9.31,0,0,1,0,1.18,4.15,4.15,0,0,1-.07.79,1.61,1.61,0,0,1-.7,1,1.59,1.59,0,0,1-1.12.22c0,.53.08,1.06.14,1.6.14,1.3.36,2.58.48,3.88.11,1.08.22,2.18.25,3.27a4.93,4.93,0,0,1-1.23,3.51c-.34.42-.69.83-1,1.24s-.49.52-.74.77c-.48.45-1,.88-1.5,1.3s-1.08.93-1.64,1.38a41.46,41.46,0,0,1-3.81,2.62,62.39,62.39,0,0,1-8.55,4.34,36.11,36.11,0,0,1-5.73,1.85c-1.76.42-3.53.8-5.3,1.22-1.48.38-2.94.85-4.42,1.25s-3.12.74-4.68,1.09-2.94.69-4.43.93-3.08.52-4.64.66c-.91.09-1.83.11-2.75.11s-1.91,0-2.87-.05c-1.56,0-3.12-.12-4.67-.27-1.34-.13-3.06-.25-3.95-1.41a3.08,3.08,0,0,1-.52-1.06h0A6.48,6.48,0,0,1,86,171.3a2.19,2.19,0,0,1,.9-2.05,1,1,0,0,1,.35-.19,1.38,1.38,0,0,1,.64-.08c0-.74,0-1.48,0-2.22,0-2.17-.1-4.35-.06-6.53,0-.66,0-1.32.07-2,0-.31,0-.63.06-.94.08-1.09.19-2.17.32-3.25.17-1.38.38-2.76.53-4.14l0-.26c.15-1.47.22-2.95.41-4.42s.43-3,.72-4.41c.22-1.12.45-2.24.71-3.35.13-.54.28-1.07.4-1.61s.17-1,.27-1.48a13,13,0,0,1,.5-1.95,9.63,9.63,0,0,1,.43-1.05c-.54,0-1.08-.08-1.63-.16h0L89.34,131c-1.37-.22-2.76-.29-4.14-.45s-2.58-.18-3.87-.34-2.73-.43-4.1-.61l-.44-.06c-.43-.06-.86-.12-1.29-.2l-.42-.08a18.27,18.27,0,0,1-2-.56,8,8,0,0,1-2.81-1.94l-1-1a3.5,3.5,0,0,1-1.11-1.53,5.92,5.92,0,0,1,0-2.68,23.24,23.24,0,0,1,.8-2.94c.27-.84.62-1.65,1-2.47.43-1.07.87-2.13,1.35-3.19l0,.1a56.48,56.48,0,0,1,3.86-7.4c.79-1.21,1.6-2.39,2.43-3.56s1.73-2.43,2.66-3.6c.48-.61,1-1.2,1.47-1.78s1-1,1.41-1.55C84,94.06,85,92.89,86,91.76s1.89-2,2.87-3l3-3c2.11-2.12,4.23-4.23,6.24-6.46A42,42,0,0,1,101.41,76a6,6,0,0,1,3.27-1.86,3.06,3.06,0,0,1,2,.56h0l0,0,0,0h0c.1,0,.2.11.3.15l.25.1.44.1c.91.14,1.83.24,2.74.37a29.4,29.4,0,0,0,3.37.36c.69,0,1.37,0,2,0s1.38.06,2.07.09c1,0,1.89,0,2.83,0,.7,0,1.41,0,2.1-.1s1.41-.21,2.1-.34,1.52-.31,2.27-.49c1-.24,1.87-.57,2.81-.84a5.74,5.74,0,0,1,1.8-.23,4.47,4.47,0,0,1,1.08.2,4.72,4.72,0,0,1,.69.24,2.77,2.77,0,0,1,1,1c.36.5.68,1,1,1.55a40.61,40.61,0,0,1,2.83,5A30.66,30.66,0,0,1,139.7,85c.41,1.22.87,2.42,1.23,3.65.4,1.38.7,2.78,1,4.19s.51,2.6.76,3.91c.35,1.84.64,3.7,1.06,5.53a1.94,1.94,0,0,1,.05.2c.43,1.71.94,3.39,1.32,5.11a39.8,39.8,0,0,1,.51,4.62c.14,1.37.33,2.73.58,4.09.15.84.29,1.69.42,2.54.25.59.48,1.18.69,1.78a27.5,27.5,0,0,1,1.2,4.53c.26,1.52.41,3.06.56,4.6s.31,3,.37,4.49c.09,1.9,0,3.81,0,5.72C149.52,140.43,149.57,140.92,149.62,141.42Z" fill="#d1c9b6"/>
            <path d="M107.62,70.58a15.37,15.37,0,0,1-2.34-.26l-2.19-.4a14.38,14.38,0,0,1-2-.54c-.67-.23-1.32-.51-2-.78A16.15,16.15,0,0,1,97,67.52a9.41,9.41,0,0,1-1.77-1.37,8.82,8.82,0,0,1-2.49-4.09,7.19,7.19,0,0,1-.24-2.31,8.19,8.19,0,0,1,.65-2.37,13.81,13.81,0,0,1,1-2,10.39,10.39,0,0,1,1.36-1.87A8.33,8.33,0,0,1,97.39,52a9.5,9.5,0,0,1,2.27-1,13.23,13.23,0,0,1,3-.3,18.38,18.38,0,0,1,3,.26h0l.15,0h0a21.68,21.68,0,0,1,3.71,1,20.1,20.1,0,0,1,3.4,1.56c2,1.15,3.81,2.59,5.76,3.81a4.1,4.1,0,0,0,.41.22l.09,0h.05A1.41,1.41,0,0,1,120.4,59a1.44,1.44,0,0,1-1.29,1.46,2.44,2.44,0,0,1-1.18-.22,12.45,12.45,0,0,1-1.86-1.1c-1.37-.89-2.71-1.84-4.1-2.7a17.26,17.26,0,0,0-1.75-.93c-.93-.4-1.87-.76-2.83-1.07a19.88,19.88,0,0,0-2.25-.54,16.87,16.87,0,0,0-1.88-.2,20.79,20.79,0,0,0-2.23.09l-.55.1-.62.2c-.23.09-.45.2-.67.31s-.53.33-.79.51l-.22.19c-.24.24-.47.49-.7.76s-.38.53-.56.81a15.72,15.72,0,0,0-.75,1.4c-.16.39-.31.78-.45,1.18a6,6,0,0,0-.15.61s0,.06,0,.09c0,.24,0,.49,0,.73s0,.23,0,.34a.57.57,0,0,0,0,.14,6.83,6.83,0,0,0,.23.73c0,.12.11.24.17.36s.23.39.35.57a11.9,11.9,0,0,0,.79.94c.18.18.36.36.55.52a11.38,11.38,0,0,0,1.11.75l-.17-.1c.41.24.82.47,1.24.67a26.44,26.44,0,0,0,2.56,1,37.63,37.63,0,0,0,3.8.78c.43.06.86.1,1.29.14,1.54,0,3.08-.12,4.63-.19a1.48,1.48,0,0,1,.3,2.94,40.11,40.11,0,0,1-4.64.37Z" fill="#110802"/>
            <path d="M119.27,57.63h0Z" fill="#110802"/>
            <path d="M127,71.43a1.46,1.46,0,0,1-.21-2.9l4.15-.56c1.36-.18,2.74-.34,4.08-.65.39-.11.77-.24,1.14-.38a13.83,13.83,0,0,0,1.56-.72l.34-.21.24-.2.25-.29h0c.16-.23.32-.45.47-.68s.31-.54.45-.82.13-.33.19-.5l0-.11c0-.24.06-.48.07-.72s0-.41,0-.62-.06-.42-.1-.63-.18-.57-.28-.85v0h0l0,0v0h0v0h0c-.08-.18-.16-.35-.25-.52a7.92,7.92,0,0,0-.42-.69c-.13-.16-.26-.32-.4-.47l-.4-.37c-.31-.24-.64-.46-1-.67a14.63,14.63,0,0,0-1.3-.69l.18.08a23.75,23.75,0,0,0-2.3-.89h0c-.4-.12-.81-.22-1.22-.3a17.8,17.8,0,0,0-1.79-.19,18.9,18.9,0,0,0-2.26.06l.19,0a62.54,62.54,0,0,0-7.53,1.46c-.88.22-1.76.43-2.61.73l-.14.11a1.42,1.42,0,0,1-1.45,0,.57.57,0,0,1-.13-.08,1.24,1.24,0,0,1-.26-.25,1.15,1.15,0,0,1-.21-.33h0a1.12,1.12,0,0,0,0-.13l0,.05a1.61,1.61,0,0,1-.09-.92,1.82,1.82,0,0,1,1.28-1.23,18.26,18.26,0,0,1,2.15-.64c1.52-.38,3-.72,4.56-1a40.72,40.72,0,0,1,4.4-.71,18.67,18.67,0,0,1,3.81.08A15.92,15.92,0,0,1,136.21,54a13.51,13.51,0,0,1,3.65,2.09,8.55,8.55,0,0,1,2.5,3.68,7.61,7.61,0,0,1,.48,2.25,6.68,6.68,0,0,1-.27,2.52,8.79,8.79,0,0,1-.79,1.67,8.68,8.68,0,0,1-1.22,1.68,9.73,9.73,0,0,1-3.55,2,16.59,16.59,0,0,1-3.88.84c-1.38.17-2.76.34-4.14.48l.2,0c-.7.07-1.4.14-2.11.19Z" fill="#110802"/>
            <path d="M139.33,60.43Z" fill="#110802"/>
            <path d="M139.33,60.43h0Z" fill="#110802"/>
            <path d="M139.34,60.45h0Z" fill="#110802"/>
            <path d="M138.58,65.49h0Z" fill="#110802"/>
            <path d="M139.38,60.56Z" fill="#110802"/>
            <path d="M139.38,60.56Z" fill="#110802"/>
            <path d="M139.38,60.55h0Z" fill="#110802"/>
            <path d="M139.33,60.43h0v0Z" fill="#110802"/>
            <path d="M139.33,60.43h0Z" fill="#110802"/>
            <path d="M139.33,60.43Z" fill="#110802"/>
            <path d="M116,57.27v0Z" fill="#110802"/>
            <path d="M118.48,76.91c-1.56,0-3.11-.08-4.66-.2a39.2,39.2,0,0,1-4.3-.67A40.22,40.22,0,0,1,105.61,75a2.94,2.94,0,0,1-1.54-.82,2.27,2.27,0,0,1-.4-1.7c0-.38.1-.76.13-1.15s.09-1,.11-1.49h0a6.18,6.18,0,0,1,0-.86,1.5,1.5,0,0,1,.38-.85,1.29,1.29,0,0,1,.62-.4,1.59,1.59,0,0,1,.38-.07,3.2,3.2,0,0,1,.54.09,1.35,1.35,0,0,1,.79.73,1.39,1.39,0,0,1,.12.38c0,.12,0,.23,0,.35,0,.43,0,.86,0,1.3s-.07,1.06-.12,1.6v.09c.82.25,1.64.5,2.47.69,1.07.26,2.17.46,3.26.64h.06a41,41,0,0,0,4.83.36h.1c1.67,0,3.32.06,5,0,1.47-.05,2.95-.09,4.41-.23h.06a19.53,19.53,0,0,0,2.29-.38c.33-.08.65-.18,1-.29s.55-.24.83-.38a3,3,0,0,1,.36-.16,2.46,2.46,0,0,1,0-.26,1.49,1.49,0,0,1,1.42-1.34,1.51,1.51,0,0,1,1.54,1.44,2.74,2.74,0,0,1-.65,2.37,3.44,3.44,0,0,1-1.14.51c-.24.1-.46.24-.71.34a9.73,9.73,0,0,1-1.06.42,17.87,17.87,0,0,1-3.71.7c-1.36.13-2.72.18-4.08.22-.86,0-1.72,0-2.59,0Z" fill="#110802"/>
            <path d="M117.27,73.9h0Z" fill="#110802"/>
            <path d="M117.26,73.9h0Z" fill="#110802"/>
            <path d="M112.47,73.54h0Z" fill="#110802"/>
            <path d="M117.2,73.89h0Z" fill="#110802"/>
            <path d="M117.08,73.89h0Z" fill="#110802"/>
            <path d="M126.79,73.7h0Z" fill="#110802"/>
            <path d="M126.79,73.7Z" fill="#110802"/>
            <path d="M126.79,73.7h0Z" fill="#110802"/>
            <path d="M67.47,125.24a1.5,1.5,0,0,1-1.33-1.63c.14-1,.31-2.08.54-3.1a30.14,30.14,0,0,1,1.25-4c.54-1.39,1.23-2.72,1.88-4.06s1.34-2.65,2-4a81,81,0,0,1,5.09-8.06c.85-1.21,1.71-2.39,2.58-3.58s1.8-2.45,2.76-3.63c2-2.45,4-4.85,6.16-7.12s4.38-4.42,6.72-6.48c2-1.71,3.92-3.44,6-5.06a21.58,21.58,0,0,1,3.13-2.17,1.76,1.76,0,0,1,2.23.31,1.72,1.72,0,0,1,.37,1,1.44,1.44,0,0,1-1.37,1.46.89.89,0,0,1-.23,0c-.37.23-.72.48-1.08.73a0,0,0,0,0,0,0c-1.77,1.34-3.46,2.76-5.13,4.22s-3.55,3.11-5.26,4.74l.14-.13a109.56,109.56,0,0,0-8.89,9.76l.11-.15c-1.63,2-3.15,4.13-4.68,6.24s-3,4.39-4.47,6.66l.09-.17c-1,1.6-1.85,3.23-2.7,4.89s-1.56,3.09-2.28,4.67l.08-.18A28.08,28.08,0,0,0,70,119.6h0a24.49,24.49,0,0,0-.7,3l0-.2c-.09.55-.15,1.12-.29,1.65a1.5,1.5,0,0,1-1.44,1.15Z" fill="#110802"/>
            <path d="M89.4,132.51h-.32c-1.52,0-3-.15-4.57-.27a27.92,27.92,0,0,1-4.54-.66c-1.4-.35-2.82-.63-4.23-1a38.09,38.09,0,0,1-4.28-1.38,14.62,14.62,0,0,1-1.9-.84,7.49,7.49,0,0,1-1.64-1.23,6,6,0,0,1-1.43-1.93,4.83,4.83,0,0,1-.34-1.76,11.14,11.14,0,0,1,.43-3.09c.11-.45.23-.89.38-1.32.09-.24.21-.48.32-.72a2,2,0,0,1,.2-.38.2.2,0,0,1,0,.08,1.39,1.39,0,0,1,1.33-.67A1.41,1.41,0,0,1,70,118.7a4.61,4.61,0,0,1-.45,1.45,15.51,15.51,0,0,0-.44,1.88,8.76,8.76,0,0,0-.1,1c0,.18,0,.37,0,.57l0,.2s0,.1.05.15,0,.1.07.16l0,.07a6,6,0,0,0,.45.55c.2.2.4.39.62.58l.29.2.73.4.31.13-.18-.08a35.1,35.1,0,0,0,3.55,1.3l-.07,0c1.11.33,2.25.57,3.39.83s2.26.56,3.41.78a59.6,59.6,0,0,0,7.2.62h0c1.24,0,2.48,0,3.72,0s2.57-.08,3.86-.2l-.2,0c1.18-.13,2.37-.25,3.55-.4s2.36-.37,3.54-.58c2.25-.39,4.53-.59,6.76-1.13.6-.16,1.19-.37,1.81-.48a1.5,1.5,0,0,1,1.68,1,1.52,1.52,0,0,1-.79,1.81,8.2,8.2,0,0,1-1.94.65c-.65.15-1.31.27-2,.38-1.44.25-2.89.42-4.33.66s-2.82.49-4.24.67-3,.36-4.51.48c-1.16.1-2.32.13-3.49.13Q90.9,132.57,89.4,132.51Z" fill="#110802"/>
            <path d="M131.51,71.79c0-.25-.06-.51-.09-.77a1.35,1.35,0,0,1-.11-.93.55.55,0,0,1,.06-.18.08.08,0,0,0,0,0l0-.09v0a1.49,1.49,0,0,1,.42-.61,1.46,1.46,0,0,1,2,.17,3.72,3.72,0,0,1,.51,2.08A1.43,1.43,0,0,1,133.15,73l-.22,0A1.43,1.43,0,0,1,131.51,71.79Z" fill="#110802"/>
            <path d="M147.88,155.52A1.42,1.42,0,0,1,146.6,154c.38-2.92.71-5.86.83-8.81s0-6.11-.13-9.16-.37-6.28-.66-9.42c-.15-1.66-.28-3.32-.45-5l0,.13c-.34-3.13-.84-6.24-1.27-9.36s-.93-6.08-1.56-9.09c-.48-2.32-1-4.64-1.52-6.94-.54-2.13-1.17-4.22-1.9-6.29s-1.47-4.15-2.25-6.21c-.25-.6-.5-1.21-.77-1.8s-.68-1.39-1.05-2.07l.1.17c-.54-1-1.09-1.92-1.62-2.88l.09.16-.55-1h0l0,0s0-.08-.07-.12l0,.08c-.28-.51-.57-1-.89-1.49l-.48-.68.11.15-.12-.16a1.42,1.42,0,0,1,2.35-1.58l0,0a10.06,10.06,0,0,1,.74,1c.48.74.9,1.52,1.32,2.3h0s0,.1.08.15l0,0c.73,1.31,1.5,2.6,2.19,3.95a42.27,42.27,0,0,1,1.82,4.28c1,2.82,2.14,5.66,3,8.55s1.52,6.06,2.17,9.12,1.2,6,1.63,9c.23,1.55.44,3.1.67,4.65s.46,3.11.65,4.67.3,3.07.44,4.6.28,3.16.43,4.74c.28,3.05.43,6.09.5,9.15a91.12,91.12,0,0,1-.16,9.35c-.17,2.08-.46,4.17-.8,6.23a1.45,1.45,0,0,1-1.42,1.29Z" fill="#110802"/>
            <path d="M136.85,75.79Z" fill="#110802"/>
            <path d="M86.67,172.66a1.45,1.45,0,0,1-1.28-1.56c.07-1.35.15-2.68.2-4,0,.06,0,.12,0,.19,0-.11,0-.23,0-.34v-.07h0v0a.19.19,0,0,0,0-.08v-.06c.05-2.14.09-4.28.17-6.42a1.21,1.21,0,0,0,0,.19c.1-3.06.34-6.1.7-9.14.19-1.58.43-3.15.75-4.7s.68-3,1.05-4.58q.73-3,1.45-6c.24-1,.49-2,.76-3l.21-.75a4,4,0,0,1,.34-.92,1.64,1.64,0,0,1,1.58-.91h-.1a1.42,1.42,0,0,1,1,2.35c0,.11-.07.22-.11.32-.69,2.5-1.25,5-1.86,7.54s-1.27,5.21-1.75,7.85c-.31,2-.57,3.92-.76,5.89s-.29,4-.36,6.08v-.2c-.06,1.84-.09,3.69-.13,5.53,0,1-.06,1.93-.11,2.88s-.15,1.75-.23,2.63a1.45,1.45,0,0,1-1.43,1.29Z" fill="#110802"/>
            <path d="M85.6,166.7v0Z" fill="#110802"/>
            <path d="M109.26,91.91h0a3.68,3.68,0,0,0-.51-.37c-.17-.09-.33-.18-.51-.26-.36-.16-.74-.29-1.12-.42s-.8-.21-1.2-.29c-.23,0-.45-.06-.68-.07s-.51,0-.76,0a24.52,24.52,0,0,0-2.45.39l-.51.14a1.18,1.18,0,0,1-.19.25h0l-.13.12a1.33,1.33,0,0,1-.76.32,1.88,1.88,0,0,1-1.63-.41,1.52,1.52,0,0,1-.38-1.6,2.08,2.08,0,0,1,1.11-1.07,9.06,9.06,0,0,1,1.93-.62h0a20,20,0,0,1,2.77-.45,9.06,9.06,0,0,1,2.7.16,12,12,0,0,1,2.54.84,6.41,6.41,0,0,1,1.76,1.14,1.48,1.48,0,0,1,.09,2.08,1.41,1.41,0,0,1-1,.46A1.59,1.59,0,0,1,109.26,91.91Z" fill="#110802"/>
            <path d="M109.24,91.89l0,0h0Z" fill="#110802"/>
            <path d="M129.09,95.54a10.77,10.77,0,0,1-.92-.87q-.42-.42-.87-.81c-.18-.13-.36-.26-.55-.38-.34-.2-.69-.38-1-.55s-.81-.29-1.22-.43a17.65,17.65,0,0,0-1.75-.39,12.36,12.36,0,0,0-1.35-.14c-.53,0-1.06,0-1.59.1s-1.09.15-1.63.27l-.27.07a1.4,1.4,0,0,1-1,.25,1.41,1.41,0,0,1-.94-.5h0a0,0,0,0,1,0,0,1.29,1.29,0,0,1-.29-.64l0,.18a1.34,1.34,0,0,1,.07.18h0a.13.13,0,0,1,0,.06,1.53,1.53,0,0,1,.61-2,7.48,7.48,0,0,1,2.46-.66,18.82,18.82,0,0,1,2.37-.23,11.25,11.25,0,0,1,2.31.24,14.61,14.61,0,0,1,4.21,1.36,8.83,8.83,0,0,1,1.78,1.2,8.94,8.94,0,0,1,.71.66,8.19,8.19,0,0,1,.7.75l.23.31a1.51,1.51,0,0,1-.17,1.83,1.59,1.59,0,0,1-1.14.48A1.34,1.34,0,0,1,129.09,95.54Z" fill="#110802"/>
            <path d="M72.07,124.53a1.4,1.4,0,0,1-.73-1.3l0,.09a1.33,1.33,0,0,1,0-.28c0-.2,0-.4,0-.6a1.28,1.28,0,0,1,0,.19c0-.32,0-.63,0-.94a1.45,1.45,0,0,1,1.38-1.47,1.43,1.43,0,0,1,1.47,1.37c0,.43,0,.85,0,1.27a1.92,1.92,0,0,1-.48,1.43,1.44,1.44,0,0,1-1,.4A1.4,1.4,0,0,1,72.07,124.53Z" fill="#110802"/>
            <path d="M76.41,124.81a3.25,3.25,0,0,1-.23-.29h0A1,1,0,0,1,76,124a3.51,3.51,0,0,1,.3-1.76,1.43,1.43,0,0,1,2.73.83c-.09.34-.16.7-.27,1a1.34,1.34,0,0,1-.33.61,1.55,1.55,0,0,1-1.09.45A1.28,1.28,0,0,1,76.41,124.81Z" fill="#110802"/>
            <path d="M76.18,124.52Z" fill="#110802"/>
            <path d="M74.32,28.45h.21A35.37,35.37,0,0,1,69.82,28h0l-.23,0a17.09,17.09,0,0,1-4.17-1.41,14.63,14.63,0,0,1-2-1.17,8,8,0,0,1-.9-.73,4.23,4.23,0,0,1-1-1.65,3.84,3.84,0,0,1-.26-1.42A3.75,3.75,0,0,1,61.57,20a11.13,11.13,0,0,1,1.19-1.79,10.63,10.63,0,0,1,2.35-2.24,17.05,17.05,0,0,1,3-1.56,14.44,14.44,0,0,1,3.07-.85c1-.17,2-.33,3-.44h0A20.34,20.34,0,0,1,76.54,13a15.19,15.19,0,0,1,2.32.23,16.71,16.71,0,0,1,4.47,1.45c1.29.63,2.53,1.35,3.81,2a10,10,0,0,1,2,1.17A1.79,1.79,0,0,1,89.76,19a1.41,1.41,0,0,1-2.56,1l-.11-.06c-.88-.53-1.84-.94-2.75-1.42s-1.9-1-2.87-1.47c-.42-.17-.83-.32-1.25-.45-.63-.19-1.26-.35-1.91-.48s-1.18-.14-1.78-.18-1,0-1.46.05H75l-.43,0c-1.32.17-2.63.37-3.93.65-.44.12-.86.25-1.29.41s-1.1.5-1.64.77c-.34.2-.67.41-1,.63s-.39.31-.57.48a12.64,12.64,0,0,0-.93,1c-.24.33-.48.65-.69,1a3.62,3.62,0,0,0-.24.43l-.06.17h0l0,.2c0,.08,0,.16.08.23a1,1,0,0,0,.08.18.13.13,0,0,0,0,.05l.09.1.33.29c.21.15.42.3.64.44l-.18-.1c.55.33,1.11.63,1.69.91s1.16.47,1.75.67c.41.12.82.24,1.23.32l.22.05.2,0,.16,0a45.69,45.69,0,0,0,4.67.38c1.35,0,2.71,0,4.07,0a1.48,1.48,0,1,1,.1,3c-1.25.12-2.49.18-3.74.18Z" fill="#110802"/>
            <path d="M101.64,30.21c.21-.33.4-.67.6-1s.52-.83.77-1.25.48-.8.71-1.22h0c.41-.11.82-.24,1.22-.39l0,0,.08,0,.3-.14.12-.08.24-.2c.11-.11.22-.22.32-.34l0,0,.17-.31c0-.08,0-.15.08-.22s.09-.34.13-.51,0-.3,0-.46,0-.25,0-.37-.07-.44-.12-.65a8.34,8.34,0,0,0-.26-.85l-.15-.32-.08-.13v-.13h0v0s0,0,0,0v0c0-.56.07-1.12.08-1.68a3.12,3.12,0,0,0-.31-1.73,2.15,2.15,0,0,0-.71-.73,2,2,0,0,0-1-.26,2.16,2.16,0,0,0-1,.2,5.13,5.13,0,0,0-1.67,1.25c-.84-.33-1.69-.63-2.55-.91A17.19,17.19,0,0,0,97,17.24a34.11,34.11,0,0,0-3.65-.31h.19c-.83,0-1.66,0-2.49.07s-1.49.21-2.22.37-1.24.34-1.84.55L87,18a1.4,1.4,0,0,1-1,.49,1.44,1.44,0,0,1-1.47-1.37,1.76,1.76,0,0,1,.11-.64,1.9,1.9,0,0,1,1.12-1.08,14,14,0,0,1,2.62-.84A21.54,21.54,0,0,1,93.69,14H93.5a26.55,26.55,0,0,1,4.71.45,26.47,26.47,0,0,1,4.32,1.38,20.15,20.15,0,0,1,2.06,1A14.73,14.73,0,0,1,106.32,18,10.72,10.72,0,0,1,108,19.55a6.13,6.13,0,0,1,1.13,2.18,8.17,8.17,0,0,1,.37,2.19,6.2,6.2,0,0,1-.39,2.21,6.49,6.49,0,0,1-.63,1.23,5.62,5.62,0,0,1-1,1,6,6,0,0,1-2.13,1.06,23.56,23.56,0,0,1-3.73.79Z" fill="#110802"/>
            <path d="M105.84,21.59Z" fill="#110802"/>
            <path d="M105.83,21.59Z" fill="#110802"/>
            <path d="M105.84,21.53v0Z" fill="#110802"/>
            <path d="M105.84,21.59h0Z" fill="#110802"/>
            <path d="M105.85,21.51s0,0,0,0S105.85,21.52,105.85,21.51Z" fill="#110802"/>
            <path d="M92,28.32a1.43,1.43,0,0,1,.62-.88,1.49,1.49,0,0,1,1.11-.19h0l.13,0,.83.13c-.65.86-1.4,1.64-2.07,2.48A1.49,1.49,0,0,1,92,28.32Z" fill="#110802"/>
            <path d="M85,33.92c-1.14,0-2.27,0-3.41-.05h.2a36.59,36.59,0,0,1-3.77-.3c-1.32-.18-2.58-.59-3.88-.84-.31,0-.62,0-.93-.1a2,2,0,0,1-1.42-1.14,3.61,3.61,0,0,1-.25-1c0-.35-.09-.7-.13-1a1.11,1.11,0,0,0,0,.19c0-.38-.07-.77-.1-1.16,0,0,0,.06,0,.09a2,2,0,0,1,.13-1.23.64.64,0,0,0,0,.07,1.4,1.4,0,0,1,1.23-.82,1.42,1.42,0,0,1,1.44,1.18,8.75,8.75,0,0,1,.15,1.16c0,.3.07.6.11.91a9.65,9.65,0,0,1,1.32.27c.83.19,1.65.39,2.49.55a33.18,33.18,0,0,0,3.6.3h-.1c1.32,0,2.64,0,4,.05s2.5,0,3.75-.07a25.15,25.15,0,0,0,2.86-.5h0a22.94,22.94,0,0,0-1.7,2.65c-.13.23-.25.46-.36.7q-.86.1-1.71.15l-1.23,0Z" fill="#110802"/>
            <path d="M101.81,51.17a6.93,6.93,0,0,1-.24-1l-.23-1.06c-.47-1.86-1.21-3.66-1.8-5.49a4.81,4.81,0,0,1-.33-1.75,1.5,1.5,0,0,1,.35-.87l-.13-.24c-.37-.73-.75-1.46-1.14-2.18h0a24.82,24.82,0,0,0-1.48-2.37L96.65,36l.53-.61c.4-.44.8-.85,1.23-1.24l.27-.25A19.78,19.78,0,0,1,100,35.74c.8,1.27,1.49,2.62,2.18,4,.28.55.57,1.11.81,1.69a2.4,2.4,0,0,1,.25,1.83,1.44,1.44,0,0,1-.53.68c.34,1,.71,1.93,1,2.91.25.77.46,1.54.64,2.32a7.56,7.56,0,0,1,.29,1.55,1.49,1.49,0,0,1-1.21,1.49l-.25,0A1.49,1.49,0,0,1,101.81,51.17Z" fill="#110802"/>
            <path d="M44,82.67a19.46,19.46,0,0,1-3.8-.47,9.17,9.17,0,0,1-3-1.24l0,0a10.92,10.92,0,0,1-1.92-1.39,6.77,6.77,0,0,1-1.51-2.42,15.11,15.11,0,0,1-.55-1.73c-.17-.67-.35-1.34-.47-2a15.93,15.93,0,0,1-.12-4.25,11.78,11.78,0,0,1,.36-2,11.87,11.87,0,0,1,2.33-3.83l-.12.14c.6-.74,1.21-1.47,1.85-2.18.81-.89,1.7-1.7,2.57-2.53l-.13.13c1.74-1.68,3.46-3.41,5.2-5.08h0l.41-.38-.14.13,2.74-2.68-.14.13c2.15-2.05,4.42-4,6.72-5.86l3.56-2.93c1.17-1,2.37-1.9,3.54-2.87.51-.42,1-.84,1.51-1.29l.32-.34c.21-.29.38-.61.6-.89a8.62,8.62,0,0,1,1.83-1.63l-.15.11.3-.22-.2-.1a1.8,1.8,0,0,1-1.06-2c.28-1.2,1.85-1.58,2.87-1.85a24.54,24.54,0,0,1,3.39-.69,4.51,4.51,0,0,1,2,.06,1.76,1.76,0,0,1,1,.82h0a1,1,0,0,1,.09.22h0a1.46,1.46,0,0,1-.09,1.1,1.44,1.44,0,0,1-1.91.59l.06,0-.07,0-.41,0c-.72.09-1.43.22-2.14.38a1.51,1.51,0,0,1,.54,1.09,1.83,1.83,0,0,1-.47,1.3,6.19,6.19,0,0,1-.91.71c-.42.3-.85.59-1.27.9s-.59.46-.86.71l-.14.14-.12.19a9,9,0,0,1-.55.82A10,10,0,0,1,63.94,41c-1.15,1-2.34,1.91-3.51,2.86S58.12,45.78,57,46.73s-2.38,1.94-3.54,3-2.47,2.13-3.64,3.25h0l-.34.32.09-.09c-.86.84-1.7,1.69-2.57,2.52l.14-.13-.28.27h0c-2.15,2.07-4.26,4.18-6.41,6.25l.13-.13a35,35,0,0,0-2.72,3l0,0a17.2,17.2,0,0,0-1.4,1.9c-.17.28-.33.57-.47.86,0,.09-.07.18-.1.27a5.63,5.63,0,0,0-.14.59,18,18,0,0,0-.18,2.09c0,.5,0,1,.05,1.51a13.39,13.39,0,0,0,.24,1.41A23.18,23.18,0,0,0,36.6,76c.11.26.22.5.35.75a3,3,0,0,0,.21.33l.17.21c.12.12.24.22.36.33s.51.36.78.53a12.21,12.21,0,0,0,1.13.6,5.78,5.78,0,0,0,.65.25c.55.15,1.12.25,1.68.35l.24,0-.2,0a14.41,14.41,0,0,0,1.61.18,9.38,9.38,0,0,0,1.06,0l.7-.13c.36-.1.71-.21,1.07-.33l.64-.31a9.62,9.62,0,0,0,.91-.61l-.06,0,.09-.07h0l.05,0h0c.46-.35.9-.71,1.32-1.1s.64-.68.94-1a.18.18,0,0,0-.05.07l.06-.08c0-.06.09-.11.12-.16s0,0,0,0l.52-.66-.12.16A4.66,4.66,0,0,1,52.19,74a6.39,6.39,0,0,1,1.18-.49c.62-.2,1.24-.38,1.87-.56,1.22-.33,2.44-.68,3.66-1s2.5-.57,3.76-.87c1-.25,2-.57,2.94-.87s1.86-.44,2.79-.65l3.72-.91.06,0h0l.36-.09c.88-.21,1.75-.45,2.62-.72s1.53-.51,2.32-.71l-.09,0,.16,0h0a5.4,5.4,0,0,1,1.2-.15,4.19,4.19,0,0,1,.5,0,1.48,1.48,0,0,1,.3,2.88c-.38.1-.76.18-1.15.27-.71.19-1.41.46-2.12.68-.93.29-1.87.54-2.82.78h0l-.42.1h0l-.1,0h0l-.09,0-2,.47h-.07c-.7.18-1.4.37-2.11.53-.5.11-1,.19-1.52.3-1,.25-1.91.58-2.87.85-1.13.3-2.27.52-3.42.76l-.17,0,.21,0c-1.23.31-2.43.73-3.66,1.06s-2.35.58-3.48,1l-.14.06,0,0-.09.07-.34.38s0,0,0,0l-.07.09h0a.1.1,0,0,0,0,0h0a22,22,0,0,1-1.79,2.07,14,14,0,0,1-3.25,2.37,9.64,9.64,0,0,1-2,.72,9,9,0,0,1-2.13.27Z" fill="#110802"/>
            <path d="M48,78.08l0,0,0,0Z" fill="#110802"/>
            <path d="M53.25,77.18h0Z" fill="#110802"/>
            <path d="M53.25,77.18l0-.05a.21.21,0,0,1,0,.06Z" fill="#110802"/>
            <path d="M73.53,71.48h0Z" fill="#110802"/>
            <path d="M77.6,67h0Z" fill="#110802"/>
            <path d="M73.84,31.57h0Z" fill="#110802"/>
            <path d="M38.75,77.1a1.49,1.49,0,0,1-1.38-.88,5,5,0,0,1-.26-1.72c0-.46-.06-.92-.08-1.38s-.05-1-.07-1.44a1.53,1.53,0,0,1,.84-1.54,1.46,1.46,0,0,1,1.43.13h0a1.45,1.45,0,0,1,1.33,1.37,15.44,15.44,0,0,1-.11,2.8c0,.23,0,.46-.08.69A2.76,2.76,0,0,1,40,76.43a1.48,1.48,0,0,1-1.21.67Z" fill="#110802"/>
            <path d="M43.48,77.29a2.29,2.29,0,0,1-.62-1.66c0-.69,0-1.39,0-2.09,0,.07,0,.14,0,.2,0-.94,0-2.36,1.13-2.68a1.51,1.51,0,0,1,1.47.37,1.39,1.39,0,0,1,1.12,1.14,13.65,13.65,0,0,1,.05,2.12,5.87,5.87,0,0,1-.18,1.1,2.77,2.77,0,0,1-1,1.63,1.7,1.7,0,0,1-.92.27A1.53,1.53,0,0,1,43.48,77.29Z" fill="#110802"/>
            <path d="M73.36,43.86a10.65,10.65,0,0,0-.86-.64L72,43l-.27-.1-.39-.09c-.27,0-.54-.05-.82-.06a8.42,8.42,0,0,0-.87,0l-.52.1a11.11,11.11,0,0,0-1.11.37,9.49,9.49,0,0,0-1,.44l-.08.07,0,0a1.4,1.4,0,0,1-2.23-.44,1.54,1.54,0,0,1,.28-1.66,2,2,0,0,1,.7-.5,8.5,8.5,0,0,1,.92-.43,11.84,11.84,0,0,1,2-.67,8.51,8.51,0,0,1,2.14-.14h-.19a8.54,8.54,0,0,1,1.67.18,6.76,6.76,0,0,1,1.4.54,8.61,8.61,0,0,1,1.48,1.05,1.48,1.48,0,0,1,.2,1.92,1.51,1.51,0,0,1-1.22.62A1.34,1.34,0,0,1,73.36,43.86Z" fill="#110802"/>
            <path d="M88.45,47.86c-.8-.59-1.44-1.36-2.2-2a3.91,3.91,0,0,0-.41-.3,9.33,9.33,0,0,0-.83-.43l-.72-.28a12.61,12.61,0,0,0-1.36-.28c-.33,0-.66-.1-1-.12l-.64,0c-.28,0-.55.09-.83.15l-.28.08c-.22.09-.43.19-.64.3l-.08,0-.06.05a1.39,1.39,0,0,1-1.23.84,1.44,1.44,0,0,1-1.47-1.37h0a1,1,0,0,1,0-.18c0,.06,0,.12,0,.18a1.11,1.11,0,0,1,0,.19c-.2-1.65,1.64-2.58,3-2.94a10,10,0,0,1,2.18-.29,11.71,11.71,0,0,1,2.2.27,9.16,9.16,0,0,1,3.68,1.48,14.48,14.48,0,0,1,2,1.77c.22.23.42.46.63.7a1.46,1.46,0,0,1,0,1.92,1.48,1.48,0,0,1-1.09.47A1.3,1.3,0,0,1,88.45,47.86Z" fill="#110802"/>
            <path d="M74,106.25a1.46,1.46,0,0,1-1.1-1.55c0-.28,0-.56.09-.83a1.83,1.83,0,0,1-.45-.15,1.75,1.75,0,0,1-.87-1.42c0-.3,0-.6,0-.91s0-.73,0-1.09c0-.12,0-.23,0-.34.05-1.14.14-2.29.24-3.43.24-2.8.35-5.6.51-8.4.08-1.52.22-3,.34-4.55s.22-3.09.3-4.64c.06-.94.1-1.88.13-2.81v.19c0-1.79.11-3.57.13-5.36,0-.44,0-.87,0-1.31a1.82,1.82,0,0,1,.3-1,1.51,1.51,0,0,1,1.34-.61,1.43,1.43,0,0,1,1.25,1.74s0,0,0,.07c-.07,3-.09,5.93-.24,8.89s-.42,6.07-.61,9.1c-.13,2.3-.19,4.6-.34,6.9-.1,1.51-.24,3-.33,4.53h.06a1.66,1.66,0,0,1,1.48,1.51,10.18,10.18,0,0,1-.17,2.64,7.81,7.81,0,0,1-.43,1.9,1.46,1.46,0,0,1-1.35.93Z" fill="#110802"/>
            <path d="M70.48,166.72a1.51,1.51,0,0,1-1.34-1.63,9.48,9.48,0,0,1,.15-1.05c.09-.6.16-1.2.24-1.8.17-1.36.32-2.72.45-4.09.29-3,.53-6,.81-9,.1-1.13.21-2.26.3-3.39a2.68,2.68,0,0,1-.42.19,1.51,1.51,0,0,1-1.72-.64,2.49,2.49,0,0,1-.17-1.82q.15-1,.36-1.92c.6-2.87,1.27-5.73,2-8.59a21.36,21.36,0,0,1,.91-3.45,1.44,1.44,0,0,1,1.79-.77,1.42,1.42,0,0,1,.83,1.82c-.05.12-.09.25-.13.37-.25.86-.41,1.76-.62,2.64-.26,1.13-.54,2.26-.8,3.4s-.53,2.35-.78,3.53l-.18.82.19,0a1.68,1.68,0,0,1,1.58,1.15,6.82,6.82,0,0,1,.14,2.59c0,.75-.09,1.5-.16,2.25q-.39,4.57-.76,9.15c-.22,2.78-.44,5.57-.89,8.33a.09.09,0,0,1,0,0V165h0a.36.36,0,0,1,0,.11h0v0h0v0a.2.2,0,0,1,0,.07v0a.09.09,0,0,0,0,.05h0v0h0c0,.11,0,.23-.07.34a1.51,1.51,0,0,1-1.46,1.15Z" fill="#110802"/>
            <path d="M72.14,165.21h0Z" fill="#110802"/>
            <path d="M72.14,165.23Z" fill="#110802"/>
            <path d="M72.17,165.08h0Z" fill="#110802"/>
            <path d="M72.17,165.08h0v0Z" fill="#110802"/>
            <path d="M72.17,165.05h0Z" fill="#110802"/>
            <path d="M72.19,165h0Z" fill="#110802"/>
            <path d="M94.31,39.22a1.47,1.47,0,0,1,0-1.93c.4-.43.87-.82,1.31-1.23a21.59,21.59,0,0,0,1.8-1.9,37.19,37.19,0,0,0,2.38-3.59l0,0c.76-1.23,1.43-2.5,2.07-3.79s1.31-2.48,1.9-3.76c.13-.3.24-.61.35-.92s.19-.71.26-1.07,0-.5.06-.75,0-.33,0-.49l-.12,0a5.24,5.24,0,0,0-.48.23,20,20,0,0,0-2.34,1.53,26.64,26.64,0,0,0-2.25,1.85h0c-.62.6-1.21,1.24-1.81,1.86s-1.31,1.36-1.91,2.1h0l0,0s0,.05-.07.07h0c-1.09,1.36-2.19,2.72-3.19,4.15-.54.77-1.06,1.54-1.59,2.32-.25.38-.52.72-.8,1.07a1.41,1.41,0,0,1-2.47-.16,1.23,1.23,0,0,1-.12-.61c0,.1,0,.1,0-.13,0-.06,0-.27,0-.19a1.43,1.43,0,0,1,.15-.39,2,2,0,0,1,.27-.4c.61-.77,1.12-1.62,1.66-2.44s1.22-1.75,1.88-2.59c.8-1,1.59-2.1,2.45-3.09.71-.85,1.5-1.63,2.26-2.44a25.52,25.52,0,0,1,2.11-2.05c.69-.6,1.43-1.15,2.18-1.69A13.77,13.77,0,0,1,103.5,17,3.79,3.79,0,0,1,106,16.9a2.15,2.15,0,0,1,.81.59,2.55,2.55,0,0,1,.48,1.12,7.73,7.73,0,0,1,.12,1.86,9.89,9.89,0,0,1-.63,3.08,30.91,30.91,0,0,1-1.46,3c-.45.87-.87,1.77-1.31,2.65s-1.07,2-1.67,3a1.4,1.4,0,0,0,.1-.16l-.49.8,0-.06-.4.66h0A21.72,21.72,0,0,1,99,37q-.72.77-1.5,1.47a7.48,7.48,0,0,1-1.29,1,1.58,1.58,0,0,1-.81.23A1.43,1.43,0,0,1,94.31,39.22Z" fill="#110802"/>
            <path d="M101.64,33.37s0,0,0,0S101.64,33.38,101.64,33.37Z" fill="#110802"/>
            <path d="M95.46,27.5a0,0,0,0,1,0,0A0,0,0,0,0,95.46,27.5Z" fill="#110802"/>
            <path d="M95.52,27.42h0Z" fill="#110802"/>
            <path d="M93.1,35.59a1.42,1.42,0,0,1-.59-1.91c.7-1.29,1.39-2.58,2.18-3.81.37-.59.74-1.17,1.16-1.73a2.33,2.33,0,0,1,1.09-.92,1.41,1.41,0,0,1,1.47,2.3l-.14.13,0,.05a21.07,21.07,0,0,0-1.41,2.12s0,0,0,0C96.21,32.84,95.62,33.93,95,35a1.45,1.45,0,0,1-1.26.75A1.39,1.39,0,0,1,93.1,35.59Z" fill="#110802"/>
            <path d="M96.88,31.72a.1.1,0,0,1,0,.05A.1.1,0,0,0,96.88,31.72Z" fill="#110802"/>
            <path d="M42,102.2a1.45,1.45,0,0,1,.69-1.93c.26-.12.52-.24.78-.38A30.22,30.22,0,0,0,46.32,98c.25-.2.51-.4.75-.62s.45-.48.67-.73a7.26,7.26,0,0,0,.46-.63.56.56,0,0,1,0-.08,5.1,5.1,0,0,0,.19-.55h0c.07-.26.13-.53.18-.8s0-.42.07-.63,0-.25,0-.38a4.94,4.94,0,0,0-.1-.53c0-.15-.09-.3-.15-.45s-.15-.34-.23-.5-.15-.23-.22-.34a5.63,5.63,0,0,0-.38-.45c-.22-.23-.46-.44-.7-.65s-.4-.32-.61-.46l-.6-.31-.28-.1a7,7,0,0,0-.73-.17l-.86-.09c-.43,0-.85,0-1.28,0a16.16,16.16,0,0,0-1.69.3,11.62,11.62,0,0,0-1.45.45,18.22,18.22,0,0,0-2,.94c-.36.2-.72.41-1.07.65a52.07,52.07,0,0,0-4.49,3.77,14.23,14.23,0,0,1-1.74,1.45,2.63,2.63,0,0,1-1.22.43,1.61,1.61,0,0,1-.81-.1l.12,0a1.4,1.4,0,0,1-1-1.3,1.42,1.42,0,0,1,1.36-1.46h0l-.19,0h0l-.08,0,.29,0h0a28.78,28.78,0,0,0,2.25-2c.91-.85,1.9-1.61,2.87-2.39a14.13,14.13,0,0,1,1.61-1.18c.6-.36,1.21-.68,1.83-1a16.15,16.15,0,0,1,4.07-1.32,11.63,11.63,0,0,1,4.2-.06,8.12,8.12,0,0,1,2.08.71,8.73,8.73,0,0,1,1.75,1.28,7.18,7.18,0,0,1,2.16,3.28,6.32,6.32,0,0,1,.27,2.16,9.31,9.31,0,0,1-.44,2.27,5.87,5.87,0,0,1-.41,1,5.7,5.7,0,0,1-.67,1,10.46,10.46,0,0,1-1.79,1.79A19.77,19.77,0,0,1,43.71,103a1.09,1.09,0,0,1-.43.08A1.51,1.51,0,0,1,42,102.2Z" fill="#110802"/>
            <path d="M21.46,108.06a14.47,14.47,0,0,1-2.86-1.24,6.09,6.09,0,0,1-1.43-1,4,4,0,0,1-1-1.75,7.55,7.55,0,0,1-.3-2,7.73,7.73,0,0,1,.33-2.09,12.08,12.08,0,0,1,1.16-2.69l0,0s0,0,0,0l.07-.11-.06.1a8.72,8.72,0,0,1,1.38-1.76,12.84,12.84,0,0,1,1.68-1.25,16.58,16.58,0,0,1,4-2,11.92,11.92,0,0,1,4.2-.48,7.05,7.05,0,0,1,1.7.3,3,3,0,0,1,.75.4,1.49,1.49,0,0,1,.75,1.4,1.44,1.44,0,0,1-1.55,1.27h.18a1.85,1.85,0,0,1-1-.32h0l.07,0-.09,0a1.27,1.27,0,0,0-.28-.06c-.3,0-.6-.07-.9-.09a13,13,0,0,0-1.39,0,11.39,11.39,0,0,0-1.14.21,8.42,8.42,0,0,0-.89.29c-.39.16-.77.34-1.14.53h0c-.86.51-1.7,1.05-2.51,1.63-.19.15-.37.31-.55.48l-.21.23q-.27.36-.51.75c-.12.2-.23.41-.33.62-.2.48-.38,1-.53,1.45-.05.15-.08.31-.12.46s0,.41-.06.61,0,.23,0,.35.06.41.1.62.08.3.13.44l.07.15.06.09.07.08.15.14a3.13,3.13,0,0,0,.42.29c.34.2.68.38,1,.55a15.68,15.68,0,0,0,1.62.59l-.07,0,.09,0,.1,0-.09,0a9.35,9.35,0,0,0,1,.23,10.12,10.12,0,0,0,1.09.13c.57,0,1.14,0,1.7,0a12,12,0,0,0,1.57-.29l.44-.11a1.43,1.43,0,1,1,.87,2.73,12,12,0,0,1-4.15.74A11.75,11.75,0,0,1,21.46,108.06Z" fill="#110802"/>
            <path d="M29.47,94.85l0,0Z" fill="#110802"/>
            <path d="M28.17,111.65a2.17,2.17,0,0,1-1.72-.92,7.61,7.61,0,0,1-.79-1.74,1.34,1.34,0,0,0,.07.18,2.82,2.82,0,0,1-.27-1.17,1.41,1.41,0,0,1,2.81-.12v0q.18.45.36.87h.15a31.51,31.51,0,0,0,4.09-.71,29.17,29.17,0,0,0,3-1c1-.36,2-.66,2.92-1a30.48,30.48,0,0,0,3-1.46c.61-.34,1.23-.68,1.82-1.07-.07-.24-.14-.48-.22-.72a1.43,1.43,0,0,1,2.66-1,5.23,5.23,0,0,1,.38.95,3.47,3.47,0,0,1,.21,1.11,2.25,2.25,0,0,1-.79,1.65,4.71,4.71,0,0,1-.78.54,35.56,35.56,0,0,1-4.21,2.27,26.49,26.49,0,0,1-2.61,1c-.86.27-1.7.61-2.55.89a27.71,27.71,0,0,1-3.09.85c-.88.19-1.75.36-2.63.46l-.82.1h-.09a6.3,6.3,0,0,1-.75,0Z" fill="#110802"/>
            <path d="M29.13,111.62h0Z" fill="#110802"/>
            <path d="M29.27,111.61h0Z" fill="#110802"/>
            <path d="M30.75,158a1.47,1.47,0,0,1-1.45-1.4c-.11-1.45-.17-2.9-.3-4.35-.32-3-1-5.9-1.51-8.84s-.82-6-1.26-9c-.21-1.44-.44-2.87-.61-4.32s-.32-3.06-.45-4.6-.21-3-.31-4.46-.18-3-.13-4.5a24.62,24.62,0,0,1,.45-4.11c.17-.84.4-2,1.28-2.35a2.09,2.09,0,0,1,1.1-.14h0a1.42,1.42,0,0,1,1.31,1.36,1.45,1.45,0,0,1-.76,1.31c-.08.35-.15.7-.21,1.06a22.13,22.13,0,0,0-.24,2.3c-.06,2,.06,4,.19,6s.28,3.89.48,5.84l0-.11s0,.09,0,.13v0h0c0,.15,0,.29.05.43h0c.31,2.94.82,5.86,1.2,8.8.19,1.48.37,3,.61,4.44s.53,3,.81,4.44c.33,1.76.65,3.53.87,5.31a49.07,49.07,0,0,1,.33,5.28,1.47,1.47,0,0,1-1.4,1.5Z" fill="#110802"/>
            <path d="M28.39,128.25s0,.09,0,.13S28.39,128.3,28.39,128.25Z" fill="#110802"/>
            <path d="M28.33,127.76s0,0,0,0S28.34,127.77,28.33,127.76Z" fill="#110802"/>
            <path d="M41.47,126.44a1.45,1.45,0,0,1,1.18-1.66c1.48-.22,3-.17,4.5-.3l-.2,0a17.65,17.65,0,0,0,2-.32,29.59,29.59,0,0,0,3.33-1.12A31.5,31.5,0,0,0,56,121.42c.63-.36,1.26-.74,1.86-1.16s1-.79,1.42-1.21.9-1,1.31-1.45a12,12,0,0,0,.71-1c0-.08.09-.17.14-.26s0,0,0,0a.93.93,0,0,0,0-.13,10.12,10.12,0,0,0-.47-.93h0a17.91,17.91,0,0,0-1-1.67c-.26-.33-.56-.65-.85-1l.13.14c-.28-.28-.56-.55-.86-.8a22.23,22.23,0,0,0-1.9-1.32l-.11-.08.08.06a32.57,32.57,0,0,0-3.2-1.69h0c-.68-.3-1.37-.56-2.06-.83-.86-.34-1.72-.67-2.61-.95l.18,0a19.37,19.37,0,0,0-2.13-.5,14,14,0,0,0-1.71-.18,3.39,3.39,0,0,0-.45,0,2.5,2.5,0,0,0-.38.06l-.13,0a1.36,1.36,0,0,1-1,.13,1.39,1.39,0,0,1-.77-.47h0a1.25,1.25,0,0,1-.3-.66h0a1.44,1.44,0,0,1,.15-.91,1.52,1.52,0,0,1,.77-.69,5.38,5.38,0,0,1,1.18-.3,11.07,11.07,0,0,1,3.67.25,23.72,23.72,0,0,1,4.18,1.28,36.48,36.48,0,0,1,3.75,1.61A30,30,0,0,1,59.18,109a12.47,12.47,0,0,1,2.45,2.18,15.06,15.06,0,0,1,2.31,3.62,3.07,3.07,0,0,1,.17,2.61,12.47,12.47,0,0,1-2.34,3.23,19.49,19.49,0,0,1-6.86,4.52,30.77,30.77,0,0,1-5.8,2,17.07,17.07,0,0,1-2.93.33c-1.08.05-2.16.06-3.24.15h-.1A1.45,1.45,0,0,1,41.47,126.44Z" fill="#110802"/>
            <path d="M48,168.7c-.17-1.47-.37-2.93-.53-4.39h0v-.11s0,0,0-.05h0a1,1,0,0,0,0-.17h0v-.05h0v0h0l-.07-.68v0c-.26-2.5-.5-5-.67-7.51s-.36-4.92-.61-7.38h0c-.31-2.92-.77-5.82-1.16-8.74s-.7-6-1.09-9c-.08-.66-.17-1.32-.28-2-.06-.33-.12-.65-.17-1a2.33,2.33,0,0,1-.07-.79h0a1.42,1.42,0,0,1,2.5-.77,1.62,1.62,0,0,1,.34.86c.06.36.14.71.2,1.07.12.74.23,1.49.32,2.23.2,1.46.36,2.92.53,4.38s.36,3,.56,4.51.44,3,.66,4.51.4,2.94.55,4.43v0c.46,4.42.7,8.86,1.14,13.28v.11h0s0,0,0,.05,0,.1,0,.15v-.08c0,.08,0,.15,0,.22a.2.2,0,0,0,0,.07s0,.07,0,.1l0,.36h0a1.37,1.37,0,0,1,0,.19v-.08l.06.59h0l0,.24c0-.07,0-.13,0-.2.1.93.2,1.87.31,2.8a21.72,21.72,0,0,1,.27,2.53,1.46,1.46,0,0,1-1.2,1.47l-.22,0A1.43,1.43,0,0,1,48,168.7Z" fill="#110802"/>
            <path d="M47.44,164.32s0,0,0,0A.08.08,0,0,1,47.44,164.32Z" fill="#110802"/>
            <path d="M47.4,164v0Z" fill="#110802"/>
            <path d="M47.4,164v0Z" fill="#110802"/>
            <path d="M50.25,163v0Z" fill="#110802"/>
            <path d="M50.12,161.83v0Z" fill="#110802"/>
            <path d="M50.12,161.81v0Z" fill="#110802"/>
            <path d="M50.12,161.81Z" fill="#110802"/>
            <path d="M50.09,161.51v0Z" fill="#110802"/>
            <path d="M50.09,161.51h0Z" fill="#110802"/>
            <path d="M50.09,161.51h0Z" fill="#110802"/>
            <path d="M50.08,161.48a0,0,0,0,1,0,0A0,0,0,0,0,50.08,161.48Z" fill="#110802"/>
            <path d="M34.26,115.31a1.47,1.47,0,0,1-.22-.91,1.5,1.5,0,0,1,.45-.89h0l0,0,0,0h0c.28-.29.56-.6.87-.87a10.5,10.5,0,0,1,1.4-1,8.26,8.26,0,0,1,3.34-1.15,7.1,7.1,0,0,1,4.55,1.31,1.43,1.43,0,0,1-1.34,2.51c-.42-.17-.82-.4-1.23-.6l-.58-.22a4.7,4.7,0,0,0-.51-.12l-.2,0h-.31c-.24,0-.47.07-.71.13l-.68.22-.62.28q-.52.31-1,.66L37,115a4.7,4.7,0,0,1-.75.73,1.51,1.51,0,0,1-.79.23A1.42,1.42,0,0,1,34.26,115.31Z" fill="#110802"/>
            <path d="M34.48,113.51l0,0Z" fill="#110802"/>
            <path d="M76.32,100.81a1.66,1.66,0,0,0-1.48-1.51h-.06c.08-1.51.22-3,.32-4.54.16-2.29.21-4.59.35-6.89.18-3,.44-6.06.6-9.1.14-2.68.17-5.37.22-8h0c.71-.22,1.41-.49,2.13-.68.38-.09.77-.17,1.14-.27a1.48,1.48,0,0,0-.3-2.88c-.16,0-.33,0-.49,0a5.33,5.33,0,0,0-1.2.15h0l-.08,0c-.79.2-1.54.47-2.32.71s-1.74.51-2.61.73l-.37.08H72.1l-3.71.91c-.93.21-1.86.38-2.79.65s-1.95.62-2.94.87c-1.26.3-2.52.51-3.76.87s-2.44.71-3.66,1c-.62.18-1.25.36-1.87.56a6.39,6.39,0,0,0-1.18.49,4.6,4.6,0,0,0-1.25,1.16l-.49.63-.13.16h0c-.3.36-.61.71-.94,1s-.85.74-1.3,1.09l-.06,0h0l0,0c-.3.22-.6.42-.92.61l-.64.31c-.35.12-.71.23-1.07.33l-.7.13a9.32,9.32,0,0,1-1.06,0A15,15,0,0,1,42,79.34h-.13c-.53-.1-1.06-.2-1.59-.34a5,5,0,0,1-.64-.25,12.38,12.38,0,0,1-1.14-.6c-.26-.17-.53-.34-.78-.53l-.35-.33-.18-.21L37,76.74c-.13-.25-.24-.49-.35-.75a21.07,21.07,0,0,1-.72-2.5,11.22,11.22,0,0,1-.24-1.41c0-.5-.06-1-.06-1.51a18,18,0,0,1,.18-2.09c0-.2.09-.4.14-.59l.1-.27c.14-.29.3-.58.47-.86a20.21,20.21,0,0,1,1.4-1.9,32.55,32.55,0,0,1,2.69-2.94c2.1-2,4.16-4.09,6.26-6.11l.28-.27c.82-.79,1.62-1.59,2.44-2.39l.24-.23c1.18-1.12,2.41-2.18,3.63-3.24s2.35-2,3.54-3,2.32-1.92,3.49-2.87S62.8,42,64,41a11,11,0,0,0,1.56-1.49,8.92,8.92,0,0,0,.54-.82,2.14,2.14,0,0,1,.13-.19,1.85,1.85,0,0,1,.14-.14c.27-.25.56-.48.85-.71l1.28-.9a6.11,6.11,0,0,0,.9-.71,1.79,1.79,0,0,0,.47-1.3,1.54,1.54,0,0,0-.53-1.09,21.56,21.56,0,0,1,2.13-.38l.42,0,.06,0-.06,0a1.44,1.44,0,0,0,1.89-.55l.35,0c1.31.25,2.57.66,3.89.84a35.54,35.54,0,0,0,3.57.29h.2c1.07,0,2.14,0,3.2,0l2.27,0h.1v0h0a1.38,1.38,0,0,0,0,.2c0,.23,0,.23,0,.13a1.29,1.29,0,0,0,.12.62,1.47,1.47,0,0,0,.78.71,1.42,1.42,0,0,0,1.69-.56A12,12,0,0,0,90.67,34c.53-.78,1-1.55,1.59-2.32,1-1.43,2.1-2.8,3.2-4.17h0a.12.12,0,0,0,0-.05l0,0c.61-.74,1.26-1.43,1.93-2.11s1.18-1.26,1.8-1.85a26.3,26.3,0,0,1,2.25-1.85,21.84,21.84,0,0,1,2.34-1.53,3.12,3.12,0,0,1,.49-.23l.11,0c0,.16,0,.33,0,.49s0,.5-.07.75a9.81,9.81,0,0,1-.26,1.07c-.1.31-.22.62-.35.92-.59,1.27-1.28,2.5-1.89,3.76s-1.31,2.54-2,3.76a39.05,39.05,0,0,1-2.37,3.59,21.7,21.7,0,0,1-1.81,1.9c-.43.41-.9.8-1.3,1.23a1.47,1.47,0,0,0,0,1.93,1.39,1.39,0,0,0,1.09.5,1.56,1.56,0,0,0,.8-.22,7.55,7.55,0,0,0,1.3-1L98,38l.32.55h0c.39.72.77,1.45,1.14,2.18l.13.24a1.5,1.5,0,0,0-.35.87,4.81,4.81,0,0,0,.33,1.75c.6,1.83,1.33,3.63,1.8,5.49l.23,1.06c0,.18.07.37.11.55a9.64,9.64,0,0,0-2,.28,9.14,9.14,0,0,0-2.27,1,8.1,8.1,0,0,0-1.84,1.51,10.81,10.81,0,0,0-1.37,1.87,15.41,15.41,0,0,0-1,2,8.18,8.18,0,0,0-.66,2.38,7.22,7.22,0,0,0,.24,2.31,9.09,9.09,0,0,0,2.49,4.09A10.23,10.23,0,0,0,97,67.52a14.31,14.31,0,0,0,2,1.08c.66.27,1.3.55,2,.78a13.28,13.28,0,0,0,2.06.54l.8.16c0,.41-.06.82-.1,1.24s-.1.76-.13,1.15a2.28,2.28,0,0,0,0,.26,27.88,27.88,0,0,0-2.53,1.82c-2,1.62-4,3.35-6,5.06-2.35,2.06-4.58,4.22-6.73,6.48s-4.2,4.67-6.16,7.12c-1,1.18-1.86,2.41-2.76,3.63s-1.73,2.37-2.57,3.58l-.6.85A3.55,3.55,0,0,0,76.32,100.81ZM44,71.06c-1.07.29-1.1,1.55-1.12,2.48h0c0,.06,0,.13,0,.19,0,.62,0,1.26,0,1.89a2.27,2.27,0,0,0,.62,1.65,1.53,1.53,0,0,0,1.05.4,1.78,1.78,0,0,0,.92-.26,2.79,2.79,0,0,0,1-1.64,5.74,5.74,0,0,0,.18-1.1,13.52,13.52,0,0,0-.05-2.11,1.4,1.4,0,0,0-1.12-1.15,1.52,1.52,0,0,0-1-.42A1.65,1.65,0,0,0,44,71.06Zm-6.19-.92A1.53,1.53,0,0,0,37,71.68c0,.48,0,1,.07,1.44s0,.92.08,1.38a5,5,0,0,0,.26,1.72,1.5,1.5,0,0,0,1.38.88h0A1.49,1.49,0,0,0,40,76.43a2.76,2.76,0,0,0,.41-1.29c0-.23.06-.46.08-.69a15.44,15.44,0,0,0,.11-2.8,1.43,1.43,0,0,0-1.33-1.36l0,0a1.37,1.37,0,0,0-.81-.26A1.68,1.68,0,0,0,37.8,70.14ZM82.93,44.57a12.65,12.65,0,0,1,1.36.29c.24.08.49.17.72.27s.56.27.84.43.27.19.4.3c.76.64,1.4,1.42,2.2,2a1.36,1.36,0,0,0,.82.26,1.5,1.5,0,0,0,1.09-.46,1.46,1.46,0,0,0,0-1.93c-.21-.23-.41-.47-.63-.7a15.17,15.17,0,0,0-2-1.77,9.25,9.25,0,0,0-3.68-1.48,11.5,11.5,0,0,0-2.2-.26,9.36,9.36,0,0,0-2.17.28c-1.32.35-3.1,1.25-3,2.82a.11.11,0,0,1,0-.05,1.42,1.42,0,0,0,1.46,1.36,1.4,1.4,0,0,0,1.23-.84l.06-.05.08,0c.21-.11.42-.21.64-.3l.28-.08c.28-.06.55-.11.83-.15l.64,0C82.27,44.47,82.6,44.52,82.93,44.57ZM70.57,42.72a7.56,7.56,0,0,1,.82.07l.38.09L72,43a4,4,0,0,1,.46.24c.31.2.58.42.87.64a1.31,1.31,0,0,0,.8.27,1.53,1.53,0,0,0,1.23-.62,1.46,1.46,0,0,0-.21-1.91,7.57,7.57,0,0,0-1.47-1.05,6.14,6.14,0,0,0-1.4-.54,9.83,9.83,0,0,0-3.62,0,12.43,12.43,0,0,0-2,.66,8.63,8.63,0,0,0-.92.43,2.22,2.22,0,0,0-.7.51,1.52,1.52,0,0,0-.28,1.66A1.42,1.42,0,0,0,66,44a1.4,1.4,0,0,0,1.09-.37l0,0,.08-.07a7.89,7.89,0,0,1,1-.44,10.93,10.93,0,0,1,1.1-.37,4.71,4.71,0,0,1,.52-.09c.2,0,.41,0,.61,0Zm26.37-15.5a2.32,2.32,0,0,0-1.09.92c-.41.55-.79,1.14-1.16,1.72-.79,1.24-1.48,2.53-2.18,3.81a1.44,1.44,0,0,0,.59,1.92,1.39,1.39,0,0,0,.65.16A1.45,1.45,0,0,0,95,35c.63-1.09,1.22-2.2,1.87-3.28a21,21,0,0,1,1.35-2l0,0a.86.86,0,0,0,.14-.13,1.43,1.43,0,0,0,.15-1.72,1.46,1.46,0,0,0-1.2-.65A1.23,1.23,0,0,0,96.94,27.22Z" fill="#d1a173"/>
            <path d="M95.44,27.53s0,0,0,0A0,0,0,0,1,95.44,27.53Z" fill="#d1a173"/>
            <path d="M117.39,73.9h-.31a41.87,41.87,0,0,1-4.62-.35h-.1c-1.08-.18-2.16-.38-3.23-.63-.82-.2-1.64-.44-2.46-.69,0,0,0-.07,0-.1,0-.52.08-1,.11-1.56l.83,0h.27a40.11,40.11,0,0,0,4.64-.37,1.48,1.48,0,0,0-.3-2.94c-1.55.07-3.09.21-4.63.19-.43,0-.86-.08-1.29-.14a38.21,38.21,0,0,1-3.8-.78,26.27,26.27,0,0,1-2.55-1,11.38,11.38,0,0,1-1.24-.67h0c-.32-.2-.63-.41-.94-.64s-.37-.35-.55-.53a10,10,0,0,1-.78-.94,6.65,6.65,0,0,1-.36-.56c-.06-.13-.12-.25-.17-.37s-.17-.48-.24-.73l0-.14-.06-.34c0-.24,0-.49,0-.73a.28.28,0,0,1,0-.09,6,6,0,0,1,.15-.61c.13-.4.29-.79.45-1.18s.48-.94.75-1.4q.27-.42.57-.81a10,10,0,0,1,.69-.76l.22-.19c.26-.18.52-.35.79-.51l.67-.31.62-.2.55-.1a20.68,20.68,0,0,1,2.23-.09c.63,0,1.26.11,1.88.2a21.27,21.27,0,0,1,2.2.52c1,.32,1.93.68,2.87,1.09a16.41,16.41,0,0,1,1.76.93c1.39.86,2.73,1.81,4.11,2.71a11.87,11.87,0,0,0,1.85,1.1,2.55,2.55,0,0,0,1.18.21A1.43,1.43,0,0,0,120.4,59a1.41,1.41,0,0,0-1.11-1.33h0l1.59-.41a66,66,0,0,1,7.34-1.43h0a18.57,18.57,0,0,1,2.24-.06,17.6,17.6,0,0,1,1.78.19,12.07,12.07,0,0,1,1.22.3,22.32,22.32,0,0,1,2.11.8l0,0c.43.2.86.43,1.27.67s.66.43,1,.67l.4.37c.13.16.27.31.39.47s.29.46.43.69a4.37,4.37,0,0,1,.23.49s0,.05,0,.07,0,0,0,0l0,0a0,0,0,0,0,0,0c.1.28.19.57.28.85s.07.42.09.63,0,.41,0,.62,0,.48-.07.72l0,.12c-.06.16-.12.33-.19.49s-.29.55-.46.82-.29.44-.45.66l0,0h0l-.25.29-.25.21-.33.2a15.67,15.67,0,0,1-1.56.72c-.38.14-.76.27-1.16.39h0c-1.34.3-2.7.46-4,.64l-4.15.56a1.46,1.46,0,0,0,.21,2.9h.09c.67,0,1.34-.11,2-.18L131.4,71s0,0,0,0c0,.2.05.41.08.61a1.28,1.28,0,0,0-.19.6,2.28,2.28,0,0,1,0,.26l-.36.16c-.27.13-.54.26-.82.37a8.35,8.35,0,0,1-1,.3,21.71,21.71,0,0,1-2.26.37h-.07c-1.47.13-3,.18-4.43.22-.66,0-1.31,0-2,0C119.4,74,118.4,73.93,117.39,73.9Z" fill="#fefefe"/>
            <path d="M28.39,108.16c.28-.07.56-.17.84-.27a1.43,1.43,0,1,0-.87-2.73l-.44.12a14,14,0,0,1-1.57.28,13.74,13.74,0,0,1-1.7,0,10.43,10.43,0,0,1-1.09-.13,9.12,9.12,0,0,1-1-.22H22.5a15.51,15.51,0,0,1-1.61-.59c-.36-.17-.7-.35-1-.55a3.93,3.93,0,0,1-.42-.29l-.15-.13-.07-.08-.06-.1a.53.53,0,0,1-.06-.14,3.88,3.88,0,0,1-.14-.45,6.17,6.17,0,0,1-.1-.62c0-.11,0-.23,0-.34a6,6,0,0,1,.06-.61c0-.16.08-.31.12-.47.16-.49.33-1,.53-1.44a4.77,4.77,0,0,1,.34-.63c.16-.25.32-.5.5-.75l.21-.23c.18-.16.36-.32.55-.47.8-.58,1.64-1.12,2.49-1.62a11.87,11.87,0,0,1,1.14-.54,9.24,9.24,0,0,1,.89-.29,8.92,8.92,0,0,1,1.15-.2,12.64,12.64,0,0,1,1.37,0l.43,0a.18.18,0,0,1-.07,0l0,0-.28,0,.08,0,.18,0a1.42,1.42,0,0,0-1.36,1.46,1.4,1.4,0,0,0,1,1.3l-.12,0a1.6,1.6,0,0,0,.81.1,2.67,2.67,0,0,0,1.22-.43,15.92,15.92,0,0,0,1.74-1.45,48.94,48.94,0,0,1,4.49-3.77,11.73,11.73,0,0,1,1.07-.65,18.07,18.07,0,0,1,2-.94,12.32,12.32,0,0,1,1.46-.45,13.91,13.91,0,0,1,1.69-.3c.42,0,.85,0,1.28,0a8.17,8.17,0,0,1,.85.09,6.58,6.58,0,0,1,.74.17l.28.1c.2.1.4.2.59.31a5.72,5.72,0,0,1,.61.46,8.72,8.72,0,0,1,.71.64l.38.45.22.35c.08.16.16.33.23.49s.1.3.15.46.07.35.1.53,0,.25,0,.38,0,.42-.07.63a7.31,7.31,0,0,1-.18.78c-.06.19-.13.38-.2.58a.22.22,0,0,0,0,.08,7.26,7.26,0,0,1-.46.63c-.22.25-.44.5-.67.73s-.51.43-.78.64a29.74,29.74,0,0,1-2.87,1.84c-.25.14-.51.26-.77.38a1.46,1.46,0,0,0-.7,1.93,1.54,1.54,0,0,0,1.33.84,1,1,0,0,0,.24,0c0,.18.1.36.16.54l-.54.34-.41.14a1.54,1.54,0,0,0-.63.46l-.24.13a26.58,26.58,0,0,1-3,1.45c-1,.38-2,.68-2.92,1a29.17,29.17,0,0,1-3,1,29.9,29.9,0,0,1-4.09.71h-.15C28.55,108.57,28.47,108.37,28.39,108.16Z" fill="#fefefe"/>
            <path d="M85.59,31c-1.32,0-2.64,0-4-.05h.1a35.91,35.91,0,0,1-3.6-.31c-.84-.15-1.66-.36-2.48-.55a10.3,10.3,0,0,0-1.32-.27c0-.3-.09-.61-.12-.91,0-.15,0-.3,0-.46h1.47c1.25,0,2.49-.06,3.74-.18a1.48,1.48,0,1,0-.11-3c-1.35,0-2.71.06-4.07.05A45.51,45.51,0,0,1,70.54,25l-.16,0-.2,0L70,24.89c-.42-.09-.82-.2-1.23-.32-.59-.2-1.17-.44-1.75-.68a17.17,17.17,0,0,1-1.53-.81l-.62-.44c-.11-.09-.23-.18-.33-.28l-.1-.11,0,0L64.29,22c0-.08-.05-.16-.07-.24l0-.2h0v0l.06-.16a4.77,4.77,0,0,1,.24-.44c.21-.33.45-.66.69-1s.6-.69.92-1c.19-.17.38-.32.58-.48s.66-.43,1-.62c.54-.28,1.08-.54,1.64-.77a11.38,11.38,0,0,1,1.29-.41A39.75,39.75,0,0,1,74.54,16L75,16h.09c.49,0,1,0,1.47,0a17.59,17.59,0,0,1,1.78.18c.64.12,1.28.29,1.91.47.42.14.83.29,1.24.45,1,.45,1.92,1,2.87,1.48s1.87.88,2.77,1.41l.1.07a1.41,1.41,0,0,0,1.19.59A1.46,1.46,0,0,0,89.76,19a1.82,1.82,0,0,0-.66-1.23,5.2,5.2,0,0,0-.47-.35l.21-.06c.74-.16,1.47-.28,2.22-.37s1.66-.08,2.49-.07a31.25,31.25,0,0,1,3.47.3,17.19,17.19,0,0,1,1.72.41c.73.24,1.46.49,2.18.77l-.67.47c-.75.54-1.49,1.09-2.18,1.7a29,29,0,0,0-2.11,2c-.76.81-1.54,1.6-2.26,2.44-.85,1-1.65,2.05-2.45,3.09-.65.84-1.28,1.71-1.87,2.6l-.11.16c-.7.06-1.39.07-2.09.07Z" fill="#fefefe"/>
            <path d="M106.38,24.55c0,.15-.07.31-.11.46l-.09.21c-.05.11-.11.21-.16.32l0,0-.29.31C105.94,25.44,106.17,25,106.38,24.55Z" fill="#fefefe"/>
            <path d="M105.15,27.45a1.45,1.45,0,0,1-.59-1.95l0-.08.12-.31c0-.11.06-.22.08-.32s0-.27,0-.41v0h0v-.06a2.28,2.28,0,0,1,.2-1,1.58,1.58,0,0,1,.6-.63h0a1.24,1.24,0,0,1,.2-.1l-.08,0,.1,0,.08,0h0l0,0-.1.05a1.42,1.42,0,0,1,1.72.54,1.39,1.39,0,0,1,.13,1.22,5.77,5.77,0,0,1,0,.83,4.4,4.4,0,0,1-.56,1.67,1.52,1.52,0,0,1-.84.7,1.35,1.35,0,0,1-.44.07A1.49,1.49,0,0,1,105.15,27.45Z" fill="#110802" fill-opacity="0.25"/>
            <path d="M86,32.35a1.55,1.55,0,0,1,.2-1.6,6,6,0,0,1,.55-.58l-.14.13c.86-.82,1.77-1.57,2.63-2.38a44,44,0,0,0,3.2-3.62c1-1.22,2.07-2.41,3.07-3.63.26-.34.52-.68.75-1,.1-.18.2-.36.29-.55l.18-.51c.06-.22.11-.43.16-.65a1.57,1.57,0,0,1,0-.3A1.44,1.44,0,0,1,98,16.16h.1a1.4,1.4,0,0,1,1,.28A1.84,1.84,0,0,1,100,16a1.75,1.75,0,0,1,2,1.5,3.93,3.93,0,0,1,0,1.45,7.82,7.82,0,0,1-.44,1.5,5.42,5.42,0,0,1-1,1.52,30.83,30.83,0,0,1-2.82,2.78C96.1,26.18,94.56,27.58,93,29l-2.52,2.18c-.4.34-.8.68-1.21,1a4.51,4.51,0,0,1-1.69,1,1.24,1.24,0,0,1-.27,0A1.51,1.51,0,0,1,86,32.35Z" fill="#110802" fill-opacity="0.25"/>
            <path d="M98.93,53.87a2.24,2.24,0,0,1-1.56-1.06A5.34,5.34,0,0,1,96.72,51c-.16-.82-.22-1.67-.3-2.51v-.11s0-.08,0-.13v.11c0-.13,0-.27,0-.4v0c-.22-2.12-.55-4.23-1-6.31-.09-.43-.17-.85-.25-1.28A5.37,5.37,0,0,1,95,38.82a1.91,1.91,0,0,1,1.74-1.75,1.2,1.2,0,0,1,.42,0l.11,0a1.49,1.49,0,0,1,1.78.78,9.11,9.11,0,0,1,.36,1l.33,1c.23.71.45,1.41.67,2.12s.47,1.52.64,2.29a18.13,18.13,0,0,1,.36,2.53c0,.55,0,1.11,0,1.67a3,3,0,0,1-.07,1.49l0,0c-.05.52-.11,1-.2,1.53a3.55,3.55,0,0,1-.73,1.74,1.71,1.71,0,0,1-1.27.54Z" fill="#110802" fill-opacity="0.25"/>
            <path d="M96.84,78.35a1.55,1.55,0,0,1-1.37-1.67,10.47,10.47,0,0,1,.24-1.47c.1-.59.21-1.17.31-1.75,0-.34,0-.69,0-1,0-1.16,0-2.32-.07-3.47a19.52,19.52,0,0,1-.12-2.29v0h0v.17a1.41,1.41,0,1,1,2.82-.09h0v-.07a1,1,0,0,1,0,.17,1.51,1.51,0,0,1,.8.17,2.36,2.36,0,0,1,.9,1l0,.09a2.27,2.27,0,0,1,2,.21,4.76,4.76,0,0,1,1.53,2,4.34,4.34,0,0,1,.44,2.38,4.75,4.75,0,0,1-.51,1.87,3.77,3.77,0,0,1-1.11,1.14,18.56,18.56,0,0,1-3.2,1.64,5.85,5.85,0,0,1-1.47.52,1.5,1.5,0,0,1-1.16.56Z" fill="#110802" fill-opacity="0.25"/>
            <path d="M84.79,170.48a1.75,1.75,0,0,1-1.15-1,5.4,5.4,0,0,1-.36-1.54c-.11-.68-.18-1.37-.25-2.06l0-.28c0,.07,0,.14,0,.2-.16-1.53-.29-3.06-.38-4.6s-.09-2.91-.17-4.37c-.17-3.11-.44-6.21-.66-9.32-.06-.82-.13-1.63-.21-2.45v0h0v0a36.23,36.23,0,0,0-.68-4.38c-.11-.4-.24-.79-.37-1.18s-.25-.59-.39-.88-.22-.37-.34-.55l-.33-.38-.44-.42c-.5-.4-1-.76-1.54-1.11l.15.09c-.54-.33-1.1-.64-1.65-.95s-1-.54-1.44-.78a1.42,1.42,0,0,1-1.34-1.31.15.15,0,0,1,0-.07,1.53,1.53,0,0,1,.09-.56l.09-.18a.36.36,0,0,1,0-.11,1.52,1.52,0,0,1,.85-1.63,2.83,2.83,0,0,1,2,.1,21.24,21.24,0,0,1,2.26.1c1,.12,1.92.29,2.88.42l2.82.38c.94.12,1.87.19,2.82.23.7,0,1.4,0,2.1,0a2,2,0,0,1,1.67.82A2.09,2.09,0,0,1,91.1,134a3.12,3.12,0,0,1-.28,1c-.13.29-.23.6-.33.9-.45,1.58-.61,3.23-.95,4.83-.39,1.91-.81,3.82-1.15,5.75-.13.89-.23,1.77-.3,2.67s-.11,2-.17,3c-.11,1.91-.23,3.81-.31,5.72,0,1.51,0,3-.07,4.55a44.78,44.78,0,0,1-.3,4.91,4.58,4.58,0,0,1-1,2.82,1.68,1.68,0,0,1-1.09.41A2,2,0,0,1,84.79,170.48Z" fill="#110802" fill-opacity="0.25"/>
            <path d="M31.09,156.92a16.38,16.38,0,0,1-.2-2.32c-.08-1.44-.2-2.88-.35-4.31,0,0,0,.09,0,.13,0-.19,0-.37-.06-.56s0-.22,0-.33a1.23,1.23,0,0,1,0,.2c-.29-2.78-.71-5.55-1.12-8.32-.46-3.09-.83-6.18-1.21-9.28a83.4,83.4,0,0,1-.64-8.94c0-1.55,0-3.11.12-4.66a40.33,40.33,0,0,1,.36-4.26,17.06,17.06,0,0,1,.72-2.92,3.72,3.72,0,0,1,.86-1.51,1.41,1.41,0,0,1,2.4,1.41,1.08,1.08,0,0,1-.08.19h0a3.62,3.62,0,0,1-.27.41l0,0c-.1.25-.18.51-.26.76-.17.59-.31,1.18-.42,1.78a52,52,0,0,0-.43,5.84,1.21,1.21,0,0,0,0-.19c0,1.65,0,3.29,0,4.94s.22,3.49.39,5.22c0,0,0-.08,0-.12.17,1.54.37,3.07.56,4.6s.37,3,.59,4.52c.42,2.85.87,5.7,1.24,8.56.25,2,.46,3.95.6,5.93a21.16,21.16,0,0,1,.07,3.08,1.45,1.45,0,0,1-1.39,1.31h0A1.48,1.48,0,0,1,31.09,156.92Z" fill="#110802" fill-opacity="0.25"/>
            <path d="M30.25,110.33l-.89-.1h0a1.5,1.5,0,0,1-1.24-.09h0a1.58,1.58,0,0,1-.82-1.32,1.46,1.46,0,0,1,.37-1h0a.61.61,0,0,0-.05-.12l-.06-.08-.05-.07h0l0,0-.05,0-.12,0-.17,0c-1.08-.16-2.17-.18-3.26-.28a9.17,9.17,0,0,1-1.93-.45,8.62,8.62,0,0,1-.95-.39A4,4,0,0,1,19.51,105a6.09,6.09,0,0,1-.77-1.63,11.64,11.64,0,0,1-.45-1.83,3.76,3.76,0,0,1,.4-2.89,1.44,1.44,0,0,1,.77-.45A10.13,10.13,0,0,1,19.87,97,2.57,2.57,0,0,1,21,95.44a1.42,1.42,0,0,1,1.94,1.78,1.59,1.59,0,0,1-.16.32,1.14,1.14,0,0,0-.1.19c-.11.27-.21.55-.31.83s-.1.37-.14.55l0,.23c0,.13,0,.26,0,.39l0,.21,0,.08a2.64,2.64,0,0,0,.15.29l-.09-.16c.09.15.19.29.29.43s.24.3.37.44l.31.29.62.42h0c.27.16.54.3.83.44a15.45,15.45,0,0,0,1.48.55c1.05.3,2.13.44,3.16.75a4.68,4.68,0,0,1,2.57,2.1,11.12,11.12,0,0,1,.7,1.43,6.61,6.61,0,0,1,.46,1.29,1.85,1.85,0,0,1-.3,1.39,1.93,1.93,0,0,1-1.44.74h-.19C30.88,110.42,30.55,110.36,30.25,110.33Z" fill="#110802" fill-opacity="0.25"/>
            <path d="M124.74,75.66a1.77,1.77,0,0,1-.35-2c.1-.26.19-.52.27-.77s.17-.66.23-1,.11-.87.16-1.31a4.5,4.5,0,0,1,.54-2.11,2.64,2.64,0,0,1,1.44-.9c.45-.15.9-.29,1.34-.45a10.93,10.93,0,0,0,1.25-.58c.53-.3,1-.63,1.54-1l.44-.36c.26-.26.5-.54.73-.82s.39-.51.57-.78.47-.84.68-1.27l.21-.57c.06-.24.11-.48.15-.73s0-.31.05-.47c0-.58,0-1.16-.09-1.74a13.89,13.89,0,0,0-.25-1.41c-.05-.19-.11-.39-.18-.58s-.14-.33-.22-.49a4,4,0,0,1-.53-1.2,1.41,1.41,0,0,1,1-1.58,1.43,1.43,0,0,1,1.74.83h0l0-.09s0,.09.07.14l.22.38a4.86,4.86,0,0,1,.35.68,2.78,2.78,0,0,1,.94.2,4.89,4.89,0,0,1,2.71,3.56,8.15,8.15,0,0,1,0,3.19l0,.46a8,8,0,0,1-.56,2.41A6.92,6.92,0,0,1,136,68.7c-.66.37-1.35.62-2,.94s-1.26.62-1.88,1l-.78.42a1.09,1.09,0,0,0,.08.15c.17.31.36.61.52.93a2,2,0,0,1-.43,2.39,6,6,0,0,1-2.61.87c-.5.12-1,.27-1.5.4a6.41,6.41,0,0,1-1.58.31A1.49,1.49,0,0,1,124.74,75.66Z" fill="#110802" fill-opacity="0.25"/>
            <path d="M141,161.39c.16-1.39.37-2.78.55-4.17s.38-3.05.44-4.58.06-3.16.09-4.74c0-3,0-6,0-8.93,0-3.14,0-6.29,0-9.43,0-1.51,0-3,0-4.54s-.15-3.14-.25-4.71-.22-2.87-.44-4.29-.47-2.93-.66-4.4-.38-3-.66-4.51-.65-3.18-1.07-4.75c-.22-.75-.43-1.51-.67-2.26-.28-1.45-.62-2.89-1-4.31a52.93,52.93,0,0,0-3.05-8.6s.05.09.07.14c-.54-1.1-1.12-2.18-1.68-3.27a23.46,23.46,0,0,0-1.78-2.92,17.4,17.4,0,0,0-2.15-2.54,8.61,8.61,0,0,0-1.23-1l-1.36-.88h0c-.44-.29-.88-.6-1.33-.89h0l-.14-.09a1.48,1.48,0,0,1,.52-.4,1.56,1.56,0,0,1,1.65.23,3.75,3.75,0,0,1,1.06-.2,4.22,4.22,0,0,1,1.18.08l.47.08h0c.34-.09.67-.19,1-.31s.8-.34,1.21-.47a2.41,2.41,0,0,1,1-.15,1.9,1.9,0,0,1,1.43.85,6.16,6.16,0,0,1,.69,2.29,13.94,13.94,0,0,1,1.79,1.89A11.13,11.13,0,0,1,138,81.52a11.58,11.58,0,0,1,.7,1.92,19.53,19.53,0,0,1,.5,2.17c.13.65.24,1.3.35,2s.22,1.29.32,1.93c0,.15,0,.29.07.44.72,1.88,1.4,3.78,2,5.7a89.83,89.83,0,0,1,2.3,9.14c.3,1.55.6,3.11.84,4.68s.46,3.27.66,4.91c.4,3.09.9,6.16,1.3,9.25s.79,6,1.18,9.07c.22,1.6.32,3.22.41,4.83s.16,3.08.25,4.63.16,3.06.22,4.59.14,3,.19,4.51a6.22,6.22,0,0,1-1,4.3,25.34,25.34,0,0,1-1.61,2.33,28,28,0,0,1-2.56,2.66l.14-.13a24.47,24.47,0,0,1-2.42,2l0,0c-.28.2-.55.4-.84.59C141,162.44,141,161.92,141,161.39Z" fill="#110802" fill-opacity="0.25"/>
          </g>
        </g>
      </g>
    </g>
  </g>
</svg>
