<svg xmlns="http://www.w3.org/2000/svg" width="175.28" height="175.28" viewBox="0 0 175.28 175.28">
  <g id="Layer_2" data-name="Layer 2">
    <g id="Vector_layer" data-name="Vector layer">
      <g>
        <circle cx="87.64" cy="87.64" r="87.64" fill="#98d7c3"/>
        <g>
          <path d="M59.47,143a17.75,17.75,0,0,1-1.93-.54c-.69-.22-1.35-.52-2-.76L53.3,141a27.7,27.7,0,0,1-2.91-1.25c-.62-.3-1.23-.62-1.84-.95l-1.74-.9-1.66-.92c-.59-.34-1.19-.65-1.78-1-.75-.43-1.48-.91-2.22-1.36h0c-1.57-1-3.14-1.91-4.63-3-.73-.52-1.42-1.11-2.17-1.61l-2.07-1.36c-.46-.27-.94-.51-1.41-.79h0l-.08,0h0a5.06,5.06,0,0,1-1.68-1.44,4.26,4.26,0,0,1-.56-2.19c0-.64,0-1.28,0-1.92,0-1.12.08-2.23.15-3.35.14-2.26.39-4.52.46-6.79v.06c0-1.22.08-2.43.15-3.65s.16-2.59.2-3.89c0,.07,0,.13,0,.2,0-.16,0-.31,0-.46v0c.06-2.67,0-5.35-.05-8-.05-1.42-.15-2.84-.13-4.25s.12-2.91.22-4.36c.13-1.69.32-3.37.39-5.07A9.53,9.53,0,0,1,30,81.19a.25.25,0,0,0,0,.08,1.41,1.41,0,0,1,2.8.19c0,.3,0,.59,0,.89,0,.84-.07,1.68-.14,2.51-.17,2.14-.36,4.28-.42,6.42v-.19c0,.15,0,.29,0,.45v0c0,2.22.12,4.43.16,6.64s.08,4.35,0,6.52v-.19c-.07,2.38-.26,4.76-.34,7.14a1.28,1.28,0,0,0,0-.19c-.1,3.34-.48,6.67-.6,10v-.07a24.52,24.52,0,0,0,0,3c0,.11,0,.22.05.33a.19.19,0,0,0,0,.07h0l0,0,.13.12c.2.15.42.28.63.42l-.06,0a.41.41,0,0,1,.11.07l0,0,0,0c.47.29,1,.52,1.43.81.82.51,1.63,1,2.43,1.6s1.63,1.25,2.48,1.84,1.76,1.17,2.65,1.73,1.91,1.17,2.86,1.76h0c.72.43,1.45.82,2.17,1.22s1.36.78,2,1.14c1.45.75,2.89,1.52,4.37,2.2,1.08.48,2.2.84,3.31,1.21.93.32,1.84.72,2.79,1a20,20,0,0,0,2.41.56h0l.14,0-.11,0c.59.09,1.19.1,1.79.14a1.42,1.42,0,0,1-.09,2.83,5.25,5.25,0,0,1-.56,0A15.86,15.86,0,0,1,59.47,143Z" fill="#110802"/>
          <path d="M41.4,131.34h0Z" fill="#110802"/>
          <path d="M44.22,133.08h0Z" fill="#110802"/>
          <path d="M41.41,131.34h0Z" fill="#110802"/>
          <path d="M30.78,127.78h0Z" fill="#110802"/>
          <path d="M63.14,143.78h.18a1.41,1.41,0,0,1-.09-2.81h.07A13.49,13.49,0,0,0,65,140.9c1.43-.15,2.84-.34,4.26-.56,1.58-.24,3.15-.49,4.73-.66h.17l.71-.07h0l.09,0h.08c1.71-.17,3.41-.45,5.1-.67A58.28,58.28,0,0,0,86,137.76l-.11,0,.84-.21-.18,0,3.79-.93h0l.19,0,0,0,.28-.07.51-.13-.19.05.71-.17-.18,0,.26-.06c3-.73,5.88-1.49,8.79-2.33,1.43-.41,2.87-.85,4.31-1.25s2.87-.67,4.31-1l1.44-.34-.19.05c2.86-.71,5.72-1.49,8.58-2.19s5.7-1.37,8.5-2.22l6.39-2c1.76-.54,3.5-1.1,5.22-1.76l-.18.07.44-.17h0l.16-.07h0l.09,0s0,0,0,0h0c.61-.23,1.2-.48,1.8-.74a1.44,1.44,0,1,1,1.22,2.6,35.59,35.59,0,0,1-4.45,1.78c-2.27.8-4.59,1.45-6.89,2.15-1.4.43-2.79.86-4.2,1.26s-2.84.73-4.26,1.09c-2.85.71-5.7,1.41-8.54,2.15-1.35.35-2.7.71-4.05,1s-2.7.59-4,.91l.19,0c-1.45.37-2.88.8-4.31,1.22s-2.9.84-4.36,1.22-3,.77-4.44,1.14c-.31.07-.63.18-1,.23l-.53.12h0l-.15,0-.56.13.19,0-.43.1h0l-4.5,1.1.19-.05a59.66,59.66,0,0,1-6.07,1.18c-1.83.24-3.66.52-5.5.71h0l-.54.05h0l-.45.05.19,0c-2.21.25-4.41.64-6.61.93-1,.13-2.08.27-3.12.35-.25,0-.51,0-.76,0Z" fill="#110802"/>
          <path d="M74.64,142.47Z" fill="#110802"/>
          <path d="M74.64,142.47Z" fill="#110802"/>
          <path d="M74.63,142.47h0Z" fill="#110802"/>
          <path d="M91.07,139.47h0Z" fill="#110802"/>
          <path d="M74.62,142.47h0Z" fill="#110802"/>
          <path d="M91.1,139.46h0Z" fill="#110802"/>
          <path d="M92,139.25h0Z" fill="#110802"/>
          <path d="M90.89,136.57l-.12,0H90.7Z" fill="#110802"/>
          <path d="M142.34,125a1.44,1.44,0,0,1-1.06-1.71c.05-.2.09-.4.12-.59h0c.13-.76.24-1.53.33-2.29.15-1.14.2-2.3.32-3.45s.24-2.51.28-3.77v0c0-1.36,0-2.72,0-4.07s0-2.84.05-4.26.09-2.87.2-4.31.23-2.79.3-4.19c.13-2.27.2-4.56.29-6.84s.29-4.65.36-7v.19c0-1.37.06-2.75.1-4.12v.19c0-.33,0-.67,0-1,0,.06,0,.13,0,.19a1.69,1.69,0,0,1,.38-1.12,1.42,1.42,0,0,1,2.11,0s0,0,0,0a1.75,1.75,0,0,1,.27.48,2,2,0,0,1,.07.43c0,.27,0,.55,0,.84,0,.08,0,.16,0,.25-.06,2.1-.07,4.21-.19,6.32-.06,1-.13,2-.19,3.06s-.09,2.19-.13,3.29v-.05a2,2,0,0,1,0,.25v0q-.09,2.89-.27,5.81c-.12,2-.34,3.94-.42,5.91-.07,2.79-.08,5.58-.08,8.37,0,.44,0,.88,0,1.31a1.88,1.88,0,0,1,0,.34c0,.79-.07,1.58-.14,2.37-.11,1.27-.23,2.54-.34,3.82-.09,1-.23,2-.4,3h0a.28.28,0,0,0,0,.09h0l0,.07h0a7.77,7.77,0,0,1-.27,1.18,1.41,1.41,0,0,1-1.34.93A1.55,1.55,0,0,1,142.34,125Z" fill="#110802"/>
          <path d="M144.27,123h0Z" fill="#110802"/>
          <path d="M144.3,122.81h0Z" fill="#110802"/>
          <path d="M141.4,122.73h0Z" fill="#110802"/>
          <path d="M65.37,95.51l-1.26-.41h0c-.91-.27-1.82-.5-2.71-.78l.17.05L61,94.2h0l-.12,0h0l-.11,0h0c-1.2-.36-2.4-.7-3.58-1.13s-2.45-.9-3.66-1.39-2.48-.92-3.73-1.35-2.68-.94-4-1.46c-1-.41-2.06-.86-3.11-1.26l-2.89-1.1c-1-.37-2-.77-3-1.22s-1.81-.86-2.73-1.28h0l-1.89-.84c-.34-.14-.69-.31-1-.43l.11,0-.1,0a.45.45,0,0,1-.11,0h0L31,82.62l.07,0-.15-.06a1.43,1.43,0,0,1-.09-2.44,1,1,0,0,1,.2-.11,2.13,2.13,0,0,1,1.78.24c.87.36,1.73.75,2.59,1.14l-.16-.08c1,.46,2,1,3,1.41,1.19.53,2.41,1,3.63,1.42s2.47.94,3.69,1.44,2.56,1,3.86,1.49l3.9,1.35c1.12.4,2.21.88,3.32,1.3s2.14.81,3.23,1.15c.78.23,1.56.45,2.33.69h0c.87.26,1.75.48,2.62.75l0,0,.06,0s0,0,0,0h0l.07,0,.09,0h0l1.13.38a1.44,1.44,0,0,1,.89,1.66,1.49,1.49,0,0,1-1.38,1.12A1.2,1.2,0,0,1,65.37,95.51Z" fill="#110802"/>
          <path d="M65,92.38h0Z" fill="#110802"/>
          <path d="M65,92.38h0Z" fill="#110802"/>
          <path d="M65,92.38Z" fill="#110802"/>
          <path d="M65,92.37h0Z" fill="#110802"/>
          <path d="M65,92.36Z" fill="#110802"/>
          <path d="M64.94,92.36h0Z" fill="#110802"/>
          <path d="M68.24,96.68a19,19,0,0,1-1.8-.76h0l.11,0-.45-.19h-.52a1.41,1.41,0,0,1,.07-2.82h0l-.19,0a4.24,4.24,0,0,1,1.23,0,3.93,3.93,0,0,1,.92.34h0a.61.61,0,0,0,.14.07,0,0,0,0,0,0,0h0l.46.21,1,.4a1.44,1.44,0,0,1,.83,1.83,1.41,1.41,0,0,1-1.34.91A1.36,1.36,0,0,1,68.24,96.68Z" fill="#110802"/>
          <path d="M66.44,95.93h0Z" fill="#110802"/>
          <path d="M66.42,95.91h0Z" fill="#110802"/>
          <path d="M66.36,95.89l.06,0Z" fill="#110802"/>
          <path d="M67.62,93.34h0Z" fill="#110802"/>
          <path d="M65.56,95.75h0Z" fill="#110802"/>
          <path d="M67.67,95.31a.17.17,0,0,1,0,.07A1.52,1.52,0,0,1,68.37,94a4.44,4.44,0,0,1,1.29-.42l-.19.05.33-.08-.18,0,.43-.1-.19,0L72.35,93l-.19,0c1.57-.39,3.12-.89,4.7-1.22s3.27-.62,4.9-1l.08,0-.09,0c1.16-.28,2.32-.6,3.48-.84s2.35-.52,3.52-.79c2.45-.54,4.9-1.06,7.33-1.64h0c2.81-.69,5.62-1.43,8.41-2.23,1.36-.39,2.72-.81,4.09-1.19s2.83-.78,4.26-1.14c2.32-.59,4.66-1,7-1.52s4.49-.84,6.71-1.37l-.19,0c1.87-.46,3.74-.89,5.61-1.34l-.19,0c1.08-.26,2.16-.53,3.25-.76s2-.41,3-.64l-.18,0,.24,0,.13,0h0c.75-.18,1.5-.36,2.26-.51.48-.09,1-.17,1.46-.28s1.19-.38,1.79-.56a1.43,1.43,0,0,1,.87,2.73,14.86,14.86,0,0,1-1.43.46c-.77.22-1.55.34-2.32.49-1.13.22-2.23.52-3.36.77s-2.34.48-3.5.76h0c-1.57.39-3.15.75-4.73,1.13h0c-1.24.3-2.48.61-3.73.88s-2.39.47-3.59.71c-2.51.49-5,1-7.52,1.57l.19-.05c-2.79.68-5.55,1.46-8.3,2.28S100.66,89.3,97.84,90c-2.24.56-4.48,1.08-6.74,1.56-1.1.23-2.21.47-3.31.73s-2.13.45-3.19.7l.19,0c-.83.21-1.65.43-2.49.63l.19,0c-1.91.47-3.85.75-5.76,1.2l.18,0c-1.26.31-2.5.68-3.76,1L71.73,96h0l-1.25.31h0l-.17,0h0l-.54.13a1.31,1.31,0,0,1-.66.19h0A1.44,1.44,0,0,1,67.67,95.31Z" fill="#110802"/>
          <path d="M133.91,81.23h0Z" fill="#110802"/>
          <path d="M133.92,81.23h0Z" fill="#110802"/>
          <path d="M71.76,96h0Z" fill="#110802"/>
          <path d="M67.3,105.7A1.42,1.42,0,0,1,66,104.15c.06-.49.1-1,.12-1.48v-.53a1.41,1.41,0,0,1,2.82,0,6.6,6.6,0,0,1,0,.77,14.72,14.72,0,0,1-.12,1.49,1.45,1.45,0,0,1-1.41,1.28Z" fill="#110802"/>
          <path d="M65.1,128.37a1.43,1.43,0,0,1-1.26-1.54c.08-2,.23-4,.39-5.93.14-1.78.26-3.56.38-5.34a1.41,1.41,0,1,1,2.8.29c-.22,3.75-.6,7.5-.76,11.26a1.43,1.43,0,0,1-1.42,1.27Z" fill="#110802"/>
          <path d="M64.44,140.63a1.42,1.42,0,0,1-1.27-1.54c0-.65.06-1.3.08-2V137c0-.71,0-1.42,0-2.12a1.1,1.1,0,0,1,0-.18.36.36,0,0,0,0,.11,1.38,1.38,0,0,1,.79-1.43,1.42,1.42,0,0,1,1.87.68,4.27,4.27,0,0,1,.2,1.74c0,1.18-.07,2.36-.13,3.54a1.41,1.41,0,0,1-1.41,1.27Z" fill="#110802"/>
          <path d="M63.25,137.22s0,.05,0,.08S63.25,137.24,63.25,137.22Z" fill="#110802"/>
          <path d="M63.25,137.17a.43.43,0,0,0,0,.05A.43.43,0,0,1,63.25,137.17Z" fill="#110802"/>
          <path d="M63.25,137.14v0Z" fill="#110802"/>
          <path d="M144.66,78.18a1.41,1.41,0,0,1-1.41-1.36h0v0s0,.09,0,.14a3.51,3.51,0,0,1,.38-1.55,2.47,2.47,0,0,0,.06-.29c.1-.76.14-1.53.17-2.29v0c0-.81,0-1.61,0-2.42,0-1.14,0-2.29,0-3.44s0-2.23-.05-3.35,0-2.26-.14-3.4a1.36,1.36,0,0,1,0,.2,26.69,26.69,0,0,0-.53-3.2c0-.06,0-.12,0-.18A31.38,31.38,0,0,0,142,53.5c-.42-1-.92-2.07-1.44-3.07l0-.06,0,0a.08.08,0,0,0,0-.05h0l0,0h0a17.9,17.9,0,0,0-1.12-1.8,39.1,39.1,0,0,0-3-3.45l0,0c-.81-.83-1.64-1.63-2.48-2.43S132,40.82,131,40l.14.11A16.87,16.87,0,0,0,129.53,39l0,0-1.8-1.1c-.54-.33-1.09-.66-1.67-.94a41.05,41.05,0,0,0-4.7-1.68c-.58-.17-1.15-.33-1.73-.44l-1.35-.17a1.43,1.43,0,0,1,.28-2.84,15.14,15.14,0,0,1,1.78.2,12,12,0,0,1,1.54.39c1,.29,2,.59,2.94.94a24.58,24.58,0,0,1,3,1.24c1,.53,2,1.15,2.91,1.74h0l0,0,.08,0h0l.09.06h0c.57.36,1.14.71,1.67,1.12s1.1.91,1.62,1.39c.9.84,1.79,1.69,2.68,2.54s1.93,1.94,2.85,3a23.07,23.07,0,0,1,2.52,3.22,31,31,0,0,1,3.64,8.77.43.43,0,0,1,0-.11,29.17,29.17,0,0,1,.67,4.15c.12,1.32.1,2.65.12,4s0,2.72,0,4.09,0,2.5,0,3.75a25.49,25.49,0,0,1-.18,3,4.43,4.43,0,0,1-.27,1.13c-.07.19-.16.37-.23.55a2,2,0,0,1-.07.23s0-.05,0-.07a1.41,1.41,0,0,1-1.29,1Z" fill="#110802"/>
          <path d="M129.55,39h0Z" fill="#110802"/>
          <path d="M131,36.49h0Z" fill="#110802"/>
          <path d="M48.4,46.41A1.39,1.39,0,0,1,48.52,45a3.15,3.15,0,0,1,1.82-.94c.61-.17,1.22-.3,1.84-.44,1.2-.26,2.42-.5,3.63-.73s2.34-.43,3.5-.67l1.59-.34c.27.42.54.83.85,1.23a3.91,3.91,0,0,0,1.38,1.18q-2.64.61-5.32,1.11c-2,.39-4.06.76-6.08,1.23h0c-.32.08-.63.16-1,.26a1.35,1.35,0,0,1-.88.35h-.22A1.46,1.46,0,0,1,48.4,46.41Z" fill="#110802"/>
          <path d="M112.47,33.36a2.34,2.34,0,0,0-.63-.86l1.83-.21h0l1.16-.12h.08a31.88,31.88,0,0,0,4-.64,1.43,1.43,0,0,1,.68,2.77,25.22,25.22,0,0,1-4.48.73h0l-.4,0-.62.06-.2,0h0l-1.24.14A3.07,3.07,0,0,0,112.47,33.36Z" fill="#110802"/>
          <path d="M113.88,35.15h0Z" fill="#110802"/>
          <path d="M31.25,81l-.18,0a1.38,1.38,0,0,1-.34-.12c-.54,0-.73-.83-.75-1.27,0-.13,0-.25,0-.38s0-.52,0-.78c0-.83,0-1.66,0-2.49,0-1,0-2,.08-3.07s.1-2.24.21-3.35a19.05,19.05,0,0,1,.93-3.86A38.9,38.9,0,0,1,32.51,62c.53-1.25,1.09-2.49,1.74-3.68a28.53,28.53,0,0,1,1.86-2.9,19.58,19.58,0,0,1,2.06-2.58c.67-.67,1.37-1.32,2.07-2a24.35,24.35,0,0,1,3.59-2.82c.83-.52,1.66-1,2.52-1.51A10.66,10.66,0,0,1,47.63,46a12.3,12.3,0,0,1,1.89-.43,1.42,1.42,0,0,1,.68,2.76l-1.27.28-.36.1c-.38.16-.76.36-1.13.56a1.4,1.4,0,0,0,.17-.09c-.54.31-1.07.64-1.6,1s-1.14.69-1.68,1.07l0,0h0a47.86,47.86,0,0,0-4,3.55c-.22.22-.44.45-.64.68-.41.51-.78,1-1.16,1.57s-.71,1-1,1.5A29.27,29.27,0,0,0,35.65,62v0a46.07,46.07,0,0,0-2,5.13v0c-.2.69-.41,1.39-.55,2.1v0l0,.07,0-.07c-.14.9-.2,1.82-.25,2.73s-.07,1.81-.11,2.71a1.09,1.09,0,0,0,0-.18c0,1.2,0,2.42,0,3.63,0,.38,0,.76,0,1.15,0,.17,0,.33,0,.5a1.41,1.41,0,0,1-.65,1.06,1.31,1.31,0,0,1-.52.2,1,1,0,0,1-.24,0Z" fill="#110802"/>
          <path d="M44.28,51.23h0Z" fill="#110802"/>
          <path d="M70.84,79.81a1.42,1.42,0,0,1-1.26-1.54c.19-1.57.35-3.14.4-4.71a1.09,1.09,0,0,1,0,.18c0-.85,0-1.7,0-2.56s-.09-1.56-.17-2.34h0s0-.07,0-.11h0a29,29,0,0,0-.59-3.6,12.81,12.81,0,0,0-.43-1.37l.07.17c-.35-.89-.75-1.77-1.16-2.63s-.92-1.92-1.42-2.86c0,0,0,0,0,0l-.06-.11,0,.08a31.75,31.75,0,0,0-2-3.18c-.48-.64-1-1.27-1.5-1.85a19.19,19.19,0,0,0-1.78-1.6l0,0a33.16,33.16,0,0,0-3-2.14c-.24-.14-.48-.27-.73-.39l-.06,0c-.47-.21-1-.37-1.44-.53h0a30,30,0,0,0-3.27-.8,6.53,6.53,0,0,0-.76-.08c-.34,0-.67,0-1,.06A13.45,13.45,0,0,1,49,48h-.1a1.41,1.41,0,0,1,0-2.82h0l.34,0A14,14,0,0,1,52.51,45a24.25,24.25,0,0,1,3,.65,19,19,0,0,1,2.81,1,14.17,14.17,0,0,1,2.06,1.2c.67.46,1.32.93,2,1.43a20,20,0,0,1,3.07,2.89,31.11,31.11,0,0,1,2.34,3.25,37.07,37.07,0,0,1,2,3.55c.49,1,1,2.07,1.44,3.13.23.55.45,1.11.63,1.69a19.32,19.32,0,0,1,.46,2c.22,1.21.36,2.43.47,3.65a38.31,38.31,0,0,1,.08,4.67c-.06,1.49-.24,3-.41,4.45A1.44,1.44,0,0,1,71,79.82Z" fill="#110802"/>
          <path d="M69.8,68.74v0Z" fill="#110802"/>
          <path d="M68.85,92.47a1.43,1.43,0,0,1-1.27-1.55,34,34,0,0,0,.51-4.28v.19c0-.25,0-.5,0-.76a1.43,1.43,0,0,1,1.36-1.45A1.42,1.42,0,0,1,70.92,86a18.17,18.17,0,0,1-.08,2c-.11,1.1-.28,2.18-.45,3.27A1.43,1.43,0,0,1,69,92.47Z" fill="#110802"/>
          <path d="M79.34,78A1.47,1.47,0,0,1,78,76.38a9.46,9.46,0,0,0,.11-1.07c0-1.21,0-2.42-.1-3.63s-.11-2.27-.23-3.4l0,.2A38.07,38.07,0,0,0,77,63.65a45.71,45.71,0,0,0-1.57-5.24c-.15-.36-.31-.71-.49-1-.52-.94-1.1-1.85-1.64-2.78s-1.18-2.06-1.87-3c-.49-.65-1-1.29-1.5-1.92s-.86-1.07-1.33-1.57q-.33-.33-.69-.63a16.26,16.26,0,0,0-1.46-1h0l-.06,0,0,0h0l-.3-.18,0,0c-.46-.28-.91-.59-1.36-.88a9.51,9.51,0,0,0-.9-.46c-.19-.07-.39-.16-.58-.22a6.93,6.93,0,0,0-.79-.17,7.54,7.54,0,0,0-.83-.06h0a5.61,5.61,0,0,0-.71,0h0c-.42.05-.84.13-1.25.22a22,22,0,0,0-2.38.77c-.76.28-1.54.51-2.3.79a1.41,1.41,0,0,1-2.16-1.81,3.84,3.84,0,0,1,1.93-1.13c.62-.23,1.25-.42,1.86-.66a18.45,18.45,0,0,1,3.43-1,8.71,8.71,0,0,1,4.3.32,11.24,11.24,0,0,1,1.42.64c.64.33,1.23.78,1.84,1.17,0,0,0,0-.06,0l.11.06h0l.06,0,0,0h0a15.42,15.42,0,0,1,1.86,1.24,12.41,12.41,0,0,1,1.77,1.78c.58.68,1.13,1.38,1.67,2.08a24.27,24.27,0,0,1,1.71,2.44l1.42,2.39c.39.65.79,1.29,1.16,1.95h0a16.08,16.08,0,0,1,1.23,2.9c.32,1,.62,2,.9,3a40.66,40.66,0,0,1,1.22,6.57v0s0,0,0,0h0c.09,1,.14,2.1.2,3.15.08,1.21.14,2.43.1,3.65V75a8.87,8.87,0,0,1-.21,1.91A1.45,1.45,0,0,1,79.49,78Z" fill="#110802"/>
          <path d="M66.43,46.43h0Z" fill="#110802"/>
          <path d="M66.4,46.41l0,0Z" fill="#110802"/>
          <path d="M66.39,46.41Z" fill="#110802"/>
          <path d="M66.38,46.41h0Z" fill="#110802"/>
          <path d="M67.87,43.91Z" fill="#110802"/>
          <path d="M67.86,43.91h0Z" fill="#110802"/>
          <path d="M61,44.47h0Z" fill="#110802"/>
          <path d="M67.84,43.9h0Z" fill="#110802"/>
          <path d="M67.74,43.84h0Z" fill="#110802"/>
          <path d="M67.74,43.83Z" fill="#110802"/>
          <path d="M67.74,43.83Z" fill="#110802"/>
          <path d="M67.74,43.83Z" fill="#110802"/>
          <path d="M67.73,43.83Z" fill="#110802"/>
          <path d="M67.73,43.83Z" fill="#110802"/>
          <path d="M83.14,84a4.94,4.94,0,0,1-.18-.76c-.09-.35-.2-.7-.32-1a5.12,5.12,0,0,0-.25-.53c-.17-.29-.36-.57-.55-.84s-.38-.47-.59-.7-.42-.4-.65-.59a5.47,5.47,0,0,0-.63-.44,6.65,6.65,0,0,0-.58-.33,1.45,1.45,0,0,1-1.11-2.58,1.87,1.87,0,0,1,1.84-.23,7.78,7.78,0,0,1,2.23,1.29,9.48,9.48,0,0,1,3.2,4.39A6.41,6.41,0,0,1,86,83.49,1.47,1.47,0,0,1,84.77,85l-.25,0A1.5,1.5,0,0,1,83.14,84Z" fill="#110802"/>
          <path d="M85.13,85.26h.15a1.45,1.45,0,0,1-1.44-1.36,1.43,1.43,0,0,1,1.37-1.46h.11a6.41,6.41,0,0,0,.88,0c.77-.09,1.53-.22,2.29-.35s1.59-.28,2.39-.46c1.05-.27,2.11-.59,3.18-.79s2.19-.38,3.29-.57,2.35-.31,3.53-.51,2.16-.45,3.24-.71h.13l.2,0c.85-.21,1.7-.43,2.55-.61s1.84-.39,2.75-.61l-.19.05.34-.08.35-.09-.09,0,.22,0h0c.72-.17,1.45-.35,2.17-.48s1.36-.23,2-.37c.89-.23,1.75-.53,2.64-.78s1.65-.41,2.49-.59,1.84-.42,2.78-.58,1.81-.33,2.71-.54,1.77-.46,2.66-.69,1.9-.45,2.85-.67h0L133,72.3h0l.53-.13a1.45,1.45,0,0,1,.68,2.81c-.47.14-1,.23-1.45.34l-1.11.29-2.34.55c-1.83.45-3.63,1-5.49,1.29-1.6.29-3.2.61-4.79,1-1,.24-1.93.54-2.9.83a27.79,27.79,0,0,1-3.14.66c-1.13.21-2.24.51-3.35.77s-2.06.42-3.08.66h0l-1.58.38h0a49.82,49.82,0,0,1-5.52,1.08c-1,.12-1.92.27-2.88.44s-1.66.26-2.49.44-1.64.43-2.46.63-1.73.36-2.6.51-1.73.31-2.6.39c-.25,0-.5,0-.76,0Z" fill="#110802"/>
          <path d="M104.92,81.75h0Z" fill="#110802"/>
          <path d="M104.92,81.76h0Z" fill="#110802"/>
          <path d="M104.92,81.76h0Z" fill="#110802"/>
          <path d="M104.38,79l-.08,0Z" fill="#110802"/>
          <path d="M104.45,78.92l-.07,0Z" fill="#110802"/>
          <path d="M104.47,78.92h0Z" fill="#110802"/>
          <path d="M104.49,78.92h0Z" fill="#110802"/>
          <path d="M85.13,85.25Z" fill="#110802"/>
          <path d="M104.91,81.76h0Z" fill="#110802"/>
          <path d="M106.51,81.36h0Z" fill="#110802"/>
          <path d="M106.52,81.36h0Z" fill="#110802"/>
          <path d="M104.16,79h0Z" fill="#110802"/>
          <path d="M110.39,77.56h0Z" fill="#110802"/>
          <path d="M132.2,74.17a2.28,2.28,0,0,1-.25-.88,5,5,0,0,1,.1-1.28h0a18.12,18.12,0,0,1,.54-2.29,8.64,8.64,0,0,1,1-2.24,8.83,8.83,0,0,1,1.39-1.6,10.13,10.13,0,0,1,1.18-.89c.56-.36,1.17-.63,1.76-.94h0l0,0,.05,0,.08,0,0,0,.08-.05h0a3.7,3.7,0,0,1,.54-.24,1.42,1.42,0,0,1,1.72.75,1.45,1.45,0,0,1-.68,1.89l-.08,0-.94.55-.92.47-.42.28a7.27,7.27,0,0,0-.67.55c-.16.17-.32.34-.46.51s-.23.31-.34.47-.18.33-.26.5-.19.5-.27.76a1.72,1.72,0,0,0-.07.21,1.21,1.21,0,0,1,.05-.18,17.29,17.29,0,0,0-.48,2c0,.23-.06.47-.08.7v0a1.47,1.47,0,0,1-.34,1.2,1.29,1.29,0,0,1-1,.46A1.44,1.44,0,0,1,132.2,74.17Z" fill="#110802"/>
          <path d="M138.05,64h0Z" fill="#110802"/>
          <path d="M138.05,64Z" fill="#110802"/>
          <path d="M137.9,66a1.93,1.93,0,0,1-.65-1.73c0-.55,0-1.11,0-1.66,0-.81,0-1.61-.1-2.41v0a.2.2,0,0,0,0-.07v-.06s0,0,0-.06c0-.21-.06-.43-.11-.64a6.91,6.91,0,0,0-.25-.77s0,0,0,0l0-.07a.14.14,0,0,0,0-.06,30.92,30.92,0,0,0-1.5-3l0,0,0,0,0,0h0c-.61-1.07-1.23-2.12-1.9-3.15-.37-.57-.76-1.13-1.13-1.69s-.67-1-1-1.5A16.79,16.79,0,0,0,130,47.81l0,0,0,0-.1-.1.09.09c-.69-.71-1.43-1.37-2.17-2-.38-.35-.78-.68-1.15-1s-.8-.8-1.22-1.19l-.53-.47.14.12c-.59-.48-1.23-.9-1.86-1.34s-1.3-.92-2-1.34l-.17-.1a13.65,13.65,0,0,0-1.67-.93c-.34-.15-.69-.26-1-.4-.55-.22-1.09-.47-1.64-.69-.85-.34-1.68-.72-2.55-1s-1.43-.39-2.14-.61l.18.06a11,11,0,0,1-1.69-.63,2.3,2.3,0,0,1-1-1,1.86,1.86,0,0,1,0-1.66,3.19,3.19,0,0,1,1.8-1.44,3.36,3.36,0,0,1,2.17,0,1.43,1.43,0,0,1,.89,1.66,1.6,1.6,0,0,1-.24.53,16.36,16.36,0,0,1,2.18.72c.42.18.85.36,1.28.52s1.15.5,1.73.73,1,.37,1.43.59,1.12.61,1.66.93h0c1.11.68,2.16,1.44,3.22,2.18a15,15,0,0,1,1.65,1.3c.43.38.83.79,1.24,1.19a43.43,43.43,0,0,1,4.63,4.57c.83,1.08,1.58,2.24,2.32,3.38s1.39,2.22,2,3.36c.07.12.14.23.2.36l.13.23c.07.12.14.25.2.38s.3.55.44.83A11.69,11.69,0,0,1,140,59.29l.06.5h0V60h0a19.89,19.89,0,0,1,.11,2.18c0,.48,0,1,0,1.42a11.22,11.22,0,0,0,0,1.16h0a1.45,1.45,0,0,1-.14.84,1.45,1.45,0,0,1-2.08.5Z" fill="#110802"/>
          <path d="M140.13,64.7v0Z" fill="#110802"/>
          <path d="M121.06,40.41h0Z" fill="#110802"/>
          <path d="M140.13,64.73Z" fill="#110802"/>
          <path d="M121.05,40.4h0Z" fill="#110802"/>
          <path d="M121,40.39h0Z" fill="#110802"/>
          <path d="M140.13,64.73h0v0Z" fill="#110802"/>
          <path d="M140.13,64.74h0Z" fill="#110802"/>
          <path d="M140,59.75v0Z" fill="#110802"/>
          <path d="M135.25,55.57v0S135.25,55.58,135.25,55.57Z" fill="#110802"/>
          <path d="M135.24,55.55l0,0h0Z" fill="#110802"/>
          <path d="M135.23,55.54Z" fill="#110802"/>
          <path d="M135.26,55.58Z" fill="#110802"/>
          <path d="M135.25,55.57h0Z" fill="#110802"/>
          <path d="M135.25,55.56h0Z" fill="#110802"/>
          <path d="M135.25,55.56h0Z" fill="#110802"/>
          <path d="M135.23,55.53v0s0,0,0,0Z" fill="#110802"/>
          <path d="M122.5,37.83h0Z" fill="#110802"/>
          <path d="M65.93,45.29l0,0-.24-.08a1.33,1.33,0,0,1-.63-.54h0a1.36,1.36,0,0,1-.22-.72,1.42,1.42,0,0,1,.25-.86l.1-.12a1.16,1.16,0,0,1,.63-.41h0a1.8,1.8,0,0,1,.39-.08h.07c.93-.1,1.85-.27,2.78-.41,1.29-.19,2.58-.38,3.85-.69l-.19,0c1-.25,2-.54,3-.74l2.93-.58c.94-.19,1.87-.35,2.81-.51s1.8-.28,2.69-.48c1.16-.28,2.31-.59,3.49-.77s2.33-.37,3.5-.58,2.26-.4,3.39-.59,2.17-.44,3.24-.7l-.09,0c1.26-.31,2.53-.57,3.8-.85,1-.21,2-.45,3-.63,1.66-.3,3.35-.41,5-.67l1.13-.2a1.48,1.48,0,0,1,1.62,1,1.46,1.46,0,0,1-1,1.81,10.49,10.49,0,0,1-1.58.3c-.73.12-1.46.21-2.2.28l.2,0-.31,0,.2,0a39,39,0,0,0-4.17.68c-1.7.36-3.4.7-5.08,1.11l.19,0c-1,.25-2.06.5-3.11.69s-2,.34-3.07.52-2.07.39-3.11.54c-.55.08-1.1.15-1.64.25s-1,.21-1.55.33l.19,0c-1,.23-2,.47-3,.63l-2.7.46q-1.32.24-2.61.51c-1,.19-1.89.35-2.82.57s-1.83.49-2.75.67-1.9.32-2.84.46-1.63.27-2.45.36a5.66,5.66,0,0,1-.81.07A2,2,0,0,1,65.93,45.29Z" fill="#110802"/>
          <path d="M138.82,72.64a1.59,1.59,0,0,1-.85-1.42,2.7,2.7,0,0,1,.51-1.44,1.74,1.74,0,0,1,.9-.7,1.44,1.44,0,0,1,1.77.76,1.72,1.72,0,0,1,0,1.3h0s0,0,0,0A1.43,1.43,0,0,1,140,72.82a2,2,0,0,1-.34,0A1.92,1.92,0,0,1,138.82,72.64Z" fill="#110802"/>
          <path d="M75.93,86.26a1.8,1.8,0,0,1-.32-1.78,2.18,2.18,0,0,1,.86-1.14,1.5,1.5,0,0,1,1.83.13l.15.16a1.53,1.53,0,0,1,.83,1.06,1.9,1.9,0,0,1-1.78,2.23h-.09A2,2,0,0,1,75.93,86.26Z" fill="#110802"/>
          <path d="M35.3,76a1.7,1.7,0,0,1-.48-1.39c0-.38,0-.76,0-1.14a19.48,19.48,0,0,1,.34-2.84c.19-.95.37-1.93.64-2.86a23.69,23.69,0,0,1,.94-2.6,22.89,22.89,0,0,1,2.8-4.81c.49-.66,1-1.34,1.47-2a14.63,14.63,0,0,1,2.13-2.18,21.84,21.84,0,0,1,3.48-2.3h0a11.32,11.32,0,0,1,2.16-1,21.38,21.38,0,0,1,3.27-.7,1.42,1.42,0,0,1,.48,2.8l-2,.42c-.4.1-.81.2-1.2.33a14,14,0,0,0-1.35.66h0l0,0h0l-.06,0,0,0A26.66,26.66,0,0,0,45.51,58c.05,0,.11-.07.15-.11a15.8,15.8,0,0,0-1.47,1.24l.13-.13a13.09,13.09,0,0,0-.93,1c-.45.57-.86,1.18-1.29,1.76s-.92,1.23-1.32,1.88-.79,1.38-1.13,2.09l0,0a25.55,25.55,0,0,0-1,2.56h0v0h0v0h0c-.13.43-.23.88-.33,1.32-.14.63-.29,1.27-.4,1.92a25,25,0,0,0-.26,2.73v0a4.09,4.09,0,0,1,0,1,1.48,1.48,0,0,1-1,1,1.45,1.45,0,0,1-.41.06A1.59,1.59,0,0,1,35.3,76Z" fill="#110802"/>
          <path d="M38.67,68.34v0Z" fill="#110802"/>
          <path d="M38.66,68.36Z" fill="#110802"/>
          <path d="M48,56.46h0Z" fill="#110802"/>
          <path d="M39.65,65.79l0,.06Z" fill="#110802"/>
          <path d="M47.94,56.47Z" fill="#110802"/>
          <path d="M48,56.43Z" fill="#110802"/>
          <path d="M46.64,53.89h0Z" fill="#110802"/>
          <path d="M63.16,86.66A1.47,1.47,0,0,1,62,85.11c0-.27.12-.53.17-.8h0a26.23,26.23,0,0,0,.2-2.94v.19c0-.13,0-.26,0-.38a1.28,1.28,0,0,1,0,.19v-.2l0-1.19a1.15,1.15,0,0,0,0,.19c0-.9.07-1.81.1-2.71h0c0-.77,0-1.54.06-2.3,0,.06,0,.13,0,.19,0-.43,0-.88,0-1.31V73.7a1.34,1.34,0,0,1,0,.2,24.33,24.33,0,0,0-.1-3.08,22.39,22.39,0,0,0-.5-2.67.29.29,0,0,1,0,.09,33,33,0,0,0-1.19-4,43.8,43.8,0,0,0-2.08-4.51h0l0,0a.54.54,0,0,1-.05-.11l0,.07a14,14,0,0,0-.8-1.26c-.16-.2-.32-.39-.49-.58s-.34-.32-.52-.47c-.5-.4-1-.75-1.58-1.1s-.84-.48-1.28-.69l-.54-.22a1.44,1.44,0,0,1-2.06-.68,1.41,1.41,0,0,1-.1-1,1.59,1.59,0,0,1,.82-1,2.71,2.71,0,0,1,1.35-.21,3.52,3.52,0,0,1,1.1.25,11.81,11.81,0,0,1,2.22,1.11A15.79,15.79,0,0,1,59,55.33a11.15,11.15,0,0,1,2.41,3.17l-.09-.16c.66,1.2,1.22,2.45,1.77,3.7A27.69,27.69,0,0,1,64.49,66a36.07,36.07,0,0,1,.86,3.87,22.82,22.82,0,0,1,.22,3.51c0,.83,0,1.67-.08,2.5a1.28,1.28,0,0,0,0-.19c0,.66,0,1.33,0,2,0-.06,0-.13,0-.19,0,.89-.07,1.79-.1,2.69V80c0,.12,0,.24,0,.36a1.34,1.34,0,0,1,0-.2c0,.42,0,.83,0,1.24a1.21,1.21,0,0,1,0-.19v.19c0,.77,0,1.54-.11,2.3,0,.28,0,.57-.09.86a4.64,4.64,0,0,1-.36,1.42,1.45,1.45,0,0,1-1.29.77A1.1,1.1,0,0,1,63.16,86.66Z" fill="#110802"/>
          <path d="M58.8,59.75h0Z" fill="#110802"/>
          <path d="M62.54,77.48v0Z" fill="#110802"/>
          <path d="M62.54,77.44h0v0Z" fill="#110802"/>
          <path d="M58.79,59.74h0Z" fill="#110802"/>
          <path d="M55.36,56.27h0Z" fill="#110802"/>
          <path d="M62.64,87.49A15.76,15.76,0,0,1,61,87.2a21,21,0,0,1-2.32-.77c-.94-.34-1.88-.67-2.83-1-1.24-.41-2.47-.86-3.69-1.34-.64-.25-1.25-.51-1.87-.78l-.06,0-.22-.1-.31-.15.07,0c-2.47-1.11-5-2-7.56-3-1.26-.51-2.5-1.06-3.75-1.6l-2-.84a3.24,3.24,0,0,1-1.23-.75A1.52,1.52,0,0,1,35.15,75h0a1.44,1.44,0,0,1,1.48-.56,1.41,1.41,0,0,1,.71.43c1.15.5,2.32,1,3.47,1.45s2.51,1,3.77,1.53,2.49.93,3.72,1.43c.67.26,1.33.52,2,.8l.89.39.12.06.09,0,.95.41c1.19.49,2.4,1,3.63,1.38,1,.35,2.11.68,3.15,1.06.74.27,1.48.56,2.24.81.58.17,1.17.28,1.75.44a1.44,1.44,0,0,1,1.09,1.52,1.45,1.45,0,0,1-1.36,1.29Z" fill="#110802"/>
          <path d="M35.15,75h0Z" fill="#110802"/>
          <path d="M82.09,53.32a1.49,1.49,0,0,1-.58-.92,1.43,1.43,0,0,1,1.16-1.63c1.89-.2,3.75-.58,5.62-.87s3.92-.61,5.86-1.06c1.27-.32,2.53-.68,3.79-1,1.41-.41,2.85-.72,4.3-1s2.84-.62,4.25-.93,2.81-.55,4.22-.77a1.42,1.42,0,1,1,.48,2.79c-1.88.31-3.75.68-5.61,1.09s-3.66.77-5.49,1.2c-1.31.35-2.61.76-3.92,1.1-1.48.38-3,.71-4.45,1s-2.86.45-4.29.69-2.85.49-4.29.65h-.21A1.43,1.43,0,0,1,82.09,53.32Z" fill="#110802"/>
          <path d="M103.69,60.53a1.43,1.43,0,0,1,.92-1.78c1.33-.4,2.68-.75,4-1.15s3-.88,4.46-1.28,2.82-.72,4.23-1.08,2.84-.77,4.28-1.11h0l-.16,0,3-.71.32-.08c.93-.24,1.86-.51,2.79-.78a1.44,1.44,0,0,1,1.77.92,1.42,1.42,0,0,1-.92,1.77c-.89.27-1.78.55-2.68.77s-2.06.5-3.09.75l.19,0c-.2,0-.41.09-.61.15h0c-1.35.33-2.7.69-4,1s-2.83.71-4.24,1.08-3,.83-4.46,1.27c-1.33.4-2.68.75-4,1.16a2,2,0,0,1-.42,0A1.4,1.4,0,0,1,103.69,60.53Z" fill="#110802"/>
          <path d="M86.41,75.35a1.42,1.42,0,0,1,.91-1.77c.46-.13.93-.22,1.39-.31l1.84-.34c1.25-.22,2.5-.44,3.75-.69,2.55-.52,5.11-1,7.66-1.48a1.41,1.41,0,1,1,.48,2.78c-2.52.5-5,1-7.58,1.47-2.29.45-4.59.8-6.87,1.3a1.15,1.15,0,0,1-.26,0A1.43,1.43,0,0,1,86.41,75.35Z" fill="#110802"/>
          <path d="M55.1,67.15c-.4-.15-.8-.28-1.21-.4l-.31-.1h0a32.54,32.54,0,0,0-3.54-.84,13.47,13.47,0,0,0-1.68-.17H48a1.46,1.46,0,0,1-1.47-1.38A1.43,1.43,0,0,1,48,62.8c.6,0,1.2,0,1.8.1s1.47.22,2.2.38a37.71,37.71,0,0,1,4.14,1.22,1.4,1.4,0,0,1-.5,2.72A1.61,1.61,0,0,1,55.1,67.15Z" fill="#110802"/>
          <path d="M36,94.85A1.72,1.72,0,0,1,34.56,94a.47.47,0,0,0,0,.1.64.64,0,0,1-.08-.14h0A1.43,1.43,0,0,1,35,92.13,1.46,1.46,0,0,1,36.31,92h0l.5-.08.21-.06.19-.09.35-.22.19-.17c.27-.27.49-.58.76-.85a1.43,1.43,0,0,1,2.46.73,1.49,1.49,0,0,1-.24,1.06,5.09,5.09,0,0,1-.46.58c-.21.23-.42.45-.65.66a4.74,4.74,0,0,1-1.84,1.07,5.52,5.52,0,0,1-1.57.23Z" fill="#110802"/>
          <path d="M34.53,93.93Z" fill="#110802"/>
          <path d="M34.52,93.92h0Z" fill="#110802"/>
          <path d="M61.6,105.46a11.94,11.94,0,0,1-1.77-.24,5,5,0,0,1-2-.87,7.4,7.4,0,0,1-1.65-1.7,10.67,10.67,0,0,1-.8-1.29c-.14-.27-.28-.55-.41-.83a6.23,6.23,0,0,1-.37-1.13,8.19,8.19,0,0,1-.32-2.46,2.22,2.22,0,0,1,.24-.88,1.5,1.5,0,0,1,1.62-.76,1.43,1.43,0,0,1,1.09,1.33,1.16,1.16,0,0,1-.09.56.13.13,0,0,1,0,.06.45.45,0,0,1,0,.11,13.67,13.67,0,0,0,.27,1.42c0,.12.06.24.1.36s.24.52.38.78a11.53,11.53,0,0,0,.66,1c.14.18.28.35.44.52l.37.34.34.24.15.08.31.11c.17,0,.34.08.52.12.47.07,1,.13,1.43.23a1.48,1.48,0,0,1,1.11,1.56,1.49,1.49,0,0,1-.51,1,1.47,1.47,0,0,1-1,.34Z" fill="#110802"/>
          <path d="M59.55,125.2a1.43,1.43,0,0,1-1.27-1.55c.19-1.24.35-2.48.5-3.72.11-.91.16-1.82.25-2.73s.19-1.69.31-2.54c.28-2,.56-4.06.75-6.1.08-1,.19-1.92.29-2.88l.12-1.24a1.74,1.74,0,0,1,.3-.86,1.42,1.42,0,0,1,2.43.21,1.38,1.38,0,0,1,.1.89v-.07c-.05.36-.07.74-.1,1.11l-.18,1.63c-.12,1.12-.19,2.25-.33,3.37-.25,2.08-.57,4.16-.79,6.25-.16,1.42-.25,2.84-.43,4.26-.13,1-.23,1.93-.43,2.88a1.43,1.43,0,0,1-1.39,1.1Z" fill="#110802"/>
          <path d="M53,134a1.48,1.48,0,0,1-1.3-1.59,13.2,13.2,0,0,1,.93-3.76,8.22,8.22,0,0,1,1.57-2.6,7.19,7.19,0,0,1,2.59-1.64A10.27,10.27,0,0,1,58,124l.65-.15.29-.09a1.43,1.43,0,0,1,1.62,1.72,1.57,1.57,0,0,1-.85,1,2.85,2.85,0,0,1-.72.21,11.11,11.11,0,0,0-1.16.35c-.22.09-.43.19-.64.3a5.14,5.14,0,0,0-.49.32,3.17,3.17,0,0,0-.35.29,1.45,1.45,0,0,0-.17.18,2.83,2.83,0,0,0-.2.28,8.8,8.8,0,0,0-.59,1.14c-.12.28-.22.56-.31.84a15.22,15.22,0,0,0-.39,1.65c0,.2-.06.4-.08.6A1.48,1.48,0,0,1,53.15,134Z" fill="#110802"/>
          <path d="M51.64,133.94a1.64,1.64,0,0,1-.22-.14l0,0-.44-.26.16.1-.68-.42h0a.09.09,0,0,0-.06,0l0,0h0l-1-.65h0a16.82,16.82,0,0,0-1.62-.87L46.26,131c-.59-.3-1.15-.63-1.72-.95-1-.59-2.12-1.15-3.17-1.73s-2.06-1.13-3.11-1.66c-.77-.39-1.53-.8-2.3-1.18a1.87,1.87,0,0,1-.74-.53,1.46,1.46,0,0,1-.3-1.25,1.29,1.29,0,0,1,.23-.52,1.42,1.42,0,0,1,1.81-.42,1.09,1.09,0,0,1,.23.14c.3.17.63.32,1,.49l1.33.68c1.05.52,2.08,1.08,3.11,1.64l3.16,1.72c.57.31,1.13.65,1.7.94s1.05.53,1.58.79a27.74,27.74,0,0,1,2.82,1.57l0,0,.2.13,0,0,.38.23h0a9.47,9.47,0,0,1,.92.64,1.44,1.44,0,0,1,.2,1.87,1.48,1.48,0,0,1-1.19.61A1.2,1.2,0,0,1,51.64,133.94Z" fill="#110802"/>
          <path d="M52.36,131h0Z" fill="#110802"/>
          <path d="M51.45,133.83l0,0Z" fill="#110802"/>
          <path d="M50.51,133.25l0,0Z" fill="#110802"/>
          <path d="M52.38,131h0Z" fill="#110802"/>
          <path d="M35.15,123.13Z" fill="#110802"/>
          <path d="M37.09,125.07a1.43,1.43,0,0,1-.82-.26h0a1.57,1.57,0,0,1-.4-.42,1.27,1.27,0,0,1-.2-.69h0a2.89,2.89,0,0,1,.06-.77,1.16,1.16,0,0,0,0,.18,4.26,4.26,0,0,0,.06-.5c0-.11,0-.22,0-.33s0-.26-.07-.39a2.76,2.76,0,0,0-.08-.27c-.06-.14-.12-.27-.19-.41s-.16-.26-.25-.38c-.41-.51-.89-1-1.25-1.5a1.41,1.41,0,0,1,.14-1.73,1.44,1.44,0,0,1,1.88-.21,8.41,8.41,0,0,1,1.25,1.35,6.85,6.85,0,0,1,1,1.49,5.81,5.81,0,0,1,.48,2,9.63,9.63,0,0,1-.1,1.52,1.41,1.41,0,0,1-.65,1.11h0a1.36,1.36,0,0,1-.72.22Z" fill="#110802"/>
          <path d="M35,118.63a1.44,1.44,0,0,1-1.27-1.56c.07-.78.11-1.58.14-2.37,0-1,.1-2.06.13-3.1v-.19c0,.06,0,.12,0,.18,0-.51,0-1,0-1.54v-.13l0-.84a1.28,1.28,0,0,0,0,.19c.07-2.55,0-5.11,0-7.66,0-1.3-.07-2.59-.11-3.88,0-1-.07-2.06-.07-3.09a4,4,0,0,1,.08-.86v0a1.41,1.41,0,0,1,2.79.37,0,0,0,0,1,0,0,.34.34,0,0,1,0,.1v.21c0,.87,0,1.73,0,2.6,0,1.31.1,2.61.13,3.93,0,2.54.08,5.08,0,7.63l0,1.14a.76.76,0,0,1,0,.15c0,.3,0,.62,0,.91l-.06,1.87c0,1.42-.09,2.84-.21,4.26l0,.34a1.44,1.44,0,0,1-1.42,1.28Z" fill="#110802"/>
          <path d="M54.57,98.52c-1-.32-2-.8-3-1.19l-1.83-.72c-.69-.26-1.38-.5-2-.79-1-.42-2-.74-3-1.13s-2.23-.87-3.38-1.22h.05l-1.17-.34a2.31,2.31,0,0,1-1.06-.5s0,0,0,0a1.37,1.37,0,0,1-.48-1,1.42,1.42,0,0,1,1.36-1.46h.14a2.93,2.93,0,0,1,.69.18c1,.3,2,.57,3,.94l1.85.71,1.79.66c.77.28,1.51.63,2.28.92l1.88.72c.72.27,1.43.54,2.14.84.55.23,1.1.48,1.66.68a1.43,1.43,0,0,1,.83,1.83,1.41,1.41,0,0,1-1.35.91A1.59,1.59,0,0,1,54.57,98.52Z" fill="#110802"/>
          <path d="M40.21,90.2h0Z" fill="#110802"/>
          <path d="M40.21,90.19h0Z" fill="#110802"/>
          <path d="M34.41,88.3a1.43,1.43,0,1,1,1.47,1.38A1.44,1.44,0,0,1,34.41,88.3Z" fill="#110802"/>
          <path d="M31.26,122.2a1.41,1.41,0,1,1,1.45,1.36A1.42,1.42,0,0,1,31.26,122.2Z" fill="#110802"/>
          <path d="M60.46,98a1.43,1.43,0,0,1,1.38-1.47A1.43,1.43,0,1,1,60.46,98Z" fill="#110802"/>
          <path d="M57.93,133.43a1.44,1.44,0,0,1-1.27-1.55.41.41,0,0,0,0-.11c0-.1,0-.21,0-.32v0h0v0h0v-.08h0v0h0s0,0,0,.06a1.43,1.43,0,0,1,1.34-1.2,1.46,1.46,0,0,1,1,.37,1.41,1.41,0,0,1,.17.18,2.26,2.26,0,0,1,.16.26,1.31,1.31,0,0,1,.1.32s0,0,0,0v0h0c0,.08,0,.16,0,.25h0a2.51,2.51,0,0,1,0,.61,1.43,1.43,0,0,1-1.41,1.27Z" fill="#110802"/>
          <path d="M59.5,131.55Z" fill="#110802"/>
          <path d="M59.5,131.55h0Z" fill="#110802"/>
          <path d="M56.69,131.46h0Z" fill="#110802"/>
          <path d="M56.69,131.46Z" fill="#110802"/>
          <path d="M56.71,131.33Z" fill="#110802"/>
          <path d="M56.71,131.32Z" fill="#110802"/>
          <path d="M56.71,131.31h0Z" fill="#110802"/>
          <path d="M56.72,131.29a0,0,0,0,0,0,0A0,0,0,0,1,56.72,131.29Z" fill="#110802"/>
          <path d="M56.72,131.28h0Z" fill="#110802"/>
          <path d="M49.29,108.88c-1.12-.43-2.25-.84-3.4-1.19l-.12,0h0c-1.64-.5-3.29-1-4.92-1.55a5.92,5.92,0,0,1-1.4-.64,1.73,1.73,0,0,1-.78-1.54v.23a1.41,1.41,0,0,1,1.17-1.48,1.45,1.45,0,0,1,1.36.53l.07,0a22.89,22.89,0,0,0,2.25.76c1,.32,2,.63,3,.93l-.17-.05c1.34.4,2.65.86,4,1.36a1.41,1.41,0,0,1-.51,2.73A1.41,1.41,0,0,1,49.29,108.88Z" fill="#110802"/>
          <path d="M45.94,107.7l0,0Z" fill="#110802"/>
          <path d="M45.91,107.69h0Z" fill="#110802"/>
          <path d="M45.9,107.69h0Z" fill="#110802"/>
          <path d="M45.84,107.67l0,0h0Z" fill="#110802"/>
          <path d="M45.81,107.66h0Z" fill="#110802"/>
          <path d="M51.11,122.42a25.14,25.14,0,0,1-2.51-.92l-.06,0h0l-.4-.19a15.24,15.24,0,0,1-3-1.36,1.41,1.41,0,1,1,1.63-2.3l.11.07.36.2c.38.16.77.3,1.16.45l1.19.52h0l.15.07h0a24.38,24.38,0,0,0,2.35.85,1.44,1.44,0,0,1,.83,1.82,1.4,1.4,0,0,1-1.33.9A1.67,1.67,0,0,1,51.11,122.42Z" fill="#110802"/>
          <path d="M48.53,121.47Z" fill="#110802"/>
          <path d="M80.81,101h0l-.18,0h0l-.14,0h0a1,1,0,0,1-.27-.1l.11,0a1.37,1.37,0,0,1-.86-1.23,1.42,1.42,0,0,1,1.36-1.46h0l-.19,0h-.05a3.85,3.85,0,0,1,.48,0h.14a12.2,12.2,0,0,0,1.2-.26l-.06,0,.1,0h0c1.68-.41,3.33-.9,5-1.18s3.38-.55,5-.94l-.19,0,.19,0c.69-.17,1.37-.39,2.06-.58.93-.26,1.87-.49,2.8-.71h0l.85-.22v.07a2.52,2.52,0,0,0,.51,1.54v0a2.42,2.42,0,0,0,.16,1,.2.2,0,0,1,0,.08l-1.59.4.18,0c-1.88.46-3.72,1.07-5.62,1.44-1,.2-1.91.37-2.86.53s-1.86.29-2.77.5h0c-1,.25-2.07.54-3.11.78h0a8.71,8.71,0,0,1-2.15.36Z" fill="#110802"/>
          <path d="M97.42,94.52h0Z" fill="#110802"/>
          <path d="M137.26,92.73c-.39-.07-.76-.18-1.14-.27l-1.22-.31h0l-.06,0-.08,0h0a16.19,16.19,0,0,1-3-1.28,19.54,19.54,0,0,1-1.87-1.24,7.21,7.21,0,0,1-.75-.59l-.17-.17c-.34.06-.68.14-1,.21l.09,0-.27.07h0c-1.31.31-2.6.75-3.91,1.08l0,0-.45.12c-1.56.39-3.09.88-4.63,1.32a1.78,1.78,0,0,0,.81-1.21,1.9,1.9,0,0,0-.68-1.8c1.38-.41,2.76-.84,4.16-1.17l-.19,0c1.25-.3,2.47-.69,3.71-1,.53-.15,1.06-.27,1.6-.37l.55-.1a2.13,2.13,0,0,1,1.09.07,4.13,4.13,0,0,1,1.28.92,17.17,17.17,0,0,0,1.79,1.23c.32.19.66.37,1,.53.53.23,1.08.43,1.63.61h.06c.81.24,1.65.39,2.46.64a1.44,1.44,0,0,1-.54,2.79A1.36,1.36,0,0,1,137.26,92.73Z" fill="#110802"/>
          <path d="M134.9,92.15h0Z" fill="#110802"/>
          <path d="M134.91,92.15Z" fill="#110802"/>
          <path d="M138,114.4a1.44,1.44,0,0,1-1.43-1.38c0-.4,0-.8,0-1.2a1.21,1.21,0,0,1,0,.19c0-1.19.1-2.39.14-3.58v.19c.12-4.32.46-8.63.6-13,0,.07,0,.13,0,.19v-.18c0-1.06.05-2.13,0-3.19A1.42,1.42,0,0,1,139,90.61a1.58,1.58,0,0,1,1.08,1.23,4.42,4.42,0,0,1,.06.81c0,.35,0,.69,0,1,0,1.38,0,2.76-.09,4.14-.12,2.71-.29,5.42-.41,8.13,0,.26,0,.52,0,.78v0l-.18,5.48v.13h0c0,.27,0,.55,0,.82A1.44,1.44,0,0,1,138,114.4Z" fill="#110802"/>
          <path d="M131.91,121.85a1.43,1.43,0,0,1-.89-1.67,10.68,10.68,0,0,1,.78-2,21.49,21.49,0,0,1,1.52-2.74,8.72,8.72,0,0,1,2.54-2.76,9.65,9.65,0,0,1,1.15-.6,2.25,2.25,0,0,1,1.08-.22,1.38,1.38,0,0,1,1,.5,1.44,1.44,0,0,1-.05,1.87,1.27,1.27,0,0,1-.8.45h0c-.19.08-.36.17-.54.26a4.43,4.43,0,0,0-.46.29,1.19,1.19,0,0,0-.18.15,9.4,9.4,0,0,0-.66.74l0,0s0,0,0,0,0,0,0,0c-.26.34-.5.69-.73,1.06l-.08.13s0,0,0,0h0c-.39.66-.75,1.34-1.08,2.05-.24.55-.45,1.12-.71,1.67a1.38,1.38,0,0,1-1.27.76A1.23,1.23,0,0,1,131.91,121.85Z" fill="#110802"/>
          <path d="M135.48,117.45h0Z" fill="#110802"/>
          <path d="M135.47,117.46Z" fill="#110802"/>
          <path d="M135.48,117.45h0Z" fill="#110802"/>
          <path d="M135.48,117.44l0,0,0,0Z" fill="#110802"/>
          <path d="M136.36,116.16l0,0Z" fill="#110802"/>
          <path d="M75.56,135.89a1.42,1.42,0,0,1-1.28-1.37,1.44,1.44,0,0,1,1.18-1.46c.37-.08.75-.11,1.11-.18s.55-.09.83-.12h.1l.07,0h0l.52-.05h0l.09,0h.07c1.06-.12,2.11-.3,3.15-.51,1.67-.35,3.35-.66,5-1l1.3-.29-.19.05c.78-.2,1.56-.37,2.34-.56l-.19,0,1.37-.34-.19,0c2.42-.59,4.86-1.13,7.29-1.65,1.12-.25,2.24-.52,3.36-.75s2.29-.44,3.44-.67q1-.21,2.07-.45c.73-.19,1.46-.41,2.2-.59l-.2.05c1.23-.3,2.47-.53,3.71-.82,1-.24,1.94-.51,2.91-.75s2.1-.48,3.14-.73c1.46-.36,2.91-.79,4.34-1.25,1.75-.56,3.47-1.24,5.21-1.82.73-.24,1.45-.49,2.17-.75a3.11,3.11,0,0,1,1.44-.27h-.06a1.39,1.39,0,0,1,1,.51,1.4,1.4,0,0,1,0,1.86,1.47,1.47,0,0,1-1,.46c-.52.15-1,.38-1.52.55-.84.29-1.69.56-2.52.87-1.68.63-3.41,1.19-5.13,1.73-.93.29-1.87.56-2.81.8-1.18.31-2.37.55-3.55.84-.9.22-1.79.47-2.69.7-1.26.32-2.56.54-3.83.85l.19-.05c-1,.25-2,.56-3.09.8s-2.12.44-3.19.64-2.33.48-3.49.75-2.34.5-3.51.75c-1.71.37-3.41.77-5.11,1.17l.19,0-.34.08.19,0-1.23.3-1.77.42h0l-.33.07.19,0-.37.09h0c-1.53.37-3.08.67-4.63,1-1.32.26-2.63.57-4,.76l-1.25.15h0l-.55,0a19.78,19.78,0,0,1-2,.27Z" fill="#110802"/>
          <path d="M88.17,133.69h0Z" fill="#110802"/>
          <path d="M88.73,133.56h0Z" fill="#110802"/>
          <path d="M78.28,135.58h0Z" fill="#110802"/>
          <path d="M88.22,133.68h0Z" fill="#110802"/>
          <path d="M90.49,133.14l-.08,0Z" fill="#110802"/>
          <path d="M77.41,132.76Z" fill="#110802"/>
          <path d="M77.49,132.75h0Z" fill="#110802"/>
          <path d="M77.54,132.75h0Z" fill="#110802"/>
          <path d="M77.53,132.75h0Z" fill="#110802"/>
          <path d="M77.52,132.75Z" fill="#110802"/>
          <path d="M77.56,132.75h0Z" fill="#110802"/>
          <path d="M77.65,132.74h0Z" fill="#110802"/>
          <path d="M78.15,132.69h0Z" fill="#110802"/>
          <path d="M78.26,132.68h0Z" fill="#110802"/>
          <path d="M76.28,135.75A1.47,1.47,0,0,1,75,134.33c0-.13,0-.26,0-.4s0-.16,0-.25c0-.27-.09-.53-.15-.8a10.1,10.1,0,0,0-.32-1.07l-.27-.57c-.15-.26-.32-.51-.49-.75s-.28-.36-.43-.53l-.42-.38c-.18-.14-.36-.27-.55-.39l-.21-.11L72,129l-.09,0a4.55,4.55,0,0,1-.74-.11l.09,0h0l.18,0h0a1.43,1.43,0,0,1-1.26-1.55,1.4,1.4,0,0,1,1.08-1.22h-.09l.25,0h.28a4.23,4.23,0,0,1,1.53.28,6.84,6.84,0,0,1,1.83,1.23,8.58,8.58,0,0,1,2.2,3.19,10.61,10.61,0,0,1,.65,2.55.31.31,0,0,0,0-.1s0,.1,0,.14v.06a3.25,3.25,0,0,1,0,1.12,1.5,1.5,0,0,1-1.44,1.14Z" fill="#110802"/>
          <path d="M71.08,128.16a1.46,1.46,0,0,1-1.1-1.55c.07-.73.26-1.44.39-2.17v0s0,0,0-.07a.13.13,0,0,1,0-.06h0a.09.09,0,0,0,0,0,.06.06,0,0,1,0,0q.15-.91.21-1.83c.11-1.32.25-2.64.29-4v.2c0-.13,0-.25,0-.37a1.21,1.21,0,0,1,0,.19c0-.14,0-.29,0-.43a1.34,1.34,0,0,1,0,.2v-.2c0-1.28.12-2.55.21-3.82s.15-2.73.23-4.1c0-.65.08-1.31.13-2a7,7,0,0,1,.23-1.7,1.41,1.41,0,0,1,1.11-.94,1.44,1.44,0,0,1,1.54.8,1.55,1.55,0,0,1,0,1.25c-.08.69-.11,1.38-.15,2.07-.06.93-.1,1.88-.14,2.81-.09,1.76-.26,3.51-.32,5.26V118a1.21,1.21,0,0,0,0-.19c0,.12,0,.23,0,.35V118c0,.8,0,1.61-.1,2.4l-.18,2.24c-.06.73-.14,1.45-.25,2.18v0s0,.08,0,.12h0v0h0v0h0c-.06.35-.12.69-.19,1a9.26,9.26,0,0,1-.27,1.27,1.43,1.43,0,0,1-1.36.93A1.63,1.63,0,0,1,71.08,128.16Z" fill="#110802"/>
          <path d="M73.21,124.94s0,0,0,0a0,0,0,0,1,0,0Z" fill="#110802"/>
          <path d="M73.22,124.94Z" fill="#110802"/>
          <path d="M73.21,125s0,0,0,.07A.2.2,0,0,1,73.21,125Z" fill="#110802"/>
          <path d="M73.22,124.9h0Z" fill="#110802"/>
          <path d="M70.4,124.34h0Z" fill="#110802"/>
          <path d="M73.87,108a1.43,1.43,0,0,1-1.36-1.16,1.59,1.59,0,0,1,1.11-1.72,4.18,4.18,0,0,1,1.17-.16l.39-.06c.17-.06.35-.11.51-.18s.6-.24.89-.39.47-.29.7-.45.37-.3.55-.46.25-.25.36-.38.17-.23.25-.35a6,6,0,0,0,.37-.71,7.14,7.14,0,0,0,.31-.81c.1-.35.19-.72.26-1.09.09-.58.14-1.2.73-1.55a1.47,1.47,0,0,1,1.29-.13,1.45,1.45,0,0,1,.87.92,3.62,3.62,0,0,1,0,1.5,11.5,11.5,0,0,1-.34,1.65A6.4,6.4,0,0,1,80.49,105a11.33,11.33,0,0,1-4.7,2.69,6.84,6.84,0,0,1-1.55.29h-.1A1.24,1.24,0,0,1,73.87,108Z" fill="#110802"/>
          <path d="M73.84,102.37a2.19,2.19,0,0,1-.84-.44,2,2,0,0,1-.58-1.68,2.36,2.36,0,0,1,.42-1.1,2,2,0,0,1,2-1h-.26a2.33,2.33,0,0,1,.37,0A1.41,1.41,0,0,1,76,99.31a1.2,1.2,0,0,1,0,.5,1.31,1.31,0,0,1,.33.44,1.43,1.43,0,0,1-.68,1.89,2.53,2.53,0,0,1-.86.26,2.69,2.69,0,0,1-.4,0A2.33,2.33,0,0,1,73.84,102.37Z" fill="#110802"/>
          <path d="M137,86.65a2.16,2.16,0,0,1-.68-.7,2,2,0,0,1-.05-1.94,2.24,2.24,0,0,1,.9-1,1.4,1.4,0,0,1,1.85,0,1.43,1.43,0,0,1,.27,1.73l-.15.21a1.4,1.4,0,0,1-.17,1.31,1.39,1.39,0,0,1-1.14.59A1.58,1.58,0,0,1,137,86.65Z" fill="#110802"/>
          <path d="M137.75,121.12a1.45,1.45,0,0,1-1.43-1.38,3,3,0,0,1,.42-1.58,1.43,1.43,0,0,1,1.58-.72,1.42,1.42,0,0,1,1.09,1.33,2.7,2.7,0,0,1-.23,1,1.45,1.45,0,0,1-1.38,1.4Z" fill="#110802"/>
          <path d="M69.67,136.32a1.44,1.44,0,0,1-.59-1.92v0a1.34,1.34,0,0,1-.45-1A1.41,1.41,0,0,1,69.93,132a1.82,1.82,0,0,1,1.6.85,2.74,2.74,0,0,1,.07,2.93,1.51,1.51,0,0,1-1.28.76A1.47,1.47,0,0,1,69.67,136.32Z" fill="#110802"/>
          <path d="M102.81,111.83h0l-.15,0h0a5.71,5.71,0,0,1-1.72-.47,3.26,3.26,0,0,1-1.21-1.18,10.54,10.54,0,0,1-.93-2.72.64.64,0,0,0,0-.07h0a.19.19,0,0,0,0-.07s0-.05,0-.07a21.11,21.11,0,0,1-.47-3c-.09-1.06-.12-2.13-.22-3.19h0l-.06-.57c-.08-.89-.11-1.77-.19-2.65,0,0,0,0,0,.08s0-.06,0-.09,0,0,0-.06v0c0-.16,0-.32-.06-.48a8.5,8.5,0,0,1-1.58.24H96l-.23,0h.08a1.41,1.41,0,0,1,.19-2.8h.13c.5-.07,1-.24,1.47-.3a2.43,2.43,0,0,1,2,.55,3.61,3.61,0,0,1,.95,2.19c.09.63.1,1.27.15,1.91,0,.3,0,.6.08.9,0,0,0,.1,0,.14h0s0,0,0,0v0c.07.7.15,1.4.19,2.09s.09,1.52.17,2.28l0-.2a17.81,17.81,0,0,0,.39,2.3s0,0,0,.09a2.1,2.1,0,0,1,.06.24c.11.42.21.84.36,1.25a2.41,2.41,0,0,0,.15.33l.06.1,0,0,0,0,.11,0,.32.07h.2l.09,0h.07c.41.06.83.12,1.25.14a6.93,6.93,0,0,0,.91,0h.18a29.09,29.09,0,0,0,3.72-.59c1.73-.42,3.44-.92,5.17-1.34l-.19,0a17.4,17.4,0,0,0,1.74-.52c.59-.21,1.18-.37,1.76-.59a9.73,9.73,0,0,0,1-.45s0,0,0,0a1.55,1.55,0,0,0,.08-.23c0-.12.06-.24.09-.36.06-.45.08-.91.11-1.36s.08-1.08.1-1.62c0,.07,0,.14,0,.2,0-.1,0-.2,0-.3v.2a30.35,30.35,0,0,0,0-3.44.28.28,0,0,0,0-.09h0v0h0a.15.15,0,0,1,0-.07v0c-.12-1.11-.27-2.21-.47-3.31s-.37-2-.57-3a9.12,9.12,0,0,1-.12-1.16,6.28,6.28,0,0,1,0-1,2.41,2.41,0,0,1,.56-1.33A2,2,0,0,1,120,88a1.46,1.46,0,0,1,1.47,1.19,1.48,1.48,0,0,1-.61,1.46c0,.22,0,.43,0,.64.06.51.17,1,.27,1.53l.24,1.39c.19,1.17.37,2.33.48,3.51A33.35,33.35,0,0,1,122,102v-.19c0,.61-.05,1.23-.1,1.84s-.06,1.07-.15,1.6a5.33,5.33,0,0,1-.57,1.84,2.82,2.82,0,0,1-1.25,1.14c-.3.13-.59.29-.89.42a12.83,12.83,0,0,1-1.47.52l-1,.35c-.8.27-1.61.45-2.43.64l.19,0c-1.25.3-2.49.68-3.74,1a32.45,32.45,0,0,1-5.29.88q-.34,0-.69,0A12.17,12.17,0,0,1,102.81,111.83Z" fill="#110802"/>
          <path d="M98.76,107.34v0Z" fill="#110802"/>
          <path d="M105.42,109h0Z" fill="#110802"/>
          <path d="M98.75,107.32a0,0,0,0,0,0,0A0,0,0,0,1,98.75,107.32Z" fill="#110802"/>
          <path d="M101.6,106.61s0,0,0,0S101.61,106.62,101.6,106.61Z" fill="#110802"/>
          <path d="M100.88,100.16h0v0Z" fill="#110802"/>
          <path d="M96.17,97.59h0Z" fill="#110802"/>
          <path d="M102.82,111.83Z" fill="#110802"/>
          <path d="M105.46,109h0Z" fill="#110802"/>
          <path d="M103,108.87h0Z" fill="#110802"/>
          <path d="M103,108.86Z" fill="#110802"/>
          <path d="M102.81,108.83h0Z" fill="#110802"/>
          <path d="M98.75,107.3s0,0,0,0Z" fill="#110802"/>
          <path d="M98.75,107.29h0Z" fill="#110802"/>
          <path d="M98.75,107.29Z" fill="#110802"/>
          <path d="M98.72,107.17v0a.64.64,0,0,1,0,.07Z" fill="#110802"/>
          <path d="M119,98.55a.06.06,0,0,1,0,0v0S119,98.57,119,98.55Z" fill="#110802"/>
          <path d="M119,98.47v0Z" fill="#110802"/>
          <path d="M119,98.45h0Z" fill="#110802"/>
          <path d="M119,98.34v0h0Z" fill="#110802"/>
          <path d="M110.09,99.18a3.92,3.92,0,0,1-2.54-1,2.9,2.9,0,0,1-.92-2.06,3.71,3.71,0,0,1,1.3-2.93,3.58,3.58,0,0,1,2.85-1,2,2,0,0,1,1.89,1.76V94a3.06,3.06,0,0,1,.6.54,2.47,2.47,0,0,1,.66,1.87,2.75,2.75,0,0,1-.93,1.7,4.77,4.77,0,0,1-1,.62,4.2,4.2,0,0,1-1.8.48Z" fill="#110802"/>
          <path d="M107.82,106a1.64,1.64,0,0,1-1-1.67,2.84,2.84,0,0,1,.25-.86c.61-1.44,1.22-2.88,1.69-4.37.14-.46.28-.93.43-1.39a1.78,1.78,0,0,1,.89-1.19,1.21,1.21,0,0,1,.37-.11.7.7,0,0,1,.2-.08,1.57,1.57,0,0,1,1.66.53,4.62,4.62,0,0,1,.64,1c.23.47.44,1,.65,1.44l.78,1.89a14.11,14.11,0,0,1,.77,2,1.64,1.64,0,0,1-1,1.9,7.94,7.94,0,0,1-1,.28c-.52.14-1,.26-1.56.35s-1.29.16-1.94.23a11.79,11.79,0,0,1-1.21.13A2,2,0,0,1,107.82,106Z" fill="#110802"/>
          <path d="M76.63,124.35a1.41,1.41,0,0,1,0-2.8l.27,0,.94-.22c.74-.17,1.47-.32,2.2-.5a1.41,1.41,0,0,1,.67,2.74l-2.39.55a6.55,6.55,0,0,1-1.49.28Z" fill="#110802"/>
          <path d="M114.48,114.88a1.42,1.42,0,0,1,.91-1.77c.7-.2,1.4-.43,2.11-.6,1.15-.29,2.32-.52,3.47-.8h0l2.36-.62c.75-.2,1.5-.38,2.24-.59a1.41,1.41,0,0,1,.85,2.69c-1.22.36-2.47.66-3.71,1s-2.78.65-4.15,1l-.2,0c-.7.18-1.38.39-2.08.59a1.39,1.39,0,0,1-.4.06A1.4,1.4,0,0,1,114.48,114.88Z" fill="#110802"/>
          <path d="M82.58,109.46A1.41,1.41,0,0,1,83.85,108c1-.18,2.07-.38,3.09-.62l-.19,0c1.24-.31,2.47-.61,3.71-.94.94-.25,1.88-.55,2.84-.75a1.41,1.41,0,0,1,.48,2.78l-.2,0h.06c-.68.16-1.34.37-2,.55-1,.26-1.93.49-2.9.74s-2,.5-3,.68c-.34.06-.69.11-1,.18a3.76,3.76,0,0,1-.66.1A1.42,1.42,0,0,1,82.58,109.46Z" fill="#110802"/>
          <path d="M85.56,81.62a9.53,9.53,0,0,0-3.2-4.39,8.9,8.9,0,0,0-1.36-.9A11.38,11.38,0,0,0,81.1,75c0-1.18,0-2.35-.1-3.53s-.1-2.1-.2-3.15a.09.09,0,0,0,0,0v0a40.42,40.42,0,0,0-1.22-6.55c-.28-1-.58-2-.9-3a16.47,16.47,0,0,0-1.22-2.9c-.37-.66-.77-1.3-1.16-1.95s-.94-1.59-1.42-2.38A23.18,23.18,0,0,0,73.16,49c-.54-.7-1.09-1.41-1.66-2.09a13.61,13.61,0,0,0-1.78-1.78l-.29-.22.19,0c.95-.14,1.9-.28,2.84-.46s1.84-.44,2.75-.68,1.88-.37,2.82-.56,1.74-.35,2.61-.51,1.8-.32,2.7-.46,1.85-.37,2.76-.59c.52-.12,1-.25,1.55-.34l1.64-.24c1-.16,2.07-.35,3.11-.54L95.47,40c1-.18,2-.41,2.91-.64,1.69-.41,3.39-.75,5.09-1.12,1.31-.28,2.63-.5,4-.65h.11c.74-.08,1.47-.16,2.2-.28a13.77,13.77,0,0,0,1.58-.3,1.44,1.44,0,0,0,.5-.28h0l.2.06c.71.22,1.43.41,2.14.62.87.26,1.7.65,2.55,1,.55.21,1.09.47,1.64.69.35.13.69.25,1,.39a14.78,14.78,0,0,1,1.51.83.6.6,0,0,1,.13.09h0l.17.1c.67.43,1.32.89,2,1.35s1.16.79,1.71,1.21a.08.08,0,0,0,0,0l.49.43c.42.39.81.8,1.22,1.19s.77.7,1.15,1c.74.66,1.48,1.31,2.17,2v0h0a16.94,16.94,0,0,1,1.16,1.38c.36.49.69,1,1,1.49s.77,1.12,1.13,1.69c.66,1,1.29,2.07,1.89,3.13,0,0,0,0,0,0h0a.39.39,0,0,0,.06.11,30.32,30.32,0,0,1,1.45,2.91l0,.06h0v0a6.91,6.91,0,0,1,.25.77c.05.22.08.43.11.64,0,0,0,0,0,.07v.06a.15.15,0,0,1,0,.07,23.56,23.56,0,0,1,.1,2.38c0,.55,0,1.11,0,1.66v.07a10.66,10.66,0,0,0-1.1.61,9.2,9.2,0,0,0-1.18.9,8.76,8.76,0,0,0-1.39,1.59,8.32,8.32,0,0,0-1,2.24,17.73,17.73,0,0,0-.54,2.29c0,.17-.06.36-.08.54l-1.26.31c-1,.23-1.91.43-2.85.68l-2.66.68c-.9.21-1.8.38-2.71.54s-1.85.39-2.78.58-1.67.37-2.49.6-1.75.54-2.64.77c-.67.15-1.35.26-2,.38s-1.45.3-2.17.48h0l-.23.05-.26.06-.15,0h-.06l-.13,0c-.85.2-1.7.37-2.56.55s-1.8.43-2.7.65l-.18,0c-1.08.26-2.15.52-3.24.71s-2.36.32-3.53.52-2.2.37-3.29.57-2.13.51-3.18.78c-.79.18-1.59.33-2.39.47s-1.52.26-2.28.35l-.41,0C85.73,82.16,85.64,81.88,85.56,81.62ZM102,70.76c-2.56.5-5.12,1-7.67,1.48-1.24.25-2.5.47-3.75.69l-1.84.34c-.46.09-.93.18-1.38.31a1.42,1.42,0,0,0-.92,1.77,1.44,1.44,0,0,0,1.33,1,1.06,1.06,0,0,0,.25,0c2.28-.5,4.58-.85,6.87-1.3l7.58-1.47a1.42,1.42,0,0,0-.23-2.82A1,1,0,0,0,102,70.76Zm25.57-18.17c-.93.27-1.86.54-2.79.78l-.32.08-3,.7h0c-1.39.34-2.77.72-4.16,1.08s-2.83.71-4.24,1.09-3,.83-4.45,1.27-2.68.76-4,1.16a1.42,1.42,0,0,0-.92,1.77,1.4,1.4,0,0,0,1.35,1,1.52,1.52,0,0,0,.42-.06c1.33-.4,2.68-.75,4-1.15,1.48-.45,3-.88,4.46-1.27s2.82-.72,4.23-1.08,2.7-.72,4-1l.41-.1c1-.24,2.06-.48,3.09-.74s1.79-.5,2.68-.77a1.41,1.41,0,0,0-.45-2.75A1.39,1.39,0,0,0,127.54,52.59Zm-16.82-7.52c-1.41.23-2.82.46-4.22.77l-4.26.93c-1.44.31-2.88.63-4.3,1-1.26.36-2.52.72-3.79,1-1.93.46-3.89.75-5.85,1.06s-3.74.67-5.63.88a1.42,1.42,0,0,0-1.15,1.63,1.39,1.39,0,0,0,.58.91,1.42,1.42,0,0,0,.83.25h.22c1.44-.15,2.86-.41,4.28-.65s2.87-.44,4.3-.68,3-.6,4.44-1c1.32-.34,2.61-.75,3.93-1.09,1.82-.44,3.65-.8,5.48-1.21s3.73-.78,5.62-1.08a1.42,1.42,0,0,0-.26-2.82Z" fill="#a87045"/>
          <path d="M121.5,54.15h0Z" fill="#a87045"/>
          <path d="M77.25,130.85a8.43,8.43,0,0,0-2.2-3.18,6.87,6.87,0,0,0-1.83-1.24l-.26-.09c0-.12,0-.24.07-.35,0-.32.12-.65.17-1a.36.36,0,0,1,0-.1v0s0-.07,0-.11,0,0,0,0v0c.12-.72.19-1.44.25-2.16l.18-2.24c.07-.73.08-1.47.1-2.2,0-.06,0-.11,0-.16v-.22c.06-1.75.23-3.5.32-5.26,0-.93.09-1.88.14-2.81,0-.59.06-1.17.12-1.75a7.7,7.7,0,0,0,1.43-.28,11.05,11.05,0,0,0,2.11-.84A10.62,10.62,0,0,0,80.49,105a6.28,6.28,0,0,0,1.41-2.58,11.4,11.4,0,0,0,.33-1.54c.33-.06.66-.14,1-.23h0l.09,0c1-.24,2-.53,3-.78s1.84-.34,2.76-.5S91,99,92,98.84c1.88-.37,3.69-1,5.54-1.42l.23-.06c0,.15,0,.29.07.44v0h0s0,.06,0,.09c.07.85.1,1.71.19,2.57,0,.19,0,.38.05.58v0c.1,1,.13,2.11.23,3.16a20.38,20.38,0,0,0,.45,2.92l0,.19s0,0,0,.07a10.21,10.21,0,0,0,.94,2.72,3.19,3.19,0,0,0,1.21,1.18,5.59,5.59,0,0,0,1.7.47l.15,0h0a12.43,12.43,0,0,0,1.82.16l.68,0a32.57,32.57,0,0,0,5.3-.88c1.22-.32,2.42-.69,3.64-1l.1,0c.75-.18,1.5-.35,2.24-.6l1-.35a12,12,0,0,0,1.46-.52c.3-.13.59-.29.89-.42a2.82,2.82,0,0,0,1.25-1.14,5.14,5.14,0,0,0,.58-1.84c.08-.53.1-1.07.15-1.6s.08-1.17.09-1.75a30.16,30.16,0,0,0-.09-4.14c-.11-1.18-.29-2.34-.48-3.51-.08-.46-.15-.93-.24-1.39s-.2-1-.27-1.53l0-.31c.85-.24,1.7-.49,2.55-.7l.41-.1c1.31-.33,2.59-.77,3.91-1.08L128,89c.3-.07.61-.14.92-.19l.17.17a8.32,8.32,0,0,0,.74.59,21,21,0,0,0,1.88,1.24,16,16,0,0,0,3,1.27l.08,0,.06,0,1.21.31c.39.09.76.2,1.15.27h0c0,.94,0,1.89,0,2.83v.1h0c-.14,4.32-.49,8.63-.6,12.94v-.19c0,1.14-.1,2.26-.13,3.4,0,.17,0,.35,0,.53a6.42,6.42,0,0,0-.68.37,8.83,8.83,0,0,0-2.54,2.76,22.19,22.19,0,0,0-1.52,2.74,15.18,15.18,0,0,0-.64,1.49,5.2,5.2,0,0,0-.67.21c-.72.26-1.44.51-2.17.75-1.74.58-3.46,1.26-5.21,1.82-1.43.46-2.88.89-4.33,1.25l-3.15.73c-1,.24-1.94.51-2.91.75-1.17.27-2.35.5-3.52.77-.73.18-1.46.4-2.19.59s-1.38.31-2.07.45c-1.15.23-2.3.43-3.44.67s-2.24.5-3.36.75c-2.42.52-4.85,1.06-7.26,1.64l-1,.25c-.78.19-1.56.36-2.34.56l-1.11.24c-1.66.37-3.34.68-5,1-1,.21-2.08.39-3.13.51h-.09l-.1,0-.28,0A11.83,11.83,0,0,0,77.25,130.85Zm2.82-10.06c-.72.18-1.46.34-2.19.5-.32.08-.63.16-.95.22l-.27,0A1.45,1.45,0,0,0,75.42,123a1.43,1.43,0,0,0,1.21,1.35h.23a7.37,7.37,0,0,0,1.5-.28c.79-.18,1.59-.35,2.38-.55a1.42,1.42,0,0,0,.92-1.77,1.46,1.46,0,0,0-1.33-1A1.15,1.15,0,0,0,80.07,120.79Zm45.47-10.28c-.75.21-1.5.39-2.25.59l-2.35.62c-1.15.27-2.3.5-3.44.79-.71.17-1.4.4-2.1.6a1.41,1.41,0,0,0,.44,2.75,1.51,1.51,0,0,0,.41-.06c.69-.2,1.38-.41,2.07-.59l.22,0c1.38-.33,2.77-.62,4.14-1s2.48-.62,3.71-1a1.41,1.41,0,0,0-.85-2.69ZM93.3,105.75c-1,.2-1.89.5-2.84.75-1.17.31-2.35.6-3.52.89-1,.24-2.06.44-3.09.62a1.41,1.41,0,0,0-1.27,1.45A1.44,1.44,0,0,0,84,110.82a3.65,3.65,0,0,0,.65-.1l1-.18c1-.18,2-.43,3-.68s1.94-.48,2.9-.74c.68-.18,1.34-.39,2-.55l.14,0a1.43,1.43,0,0,0,1.15-1.63,1.45,1.45,0,0,0-1.37-1.18A2.3,2.3,0,0,0,93.3,105.75Z" fill="#a87045"/>
          <path d="M51.84,130.68A29.9,29.9,0,0,0,49,129.1c-.52-.25-1.06-.51-1.57-.78s-1.14-.64-1.7-.95l-3.16-1.72c-1-.56-2.07-1.11-3.12-1.64l-.94-.48a7.1,7.1,0,0,0,.08-1.31,5.92,5.92,0,0,0-.48-2,6.78,6.78,0,0,0-1-1.48,8.9,8.9,0,0,0-.8-.93,1.33,1.33,0,0,0,.14-.48l0-.34c.12-1.42.16-2.85.21-4.27l.06-1.86c0-.3,0-.62,0-.92v-.15l0-1.14c0-2.54,0-5.09,0-7.63,0-1.31-.1-2.62-.13-3.93,0-.76,0-1.51,0-2.27a5.55,5.55,0,0,0,1.15-.21,4.82,4.82,0,0,0,1.84-1.07,4.89,4.89,0,0,0,.45-.46l.14,0c.38.12.76.22,1.14.33,1.14.36,2.25.78,3.36,1.22s2,.71,3,1.13c.67.3,1.36.53,2,.79l1.84.72c.92.37,1.83.81,2.78,1.12.06.32.13.64.2,1a6.23,6.23,0,0,0,.37,1.13c.13.28.27.56.42.83a9.48,9.48,0,0,0,.79,1.29,7.4,7.4,0,0,0,1.65,1.7,5,5,0,0,0,2,.87l.59.11,0,.35q-.16,1.44-.3,2.88c-.18,2-.46,4.07-.74,6.1-.12.85-.22,1.69-.31,2.54s-.14,1.82-.25,2.73q-.23,1.86-.51,3.72a1.71,1.71,0,0,0,0,.32L58,124a12,12,0,0,0-1.2.38,7.36,7.36,0,0,0-2.59,1.64,8.22,8.22,0,0,0-1.57,2.6,12.91,12.91,0,0,0-.66,2.11Zm-7-12.72a1.42,1.42,0,0,0,.34,2,15.07,15.07,0,0,0,3,1.36l.41.18h0l.07,0a24.26,24.26,0,0,0,2.51.92,1.61,1.61,0,0,0,.48.08,1.4,1.4,0,0,0,1.33-.9,1.42,1.42,0,0,0-.82-1.82,23.45,23.45,0,0,1-2.35-.85h0l-.14-.07h0l-1.19-.52c-.39-.15-.79-.29-1.17-.45l-.36-.2-.11-.07a1.53,1.53,0,0,0-.82-.24A1.39,1.39,0,0,0,44.81,118Zm-5.33-12.5a5.48,5.48,0,0,0,1.39.64c1.63.54,3.27,1.05,4.91,1.55l.18,0c1.13.35,2.24.75,3.34,1.17a1.36,1.36,0,0,0,.48.09,1.41,1.41,0,0,0,1.33-.91,1.43,1.43,0,0,0-.82-1.82c-1.31-.5-2.62-1-4-1.36l.17,0c-1-.3-2-.61-3-.93a23,23,0,0,1-2.26-.75l-.07,0a1.45,1.45,0,0,0-1.36-.54,1.42,1.42,0,0,0-1.16,1.49s0,0,0,0a1.28,1.28,0,0,1,0-.19A1.68,1.68,0,0,0,39.48,105.46Z" fill="#a87045"/>
          <path d="M61.35,84.26c-.75-.24-1.5-.54-2.24-.81-1-.37-2.1-.71-3.15-1.06-1.23-.4-2.44-.89-3.63-1.38l-.95-.41-.09,0-.13,0c-.29-.14-.58-.27-.88-.39q-1-.42-2-.81c-1.24-.49-2.49-.94-3.72-1.43s-2.52-1-3.77-1.53c-1-.44-2.09-.86-3.12-1.31,0-.23,0-.49,0-.71a22.72,22.72,0,0,1,.26-2.73c.11-.65.26-1.29.4-1.92.1-.46.2-.91.33-1.35,0,0,0,0,0,0h0a23.12,23.12,0,0,1,1-2.55.42.42,0,0,0,0,.1,19.82,19.82,0,0,1,1.14-2.13v0c.41-.65.87-1.26,1.33-1.88s.84-1.19,1.29-1.76a12.94,12.94,0,0,1,.93-1,14.56,14.56,0,0,1,1.2-1A24,24,0,0,1,48,56.46h0l0,0h0a13.94,13.94,0,0,1,1.35-.65c.39-.13.79-.23,1.18-.33h.05l1.25-.26a1.37,1.37,0,0,0,1.7.19l.54.22c.43.21.86.44,1.27.69A17.3,17.3,0,0,1,57,57.37c.18.15.36.31.52.47s.35.4.51.61a13.37,13.37,0,0,1,.78,1.23l0,0,0,.05a44.39,44.39,0,0,1,2.07,4.49,31.31,31.31,0,0,1,1.19,4s0-.06,0-.09a22.39,22.39,0,0,1,.5,2.67,24.39,24.39,0,0,1,.1,3.08V74c0,.44,0,.89,0,1.32,0,.69,0,1.39-.05,2.08,0,0,0,0,0,0v0c0,.82-.06,1.65-.09,2.47l0,1.19a1.34,1.34,0,0,1,0,.2,24.07,24.07,0,0,1-.21,2.94h0l0,.16C61.89,84.41,61.62,84.34,61.35,84.26Zm-14.78-20A1.45,1.45,0,0,0,48,65.64h.35a13.63,13.63,0,0,1,1.69.17,31.84,31.84,0,0,1,3.5.84l.31.09,1.21.4a1.61,1.61,0,0,0,.48.08,1.41,1.41,0,0,0,.51-2.73A37.71,37.71,0,0,0,52,63.27c-.73-.16-1.46-.29-2.2-.38s-1.2-.09-1.8-.1h0A1.43,1.43,0,0,0,46.57,64.26Z" fill="#a87045"/>
          <path d="M68.24,93.63l-.46-.21h0l-.13-.06h0a3.93,3.93,0,0,0-.92-.34l-.14,0a1.58,1.58,0,0,0-.36-.2l-1.13-.38h0l-.09,0,0,0h0l0,0c-.85-.25-1.71-.47-2.56-.73h0c-.77-.24-1.55-.46-2.33-.69-1.09-.34-2.16-.74-3.23-1.15s-2.2-.9-3.32-1.3l-3.9-1.35c-1.3-.47-2.59-1-3.86-1.49s-2.45-1-3.69-1.44-2.44-.89-3.63-1.42c-1-.44-1.91-.9-2.88-1.33s-1.72-.78-2.59-1.14l-.17-.07a1.44,1.44,0,0,0,.14-.49,4.17,4.17,0,0,0,0-.5c0-.38,0-.77,0-1.15,0-1.21,0-2.43,0-3.63,0-.84,0-1.69.1-2.53s.11-1.83.24-2.73h0A17.92,17.92,0,0,1,33.7,67a42.73,42.73,0,0,1,2-5,30.14,30.14,0,0,1,1.82-3.47c.32-.51.68-1,1-1.49s.75-1.06,1.16-1.57c.2-.23.42-.46.64-.68a48.12,48.12,0,0,1,4-3.56l0,0c.54-.39,1.11-.73,1.68-1.07s1.06-.66,1.6-1c.31-.17.64-.33,1-.47l.36-.1,1.25-.28a1.2,1.2,0,0,0,.67-.45c.28,0,.56,0,.84,0s.51,0,.76.08a30,30,0,0,1,3.27.8c.48.16,1,.32,1.44.53l.06,0a7.43,7.43,0,0,1,.73.4,28,28,0,0,1,3,2.12,20.62,20.62,0,0,1,1.78,1.59c.53.58,1,1.21,1.5,1.85a32.62,32.62,0,0,1,2,3.1l0,.08,0,0h0l0,0c.5.93,1,1.89,1.41,2.84s.75,1.63,1.09,2.46v0a12.25,12.25,0,0,1,.42,1.34,27.41,27.41,0,0,1,.59,3.59s0,.07,0,.11c.08.78.16,1.57.17,2.35s0,1.71,0,2.56c-.06,1.51-.21,3-.39,4.52a1.42,1.42,0,0,0,1.26,1.54H71a1.44,1.44,0,0,0,1.41-1.27c.17-1.48.35-3,.41-4.45a38.28,38.28,0,0,0-.08-4.67c-.11-1.23-.25-2.44-.47-3.66a19.32,19.32,0,0,0-.46-2c-.18-.57-.4-1.13-.63-1.68-.45-1.07-1-2.1-1.44-3.14a38.15,38.15,0,0,0-2-3.54,30.21,30.21,0,0,0-2.34-3.26,19.61,19.61,0,0,0-3.08-2.89c-.63-.5-1.28-1-2-1.43a14.17,14.17,0,0,0-2.06-1.2,16.69,16.69,0,0,0-2.15-.77c.36-.11.71-.23,1.06-.36l.57-.11c1.49-.28,3-.58,4.44-.91l.24,0a7.25,7.25,0,0,1,.78.17l.58.23a9.44,9.44,0,0,1,.9.45c.45.28.87.58,1.32.86l.28.17h0l0,0s0,0,0,0a16.26,16.26,0,0,1,1.46,1,8.3,8.3,0,0,1,.69.64c.47.5.9,1,1.33,1.57s1,1.26,1.5,1.91a35.47,35.47,0,0,1,1.87,3c.54.93,1.12,1.84,1.64,2.77a11.42,11.42,0,0,1,.49,1.06A45,45,0,0,1,77,63.65a36.26,36.26,0,0,1,.79,4.64c.12,1.13.16,2.26.23,3.39s.14,2.42.1,3.63A9.88,9.88,0,0,1,78,76.39h0a1.42,1.42,0,0,0,1.35,2.35c.2.1.39.21.59.33s.42.28.62.44.44.39.65.59.4.46.59.7.38.55.55.84.18.35.25.53c.12.34.23.69.32,1a4.94,4.94,0,0,0,.18.76,1.52,1.52,0,0,0,1.3,1,1.48,1.48,0,0,0,.85.27h.33q.38,0,.75,0c.87-.08,1.74-.23,2.6-.38s1.75-.3,2.6-.51,1.64-.44,2.46-.64,1.66-.29,2.49-.44,1.91-.31,2.87-.44a50.13,50.13,0,0,0,5.46-1.06l1.7-.41c1-.24,2-.43,3.06-.66s2.22-.56,3.35-.77a28.26,28.26,0,0,0,3.14-.66c1-.28,1.93-.58,2.9-.83,1.59-.38,3.19-.7,4.79-1,1.85-.33,3.66-.84,5.49-1.29.77-.19,1.56-.36,2.34-.54l1.11-.3c.48-.11,1-.2,1.45-.34a1.44,1.44,0,0,0,.94-1.81,1.18,1.18,0,0,0-.27-.49,2.17,2.17,0,0,1,0-.25,14.26,14.26,0,0,1,.43-1.8l.06-.21a6.92,6.92,0,0,1,.28-.76,4.74,4.74,0,0,1,.26-.5c.1-.16.22-.32.33-.47l.46-.51c.22-.19.44-.38.67-.55s.28-.2.42-.28l.93-.47.94-.55.08,0a1.45,1.45,0,0,0,.68-1.89,1.34,1.34,0,0,0-.32-.42v-.45c0-.47,0-.94,0-1.42,0-.73,0-1.45-.11-2.18v0a.88.88,0,0,0,0-.16c0-.15,0-.31,0-.46a11.69,11.69,0,0,0-1.41-3.68c-.14-.28-.29-.55-.44-.83s-.13-.26-.2-.38l-.13-.23c-.06-.13-.13-.24-.2-.36-.64-1.14-1.32-2.26-2-3.36s-1.49-2.3-2.32-3.38a43.43,43.43,0,0,0-4.63-4.57c-.41-.4-.81-.81-1.24-1.19a15,15,0,0,0-1.65-1.3c-1.07-.75-2.13-1.5-3.24-2.19a14.5,14.5,0,0,0-1.63-.92c-.47-.22-1-.39-1.43-.59s-1.15-.51-1.73-.73-.86-.34-1.28-.52l-.35-.14c.67-.07,1.34-.16,2-.28a1,1,0,0,0,.25,0l1.35.17a17.35,17.35,0,0,1,1.72.44A41.21,41.21,0,0,1,126.08,37c.57.28,1.12.61,1.67.94L129.57,39a13.85,13.85,0,0,1,1.55,1.08c1,.79,1.85,1.65,2.74,2.51s1.68,1.6,2.48,2.43a38.73,38.73,0,0,1,3,3.43,19.4,19.4,0,0,1,1.14,1.84l0,0,.05.09h0v0l.05.09c.51,1,1,2,1.41,3a31.38,31.38,0,0,1,1.14,3.56c0,.06,0,.12,0,.18a28.48,28.48,0,0,1,.51,3c.11,1.14.11,2.27.14,3.4s0,2.24.05,3.35,0,2.3,0,3.44c0,.8,0,1.59,0,2.39a21.84,21.84,0,0,1-.16,2.29l-.06.29c-.09.25-.19.48-.27.71-.5.15-1,.33-1.5.47s-1,.19-1.46.28c-.76.15-1.52.32-2.27.51l-.1,0H138c-1,.23-2,.44-3,.64s-2.17.5-3.25.76c-1.74.42-3.49.82-5.23,1.25-2.22.53-4.47.93-6.71,1.37s-4.68.93-7,1.52c-1.43.36-2.85.75-4.26,1.14s-2.73.8-4.09,1.19c-2.79.8-5.6,1.54-8.41,2.23h0c-2.44.58-4.9,1.11-7.35,1.65-1.17.27-2.34.54-3.52.79s-2.26.54-3.4.82l-.08,0c-1.62.38-3.26.66-4.9,1s-3,.8-4.51,1.17l-.18,0-2.31.56-.24,0-.12,0a6.37,6.37,0,0,0-.75.2Zm-.65-2.71a1.42,1.42,0,0,0,1.26,1.55H69a1.43,1.43,0,0,0,1.39-1.27c.17-1.09.35-2.17.46-3.27.06-.65.08-1.3.08-2a1.41,1.41,0,0,0-2.82.09c0,.26,0,.51,0,.76,0-.06,0-.12,0-.19A38.16,38.16,0,0,1,67.59,90.92ZM52.07,52.22a22.94,22.94,0,0,0-3.27.7,10.58,10.58,0,0,0-2.12.95,23.18,23.18,0,0,0-3.49,2.31,15.13,15.13,0,0,0-2.13,2.18c-.51.66-1,1.34-1.47,2a22.89,22.89,0,0,0-2.8,4.81,23.69,23.69,0,0,0-.94,2.6c-.27.93-.45,1.91-.64,2.86a19.48,19.48,0,0,0-.34,2.84c0,.38,0,.76,0,1.14a2.46,2.46,0,0,0,.12.85,1.46,1.46,0,0,0,.29,1.43,3.24,3.24,0,0,0,1.23.75l2,.85c1.25.53,2.49,1.09,3.75,1.59,2.51,1,5.08,1.91,7.57,3l.23.11.21.1.07,0c.61.27,1.24.54,1.86.78,1.23.48,2.45.93,3.7,1.34,1,.31,1.89.65,2.83,1a24.05,24.05,0,0,0,2.31.77,15.91,15.91,0,0,0,1.68.28l.18,0a1.43,1.43,0,0,0,1.29-1,1.35,1.35,0,0,0,.65-.62,4.64,4.64,0,0,0,.36-1.42c0-.29.06-.58.09-.86.06-.7.09-1.4.11-2.1v-.39c0-.28,0-.57,0-.85a1,1,0,0,1,0-.17v0c0-.82.07-1.65.09-2.47,0-.66,0-1.33,0-2s.07-1.54.07-2.31a22.82,22.82,0,0,0-.22-3.51A33.81,33.81,0,0,0,64.49,66,27.69,27.69,0,0,0,63.1,62c-.55-1.25-1.11-2.5-1.77-3.7a10.64,10.64,0,0,0-2.32-3,15.79,15.79,0,0,0-2.13-1.51,11.81,11.81,0,0,0-2.22-1.11,3.52,3.52,0,0,0-1.1-.25h-.44a1.56,1.56,0,0,0-.84-.25Zm24.4,31.13a2.2,2.2,0,0,0-.86,1.13,1.8,1.8,0,0,0,.32,1.78,2,2,0,0,0,1.48.66h.09a1.89,1.89,0,0,0,1.78-2.22,1.52,1.52,0,0,0-.83-1.07l-.15-.16a1.48,1.48,0,0,0-1-.37A1.56,1.56,0,0,0,76.47,83.35Zm62.91-14.27a1.7,1.7,0,0,0-.9.7,2.7,2.7,0,0,0-.51,1.44,1.59,1.59,0,0,0,.85,1.42,1.92,1.92,0,0,0,.87.21,2,2,0,0,0,.34,0,1.43,1.43,0,0,0,1.16-1.64s0,0,0,0h0a1.72,1.72,0,0,0,0-1.3,1.45,1.45,0,0,0-1.33-.83A1.31,1.31,0,0,0,139.38,69.08Z" fill="#ffca11"/>
          <path d="M63.18,140.57c-.59,0-1.19,0-1.78-.14l.11,0-.15,0h0a22.31,22.31,0,0,1-2.39-.55c-.94-.29-1.85-.69-2.78-1-1.11-.37-2.23-.73-3.31-1.21-1.48-.68-2.92-1.45-4.37-2.2-.69-.36-1.36-.76-2-1.14s-1.47-.8-2.19-1.23l.07,0c-1-.6-1.93-1.19-2.9-1.78s-1.78-1.14-2.65-1.73-1.63-1.26-2.48-1.84-1.61-1.09-2.43-1.6c-.46-.29-1-.52-1.43-.81h0l0,0c-.21-.14-.43-.27-.63-.42l-.13-.12,0,0h0l0-.07c0-.11,0-.22-.05-.33,0-.5,0-1,0-1.52a1.45,1.45,0,0,0,1.28.73,1.41,1.41,0,0,0-.09-2.82,1.35,1.35,0,0,0-1.15.68c.12-3.34.49-6.65.6-10,.09-2.32.26-4.63.33-7,.06-2.11,0-4.22,0-6.33s-.2-4.42-.16-6.64a1.93,1.93,0,0,1,0-.24c.06-2.14.25-4.28.42-6.42,0-.5.08-1,.1-1.5l1.38.61h0l2.72,1.28c1,.45,2,.85,3,1.22l2.89,1.1c1,.4,2.07.85,3.11,1.26,1.32.52,2.66,1,4,1.46s2.5.85,3.73,1.35,2.43,1,3.66,1.39,2.35.76,3.55,1.12l.06,0,.11,0,.56.17c.84.26,1.69.48,2.54.73h0l.51.17a1.5,1.5,0,0,0,.94.48h.52l.28.12.06,0c.6.27,1.2.55,1.82.76a1.36,1.36,0,0,0,.48.09,1.46,1.46,0,0,0,.55-.11,1.19,1.19,0,0,0,.53-.18l.54-.13h0l.12,0h0L71.76,96l1.36-.33.19-.05c1.14-.28,2.27-.62,3.42-.91h0c1.9-.45,3.83-.74,5.72-1.2L84.61,93c1.06-.25,2.13-.46,3.18-.7s2.21-.5,3.31-.73q3.39-.72,6.74-1.56c2.82-.7,5.63-1.44,8.41-2.26s5.4-1.56,8.12-2.23c2.49-.58,5-1.08,7.51-1.57,1.2-.24,2.4-.46,3.59-.71s2.49-.58,3.73-.88h-.07c1.6-.38,3.2-.75,4.8-1.14,1.16-.27,2.33-.5,3.5-.75s2.22-.55,3.35-.77c.78-.15,1.56-.27,2.32-.49l.54-.16-.09,3.76v-.19c-.07,2.33-.26,4.65-.35,7s-.18,4.57-.29,6.84c-.08,1.4-.21,2.79-.32,4.19s-.17,2.87-.19,4.31-.05,2.84-.06,4.26,0,2.71,0,4.07a1.28,1.28,0,0,0,0-.19v.14c-.05,1.26-.17,2.52-.29,3.77s-.17,2.31-.31,3.45c-.09.67-.19,1.35-.3,2l-1.69.7-.29.12,0,0-.26.1h0c-1.7.66-3.44,1.22-5.18,1.75-2.13.66-4.26,1.32-6.39,2-2.8.84-5.65,1.52-8.5,2.21s-5.59,1.44-8.39,2.14l-.19.05-1.25.29c-1.44.33-2.88.6-4.31,1s-2.88.84-4.31,1.26c-2.91.84-5.84,1.59-8.78,2.32l-.27.07-.53.12-.4.1-.15,0-.19,0h0l-3.79.93-.66.16a57,57,0,0,1-5.74,1.11c-1.69.23-3.38.5-5.07.67h-.28l-.68.07H74c-1.57.17-3.14.41-4.71.66-1.41.21-2.83.4-4.26.55L64,141A1.31,1.31,0,0,0,63.18,140.57Zm.07-5.67c0,.71,0,1.42,0,2.12v.09a1.21,1.21,0,0,1,0,.19c0,.59,0,1.19-.07,1.78a1.44,1.44,0,0,0,1.27,1.55h.13A1.4,1.4,0,0,0,66,139.36c.06-1.18.12-2.36.13-3.53a4.17,4.17,0,0,0-.22-1.79l0,0A1.43,1.43,0,0,0,64,133.4a1.4,1.4,0,0,0-.79,1.43s0-.07,0-.1A.88.88,0,0,0,63.25,134.9Zm6.68-3a1.41,1.41,0,0,0-1.29,1.45,1.37,1.37,0,0,0,.45,1v0a1.43,1.43,0,0,0,.6,1.92,1.4,1.4,0,0,0,.65.17,1.5,1.5,0,0,0,1.27-.76,2.72,2.72,0,0,0-.07-2.93,1.88,1.88,0,0,0-1.47-.86Zm2-2.94.09,0,.12.05.21.11c.19.12.37.25.55.39l.42.38c.15.17.3.35.43.53a7.43,7.43,0,0,1,.49.75,4.8,4.8,0,0,1,.26.57,8.25,8.25,0,0,1,.33,1.07l.09.42a1.38,1.38,0,0,0-.63,1.22,1.42,1.42,0,0,0,1.28,1.37h.16a19.42,19.42,0,0,0,2-.27l.53,0h0l1.23-.14c1.34-.19,2.65-.5,4-.76,1.53-.3,3.06-.6,4.58-1l.13,0,.1,0,.41-.09,1.76-.42,1.11-.27h0l.15,0c1.64-.4,3.27-.77,4.91-1.13,1.18-.25,2.35-.48,3.52-.75s2.32-.52,3.49-.75,2.13-.4,3.19-.64,1.95-.52,2.93-.76c1.26-.31,2.55-.52,3.8-.84.9-.23,1.79-.48,2.69-.7,1.18-.29,2.37-.53,3.55-.84.94-.24,1.88-.51,2.81-.8,1.72-.54,3.45-1.1,5.13-1.73.83-.31,1.68-.58,2.52-.87.51-.17,1-.4,1.52-.55a1.44,1.44,0,0,0,1-.46.88.88,0,0,0,.12-.17,1.25,1.25,0,0,0,.73-.66c.26-.55.47-1.12.71-1.67a22.06,22.06,0,0,1,1.08-2l.05-.09h0l.07-.11a10.58,10.58,0,0,1,.76-1.09h0a9.4,9.4,0,0,1,.66-.74,1.19,1.19,0,0,1,.18-.15,4.43,4.43,0,0,1,.46-.29c.18-.09.35-.18.54-.26h0a1.21,1.21,0,0,0,.8-.45,1.49,1.49,0,0,0,.37-1.08h0s0-.05,0-.07c0-.28,0-.55,0-.82V112c0,.06,0,.12,0,.19.07-1.83.13-3.66.19-5.49,0-.24,0-.48,0-.73.12-2.71.3-5.41.42-8.12.06-1.38.12-2.76.09-4.14,0-.35,0-.7,0-1a5.39,5.39,0,0,0-.06-.8A1.6,1.6,0,0,0,139,90.6l-.17,0a1.29,1.29,0,0,0-.72-.6c-.8-.25-1.64-.4-2.44-.63h-.08c-.55-.18-1.1-.38-1.63-.61-.35-.16-.68-.34-1-.53A18.16,18.16,0,0,1,131.15,87a4.13,4.13,0,0,0-1.28-.92,2.16,2.16,0,0,0-1.1-.07l-.54.1c-.54.1-1.07.22-1.6.37-1.18.32-2.34.68-3.52,1l-.19,0c-.78.2-1.56.41-2.33.64A1.47,1.47,0,0,0,120,88a2,2,0,0,0-1.64.62,2.39,2.39,0,0,0-.55,1.33,5.24,5.24,0,0,0,0,1,7.61,7.61,0,0,0,.12,1.16l.57,3c.18,1.05.33,2.09.45,3.16v0s0,0,0,0v0h0s0,0,0,0h0v.06s0,0,0,0h0v0a29.3,29.3,0,0,1,0,3.38v0q0,.81-.09,1.62c0,.45,0,.91-.12,1.36,0,.12,0,.24-.08.36l-.08.23,0,0a9.73,9.73,0,0,1-1,.45c-.58.22-1.17.38-1.75.59s-1.1.36-1.65.5c-1.7.41-3.38.9-5.08,1.31a28.79,28.79,0,0,1-3.7.59l-.15,0h-.06a6.78,6.78,0,0,1-.9,0c-.42,0-.83-.08-1.24-.14l-.09,0h-.28l-.31-.07-.12,0,0,0,0,0-.06-.1c0-.11-.11-.22-.15-.33a11.06,11.06,0,0,1-.35-1.25l-.06-.24c0-.06,0-.11,0-.16l0-.13c0,.07,0,.13.05.2a18.47,18.47,0,0,1-.38-2.1v0c-.07-.74-.11-1.49-.16-2.23s-.12-1.32-.19-2l0-.27c0-.3-.06-.6-.08-.9,0-.64-.06-1.28-.15-1.91A3.66,3.66,0,0,0,99.69,95a2.23,2.23,0,0,0-1.42-.57V94.3l-.63.16c-.49.07-1,.23-1.44.3h-.14a1.28,1.28,0,0,0-.82.31l-.61.16c-.68.19-1.36.4-2,.58h0c-1.67.39-3.36.67-5,.94s-3.35.76-5,1.17l-.11,0h.07c-.4.09-.8.2-1.2.25h-.2a3,3,0,0,0-.43,0l.05,0,.19,0a1.33,1.33,0,0,0-1,.49,2.17,2.17,0,0,0-.49,1.36,9.62,9.62,0,0,1-.26,1.09,7.1,7.1,0,0,1-.3.81,8,8,0,0,1-.38.71c-.08.12-.16.24-.25.35s-.23.26-.35.38l-.56.47c-.22.16-.46.3-.7.44s-.59.27-.88.39l-.52.18-.39.06a4.06,4.06,0,0,0-1.16.16,2,2,0,0,0-.77.52h0a1.42,1.42,0,0,0-1.12.94,7.48,7.48,0,0,0-.23,1.7c0,.66-.09,1.32-.13,2-.08,1.37-.12,2.74-.22,4.1s-.18,2.54-.22,3.82a1.41,1.41,0,0,1,0,.2v.23c0,1.32-.18,2.63-.29,4,0,.63-.12,1.26-.22,1.88,0,0,0,0,0,0v.07s0,0,0,0c-.14.72-.32,1.43-.4,2.16A3,3,0,0,0,71.43,129l-.17,0-.08,0A6,6,0,0,0,71.92,129ZM35,92.13a1.36,1.36,0,0,0-.58.78,1.52,1.52,0,0,0-.54.9,3.22,3.22,0,0,0-.08.82c0,1,0,2.06.07,3.09,0,1.29.09,2.59.11,3.88,0,2.55.09,5.11,0,7.66,0,.22,0,.44,0,.66a.48.48,0,0,0,0,.12c0,.52,0,1,0,1.55a1.21,1.21,0,0,1,0,.19c0,1-.09,1.94-.12,2.92,0,.79-.07,1.58-.14,2.37a1.48,1.48,0,0,0,.17.81,1.41,1.41,0,0,0,0,1.47c.37.53.85,1,1.26,1.5.09.12.17.25.25.38s.13.27.19.4.06.19.08.28a2.79,2.79,0,0,1,.07.38c0,.12,0,.23,0,.34h0a1.3,1.3,0,0,0-.62.49h0a1.25,1.25,0,0,0-.23.51,1.45,1.45,0,0,0,.3,1.25,1.87,1.87,0,0,0,.74.53c.77.39,1.53.8,2.29,1.18,1.06.53,2.09,1.1,3.12,1.66s2.12,1.14,3.17,1.73c.57.32,1.13.66,1.72.95s1,.49,1.51.74,1.09.54,1.61.86l1,.65,0,0,.56.34.41.25.22.13a1.2,1.2,0,0,0,.64.17,1.29,1.29,0,0,0,.58-.13.8.8,0,0,0,.15,0h.14a1.48,1.48,0,0,0,1.45-1.31c0-.2,0-.4.08-.6a15.22,15.22,0,0,1,.39-1.65c.09-.28.19-.56.31-.84a8.8,8.8,0,0,1,.59-1.14,1.79,1.79,0,0,1,.2-.28,1.45,1.45,0,0,1,.17-.18,3.17,3.17,0,0,1,.35-.29c.15-.11.32-.22.49-.32s.42-.21.64-.3a11.11,11.11,0,0,1,1.16-.35,2.85,2.85,0,0,0,.72-.21,1.6,1.6,0,0,0,.85-1,1.47,1.47,0,0,0,0-.59,1.45,1.45,0,0,0,.53-.81c.2-1,.3-1.92.43-2.88.19-1.42.28-2.84.43-4.26.23-2.09.54-4.17.79-6.25.14-1.12.21-2.25.34-3.37.06-.54.11-1.09.17-1.63,0-.37,0-.75.1-1.11,0,0,0,0,0,.07a1.38,1.38,0,0,0-.1-.89.86.86,0,0,0-.1-.16,1.48,1.48,0,0,0-1.05-1c-.47-.1-.95-.16-1.43-.23a4.37,4.37,0,0,1-.52-.12l-.32-.11-.14-.08-.34-.24-.38-.34c-.15-.17-.3-.34-.43-.52a11.53,11.53,0,0,1-.66-1c-.14-.26-.27-.52-.38-.78s-.07-.24-.1-.36a13.67,13.67,0,0,1-.27-1.42v-.17a1.16,1.16,0,0,0,.09-.56,1.43,1.43,0,0,0-1.09-1.33,1.52,1.52,0,0,0-1.22.28l-1-.41q-1-.44-2.13-.84l-1.89-.72c-.77-.29-1.5-.63-2.27-.92-.6-.22-1.19-.42-1.79-.66L44,91.32c-1-.37-2-.64-3-.94a3.09,3.09,0,0,0-.71-.18h0a1.48,1.48,0,0,0-1.64.34c-.26.27-.48.58-.75.85l-.2.17-.34.22-.19.09-.21.07-.5.07h0a1.3,1.3,0,0,0-.52-.1A1.46,1.46,0,0,0,35,92.13ZM56.7,131.38a0,0,0,0,1,0,0v0h0c0,.1,0,.21,0,.31v.11a1.44,1.44,0,0,0,1.27,1.55h.14a1.43,1.43,0,0,0,1.41-1.27,3.22,3.22,0,0,0,0-.62h0a1.84,1.84,0,0,0,0-.25h0l0,0a1.46,1.46,0,0,0-.27-.58.86.86,0,0,0-.16-.18,1.46,1.46,0,0,0-1-.37,1.43,1.43,0,0,0-1.34,1.2v0Zm7.91-15.81c-.12,1.78-.25,3.55-.38,5.33-.16,2-.31,3.95-.4,5.94a1.44,1.44,0,0,0,1.27,1.54h.13a1.41,1.41,0,0,0,1.41-1.27c.16-3.76.55-7.5.77-11.26a1.42,1.42,0,0,0-1.26-1.54H66A1.41,1.41,0,0,0,64.61,115.57Zm72.13,2.58a3.09,3.09,0,0,0-.43,1.59,1.46,1.46,0,0,0,1.44,1.38h0a1.46,1.46,0,0,0,1.39-1.4,2.82,2.82,0,0,0,.23-1,1.44,1.44,0,0,0-1.09-1.34,1.66,1.66,0,0,0-.32,0A1.42,1.42,0,0,0,136.74,118.15ZM109.3,92.31a4,4,0,0,0-1.37.84,3.68,3.68,0,0,0-1.3,2.93,2.86,2.86,0,0,0,.92,2.06,4.64,4.64,0,0,0,1.22.77c0,.06,0,.12,0,.18-.47,1.49-1.08,2.93-1.69,4.36a2.92,2.92,0,0,0-.25.86,1.64,1.64,0,0,0,1,1.67,2,2,0,0,0,.68.12,9.74,9.74,0,0,0,1.21-.14c.65-.06,1.3-.11,1.94-.22s1-.22,1.56-.36a7.94,7.94,0,0,0,1-.28,1.65,1.65,0,0,0,1-1.9,13,13,0,0,0-.78-2c-.25-.63-.51-1.26-.77-1.89-.18-.42-.36-.83-.56-1.24a2.78,2.78,0,0,0,.93-1.7,2.51,2.51,0,0,0-.66-1.87,3.37,3.37,0,0,0-.6-.54V93.9a2,2,0,0,0-1.9-1.76h-.27A3.75,3.75,0,0,0,109.3,92.31Zm-43.13,9.83c0,.18,0,.35,0,.53,0,.49-.06,1-.12,1.48a1.42,1.42,0,0,0,1.27,1.55h.14a1.44,1.44,0,0,0,1.41-1.27,14.72,14.72,0,0,0,.12-1.49,6.6,6.6,0,0,0,0-.77,1.42,1.42,0,0,0-1.41-1.34h0A1.4,1.4,0,0,0,66.17,102.14Zm6.67-3a2.36,2.36,0,0,0-.42,1.1,2,2,0,0,0,.58,1.68,2.19,2.19,0,0,0,.84.44,2.33,2.33,0,0,0,.53.06l.4,0a2.53,2.53,0,0,0,.86-.26,1.43,1.43,0,0,0,.68-1.89,1.31,1.31,0,0,0-.33-.44,1.4,1.4,0,0,0,0-.5,1.41,1.41,0,0,0-1.07-1.14l-.11,0h-.23A2.08,2.08,0,0,0,72.84,99.15ZM60.46,98a1.43,1.43,0,1,0,1.38-1.47A1.43,1.43,0,0,0,60.46,98ZM34.41,88.3a1.44,1.44,0,0,0,1.47,1.37,1.42,1.42,0,1,0-1.47-1.37ZM137.18,83a2.35,2.35,0,0,0-.91,1,2,2,0,0,0,.73,2.64,1.57,1.57,0,0,0,.84.25A1.4,1.4,0,0,0,139.15,85l.15-.22a1.42,1.42,0,0,0-.28-1.73,1.22,1.22,0,0,0-.9-.37A1.56,1.56,0,0,0,137.18,83Z" fill="#ffca11"/>
          <path d="M55.92,47.23a1.43,1.43,0,0,1,.19,1.86,8.73,8.73,0,0,1-1,1,13,13,0,0,0-1,1.08c-.23.3-.44.6-.64.91s-.39.71-.56,1.07c-.23.56-.46,1.12-.64,1.7a5.5,5.5,0,0,1-.37,1,3.44,3.44,0,0,1-.78.92,12.44,12.44,0,0,0-1,1.15,17.09,17.09,0,0,0-1.22,1.79,23.08,23.08,0,0,0-1.41,2.7c-.39.87-.78,1.73-1.12,2.62s-.57,1.6-.82,2.4a.32.32,0,0,0,0,.09l0,.1a26.91,26.91,0,0,0-.69,3.18,32,32,0,0,0-.43,4.13v0a28.7,28.7,0,0,0,.11,2.93v0a.06.06,0,0,0,0,0,.19.19,0,0,0,0,.08c.11,1.09.28,2.18.35,3.28a18.88,18.88,0,0,1,0,2c-.05.79-.08,1.58-.1,2.37a46.68,46.68,0,0,0,.08,6c0,.15,0,.31.07.47s0,.05,0,.07l.07.14,0,.06,0,0,.09.08.2.14c.19.1.39.21.59.3s.43.18.65.25c.4.12.8.2,1.2.32.61.2,1.2.44,1.8.68a14.41,14.41,0,0,0,1.44.5,1.79,1.79,0,0,1,1.28,1.58,1.74,1.74,0,0,1-1.29,1.71,5.42,5.42,0,0,1-1.14.18l-1,.08c-.29,0-.57.08-.86.14l-.32.1-.34.16-.19.12L46.7,99l-.19.21c-.15.19-.29.39-.42.59l-.16.29c-.15.36-.27.72-.39,1.09A42.62,42.62,0,0,0,44.41,106c-.35,2.1-.55,4.2-.72,6.32s-.29,4-.36,6v0c0,1,0,2,0,3,0,.83,0,1.66.1,2.48,0,.23.06.47.11.7s.13.43.2.64l.14.3.12.18,0,.06c.44.58.92,1.12,1.35,1.72a4.65,4.65,0,0,1,.75,1.47c.15.57.24,1.16.37,1.74a9.15,9.15,0,0,0,.33,1,15.83,15.83,0,0,0,.69,1.44c.31.53.64,1,1,1.58a2.4,2.4,0,0,1,.35.86,1.67,1.67,0,0,1-.56,1.54,1.5,1.5,0,0,1-1,.38,1.57,1.57,0,0,1-.65-.13,4.8,4.8,0,0,1-.66-.37c-1.08-.71-2.12-1.51-3.17-2.27s-2-1.55-3.06-2.36l.16.12c-1.12-.91-2.19-1.87-3.31-2.77-.64-.51-1.3-1-1.94-1.51s-1-.76-1.53-1.11-.89-.59-1.3-.92a4.7,4.7,0,0,1-.83-.9h0l-.08-.1a3.71,3.71,0,0,1-.58-1.07,5.56,5.56,0,0,1-.13-1.77c0-1.33.11-2.66.2-4s.23-2.54.33-3.81.18-2.61.22-3.91c0,0,0-.09,0-.14.08-2.78.09-5.57,0-8.35,0-1.42-.12-2.84-.22-4.26,0-.57-.09-1.14-.11-1.72s0-1.34,0-2a.28.28,0,0,1,0-.09v-.16a1.48,1.48,0,0,1,0-.21c0-.14,0-.27,0-.4v-.09a.28.28,0,0,1,0-.09,0,0,0,0,0,0,0c0-.16,0-.34,0-.5,0,.07,0,.14,0,.21,0-.14,0-.28,0-.41.08-2.73.29-5.45.44-8.17.08-1.41.13-2.82.19-4.22s.14-2.59.19-3.89v-.41c0-.77,0-1.55,0-2.32s0-1.71,0-2.57A18,18,0,0,1,31.92,68c.2-.91.48-1.82.76-2.71a16.65,16.65,0,0,1,.7-2c.31-.69.64-1.38,1-2.06a25.21,25.21,0,0,1,2.33-3.69c.43-.59.88-1.17,1.36-1.72s.89-1,1.35-1.43c.89-.9,1.82-1.75,2.78-2.58a15.56,15.56,0,0,1,2.93-2.11c.88-.46,1.8-.81,2.71-1.2.75-.32,1.49-.67,2.25-.93a8.54,8.54,0,0,1,1.58-.33c.4,0,.81,0,1.21-.07a3.09,3.09,0,0,1,.68,0,1.64,1.64,0,0,1,.38.1,1.81,1.81,0,0,1,.57-.33A1.45,1.45,0,0,1,55.92,47.23Z" fill="#110802" fill-opacity="0.25"/>
          <path d="M99.12,108.2a1.49,1.49,0,0,1-1-1,.94.94,0,0,1-.06-.29c-.07-.25-.15-.48-.22-.72-.16-.5-.29-1-.4-1.51-.17-.72-.28-1.45-.44-2.18l-.12-.4s0-.1-.08-.16l0,0-.12-.11a3.62,3.62,0,0,0-.32-.22,7,7,0,0,0-.66-.36l-.48-.19-.59-.13-.6,0h.2l-.44,0h.21a20.26,20.26,0,0,0-2.06.07l-.24.06c-1.29.28-2.59.53-3.88.82l-.15,0c-.93.38-1.82.86-2.73,1.3-.48.23-1,.43-1.46.67l-.27.18,0,0,0,0-.12.08.11-.08c-.51.39-1,.84-1.44,1.25s-1.13,1-1.73,1.4a5.06,5.06,0,0,1-1.86.88,1.59,1.59,0,0,1-1.94-1.68,1.68,1.68,0,0,1,.84-1.24l.08,0a1.52,1.52,0,0,1,.6-.84,2.71,2.71,0,0,0,.35-.24,10.26,10.26,0,0,0,1.2-1,3.33,3.33,0,0,0,.36-.39l.08-.1v0h0a1.55,1.55,0,0,1,0-.21,1.53,1.53,0,0,1,1.63-1.16,1.44,1.44,0,0,1,.81.34l.49-.23a1.55,1.55,0,0,1,.67-1,4.8,4.8,0,0,1,1.3-.47c.51-.16,1-.3,1.53-.44.94-.24,1.9-.45,2.86-.61.34-.08.67-.15,1-.21.8-.14,1.6-.25,2.4-.36l1.25-.27a17.86,17.86,0,0,1,3.26-.43,3.94,3.94,0,0,1,2.66.67,1.58,1.58,0,0,1,0,2.35,1.13,1.13,0,0,1-.36.22,4.92,4.92,0,0,1,.28.45,5.2,5.2,0,0,1,.42,1.3c.19.83.32,1.68.51,2.52.16.64.4,1.26.52,1.91a1.58,1.58,0,0,1-.5,1.55,1.46,1.46,0,0,1-.94.35A1.24,1.24,0,0,1,99.12,108.2Z" fill="#110802" fill-opacity="0.25"/>
          <path d="M134.15,114.47h0l0,.06a1.69,1.69,0,0,1,.12-1.73l.16-.24a.47.47,0,0,0,0-.1l0,0c0-.07,0-.15.05-.23a15.24,15.24,0,0,0,.11-1.65c0-.81.08-1.62.11-2.43,0-1.58,0-3.17,0-4.75s-.05-3.12-.19-4.68c0-.34-.1-.68-.17-1s-.2-.65-.32-1h0a4,4,0,0,0-.25-.56,5.69,5.69,0,0,0-.33-.52l0-.06c-.23-.28-.45-.56-.69-.82l-.21-.2-.15-.08-.44-.24c-.3-.11-.61-.22-.9-.34a16.4,16.4,0,0,1-3.33-2,14.22,14.22,0,0,1-1.4-1.17,2.8,2.8,0,0,1-1.15-1.88,1.76,1.76,0,0,1,1.82-1.75,3.5,3.5,0,0,1,1.31.25,3.73,3.73,0,0,1,.72.36,13.74,13.74,0,0,1,1.87.54c1.09.39,2.16.82,3.26,1.16h0a13.64,13.64,0,0,1,2,.65,4.91,4.91,0,0,1,.59.33,2.77,2.77,0,0,1,1,1.44l.24.1a2.16,2.16,0,0,1,1.12,1.59,6.08,6.08,0,0,1,0,1.65c-.05.7-.11,1.39-.16,2.09-.11,1.54-.19,3.09-.27,4.63s-.2,3.22-.32,4.83c-.08,1-.15,1.89-.22,2.84s-.11,1.74-.21,2.61a1.55,1.55,0,0,1-.36.85c-.27,1.06-.9,2.26-2.06,2.3h-.08A1.51,1.51,0,0,1,134.15,114.47Z" fill="#110802" fill-opacity="0.25"/>
          <path d="M131.48,74.57a1.5,1.5,0,0,1-1.27-1,3.09,3.09,0,0,1,.07-1.73l.27-1.22a18.25,18.25,0,0,1,1.18-3.22,13.59,13.59,0,0,0,.57-1.5c.08-.27.14-.55.2-.83A38.16,38.16,0,0,0,133,60.5v0c0-.88,0-1.76-.08-2.64-.14-.44-.29-.87-.45-1.31-.31-.89-.63-1.77-1-2.66l0-.06c-.17-.42-.34-.83-.52-1.25l-.68-1a56.38,56.38,0,0,0-4-4.95,34.49,34.49,0,0,0-2.82-2.58,39.45,39.45,0,0,0-3.72-2.55h0c-.89-.54-1.79-1-2.7-1.55s-2.09-1.19-3.19-1.7l-1.49-.65c-.24-.1-.48-.22-.72-.31l-.26,0a1.4,1.4,0,0,1-1-.78,1.42,1.42,0,0,1,.12-1.42,1.53,1.53,0,0,1,1.25-.64,2.84,2.84,0,0,1,1.18.28c.94.37,1.88.75,2.8,1.18,1.26.59,2.47,1.29,3.7,2,1,.56,2,1.17,3,1.8a33,33,0,0,1,6.16,5l-.14-.15a51.22,51.22,0,0,1,4.48,5.48h0a2.87,2.87,0,0,1,.82.69,7.24,7.24,0,0,1,1.2,2.09q.16.42.3.84l.57,1c.61,1.11,1.19,2.23,1.72,3.38a22.8,22.8,0,0,1,1,2.51c.24.71.43,1.44.6,2.17h0l0,.08,0-.06a6.26,6.26,0,0,1,.14.73,2.49,2.49,0,0,1-.56,1.89c-.3.35-.65.67-1,1-.57.6-1.12,1.22-1.64,1.86l0,0a15.27,15.27,0,0,0-1,1.31l-.28.53a20.14,20.14,0,0,0-.71,2l-.06.18a3,3,0,0,1-.8,1.74,1.68,1.68,0,0,1-.94.36,1.44,1.44,0,0,1-.81.25Z" fill="#110802" fill-opacity="0.25"/>
        </g>
      </g>
    </g>
  </g>
</svg>
